<svg width="120" height="41" fill="none" xmlns="http://www.w3.org/2000/svg"><path d="M75.472 31.532h12.213v-1.468H75.472v1.468Zm-32.706 0H54.98v-1.468H42.766v1.468Zm-32.686 0h12.214v-1.468H10.08v1.468Z" fill="#494949"/><path d="M119.726 35.857h-.274v-4.13h.274a.294.294 0 0 1 .294.294v3.562a.296.296 0 0 1-.294.274Z" fill="#FFCE00"/><path d="M99.82 15.09h-2.798v17.244h2.798V15.091Z" fill="#355100"/><path d="M99.331 20.414h-2.799v11.92h2.8v-11.92Zm12.703-1.272 3.914-3.307a.235.235 0 0 1 .294.352l-1.214.998.118.215 2.427-1.311.469 2.192-1.428 2.055-3.523-1.546-.862.705a.216.216 0 0 1-.137 0 .193.193 0 0 1-.176 0 .223.223 0 0 1-.037-.1.232.232 0 0 1 .155-.253Zm6.772 17.538h-.666V26.481h.666a.704.704 0 0 1 .704.704v8.769a.701.701 0 0 1-.704.724Z" fill="#355100"/><path d="M98.411 7.555v23.977h20.63v-3.7c0-6.87-.627-15.775-5.363-20.59H98.744a.333.333 0 0 0-.333.313Zm5.167 2.368h11.529a25.297 25.297 0 0 1 2.564 8.358h-3.034a1.428 1.428 0 0 1-1.292-.842 1.392 1.392 0 0 0-1.272-.86h-8.495V9.922Z" fill="#628421"/><path d="M1.507 36.562H98.41V30.69H1.507v5.872Z" fill="#000"/><path d="M99.037 10.648h3.798a.178.178 0 0 0 .106-.051.177.177 0 0 0 .05-.106.157.157 0 0 0-.156-.137h-3.798a.157.157 0 0 0-.156.137.176.176 0 0 0 .156.157Zm0 .724h3.798a.177.177 0 0 0 .106-.05.177.177 0 0 0 .05-.107.156.156 0 0 0-.156-.137h-3.798a.156.156 0 0 0-.156.137.176.176 0 0 0 .156.157Zm.001.724h3.797a.177.177 0 0 0 .106-.05.177.177 0 0 0 .05-.106.16.16 0 0 0 .002-.072.158.158 0 0 0-.158-.124h-3.797a.156.156 0 0 0-.157.137.177.177 0 0 0 .157.215Zm-.001.724h3.798a.177.177 0 0 0 .106-.05.177.177 0 0 0 .05-.106.156.156 0 0 0-.156-.137h-3.798a.156.156 0 0 0-.156.137.176.176 0 0 0 .156.156Zm0 .724h3.798a.177.177 0 0 0 .106-.05.177.177 0 0 0 .05-.106.156.156 0 0 0-.156-.137h-3.798a.156.156 0 0 0-.156.137.176.176 0 0 0 .156.156Zm0 .724h3.798a.177.177 0 0 0 .106-.05.177.177 0 0 0 .05-.106.157.157 0 0 0-.156-.137h-3.798a.156.156 0 0 0-.156.137.176.176 0 0 0 .156.156Zm0 .725h3.798a.177.177 0 0 0 .106-.05.177.177 0 0 0 .05-.107.156.156 0 0 0-.156-.137h-3.798a.156.156 0 0 0-.156.137.176.176 0 0 0 .156.157Zm0 .665h3.798a.175.175 0 0 0 .156 0 .156.156 0 0 0-.156-.137h-3.798a.156.156 0 0 0-.156.137.177.177 0 0 0 .156 0Z" fill="#355100"/><path d="M109.352 22.92h-1.448a.53.53 0 0 1-.528-.529v-.117h2.505v.117a.53.53 0 0 1-.529.529Z" fill="#006E8E"/><path d="M107.826 21.902h1.585a.586.586 0 0 1 .588.587v.137h-2.76v-.137a.59.59 0 0 1 .587-.587Z" fill="#000"/><path d="M3.543 29.144h90.64V0H3.544v29.144Z" fill="#FE6259"/><path d="M4.737 28.322h88.272V.822H4.737v27.5Z" fill="#AA0908"/><path d="M3.543 30.161h90.64v-1.037H3.544v1.037Z" fill="#303030"/><path d="M.685 33.92h.841v-3.25H.685v3.25Z" fill="#000"/><path d="M0 33.92h.685v-3.25H0v3.25Z" fill="red"/><path d="M118.356 37.325H71.519v-5.872h47.522v5.187a.668.668 0 0 1-.194.49.67.67 0 0 1-.491.195Z" fill="#355100"/><path d="M102.6 37.325a5.877 5.877 0 0 1-.333-1.957 5.325 5.325 0 0 1 10.648 0 5.877 5.877 0 0 1-.333 1.957H102.6Z" fill="#000"/><path d="M102.756 35.485a4.84 4.84 0 0 0 2.971 4.461 4.836 4.836 0 0 0 4.592-8.452 4.833 4.833 0 0 0-7.563 3.991Z" fill="#000"/><path d="M102.756 35.485a4.84 4.84 0 0 0 2.971 4.461 4.836 4.836 0 0 0 4.592-8.452 4.833 4.833 0 0 0-7.563 3.991Z" fill="#262626"/><path d="M102.756 35.485a4.84 4.84 0 0 0 2.971 4.461 4.836 4.836 0 0 0 4.592-8.452 4.833 4.833 0 0 0-7.563 3.991Z" fill="#262626"/><path d="M107.65 31.767c.049.304.049.615 0 .92a2.897 2.897 0 0 1 0-.92 2.897 2.897 0 0 1 0-.92c.049.304.049.615 0 .92Zm0 7.378c.049.305.049.616 0 .92a2.897 2.897 0 0 1 0-.92 2.897 2.897 0 0 1 0-.92c.049.305.049.616 0 .92Zm-2.838-3.66c-.312.05-.629.05-.94 0a2.897 2.897 0 0 1-.92 0c.296-.099.61-.132.92-.097.317-.036.637-.002.94.097Zm6.498.079c.508 0 .919-.035.919-.078 0-.044-.411-.079-.919-.079s-.92.035-.92.079c0 .043.412.078.92.078Zm-5.618-2.056a3.044 3.044 0 0 1-.705-.606c-.352-.353-.626-.666-.587-.705.266.163.504.368.705.607.274.352.587.665.587.704Zm3.915 3.934c.265.165.502.37.705.607.352.352.626.666.587.705a2.905 2.905 0 0 1-.705-.607c-.391-.352-.587-.666-.587-.705Zm-3.915 0s-.235.353-.587.705a2.905 2.905 0 0 1-.705.607s.235-.353.588-.705a3.05 3.05 0 0 1 .704-.607Zm3.915-3.934s.235-.352.587-.704c.201-.24.439-.444.705-.607 0 0-.235.352-.587.705a3.05 3.05 0 0 1-.705.606Zm-3.543-1.408a2.783 2.783 0 0 1-.274-.882c.192.239.338.511.431.803.14.278.239.575.293.88 0 0-.254-.332-.45-.802Zm3.054 6.752c.143.281.236.586.274.9a3.052 3.052 0 0 1-.431-.822c-.196-.47-.333-.88-.274-.88.192.238.338.51.431.802Zm-4.972-1.997c.272-.153.571-.252.881-.293-.247.19-.525.335-.822.43a3.021 3.021 0 0 1-.881.294c.248-.19.526-.335.822-.43Zm6.89-2.759a2.456 2.456 0 0 1-.881.293c.247-.19.525-.335.822-.43.277-.143.574-.242.881-.294-.248.19-.526.335-.822.43Zm-6.029.332a2.651 2.651 0 0 1-.881-.274 2.982 2.982 0 0 1-.822-.41c.307.041.605.134.881.273.297.085.576.224.822.411Zm5.167 2.095c.308.039.606.131.881.274.294.093.571.232.822.41 0 0-.411 0-.881-.254a2.735 2.735 0 0 1-.822-.43Zm-3.62 1.527a3.378 3.378 0 0 1-.274.9 2.725 2.725 0 0 1-.431.822 2.65 2.65 0 0 1 .274-.881 2.52 2.52 0 0 1 .431-.842Zm2.779-6.87a2.65 2.65 0 0 1-.274.88 2.52 2.52 0 0 1-.431.842 3.36 3.36 0 0 1 .274-.9c.096-.297.241-.576.431-.823Zm-2.525.665a2.84 2.84 0 0 1 0-.92c.142.281.228.587.254.9.084.3.117.61.098.92a3.007 3.007 0 0 1-.352-.9Zm1.566 7.3c.082.3.115.61.097.92a2.484 2.484 0 0 1-.254-.9 2.84 2.84 0 0 1 0-.92 3 3 0 0 1 .157.9Zm-4.443-3.053a2.88 2.88 0 0 1 .919-.098s-.391.157-.88.255c-.3.082-.61.115-.92.097.276-.137.574-.223.881-.254Zm7.32-1.233c-.299.082-.61.115-.92.098 0 0 .392-.157.881-.255.306-.082.623-.115.939-.097a2.988 2.988 0 0 1-.9.254Zm-5.97-.939a2.91 2.91 0 0 1-.802-.45 2.838 2.838 0 0 1-.725-.588c.294.097.567.25.803.45.43.274.763.548.724.588Zm4.619 3.112c.288.118.558.276.803.47.269.15.513.342.724.567a2.404 2.404 0 0 1-.802-.45 2.442 2.442 0 0 1-.725-.587Zm-3.875.743a2.38 2.38 0 0 1-.45.822c-.294.411-.548.744-.587.705.111-.287.263-.558.45-.802.154-.273.353-.517.587-.725Zm3.132-4.501c.094-.301.247-.58.45-.822.293-.411.548-.744.587-.705a3.253 3.253 0 0 1-.45.803 2.856 2.856 0 0 1-.587.724Zm-3.112-.118s-.294-.294-.588-.724a2.94 2.94 0 0 1-.45-.803c.241.202.44.448.588.725.2.236.353.508.45.802Zm3.092 4.639c.234.207.432.452.587.724.191.242.343.513.45.803 0 0-.294-.294-.587-.725a2.41 2.41 0 0 1-.45-.802Zm-4.678-.313c.242-.203.521-.356.822-.45-.21.225-.455.417-.724.567a2.392 2.392 0 0 1-.822.45c.21-.225.455-.417.724-.567Zm6.263-3.993a2.542 2.542 0 0 1-.822.43c.211-.225.455-.416.725-.567.241-.203.521-.356.822-.45a3.333 3.333 0 0 1-.725.587Zm-5.872 1.448a2.871 2.871 0 0 1-.919-.098 2.754 2.754 0 0 1-.881-.254c.303-.061.616-.061.92 0 .311.066.609.185.88.352Zm5.481 1.077c.31-.018.621.015.92.098.489.097.9.215.881.274a3.307 3.307 0 0 1-.92-.118 2.76 2.76 0 0 1-.881-.254Zm-3.288 2.192c.062.304.062.616 0 .92a3.003 3.003 0 0 1-.254.9 2.8 2.8 0 0 1 .097-.92c.006-.306.059-.61.157-.9Zm1.096-5.461a2.298 2.298 0 0 1 0-.92c.037-.311.123-.615.254-.9.051.305.051.615 0 .92a3.003 3.003 0 0 1-.254.9Z" fill="#000"/><path d="M104.538 35.485a3.056 3.056 0 0 0 1.885 2.801 3.053 3.053 0 1 0-1.885-2.8Z" fill="#6C6D6D"/><path d="M105.027 35.485a2.56 2.56 0 0 0 1.583 2.349 2.565 2.565 0 0 0 2.446-4.473 2.566 2.566 0 0 0-3.834 1.123 2.565 2.565 0 0 0-.195 1.001Z" fill="#9E9E9E"/><path d="M105.535 35.486a2.058 2.058 0 0 0 1.307 1.892 2.053 2.053 0 0 0 2.776-1.582 2.053 2.053 0 0 0-2.125-2.386 1.959 1.959 0 0 0-1.958 2.076Z" fill="#494949"/><path d="M105.692 35.485a1.825 1.825 0 0 0 1.096 1.665 1.82 1.82 0 1 0-1.096-1.665Z" fill="#6C6D6D"/><path d="M106.201 35.485a1.39 1.39 0 1 0 2.78-.037 1.39 1.39 0 0 0-2.78.037Z" fill="#9E9E9E"/><path d="M65.647 35.485a4.834 4.834 0 1 0 9.668 0 4.834 4.834 0 0 0-9.668 0Z" fill="#000"/><path d="M65.647 35.485a4.834 4.834 0 1 0 9.668 0 4.834 4.834 0 0 0-9.668 0Z" fill="#262626"/><path d="M65.647 35.485a4.834 4.834 0 1 0 9.668 0 4.834 4.834 0 0 0-9.668 0Z" fill="#262626"/><path d="M70.481 32.687c.043 0 .078-.412.078-.92s-.035-.92-.078-.92-.078.412-.078.92.035.92.078.92Zm.079 6.458c.06.304.06.617 0 .92a2.883 2.883 0 0 1-.098-.92 2.897 2.897 0 0 1 0-.92c.093.298.126.61.097.92Zm-3.778-3.581c.508 0 .92-.035.92-.078 0-.044-.412-.079-.92-.079s-.92.035-.92.079c0 .043.412.078.92.078Zm7.418 0c.508 0 .92-.035.92-.078 0-.044-.412-.079-.92-.079s-.92.035-.92.079c0 .043.412.078.92.078Zm-5.696-2.056a2.916 2.916 0 0 1-.724-.606c-.352-.353-.627-.666-.587-.705.27.157.509.363.704.607.242.197.448.436.607.704Zm3.915 3.934c.265.165.502.37.705.607.242.198.447.436.606.705 0 0-.352-.235-.724-.607s-.587-.666-.587-.705Zm-3.915 0c-.16.269-.365.508-.607.705-.195.244-.434.45-.704.607 0 0 .235-.353.587-.705a2.92 2.92 0 0 1 .724-.607Zm3.915-3.934s.235-.352.587-.704.685-.646.724-.607a2.66 2.66 0 0 1-.606.705c-.203.237-.44.442-.705.606ZM68.974 32.1a2.562 2.562 0 0 1-.294-.882c.192.239.338.511.43.803.14.278.24.575.294.88a2.466 2.466 0 0 1-.43-.802Zm3.034 6.752c.144.283.243.587.293.9a2.837 2.837 0 0 1-.45-.822 2.78 2.78 0 0 1-.274-.88c.192.238.338.51.43.802Zm-4.972-1.997c.273-.153.572-.252.881-.293-.247.19-.525.335-.822.43a3.016 3.016 0 0 1-.88.294 2.72 2.72 0 0 1 .821-.43Zm6.89-2.759a2.445 2.445 0 0 1-.881.293c.247-.19.525-.335.822-.43.277-.143.574-.242.88-.294a2.72 2.72 0 0 1-.821.43Zm-6.029.332a2.642 2.642 0 0 1-.88-.274 2.974 2.974 0 0 1-.823-.41c.308.038.606.131.881.273.297.085.576.224.822.411Zm5.168 2.095c.307.039.606.131.88.274.301.09.586.23.842.41 0 0-.41 0-.9-.254a2.72 2.72 0 0 1-.822-.43Zm-3.621 1.527c-.038.313-.13.618-.274.9a2.722 2.722 0 0 1-.43.822 2.64 2.64 0 0 1 .273-.881c.099-.301.244-.585.43-.842Zm2.779-6.87a2.64 2.64 0 0 1-.274.88 3.309 3.309 0 0 1-.411.842 2.68 2.68 0 0 1 .274-.9c.084-.298.223-.577.41-.823Zm-2.525.665a2.527 2.527 0 0 1 0-.92c.132.285.217.589.255.9a2.1 2.1 0 0 1 0 .92 2.993 2.993 0 0 1-.255-.9Zm1.566 7.3c.082.3.115.61.098.92a2.994 2.994 0 0 1-.255-.9 2.817 2.817 0 0 1 0-.92c.098.29.15.594.157.9Zm-4.444-3.053c.3-.082.61-.115.92-.098 0 0-.39.157-.88.255-.3.082-.61.115-.92.097.277-.133.575-.219.88-.254Zm7.321-1.233c-.3.083-.61.116-.92.098.281-.142.587-.228.9-.255.3-.083.61-.116.92-.097a2.994 2.994 0 0 1-.9.254Zm-5.97-.939a3.25 3.25 0 0 1-.802-.45 2.84 2.84 0 0 1-.725-.588c.302.095.581.248.823.45.41.274.743.548.704.588Zm4.619 3.112c.288.118.558.276.803.47.269.15.513.342.724.567a2.408 2.408 0 0 1-.802-.45 2.427 2.427 0 0 1-.725-.587Zm-3.875.743c-.094.302-.247.58-.45.822-.274.411-.548.744-.587.705a3.25 3.25 0 0 1 .45-.802 2.84 2.84 0 0 1 .587-.725Zm3.132-4.501c.104-.297.256-.575.45-.822.294-.411.548-.744.587-.705a2.624 2.624 0 0 1-.45.803 2.84 2.84 0 0 1-.587.724Zm-3.112-.118s-.294-.294-.587-.724a2.565 2.565 0 0 1-.431-.803c.225.211.416.456.568.725.2.236.353.508.45.802Zm3.092 4.639c.241.201.44.447.588.724.2.236.353.509.45.803 0 0-.294-.294-.587-.725a3.699 3.699 0 0 1-.45-.802Zm-4.677-.313c.243-.2.522-.352.821-.45-.205.23-.45.423-.724.567-.239.196-.51.349-.803.45 0 0 .294-.293.705-.567Zm6.263-3.993a2.544 2.544 0 0 1-.823.43c.211-.225.455-.416.725-.567.244-.199.523-.351.822-.45a2.837 2.837 0 0 1-.724.587Zm-5.853 1.448c-.31.019-.62-.014-.92-.097a2.997 2.997 0 0 1-.9-.255 2.31 2.31 0 0 1 .92 0c.317.068.621.187.9.352Zm5.461 1.077c.31-.018.62.015.92.098.509.097.9.215.88.274-.31.004-.62-.036-.919-.118a2.762 2.762 0 0 1-.88-.254Zm-3.268 2.192c.017.311-.023.623-.118.92a2.995 2.995 0 0 1-.254.9 2.818 2.818 0 0 1 .098-.88c.022-.33.115-.65.274-.94Zm1.077-5.461c-.019-.31.014-.62.097-.92a2.98 2.98 0 0 1 .255-.9c.05.305.05.615 0 .92a2.995 2.995 0 0 1-.353.9Z" fill="#000"/><path d="M67.428 35.485a3.073 3.073 0 1 0 3.034-3.073 3.05 3.05 0 0 0-3.034 3.073Z" fill="#6C6D6D"/><path d="M67.917 35.486a2.563 2.563 0 1 0 5.127-.04 2.563 2.563 0 0 0-5.127.04Z" fill="#9E9E9E"/><path d="M68.504 35.485a2.075 2.075 0 1 0 4.13-.402 2.075 2.075 0 0 0-4.13.402Z" fill="#494949"/><path d="M68.68 35.485a1.82 1.82 0 1 0 3.621-.377 1.82 1.82 0 0 0-3.62.377Z" fill="#6C6D6D"/><path d="M69.091 35.485a1.39 1.39 0 1 0 2.78-.04 1.39 1.39 0 0 0-2.78.04Z" fill="#9E9E9E"/><path d="M76.157 35.485a4.834 4.834 0 1 0 4.815-4.834 4.815 4.815 0 0 0-4.815 4.834Z" fill="#000"/><path d="M76.157 35.485a4.834 4.834 0 1 0 4.815-4.834 4.815 4.815 0 0 0-4.815 4.834Z" fill="#262626"/><path d="M76.157 35.485a4.834 4.834 0 1 0 4.815-4.834 4.815 4.815 0 0 0-4.815 4.834Z" fill="#262626"/><path d="M81.05 31.767c.061.303.061.616 0 .92a2.897 2.897 0 0 1 0-.92 2.897 2.897 0 0 1 0-.92c.061.303.061.616 0 .92Zm0 7.378c.061.304.061.617 0 .92a2.897 2.897 0 0 1 0-.92 2.897 2.897 0 0 1 0-.92c.061.304.061.617 0 .92Zm-3.778-3.581c.508 0 .92-.035.92-.078 0-.044-.411-.079-.92-.079-.508 0-.92.035-.92.079 0 .043.412.078.92.078Zm7.418 0c.508 0 .92-.035.92-.078 0-.044-.412-.079-.92-.079s-.92.035-.92.079c0 .043.412.078.92.078Zm-5.675-2.056a2.916 2.916 0 0 1-.724-.606c-.353-.353-.627-.666-.588-.705.04-.04.353.235.705.607.242.197.448.436.607.704Zm3.934 3.934c.5.37.942.812 1.311 1.312 0 0-.352-.235-.724-.607s-.626-.666-.587-.705Zm-3.934 0c-.16.269-.365.508-.607.705-.352.372-.665.646-.705.607-.039-.04.235-.353.588-.705.206-.24.451-.445.724-.607Zm3.934-3.934s.235-.352.587-.704.685-.646.724-.607a2.66 2.66 0 0 1-.607.705 2.66 2.66 0 0 1-.704.606ZM79.465 32.1a2.562 2.562 0 0 1-.294-.882c.192.239.338.511.431.803.14.278.239.575.294.88a2.466 2.466 0 0 1-.431-.802Zm3.034 6.752c.144.283.243.587.294.9a3.483 3.483 0 0 1-.45-.822 2.778 2.778 0 0 1-.275-.88c.192.238.338.51.431.802Zm-4.972-1.997c.272-.153.571-.252.88-.293-.246.19-.525.335-.821.43a3.015 3.015 0 0 1-.88.294 2.72 2.72 0 0 1 .821-.43Zm6.89-2.759a2.445 2.445 0 0 1-.88.293c.246-.19.524-.335.821-.43.277-.143.574-.242.881-.294a2.72 2.72 0 0 1-.822.43Zm-6.029.332a2.78 2.78 0 0 1-.88-.274 2.974 2.974 0 0 1-.822-.41c.307.038.605.131.88.273.298.085.576.224.822.411Zm5.168 2.095c.313.04.617.133.9.274.294.093.571.232.822.41 0 0-.411 0-.9-.254a2.72 2.72 0 0 1-.822-.43Zm-3.621 1.527c-.038.313-.13.618-.274.9-.196.47-.372.841-.431.822.05-.305.142-.602.274-.881.098-.301.244-.585.43-.842Zm2.779-6.87a2.642 2.642 0 0 1-.274.88 2.7 2.7 0 0 1-.41.842 2.68 2.68 0 0 1 .273-.9c.085-.298.224-.577.411-.823Zm-2.466.665a2.834 2.834 0 0 1 0-.92c.131.285.217.589.254.9.05.305.05.616 0 .92a2.094 2.094 0 0 1-.254-.9Zm1.507 7.3c.049.305.049.616 0 .92a2.997 2.997 0 0 1-.255-.9 2.817 2.817 0 0 1 0-.92c.132.285.218.589.255.9Zm-4.443-3.053a2.95 2.95 0 0 1 .94-.098 2.468 2.468 0 0 1-.9.255c-.3.082-.61.115-.92.098.276-.134.574-.22.88-.255Zm7.32-1.233c-.299.083-.61.116-.92.098.281-.142.587-.228.9-.255.3-.083.61-.116.92-.097a2.994 2.994 0 0 1-.9.254Zm-5.95-.939a2.877 2.877 0 0 1-.822-.45 3.33 3.33 0 0 1-.724-.588c.3.095.58.248.822.45a2.8 2.8 0 0 1 .724.588Zm4.599 3.112c.293.12.57.278.822.47.266.147.504.34.705.567a2.408 2.408 0 0 1-.803-.45 2.428 2.428 0 0 1-.724-.587Zm-3.875.743c-.094.302-.247.58-.45.822-.274.411-.548.744-.587.705.124-.285.281-.554.47-.802.15-.27.342-.514.567-.725Zm3.132-4.501c.104-.297.256-.575.45-.822.293-.411.548-.744.587-.705a2.622 2.622 0 0 1-.45.803 2.427 2.427 0 0 1-.587.724Zm-3.112-.118s-.294-.294-.587-.724a2.565 2.565 0 0 1-.43-.803c.23.206.423.45.567.725.2.236.353.508.45.802Zm3.112 4.639c.225.211.416.455.567.724.2.236.353.509.45.803 0 0-.293-.294-.587-.725a2.563 2.563 0 0 1-.43-.802Zm-4.678-.313c.236-.2.508-.353.802-.45-.205.23-.45.423-.724.567-.239.196-.51.349-.802.45 0 0 .293-.293.724-.567Zm6.302-3.993a2.815 2.815 0 0 1-.802.43s.293-.293.724-.567c.236-.2.509-.353.802-.45a2.834 2.834 0 0 1-.724.587Zm-5.872 1.448c-.31.019-.62-.014-.92-.097a2.996 2.996 0 0 1-.9-.255c.304-.062.617-.062.92 0 .317.068.621.187.9.352Zm5.422 1.077c.31-.018.621.015.92.098.316.027.623.12.9.274a3.366 3.366 0 0 1-.939-.118 2.763 2.763 0 0 1-.88-.254Zm-3.268 2.192c.018.31-.015.62-.098.92a2.278 2.278 0 0 1-.274.9c.011-.3.07-.598.176-.88a2.71 2.71 0 0 1 .196-.94Zm1.076-5.461a2.82 2.82 0 0 1 .098-.92c.037-.311.123-.615.254-.9a2.31 2.31 0 0 1 0 .92 2.995 2.995 0 0 1-.352.9Z" fill="#000"/><path d="M77.919 35.485a3.073 3.073 0 1 0 3.053-3.073 3.053 3.053 0 0 0-3.053 3.073Z" fill="#6C6D6D"/><path d="M78.408 35.485a2.564 2.564 0 1 0 5.127-.038 2.564 2.564 0 0 0-5.127.038Z" fill="#9E9E9E"/><path d="M78.917 35.486a2.075 2.075 0 1 0 1.957-2.075 1.957 1.957 0 0 0-1.957 2.075Z" fill="#494949"/><path d="M79.171 35.485a1.82 1.82 0 1 0 1.8-1.82 1.8 1.8 0 0 0-1.8 1.82Z" fill="#6C6D6D"/><path d="M79.583 35.485a1.39 1.39 0 1 0 2.778-.039 1.39 1.39 0 0 0-2.778.04Z" fill="#9E9E9E"/><path d="M28.165 35.485a4.835 4.835 0 1 0 9.67 0 4.835 4.835 0 0 0-9.67 0Z" fill="#000"/><path d="M28.165 35.485a4.835 4.835 0 1 0 9.67 0 4.835 4.835 0 0 0-9.67 0Z" fill="#262626"/><path d="M28.165 35.485a4.835 4.835 0 1 0 9.67 0 4.835 4.835 0 0 0-9.67 0Z" fill="#262626"/><path d="M33.078 31.767c.06.303.06.616 0 .92a2.897 2.897 0 0 1 0-.92 2.897 2.897 0 0 1 0-.92c.06.303.06.616 0 .92Zm0 7.378c.06.304.06.617 0 .92a2.897 2.897 0 0 1 0-.92 2.897 2.897 0 0 1 0-.92c.06.304.06.617 0 .92ZM29.3 35.564c.508 0 .92-.035.92-.078 0-.044-.412-.079-.92-.079s-.92.035-.92.079c0 .043.412.078.92.078Zm7.418 0c.508 0 .92-.035.92-.078 0-.044-.412-.079-.92-.079s-.92.035-.92.079c0 .043.412.078.92.078Zm-5.676-2.056a2.918 2.918 0 0 1-.724-.606c-.352-.353-.626-.666-.587-.705.27.157.509.363.704.607.242.197.448.436.607.704Zm3.935 3.934c.264.165.502.37.704.607.242.198.448.436.607.705 0 0-.352-.235-.724-.607s-.627-.666-.587-.705Zm-3.935 0a2.643 2.643 0 0 1-.606.705c-.196.244-.435.45-.705.607 0 0 .235-.353.587-.705a2.95 2.95 0 0 1 .724-.607Zm3.935-3.934s.234-.352.587-.704c.352-.352.685-.646.724-.607a2.66 2.66 0 0 1-.607.705c-.202.237-.44.442-.704.606ZM31.492 32.1a2.566 2.566 0 0 1-.293-.882c.192.239.338.511.43.803.14.278.24.575.294.88a2.468 2.468 0 0 1-.43-.802Zm3.034 6.752c.144.283.243.587.293.9a2.389 2.389 0 0 1-.45-.822 2.783 2.783 0 0 1-.274-.88c.192.238.338.51.43.802Zm-4.971-1.997c.272-.153.571-.252.88-.293-.247.19-.525.335-.821.43a3.017 3.017 0 0 1-.881.294c.247-.19.525-.335.822-.43Zm6.889-2.759a2.445 2.445 0 0 1-.88.293c.247-.19.525-.335.822-.43.252-.136.522-.235.802-.294a2.717 2.717 0 0 1-.744.43Zm-6.028.332a2.642 2.642 0 0 1-.881-.274 2.975 2.975 0 0 1-.822-.41c.307.038.605.131.88.273.298.085.577.224.823.411Zm5.167 2.095c.307.039.605.131.88.274.301.09.586.23.842.41 0 0-.41 0-.9-.254a2.719 2.719 0 0 1-.822-.43Zm-3.621 1.527a2.67 2.67 0 0 1-.274.9 2.72 2.72 0 0 1-.43.822c.039-.308.132-.606.274-.881.098-.301.244-.585.43-.842Zm2.779-6.87a2.642 2.642 0 0 1-.274.88 3.309 3.309 0 0 1-.41.842 2.68 2.68 0 0 1 .273-.9c.084-.298.224-.577.411-.823Zm-2.524.665a2.522 2.522 0 0 1 0-.92c.131.285.217.589.254.9a2.1 2.1 0 0 1 0 .92 2.995 2.995 0 0 1-.254-.9Zm1.565 7.3c.05.305.05.616 0 .92a2.997 2.997 0 0 1-.254-.9 2.83 2.83 0 0 1-.098-.92c.166.28.285.583.352.9Zm-4.423-3.053c.3-.082.61-.115.92-.098 0 0-.392.157-.881.255-.3.082-.61.115-.92.097.277-.133.575-.219.88-.254Zm7.301-1.233c-.3.083-.61.116-.92.098.28-.142.586-.228.9-.255a2.8 2.8 0 0 1 .92-.097 2.992 2.992 0 0 1-.9.254Zm-5.97-.939a3.25 3.25 0 0 1-.803-.45 2.84 2.84 0 0 1-.724-.588c.301.095.58.248.822.45.411.274.744.548.705.588Zm4.54 3.112c.288.118.559.276.803.47.269.15.513.342.724.567a2.407 2.407 0 0 1-.802-.45 2.426 2.426 0 0 1-.724-.587Zm-3.797.743c-.094.302-.247.58-.45.822-.274.411-.548.744-.587.705.111-.287.263-.558.45-.802.155-.273.353-.517.587-.725Zm3.132-4.501c.105-.297.257-.575.45-.822.294-.411.549-.744.588-.705a2.622 2.622 0 0 1-.45.803 2.84 2.84 0 0 1-.588.724Zm-3.112-.118s-.294-.294-.587-.724a2.565 2.565 0 0 1-.43-.803c.224.211.415.456.567.725.2.236.353.508.45.802Zm3.092 4.639c.241.201.44.447.588.724.2.236.353.509.45.803 0 0-.294-.294-.587-.725a3.699 3.699 0 0 1-.45-.802Zm-4.677-.313c.244-.2.523-.352.822-.45-.205.23-.45.423-.724.567-.24.196-.511.349-.803.45 0 0 .294-.293.705-.567Zm6.263-3.993a2.544 2.544 0 0 1-.822.43c.21-.225.455-.416.724-.567a2.58 2.58 0 0 1 .822-.45 2.837 2.837 0 0 1-.724.587Zm-5.852 1.448a2.8 2.8 0 0 1-.92-.097 2.995 2.995 0 0 1-.9-.255c.303-.062.616-.062.92 0 .317.068.62.187.9.352Zm5.461 1.077c.31-.018.62.015.92.098.508.097.9.215.88.274-.31.004-.62-.036-.92-.118a2.762 2.762 0 0 1-.88-.254Zm-3.269 2.192a2.54 2.54 0 0 1-.117.92c-.027.314-.113.62-.255.9a2.82 2.82 0 0 1 .098-.92 2.27 2.27 0 0 1 .274-.9Zm1.077-5.461a2.82 2.82 0 0 1 .098-.92c.037-.311.123-.615.254-.9.018.31-.015.62-.098.92a2.995 2.995 0 0 1-.254.9Z" fill="#000"/><path d="M33 38.539a3.053 3.053 0 1 0 0-6.107 3.053 3.053 0 0 0 0 6.107Z" fill="#6C6D6D"/><path d="M30.435 35.485a2.565 2.565 0 1 0 5.13-.04 2.565 2.565 0 0 0-5.13.04Z" fill="#9E9E9E"/><path d="M30.944 35.485a2.075 2.075 0 1 0 4.13-.402 2.075 2.075 0 0 0-4.13.402Z" fill="#494949"/><path d="M31.199 35.485a1.82 1.82 0 1 0 3.62-.376 1.82 1.82 0 0 0-3.62.376Z" fill="#6C6D6D"/><path d="M31.61 35.485a1.39 1.39 0 1 0 2.778-.039 1.39 1.39 0 0 0-2.778.04Z" fill="#9E9E9E"/><path d="M17.459 35.485a4.834 4.834 0 1 0 4.834-4.834 4.815 4.815 0 0 0-4.834 4.834Z" fill="#000"/><path d="M17.459 35.485a4.834 4.834 0 1 0 4.834-4.834 4.815 4.815 0 0 0-4.834 4.834Z" fill="#262626"/><path d="M17.459 35.485a4.834 4.834 0 1 0 4.834-4.834 4.815 4.815 0 0 0-4.834 4.834Z" fill="#262626"/><path d="M22.372 31.767c.049.304.049.615 0 .92a2.35 2.35 0 0 1 0-.92 2.35 2.35 0 0 1 0-.92c.049.304.049.615 0 .92Zm0 7.378c.049.305.049.616 0 .92a2.35 2.35 0 0 1 0-.92 2.35 2.35 0 0 1 0-.92c.049.305.049.616 0 .92Zm-3.798-3.581c.508 0 .92-.035.92-.078 0-.044-.412-.079-.92-.079s-.92.035-.92.079c0 .043.412.078.92.078Zm7.419 0c.508 0 .92-.035.92-.078 0-.044-.412-.079-.92-.079s-.92.035-.92.079c0 .043.412.078.92.078Zm-5.677-2.056a2.663 2.663 0 0 1-.704-.606 2.66 2.66 0 0 1-.607-.705s.352.235.724.607.626.665.587.704Zm3.934 3.934c.273.162.518.367.725.607.352.352.626.666.587.705-.04.039-.353-.235-.705-.607a2.663 2.663 0 0 1-.607-.705Zm-3.934 0s-.235.353-.587.705-.685.646-.724.607a2.68 2.68 0 0 1 .607-.705c.197-.242.436-.447.704-.607Zm3.934-3.934c.16-.268.365-.507.607-.704.352-.372.666-.646.705-.607.039.04-.235.352-.587.705a2.91 2.91 0 0 1-.725.606ZM20.766 32.1a3.208 3.208 0 0 1-.293-.882c.194.24.346.512.45.803.14.276.232.574.274.88a2.468 2.468 0 0 1-.43-.802Zm3.034 6.752c.155.278.255.584.294.9a3.073 3.073 0 0 1-.43-.822 3.212 3.212 0 0 1-.294-.88c.192.238.338.51.43.802Zm-4.952-1.997c.273-.153.572-.252.881-.293-.247.19-.525.335-.822.43a3.015 3.015 0 0 1-.88.294 2.72 2.72 0 0 1 .821-.43Zm6.89-2.759a2.445 2.445 0 0 1-.88.293c.247-.19.525-.335.822-.43.276-.143.573-.242.88-.294a2.72 2.72 0 0 1-.822.43Zm-6.028.332a2.818 2.818 0 0 1-.9-.274 2.974 2.974 0 0 1-.823-.41c.314.04.618.132.9.273.298.085.577.224.823.411Zm5.167 2.095c.307.041.604.134.88.274.294.093.572.232.823.41 0 0-.411 0-.881-.254a2.718 2.718 0 0 1-.822-.43Zm-3.641 1.527a2.67 2.67 0 0 1-.274.9 2.466 2.466 0 0 1-.41.822 2.62 2.62 0 0 1 .273-.881 2.7 2.7 0 0 1 .411-.842Zm2.799-6.87c-.05.304-.142.6-.274.88a3.014 3.014 0 0 1-.43.842 2.68 2.68 0 0 1 .274-.9c.195-.47.372-.842.43-.823Zm-2.505.665a2.84 2.84 0 0 1-.098-.92c.131.285.217.589.254.9.05.305.05.616 0 .92a2.998 2.998 0 0 1-.156-.9Zm1.527 7.3c.082.3.115.61.098.92a2.995 2.995 0 0 1-.255-.92 2.817 2.817 0 0 1 0-.92c.12.291.174.606.157.92Zm-4.424-3.053c.3-.083.61-.116.92-.098a2.467 2.467 0 0 1-.9.255c-.3.083-.61.116-.92.097.285-.131.589-.217.9-.254Zm7.32-1.233a2.956 2.956 0 0 1-.94.098 2.47 2.47 0 0 1 .901-.255c.3-.082.61-.115.92-.097a2.763 2.763 0 0 1-.88.254Zm-5.97-.939a2.918 2.918 0 0 1-.802-.45c-.43-.294-.763-.548-.724-.588.294.097.566.25.802.45.277.148.523.347.724.588Zm4.6 3.112c.295.115.572.274.822.47.265.157.508.348.724.567a2.387 2.387 0 0 1-.822-.45 2.802 2.802 0 0 1-.724-.587Zm-3.856.743a2.875 2.875 0 0 1-.45.822c-.294.411-.548.744-.587.705.101-.292.254-.563.45-.802.147-.278.347-.523.587-.725Zm3.132-4.501c.094-.301.247-.58.45-.822.274-.411.548-.744.587-.705a3.914 3.914 0 0 1-.47.803 3.033 3.033 0 0 1-.567.724Zm-3.132-.118a2.602 2.602 0 0 1-.567-.724 2.408 2.408 0 0 1-.45-.803c.234.208.432.452.587.725.19.24.336.511.43.802Zm3.113 4.639c.234.207.432.452.587.724.19.24.336.512.43.803 0 0-.293-.294-.567-.725a2.407 2.407 0 0 1-.45-.802Zm-4.678-.313c.239-.197.51-.349.802-.45 0 0-.293.293-.724.567-.236.2-.509.353-.802.45a2.56 2.56 0 0 1 .724-.567Zm6.282-3.993a2.56 2.56 0 0 1-.802.43c.205-.23.45-.423.724-.567.239-.196.51-.348.802-.45 0 0-.332.372-.724.587Zm-5.872 1.448c-.31.017-.62-.016-.92-.098a2.993 2.993 0 0 1-.9-.254c.31-.062.63-.062.94 0 .311.066.61.185.88.352Zm5.442 1.077c.31-.019.62.014.92.097.316.028.622.121.9.275a3.19 3.19 0 0 1-.92-.118 2.995 2.995 0 0 1-.9-.254Zm-3.269 2.192c.05.305.05.615 0 .92a2.993 2.993 0 0 1-.254.9 2.31 2.31 0 0 1 .04-.88c.02-.323.092-.64.214-.94Zm1.077-5.461a2.82 2.82 0 0 1 .098-.92 2.27 2.27 0 0 1 .274-.9c.05.305.05.615 0 .92-.07.32-.195.625-.372.9Z" fill="#000"/><path d="M19.22 35.485a3.072 3.072 0 1 0 3.073-3.073 3.053 3.053 0 0 0-3.073 3.073Z" fill="#6C6D6D"/><path d="M19.73 35.485a2.564 2.564 0 1 0 5.126-.038 2.564 2.564 0 0 0-5.127.038Z" fill="#9E9E9E"/><path d="M20.218 35.485a2.074 2.074 0 1 0 2.075-2.074 2.056 2.056 0 0 0-2.075 2.074Z" fill="#494949"/><path d="M20.473 35.485a1.82 1.82 0 1 0 1.82-1.82 1.8 1.8 0 0 0-1.82 1.82Z" fill="#6C6D6D"/><path d="M20.904 35.485a1.39 1.39 0 1 0 2.78 0 1.39 1.39 0 0 0-2.78 0Z" fill="#9E9E9E"/><path d="M16.03 38.402h.489v-4.815h-.49v4.815Z" fill="#000"/><path d="M111.681 4.795h-13.27v4.17h17.068a.49.49 0 0 0 .352-.842s-1.742-3.328-4.15-3.328Z" fill="#9C3"/><path d="M113.619 34.252h.215a8.1 8.1 0 0 0-7.574-6.537V9.924h-.235v17.948a7.925 7.925 0 0 1 7.594 6.38Z" fill="#355100"/><path d="M113.6 35.916h3.895v-3.895H113.6v3.895Z" fill="#628421"/><path d="M97.021 36.366h2.8v-.626h-2.8v.626Z" fill="red"/><path d="M100.936 7.83a.557.557 0 0 1-.12.466.572.572 0 0 1-.679.152.57.57 0 0 1-.316-.619.569.569 0 0 1 .92-.332.564.564 0 0 1 .195.332Zm1.625 0a.573.573 0 0 1-.121.466.562.562 0 0 1-.437.206.566.566 0 0 1-.558-.673.57.57 0 0 1 .921-.332.569.569 0 0 1 .195.332Zm1.624 0a.573.573 0 0 1-.121.466.568.568 0 1 1 .121-.467Z" fill="#FFCE00"/><path d="M105.79 16.578h.705V9.923h-.705v6.655Z" fill="#0091BC"/><path d="M90.112 29.868h1.449v-.43h-1.449v.43Zm-25.6 0h1.448v-.43h-1.448v.43Zm-25.582 0h1.429v-.43H38.93v.43Zm-25.62 0h1.448v-.43h-1.449v.43Z" fill="#FFCE00"/><path d="M91.522 28.694h.744V.607h-.744v28.087Zm-1.566 0h.744V.607h-.744v28.087Zm-1.566 0h.744V.607h-.744v28.087Zm-1.565 0h.743V.607h-.743v28.087Zm-1.547 0h.744V.607h-.744v28.087Zm-1.566 0h.744V.607h-.744v28.087Zm-1.585 0h.744V.607h-.744v28.087Zm-1.567 0h.745V.607h-.744v28.087Zm-1.564 0h.743V.607h-.743v28.087Zm-1.566 0h.743V.607h-.744v28.087Zm-1.547 0h.744V.607h-.744v28.087Zm-1.566 0h.744V.607h-.744v28.087Zm-1.566 0h.744V.607h-.744v28.087Zm-1.565 0h.744V.607h-.744v28.087Zm-1.566 0h.744V.607h-.744v28.087Zm-1.566 0h.744V.607h-.744v28.087Zm-1.546 0h.743V.607h-.743v28.087Zm-1.566 0h.744V.607h-.744v28.087Zm-1.566 0h.744V.607h-.744v28.087Zm-1.586 0h.745V.607h-.744v28.087Zm-1.565 0h.744V.607h-.744v28.087Zm-1.565 0h.743V.607h-.744v28.087Zm-1.567 0h.744V.607h-.744v28.087Zm-1.546 0h.744V.607h-.744v28.087Zm-1.566 0h.744V.607h-.744v28.087Zm-1.566 0h.744V.607h-.744v28.087Zm-1.565 0h.743V.607h-.744v28.087Zm-1.566 0h.744V.607h-.744v28.087Zm-1.566 0h.743V.607h-.743v28.087Zm-1.546 0h.744V.607h-.744v28.087Zm-1.566 0h.744V.607h-.744v28.087Zm-1.586 0h.744V.607h-.744v28.087Zm-1.565 0h.744V.607h-.744v28.087Zm-1.566 0h.743V.607h-.743v28.087Zm-1.566 0h.744V.607h-.744v28.087Zm-1.546 0h.743V.607h-.743v28.087Zm-1.566 0h.744V.607h-.744v28.087Zm-1.566 0h.744V.607h-.744v28.087Zm-1.565 0h.743V.607h-.743v28.087Zm-1.566 0h.744V.607h-.744v28.087Zm-1.566 0h.743V.607h-.743v28.087Zm-1.546 0h.743V.607h-.743v28.087Zm-1.566 0h.744V.607h-.744v28.087Zm-1.586 0h.744V.607h-.744v28.087Zm-1.565 0h.744V.607h-.744v28.087Zm-1.566 0h.743V.607h-.743v28.087Zm-1.566 0h.744V.607h-.744v28.087Zm-1.546 0h.743V.607h-.743v28.087Zm-1.567 0h.745V.607h-.744v28.087Zm-1.565 0h.744V.607h-.744v28.087Zm-1.565 0h.743V.607h-.744v28.087Zm-1.567 0h.744V.607h-.744v28.087Zm-1.565 0h.743V.607h-.743v28.087Zm-1.546 0h.743V.607h-.743v28.087Zm-1.566 0h.744V.607h-.744v28.087Zm-1.566 0h.744V.607H5.5v28.087Z" fill="#FE6259"/></svg>