<svg width="102" height="42" fill="none" xmlns="http://www.w3.org/2000/svg"><g clip-path="url(#a)"><path d="M81.591 38.084h5.598v-.656h-5.598v.656Zm-14.99 0h5.598v-.656H66.6v.656Zm-14.981 0h5.598v-.656H51.62v.656Z" fill="#494949"/><path d="M101.874 40.016h-.125V38.17h.125c.036 0 .07.014.095.038.026.025.04.058.04.093v1.591a.13.13 0 0 1-.043.087.137.137 0 0 1-.092.036Z" fill="#FFCE00"/><path d="M92.751 30.74h-1.283v7.702h1.283V30.74Z" fill="#355100"/><path d="M92.526 33.118h-1.282v5.324h1.282v-5.324Zm5.823-.568 1.794-1.477a.11.11 0 0 1 .132.026.1.1 0 0 1 .025.065.1.1 0 0 1-.022.066l-.557.446.054.096 1.113-.586.215.98-.655.917-1.615-.69-.394.314a.102.102 0 0 1-.063 0 .092.092 0 0 1-.08 0 .103.103 0 0 1 .053-.157Zm3.104 7.833h-.305v-4.555h.305c.085 0 .168.033.228.092a.31.31 0 0 1 .095.223v3.916a.307.307 0 0 1-.092.228.326.326 0 0 1-.231.096Z" fill="#355100"/><path d="M92.105 27.375v10.709h9.455V36.43c0-3.068-.287-7.046-2.458-9.196h-6.845a.155.155 0 0 0-.104.04.147.147 0 0 0-.048.1Zm2.368 1.057h5.284a11.082 11.082 0 0 1 1.175 3.733h-1.39a.668.668 0 0 1-.353-.103.644.644 0 0 1-.24-.273.624.624 0 0 0-.231-.278.65.65 0 0 0-.351-.106h-3.894v-2.973Z" fill="#628421"/><path d="M47.69 40.33h44.415v-2.622H47.69v2.622Z" fill="#000"/><path d="M92.393 28.756h1.74a.082.082 0 0 0 .049-.023.078.078 0 0 0 .023-.047.069.069 0 0 0-.024-.044.072.072 0 0 0-.048-.017h-1.74a.073.073 0 0 0-.048.017.07.07 0 0 0-.024.044.08.08 0 0 0 .072.07Zm0 .324h1.74a.081.081 0 0 0 .049-.023.078.078 0 0 0 .023-.048.07.07 0 0 0-.024-.044.073.073 0 0 0-.048-.017h-1.74a.073.073 0 0 0-.048.017.07.07 0 0 0-.024.044.08.08 0 0 0 .072.07Zm-.001.323h1.74a.081.081 0 0 0 .05-.023.077.077 0 0 0 .022-.047.068.068 0 0 0-.013-.061.071.071 0 0 0-.058-.027h-1.74a.073.073 0 0 0-.049.018.07.07 0 0 0-.024.044.077.077 0 0 0 .014.064.08.08 0 0 0 .058.032Zm.001.323h1.74a.082.082 0 0 0 .049-.023.078.078 0 0 0 .023-.047.07.07 0 0 0-.024-.044.072.072 0 0 0-.048-.017h-1.74a.073.073 0 0 0-.048.017.07.07 0 0 0-.024.044.08.08 0 0 0 .072.07Zm0 .324h1.74a.082.082 0 0 0 .049-.023.078.078 0 0 0 .023-.047.069.069 0 0 0-.024-.044.072.072 0 0 0-.048-.017h-1.74a.073.073 0 0 0-.048.017.07.07 0 0 0-.024.044c.002.018.01.034.023.047.013.013.03.02.049.023Zm0 .323h1.74a.079.079 0 0 0 .072-.07.07.07 0 0 0-.024-.044.073.073 0 0 0-.048-.017h-1.74a.074.074 0 0 0-.048.017.07.07 0 0 0-.024.044.08.08 0 0 0 .072.07Zm0 .324h1.74a.079.079 0 0 0 .072-.07.07.07 0 0 0-.024-.044.073.073 0 0 0-.048-.018h-1.74a.074.074 0 0 0-.048.018.07.07 0 0 0-.024.044c.002.018.01.034.023.047.013.013.03.02.049.023Zm0 .297h1.74a.082.082 0 0 0 .072 0 .07.07 0 0 0-.024-.044.072.072 0 0 0-.048-.018h-1.74a.073.073 0 0 0-.048.018.07.07 0 0 0-.024.044.082.082 0 0 0 .072 0Z" fill="#355100"/><path d="M97.12 34.237h-.664a.245.245 0 0 1-.171-.07.233.233 0 0 1-.071-.166v-.052h1.148V34a.233.233 0 0 1-.07.167.246.246 0 0 1-.172.07Z" fill="#006E8E"/><path d="M96.42 33.782h.727a.276.276 0 0 1 .19.077.263.263 0 0 1 .079.186v.06H96.15v-.06a.255.255 0 0 1 .079-.186.27.27 0 0 1 .19-.077Z" fill="#000"/><path d="M48.624 37.017h41.544V24H48.624v13.017Z" fill="#FE6259"/><path d="M49.171 36.65H89.63V24.367H49.171V36.65Z" fill="#AA0908"/><path d="M48.624 37.472h41.544v-.464H48.624v.464Z" fill="#303030"/><path d="M47.314 39.15h.386V37.7h-.386v1.451Z" fill="#000"/><path d="M47 39.15h.314V37.7H47v1.451Z" fill="red"/><path d="M101.246 40.671H79.779V38.05h21.781v2.316a.283.283 0 0 1-.089.22.313.313 0 0 1-.225.087Z" fill="#355100"/><path d="M94.025 40.671a2.561 2.561 0 0 1-.152-.874c0-.63.257-1.235.714-1.681a2.473 2.473 0 0 1 1.726-.697c.647 0 1.267.25 1.725.697.458.446.715 1.05.715 1.681 0 .298-.051.593-.153.874h-4.575Z" fill="#000"/><path d="M94.097 39.85c0 .425.129.842.371 1.196.243.355.587.632.99.796a2.27 2.27 0 0 0 1.277.127 2.23 2.23 0 0 0 1.135-.584c.31-.3.524-.681.612-1.099a2.1 2.1 0 0 0-.115-1.245 2.171 2.171 0 0 0-.804-.974 2.256 2.256 0 0 0-2.08-.22 2.22 2.22 0 0 0-.728.466 2.15 2.15 0 0 0-.487.704 2.112 2.112 0 0 0-.171.832Z" fill="#000"/><path d="M94.097 39.85c0 .425.129.842.371 1.196.243.355.587.632.99.796a2.27 2.27 0 0 0 1.277.127 2.23 2.23 0 0 0 1.135-.584c.31-.3.524-.681.612-1.099a2.1 2.1 0 0 0-.115-1.245 2.171 2.171 0 0 0-.804-.974 2.256 2.256 0 0 0-2.08-.22 2.22 2.22 0 0 0-.728.466 2.15 2.15 0 0 0-.487.704 2.112 2.112 0 0 0-.171.832Z" fill="#262626"/><path d="M94.097 39.85c0 .425.129.842.371 1.196.243.355.587.632.99.796a2.27 2.27 0 0 0 1.277.127 2.23 2.23 0 0 0 1.135-.584c.31-.3.524-.681.612-1.099a2.1 2.1 0 0 0-.115-1.245 2.171 2.171 0 0 0-.804-.974 2.256 2.256 0 0 0-2.08-.22 2.22 2.22 0 0 0-.728.466 2.15 2.15 0 0 0-.487.704 2.112 2.112 0 0 0-.171.832Z" fill="#262626"/><path d="M96.34 38.188c.021.137.021.275 0 .411a1.281 1.281 0 0 1 0-.41 1.282 1.282 0 0 1 0-.411c.021.136.021.274 0 .41Zm0 3.296c.021.136.021.275 0 .411a1.281 1.281 0 0 1 0-.41 1.282 1.282 0 0 1 0-.411c.021.136.021.274 0 .41Zm-1.301-1.634a1.4 1.4 0 0 1-.43 0c-.14.021-.283.021-.422 0a.984.984 0 0 1 .421-.044c.145-.016.292-.001.43.043Zm2.978.034c.233 0 .422-.015.422-.035 0-.019-.19-.034-.422-.034-.233 0-.422.015-.422.034 0 .02.189.035.422.035Zm-2.575-.917a1.382 1.382 0 0 1-.322-.271c-.162-.158-.288-.298-.27-.315.122.073.231.164.323.27.126.158.27.298.27.316Zm1.794 1.757c.122.073.23.165.323.27.162.158.287.298.27.315a1.318 1.318 0 0 1-.323-.27c-.18-.158-.27-.298-.27-.315Zm-1.794 0s-.107.157-.269.314a1.318 1.318 0 0 1-.323.271s.108-.157.27-.314c.092-.106.2-.198.322-.271Zm1.794-1.757s.108-.158.27-.315c.091-.107.2-.198.322-.271 0 0-.107.157-.269.315a1.382 1.382 0 0 1-.323.27Zm-1.624-.63a1.218 1.218 0 0 1-.125-.393c.088.106.155.228.197.358.064.124.11.257.135.393 0 0-.117-.148-.207-.358Zm1.4 3.016c.066.126.109.262.126.402a1.36 1.36 0 0 1-.198-.367c-.09-.21-.152-.393-.125-.393.088.106.155.228.197.358Zm-2.278-.891a1.14 1.14 0 0 1 .403-.132c-.113.085-.24.15-.376.193a1.408 1.408 0 0 1-.404.13c.113-.084.24-.149.377-.191Zm3.157-1.233a1.142 1.142 0 0 1-.404.13c.114-.084.241-.149.377-.192.127-.063.263-.108.404-.13a1.26 1.26 0 0 1-.377.192Zm-2.763.148a1.233 1.233 0 0 1-.404-.122 1.375 1.375 0 0 1-.376-.184c.14.02.277.06.403.123.137.038.264.1.377.183Zm2.369.936c.14.017.277.059.403.122.135.042.262.104.377.184 0 0-.188 0-.404-.114a1.257 1.257 0 0 1-.376-.192Zm-1.66.682a1.435 1.435 0 0 1-.126.402c-.043.132-.11.257-.197.367.018-.137.06-.27.126-.394.04-.136.108-.263.197-.375Zm1.273-3.069c-.017.138-.06.27-.125.394a1.119 1.119 0 0 1-.197.376c.022-.14.064-.275.125-.403a1.2 1.2 0 0 1 .198-.367Zm-1.156.297a1.237 1.237 0 0 1 0-.41c.065.125.104.262.116.402.038.133.054.272.045.41a1.317 1.317 0 0 1-.161-.402Zm.717 3.261c.038.134.053.273.045.411a1.079 1.079 0 0 1-.117-.402 1.232 1.232 0 0 1 0-.411c.045.13.07.265.072.402Zm-2.036-1.364c.137-.036.28-.051.422-.043 0 0-.18.07-.404.113a1.35 1.35 0 0 1-.422.044c.127-.061.264-.1.404-.114Zm3.355-.55a1.35 1.35 0 0 1-.422.043s.18-.07.404-.113c.14-.037.286-.052.43-.044a1.4 1.4 0 0 1-.412.114Zm-2.736-.42a1.345 1.345 0 0 1-.368-.201 1.295 1.295 0 0 1-.332-.262c.135.043.26.111.368.2.197.123.35.246.332.263Zm2.117 1.39c.132.053.256.124.368.21.123.067.235.153.332.253a1.114 1.114 0 0 1-.368-.2 1.107 1.107 0 0 1-.332-.263Zm-1.776.332a1.06 1.06 0 0 1-.206.367c-.135.184-.251.333-.27.315.052-.128.121-.249.207-.358a1.25 1.25 0 0 1 .27-.324Zm1.435-2.01c.043-.135.114-.26.207-.367.134-.184.25-.333.269-.315a1.44 1.44 0 0 1-.207.358c-.07.122-.161.231-.269.324Zm-1.426-.052s-.135-.132-.27-.324a1.294 1.294 0 0 1-.206-.359c.11.09.202.2.27.324.091.105.161.227.206.358Zm1.417 2.071c.107.093.198.202.27.324.087.108.157.229.206.358 0 0-.135-.131-.27-.324a1.067 1.067 0 0 1-.206-.358Zm-2.144-.14c.111-.09.24-.159.377-.201a1.38 1.38 0 0 1-.332.254c-.11.09-.239.159-.377.2.097-.1.209-.186.332-.253Zm2.871-1.783a1.18 1.18 0 0 1-.377.192c.097-.1.209-.186.332-.253.11-.091.239-.16.377-.201a1.56 1.56 0 0 1-.332.262Zm-2.691.647a1.353 1.353 0 0 1-.422-.044 1.29 1.29 0 0 1-.404-.114 1.11 1.11 0 0 1 .422 0c.143.03.28.083.404.158Zm2.511.481a1.35 1.35 0 0 1 .422.043c.224.044.413.096.404.123a1.554 1.554 0 0 1-.422-.053 1.291 1.291 0 0 1-.404-.113Zm-1.507.979c.028.135.028.275 0 .41a1.31 1.31 0 0 1-.116.403 1.227 1.227 0 0 1 .045-.411c.002-.137.026-.273.071-.402Zm.503-2.439a1.005 1.005 0 0 1 0-.411c.017-.14.056-.275.116-.403.023.137.023.275 0 .411-.017.14-.056.275-.116.403Z" fill="#000"/><path d="M94.913 39.85c.002.268.085.53.239.752.153.223.37.396.625.499a1.434 1.434 0 0 0 1.519-.29c.196-.188.33-.429.386-.692a1.33 1.33 0 0 0-.07-.784 1.371 1.371 0 0 0-.503-.616 1.425 1.425 0 0 0-1.78.151 1.361 1.361 0 0 0-.416.98Z" fill="#6C6D6D"/><path d="M95.137 39.85c.002.225.072.444.2.63.13.187.313.333.526.419a1.205 1.205 0 0 0 1.274-.243 1.127 1.127 0 0 0 .268-1.238 1.151 1.151 0 0 0-.421-.517 1.197 1.197 0 0 0-1.496.124 1.144 1.144 0 0 0-.35.825Z" fill="#9E9E9E"/><path d="M95.37 39.85c.003.182.06.36.167.511a.964.964 0 0 0 1.46.108.897.897 0 0 0 .17-1.013.926.926 0 0 0-.365-.4.961.961 0 0 0-.534-.133.917.917 0 0 0-.654.274.869.869 0 0 0-.243.652Z" fill="#494949"/><path d="M95.442 39.85c0 .158.049.312.138.444a.83.83 0 0 0 .365.299.855.855 0 0 0 .9-.15.794.794 0 0 0 .22-.864.815.815 0 0 0-.28-.377.848.848 0 0 0-1.274.322.795.795 0 0 0-.069.325Z" fill="#6C6D6D"/><path d="M95.675 39.85a.61.61 0 0 0 .112.342.652.652 0 0 0 .979.085.606.606 0 0 0 .134-.675.624.624 0 0 0-.235-.278.649.649 0 0 0-.806.08.62.62 0 0 0-.184.445Z" fill="#9E9E9E"/><path d="M77.088 39.85c0 .427.13.845.374 1.2s.59.632.996.795a2.27 2.27 0 0 0 1.282.122c.43-.084.825-.29 1.134-.594a2.111 2.111 0 0 0 .475-2.356 2.173 2.173 0 0 0-.82-.967 2.257 2.257 0 0 0-2.795.276 2.132 2.132 0 0 0-.646 1.523Z" fill="#000"/><path d="M77.088 39.85c0 .427.13.845.374 1.2s.59.632.996.795a2.27 2.27 0 0 0 1.282.122c.43-.084.825-.29 1.134-.594a2.111 2.111 0 0 0 .475-2.356 2.173 2.173 0 0 0-.82-.967 2.257 2.257 0 0 0-2.795.276 2.132 2.132 0 0 0-.646 1.523Z" fill="#262626"/><path d="M77.088 39.85c0 .427.13.845.374 1.2s.59.632.996.795a2.27 2.27 0 0 0 1.282.122c.43-.084.825-.29 1.134-.594a2.111 2.111 0 0 0 .475-2.356 2.173 2.173 0 0 0-.82-.967 2.257 2.257 0 0 0-2.795.276 2.132 2.132 0 0 0-.646 1.523Z" fill="#262626"/><path d="M79.304 38.6c.02 0 .036-.185.036-.412 0-.227-.016-.41-.036-.41-.02 0-.036.184-.036.41 0 .227.016.411.036.411Zm.036 2.884c.028.136.028.276 0 .411a1.261 1.261 0 0 1-.045-.41 1.26 1.26 0 0 1 0-.411c.043.132.058.272.045.41Zm-1.732-1.6c.233 0 .422-.015.422-.035 0-.019-.189-.034-.422-.034-.233 0-.422.015-.422.034 0 .02.19.035.422.035Zm3.4 0c.233 0 .422-.015.422-.035 0-.019-.189-.034-.422-.034-.232 0-.421.015-.421.034 0 .02.189.035.421.035Zm-2.61-.917a1.329 1.329 0 0 1-.332-.271c-.162-.158-.287-.298-.27-.315.124.07.234.162.324.27a1.2 1.2 0 0 1 .278.316Zm1.794 1.757c.121.073.23.165.323.27.11.089.205.195.278.315 0 0-.162-.105-.332-.27-.17-.167-.27-.298-.27-.315Zm-1.794 0a1.19 1.19 0 0 1-.278.314c-.09.11-.2.201-.323.271 0 0 .108-.157.269-.314a1.33 1.33 0 0 1 .332-.271Zm1.794-1.757s.108-.158.269-.315c.162-.157.314-.288.332-.271-.073.12-.167.227-.278.315a1.382 1.382 0 0 1-.323.27Zm-1.579-.63a1.124 1.124 0 0 1-.135-.393c.089.106.156.228.198.358.064.124.11.257.134.393a1.094 1.094 0 0 1-.197-.358Zm1.391 3.016c.066.126.111.262.134.402a1.26 1.26 0 0 1-.206-.367 1.217 1.217 0 0 1-.126-.393c.088.106.155.228.198.358Zm-2.279-.891a1.14 1.14 0 0 1 .404-.132 1.27 1.27 0 0 1-.377.193 1.408 1.408 0 0 1-.404.13c.114-.084.241-.149.377-.191Zm3.158-1.233a1.142 1.142 0 0 1-.404.13c.113-.084.24-.149.377-.192.127-.063.263-.108.404-.13a1.26 1.26 0 0 1-.377.192Zm-2.763.148a1.233 1.233 0 0 1-.404-.122 1.375 1.375 0 0 1-.377-.184c.141.018.278.06.404.123.136.038.264.1.377.183Zm2.368.936c.14.017.277.059.403.122.138.04.268.103.386.184 0 0-.188 0-.412-.114a1.258 1.258 0 0 1-.377-.192Zm-1.66.682c-.017.14-.06.276-.125.402-.044.132-.11.257-.198.367.018-.137.06-.27.126-.394.045-.134.112-.261.197-.375Zm1.274-3.069a1.16 1.16 0 0 1-.126.394c-.044.133-.107.26-.188.376.017-.14.06-.277.126-.403a1.09 1.09 0 0 1 .188-.367Zm-1.157.297a1.1 1.1 0 0 1 0-.41c.06.127.1.262.117.402a.914.914 0 0 1 0 .41 1.31 1.31 0 0 1-.117-.402Zm.718 3.261c.037.134.053.273.045.411-.06-.127-.1-.263-.117-.402a1.232 1.232 0 0 1 0-.411c.045.13.07.265.072.402Zm-2.037-1.364c.137-.036.28-.051.422-.043 0 0-.18.07-.404.113a1.35 1.35 0 0 1-.421.044c.127-.06.263-.098.403-.114Zm3.356-.55c-.138.037-.28.051-.422.043a1.16 1.16 0 0 1 .413-.113 1.33 1.33 0 0 1 .421-.044c-.13.059-.27.097-.412.114Zm-2.737-.42a1.502 1.502 0 0 1-.368-.201 1.297 1.297 0 0 1-.332-.262c.138.042.266.11.377.2.189.123.341.246.323.263Zm2.117 1.39c.132.053.256.124.368.21.123.067.235.153.332.253a1.114 1.114 0 0 1-.368-.2 1.107 1.107 0 0 1-.332-.263Zm-1.776.332c-.043.135-.113.26-.206.367-.126.184-.251.333-.27.315.052-.128.121-.249.207-.358a1.27 1.27 0 0 1 .27-.324Zm1.436-2.01c.047-.133.117-.257.206-.367.134-.184.251-.333.269-.315-.047.13-.117.252-.206.358a1.27 1.27 0 0 1-.27.324Zm-1.427-.052s-.134-.132-.269-.324a1.136 1.136 0 0 1-.197-.359c.103.094.19.204.26.324.092.105.162.227.206.358Zm1.417 2.071c.11.09.202.2.27.324.091.105.161.227.206.358 0 0-.135-.131-.27-.324a1.64 1.64 0 0 1-.206-.358Zm-2.144-.14c.112-.089.24-.157.377-.201-.094.103-.206.19-.332.254a1.21 1.21 0 0 1-.368.2s.135-.13.323-.253Zm2.872-1.783a1.185 1.185 0 0 1-.378.192c.097-.1.209-.186.332-.253.112-.09.24-.157.377-.201a1.295 1.295 0 0 1-.332.262Zm-2.683.647a1.326 1.326 0 0 1-.422-.044 1.4 1.4 0 0 1-.412-.114c.139-.027.282-.027.421 0 .146.03.285.084.413.158Zm2.503.481a1.35 1.35 0 0 1 .422.043c.233.044.412.096.403.123a1.554 1.554 0 0 1-.421-.053 1.291 1.291 0 0 1-.404-.113Zm-1.499.979c.009.139-.01.278-.053.41-.017.14-.057.275-.117.403a1.23 1.23 0 0 1 .045-.394.996.996 0 0 1 .125-.42Zm.494-2.439a1.23 1.23 0 0 1 .045-.411 1.31 1.31 0 0 1 .117-.403c.023.137.023.275 0 .411a1.32 1.32 0 0 1-.162.403Z" fill="#000"/><path d="M77.904 39.85c0 .272.083.538.239.764.156.226.377.402.635.505a1.442 1.442 0 0 0 1.537-.305c.196-.194.329-.44.381-.708a1.339 1.339 0 0 0-.087-.794 1.381 1.381 0 0 0-.527-.612 1.436 1.436 0 0 0-.787-.223 1.432 1.432 0 0 0-.987.406 1.36 1.36 0 0 0-.404.966Z" fill="#6C6D6D"/><path d="M78.129 39.85c.002.226.072.447.203.634.13.188.315.333.53.418a1.203 1.203 0 0 0 1.28-.258 1.118 1.118 0 0 0 .245-1.25 1.153 1.153 0 0 0-.438-.51 1.197 1.197 0 0 0-1.482.153 1.141 1.141 0 0 0-.338.813Z" fill="#9E9E9E"/><path d="M78.398 39.85a.918.918 0 0 0 .307.596.965.965 0 0 0 1.278 0 .918.918 0 0 0 .264-.978.951.951 0 0 0-.903-.635.973.973 0 0 0-.704.304.923.923 0 0 0-.242.713Z" fill="#494949"/><path d="M78.479 39.85a.81.81 0 0 0 .27.52.847.847 0 0 0 1.118 0 .806.806 0 0 0 .235-.856.807.807 0 0 0-.454-.491.853.853 0 0 0-.96.198.809.809 0 0 0-.21.629Z" fill="#6C6D6D"/><path d="M78.667 39.85a.61.61 0 0 0 .111.342.652.652 0 0 0 .979.085.606.606 0 0 0 .134-.675.624.624 0 0 0-.235-.278.649.649 0 0 0-.806.08.62.62 0 0 0-.183.445Z" fill="#9E9E9E"/><path d="M81.905 39.85c0 .427.13.845.374 1.2s.59.632.996.795a2.27 2.27 0 0 0 1.282.122c.43-.084.825-.29 1.134-.594.31-.303.52-.688.604-1.108.085-.42.04-.854-.13-1.248a2.173 2.173 0 0 0-.82-.967 2.257 2.257 0 0 0-1.233-.36c-.29 0-.578.056-.846.165a2.211 2.211 0 0 0-.718.468 2.14 2.14 0 0 0-.643 1.526Z" fill="#000"/><path d="M81.905 39.85c0 .427.13.845.374 1.2s.59.632.996.795a2.27 2.27 0 0 0 1.282.122c.43-.084.825-.29 1.134-.594.31-.303.52-.688.604-1.108.085-.42.04-.854-.13-1.248a2.173 2.173 0 0 0-.82-.967 2.257 2.257 0 0 0-1.233-.36c-.29 0-.578.056-.846.165a2.211 2.211 0 0 0-.718.468 2.14 2.14 0 0 0-.643 1.526Z" fill="#262626"/><path d="M81.905 39.85c0 .427.13.845.374 1.2s.59.632.996.795a2.27 2.27 0 0 0 1.282.122c.43-.084.825-.29 1.134-.594.31-.303.52-.688.604-1.108.085-.42.04-.854-.13-1.248a2.173 2.173 0 0 0-.82-.967 2.257 2.257 0 0 0-1.233-.36c-.29 0-.578.056-.846.165a2.211 2.211 0 0 0-.718.468 2.14 2.14 0 0 0-.643 1.526Z" fill="#262626"/><path d="M84.147 38.188a1.04 1.04 0 0 1 0 .411 1.281 1.281 0 0 1 0-.41 1.282 1.282 0 0 1 0-.411c.028.135.028.275 0 .41Zm0 3.296a1.04 1.04 0 0 1 0 .411 1.281 1.281 0 0 1 0-.41 1.282 1.282 0 0 1 0-.411c.028.135.028.275 0 .41Zm-1.73-1.6c.233 0 .421-.015.421-.035 0-.019-.188-.034-.421-.034-.233 0-.422.015-.422.034 0 .02.189.035.422.035Zm3.4 0c.233 0 .421-.015.421-.035 0-.019-.189-.034-.421-.034-.233 0-.422.015-.422.034 0 .02.189.035.422.035Zm-2.602-.917a1.327 1.327 0 0 1-.332-.271c-.161-.158-.287-.298-.269-.315.018-.018.161.105.323.27a1.2 1.2 0 0 1 .278.316Zm1.803 1.757c.23.165.432.362.602.585 0 0-.162-.105-.333-.27-.17-.167-.287-.298-.269-.315Zm-1.803 0a1.19 1.19 0 0 1-.278.314c-.162.166-.305.289-.323.271-.018-.017.108-.157.27-.314a1.33 1.33 0 0 1 .331-.271Zm1.803-1.757s.108-.158.27-.315c.16-.157.313-.288.331-.271-.073.12-.167.227-.278.315-.09.108-.2.2-.323.27Zm-1.596-.63a1.124 1.124 0 0 1-.135-.393c.088.106.155.228.197.358.065.124.11.257.135.393a1.094 1.094 0 0 1-.197-.358Zm1.39 3.016c.066.126.112.262.135.402a1.543 1.543 0 0 1-.207-.367 1.22 1.22 0 0 1-.125-.393c.088.106.155.228.197.358Zm-2.278-.891a1.14 1.14 0 0 1 .403-.132c-.113.085-.24.15-.377.193a1.408 1.408 0 0 1-.403.13c.113-.084.24-.149.377-.191Zm3.157-1.233a1.142 1.142 0 0 1-.403.13c.113-.084.24-.149.376-.192.127-.063.263-.108.404-.13-.113.084-.24.15-.377.192Zm-2.763.148a1.3 1.3 0 0 1-.403-.122 1.377 1.377 0 0 1-.377-.184c.14.018.278.06.404.123.136.038.264.1.376.183Zm2.368.936c.144.018.283.06.413.122.135.042.262.104.377.184 0 0-.189 0-.413-.114a1.257 1.257 0 0 1-.377-.192Zm-1.659.682a1.17 1.17 0 0 1-.126.402c-.09.21-.17.376-.197.367a1.46 1.46 0 0 1 .126-.394 1.32 1.32 0 0 1 .197-.375Zm1.273-3.069a1.16 1.16 0 0 1-.125.394c-.04.135-.103.262-.188.376.017-.14.06-.277.125-.403a1.09 1.09 0 0 1 .189-.367Zm-1.13.297a1.237 1.237 0 0 1 0-.41c.06.127.1.262.117.402.023.136.023.274 0 .41a.916.916 0 0 1-.117-.402Zm.69 3.261c.023.136.023.275 0 .411a1.316 1.316 0 0 1-.116-.402 1.227 1.227 0 0 1 0-.411c.06.127.1.263.117.402Zm-2.036-1.364a1.42 1.42 0 0 1 .431-.043 1.153 1.153 0 0 1-.413.114 1.39 1.39 0 0 1-.421.043c.127-.06.263-.098.403-.114Zm3.356-.55c-.137.037-.28.052-.422.043.129-.063.27-.101.413-.113a1.33 1.33 0 0 1 .421-.044c-.13.059-.27.097-.412.114Zm-2.727-.42a1.329 1.329 0 0 1-.377-.201 1.521 1.521 0 0 1-.332-.262c.138.042.266.11.377.2.125.07.237.158.332.263Zm2.107 1.39c.135.054.262.124.378.21.121.066.23.152.323.253a1.114 1.114 0 0 1-.368-.2 1.107 1.107 0 0 1-.332-.263Zm-1.775.332a1.06 1.06 0 0 1-.206.367c-.126.184-.252.333-.27.315a1.74 1.74 0 0 1 .216-.358c.07-.12.157-.23.26-.324Zm1.435-2.01c.048-.133.118-.257.206-.367.135-.184.252-.333.27-.315-.047.13-.117.252-.207.358a1.091 1.091 0 0 1-.269.324Zm-1.427-.052s-.134-.132-.269-.324a1.136 1.136 0 0 1-.197-.359c.106.092.194.201.26.324.092.105.162.227.206.358Zm1.427 2.071c.103.094.19.203.26.324.092.105.162.227.207.358 0 0-.135-.131-.27-.324a1.135 1.135 0 0 1-.197-.358Zm-2.144-.14c.108-.09.233-.158.368-.201-.094.103-.207.19-.332.254a1.21 1.21 0 0 1-.368.2s.135-.13.332-.253Zm2.888-1.783a1.302 1.302 0 0 1-.367.192s.134-.131.332-.253a1.11 1.11 0 0 1 .367-.201 1.297 1.297 0 0 1-.332.262Zm-2.691.647a1.326 1.326 0 0 1-.421-.044 1.402 1.402 0 0 1-.413-.114c.139-.027.282-.027.421 0 .146.03.285.084.413.158Zm2.485.481a1.35 1.35 0 0 1 .422.043c.145.012.285.054.412.123a1.582 1.582 0 0 1-.43-.053 1.291 1.291 0 0 1-.404-.113Zm-1.498.979c.008.138-.007.277-.045.41a.996.996 0 0 1-.125.403c.005-.135.032-.268.08-.394.005-.144.035-.286.09-.42Zm.494-2.439a1.227 1.227 0 0 1 .044-.411c.017-.14.057-.275.117-.403.028.136.028.276 0 .411a1.317 1.317 0 0 1-.161.403Z" fill="#000"/><path d="M82.712 39.85c0 .271.083.537.238.763a1.4 1.4 0 0 0 .634.505 1.442 1.442 0 0 0 1.536-.301 1.34 1.34 0 0 0 .3-1.499 1.382 1.382 0 0 0-.523-.614 1.435 1.435 0 0 0-.785-.227 1.43 1.43 0 0 0-.993.403 1.363 1.363 0 0 0-.407.97Z" fill="#6C6D6D"/><path d="M82.937 39.85c.002.226.072.446.202.633.13.188.315.333.53.418a1.204 1.204 0 0 0 1.277-.254 1.118 1.118 0 0 0 .25-1.247 1.152 1.152 0 0 0-.432-.512 1.197 1.197 0 0 0-1.486.146 1.141 1.141 0 0 0-.341.816Z" fill="#9E9E9E"/><path d="M83.17 39.85a.91.91 0 0 0 .165.52.947.947 0 0 0 .436.34.974.974 0 0 0 1.042-.226.905.905 0 0 0 .17-1.027.935.935 0 0 0-.374-.404.97.97 0 0 0-.542-.13.917.917 0 0 0-.654.274.87.87 0 0 0-.243.652Z" fill="#494949"/><path d="M83.287 39.85c0 .16.049.318.14.452a.83.83 0 0 0 .377.3.855.855 0 0 0 .91-.18.795.795 0 0 0 .175-.889.818.818 0 0 0-.311-.364.85.85 0 0 0-.466-.133.843.843 0 0 0-.587.24.801.801 0 0 0-.238.573Z" fill="#6C6D6D"/><path d="M83.475 39.85a.61.61 0 0 0 .112.342c.07.1.171.179.287.225a.652.652 0 0 0 .692-.14.606.606 0 0 0 .134-.675.624.624 0 0 0-.235-.278.649.649 0 0 0-.806.08.62.62 0 0 0-.184.445Z" fill="#9E9E9E"/><path d="M59.91 39.85c0 .427.13.844.373 1.2.243.354.59.631.994.794a2.258 2.258 0 0 0 2.415-.467c.31-.303.52-.687.606-1.106a2.108 2.108 0 0 0-.126-1.248 2.172 2.172 0 0 0-.816-.969 2.257 2.257 0 0 0-2.798.269 2.132 2.132 0 0 0-.649 1.526Z" fill="#000"/><path d="M59.91 39.85c0 .427.13.844.373 1.2.243.354.59.631.994.794a2.258 2.258 0 0 0 2.415-.467c.31-.303.52-.687.606-1.106a2.108 2.108 0 0 0-.126-1.248 2.172 2.172 0 0 0-.816-.969 2.257 2.257 0 0 0-2.798.269 2.132 2.132 0 0 0-.649 1.526Z" fill="#262626"/><path d="M59.91 39.85c0 .427.13.844.373 1.2.243.354.59.631.994.794a2.258 2.258 0 0 0 2.415-.467c.31-.303.52-.687.606-1.106a2.108 2.108 0 0 0-.126-1.248 2.172 2.172 0 0 0-.816-.969 2.257 2.257 0 0 0-2.798.269 2.132 2.132 0 0 0-.649 1.526Z" fill="#262626"/><path d="M62.16 38.188a1.04 1.04 0 0 1 0 .411 1.281 1.281 0 0 1 0-.41 1.282 1.282 0 0 1 0-.411c.028.135.028.275 0 .41Zm0 3.296a1.04 1.04 0 0 1 0 .411 1.281 1.281 0 0 1 0-.41 1.282 1.282 0 0 1 0-.411c.028.135.028.275 0 .41Zm-1.731-1.6c.233 0 .422-.015.422-.035 0-.019-.19-.034-.422-.034-.233 0-.422.015-.422.034 0 .02.19.035.422.035Zm3.401 0c.232 0 .421-.015.421-.035 0-.019-.189-.034-.422-.034-.233 0-.421.015-.421.034 0 .02.188.035.421.035Zm-2.602-.917a1.33 1.33 0 0 1-.332-.271c-.162-.158-.287-.298-.27-.315.125.07.234.162.324.27a1.2 1.2 0 0 1 .278.316Zm1.802 1.757c.122.073.23.165.324.27a1.2 1.2 0 0 1 .278.315s-.162-.105-.332-.27c-.17-.167-.287-.298-.27-.315Zm-1.803 0c-.072.12-.167.226-.278.314-.09.11-.199.201-.322.271 0 0 .107-.157.269-.314a1.33 1.33 0 0 1 .331-.271Zm1.803-1.757s.108-.158.27-.315c.161-.157.314-.288.332-.271-.073.12-.167.227-.278.315a1.382 1.382 0 0 1-.323.27Zm-1.596-.63a1.124 1.124 0 0 1-.135-.393c.088.106.155.228.198.358.064.124.11.257.134.393a1.094 1.094 0 0 1-.197-.358Zm1.39 3.016c.067.126.112.262.135.402a1.06 1.06 0 0 1-.207-.367 1.217 1.217 0 0 1-.125-.393c.088.106.155.228.197.358Zm-2.278-.891a1.14 1.14 0 0 1 .403-.132c-.113.085-.24.15-.376.193a1.408 1.408 0 0 1-.404.13c.113-.084.24-.149.377-.191Zm3.157-1.233a1.142 1.142 0 0 1-.403.13c.113-.084.24-.149.377-.192.115-.06.239-.104.367-.13a1.255 1.255 0 0 1-.34.192Zm-2.763.148a1.233 1.233 0 0 1-.403-.122 1.375 1.375 0 0 1-.377-.184c.141.018.278.06.404.123.136.038.264.1.377.183Zm2.37.936c.14.017.277.059.403.122.138.04.268.103.386.184 0 0-.189 0-.413-.114a1.257 1.257 0 0 1-.377-.192Zm-1.66.682c-.018.14-.06.276-.127.402-.043.132-.11.257-.197.367.018-.137.06-.27.126-.394a1.32 1.32 0 0 1 .197-.375Zm1.273-3.069a1.16 1.16 0 0 1-.125.394c-.044.133-.108.26-.189.376.018-.14.06-.277.126-.403a1.09 1.09 0 0 1 .188-.367Zm-1.157.297a1.1 1.1 0 0 1 0-.41c.06.127.1.262.117.402a.914.914 0 0 1 0 .41 1.31 1.31 0 0 1-.117-.402Zm.717 3.261c.023.136.023.275 0 .411-.06-.127-.1-.263-.116-.402a1.227 1.227 0 0 1-.045-.411c.076.125.13.26.161.402Zm-2.027-1.364c.137-.036.28-.051.422-.043 0 0-.18.07-.404.113a1.35 1.35 0 0 1-.422.044c.127-.06.264-.098.404-.114Zm3.346-.55c-.137.037-.28.051-.422.043.13-.063.27-.101.413-.113.137-.037.28-.052.422-.044a1.4 1.4 0 0 1-.413.114Zm-2.736-.42a1.502 1.502 0 0 1-.368-.201 1.297 1.297 0 0 1-.332-.262c.138.042.266.11.377.2.188.123.34.246.323.263Zm2.082 1.39c.131.053.255.124.367.21.123.067.235.153.332.253a1.114 1.114 0 0 1-.368-.2 1.107 1.107 0 0 1-.331-.263Zm-1.741.332c-.043.135-.113.26-.206.367-.126.184-.251.333-.27.315.052-.128.121-.249.207-.358a1.25 1.25 0 0 1 .27-.324Zm1.435-2.01c.048-.133.118-.257.207-.367.134-.184.25-.333.269-.315-.047.13-.117.252-.207.358-.07.122-.161.231-.269.324Zm-1.426-.052s-.134-.132-.269-.324a1.136 1.136 0 0 1-.197-.359c.103.094.19.204.26.324.092.105.162.227.206.358Zm1.418 2.071c.11.09.201.2.269.324.091.105.161.227.206.358 0 0-.135-.131-.27-.324a1.64 1.64 0 0 1-.206-.358Zm-2.144-.14c.111-.089.239-.157.376-.201-.094.103-.207.19-.332.254a1.21 1.21 0 0 1-.368.2s.135-.13.323-.253Zm2.87-1.783a1.18 1.18 0 0 1-.377.192c.097-.1.209-.186.332-.253.112-.09.24-.157.377-.201a1.295 1.295 0 0 1-.332.262Zm-2.682.647a1.326 1.326 0 0 1-.422-.044 1.4 1.4 0 0 1-.413-.114 1.11 1.11 0 0 1 .422 0c.145.03.285.084.413.158Zm2.502.481a1.35 1.35 0 0 1 .422.043c.233.044.413.096.404.123a1.553 1.553 0 0 1-.422-.053 1.291 1.291 0 0 1-.404-.113Zm-1.497.979c.008.139-.01.278-.054.41-.012.14-.052.277-.117.403a1.227 1.227 0 0 1 .045-.411.994.994 0 0 1 .126-.402Zm.493-2.439a1.23 1.23 0 0 1 .045-.411c.017-.14.056-.275.116-.403.009.139-.006.278-.045.411-.017.14-.056.275-.116.403Z" fill="#000"/><path d="M62.124 41.213c.773 0 1.4-.61 1.4-1.364 0-.753-.627-1.363-1.4-1.363-.772 0-1.399.61-1.399 1.363 0 .754.627 1.364 1.4 1.364Z" fill="#6C6D6D"/><path d="M60.95 39.85c.002.226.072.446.202.633.13.188.315.333.53.418a1.204 1.204 0 0 0 1.277-.254 1.118 1.118 0 0 0 .25-1.247 1.153 1.153 0 0 0-.432-.512 1.197 1.197 0 0 0-1.486.146 1.141 1.141 0 0 0-.341.816Z" fill="#9E9E9E"/><path d="M61.183 39.85a.918.918 0 0 0 .307.596.965.965 0 0 0 1.278 0 .919.919 0 0 0 .264-.978.923.923 0 0 0-.518-.556.973.973 0 0 0-1.09.225.921.921 0 0 0-.241.713Z" fill="#494949"/><path d="M61.3 39.85c.02.2.117.385.27.52a.847.847 0 0 0 1.118 0 .806.806 0 0 0 .234-.856.807.807 0 0 0-.454-.491.853.853 0 0 0-.959.198.809.809 0 0 0-.21.629Z" fill="#6C6D6D"/><path d="M61.488 39.85a.61.61 0 0 0 .111.342.652.652 0 0 0 .979.085.606.606 0 0 0 .134-.675.624.624 0 0 0-.234-.278.649.649 0 0 0-.807.08.62.62 0 0 0-.183.445Z" fill="#9E9E9E"/><path d="M55.002 39.85c0 .427.13.844.373 1.2.244.354.59.631.995.794a2.258 2.258 0 0 0 2.415-.467c.31-.303.52-.687.606-1.106a2.108 2.108 0 0 0-.126-1.248 2.172 2.172 0 0 0-.816-.969 2.257 2.257 0 0 0-1.231-.364 2.257 2.257 0 0 0-.85.162 2.21 2.21 0 0 0-.72.468 2.122 2.122 0 0 0-.646 1.53Z" fill="#000"/><path d="M55.002 39.85c0 .427.13.844.373 1.2.244.354.59.631.995.794a2.258 2.258 0 0 0 2.415-.467c.31-.303.52-.687.606-1.106a2.108 2.108 0 0 0-.126-1.248 2.172 2.172 0 0 0-.816-.969 2.257 2.257 0 0 0-1.231-.364 2.257 2.257 0 0 0-.85.162 2.21 2.21 0 0 0-.72.468 2.122 2.122 0 0 0-.646 1.53Z" fill="#262626"/><path d="M55.002 39.85c0 .427.13.844.373 1.2.244.354.59.631.995.794a2.258 2.258 0 0 0 2.415-.467c.31-.303.52-.687.606-1.106a2.108 2.108 0 0 0-.126-1.248 2.172 2.172 0 0 0-.816-.969 2.257 2.257 0 0 0-1.231-.364 2.257 2.257 0 0 0-.85.162 2.21 2.21 0 0 0-.72.468 2.122 2.122 0 0 0-.646 1.53Z" fill="#262626"/><path d="M57.253 38.188c.022.137.022.275 0 .411a1.04 1.04 0 0 1 0-.41 1.041 1.041 0 0 1 0-.411c.022.136.022.274 0 .41Zm0 3.296c.022.136.022.275 0 .411a1.04 1.04 0 0 1 0-.41 1.041 1.041 0 0 1 0-.411c.022.136.022.274 0 .41Zm-1.74-1.6c.233 0 .422-.015.422-.035 0-.019-.189-.034-.422-.034-.232 0-.421.015-.421.034 0 .02.189.035.421.035Zm3.4 0c.233 0 .422-.015.422-.035 0-.019-.189-.034-.422-.034-.232 0-.421.015-.421.034 0 .02.189.035.421.035Zm-2.601-.917a1.213 1.213 0 0 1-.323-.271 1.2 1.2 0 0 1-.279-.315s.162.105.332.27c.17.167.287.298.27.316Zm1.803 1.757c.125.072.237.163.332.27.161.158.287.298.269.315-.018.018-.162-.105-.323-.27a1.198 1.198 0 0 1-.278-.315Zm-1.803 0s-.108.157-.27.314c-.161.158-.314.289-.332.271a1.2 1.2 0 0 1 .279-.314c.09-.108.2-.2.323-.271Zm1.803-1.757a1.2 1.2 0 0 1 .278-.315c.161-.166.305-.289.323-.271.018.017-.108.157-.27.315a1.327 1.327 0 0 1-.331.27Zm-1.597-.63a1.41 1.41 0 0 1-.135-.393c.09.107.16.228.207.358.064.123.106.256.125.393a1.092 1.092 0 0 1-.197-.358Zm1.39 3.016c.071.124.117.261.135.402a1.36 1.36 0 0 1-.197-.367 1.41 1.41 0 0 1-.135-.393c.088.106.155.228.197.358Zm-2.269-.891a1.14 1.14 0 0 1 .404-.132 1.27 1.27 0 0 1-.377.193 1.408 1.408 0 0 1-.404.13c.114-.084.241-.149.377-.191Zm3.158-1.233a1.142 1.142 0 0 1-.404.13c.113-.084.24-.149.377-.192.127-.063.263-.108.403-.13a1.26 1.26 0 0 1-.376.192Zm-2.763.148a1.317 1.317 0 0 1-.413-.122 1.377 1.377 0 0 1-.377-.184c.144.019.283.06.413.123.136.038.264.1.377.183Zm2.368.936c.14.018.277.06.404.122.134.042.261.104.376.184 0 0-.188 0-.403-.114a1.257 1.257 0 0 1-.377-.192Zm-1.669.682c-.017.14-.06.276-.125.402a1.09 1.09 0 0 1-.189.367c.018-.137.06-.27.126-.394.04-.134.104-.262.188-.375Zm1.283-3.069a1.458 1.458 0 0 1-.126.394 1.335 1.335 0 0 1-.197.376c.017-.14.06-.277.126-.402.09-.21.17-.376.197-.368Zm-1.148.297a1.238 1.238 0 0 1-.045-.41c.06.127.1.262.117.402.023.136.023.274 0 .41a1.308 1.308 0 0 1-.072-.402Zm.7 3.261c.037.134.052.273.044.411a1.31 1.31 0 0 1-.116-.41 1.227 1.227 0 0 1 0-.411c.055.13.08.27.072.41ZM55.54 40.12c.137-.036.28-.051.422-.043a1.15 1.15 0 0 1-.413.114c-.137.037-.28.051-.422.043.131-.059.27-.097.413-.113Zm3.355-.55c-.14.037-.286.051-.43.043.128-.063.268-.101.412-.113.137-.037.28-.052.422-.044-.127.06-.264.098-.404.114Zm-2.735-.42a1.344 1.344 0 0 1-.369-.201c-.197-.131-.35-.245-.332-.262.135.043.26.111.368.2.127.066.24.156.332.263Zm2.108 1.39c.135.052.262.123.376.21.122.07.233.156.332.253a1.103 1.103 0 0 1-.377-.2 1.276 1.276 0 0 1-.331-.263Zm-1.768.332a1.278 1.278 0 0 1-.206.367c-.134.184-.251.333-.27.315.047-.13.117-.252.207-.358.068-.124.159-.234.27-.324Zm1.435-2.01a1.06 1.06 0 0 1 .207-.367c.125-.184.251-.333.269-.315a1.78 1.78 0 0 1-.215.358c-.07.12-.157.23-.26.324ZM56.5 38.81a1.168 1.168 0 0 1-.26-.324 1.067 1.067 0 0 1-.207-.359c.108.093.198.202.27.324.087.107.153.228.197.358Zm1.427 2.071c.107.093.198.202.269.324.087.107.154.228.197.358 0 0-.134-.131-.26-.324a1.066 1.066 0 0 1-.206-.358Zm-2.145-.14a1.22 1.22 0 0 1 .368-.201s-.135.131-.332.254a1.107 1.107 0 0 1-.368.2 1.17 1.17 0 0 1 .332-.253Zm2.88-1.783c-.11.085-.234.15-.368.192.095-.103.207-.19.332-.253a1.2 1.2 0 0 1 .368-.201s-.152.166-.332.262Zm-2.691.647a1.352 1.352 0 0 1-.422-.044 1.402 1.402 0 0 1-.412-.114 1.151 1.151 0 0 1 .834.158Zm2.493.48c.142-.008.285.007.422.044.145.012.285.054.413.123a1.495 1.495 0 0 1-.422-.053 1.397 1.397 0 0 1-.413-.114Zm-1.497.98c.023.136.023.275 0 .41-.017.14-.057.275-.117.403a1.007 1.007 0 0 1 .018-.394c.01-.144.043-.285.099-.42Zm.493-2.439a1.23 1.23 0 0 1 .045-.411.996.996 0 0 1 .126-.403c.023.137.023.275 0 .411-.032.143-.09.28-.17.403Z" fill="#000"/><path d="M55.81 39.85c0 .271.082.536.236.762a1.4 1.4 0 0 0 .633.506 1.442 1.442 0 0 0 1.534-.298 1.34 1.34 0 0 0 .305-1.496 1.38 1.38 0 0 0-.518-.616 1.435 1.435 0 0 0-.782-.23 1.43 1.43 0 0 0-.999.398 1.361 1.361 0 0 0-.41.974Z" fill="#6C6D6D"/><path d="M56.042 39.85c.002.226.073.446.203.633.13.188.314.333.53.418a1.204 1.204 0 0 0 1.277-.254 1.118 1.118 0 0 0 .25-1.247 1.152 1.152 0 0 0-.432-.512 1.197 1.197 0 0 0-1.486.146 1.142 1.142 0 0 0-.342.816Z" fill="#9E9E9E"/><path d="M56.267 39.85a.91.91 0 0 0 .16.514.947.947 0 0 0 .427.342.974.974 0 0 0 1.036-.201.905.905 0 0 0 .206-1.01.932.932 0 0 0-.35-.416.968.968 0 0 0-.528-.156.962.962 0 0 0-.675.269.915.915 0 0 0-.276.658Z" fill="#494949"/><path d="M56.383 39.85c0 .16.05.317.141.451a.83.83 0 0 0 .374.3.855.855 0 0 0 .91-.177.793.793 0 0 0 .18-.886.818.818 0 0 0-.307-.365.85.85 0 0 0-.463-.137.846.846 0 0 0-.593.236.805.805 0 0 0-.242.577Z" fill="#6C6D6D"/><path d="M56.58 39.85c0 .164.068.322.187.438a.646.646 0 0 0 .9 0 .613.613 0 0 0-.206-1.012.65.65 0 0 0-.694.135.621.621 0 0 0-.186.438Z" fill="#9E9E9E"/><path d="M54.347 41.152h.224v-2.15h-.224v2.15Z" fill="#000"/><path d="M98.187 26.142h-6.082v1.862h7.822a.228.228 0 0 0 .128-.035.217.217 0 0 0 .098-.228.213.213 0 0 0-.064-.113s-.798-1.486-1.902-1.486Z" fill="#9C3"/><path d="M99.075 39.299h.1a3.6 3.6 0 0 0-1.22-2.045 3.768 3.768 0 0 0-2.253-.875v-7.947h-.107v8.017c.826.018 1.621.31 2.254.829a3.524 3.524 0 0 1 1.226 2.02Z" fill="#355100"/><path d="M99.066 40.042h1.786v-1.74h-1.786v1.74Z" fill="#628421"/><path d="M91.468 40.243h1.283v-.28h-1.283v.28Z" fill="red"/><path d="M93.262 27.497a.247.247 0 0 1-.055.209.261.261 0 0 1-.2.091.267.267 0 0 1-.2-.091.252.252 0 0 1-.056-.21.252.252 0 0 1 .09-.147.264.264 0 0 1 .421.148Zm.745 0a.247.247 0 0 1-.055.209.261.261 0 0 1-.2.091.267.267 0 0 1-.2-.091.252.252 0 0 1-.056-.21.252.252 0 0 1 .09-.147.264.264 0 0 1 .331 0c.047.037.079.09.09.148Zm.745 0a.25.25 0 0 1-.145.276.267.267 0 0 1-.311-.067.25.25 0 0 1-.056-.21.252.252 0 0 1 .09-.147.264.264 0 0 1 .332 0c.047.037.078.09.09.148Z" fill="#FFCE00"/><path d="M95.487 31.404h.323v-2.972h-.323v2.973Z" fill="#0091BC"/><path d="M88.302 37.34h.663v-.192h-.663v.193Zm-11.734 0h.663v-.192h-.663v.193Zm-11.725 0h.655v-.192h-.655v.193Zm-11.743 0h.664v-.192H53.1v.193Z" fill="#FFCE00"/><path d="M88.948 36.816h.34V24.27h-.34v12.545Zm-.718 0h.34V24.27h-.34v12.545Zm-.718 0h.341V24.27h-.34v12.545Zm-.718 0h.341V24.27h-.34v12.545Zm-.708 0h.34V24.27h-.34v12.545Zm-.718 0h.341V24.27h-.34v12.545Zm-.727 0h.341V24.27h-.34v12.545Zm-.717 0h.34V24.27h-.34v12.545Zm-.718 0h.34V24.27h-.34v12.545Zm-.717 0h.34V24.27h-.34v12.545Zm-.709 0h.34V24.27h-.34v12.545Zm-.718 0h.341V24.27h-.34v12.545Zm-.718 0h.341V24.27h-.34v12.545Zm-.718 0h.341V24.27h-.34v12.545Zm-.716 0h.34V24.27h-.34v12.545Zm-.719 0h.341V24.27h-.34v12.545Zm-.708 0h.34V24.27h-.34v12.545Zm-.718 0h.341V24.27h-.34v12.545Zm-.718 0h.341V24.27h-.34v12.545Zm-.727 0h.342V24.27h-.341v12.545Zm-.717 0h.34V24.27h-.34v12.545Zm-.717 0h.34V24.27h-.34v12.545Zm-.718 0h.34V24.27h-.34v12.545Zm-.709 0h.34V24.27h-.34v12.545Zm-.718 0h.341V24.27h-.34v12.545Zm-.717 0h.34V24.27h-.34v12.545Zm-.718 0h.341V24.27h-.34v12.545Zm-.718 0h.341V24.27h-.34v12.545Zm-.718 0h.341V24.27h-.34v12.545Zm-.708 0h.34V24.27h-.34v12.545Zm-.718 0h.341V24.27h-.34v12.545Zm-.726 0h.34V24.27h-.34v12.545Zm-.718 0h.34V24.27H66v12.545Zm-.717 0h.34V24.27h-.34v12.545Zm-.718 0h.34V24.27h-.34v12.545Zm-.709 0h.34V24.27h-.34v12.545Zm-.717 0h.34V24.27h-.34v12.545Zm-.719 0h.342V24.27h-.341v12.545Zm-.717 0h.34V24.27h-.34v12.545Zm-.718 0h.341V24.27h-.34v12.545Zm-.717 0h.34V24.27h-.34v12.545Zm-.709 0h.34V24.27h-.34v12.545Zm-.717 0h.34V24.27h-.34v12.545Zm-.727 0h.34V24.27h-.34v12.545Zm-.718 0h.341V24.27h-.34v12.545Zm-.717 0h.34V24.27h-.34v12.545Zm-.718 0h.34V24.27h-.34v12.545Zm-.709 0h.341V24.27h-.34v12.545Zm-.718 0h.341V24.27h-.34v12.545Zm-.717 0h.34V24.27h-.34v12.545Zm-.718 0h.34V24.27h-.34v12.545Zm-.718 0h.341V24.27h-.34v12.545Zm-.717 0h.34V24.27h-.34v12.545Zm-.709 0h.34V24.27h-.34v12.545Zm-.717 0h.34V24.27h-.34v12.545Zm-.719 0h.341V24.27h-.34v12.545Z" fill="#FE6259"/></g><g clip-path="url(#b)"><path d="M18.011 9.55 6.196 11.785l-1.461 1.107a.817.817 0 0 0 0 1.273c4.137 2.39 15.526 5.007 20.048 5.007h39.2a9.292 9.292 0 0 0 5.972-1.748c1.269-1.035 1.3-1.821.47-2.732a6.726 6.726 0 0 0-1.888-1.376c-.48-2.214-2.517-3.766-5.844-3.766H18.01Z" fill="#EFEFEF"/><path d="M24.783 19.172h39.2a9.292 9.292 0 0 0 5.972-1.748c1.258-1.035 1.301-1.8.49-2.7H5.866c4.735 2.203 14.738 4.448 18.918 4.448Z" fill="#C9C9C9"/><path d="M18.011 9.55 6.196 11.785.512 0h2.367c.494-.004.977.136 1.386.404L18.011 9.55Z" fill="#17A8CC"/><path d="M66.287 12.344v.579a.344.344 0 0 0 .071.258.365.365 0 0 0 .238.135h1.951a4.356 4.356 0 0 0-.554-1.355h-1.397a.358.358 0 0 0-.237.128.336.336 0 0 0-.072.255Z" fill="#3A3A3A"/><path d="M15.41 12.499 1.524 10.533 0 10.636v.135l16.156 2.266-.747-.538Z" fill="#025772"/><path d="m16.156 13.037-14.631-2.4L0 10.77l6.121 2.266h10.035Zm47.827.931h-.789a.38.38 0 0 1-.264-.106.357.357 0 0 1-.11-.256v-1.717a.36.36 0 0 1 .11-.257.38.38 0 0 1 .264-.106h.79a.379.379 0 0 1 .256.11.356.356 0 0 1 .106.253v1.717a.356.356 0 0 1-.106.252.379.379 0 0 1-.257.11Zm-.789-2.348a.281.281 0 0 0-.196.078.265.265 0 0 0-.081.19v1.718c0 .071.029.14.081.19.052.05.123.08.196.08h.79a.281.281 0 0 0 .188-.083.265.265 0 0 0 .078-.187v-1.717a.265.265 0 0 0-.078-.187.282.282 0 0 0-.189-.082h-.789Z" fill="#17A8CC"/><path d="M63.813 12.416v-.228s0-.103-.075-.103h-.363a.107.107 0 0 0-.062.037.101.101 0 0 0-.023.066v.228c0 .024.008.048.023.067a.107.107 0 0 0 .062.037h.363l.075-.104Z" fill="#3A3A3A"/><path d="M47.54 13.813v-.3L24.035 11.03h-2.644v.672l26.147 2.11Z" fill="#025772"/><path d="M47.54 13.813c-.843.796-1.813 1.345-4.266 1.345H29.859l-8.446-3.456h3.924l22.203 2.11Z" fill="#17A8CC"/><path d="m37.164 18.717-1.76-.217v-1.77l1.76-.237v2.224Z" fill="#3A3A3A"/><path d="M39.883 19.441a24.597 24.597 0 0 1-3.477-.58V16.39a24.476 24.476 0 0 1 3.477-.62v3.672Z" fill="#B6B7B3"/><path d="M46.473 19.938a31.67 31.67 0 0 1-8.009-.517v-3.6a30.752 30.752 0 0 1 8.009-.508v4.625Z" fill="#EFEFEF"/><path d="M46.473 15.52c.13 0 .255.05.347.14.092.089.144.21.144.336v3.176a.469.469 0 0 1-.144.337.498.498 0 0 1-.347.14V15.52Z" fill="#B6B7B3"/><path d="M69.966 17.424c1.269-1.035 1.3-1.821.469-2.732a6.724 6.724 0 0 0-1.888-1.376v4.987a6.908 6.908 0 0 0 1.419-.88Z" fill="#025772"/></g><defs><clipPath id="a"><path fill="#fff" transform="translate(47 24)" d="M0 0h55v18H0z"/></clipPath><clipPath id="b"><path fill="#fff" d="M0 0h71v20H0z"/></clipPath></defs></svg>