<svg width="120" height="35" fill="none" xmlns="http://www.w3.org/2000/svg"><path d="m30.442 16.371-19.97 3.832-2.47 1.897a1.44 1.44 0 0 0-.51 1.091 1.418 1.418 0 0 0 .51 1.091c6.994 4.097 26.243 8.585 33.884 8.585h66.255a15.547 15.547 0 0 0 10.093-2.998c2.145-1.773 2.199-3.122.793-4.682a11.377 11.377 0 0 0-3.19-2.36c-.811-3.795-4.254-6.456-9.877-6.456H30.442Z" fill="#EFEFEF"/><path d="M41.887 32.867h66.254a15.548 15.548 0 0 0 10.093-2.998c2.127-1.773 2.199-3.086.829-4.629H9.913c8.003 3.778 24.909 7.627 31.974 7.627Z" fill="#C9C9C9"/><path d="m30.442 16.372-19.97 3.83L.865 0h4.001A4.175 4.175 0 0 1 7.21.692l23.233 15.68Z" fill="#17A8CC"/><path d="M112.034 21.16v.994a.597.597 0 0 0 .12.442c.098.127.243.21.402.232h3.299a7.544 7.544 0 0 0-.937-2.324h-2.362a.592.592 0 0 0-.522.656Z" fill="#3A3A3A"/><path d="m26.044 21.427-23.467-3.37L0 18.234v.23l27.305 3.885-1.261-.922Z" fill="#025772"/><path d="M27.305 22.349 2.577 18.234 0 18.464l10.345 3.885h16.96Zm80.836 1.596h-1.334a.636.636 0 0 1-.446-.182.617.617 0 0 1-.185-.439V20.38c0-.165.067-.322.185-.439a.636.636 0 0 1 .446-.182h1.334c.164.005.32.072.434.188a.614.614 0 0 1 .179.433v2.944a.614.614 0 0 1-.179.433.634.634 0 0 1-.434.188Zm-1.334-4.026a.472.472 0 0 0-.331.135.458.458 0 0 0-.138.326v2.944c0 .123.05.24.138.326a.472.472 0 0 0 .331.136h1.334a.473.473 0 0 0 .32-.142.453.453 0 0 0 .13-.32V20.38a.453.453 0 0 0-.13-.32.473.473 0 0 0-.32-.141h-1.334Z" fill="#17A8CC"/><path d="M107.852 21.285v-.39s0-.178-.126-.178h-.613a.179.179 0 0 0-.144.177v.39a.179.179 0 0 0 .144.177h.613l.126-.176Z" fill="#3A3A3A"/><path d="M80.349 23.68v-.515l-39.724-4.257h-4.47v1.153l44.194 3.618Z" fill="#025772"/><path d="M80.348 23.68c-1.424 1.365-3.064 2.305-7.209 2.305H50.466L36.19 20.061h6.633l37.524 3.618Z" fill="#17A8CC"/><path d="m62.812 32.087-2.974-.373v-3.033l2.974-.408v3.814Z" fill="#3A3A3A"/><path d="M67.408 33.328a41.042 41.042 0 0 1-5.876-.993v-4.24a40.847 40.847 0 0 1 5.876-1.064v6.297Z" fill="#B6B7B3"/><path d="M78.546 34.18a52.78 52.78 0 0 1-13.536-.887V27.12a51.266 51.266 0 0 1 13.536-.869v7.928Z" fill="#EFEFEF"/><path d="M78.546 26.606c.22 0 .431.086.587.239a.81.81 0 0 1 .243.577v5.445a.81.81 0 0 1-.243.577.836.836 0 0 1-.587.239v-7.077Z" fill="#B6B7B3"/><path d="M118.252 29.87c2.144-1.774 2.198-3.122.793-4.683a11.369 11.369 0 0 0-3.191-2.36v8.55c.859-.404 1.664-.91 2.398-1.508Z" fill="#025772"/></svg>