<svg width="57" height="50" fill="none" xmlns="http://www.w3.org/2000/svg"><path d="M12.753 36.843s-9.53-3.575-11.571 5.698l2.014-.4S.836 44.852 0 49.994c5.117-.997 7.756-3.44 7.756-3.44l-.338 2.03c9.206-2.328 5.335-11.742 5.335-11.742Z" fill="url(#a)"/><path d="M12.753 36.843s-5.945-2.23-7.217 3.554l1.253-.25s-1.473 1.692-1.993 4.902c3.19-.627 4.836-2.144 4.836-2.144l-.21 1.263c5.746-1.453 3.33-7.325 3.33-7.325Z" fill="url(#b)"/><path d="m19.49 36.37-6.504-6.436 1.792-1.802 6.504 6.435-1.792 1.803Z" fill="url(#c)"/><path d="M17.922 19.59s-6.04-.446-8.518 2.047c-2.676 2.69-4.89 5.981-6.678 10.684-.955 2.508 1.567-.084 3.238-1.612 2.926-2.676 4.369-2.62 7.154-1.983 0 0 1.503-3.075 4.804-9.135Z" fill="url(#d)"/><path d="M17.922 19.59s-6.04-.446-8.518 2.047c-2.676 2.69-4.89 5.981-6.679 10.684-.178.47-.235.762-.199.914 0 0 2.572-5.955 5.389-8.874 2.816-2.918 4.701-4.006 10.007-4.77Z" fill="#fff" style="mix-blend-mode:soft-light" opacity=".3"/><path d="M29.852 31.394s.498 6.023-1.98 8.516c-2.672 2.691-5.956 4.929-10.657 6.752-2.508.973.07-1.568 1.587-3.243 2.665-2.943 2.591-4.388 1.928-7.156.006 0 3.075-1.525 9.122-4.87Z" fill="url(#e)"/><path d="M48.873 8.668c1.004-6.508-.275-8.04-.275-8.04s-1.546-1.255-8.06-.207c-6.883 1.116-11.25 5.346-14.225 8.288-3.848 3.805-10.187 12.563-13.195 20.017l3.829 3.749 3.79 3.788c7.444-3.056 16.167-9.462 19.95-13.333 2.922-2.993 7.125-7.386 8.186-14.262Z" fill="url(#f)"/><path d="m14.09 29.677 2.857 2.798 3.79 3.788c7.444-3.056 16.167-9.461 19.949-13.333 2.922-2.993 7.126-7.386 8.187-14.262 1.003-6.508-.276-8.04-.276-8.04" fill="url(#g)"/><path d="m13.66 29.256 6.518 6.45" stroke="#000" stroke-width="1.9" stroke-miterlimit="10" style="mix-blend-mode:soft-light" opacity=".1"/><path d="m13.118 28.726 3.829 3.749 3.79 3.788a48.904 48.904 0 0 0 4.618-2.216l-10.054-9.95a48.308 48.308 0 0 0-2.183 4.629Z" fill="url(#h)"/><path style="mix-blend-mode:soft-light" d="m23.328 26.465-2.592 9.798-.74-.486-.506.593-2.526-2.499 6.364-7.406Z" fill="url(#i)"/><path d="m34.882 2.202 12.255 12.124" stroke="#000" stroke-width="1.9" stroke-miterlimit="10" style="mix-blend-mode:soft-light"/><path d="M48.597.627s-1.545-1.254-8.06-.205a20.553 20.553 0 0 0-5.655 1.78l12.255 12.124a20.572 20.572 0 0 0 1.736-5.658c1.003-6.508-.276-8.041-.276-8.041Z" fill="url(#j)"/><path d="m33.057 1.856-.622.636 14.752 14.452.623-.636L33.057 1.856Z" fill="url(#k)"/><path d="m31.945 3.243-.414.423 14.752 14.452.415-.424L31.945 3.243Z" fill="url(#l)"/><path d="m15.3 24.098 10.055 9.949" stroke="#000" stroke-width="1.9" stroke-miterlimit="10" style="mix-blend-mode:soft-light" opacity=".1"/><path d="M23.277 26.106s-.561-.87-5.987 4.59S7.238 41.385 7.669 41.811c.43.426 5.632-4.231 11.058-9.693s4.55-6.012 4.55-6.012Z" fill="url(#m)"/><path d="M23.277 26.106s-.561-.87-5.987 4.59S7.238 41.385 7.669 41.811c0 0 1.517-2.18 5.588-6.517 4.072-4.336 8.74-9.075 10.02-9.188Z" fill="#fff" style="mix-blend-mode:soft-light" opacity=".3"/><path style="mix-blend-mode:soft-light" d="M38.014 19.012a6.752 6.752 0 1 0-13.381-1.814 6.752 6.752 0 0 0 13.381 1.814Z" fill="url(#n)"/><path d="M31.29 24.618a6.714 6.714 0 1 0-.04-13.428 6.714 6.714 0 0 0 .04 13.428Z" fill="#D4D4D4"/><path d="M31.373 24.618a6.633 6.633 0 1 0-.041-13.265 6.633 6.633 0 0 0 .041 13.265Z" fill="url(#o)"/><path d="M31.267 23.082a5.183 5.183 0 1 0-.062-10.366 5.183 5.183 0 0 0 .062 10.366Z" fill="#76C9F0"/><path d="M31.297 22.975a4.973 4.973 0 1 0-.049-9.946 4.973 4.973 0 0 0 .049 9.946Z" fill="url(#p)"/><path d="m35.854 14.069-11.021 4.868.79 1.789 11.022-4.868-.79-1.79Z" fill="url(#q)"/><path d="m36.953 16.835-11.022 4.869.398.9 11.022-4.868-.398-.9Z" fill="url(#r)"/><path d="M27.038 14.166a.283.283 0 0 0-.275-.342.285.285 0 0 0-.205.483.283.283 0 0 0 .48-.14Zm-.984 1.55a.284.284 0 1 0-.555-.116.284.284 0 0 0 .555.116Zm2.1-2.62a.284.284 0 1 0-.559-.105.284.284 0 0 0 .56.105Zm-2.354 5.98a.283.283 0 1 0-.437.362.283.283 0 0 0 .437-.361Zm.605 1.735a.284.284 0 1 0-.437.363.284.284 0 0 0 .437-.363Zm-.721-3.549a.284.284 0 1 0-.436.363.284.284 0 0 0 .436-.363Zm3.089 5.848a.284.284 0 1 0 .02.566.284.284 0 0 0-.02-.567Zm1.74.587a.284.284 0 1 0 .02.567.284.284 0 0 0-.02-.567Zm-3.243-1.615a.283.283 0 1 0 .016.567.283.283 0 0 0-.016-.567Zm6.548 1.126a.284.284 0 0 0 .455.337.283.283 0 0 0-.455-.337Zm1.445-.986a.284.284 0 1 0 .458.338.284.284 0 0 0-.458-.338Zm-3.161 1.467a.283.283 0 1 0 .454.34.283.283 0 0 0-.454-.34Zm4.675-4.301a.285.285 0 0 0 .396.19.284.284 0 1 0-.396-.19Zm.191-1.678a.282.282 0 1 0 .546-.138.282.282 0 0 0-.546.138Zm-.764 3.36a.283.283 0 0 0 .518.079.284.284 0 1 0-.518-.079Zm-.212-6.465a.285.285 0 0 0 .394-.308.284.284 0 1 0-.394.308Zm-1.285-1.283a.284.284 0 1 0 .233-.518.284.284 0 0 0-.233.518Zm2.038 2.861a.284.284 0 1 0 .232-.518.284.284 0 0 0-.232.518ZM31.53 12.1a.284.284 0 1 0-.547-.15.284.284 0 0 0 .548.15Zm-1.898.482a.283.283 0 1 0-.262-.502.283.283 0 0 0 .262.502Zm3.717-.185a.284.284 0 1 0-.52-.227.284.284 0 0 0 .52.227Z" fill="#A3A3A3"/><path d="M26.979 14.105a.285.285 0 0 0-.433-.296.284.284 0 1 0 .433.296Zm-.985 1.552a.284.284 0 1 0-.556-.117.284.284 0 0 0 .556.117Zm2.101-2.621a.284.284 0 1 0-.556-.12.284.284 0 0 0 .556.12Zm-2.355 5.981a.285.285 0 0 0-.438.002.284.284 0 0 0 .401.398.285.285 0 0 0 .038-.4Zm.606 1.735a.284.284 0 1 0-.438.362.284.284 0 0 0 .438-.362Zm-.721-3.55a.283.283 0 1 0-.436.364.283.283 0 0 0 .436-.364Zm3.088 5.848a.284.284 0 1 0 .02.566.284.284 0 0 0-.02-.566Zm1.74.587a.284.284 0 1 0 .02.568.284.284 0 0 0-.02-.568Zm-3.241-1.614a.284.284 0 1 0 .016.568.284.284 0 0 0-.016-.568Zm6.547 1.125a.283.283 0 0 0 .454.337.284.284 0 0 0-.373-.412.28.28 0 0 0-.081.075Zm1.451-.985a.284.284 0 1 0 .456.337.284.284 0 0 0-.456-.337Zm-3.167 1.467a.283.283 0 1 0 .453.339.283.283 0 0 0-.453-.34Zm4.675-4.301a.284.284 0 1 0 .55-.136.284.284 0 0 0-.55.136Zm.19-1.682a.283.283 0 1 0 .548-.138.283.283 0 0 0-.548.138Zm-.767 3.363a.283.283 0 1 0 .55-.135.283.283 0 0 0-.55.136Zm-.208-6.464a.285.285 0 0 0 .394-.308.283.283 0 1 0-.394.308Zm-.916-1.413a.284.284 0 1 0-.51-.251.284.284 0 0 0 .51.25Zm1.667 2.991a.283.283 0 1 0 .233-.516.283.283 0 0 0-.233.516Zm-5.214-4.086a.284.284 0 1 0-.548-.15.284.284 0 0 0 .548.15Zm-1.897.484a.285.285 0 0 0-.047-.522.283.283 0 1 0 .047.522Zm3.719-.183a.284.284 0 1 0-.52-.228.284.284 0 0 0 .52.228Z" fill="#D4D4D4"/><path d="m26.869 13.842-.374.373.04.04.373-.373-.04-.04Zm-.986 1.55-.374.374.04.04.374-.374-.04-.04Zm2.1-2.619-.373.373.04.04.373-.374-.04-.04Zm-2.293 6.219-.374.374.04.04.373-.374-.04-.04Zm.602 1.734-.373.374.04.04.373-.374-.04-.04Zm-.717-3.549-.374.374.04.04.373-.374-.04-.04Zm3.315 5.949-.374.374.04.04.373-.374-.04-.04Zm1.74.588-.374.374.04.04.373-.374-.04-.04ZM27.388 22.1l-.374.373.04.04.373-.373-.04-.04Zm6.764 1.01-.373.373.04.04.373-.373-.04-.04Zm1.452-.986-.373.373.04.04.373-.373-.04-.04Zm-3.167 1.468-.374.373.04.04.373-.373-.04-.04Zm4.723-4.537-.374.373.04.04.373-.373-.04-.04Zm.19-1.683-.374.373.04.04.373-.373-.04-.04Zm-.767 3.364-.373.374.04.04.373-.374-.04-.04Zm-.368-6.656-.374.374.04.04.374-.373-.04-.04Zm-1.285-1.279-.373.374.04.04.373-.374-.04-.04Zm2.036 2.857-.373.374.04.04.373-.374-.04-.04Zm-5.603-3.901-.373.374.04.04.373-.374-.04-.04Zm-1.756.308-.374.373.04.04.374-.373-.04-.04Zm3.589-.048-.374.374.04.04.374-.374-.04-.04Z" fill="#B9B9B9"/><path d="M48.598.627s-1.546-1.254-8.06-.205c-6.883 1.115-11.25 5.345-14.225 8.287-3.848 3.806-10.187 12.563-13.195 20.017 0 0 13.847-29.049 35.48-28.1Zm-34.687 28.87-.685.673-.24-.236.674-.678.251.241Z" fill="#fff" style="mix-blend-mode:soft-light" opacity=".3"/><path style="mix-blend-mode:soft-light" opacity=".5" d="M20.736 36.263S48.362 22.255 48.597.627l7.796 3.421-25.8 39.734s-5.203-1.952-9.857-7.52Z" fill="url(#s)"/><path style="mix-blend-mode:soft-light" d="m20.736 36.263.546 1.978s5.313-2.62 8.57-6.854c0 0-5.873 3.533-9.116 4.876Z" fill="url(#t)"/><path d="M18.337 44.226c1.633-1.598 2.246-3.145 2.351-3.44a2.584 2.584 0 0 1-.199.386 12.03 12.03 0 0 1-1.682 2.24c-.98 1.087-2.402 2.529-2.61 3.151-.038.133-.02.218.04.271 0 0 .28-.832 2.1-2.608Z" fill="#fff" style="mix-blend-mode:soft-light" opacity=".3"/><defs><linearGradient id="a" x1="-3.6" y1="52.7" x2="12.6" y2="37.5" gradientUnits="userSpaceOnUse"><stop stop-color="#FF8533"/><stop offset="1" stop-color="#FFD052"/></linearGradient><linearGradient id="b" x1="3.8" y1="45.8" x2="13.8" y2="36" gradientUnits="userSpaceOnUse"><stop stop-color="#FFD052"/><stop offset="1" stop-color="#FFE9AE"/></linearGradient><linearGradient id="c" x1="22.4" y1="40.9" x2="13.1" y2="25.6" gradientUnits="userSpaceOnUse"><stop stop-color="#767B7F"/><stop offset="1" stop-color="#A3A3A3"/></linearGradient><linearGradient id="d" x1="8.5" y1="24.4" x2="23.4" y2="41.5" gradientUnits="userSpaceOnUse"><stop stop-color="#F02E54"/><stop offset="1" stop-color="#8F1931"/></linearGradient><linearGradient id="e" x1="2146.5" y1="4543.1" x2="1616.2" y2="2173.9" gradientUnits="userSpaceOnUse"><stop stop-color="#F02E54"/><stop offset="1" stop-color="#8F1931"/></linearGradient><linearGradient id="f" x1="28.7" y1="9.6" x2="39.8" y2="35.7" gradientUnits="userSpaceOnUse"><stop stop-color="#EEF4FA"/><stop offset="1" stop-color="#CDDEED"/></linearGradient><linearGradient id="g" x1="6795.5" y1="2832.2" x2="8949.9" y2="7854.4" gradientUnits="userSpaceOnUse"><stop stop-color="#EEF4FA"/><stop offset="1" stop-color="#CDDEED"/></linearGradient><linearGradient id="h" x1="12.6" y1="23.2" x2="22.6" y2="35.5" gradientUnits="userSpaceOnUse"><stop stop-color="#C7C7C7"/><stop offset="1" stop-color="#A3A3A3"/></linearGradient><linearGradient id="i" x1="19.8" y1="29.2" x2="21.9" y2="35.5" gradientUnits="userSpaceOnUse"><stop stop-color="#1D262D"/><stop offset="1" stop-color="#1D262D" stop-opacity="0"/></linearGradient><linearGradient id="j" x1="3880.6" y1="248.2" x2="5769.8" y2="1768.8" gradientUnits="userSpaceOnUse"><stop stop-color="#F02E54"/><stop offset="1" stop-color="#8F1931"/></linearGradient><linearGradient id="k" x1="68.3" y1="38.6" x2="30.1" y2="-1" gradientUnits="userSpaceOnUse"><stop stop-color="#8F1931"/><stop offset="1" stop-color="#F02E54"/></linearGradient><linearGradient id="l" x1="292.6" y1="5237.2" x2="-7.1" y2="5228.3" gradientUnits="userSpaceOnUse"><stop stop-color="#8F1931"/><stop offset="1" stop-color="#F02E54"/></linearGradient><linearGradient id="m" x1="1238.4" y1="2987.9" x2="2420.3" y2="4668.3" gradientUnits="userSpaceOnUse"><stop stop-color="#F02E54"/><stop offset="1" stop-color="#8F1931"/></linearGradient><linearGradient id="n" x1="32.6" y1="20.8" x2="36.8" y2="29.7" gradientUnits="userSpaceOnUse"><stop stop-color="#1D262D"/><stop offset=".7" stop-color="#1D262D" stop-opacity=".3"/><stop offset="1" stop-color="#1D262D" stop-opacity="0"/></linearGradient><linearGradient id="o" x1="2418.3" y1="924.5" x2="3121.3" y2="2569.3" gradientUnits="userSpaceOnUse"><stop stop-color="#C7C7C7"/><stop offset="1" stop-color="#A3A3A3"/></linearGradient><linearGradient id="p" x1="27.3" y1="11.9" x2="37.1" y2="26.9" gradientUnits="userSpaceOnUse"><stop stop-color="#ADE5FF"/><stop offset="1" stop-color="#76C9F0"/></linearGradient><linearGradient id="q" x1="36.1" y1="13.9" x2="25.6" y2="20.8" gradientUnits="userSpaceOnUse"><stop stop-color="#F9FBFC"/><stop offset="1" stop-color="#F9FBFC" stop-opacity="0"/></linearGradient><linearGradient id="r" x1="2902" y1="119.1" x2="2884.6" y2="260.1" gradientUnits="userSpaceOnUse"><stop stop-color="#F9FBFC"/><stop offset="1" stop-color="#F9FBFC" stop-opacity="0"/></linearGradient><linearGradient id="s" x1="12841.4" y1="8840.7" x2="7188.6" y2="5924.3" gradientUnits="userSpaceOnUse"><stop stop-color="#1D262D"/><stop offset="1" stop-color="#1D262D" stop-opacity="0"/></linearGradient><linearGradient id="t" x1="1414.7" y1="1397.5" x2="1497.8" y2="1644.8" gradientUnits="userSpaceOnUse"><stop stop-color="#1D262D"/><stop offset="1" stop-color="#1D262D" stop-opacity="0"/></linearGradient></defs></svg>