<svg width="120" height="43" fill="none" xmlns="http://www.w3.org/2000/svg"><path d="M7.961 2H6.198v18.32h1.763V2Z" fill="#D1D1D1"/><path d="M12.178 0h-1.763v18.322h1.763V0Z" fill="#AAA"/><path d="M9.47 4.49H7.707v18.32H9.47V4.49Z" fill="#EAEAEA"/><path d="M12.687 2h-2.8v.345h2.8V2Zm0 1.09h-2.8v.345h2.8V3.09Z" fill="#AAA"/><path d="M20.394 7.489h-6.598v14.068h6.598V7.49Z" fill="#EAEAEA"/><path d="M23.01 17.522H3.036v13.087h19.976V17.522Z" fill="#D1D1D1"/><path d="M7.87 19.467H5.653v2.09H7.87v-2.09Zm4.181 0H9.834v2.09h2.217v-2.09Zm4.163 0h-2.218v2.09h2.218v-2.09Zm4.18 0h-2.218v2.09h2.218v-2.09ZM7.87 22.357H5.653v2.09H7.87v-2.09Zm4.181 0H9.834v2.09h2.217v-2.09Zm4.163 0h-2.218v2.09h2.218v-2.09Zm4.18 0h-2.218v2.09h2.218v-2.09ZM7.87 25.247H5.653v2.09H7.87v-2.09Zm4.181 0H9.834v2.09h2.217v-2.09Zm4.163 0h-2.218v2.09h2.218v-2.09Zm4.18 0h-2.218v2.09h2.218v-2.09Z" fill="#17A8CC"/><path d="M101.279 39.188H3.999C.6 36.116.546 32.5.364 28.282h118.328c-2.145 3.981-6.38 7.725-17.413 10.906Z" fill="#000"/><path d="M20.394 8.543h-6.598v3.544h6.598V8.543Z" fill="#E02214"/><path d="M37.189 21.775h-10.16v6.326h10.16v-6.326Z" fill="#FE6259"/><path d="M36.752 22.175h-9.288v5.49h9.288v-5.49Z" fill="#AA0908"/><path d="M28.192 21.939h-.346v5.962h.346v-5.962Zm.745 0h-.346v5.962h.346v-5.962Zm.745 0h-.345v5.962h.345v-5.962Zm.745 0h-.346v5.962h.346v-5.962Zm.745 0h-.345v5.962h.345v-5.962Zm.746 0h-.346v5.962h.346v-5.962Zm.745 0h-.346v5.962h.346v-5.962Zm.745 0h-.346v5.962h.346v-5.962Zm.746 0h-.346v5.962h.346v-5.962Zm.744 0h-.345v5.962h.345v-5.962Zm.746 0h-.346v5.962h.346v-5.962Zm.745 0h-.346v5.962h.346v-5.962Z" fill="#FE6259"/><path d="M47.368 21.775H37.207v6.326h10.16v-6.326Z" fill="#FFCE00"/><path d="M46.931 22.175h-9.288v5.49h9.288v-5.49Z" fill="#C19D02"/><path d="M38.352 21.939h-.345v5.962h.345v-5.962Zm.745 0h-.345v5.962h.345v-5.962Zm.745 0h-.345v5.962h.345v-5.962Zm.746 0h-.345v5.962h.345v-5.962Zm.745 0h-.346v5.962h.346v-5.962Zm.745 0h-.345v5.962h.345v-5.962Zm.745 0h-.345v5.962h.345v-5.962Zm.764 0h-.345v5.962h.345v-5.962Zm.745 0h-.345v5.962h.345v-5.962Zm.745 0h-.345v5.962h.345v-5.962Zm.745 0h-.345v5.962h.345v-5.962Zm.746 0h-.345v5.962h.345v-5.962ZM88.064 9.125H77.886v6.325h10.178V9.125Z" fill="#FFCE00"/><path d="M87.61 9.542h-9.29v5.49h9.288v-5.49Z" fill="#C19D02"/><path d="M79.03 9.306h-.344v5.962h.345V9.306Zm.746 0h-.345v5.962h.345V9.306Zm.745 0h-.345v5.962h.345V9.306Zm.745 0h-.345v5.962h.345V9.306Zm.745 0h-.345v5.962h.345V9.306Zm.746 0h-.346v5.962h.346V9.306Zm.745 0h-.346v5.962h.346V9.306Zm.763 0h-.345v5.962h.345V9.306Zm.745 0h-.345v5.962h.345V9.306Zm.747 0h-.346v5.962h.346V9.306Zm.743 0h-.345v5.962h.346V9.306Zm.747 0H86.9v5.962h.346V9.306Z" fill="#FFCE00"/><path d="M57.546 21.775H47.368v6.326h10.178v-6.326Z" fill="#C6A07A"/><path d="M57.092 22.175h-9.288v5.49h9.288v-5.49Z" fill="#756B5D"/><path d="M48.53 21.939h-.345v5.962h.345v-5.962Zm.746 0h-.345v5.962h.345v-5.962Zm.745 0h-.345v5.962h.345v-5.962Zm.746 0h-.346v5.962h.346v-5.962Zm.744 0h-.345v5.962h.345v-5.962Zm.746 0h-.345v5.962h.345v-5.962Zm.745 0h-.345v5.962h.345v-5.962Zm.745 0h-.345v5.962h.345v-5.962Zm.746 0h-.346v5.962h.346v-5.962Zm.745 0h-.345v5.962h.345v-5.962Zm.745 0h-.345v5.962h.345v-5.962Zm.745 0h-.345v5.962h.345v-5.962Zm21.14-.164H67.707v6.326h10.16v-6.326Z" fill="#C6A07A"/><path d="M77.432 22.175h-9.288v5.49h9.288v-5.49Z" fill="#756B5D"/><path d="M68.87 21.939h-.346v5.962h.346v-5.962Zm.745 0h-.346v5.962h.346v-5.962Zm.746 0h-.345v5.962h.345v-5.962Zm.745 0h-.345v5.962h.345v-5.962Zm.745 0h-.345v5.962h.345v-5.962Zm.745 0h-.345v5.962h.345v-5.962Zm.745 0h-.345v5.962h.345v-5.962Zm.746 0h-.346v5.962h.346v-5.962Zm.745 0h-.346v5.962h.346v-5.962Zm.745 0h-.346v5.962h.346v-5.962Zm.745 0h-.345v5.962h.345v-5.962Zm.746 0h-.345v5.962h.345v-5.962Z" fill="#C6A07A"/><path d="M88.028 21.775h-10.16v6.326h10.16v-6.326Z" fill="#1CA7E0"/><path d="M87.592 22.175h-9.288v5.49h9.288v-5.49Z" fill="#025772"/><path d="M79.03 21.939h-.344v5.962h.345v-5.962Zm.746 0h-.345v5.962h.345v-5.962Zm.745 0h-.345v5.962h.345v-5.962Zm.745 0h-.345v5.962h.345v-5.962Zm.745 0h-.345v5.962h.345v-5.962Zm.746 0h-.346v5.962h.346v-5.962Zm.745 0h-.346v5.962h.346v-5.962Zm.746 0h-.346v5.962h.346v-5.962Zm.744 0h-.346v5.962h.346v-5.962Zm.746 0h-.345v5.962h.345v-5.962Zm.762 0h-.345v5.962h.346v-5.962Zm.747 0H86.9v5.962h.346v-5.962Z" fill="#1CA7E0"/><path d="M108.367 21.775h-10.16v6.326h10.16v-6.326Z" fill="#A37E7A"/><path d="M107.931 22.175h-9.288v5.49h9.288v-5.49Z" fill="#6D423F"/><path d="M99.37 21.939h-.346v5.962h.346v-5.962Zm.745 0h-.346v5.962h.346v-5.962Zm.745 0h-.345v5.962h.345v-5.962Zm.745 0h-.345v5.962h.345v-5.962Zm.746 0h-.345v5.962h.345v-5.962Zm.745 0h-.345v5.962h.345v-5.962Zm.745 0h-.345v5.962h.345v-5.962Zm.746 0h-.346v5.962h.346v-5.962Zm.745 0h-.346v5.962h.346v-5.962Zm.745 0h-.346v5.962h.346v-5.962Zm.745 0h-.345v5.962h.345v-5.962Zm.746 0h-.345v5.962h.345v-5.962Zm-39.861-.164h-10.16v6.326h10.16v-6.326Z" fill="#A37E7A"/><path d="M67.27 22.175h-9.288v5.49h9.288v-5.49Z" fill="#6D423F"/><path d="M58.691 21.939h-.345v5.962h.346v-5.962Zm.745 0h-.345v5.962h.345v-5.962Zm.746 0h-.346v5.962h.346v-5.962Zm.745 0h-.346v5.962h.346v-5.962Zm.745 0h-.345v5.962h.346v-5.962Zm.746 0h-.346v5.962h.346v-5.962Zm.745 0h-.346v5.962h.346v-5.962Zm.745 0h-.346v5.962h.346v-5.962Zm.745 0h-.345v5.962h.345v-5.962Zm.764 0h-.346v5.962h.346v-5.962Zm.745 0h-.346v5.962h.346v-5.962Zm.745 0h-.346v5.962h.346v-5.962ZM77.868 9.125H67.707v6.325h10.16V9.125Z" fill="#A37E7A"/><path d="M77.432 9.542h-9.288v5.49h9.288v-5.49Z" fill="#6D423F"/><path d="M68.87 9.306h-.346v5.962h.346V9.306Zm.745 0h-.346v5.962h.346V9.306Zm.746 0h-.345v5.962h.345V9.306Zm.745 0h-.345v5.962h.345V9.306Zm.745 0h-.345v5.962h.345V9.306Zm.745 0h-.345v5.962h.345V9.306Zm.745 0h-.345v5.962h.345V9.306Zm.746 0h-.346v5.962h.346V9.306Zm.745 0h-.346v5.962h.346V9.306Zm.745 0h-.346v5.962h.346V9.306Zm.745 0h-.345v5.962h.345V9.306Zm.746 0h-.345v5.962h.345V9.306Z" fill="#A37E7A"/><path d="M98.207 21.775H88.046v6.326h10.16v-6.326Z" fill="#9C3"/><path d="M97.77 22.175h-9.288v5.49h9.288v-5.49Z" fill="#628421"/><path d="M89.21 21.939h-.346v5.962h.346v-5.962Zm.745 0h-.346v5.962h.346v-5.962Zm.745 0h-.346v5.962h.346v-5.962Zm.745 0H91.1v5.962h.345v-5.962Zm.745 0h-.345v5.962h.345v-5.962Zm.745 0h-.345v5.962h.345v-5.962Zm.745 0h-.345v5.962h.345v-5.962Zm.745 0h-.345v5.962h.345v-5.962Zm.746 0h-.345v5.962h.346v-5.962Zm.746 0h-.346v5.962h.346v-5.962Zm.745 0h-.346v5.962h.346v-5.962Zm.745 0h-.346v5.962h.346v-5.962Zm-29.7-12.814h-10.16v6.325h10.16V9.125Z" fill="#9C3"/><path d="M67.27 9.542h-9.288v5.49h9.288v-5.49Z" fill="#628421"/><path d="M58.691 9.306h-.345v5.962h.346V9.306Zm.745 0h-.345v5.962h.345V9.306Zm.746 0h-.346v5.962h.346V9.306Zm.745 0h-.346v5.962h.346V9.306Zm.745 0h-.345v5.962h.346V9.306Zm.746 0h-.346v5.962h.346V9.306Zm.745 0h-.346v5.962h.346V9.306Zm.763 0h-.345v5.962h.345V9.306Zm.745 0h-.345v5.962h.346V9.306Zm.746 0h-.346v5.962h.346V9.306Zm.745 0h-.346v5.962h.346V9.306Zm.745 0h-.346v5.962h.346V9.306Z" fill="#9C3"/><path d="M88.064 15.45H77.886v6.325h10.178V15.45Z" fill="#FE6259"/><path d="M87.61 15.868h-9.29v5.49h9.288v-5.49Z" fill="#AA0908"/><path d="M79.03 15.632h-.344v5.961h.345v-5.961Zm.746 0h-.345v5.961h.345v-5.961Zm.745 0h-.345v5.961h.345v-5.961Zm.745 0h-.345v5.961h.345v-5.961Zm.745 0h-.345v5.961h.345v-5.961Zm.746 0h-.346v5.961h.346v-5.961Zm.745 0h-.346v5.961h.346v-5.961Zm.763 0h-.345v5.961h.345v-5.961Zm.745 0h-.345v5.961h.345v-5.961Zm.747 0h-.346v5.961h.346v-5.961Zm.743 0h-.345v5.961h.346v-5.961Zm.747 0H86.9v5.961h.346v-5.961Z" fill="#FE6259"/><path d="M98.207 15.45H88.046v6.325h10.16V15.45Z" fill="#C6A07A"/><path d="M97.77 15.868h-9.288v5.49h9.288v-5.49Z" fill="#756B5D"/><path d="M89.21 15.632h-.346v5.961h.346v-5.961Zm.745 0h-.346v5.961h.346v-5.961Zm.745 0h-.346v5.961h.346v-5.961Zm.745 0H91.1v5.961h.345v-5.961Zm.745 0h-.345v5.961h.345v-5.961Zm.745 0h-.345v5.961h.345v-5.961Zm.745 0h-.345v5.961h.345v-5.961Zm.745 0h-.345v5.961h.345v-5.961Zm.746 0h-.345v5.961h.346v-5.961Zm.746 0h-.346v5.961h.346v-5.961Zm.745 0h-.346v5.961h.346v-5.961Zm.745 0h-.346v5.961h.346v-5.961Zm-29.7-.182h-10.16v6.325h10.16V15.45Z" fill="#C6A07A"/><path d="M67.27 15.868h-9.288v5.49h9.288v-5.49Z" fill="#756B5D"/><path d="M58.691 15.632h-.345v5.961h.346v-5.961Zm.745 0h-.345v5.961h.345v-5.961Zm.746 0h-.346v5.961h.346v-5.961Zm.745 0h-.346v5.961h.346v-5.961Zm.745 0h-.345v5.961h.346v-5.961Zm.746 0h-.346v5.961h.346v-5.961Zm.745 0h-.346v5.961h.346v-5.961Zm.763 0h-.345v5.961h.345v-5.961Zm.745 0h-.345v5.961h.346v-5.961Zm.746 0h-.346v5.961h.346v-5.961Zm.745 0h-.346v5.961h.346v-5.961Zm.745 0h-.346v5.961h.346v-5.961Zm10.961-.182H67.707v6.325h10.16V15.45Z" fill="#C6A07A"/><path d="M77.432 15.868h-9.288v5.49h9.288v-5.49Z" fill="#756B5D"/><path d="M68.87 15.632h-.346v5.961h.346v-5.961Zm.745 0h-.346v5.961h.346v-5.961Zm.746 0h-.345v5.961h.345v-5.961Zm.745 0h-.345v5.961h.345v-5.961Zm.745 0h-.345v5.961h.345v-5.961Zm.745 0h-.345v5.961h.345v-5.961Zm.745 0h-.345v5.961h.345v-5.961Zm.746 0h-.346v5.961h.346v-5.961Zm.745 0h-.346v5.961h.346v-5.961Zm.745 0h-.346v5.961h.346v-5.961Zm.745 0h-.345v5.961h.345v-5.961Zm.746 0h-.345v5.961h.345v-5.961Zm-19.54-6.507h-10.16v6.325h10.16V9.125Z" fill="#C6A07A"/><path d="M57.092 9.542h-9.288v5.49h9.288v-5.49Z" fill="#756B5D"/><path d="M48.53 9.306h-.345v5.962h.345V9.306Zm.746 0h-.345v5.962h.345V9.306Zm.745 0h-.345v5.962h.345V9.306Zm.746 0h-.346v5.962h.346V9.306Zm.744 0h-.345v5.962h.345V9.306Zm.746 0h-.345v5.962h.345V9.306Zm.745 0h-.345v5.962h.345V9.306Zm.745 0h-.345v5.962h.345V9.306Zm.746 0h-.346v5.962h.346V9.306Zm.745 0h-.345v5.962h.345V9.306Zm.745 0h-.345v5.962h.345V9.306Zm.745 0h-.345v5.962h.345V9.306Zm-9.36-.181H37.207v6.325h10.16V9.125Z" fill="#C6A07A"/><path d="M46.931 9.542h-9.288v5.49h9.288v-5.49Z" fill="#756B5D"/><path d="M38.352 9.306h-.345v5.962h.345V9.306Zm.745 0h-.345v5.962h.345V9.306Zm.745 0h-.345v5.962h.345V9.306Zm.746 0h-.345v5.962h.345V9.306Zm.745 0h-.346v5.962h.346V9.306Zm.745 0h-.345v5.962h.345V9.306Zm.763 0h-.345v5.962h.345V9.306Zm.746 0h-.345v5.962h.345V9.306Zm.745 0h-.345v5.962h.345V9.306Zm.745 0h-.345v5.962h.345V9.306Zm.745 0h-.345v5.962h.345V9.306Zm.746 0h-.345v5.962h.345V9.306Zm.8 6.144H37.207v6.325h10.16V15.45Z" fill="#C6A07A"/><path d="M46.931 15.868h-9.288v5.49h9.288v-5.49Z" fill="#756B5D"/><path d="M38.352 15.632h-.345v5.961h.345v-5.961Zm.745 0h-.345v5.961h.345v-5.961Zm.745 0h-.345v5.961h.345v-5.961Zm.746 0h-.345v5.961h.345v-5.961Zm.745 0h-.346v5.961h.346v-5.961Zm.745 0h-.345v5.961h.345v-5.961Zm.763 0h-.345v5.961h.345v-5.961Zm.746 0h-.345v5.961h.345v-5.961Zm.745 0h-.345v5.961h.345v-5.961Zm.745 0h-.345v5.961h.345v-5.961Zm.745 0h-.345v5.961h.345v-5.961Zm.746 0h-.345v5.961h.345v-5.961Zm-9.379-.182h-10.16v6.325h10.16V15.45Z" fill="#C6A07A"/><path d="M36.752 15.868h-9.288v5.49h9.288v-5.49Z" fill="#756B5D"/><path d="M28.192 15.632h-.346v5.961h.346v-5.961Zm.745 0h-.346v5.961h.346v-5.961Zm.745 0h-.345v5.961h.345v-5.961Zm.745 0h-.346v5.961h.346v-5.961Zm.745 0h-.345v5.961h.345v-5.961Zm.746 0h-.346v5.961h.346v-5.961Zm.745 0h-.346v5.961h.346v-5.961Zm.745 0h-.346v5.961h.346v-5.961Zm.746 0h-.346v5.961h.346v-5.961Zm.744 0h-.345v5.961h.345v-5.961Zm.746 0h-.346v5.961h.346v-5.961Zm.745 0h-.346v5.961h.346v-5.961Z" fill="#C6A07A"/><path d="M57.528 15.45h-10.16v6.325h10.16V15.45Z" fill="#9C3"/><path d="M57.092 15.868h-9.288v5.49h9.288v-5.49Z" fill="#628421"/><path d="M48.53 15.632h-.345v5.961h.345v-5.961Zm.746 0h-.345v5.961h.345v-5.961Zm.745 0h-.345v5.961h.345v-5.961Zm.746 0h-.346v5.961h.346v-5.961Zm.744 0h-.345v5.961h.345v-5.961Zm.746 0h-.345v5.961h.345v-5.961Zm.745 0h-.345v5.961h.345v-5.961Zm.745 0h-.345v5.961h.345v-5.961Zm.746 0h-.346v5.961h.346v-5.961Zm.745 0h-.345v5.961h.345v-5.961Zm.745 0h-.345v5.961h.345v-5.961Zm.745 0h-.345v5.961h.345v-5.961Z" fill="#9C3"/><path d="M25.338 40.57a.454.454 0 0 0-.436-.455H6.198a.455.455 0 1 0 0 .89h18.704a.436.436 0 0 0 .436-.436Zm49.967.436h18.703a.454.454 0 0 0 0-.891H75.305a.455.455 0 1 0 0 .89Zm-48.15 0h6.38a.455.455 0 1 0 0-.891h-6.38a.455.455 0 1 0 0 .89Zm78.395-.891h-6.398a.454.454 0 0 0 0 .89h6.398a.457.457 0 0 0 .364-.444.456.456 0 0 0-.364-.446Zm-68.489.891h35.735a.455.455 0 0 0 0-.891H37.061a.455.455 0 1 0 0 .89Zm61.309.672H81.103a.454.454 0 0 0 0 .909H98.37a.454.454 0 1 0 0-.909Zm-63.835 0H17.322a.454.454 0 0 0 0 .909h17.213a.454.454 0 1 0 0-.909Zm44.495 0h-5.907a.455.455 0 0 0 0 .909h5.908a.454.454 0 1 0 0-.909Zm-9.142 0h-32.99a.454.454 0 0 0 0 .909h32.99a.454.454 0 1 0 0-.909Z" fill="#A2DBF4"/><path d="M116.692 32.572H0V27.9h120l-3.308 4.67Z" fill="#EAEAEA"/><path d="M25.447 30.245a.527.527 0 1 1-1.037-.194.527.527 0 0 1 1.037.194Zm4.053 0a.508.508 0 0 1-.509.51.527.527 0 0 1 0-1.037.508.508 0 0 1 .51.527Zm4.108 0a.527.527 0 0 1-.509.51.527.527 0 0 1 0-1.037.527.527 0 0 1 .509.527Zm4.107 0a.527.527 0 1 1-1.036-.194.527.527 0 0 1 1.036.194Zm4.09 0a.508.508 0 0 1-.509.51.527.527 0 0 1 0-1.037.508.508 0 0 1 .51.527Zm4.108 0a.527.527 0 0 1-.509.51.527.527 0 0 1 0-1.037.527.527 0 0 1 .51.527Zm4.108 0a.527.527 0 1 1-1.036-.194.527.527 0 0 1 1.036.194Zm4.089 0a.508.508 0 0 1-.508.51.527.527 0 0 1 0-1.037.508.508 0 0 1 .509.527Zm4.054 0a.527.527 0 0 1-.509.51.527.527 0 0 1 0-1.037.527.527 0 0 1 .51.527Zm4.162 0a.527.527 0 0 1-.509.51.527.527 0 0 1 0-1.037.527.527 0 0 1 .51.527Z" fill="#5E5E5E"/></svg>