<svg xmlns="http://www.w3.org/2000/svg" viewBox="0 0 1108.49 294.64"><defs><style>.cls-1{fill:#f0f9fc;}.cls-1,.cls-10,.cls-11,.cls-12,.cls-13,.cls-14,.cls-15,.cls-16,.cls-17,.cls-18,.cls-19,.cls-2,.cls-20,.cls-21,.cls-22,.cls-23,.cls-24,.cls-25,.cls-26,.cls-3,.cls-4,.cls-5,.cls-6,.cls-7,.cls-8,.cls-9{fill-rule:evenodd;}.cls-2{fill:#bae3ec;}.cls-3{fill:#92cbdd;}.cls-4{fill:#fb9a7a;}.cls-5{fill:#e37250;}.cls-6{fill:#fdcdb8;}.cls-7{fill:#cb521d;}.cls-8{fill:#e16e3b;}.cls-9{fill:#6b1687;}.cls-10{fill:#42085d;}.cls-11{fill:#822d93;}.cls-12{fill:#fc0;}.cls-13{fill:#ff9e00;}.cls-14{fill:#fce233;}.cls-15{fill:#d1eef5;}.cls-16{fill:#fff;}.cls-17{fill:#a1d3e1;}.cls-18{fill:#ff6;}.cls-19{fill:#fd9f00;}.cls-20{fill:#83d0e3;}.cls-21{fill:#4fa0ca;}.cls-22{fill:#f60;}.cls-23{fill:#99cf16;}.cls-24{fill:#87af17;}.cls-25{fill:#c0e33b;}.cls-26{fill:#30110f;}</style></defs><title>logo</title><g id="Слой_2" data-name="Слой 2"><g id="Layer_1" data-name="Layer 1"><path class="cls-1" d="M100.59,229.63l-12,4.5s-46.4,17.46-48.31,20.18c-15.65,22.29,91.51,49.34,113.09,37.42,70.42-38.9,219.82-103.31,81.37-113.27-25.74-1.85-36.3,4-57.75,11.93C103.54,218.84,100.59,229.63,100.59,229.63Z"/><path class="cls-2" d="M38.62,249.31c1.28-3.19,3.84-5.48,5.48-7S57.63,232,57.63,232s-14.1-5.64-20.85-10.59S30.94,207,30.94,207,52.72,179.38,54.29,179s23-10.85,23-10.85S77,159,76.39,150.78s2.32-23,4.82-28.56,20-18.87,20-18.87L133,92s16.82-21.56,17-22.11,3.65-10.24,4.84-13.44,1.67-5.51,4.66-6.67a47.84,47.84,0,0,1,7.86-1.92l37.37,5s23.27,4.75,32.38,6.66,15.63,6.58,17,10.23a19.39,19.39,0,0,1,.46,12.61C253.16,87.64,251.38,98,251.38,98l-3.82,27.44,6.2,3.27s1.7,3.39,1.17,5.5-3.21,13.63-3.51,14.86-2.63,10.76-4.5,14.09-4.91,10.12-9.42,13.28-15.56,12.51-15.56,12.51a6.13,6.13,0,0,1-.52,3.16c-.76,1.82-6.89,11.68-6.89,11.68l5.73,2.34L241,212.61s2.51,2.87,1.93,4.15-6,3.92-7,4.39-26.38,8.71-26.38,8.71l-16.55,4-8.89,11.64-15,19-10.29,12.22s-6.67,6.73-12.81,8.13-14.39.59-14.39.59l-22.28-4.33-33-9.88L49.3,260.92l-9.24-4.85s-2.63-1.76-1.44-6.76Zm54.16-105h0l25.89-18A98.63,98.63,0,0,1,122.29,116a86.82,86.82,0,0,1,4.2-8s-9.64,2.35-13.75,4.54-13.88,9.57-15.81,10.69S94,129,93.64,130.39s-2.45,15-.86,13.89Zm82.83,94.94h0s-13.16,2.83-17.64,3.56-19.92,2.75-19.92,2.75-4.21.64-6,1-10.33.09-21.48-1.37S79.19,239,79.19,239l-12.34-3.2-9,6.76s-6.31,5.48-6.58,6.12,3.84,3.84,3.84,3.84L75.53,261,109.71,271s17.64,4.38,25.69,4.57a21.76,21.76,0,0,0,13.25-4l9.23-10.32,17.73-22Zm9-10.65h0l19.46-25L191,212.12s-2.92,1.46-4.38,1-3.29,2.1-3.29,2.1l-30.26,20.2,31.54-6.86ZM201,223.88h0s18.48-5,19.83-5.58,5-1.46,4.91-2.57a2.44,2.44,0,0,0-1.52-1.93c-.59-.3-13.81-3.63-13.81-3.63Z"/><path class="cls-3" d="M37.41,221.81h-.07l-.23-.16H37l-.24-.17h0l-.28-.21-.07-.05-.23-.19,0,0h0l-.24-.21-.08-.06-.21-.2,0,0h0l-.23-.23,0-.05-.21-.21,0,0-.22-.24-.05-.06-.19-.21,0,0-.2-.25,0,0-.18-.23,0,0a2.48,2.48,0,0,1-.19-.26l0,0c-.06-.07-.11-.15-.16-.22l0-.06-.17-.25,0-.05-.14-.22,0,0-.15-.26,0-.06-.12-.22,0,0-.14-.26,0-.08-.1-.19,0-.08-.12-.25,0-.06-.09-.21,0-.08-.11-.26,0,0-.09-.22,0-.08a2.6,2.6,0,0,1-.1-.25l0-.05-.08-.23,0-.05-.09-.27,0-.06-.07-.21,0-.06,5.65,7.78Zm-5.72-8h0l5.72,8a74.43,74.43,0,0,0,8.85,5l.27.13.24.12.07,0,.24.12.27.13h0l.25.12.78.37,0,0,.25.12.24.11h0l.26.13.08,0,.18.08.2.09.06,0,.25.12.51.23.25.11,0,0,.22.1.46.21h0l.23.11.24.1.21.1h0l.23.1.09,0,.14.06.81.36.06,0,.41.18.13.06.07,0,.2.08h0l.18.08.19.08.17.07h0l.18.07.07,0,.1.05.49.2.12.05,0,0,.15.06h0l.11,0,.09,0,0,0h0l.24.1.07,0,.05,0,.11.05h0l.11,0,0,0,0,0,.09,0h0l.08,0h0l.05,0,.06,0h0l.33.13s-11.88,8.77-13.53,10.33l-.21.2a31.51,31.51,0,0,0,10.47,9.36c-1.18-1-3.25-2.75-3-3.21.27-.64,6.58-6.12,6.58-6.12l9-6.76L79.19,239h.42l.06,0h.06l.07,0,.07,0H80l.08,0h.09l.08,0,.09,0h0l.09,0,.1,0h.1l.1,0,.11,0h.11l.12,0,.09,0h0l.12,0,.12,0h.13l.13,0,.13,0h0l.14,0,.14,0,.07,0h.07l.15,0,.15,0h0l.14,0,.15,0,.1,0H83l.16,0,.16,0h0l.13,0,.17,0,.17,0,.17,0,.18,0h.06l.12,0,.18,0,.17,0h0l.19,0,.19,0,.09,0,.1,0,.19.05.2,0h0l.18,0,.2.05.13,0h.07l.21.05.2,0c3.61.79,8.11,1.75,12.56,2.61l.19,0,.57.11.19,0,.12,0h.07l.19,0,.19,0,.19,0h0l.18,0,.19,0,.18,0,.1,0,.09,0,.19,0,.19,0,.37.07.19,0,.19,0h.07l.11,0,.19,0,.18,0,.15,0h0l.18,0,.18,0,.19,0h0l.14,0,.18,0,.19,0,.18,0,.18,0,.18,0,.18,0h0l.16,0,.17,0,.18,0,.18,0,.18,0,.17,0,.17,0h0l.08,0,.44.07h.17l.17,0,.17,0,.14,0h0l.17,0,.17,0,.16,0h0l.12,0,.33,0H109l.48.07h0l1.07.15.12,0h.13l.12,0,.13,0h.12l.13,0h.12l.12,0h.13l.12,0,.12,0h.37l.12,0h.49l.12,0h.12l.36.05h.12l.24,0H114l.12,0h.23l.12,0h.23l.12,0h.35l.12,0h.34l.12,0,.23,0h.11l.11,0h.57l.11,0h.22l.22,0h.66l.11,0c7.33.7,12.58.79,14,.51,1-.21,2.91-.51,4.29-.73l1.64-1.5,16.36-9.68h0l29.05-19.39a6.86,6.86,0,0,1,2.23-2,20.89,20.89,0,0,0-4-2C179.9,210.7,181,207,181,207l-6.22,4.47S152,226.79,145.44,230.81s-12.52,7.13-12.52,7.13l-7.59-.18-.33,0c2.14-2.47,4.28-4.81,6.8-7.44,6.13-6.42,13.11-8.37,18.13-12.83s3.62-5.3,8.92-6.42,12.28-2.23,15.35-5.3a123,123,0,0,0,8.48-10.6l1.43-11.81s-48.38-21.75-52.44-21.46-67.9,20.26-71.52,20.61c-1,.1-5.56,1.15-11.56,2.68C41.65,193.43,30.94,207,30.94,207a18.12,18.12,0,0,0,0,2.53v.19c0,.13,0,.26,0,.4v.35l0,.13v.05c0,.15,0,.31.06.47v.17l0,.19v0h0l0,.17v0l0,.15v.05l.05.26,0,.12,0,.1,0,.16v.07h0v0l.05.19,0,.09,0,.16,0,.14.05.18,0,.11.06.2v.05ZM99.6,242.11h0c-.54,0-.86,0-.86,0a23.37,23.37,0,0,1-6.95-4.85c-3.91-3.71-2.06-6.92-2.06-6.92l-21-6.51S51,217.32,45,214.52a40.65,40.65,0,0,1,12.34-7.11c14.78-5,38.27-7,43.51-7.25s33-12.76,33-12.76-23.14,31.92-26.53,36.19c-1.66,2.09-4.84,10.49-7.65,18.52ZM114.54,98.59h0l12.34-4.4h0s19,4.58,17.18,5.29c-1.26.51-13.58,9.21-20.69,14.28,1.55-3.13,3.12-5.73,3.12-5.73s-9.64,2.35-13.75,4.54-13.88,9.57-15.81,10.69S94,129,93.64,130.39s-2.45,15-.86,13.89L99,140c-3,7.3-6.08,14.94-6.08,14.94l-5.41,8.74-2-9.83s-2.32-9,.92-21S95.09,117,95.09,117s8.31-11.73,19.45-18.38Zm89.07-45.8h0l1.08.14s23.27,4.75,32.38,6.66,15.63,6.58,17,10.23a19.39,19.39,0,0,1,.46,12.61c-1.09,4.15-2.44,11.56-2.94,14.41L246,90.28s4.09-12.5,2.69-19.15c-3.54-7.88-50-18.26-50-18.26l4.91-.08Zm46.49,74h0c-11.58,3.25-29.73,9-30.51,9.24-.6.16-7.66,8.32-14.13,15.92l7.88-.84h0a6.76,6.76,0,0,0-2.14,1.7,19.73,19.73,0,0,0-1.57,4.05,32.75,32.75,0,0,1-8.12,4.1,19.53,19.53,0,0,0-.84-3.37c-3.54,4.19-6.16,7.32-6.16,7.32s-7.29,32.79-6.74,48.3l.51-.09c5.92-3.21,30.28-21.65,30.28-21.65h0l-2.25,1.75s-22.86,32.71-26,37.56-22.56,28.57-30.71,37.85-12.28,11.71-18,12.43-18.28-.14-45.85-8.28-36.85-12.43-48.13-17S40,248.5,40,248.5l-.83-.32c-.19.37-.36.74-.52,1.13-1.19,5,1.44,6.76,1.44,6.76l9.24,4.85,27.08,10.36,33,9.88,22.28,4.33s8.25.82,14.39-.59,12.81-8.13,12.81-8.13l10.29-12.22,15-19L193,233.9l17.75-24.85c-.43.75-.83,1.51-1.16,2.25l.77-1.13s13.22,3.33,13.81,3.63a2.44,2.44,0,0,1,1.52,1.93c.12,1.11-3.57,2-4.91,2.57S201,223.88,201,223.88a82.51,82.51,0,0,0-7.07,9.8l15.67-3.82s25.44-8.24,26.38-8.71,6.37-3.1,7-4.39-1.93-4.15-1.93-4.15l-20.71-6.49-5.73-2.34h.05v0h0v0h0v-.06h0l0,0v-.06h0v-.06l0,0v0h0l0,0v0l0,0v0h0l0,0,0,0v0l0,0h0v0l0,0,0,0v0h0v0l0,0,0,0,0,0,0,0h0l0,0,0,0,0,0,0,0h0l0,0,0,0,0,0,0,0v0h0l0,0,0,0,0,0c1.71-2.77,5.46-8.92,6-10.32a6.82,6.82,0,0,0,.55-2.38v0h0v-.13h0v-.06h0v0h0v0h0v0h0v0h0v-.05h0v0H222v0h0l0,0,0,0h0l0,0,0,0,0,0h0l0,0,0,0,0,0h0l0,0,0,0,0,0,0,0h0l0,0,0,0,0,0h0l0,0,0,0,.08-.06h0l.13-.11h0l0,0,0,0,.05,0,0,0h0l.05,0,0,0,.05,0h0l0,0,.05,0,.06,0,0,0h0l0,0,.06-.05.06,0h0l0,0,.06,0,.1-.09h0l.06,0,.06-.05.06,0v0l.05,0,.07-.05.06,0,.05,0,0,0,.06-.05c3.49-2.92,10-8.32,13.24-10.57,4.51-3.16,7.55-10,9.42-13.28s4.21-12.87,4.5-14.09,3-12.75,3.51-14.86-1.17-5.5-1.17-5.5l-3.66-1.93Zm-48.43,38.29h0c.32.24.55.38.55.38s-.48,1.09-1.18,2.88h0a15.4,15.4,0,0,0,.63-3.25ZM196.34,187h0c1.06-.84,6.55-5.16,9.53-6.6,3.31-1.6,8.69-6.17,8.69-6.17l10.85-28.91,7.88-3-10,32.79-28.34,18.4s.58-2.74,1.44-6.54Zm-21.65,52.47h0l-20.38-4.8-1.21.81,30-6.53c-2.38,4.7-6.66,8.89-8.44,10.52Zm-20.38-4.8h0l20.38,4.8c-3.07.65-12.95,2.75-16.72,3.36-4.48.73-19.92,2.75-19.92,2.75l16.26-10.91ZM56.5,253h0l10.61,4.42A69.53,69.53,0,0,1,56.5,253Z"/><path class="cls-4" d="M148.36,80.51c1.62-6.22,4.17-9.89,8.06-12.86a91.55,91.55,0,0,1,7.6-5.2s-13.55-.45-22,3.32-19.71,9.94-22.91,13.71c-3,.74-10.17.91-13.77,3.14s-9.26,6.15-9.26,6.15l-.61,2.6a22.23,22.23,0,0,0-3.62,5,41.93,41.93,0,0,0-2.34,4.86s.14,2.92,2.69,2.86a16.39,16.39,0,0,0,3.85-.46l.43,16.85a12.63,12.63,0,0,0,6.3-9.14c9.24-3.6,24.1-8.74,24.1-8.74s7-3,8.45-4.74,8.92-6.09,11.43-7.54c-.11-4.06,1.6-9.77,1.6-9.77Zm-5.1,25.18h0c12.84-1.39,30.25,4.07,44.86,20.25a94.58,94.58,0,0,1,5.58,7.95A38.27,38.27,0,0,0,198,130.7a96.3,96.3,0,0,1,26.91-16.42c-3.3-3.3-13-14-16.6-22.41s-2.9-17.43-1.08-22.13,8.15-10.12,17.23-4.82,17.85,15.89,23.48,26.51,13.54,24.7,12.41,29.19-9.64,8.65-15.71,12.14-28.93,9.9-28.93,9.9a131.66,131.66,0,0,1-5.53,12.14c-.89,3.75-2.44,10-6.07,10.54s-3-.92-3-.92-1.75,3-4.37,2.88-2.14-2.41-2.14-2.41a7.2,7.2,0,0,1-5,2.44c-1.57.37-1.74-2.26-1.74-2.26s-3.57.71-3.83-4.82,1.43-11.61,1.93-13.89,1.19-1.83,1.19-1.83-4.46-1.6-3.21-4.45c.89-.58,2-1.24,3.12-2-4.32-3.45-9.9-7.26-15.62-9.39-12.27-4.58-17.26-6.81-30.44-8.26-10.26-.74-18.91,1.72-21.93,4.81a89.68,89.68,0,0,1,4.84-12.83,37.23,37.23,0,0,1,19.4-6.76ZM203.9,38.6h0c3.31-2.74,5.71-4.56,8.39-1.31.4,1.09-.34,5.94-2.51,7.65s-5,4.25-7.48,1.78-2.46-3.66,1.6-8.12Zm-36.78-9.42h0c-.48,5.55,1.59,6.57,5.27,6.41.54,4.52,3.12,5,7.23,5.47a6.89,6.89,0,0,0,6.22-2.45s5.32,2.79,6.75,2.74,5-1.49,7.71-4.52c4.68-8.28,4-5.13,4-5.13A10.73,10.73,0,0,1,205.66,28c1-1.3-.4-4-.4-4l-2.52-3.94s-4.73-1.82-9.58-3.48a11,11,0,0,0-8.85.92,2.51,2.51,0,0,1-1.26-.57c-4.28-1.49-7.88.68-10,2.68s-1.72,3.83-1.72,3.83a10.22,10.22,0,0,0-4.22,5.71Zm29,26.62h0s-6.34,4.05-11.37,5-9.25-.4-13.19-2.24c-2.68,2.1-4.23,5.44-3.94,12,1,5.43,10.79,4.29,18.56,1.94s16.51-9,21.31-13c-3.7-3.36-3-11.68-3-11.68l-2-.2a55.24,55.24,0,0,1-6.4,8.23ZM93.74,211.56h0l-1.15,6.14s-2.62,4.94-2.92,14,6.92,9.71,10.28,10.14,8.28-3.07,9.92-4.86,6.71-7.85,11.85-12.63,14.49-9.43,20-12.21,9.57-8.57,9.57-8.57a16.69,16.69,0,0,0,1.43-5.43c.13-2.7,5.21-5.71,5.21-5.71a16.87,16.87,0,0,0-1.86-3.71c-4.14-7.28-13.71-14.13-21.77-15.35S125,177.5,125,177.5s-5.29,6.71-10,12.53c-.88-6.11-3.12-6.17-6-6.39-.71-7.07-4.71-5.21-4.71-5.21a7.37,7.37,0,0,0-3.11-4.76c-7.54-17.62-16.46-18.94-16.46-18.94s-8.7,6.21-15.34,10.35-22.57,9.8-26.06,9.5-8.28-3.72-11.35-5.72-6.21-8.42-8-11.13-2-8.36-2.29-11.21-.52-6-3.21-5.64S12.54,143,11,149.26c-4.88,1.32-6,2.11-5.55,6.64-2.49,1.95-4.15,4.47-3.12,9.12-1.8,2.18-2.27,4.73-.06,7.53-.44,2.6-.41,5.68,3.6,7,1.34,6.39,4.8,7.34,9.58,10.13s5.14,10.71,6.92,14.78c4.72,7.21,12.94,3.45,12.94,3.45s7.84-6.17,13.41-9.59,19.63-2.93,27.34-3.86,16.85-4.5,16.85-4.5a25.59,25.59,0,0,0-3.28,9.21c-.58,4.86,1.07,6.72,4.14,12.43ZM71.9,91.1h0s2.44,3.64,5.21,4.19c5-.86,10.68-1.32,10.68,3.25,0,3.88-1.79,4.2-1.79,4.2s4,2.09,3.79,5.57c-1.44,2.62-1.08,3.09-1.08,3.09a3.77,3.77,0,0,1,.91,4.34c-1.21,2.43-.7,3-.7,3s1.38,3.12.36,4.26-4.79,3.31-10-1.15c-3.77-1.39-5.21-4.71-5.67-7.64-3.72-3.15-4.57-7.47-4-12.51C67.8,97.74,67.4,91.8,71.9,91.1Z"/><path class="cls-5" d="M176.47,60.44l-.41.76s3.11,3.76,12.53,2.71c-1,3.89-6.7,7.66-12.22,10.47a44.94,44.94,0,0,0,9.82-1.91c7.77-2.34,16.51-9,21.31-13-3.7-3.36-3-11.68-3-11.68l-2-.2a55.24,55.24,0,0,1-6.4,8.23s-6.34,4.05-11.37,5a17.75,17.75,0,0,1-8.29-.38Zm33.92-24.67h0a4.87,4.87,0,0,1,1.9,1.52c.4,1.09-.34,5.94-2.51,7.65s-5,4.25-7.48,1.78c-2.27-2.24-2.45-3.43.56-6.94l3.28-3.06Z"/><path class="cls-6" d="M125,177.5c1.53,7.94,6.93,8.46-4.26,15.6,0,0-1.08-1.66-2.09-1.4S115,190,115,190c4.73-5.82,10-12.53,10-12.53ZM92.74,190.16h0a19.54,19.54,0,0,1,6.39,6c2.23,3.66-6.79,4.82-3,17.5-.89-.88-1.73-1.67-2.52-2.36-3-5.48-4.54-7.36-4-12.13a25.29,25.29,0,0,1,3.14-9ZM115,190h0a10.22,10.22,0,0,0-1.53-4.66L115,190Zm-1.53-4.67h0L111,183.87a3.79,3.79,0,0,1,2.45,1.49Zm-5.23-5h0c-3.74-1.77-8.31,2.78-8.79,5.93a14.84,14.84,0,0,1,1.86-6.93C100,174.68,92,180.61,93,185.24c-.36-5.28-1.61-6.47.39-8.32a14.56,14.56,0,0,1,7.72-3.49l.1.24a7.37,7.37,0,0,1,3.11,4.76S106.84,177.25,108.23,180.35Z"/><path class="cls-5" d="M96.18,108.39l.3,12a12.63,12.63,0,0,0,6.3-9.14c9.24-3.6,24.1-8.74,24.1-8.74s7-3,8.45-4.74c.86-1,3.69-2.86,6.41-4.55h0l.07,0,.09-.06.06,0,0,0,.09-.06.09-.05h0l.09,0,.09-.06,0,0,.05,0,.09-.06.07,0,0,0,.09,0,.09-.06h0l.08,0,.09,0,.05,0,0,0,.09,0,.08-.05h0l.08-.06.09-.05h0l.07,0,.09-.05.05,0,0,0,.09,0,.07,0h0l.09,0,.08,0h0l.06,0,.08-.05.06,0,0,0,.08,0,.08,0h0l.09,0,.08-.05h0l.06,0,.08,0,.05,0,0,0,.07,0,.08,0h0l.07-.05.07,0,0,0,0,0,.07,0,.06,0h0l.07,0,.07,0h0l.06,0,.07,0,0,0,0,0,.07,0,.05,0h0l.07,0,.06,0h0l0,0,.06,0,0,0h0l.06,0,.06,0h0l.06,0,.06,0h0l0,0,0,0,0,0h0l.05,0,0,0v-.19h0V89.9h0V89.7h0v-.19h0v-.18h0v-.19h0v-.19h0V88h0v-.41l0-.1v-.31l0-.1v-.41l0-.1V86l0-.1v-.1l0-.1v-.1l0-.1v-.1l0-.1v-.1l0-.09V85l0-.1v-.09l0-.1v-.09l0-.1V84.3l0-.06v0l0-.09,0-.07v0l0-.09c.42-2,.86-3.43.86-3.43a24.59,24.59,0,0,1,4-8.81l-.45-.31a27.74,27.74,0,0,0-9.22,14.23c-6.57,1.79-10.87.92-10.87.92s2.93,4.32-9.63,9.34-15.48-.48-15.48-.48.14,6.94-4,10.37a11.81,11.81,0,0,1-6.5,2.62ZM80.29,122.63h0s5.88-1.9,3.78-8.51c3.91-5,.14-11.47.14-11.47l4.91,3a4.54,4.54,0,0,1,.67,2.66c-1.44,2.62-1.08,3.09-1.08,3.09a3.77,3.77,0,0,1,.91,4.34c-1.21,2.43-.7,3-.7,3s1.38,3.12.36,4.26S85,126,80.29,122.63Z"/><path class="cls-6" d="M152.75,71.18a20.85,20.85,0,0,1,3.67-3.53,91.55,91.55,0,0,1,7.6-5.2s-13.55-.45-22,3.32-19.71,9.94-22.91,13.71c-3,.74-10.17.91-13.77,3.14s-9.26,6.15-9.26,6.15l-.61,2.6s2.92,2.13,3.31,5.2S106.61,93.1,104,92c1.69-3,17-9.8,25.84-7.16a8.87,8.87,0,0,0-4.87-3s17-11.74,27.83-10.7Zm-7.6,45.33h0s2.44,1.07,3.89-.57a5.41,5.41,0,0,0,1.38-3.45l-1.82-2.7a5.26,5.26,0,0,1,3.52,5.78c-.66,4.62-8.14,5-8.41.61-.12-1.85,1.44.33,1.44.33Zm-9.06-9.66h0a28.79,28.79,0,0,0-7.71,14.34c-4.32.88-7.63,2.36-9.3,4h0a89.14,89.14,0,0,1,4.82-12.77,34.89,34.89,0,0,1,12.23-5.6ZM76.13,95h0c-1.74,1.87-3.22,4.7-1.34,7.89a19.1,19.1,0,0,0,1.64,2.34l-6.74-3.5c-1.89-4-2.29-9.9,2.21-10.6A12.42,12.42,0,0,0,76.13,95Zm-6.44,6.73h0c-.62,5,.23,9.36,4,12.51a10.2,10.2,0,0,0,2.85,5.91l0-5.37a12.66,12.66,0,0,1-1.3-5.79C70.36,107.72,69.69,101.7,69.69,101.7Z"/><path class="cls-6" d="M179.85,20.58s-3.21.79-3.5,3.13c-3.36,2.2-6.63,6.37-5.95,11.6a6.18,6.18,0,0,1-3.28-6.13,10.22,10.22,0,0,1,4.22-5.71s-.4-1.83,1.72-3.83,5.31-3.93,9.28-2.9c-.68-.14-5.16,1.11-2.49,3.84Zm-47,59.32h0A1.09,1.09,0,1,1,131.74,81a1.09,1.09,0,0,1,1.09-1.09Zm6.75-7.19h0A2.22,2.22,0,1,1,137,74.89a2.42,2.42,0,0,1,2.61-2.18Zm83.16,23.1h0a.55.55,0,0,1,.55.55.55.55,0,0,1-1.09,0,.55.55,0,0,1,.54-.55Zm1.86-7.63h0a1.09,1.09,0,1,1-1.09,1.09,1.09,1.09,0,0,1,1.09-1.09Zm-.66-12h0a2,2,0,0,0-.85.18c.22-4.71-.47-9.22-3.25-13.33a10.83,10.83,0,0,0-12.66,6.7c-1.82,4.7-2.52,13.76,1.08,22.13,2.83,6.6,9.44,14.65,13.74,19.39-4.82-9.27-.88-20.05.62-30.27a2.27,2.27,0,0,0,1.32.44,2.63,2.63,0,0,0,0-5.24Zm-36.13,88.88h0s-3.57.71-3.83-4.82,1.43-11.61,1.93-13.89,1.19-1.83,1.19-1.83-4.46-1.6-3.21-4.45c3.87-2.49,11-6.59,14.06-9.38A95.58,95.58,0,0,1,222,115.47a41.24,41.24,0,0,0,5.51-1.83c9.92-3.92,16.17-1.69,14.06-.67-8,3.84-21.69,9.75-32.76,17.61-9.42-2.18-18.38,16.62-21.25,24.57-2.69,7.47.21,9.92.21,9.92ZM82.56,156.26h0C92.91,172,46.14,189.58,34,178.24,27.72,172.39,23.58,157,23.58,157h0a6.94,6.94,0,0,0,.41.71c1.78,2.71,4.92,9.13,8,11.13s7.87,5.41,11.35,5.72,20.92-6.3,26.06-9.5,10.07-6.67,13.17-8.82Zm-69.19,20h0c-2.06,2.18,8.4-16.38,3.45-21.58-4.17-4.38-9.57,14-3.45,21.58Zm1.31-22.72h0a6.12,6.12,0,0,0-1.77.94l-1.49-2.66s-4.08,2.19-2.57,8c-.3.51-.59,1-.88,1.53-2.37-.15-4,3.06-2.87,6.13-.07.19-.13.38-.19.57L2,165.43c.1-.14.21-.28.32-.41-1-4.65.63-7.17,3.12-9.12-.43-4.53.67-5.32,5.55-6.64,1.57-6.27,4.83-8,7.52-8.38a2,2,0,0,1,2.21,1c-3.2,3.22-6.25,7.59-6,11.66ZM174.29,39h0a4.55,4.55,0,0,1-.35-2.95c.35-2.44,3.87,1,6.7-5.29,1.28-2.85,2.28-6.07,1.73-7.19-1.08,2.43-3.75,4.36-6,6.2C173.67,32,170.23,34.56,174.29,39Z"/><path class="cls-5" d="M202.74,20.09c-4.92,6.31.26,15.36-13.61,20.12a11.72,11.72,0,0,0,3.46,1.14c1.43-.06,5-1.49,7.71-4.52,4.68-8.28,4-5.13,4-5.13A10.73,10.73,0,0,1,205.66,28c1-1.3-.4-4-.4-4l-2.52-3.94Zm-18.53,20h0s-1-2.56-6.4-3.51-4.4,2.13-4.4,2.13,5.26,3.46,10.8,1.38ZM168,110.54h0s7,5.84,2.27,17.76A134.43,134.43,0,0,1,187,138.12l6.44-4.65a69,69,0,0,0-11.83-13.89,70.52,70.52,0,0,0-13.65-9Zm-74.23,101h0s5.3,15,12.77,17.88c7.23-10.54,10.35-14.19,13.21-23.12-1.07-1.7-.72-2.41-.72-2.41a6.2,6.2,0,0,0,3.22-4.46c.75-3.44-.27-5.09-.27-5.09s3.11.92,2.86,5.36a15.8,15.8,0,0,1-1.7,4.9l-2.32,9.47s11.33-3.22,18.92-11.7,6.34-13.12,6-13.74-6.07-8.48-19.72-9.82a11.51,11.51,0,0,1-.53-2.37c.83-1.49,3.1-4,8.85-3.1,8.06,1.22,17.63,8.07,21.77,15.35a16.87,16.87,0,0,1,1.86,3.71s-5.08,3-5.21,5.71a16.69,16.69,0,0,1-1.43,5.43s-4.07,5.78-9.57,8.57-14.85,7.42-20,12.21S111.51,235.19,109.87,237s-6.57,5.29-9.92,4.86-10.59-1.09-10.28-10.14,2.92-14,2.92-14l1.15-6.14ZM92.6,190.4h0a40.06,40.06,0,0,1,4.13-1.33s-6-3.15-4.11-9.11,5-6.48,7-6.24c1.39.16,1.25-.75,1-1.31C93.22,156,84.73,154.73,84.73,154.73a25.85,25.85,0,0,1-2.17,1.53c4.06,3.77,6.29,8.61,6,16.29s-12,14.29-20.39,14.64-15.64,4.94-18.73,3.21-8.83-2-9.2,3.07-3.46,9.25-10.6,9.2-7.48-7.73-5.13-12.58c-4.35-1.23-6.58.59-11.18-5.69s-2.77-14.54-2.77-14.54L9.79,166s1.09-6.61,3.44-8.8a17.82,17.82,0,0,1,5.2-3.28s-4.28-3-8.5,4.08C6,164.62,3.24,169.36,3.72,178.42a6.47,6.47,0,0,0,2.12,1.09c1.34,6.39,4.8,7.34,9.58,10.13s5.14,10.71,6.92,14.78c4.72,7.21,12.94,3.45,12.94,3.45s7.84-6.17,13.41-9.59,19.63-2.93,27.34-3.86,16.85-4.5,16.85-4.5l-.28.48ZM3.36,178.1h0l-.18-.2.18.2Zm-.26-.29h0c-.09-.11-.16-.21-.23-.31.07.1.14.2.23.31ZM2.59,177h0a2.56,2.56,0,0,1-.11-.24,2.56,2.56,0,0,0,.11.24Zm-.36-1h0a.85.85,0,0,1,0-.17.85.85,0,0,0,0,.17ZM186.45,38.92h0l-.11-.05-1-1.81c-1.77-3.34-6-.34-4.39-1.87,3-2.9,2.95-10,7.1-12.14l2-1.07s3.85-.19,5.58,2.28,1.23,6.22-1.51,7.73a9.26,9.26,0,0,0-6.67-3.48C185.32,31.55,185.45,35.5,186.45,38.92Z"/><path class="cls-7" d="M192.36,7.14a2.08,2.08,0,0,1,0-.31l5.09,3.92,3.86,3.86,2.87,2.5a32.88,32.88,0,0,0,.63,5.94,10.28,10.28,0,0,0-5.07-4.1c-3.2-1.16-8.18-3.1-10.12-2.89A45.84,45.84,0,0,0,183,17.94s-.47-2.58-5.3-1.09c-.72-4.69-.14-7.33.92-8.55s3.56-1.76,3.56-1.76,2.69-4.27,5.68-5.09a9.21,9.21,0,0,0,2.54,3.87h0c.81.83,1.59,1.49,2,1.82Zm19.79,30.31a2.58,2.58,0,0,0-1.39-1.54,1.8,1.8,0,0,1,1.39,1.54Zm-3.47-1.84a9.78,9.78,0,0,0-2.94.82s-5.81,4-4.63,8.92A4.15,4.15,0,0,1,202.24,48s-3.62,7.37-9.94,9.94-11.46,4.12-19.83,1-10-13.56-10.06-14.61-.88-4.85.05-7.72a29.81,29.81,0,0,1,3.75-6.61s0,3.92,2.24,4.71a14,14,0,0,0,3.94.83,6.73,6.73,0,0,0,5.38,5.23,9.09,9.09,0,0,0,8.07-2.21S189.77,42,194.06,41s6.46-4.79,7.74-6.76,4.48-6.67,3.93-9c0-.14-.07-.27-.11-.41,1.32,1.2,2.35,1.52,2.45,2a31.08,31.08,0,0,1,.52,3.7C208.59,31.45,208.68,35.61,208.68,35.61Z"/><path class="cls-8" d="M187.85,1.45c-1.25,1.08-5,7.57-4.06,16.21l-.8.28s-.47-2.58-5.3-1.09c-.72-4.69-.14-7.33.92-8.55s3.56-1.76,3.56-1.76,2.7-4.27,5.68-5.09ZM185.1,60.31h0A22.36,22.36,0,0,1,172.47,59c-8.37-3.09-10-13.56-10.06-14.61s-.88-4.85.05-7.72a22.49,22.49,0,0,1,2.37-4.6l2,1.09a3,3,0,0,0,1.58,1.61,14.86,14.86,0,0,0,2.7.69l.27.15C165.56,49.3,174,57.25,185.1,60.31Z"/><path class="cls-5" d="M219.82,63a16.26,16.26,0,0,1,4.59,1.88c9.08,5.29,17.85,15.89,23.48,26.51s13.54,24.7,12.41,29.19-9.64,8.65-15.71,12.14-28.93,9.9-28.93,9.9a131.66,131.66,0,0,1-5.53,12.14c-.89,3.75-2.44,10-6.07,10.54a9.38,9.38,0,0,1-1.69.11c4.38-5.8,8.82-26.19,13.12-28.43,13.84-3.06,31.44-10.94,34.23-14.25C256.33,114.91,227.46,66.6,219.82,63Z"/><path class="cls-9" d="M86.74,148.48s24.58-17.07,25.65-17.93,6.28-4.22,6.28-4.22l.07,1.72,9-1s-5.21,4.36-4.42,6.93a3.71,3.71,0,0,0,3.57,2.5l5.78-2.22s-2.43,8.65-1.35,10.65,3.28,2.07,4,0,1.28-14.07,1.28-14.07l1.22-.93,1.43,4.71s-.5,5.64,2.28,9.07,3.64,3.5,4.29,2a14.18,14.18,0,0,0,.85-3.43l-2.85-5.35s4.07,1.71,7.07-.86,3.36-5.07,3.36-5.07,10.14,2.21,18,6.43S186.36,145,186.36,145a38.8,38.8,0,0,0-2.25,10.87c-.36,6.16.23,8.1,1.57,8.64a7.76,7.76,0,0,1,2.55,2.1s-2.12,6.92-2.7,9.92-1.42,6.79-1.42,6.79-5.63,4-8,6.17-5.32,5.55-5.72,6-4.69,4.23-4.69,4.23,1.78-5.32.75-10.18a26.14,26.14,0,0,0-5.09-10.45c-1.31-1.6-5.14-6.06-8.51-7.15s-7.89-3.54-9.95-3.71-11.68-2.34-16.11,2.17-3.66,5.31-3.66,5.31-6.17,4-7.14,4.52-4.8,2.23-4.8,2.23a44.42,44.42,0,0,0-3.43-13.15,56.52,56.52,0,0,0-7.49-12.23c-.8-1.08-5.49-6.23-7.89-6.91s-7.08-.06-7.08-.06Z"/><path class="cls-10" d="M169,135.8c1.12.5,2.23,1,3.3,1.61,5.07,2.72,9.47,5.09,11.95,6.44a13.76,13.76,0,0,0,2.16,1.17s-.39,1-.85,2.64h0a40.65,40.65,0,0,0-1.39,8.22,43.62,43.62,0,0,0-.07,4.59h0c-.15,4.44,1.71,4.94,2.87,4.82a9.63,9.63,0,0,1,1.32,1.33s-2.12,6.92-2.7,9.92-1.42,6.79-1.42,6.79-5.63,4-8,6.17-5.32,5.55-5.72,6-4.69,4.23-4.69,4.23,1.78-5.32.75-10.18a24.26,24.26,0,0,0-2.28-6.14c6.24-4.1,10.55-8.84,11.56-14.28,5.17-27.65-6.65-32-6.65-32L169,135.8Zm-40.88,33.55h0a7.15,7.15,0,0,0-1.25,1,30.22,30.22,0,0,0-2.66,3h0c-1.4,1.88-1,2.29-1,2.29s-6.17,4-7.14,4.52-4.8,2.23-4.8,2.23a44.59,44.59,0,0,0-3.09-12.34,57,57,0,0,0,15.53-9.78s5.53,5.81,18.52-2c-7.34,5.69-12.71,9.56-12.71,9.56Z"/><path class="cls-11" d="M86.74,148.48s24.58-17.07,25.65-17.93,6.28-4.22,6.28-4.22l.07,1.72,7.24-.8c-.46.89-1,1.94-1.44,3.17-.89,1.21-1.53,2.52-1.23,3.55a54.36,54.36,0,0,0-2,18.42,97.5,97.5,0,0,1-2.68-9.47s-9.86,8.22-17.91,14.72l-.45-.59c-.8-1.08-5.49-6.23-7.89-6.91s-7.08-.06-7.08-.06l1.41-1.6Zm64.66,22.9h0c-3.11-1.2-6.7-3-8.47-3.18s-8.78-1.69-13.62.48l24.21-20.31s7.85,6.09-2.12,23Zm-26.25.78Z"/><path class="cls-12" d="M102.69,149.52l.31-2.87,5.26.49s2.3-.14,2.39-.71-.22-5.75-.22-5.75l5.48.23-.07,6.09a31.1,31.1,0,0,0,3.38-.92c.31-.22,3-3,3-3l.58,3.23.92,1.48c1.75,5.11-4.34,1-7.24,5.73a13.87,13.87,0,0,1,3.79,5.71c.23.64,1.39,1.22-.22,2s-4.77,2.23-4.77,2.23l-2.25.93-.66-8.26-2.79,4.73s-5.79-2.57-5-3.54,4.73-4.64,4.73-4.64l-4.6.49L102.6,153l.09-3.49Zm66.17,29.61h0l4.36-3.85,3.47,4.84,1.14-7.4,5.6.9-3.28,6.31-.28,1.14,4.6.57-.36,1.7-5.17,3.84-4.85,4.35,1.78-3.06-7.77,1.21,1.56-4.62,4.46-.24-5.26-5.69Zm-1.92-24.91h0l3.45,4.71,5.66-2.28-1.14,7.71,5.92-2.77-1.69-6.05,5.12-1.41.15-1.76-8-1,.09-6.79s-4.67,1.44-6.11,4a51.18,51.18,0,0,1,4.17,5.05s-5.36-.49-7.66.53Zm-22.4,14.36h0l2.58-7,7.7,1.1L153,157.9l9.38-.38-2.54,4.71s8-.53,8-.3-1.67,6.3-1.67,6.3l-7.29-.15s5.09,4,4.86,4.18-8.2,1.89-8.2,1.89-3.53-1.37-3.34-1.89l1.82-5.43-9.45,1.75Zm3-31.15h0a29,29,0,0,0,6.05-3.35l3.7,1.22s.47-3.43.61-3.92,3,1.1,3,1.1l5.53,2.26-4.71,2.15,6.69,4.82L163,146.07l-3.71-5.68-1,8.44-8.67-3,5.82-7.26-7.89-1.14Zm-11,12.82h0l7.13.89s-2.82,4.8-2.38,5.36,2.27.71,2.27.71l-5,4.2s-6.14,1.36-6.83.46-.85-5-.85-5,.5-.83,2.1-.61,3.76.55,3.76.55a11.54,11.54,0,0,0,0-2.15c-.11-1.22-.17-4.37-.17-4.37Zm-14.13,24.63h0a82,82,0,0,0-8.44,1.68,30.69,30.69,0,0,1,.77-5.91l4.78,1.39-.52-6.81,5.19.49-1.69,5.43s-.29.76.17.74C122.75,171.88,124.55,174.87,122.38,174.88Z"/><path class="cls-13" d="M184.27,154.05c-.07.6-.12,1.22-.16,1.84l-5-.35,1.69,6.05-4.21,2a52.49,52.49,0,0,0,.18-12.18l7.75-.69-.28,3.36Zm-.16,29.29h0s-2.72,1.93-5.17,3.84h0c-1.07.84-2.09,1.67-2.8,2.33s-1.37,1.31-2,2l1-1.82-7,0,1.56-4.62,4.46-.24-4.89-5.29a26.15,26.15,0,0,0,3.53-3.84l.46-.41,3.47,4.84,1.14-7.4,5.6.9-3.28,6.31-.28,1.14,5-1.12h0l-.73,3.37h0Zm-7.63-34.1h0a26.88,26.88,0,0,0-1.11-4.19,12.1,12.1,0,0,1,1.17-.43l-.06,4.62Zm-53,25.13h0c-.09.15-.15.28-.21.4a2.69,2.69,0,0,1-2.12,1.68s-1.14-1.32-7.24.11a30.69,30.69,0,0,1,.77-5.91l4.78,1.39-.52-6.81,5.19.49-1.69,5.43s-.29.76.17.74a7.25,7.25,0,0,1,1.61.33,11,11,0,0,1-.74,2.15Zm9.09-12.2h0a28,28,0,0,0,9.58-3.83l-4.12,3.17A27.2,27.2,0,0,1,132.6,162.17Z"/><path class="cls-14" d="M102.69,149.52l.31-2.87,5.26.49s2.3-.14,2.39-.71-.22-5.75-.22-5.75l5.48.23,0,4.33c-2.29,1.9-5.74,4.75-9.35,7.71l-1.83.2L102.6,153l.09-3.49Zm16.72-3.61h0c.43-.4,1.39-1.4,2.06-2.1a59.27,59.27,0,0,0-.19,7.05l-.4,0c-.66-2.13-1.14-3.77-1.47-5Zm18.38,15.65h0l5.25-4.41a4.53,4.53,0,0,0,.49.06l-5,4.2-.71.15Zm18.6-3.8h0a27.72,27.72,0,0,1-2.62,9.11l-9.23,1.71,2.58-7,7.7,1.1L153,157.9Z"/><path class="cls-15" d="M152.55,199.49c1-3.37,1.25-4.84,5.37-7.07-2.55-6.62-6.34-10.57-12.61-14.57s-15.59-4.94-17.73-3.17a20.56,20.56,0,0,0-3.69,4.24,4.43,4.43,0,0,1-.13-5c1.62-2.84,5.78-5.41,9-5.92s14.1-.44,20.08,3.87,12.61,8.83,13.65,17.88-2,11.48-2,11.48-2.55,3.2-5.94,3.2a13.58,13.58,0,0,1-6.7-2.35l.7-2.63Zm-16-68.65h0c-.23,4.19-.32,11-.32,11s-.41,4.24-2.91,4.59-2.31-3.7-2.31-3.7l1.49-8s-3.75,2.48-7.25,1.42-1.27-5-1.27-5l3.71-4.13-9,1,.79-3.24s2.12-2.56,8-3.44a101,101,0,0,1,10.35-1s10.73.65,17,2.64,18.87,6.34,22.68,8.7,9.39,6.44,9.39,6.44l-3.12,2-.17,3.51L175,138.86l-14.08-6.38-6.63-1.5s.89,4-4.5,5.46-5.93.47-5.93.47,2.93,4.83,2.85,5.35-1,4.76-1.88,4.36a7.54,7.54,0,0,1-4.61-5.3,34.49,34.49,0,0,1-.72-7.79l-2.86-2.69Zm-35.51,42.59h0s3.16,1.69,3.21,5a4.6,4.6,0,0,1,4.71,5.23c2-.52,2.51-.28,2.51-.28a94,94,0,0,0-3.9-14.46c-2.53-6.67-7.92-13.65-11.41-16.16s-6.82-4.21-9-3.86-6.65,4.45-6.65,4.45a7.56,7.56,0,0,0-1.06,5.06c3.68-2.56,5.24-3.66,5.24-3.66A20.31,20.31,0,0,1,95.25,163C99.17,169.38,101.09,173.43,101.09,173.43Z"/><path class="cls-16" d="M146.56,178.67l-1.25-.82c-6.27-4-15.59-4.94-17.73-3.17a20.56,20.56,0,0,0-3.69,4.24,4.43,4.43,0,0,1-.13-5c1.62-2.84,5.78-5.41,9-5.92,3.08-.48,12.89-.44,19,3.18A44.47,44.47,0,0,1,146.56,178.67Z"/><path class="cls-16" d="M128.7,121.21c-.42,2.29-.89,5-1,5.84l-9,1,.79-3.24s2.12-2.56,8-3.44l1.14-.16Zm-1,5.84h0l-1,1.16c.63-.48,1-.88,1-1.16ZM96,152.59h0l-6.23,4.69a19.17,19.17,0,0,0-5-2.55s-1.56,1.1-5.24,3.66a7.56,7.56,0,0,1,1.06-5.06s4.45-4.09,6.65-4.45S92.57,150.17,96,152.59Z"/><path class="cls-17" d="M152.55,199.49c1-3.37,1.25-4.84,5.37-7.07a32.28,32.28,0,0,0-1.46-3.24,74.48,74.48,0,0,0,8.2-5.67,18,18,0,0,1,1.87,6.28c1,9-2,11.48-2,11.48s-2.55,3.2-5.94,3.2a13.58,13.58,0,0,1-6.7-2.35l.7-2.63Zm-51.73-26.61h0a59.63,59.63,0,0,0,7.31-2.55,96.16,96.16,0,0,1,3.39,13s-.53-.24-2.51.28a4.6,4.6,0,0,0-4.71-5.23c0-3.29-3.21-5-3.21-5Z"/><path class="cls-17" d="M141.22,124.69c-.09,3.34,4,7.68,5.41,7.49s1.66-3.75.28-5.09-3-2.66-5.69-2.4Zm29.57,3.87h0a17.22,17.22,0,0,1-4.38,6.43l8.55,3.87,8.76,4.73.17-3.51,3.12-2s-5.57-4.09-9.39-6.44a49,49,0,0,0-6.83-3.12Zm-37.14,17.81h0l1.1-13.09L132.32,136l.23-1.21s-3.75,2.48-7.25,1.42a2.5,2.5,0,0,1-1.86-1.7s2.17.86,6.22-1.35,6.77-9.09,6.77-9.09l1.39,5.89-1,1.11-.2-.18c-.23,4.19-.32,11-.32,11s-.38,3.92-2.63,4.53Zm5.87-9.94h0a45.7,45.7,0,0,1,6.63,8,18.77,18.77,0,0,0,.52-2.14c.08-.52-2.85-5.35-2.85-5.35a.43.43,0,0,0,.18.14,10.6,10.6,0,0,0-4.54-2.47c0,.49,0,1.13.06,1.85Zm6.12.8h0c-1-.83-1.95-1.51-1.95-1.51s5.54.73,7.48-3.45-7-10.47-7-10.47,8.59,3.76,10.77,9.33l-.65-.15s.89,4-4.5,5.46A20.32,20.32,0,0,1,145.64,137.23Z"/><path class="cls-12" d="M193.45,133.47c-5.41-9.34-12.94-16.3-23.92-22.15s-21.65-7.28-31.94-4.83-13.73,6-13.73,6a52.91,52.91,0,0,1,12.77-15.77c8.18-6.52,10.13-6.4,10.13-6.4a27.09,27.09,0,0,1,3.16-14.38c3.9-6.88,8.35-10.89,12.29-12.31s7.07-2.4,7.07-2.4-3.65,7-1.33,10.38,8.52,3.36,13.38,2.13,12.1-3.67,18-8,7.75-5.86,7.75-5.86l7.49,3.25s-7.22.16-8.71,12.71,7.72,25.09,8.15,25.68,4.43,5.67,4.43,5.67L214.87,119C208.83,122.58,196.39,132,193.45,133.47Z"/><path class="cls-18" d="M134.93,107.19c-8.23,2.37-11.07,5.26-11.07,5.26a52.91,52.91,0,0,1,12.77-15.77c8.18-6.52,10.13-6.4,10.13-6.4a27.09,27.09,0,0,1,3.16-14.38c3.9-6.88,8.35-10.89,12.29-12.31,1.25-.45,2.42-.86,3.43-1.2-5.09,4.42-13.27,19.33-6.36,27.41C151,88.54,139.5,100.39,134.93,107.19Z"/><path class="cls-19" d="M193.45,133.47c-1.07-1.83-4.1-5.87-5.33-7.53C210.76,92,162.59,89.71,162.53,89.52c-.3-1,7.57-2.92,10.36-1.23,10.88,6.62,30.87,5.51,31.62-10.52,0-.28.51-.67,1.25-1.09-1,12.23,7.81,24.21,8.23,24.78s4.43,5.67,4.43,5.67L214.87,119C208.83,122.58,196.39,132,193.45,133.47Z"/><path class="cls-20" d="M69.74,66.88c5-2,10-6.23,11.87-10.61-8.9-1.26-18.17-2.81-18.17-2.81l-9.2,14.68S58.78,70.08,69.74,66.88Z"/><path class="cls-21" d="M69.74,66.88c5-2,10-6.23,11.87-10.61-7.51-1.06-15.28-2.33-17.53-2.71,2.8,2.83,8.47,9.61,3.26,14C68.11,67.34,68.9,67.13,69.74,66.88Z"/><path class="cls-22" d="M72.92,87.31c3.51-1.17,15.52-2.85,22.3-.66a37.41,37.41,0,0,0,.25,4.72l-3.9,5.49s-3.28,3-1.95,5,5.95,1.87,5.95,1.87l1,18.41s-2.71,1.34-5.63,2.49-3.22.15-3.22.15,2.46-1.77,1.81-3.9a13.32,13.32,0,0,1-.67-3.27s2.19-2.14,1-4.16a5.7,5.7,0,0,1-1.08-3l1-2.47s-.51-2.49-1.54-3.44a10,10,0,0,1-1.69-2.06s2.53-2.18,1.19-4.48a6.19,6.19,0,0,0-6.59-3.19c-3.15.37-4.51.4-4.51.4s-3.65-1-4.22-3.34A7.48,7.48,0,0,1,72.92,87.31Z"/><path class="cls-2" d="M72.63,81.26c.15-1.46,2-2.78,3.88-3.36s11.7-1.39,11.7-1.39l1.53.22,8.63-15.87,1.68-3.73,15.8-1.76s3.07,2.2,1.68,5.49c-7,1-15.06,2.56-15.06,2.56l-9,16.16s1.76.59,1.76,1,0,6,0,6a24,24,0,0,0-11.18-1c-5.71,1-11.12,1.66-11.12,1.66Z"/><path class="cls-12" d="M219.63,142s2.35-1.2,2.61-2.29A11.36,11.36,0,0,0,221,131c1.57-2.71.38-4.71-1-5.41a19.48,19.48,0,0,0-7.8-1.76,13.85,13.85,0,0,0-4.55-.51l-7.27,5.29L198.72,130s5.91-.64,6.77-.1,2.57,2,2.57,2a11.25,11.25,0,0,0,3.52,1.76A24.49,24.49,0,0,0,215,134a12,12,0,0,1,1,4.3c-.15,1.58-.22,3.84-.22,3.84S217.7,142.08,219.63,142Z"/><path class="cls-2" d="M214.78,130.29c2.17-.44,3.57-1.52,3.19-2.73s-2-2.82-5.22-2.17-4,2.23-3,3.44S214.78,130.29,214.78,130.29Z"/><path class="cls-23" d="M171.12,21.49c1.52-1.92,5.59-4.41,5.59-4.41s.07-2.7.06-3-.34-3.73.76-5a11.62,11.62,0,0,1,3.33-2.25l2.76-2.8L184.35,2s-7.22.76-10.79,4.65a13.29,13.29,0,0,0-3.45,8.6s.16,4.48,1,6.27ZM196,2.76c4.07,1.77,9.54,5.42,11.73,8.71s5.89,9,6.68,12.3,2.19,8.4,1.72,11.42-1,6.83-1.83,8.34S213.19,47,210,48.38s-6.11,3.07-6.11,3.07l-.06-2.8s4.17-1.35,5.67-3.89,2.59-5,2.26-6.33S210,35.66,209,35.7s-1-.4-1-.77-1.11-8.53-1.11-8.53l-2.76-3.23-.84-6.12a62.47,62.47,0,0,0-5.28-4.94c-1.86-1.37-5.26-4.24-7.39-5.81a12.75,12.75,0,0,1-3.44-4.73S191.13,2.08,196,2.76Z"/><path class="cls-24" d="M203.84,48.65l.06,2.8s2.92-1.66,6.11-3.07,3.44-3.33,4.27-4.85,1.36-5.31,1.83-8.34c.38-2.48-.49-6.31-1.25-9.45a31.87,31.87,0,0,1-11.32-8.51l-.16.2.79,5.74,2.76,3.23s1.1,8.16,1.11,8.53,0,.81,1,.77,2.41,1.45,2.74,2.73-.77,3.78-2.26,6.33S203.84,48.65,203.84,48.65Z"/><path class="cls-25" d="M201.77,2.08c2.5.31,11.36,1.67,14.44,5.89s6,11.58,5.95,14.24.78,3.86-.63,5.37S217,33.63,217,33.63a19.85,19.85,0,0,0-1-4.85c-.68-1.28-2.12-10-7.14-15.65s-8.54-8.11-9-8.39-3.82-2-3.82-2Z"/><path class="cls-23" d="M222.16,22.21c0-1.88-1.42-6.11-3.36-9.92.36,1.35.09,4.29-5.1,9.47,1.28,3.41,1.88,6.32,2.25,7a19.85,19.85,0,0,1,1,4.85s3.13-4.54,4.54-6.05S222.1,24.87,222.16,22.21Z"/><path class="cls-26" d="M170.66,159.54c2-.68,3.51-1.28,4.46-1.7l-1,6.28a.73.73,0,0,0,.61.83.77.77,0,0,0,.4,0l5.86-2.57a.73.73,0,0,0,.43-.8l-2.27-6,.73,5.69-4.11,1.8,1-6.29a.71.71,0,0,0-.07-.51.74.74,0,0,0-1-.28,36.23,36.23,0,0,1-5.11,2.08c-.29-.34-.69-.86-1.11-1.42-.94-1.24-1.43-1.9-1.59-2.16-.41-.66,4.93-.25,6.27,0a.74.74,0,0,0,.7-.08.72.72,0,0,0,.18-1,41.25,41.25,0,0,0-3.89-4.76,8,8,0,0,1,4.76-3l.54,5.77.84-6.66a.74.74,0,0,0-.77-.66,9.43,9.43,0,0,0-6.93,4.24.72.72,0,0,0,.13.94,31.14,31.14,0,0,1,3.28,3.79c-2.59,0-7.64.18-6.88,1.4.18.28,1.23,1.76,2.19,3,.64.84,1.23,1.59,1.54,1.9a.73.73,0,0,0,.81.15Zm39-27.28a9.27,9.27,0,0,0,5.47.84l.09-.08.05,0a4.55,4.55,0,0,0,1.06-.3,1.85,1.85,0,0,1-.67.84,9.08,9.08,0,0,1,.87,1.77l3.2-.65a8.74,8.74,0,0,1-2.9,1.66,11,11,0,0,1,.31,2.07,15.53,15.53,0,0,0,2.09-.3,11.22,11.22,0,0,1-2.08,1.31,13.2,13.2,0,0,1-.21,2.07h0c1.46-.4,2.87-.8,4.23-1.19a15,15,0,0,0,.53-2.19,10.1,10.1,0,0,0-.23-4.58,7,7,0,0,0-.93-2,3.43,3.43,0,0,1-1.78.42c1.1-.94,2.75-1.89,2.51-3.58-.42-2.92-5.27-4.33-7.63-4.2a12.39,12.39,0,0,0-1.48.16h0a11,11,0,0,0-3.5,1.21c-.73.41-1.43.62-.44-.16a10.2,10.2,0,0,1,2.47-1.44,6.22,6.22,0,0,0-2.81.35l0,0c-1.92,1.2-3.84,2.5-5.72,3.89h0l-.89.66h.09l-.22.19a12.62,12.62,0,0,1,2.54-.15,3.58,3.58,0,0,1,2-1.47,6.89,6.89,0,0,0-1,1.55,13,13,0,0,1,1.56.31,3.06,3.06,0,0,1,1.31-2.53c-.52,2.4-.53,4.18,2.19,5.46Zm4.29,1.94c4,4.65-1.64,16-4.52,20l-.14.2-.05.23a21.53,21.53,0,0,1-2.76,7c-1.2,1.9-1.65,3-3.84,2.34.78-3.3,2.24-7.29,1.82-10.11-.63,1.56-5.24,14.53-7.91,12.22-1.52-1.31,1.66-10.58.58-12.84l-1.59,4.72c-.85,2.51-1.86,9.06-5.62,8.31-1.29-.26-.39-6.3-.18-7.41.38-2,1.29-5.48.2-6.56a91.3,91.3,0,0,0-3.39,11.68,2.65,2.65,0,0,1-1.62-2.75,61.09,61.09,0,0,1,.55-7,54.68,54.68,0,0,1,1.18-6.88c1.21-3.33,5.4-5.9,6.91-10.61,0,0-4.67,3.7-6.53,6.2l-.22,0a3.24,3.24,0,0,1-1.49-.72h0a1.93,1.93,0,0,1-.69-1.21v0c7-3.79,9-6.85,12.6-8.63h0a9.3,9.3,0,0,1,9.36-1.09,5.19,5.19,0,0,0,2.47,2.35,10.66,10.66,0,0,0,4.88.68Zm-.19-8.29-.24,1.38-3.26.36c.33-.87,2-1.67,3.5-1.74Zm-3.54,2.23,4.1-.27,0-2c2.31.13,2.85,1.38,2.88,2a.64.64,0,0,1-.19.41c-1.29,1.5-6.49,1.7-6.82-.22Zm6.77-2.66c1.35.68,1.93,1.51,2,2.37a2.26,2.26,0,0,1-.61,1.64,4.51,4.51,0,0,1-1.42,1.06,7.27,7.27,0,0,1-6.54.07,3.3,3.3,0,0,1-1.94-2.53c-.12-2.32,3.45-3.24,5.23-3.3a6.56,6.56,0,0,1,3.3.69Zm-6.55-2.73a120.91,120.91,0,0,1,24.41-10.89c-2-.75-5.37-.11-9.35,1.34-2-2.11-13.75-14.41-17.27-24.1a26.46,26.46,0,0,1-1.43-6.65,26.8,26.8,0,0,1,1.41-11.63c6-15.76,23.39-.79,29.4,6.69s10.53,16.53,14.76,25c6.72,13.54,12.25,18.09-2.11,26.36h0c-5.38,3.1-13.85,6.91-27.11,10.86,1.26-5.12-.55-8.26-1.25-9.23a2.9,2.9,0,0,0,.75-2.28c-.57-4-6-5.25-9.6-4.83a1,1,0,0,1-.38-.15,6.34,6.34,0,0,0-2.23-.53ZM189.8.55h.07c.43,0,.85,0,1.28.08,4.58.23,12.37-.29,17,1C217.84,4.31,224.62,15,224,24.86c-.39,5.68-2.74,3.46-4.7,8.15-2.58,6.17-2.59,13.21-9.12,16.82a19.48,19.48,0,0,1-4.53,1.81l0,.31C212.23,53,218,54.12,223.1,55.18c5.83,1.22,10.79,2.42,15,3.58,6.78,1.85,11.94,3.88,15,7.63s4.05,9.2,2.27,17.69l-2.82,13.44a125.33,125.33,0,0,1,8,18.53h0c1.59,5,.81,6.45.09,7.4a23.09,23.09,0,0,1-5.55,5c1.75,1.9.78,5.32.63,5.81-.17.92-1.71,9.19-4.88,20.43-1.7,6-3.37,10.46-5.85,14.43s-5.75,7.43-10.64,11.54c-2.47,2.08-6.53,5.25-11.23,8.83-.09,1.65-1.08,5.49-6.42,13.18l-.49.72c3.34,1.08,13,4.17,19.13,5.86a17.37,17.37,0,0,1,6.84,3.27,5.07,5.07,0,0,1,1.7,2.69,3.81,3.81,0,0,1-.76,3.09,10.52,10.52,0,0,1-4.21,3l-.06,0C229,225.19,213.48,229.79,198,234l-4.43,1.18A562.58,562.58,0,0,1,158,278.9l-.06.06c-4.74,4.41-9.06,6.57-13.79,7.46s-9.64.5-15.8-.15c-7-.73-27.22-6-47.41-12.59-15.41-5-30.82-10.87-40.28-16.06l0,0-.08-.06a9.72,9.72,0,0,1-1.93-1.91,7,7,0,0,1-1.42-5.19,10.8,10.8,0,0,1,2.28-5.18,20.56,20.56,0,0,1,4-3.94L55.87,232a140.11,140.11,0,0,1-19.14-10l-.16-.1c-6.69-4.12-7.36-9.35-7.29-11.66a9.2,9.2,0,0,1-5.08-2,14.35,14.35,0,0,1-4.54-7c-.19-.59-.35-1.2-.49-1.82-.91-4-2.68-8.52-6.79-10.2a12.89,12.89,0,0,1-7.67-9c-4.59-1.62-4-6.07-3.62-7.63-2.34-3.39-.25-7.33.23-8.14-.06-.19-.11-.38-.16-.57-1-4.06,2.24-7.62,3.25-8.61-.58-3.08.56-5.65,5.67-7a9.7,9.7,0,0,1,6.33-7.95c4.2-1.58,6.45.42,6.64,4.49,0,.81,0,1.66,0,2.53,0,.68,0,1.38,0,2.05a26.35,26.35,0,0,0,.8,5.49c.51,1,4.41,8.46,6.6,11.08a31.38,31.38,0,0,0,6.7,5.28c2.25,1.37,4.39,2.38,5.41,2.29,6.29-.53,20.79-6.24,26.53-9.68,2.42-1.44,4.62-2.84,6.53-4.1-1.17-22.77,2.91-34,3.93-36.38a10.13,10.13,0,0,1-1.18-1l.12-.08a6.38,6.38,0,0,1-2.65-1.58,12.27,12.27,0,0,1-3.26-6.2c-3.4-2.77-4.51-8.09-4.06-12.4,0-.15,0-.31.06-.49a8,8,0,0,1,3.28-12.19l-.14-8.92h0a1.77,1.77,0,0,1,0-.23h0c.06-1,1.09-2,2.81-2.73L69.84,68c-5.15,2.1-10.9,2.88-15.43,1.3-.28-.1-.53-.19-.74-.28l-1.16-.49L62.7,52.26l.74.14L83,55.57l-.42,1.21c-.08.22-.15.42-.22.58-1.57,3.74-5.66,7.3-10.53,9.7l4.78,9.82a38,38,0,0,1,7-1.18h0a38.8,38.8,0,0,1,6-.06l9.72-19.29L116,54.41l.3.15a5.24,5.24,0,0,1,2.37,6.36l-.18.63-.65.14c-4.28.92-12.53,2.19-14.68,2.52L95.67,77.47a1.82,1.82,0,0,1,.52,1.12,1.48,1.48,0,0,1,0,.21l.22,8.35c.84-.62,1.68-1.21,2.53-1.77,7.6-5.08,13.83-6.74,18.69-6.61a92.38,92.38,0,0,1,18.69-11.43l2.61-1.12a69.12,69.12,0,0,1,12.21-3.74A68.43,68.43,0,0,1,155,53.19a9.57,9.57,0,0,1,7.26-5.06l-.19-.5c-2-6.09-1.28-13.74,3.42-18.44a12.78,12.78,0,0,1,4.86-6.5,26.12,26.12,0,0,1-.44-9.42c1.45-9.2,8.61-12.39,17-12.71A10.32,10.32,0,0,1,189.51,0a2,2,0,0,0-.29.54Zm15.76,48.86a17.45,17.45,0,0,0,3.58-1.48c4.13-2.29,5.12-5.49,6.14-10.11,3.14-14.24-9.43-33.86-24.16-35l-1.41-.08h-.06c1.93,3.23,8.53,7.15,9.82,8.66a41.16,41.16,0,0,0,8.9,7.41,7.18,7.18,0,0,1-3.37-.72c.23,4.2,2.9,7,6.38,9.11-1.33.36-1.82.54-2.57.29a33.61,33.61,0,0,1,.71,7.14c6.65.58,3.76,12.26-3.8,14.16l-.16,0v.59ZM182.66,3.2c-5.37,1-9.59,4-10.61,10.41a21.43,21.43,0,0,0-.07,5.67,13,13,0,0,1,4.06-3.2,13,13,0,0,1,.89-6.69A7.5,7.5,0,0,1,181,5.26a10.74,10.74,0,0,1,1.62-2.06ZM199.49,3c9.81,4.39,17.68,17.69,18.39,28.39,1.56-2.9,3.72-2.79,4-6.61.55-8.86-5.56-18.6-14.27-21A36.49,36.49,0,0,0,199.49,3Zm3.42,16.15a11.87,11.87,0,0,1-.09-2.23,25.92,25.92,0,0,1-4.8-4.17c-3-3.33-8.61-4.72-10.79-10-2.33,1.18-7.21,6.54-6.37,9.66a5.23,5.23,0,0,1-1-3.65,6.29,6.29,0,0,0-.94,1.54,10.77,10.77,0,0,0-.73,5.44,6.62,6.62,0,0,1,3.17.27,8.73,8.73,0,0,1-.13-2.79,14,14,0,0,0,2.35,3.38c5.5-3.14,10.66-1,15.53,1.06,1.29.54,2.55,1.07,3.79,1.47Zm4.43,15.74a28.92,28.92,0,0,0-.42-5.62,6.72,6.72,0,0,1-.82-.71,19.11,19.11,0,0,0-.62,6.84,10,10,0,0,1-1.21-3.66C200.81,39,195.05,46.28,185.94,40a3.74,3.74,0,0,1-.57.55c-4,3.24-12.55,1.56-13.8-3.74a6.19,6.19,0,0,1-3.68-.9,4.78,4.78,0,0,1-2-2.77,7,7,0,0,1-.2-.79,14.79,14.79,0,0,0-2.35,6.46h0c-1,7.83,3.33,16.18,10.65,19.33a21.32,21.32,0,0,0,27.42-10.79c-4.35-3.81.85-11.06,5.93-12.52ZM177,172.71h0l-.78,5.89-2.4-3.79-.1-.14a.73.73,0,0,0-1,0l-4.32,4.1a.75.75,0,0,0,0,1l4.12,4.46c-.75.07-1.8.14-3.12.17h0a.73.73,0,0,0-.73.73,20.2,20.2,0,0,1-.38,3.71,5,5,0,0,0-.11.82,7.42,7.42,0,0,0,1.93-3.82,36.17,36.17,0,0,0,4.08-.34.73.73,0,0,0,.6-.84.8.8,0,0,0-.2-.4l-4.37-5.39,2.94-2.57,3.23,4.54c.21.34.45.66.79.44a.72.72,0,0,0,.33-.52l.95-7.15,4.07.6-2.3,5.7,4-6a.66.66,0,0,0,.06-.2.73.73,0,0,0-.62-.83l-5.73-.84a.74.74,0,0,0-.82.63Zm-56.11-29.29h0c-1.72,2-1.69,2.36-4.1,3.4,3.19,0,2.52-.12,4.86-2.36.41,2.36,1,2.83,2,3.32-1.31-4.39.09-7.07-2.76-4.36Zm48-2.12a.73.73,0,0,1-.05,1l-5.15,4.6a.74.74,0,0,1-1-.11l-3.21-3.93-.51,6.25a.41.41,0,0,1,0,.16.72.72,0,0,1-.91.48L149,147a.85.85,0,0,1-.25-.13.73.73,0,0,1-.1-1l6.78-7.22L151,145.2l6.58,2.92.58-7.15a.72.72,0,0,1,1.32-.37l3.85,4.71,3.94-3.52-5.59-4.9,7.17,4.35.06.06Zm-25.24,9h0l-7.32-.78h-.15a.73.73,0,0,0-.66.79l.54,5.47a35.7,35.7,0,0,1-4.91-.42.73.73,0,0,0-.81.46,5.88,5.88,0,0,0,1.29,6c0-1.83-.56-2.89-.1-4.92a43.87,43.87,0,0,0,5.33.35.73.73,0,0,0,.73-.73.53.53,0,0,0,0-.13l-.52-5.33,5.53.59-1.36,3.93c1.35-.73,2.49-3.21,3-4.27a.65.65,0,0,0,.06-.21.73.73,0,0,0-.65-.8Zm-25.45,15h0l.47,5.87-4-1.13-.11,0a.63.63,0,0,0-.72.54l-.85,5.76a.34.34,0,0,0,0,.1.64.64,0,0,0,.65.63l5.27-1.16-4.54-.13.63-4.29,4.21,1.18a.63.63,0,0,0,.79-.44.55.55,0,0,0,0-.22l-.48-6.09h4.06l-.91,4.45,1.88-4.48a1.1,1.1,0,0,0,0-.18.64.64,0,0,0-.64-.64l-5.15-.43a.65.65,0,0,0-.59.69Zm-1.8-11.82h0c.23.33,3.79,5.71,3.8,5.72.56-2.16-.6-4.44-3.8-5.72Zm2.92,7.89h0l-5.79,2-.39-7.61a.74.74,0,0,0-.37-.61.72.72,0,0,0-1,.27l-2.59,4.44c-1.34-.64-4.22-2-4.08-2.19.33-.4,4.85-4.48,4.87-4.49a.72.72,0,0,0,.23-.61.74.74,0,0,0-.79-.66s-6.19,1-6.17.81c.06-.53.16-3.79.21-5.29,2.06.12,7.58.37,7.72-.6a14.25,14.25,0,0,0-.1-2c-.06-.6-.13-1.29-.16-1.93-.12-2,.37-1.24,1.81-1.32a22.84,22.84,0,0,1,2.33.07l.74,5.3c.17-1.81.43-4.29.62-6.11a.72.72,0,0,0-.73-.63l-5.38-.15c-.65,0-.88.64-.88,1.6s.41,4.23.31,4.94c0,.15-6.91-.7-6.93-.7a.74.74,0,0,0-.79.67v.09c0,.56-.15,5.26-.22,5.88-.12,1,3.31,1,5.64.94-1.37,1.26-3.2,2.93-3.45,3.24-.93,1.11,5.11,4.68,5.13,4.69a.74.74,0,0,0,1-.26l1.69-2.9.32,6.23a.72.72,0,0,0,.76.69.69.69,0,0,0,.29-.07l6.14-3.75Zm56-71.35h0l4.2,1.84c.13,0,1.1.53,2.44,1.2,6,3,11,4.67,15.11,10.47a17.82,17.82,0,0,0-2.24-4.9c3.25.38,8.34-1.87,8.35-3.21-12.13,4.2-17.3-5.18-27.86-5.4Zm-.42-42.27h0c3.59,1,8,0,11.28-1.73l-.06-.1a3.59,3.59,0,0,0,3.35-.27s-3.42-1.42-4.79-3.24a2.68,2.68,0,0,0,0,1.91c-2.7,1.34-6.33,2.14-9.22,1.32-3.07-.88-4.57-3.73-5.19-6.68-1.7,3.75,1.05,7.78,4.6,8.79ZM46.38,188.67h0c2.14-1.93,4.36-3.69,6.52-5.6a19.29,19.29,0,0,0-8,4c-2.43,2.2-3.79,1-6.33,1.54,0,0,3.94,3.57,7.79.08Zm146-177.26h0A13.11,13.11,0,0,0,185,14.55c2-.26,7.48-1.52,7.42-3.14Zm-4-1.08h0c-2.13-.9-3.06,1.56-3.65,2.6,1.56-.6,1.27-1.71,3.65-2.6ZM21.74,196h0c1.51-1.13,1.57-3.39,2.79-5.9-2.55.52-2.7,1.8-2.79,5.9ZM69.81,65.59c4.55-2,8.48-5.1,10.19-8.35L65.55,54.61a33.89,33.89,0,0,1,6.51,5.25l-7.77-4c-.23,2.19-2.36,6.16-3.5,8l1.65-7.68L55.72,67.38c4.14,1.21,9.42.28,14.09-1.79Zm152.85-8.27c-4.89-1-10.4-2.06-16.62-3.09a8.51,8.51,0,0,0,2.09,4.34c3,2.83,8.25,3.19,8.77,3.22,10.16-.32,20.84,11.31,29.24,24.54a75.91,75.91,0,0,0,1.74-8.85c.87-6.24-1.34-8.17-5.53-11.23,5.86,1.69,8.74,4,7.7,11.53a73.88,73.88,0,0,1-2.35,11.07c1.14,1.88,2.23,3.78,3.26,5.66l2.28-10.87c1.63-7.77.88-12.59-1.81-15.86s-7.53-5.17-13.91-6.92c-4.14-1.13-9.05-2.32-14.86-3.54ZM204.57,82.63h0a28.43,28.43,0,0,0,1.56,7.21c2.09,5.78,6.89,12.36,11,17.36-.54,1.59-2.08,6.23-3.5,11.54-7.72,4.38-13.39,9.17-19.58,13.62a46.81,46.81,0,0,0-3.47-5.14A62,62,0,0,0,161.74,107c-11.48-3.81-23.87-3.88-34.44,2l-.78.45c4.85-8,19.25-22.42,32.76-19.6-2.43-1.76-8.73-1.76-11.51-.48a33.12,33.12,0,0,1,6.49-17.94,24.47,24.47,0,0,1,12.92-8.83,10.65,10.65,0,0,0-.62,1.74c-1.24,4.58-.93,7.47,1.23,9.16,9.85,7.72,31.31-5.24,39.61-12.63a14.26,14.26,0,0,0,4.08,2.1,13.86,13.86,0,0,0-5.36,7.13,29,29,0,0,0-1.55,12.58Zm14.24,26.53c-.59,1.78-1.52,4.71-2.48,8.13,2.13-1.12,4.42-2.19,6.92-3.22-1-1-2.57-2.74-4.44-4.91Zm-32,57.11h0a137.73,137.73,0,0,0-3.67,16.07c-1.1,1-4.71,4.15-8.12,6.84a70.46,70.46,0,0,0-7.3,7.35c1.54-7-2.54-15.47-7.48-20.27a29,29,0,0,0-2.39-2.08l6.16-1.35a.75.75,0,0,0,.37-.2.73.73,0,0,0,0-1l-3.09-3,4.78.12a.72.72,0,0,0,.76-.51l1.92-6.1a.57.57,0,0,0,0-.26.74.74,0,0,0-.77-.69l-7,.44,2.07-3.8a.74.74,0,0,0-.65-1.08l-9.58.66a.8.8,0,0,0-.34.05.73.73,0,0,0-.38,1l1.64,3.32-6.68-.8a.72.72,0,0,0-.77.48l-2.16,6.15A22.76,22.76,0,0,0,131,168c2-1.45,3.94-2.73,5.13-3.75,3.31-2.83,8.22-5.82,10.21-9.64a201.49,201.49,0,0,0-16.79,12.3c-5.46-4.74-7.55-12.89-8.19-14.48,0,0,.33,10.11,6.53,15.92-1.36,1.21-2.72,2.49-4.1,3.86a5.17,5.17,0,0,0-1.39,2.71l-10.17,5.84c-1.56-11.17-12.35-31.55-23.16-32.55,3.16-2.42,7.34-5.46,11.8-8.6,5.68-4,11.81-8.18,16.87-11.41a35.38,35.38,0,0,0,.94,14.76,58.8,58.8,0,0,1,.87-14.15,49.5,49.5,0,0,1,5.75-.66c-7.25,7.69-.66,11.48,5.76,8.38a34.74,34.74,0,0,0-.84,6.78,10.13,10.13,0,0,0,.26,2.66c.94,3.37,6.62,2,6.75-4.81,0-2.7.23-6.29.36-8.83.19.4.4.79.62,1.16h-.09c0,.31,0,.52,0,.65a19.76,19.76,0,0,0,2.59,10c1.46,2.5,3.32,3.81,3.87,3.83h0a1.41,1.41,0,0,0,.68-.18,5.36,5.36,0,0,0,1.69-2.15,7.05,7.05,0,0,0,.85-2.9,2.19,2.19,0,0,0-.25-1.09c-.32-.6-1.25-2.1-2.06-3.4a11.41,11.41,0,0,0,3.25-.31c2.24-.54,5.09-2,6.15-4.19h0a5.07,5.07,0,0,0,.47-1.75A118.36,118.36,0,0,1,185,145.76a4.18,4.18,0,0,0-.42.78,52.94,52.94,0,0,0-1.29,7.35,62.82,62.82,0,0,0-.58,7.28c0,3.79,2.42,4.83,4.08,5.1ZM90,222.64c5.88-16.25-2-10.89-1.49-24.13a15.37,15.37,0,0,1,1.72-6.59l.06-.12C80.17,195.33,70,196,61.8,196.44c-1.76.11-3.42.21-5.07.34-8.21.67-13.86,5.77-18.22,9.69l-1.08,1c.51.92,2.42,3.19,9.56,6.68h0c12.41,6.5,36.21,13.32,41.38,14.76A29,29,0,0,1,90,222.64Zm2.06.74c-1.41,3.91-2,7.4-1.28,10.24s2.54,4.86,6,6.24a9.28,9.28,0,0,0,9-.92c2.73-1.77,5.17-4.73,7.53-7.85a48.56,48.56,0,0,1,8.73-8.62,77.49,77.49,0,0,1,12-7.69c.93-.48,1.91-1,2.88-1.44s2.16-1.06,3.23-1.61c4-2,7.64-4.33,9.51-8,2-3.87,2.4-10.45,1.64-11.68a4.33,4.33,0,0,1,2,2.77,15.11,15.11,0,0,1,3.44-3.24c-4.79-8.86-16.72-17.39-25.35-16.81-5.23.34-5.16,3-4.31,7.33a8,8,0,0,1-1.92-3,44.31,44.31,0,0,1-9,9.92,5.15,5.15,0,0,1,4.58,4c3.31-.84,6,3.45,5.23,7.53a9.75,9.75,0,0,1-2,4.34,37,37,0,0,1-1.53,6.37c-1.75,5.35-4.76,11-8.39,12.71a39.73,39.73,0,0,0,6.32-12.75c.2-.64.38-1.3.55-2,.54-2.2,1.69-4.52-.24-5.57,5.19.11,3.43-11.17-.36-8-1.37,1.15-1.82,5.56-1.71,7-2-2.35-2.16-6.13-.07-8.3a3.14,3.14,0,0,0-3.37-3.41c-2.51.22-2.81,5.16-2.44,7.2-2.58-5.19-1.35-7.94.85-8.85a3.27,3.27,0,0,0,0-.89,6.68,6.68,0,0,0-.95-2.62c-5.39-5.34-6.11,5.11-5.73,6.42-.69-1.39-2.31-6.28.64-9l-.08,0a4.33,4.33,0,0,0-.5-3,2.42,2.42,0,0,0-1.59-1.12l-.38,0a3.71,3.71,0,0,0-2.52.71c-1.68,1.35-2.24,3.49-2.33,5.66-.22,5.36,1.31,6.12,5.73,8.32l6,4.54c-9.21-2-15.85-12.62-19.71-5.38a13.11,13.11,0,0,0-1.47,5.65c-.15,3.75,1.48,8.25,4,12.12,2.41,3.69,5.63,6.8,8.87,8.12a15.14,15.14,0,0,1-7.6-3.71,17.44,17.44,0,0,0,3.26,4.8c-1.88-.44-3.8-2.42-5.18-5.51a31.89,31.89,0,0,1-2,9Zm17.89-41.33h0l.25-.14a39,39,0,0,0-2.68-10.11c-2.75-7-10.52-21.56-19.32-21.48a7.42,7.42,0,0,0-2.38.42c-.34.28-.65.53-.92.77l-1.62,1.37-.44.37c4.33.57,12.44,3.94,19.28,19.73a4.68,4.68,0,0,1,3,3.95,4.89,4.89,0,0,1,.68.07,4.55,4.55,0,0,1,3,2.1,6.11,6.11,0,0,1,.92,3Zm-7-4.88c-.3-2-1.89-2.57-3.85-2.52a5,5,0,0,0-4,1.86,7.85,7.85,0,0,0-1.29,2.75,11.08,11.08,0,0,0-.27,4.81c.87,4.33,4.35,4.4,5.6,4.59-1.2-3.62-.92-8.29,2-10.57a5.24,5.24,0,0,1,1.79-.92Zm9.89,5.75a6.49,6.49,0,0,1,1.67,1.79,8.66,8.66,0,0,1,1,2.15,45.43,45.43,0,0,0,7-7.58l.21-.3a9,9,0,0,1-.33-1.55l-9.56,5.49Zm42.8-20.59h0l-1.74-4.05,7.34-.06-2.12,3.88a.73.73,0,0,0,.3,1,.76.76,0,0,0,.39.08l7.22-.45-1.43,4.56-6.88.13a.73.73,0,0,0-.75.71.76.76,0,0,0,.23.54l4.17,3L156.25,173a37.18,37.18,0,0,0-9.12-4.6l5.36-1.48-6.78.55,1.77-5,7.36.89a.74.74,0,0,0,.81-.64.8.8,0,0,0-.06-.38Zm3.09,15.5h0c4.67,4.55,8.92,13.38,6.37,19.84-1.1,2.79-3.82,5.43-6.89,5.84-1.56.21-3.21-.36-5.09-2.18.78-3,.47-4.94,4.58-7.73a15.64,15.64,0,0,1,1,3.36c.48,2.84-1.46,3.67-3.81,3.64,3.22,2.76,6.67.12,6-4a25.69,25.69,0,0,0-5.44-10.79c-5.24-6.56-15.3-13.76-24.15-13.18-4.93.33-5.7,1.67-7.15,4.14-.2-1.73.89-3.48,2.52-5.15,8.45-7.53,24.87-.81,32.09,6.22ZM122.9,247.42c-23.19-1.69-41.46-6.08-55.24-10.83-2.82,1.86-7.61,5.33-11.11,8.26-2.33,1.94-4,3.47-4,3.67.68,2.72,11.12,7.12,24.11,11.54,20.67,7,47.51,13.76,52.85,14.13l.92.07c5.78.43,14.24,1.06,21.13-7.55l0,0c6.88-7.81,14.73-17.25,22.29-26.53-12.53,3-22.6,5.23-26,5.68a86.3,86.3,0,0,1-12.92,1c-3.13,1-6.21,1-12,.59Zm24.69-3.76c3.6-.48,14.83-2.95,28.57-6.33q2.94-3.63,5.76-7.15c-15.47,3.89-28.45,6.78-30.15,7.16-1.67,1-3.39,2.1-5.14,3.17l-1,.6c-2.22,1.36-4,2.46-5.59,3.35,1.92-.14,4.41-.39,7.54-.8Zm9.74-9.82c6.08-1.4,16-3.73,26.85-6.49C191.07,218.72,197.09,211,201,206l-8.26,6.08c-.64.47-1.1.84-1.46,1.14-1.72,1.42-2,1.65-4.67.93-2.76,2-13.89,9.9-29.31,19.71Zm26.13-20.13.54-.38-1.72-.64-.08,0c-2.48-1-2.43-1.44-2.17-3.47l0-.22c-7.34,5.09-38.91,26.85-46,29.73a34.11,34.11,0,0,1-.2,6.14c2.85-.82,5.62-2.51,10.66-5.59l1-.61c18.09-11,32.38-21,38-24.93Zm-3.19-7.55c.53-7.89,1.37-14.74,2.27-20.46a113.81,113.81,0,0,0-10.74,9.73,73.76,73.76,0,0,1-6.75,6.7c-2.18,1.82-4.3,3.24-6.6,3.55a7.69,7.69,0,0,1-6.17-2.1,14.64,14.64,0,0,1-.83,1.61,19.83,19.83,0,0,1-7,6.63c-2.06,1.27-4.3,2.38-6.54,3.48-.94.47-1.89.94-2.84,1.43a75.37,75.37,0,0,0-11.66,7.46,46.4,46.4,0,0,0-8.33,8.22c-2.48,3.28-5.07,6.41-8.09,8.36a12.12,12.12,0,0,1-5.27,2c6.59,1.07,13.71,1.92,21.37,2.48a42.85,42.85,0,0,0,8.52.08c.46-1.21.37-4.49.29-6.19-5.58.25-17-2.17-17-2.17,6.18-1.15,11.63.87,17.88-.11,4.41-.68,45.69-29.4,47.53-30.68ZM89.59,117.87c2.23,2.72,1.76,4.94,0,6.24a8.19,8.19,0,0,0,5.6-2.43l-.44-16.92a5.32,5.32,0,0,1-4.49-.58,4.64,4.64,0,0,1-2-2.42,3.59,3.59,0,0,1-.52.77,8,8,0,0,1,2.66,2.92,5,5,0,0,1-.11,4.78,6.23,6.23,0,0,1-.46.72c1.65,2.24,1.26,4.78-.22,6.92Zm-14-27.47a14.1,14.1,0,0,1-1.49-.24l0,1.76a5.06,5.06,0,0,0,2.8,2.25c5-1,12.2-1.21,11.92,5.06.27-.5.6-1,1-1.65.47-.76,1-1.65,1.55-2.7a15,15,0,0,1,1.24-2.09A8.88,8.88,0,0,1,94,91.24l.42-.33-.05-1.71c-.44.13-.93.26-1.46.37a56.39,56.39,0,0,1-8.64,1h0a56.42,56.42,0,0,1-8.7-.18Zm-1.53-2,1.73.21a55.39,55.39,0,0,0,8.41.17h0a55.36,55.36,0,0,0,8.34-1l1.8-.39V87l-1.84-.22a54.11,54.11,0,0,0-8.41-.17h0a54.24,54.24,0,0,0-8.34,1L74,88v.42Zm31.36,29.83c-6.27,4.11-9.73,8.06-10.37,10.68a114.42,114.42,0,0,0-1.87,13.51c2-1.47,4.21-3,6.46-4.62,6.34-4.48,13.24-9.15,18.61-12.51a54.94,54.94,0,0,1,5.89-16,84,84,0,0,0-18.72,8.89Zm-8.07,2.35,0,1.22a44.34,44.34,0,0,1,6.84-5.4,88.59,88.59,0,0,1,21.66-9.93h0c.43-.66.87-1.29,1.31-1.87s.85-1.11,1.28-1.63c-3.79,1.59-8.62,3.23-13.06,4.73-4.13,1.4-7.92,2.69-10.12,3.68a11.76,11.76,0,0,1-1.73,1.28,10.08,10.08,0,0,1-6.21,7.92Zm38.52,5c-4.87,6.31-8.34,6.43-8.35,6.43,3.49-3.15,7.46-7.7,7.1-8.44-1.53.91-15,9.66-8.81,11.64,4.67,1.5,10.55-4.6,10.06-9.63Zm-.48,7.53a13.93,13.93,0,0,1-1.59,1.58,34.22,34.22,0,0,0-1.37,8.56c0,1.74.92,3.93,2.23.73a8.44,8.44,0,0,0,.42-2.92c0-2.44.18-5.51.31-8Zm-1.81-11.62.4-.22c-8,.29-12,2.55-13.61,3.72-.16.64-.31,1.29-.44,2a54.17,54.17,0,0,1,7.4-.79,44.18,44.18,0,0,1,6.25-4.67Zm13.38,5.57c6.5,9.3-7,8.24-6.9-5.23a1.61,1.61,0,0,0-.88-.49H139a1.36,1.36,0,0,0-1,.67c-.38,6.78,1.83,15.77,10.29,13.75,10.95-2.6.59-12.93-6.59-13.83.06.51.14,1.08.26,1.69a7.12,7.12,0,0,1,3.63,2.12,9.44,9.44,0,0,0-3.23-.41c.66,2.47,1.76,4.93,3.16,5.17s2.35-.91,1.46-3.43Zm-1.3,15.58c-.51-1-2.59-4.24-3.19-5.18a8.88,8.88,0,0,1-2-1.34,16.84,16.84,0,0,0,2.18,6.86c1.39,2.38,3,3.66,3-.29,0-.05,0,0,0-.05Zm37-3.19.47-.24c.7-.36,1.39-.73,2.06-1.1-8.61-7.35-24.42-12.95-36.07-15.38,2.85,1.89,5.2,4.41,6,6.94a115,115,0,0,1,27.45,12,3.32,3.32,0,0,1-.09-.55h0a3.62,3.62,0,0,1,.05-1.13l.11-.51ZM142.3,119.85c17,1.76,37.31,9.55,44.85,17.11,1.8-1.08,3.49-2.19,5.14-3.33a45.42,45.42,0,0,0-3.41-5.07A59.61,59.61,0,0,0,161.06,109c-12.46-4.13-26.07-3.65-36.77,4.48a58.47,58.47,0,0,0-3.41,9.3c4.26-2.83,11-3.7,18.64-3.2a11.26,11.26,0,0,1,2.78.23Zm63.56-60.57c-2.24-3-2.5-8-2.49-10.34l-.36-.08c-5,11-18.95,16-29.89,11.32-.37-.17-.74-.34-1.11-.53a10.93,10.93,0,0,0-3.34,5.2c-3.36,12.45,13.78,8.8,19.83,6.18a63.19,63.19,0,0,0,17.36-11.75Zm-.67-12.63c3-.76,6.88-6,6.12-8.3a2.52,2.52,0,0,0-2-1.55,5.27,5.27,0,0,0-2.73.71,10.15,10.15,0,0,0-2.84,2.26c-2.24,2.56-2.67,7.92,1.45,6.88ZM169.75,26.09c-1.81,2-3.37,6.31-.7,8a4,4,0,0,0,2.45.58c.73-3.93,6.07-6.24,8.84-8.85a15.22,15.22,0,0,0,2-2.22c.53,3.07-4,6.18-6.18,8s-2.8,3.44-2.5,4.76c.83,3.66,7.5,4.84,10.31,2.57a2,2,0,0,0,.63-1.29c.21-1.69-2.31-2.18-3.31-2a3.25,3.25,0,0,1,5.41,2.36c.77.69,4.73,3.86,9,1.33,4.43-2.64,7.62-8.56,8.43-10.18a14.82,14.82,0,0,1,.44-3,7.94,7.94,0,0,1-.49-2.72,6.59,6.59,0,0,1-2.18-2.48,28,28,0,0,1-3.63-1.25c-4.57-1.91-9.4-3.94-14.2-.81l-.65.42-.61-.47a3.68,3.68,0,0,1-1.09-1.61,8.66,8.66,0,0,0-7.73,3c4.72-2.62,8.07-.81,6.17,2,0,0-3.31-3.46-7.51.56v.07l.25-.1c3-1.21,6.57.56,4.72,2.91l0,0a5,5,0,0,0-2.82-1.55c-2.35-.56-3.43.31-5,2ZM156.92,54.21A61.36,61.36,0,0,0,153.63,62a53.76,53.76,0,0,1,10.46-.67v0a24.29,24.29,0,0,1,4.7-1.51,15,15,0,0,1,1.27-1.41,20.55,20.55,0,0,1-6.95-8.28,7.63,7.63,0,0,0-6.19,4Zm-56.76,33c-.94.62-1.93,1.33-3,2.12a9.68,9.68,0,0,1,1.71-.54,5.28,5.28,0,0,1,4.37.72,11.73,11.73,0,0,1,1.47,1.3c.49.51,1,1.11,1.57,1.8,3.17,4,3.67,11.13,1.12,15.94a73.64,73.64,0,0,1,7.24-2.93c6.1-2.07,13.44-4.38,17.17-6.39a45.88,45.88,0,0,1,13.76-9.4c-.12-10.09,5.91-20.74,14.7-26.37-18.65.2-34.25,11.23-39.74,15.63a14.38,14.38,0,0,1,8.83,5.2c.12.15.26.35.41.57-10.69-6.48-19.45-4.45-29.63,2.35Zm-3.49,2.34-.2-.25v.34l.19-.09Zm2.11,7a5.38,5.38,0,0,0-3.37-3.67h0a6.57,6.57,0,0,0-1.05,1.16,13.93,13.93,0,0,0-1.06,1.78,32,32,0,0,1-1.64,2.88c-1.07,1.72-1.6,2.59-.09,3.68,2.53,1.83,8.75-2.83,8.77-2.84A6.6,6.6,0,0,1,96.86,104l.38,14.28a8,8,0,0,0,4.16-4.54,16.16,16.16,0,0,1-3.33.88c2.37-3.82,7.75-3.43,8.69-11.28.41-3.4-.36-7.08-2.16-9.31-.52-.65-1-1.2-1.44-1.66A10.6,10.6,0,0,0,102,91.26a3.26,3.26,0,0,0-2.63-.34A8.94,8.94,0,0,0,96.7,92c1.86.81,2.49,2.16,2.08,4.58Zm16.8-39.91L102,58.24A3.92,3.92,0,0,1,103,62c2.26-.35,9.47-1.47,13.7-2.33a3,3,0,0,0-1.14-3ZM100.65,58.6l-11,21.83c.73-.17,1.4-.36,2-.56l.52-.18c2.92-4.64,12.66-18.46,8.48-21.09Zm-12,19c-2.25-.37-7.62.19-11.2,1l1.35,2.78a39.85,39.85,0,0,0,5.3-.08h0c1-.08,2-.19,2.85-.33l1.7-3.38ZM75.3,79.18c-1.78.65-2.06,1.36.92,1.89l-.92-1.89Zm.77,4.08a11.28,11.28,0,0,1-2.18-.57L74,86.15c.41-.12.86-.24,1.34-.34a56.54,56.54,0,0,1,8.64-1h0a56.55,56.55,0,0,1,8.7.17c.58.07,1.11.16,1.59.26l-.11-4.06a10.48,10.48,0,0,1-1.8.76,34.59,34.59,0,0,1-8.06,1.51h0a35.22,35.22,0,0,1-8.2-.19ZM71.69,92c-2.79,1.49-3.23,6.07-1.3,8.46a10,10,0,0,0,3.66,2.79A6.49,6.49,0,0,1,74,98c1.16,5.53,2.52,7.07,7.41,5.44a22,22,0,0,0,3.74-1.64,2.42,2.42,0,0,0,1.37-1.68c1.22-6.72-7.77-4.07-11.49-3.41,1-2.46-2.26-1.3-3.33-4.76Zm3.08,21.35a7.08,7.08,0,0,1,.45-4.36c.76,3.63.81,6.31,5.94,4.59,5.29-1.77,11.67-5.48,4.7-9.63a24.71,24.71,0,0,1-3.77,1.61,19,19,0,0,1-4,.91,9.54,9.54,0,0,1-4.88-1.22,16.45,16.45,0,0,1-2.54-1.59c-.16,3.72.79,7.63,4.15,9.69Zm4,7a5.23,5.23,0,0,1-.67-2.21c1.24.32,2.26,5,8.06.88a6.19,6.19,0,0,0,2.48-3,4.24,4.24,0,0,0-.43-3.44,12.24,12.24,0,0,1-2,1.22,34.2,34.2,0,0,1-4.36,1.86,12,12,0,0,1-4.88.76l-.14,0a7.82,7.82,0,0,1-1.5-.32,9.3,9.3,0,0,0,2,3.17,6.88,6.88,0,0,0,1.38,1.06Zm9.83,1.65a2.43,2.43,0,0,0-.47-2.36,11.67,11.67,0,0,1-6.57,3.07c2.32,1.63,6.07,1.61,7-.71Zm-7.12,2.62c-1,2.56-4.63,13-3.72,33.87l.84-.58-.3,0c0-.64,0-1.08.06-1.44a3.71,3.71,0,0,1,.54-2.38,16.18,16.18,0,0,1,2.94-2.79l1.61-1.36c1.58-1.36,4.18-3.37,7.35-5.71.18-2.23.95-11.18,2.08-15.77a11.4,11.4,0,0,1,2.13-4,12.25,12.25,0,0,1-4.37,1.31l.14.18C87,127,88,138,85.17,141.05c.54-9.22,1.85-13.4,2.89-15.29a21.29,21.29,0,0,1-3.4-.44h0a10.07,10.07,0,0,1-3.19-.78Zm.67,30.77a8.45,8.45,0,0,0-1.5,0,3.42,3.42,0,0,0-.11,1.07v.06l1.61-1.16Zm-72.08-4.67c-3.21,1-3.88,2.66-3.44,4.57a23.82,23.82,0,0,0,2.77,5.84l.32.56a15.47,15.47,0,0,1,2.84-5.15,10.92,10.92,0,0,1-2.49-5.82ZM2.79,174.4c-.25,1.23-.22,2.94,1.52,3.67a16,16,0,0,1-.08-2.77,9.86,9.86,0,0,1-1.44-.9Zm1.7-1.29A18.47,18.47,0,0,1,5.36,170,11.27,11.27,0,0,1,2.45,167c-.77,1.68-1.42,4.58,2,6.14Zm-1.63-9.66a8.06,8.06,0,0,0,3.41,4.64,14.74,14.74,0,0,1,2.62-3.47C8.46,163.8,8,163,7.5,162.14a40.6,40.6,0,0,1-2.37-4.49c-1.16,1.21-2.85,3.44-2.27,5.8Zm22.69,43.13A7.37,7.37,0,0,0,32,207.86c.32-.07.64-.16,1-.27a9.6,9.6,0,0,0,2.55-1.23l-.06-.07,1.61-1.45.34-.3c1.86-2.44,2.39-5.75,3.21-8.92a21.47,21.47,0,0,1-.68,6.86c16.38-12.36,33.24-5.39,53.66-14.33v0l.5-.26.36-.15a8.35,8.35,0,0,1-2.78-9,9.87,9.87,0,0,1,1.64-3.53A7.22,7.22,0,0,1,99,172.47h.5C94.56,161.13,88.92,157.19,85,155.89a161.15,161.15,0,0,1-14.79,9.92,77,77,0,0,1-12.73,5.8c-7,2.53-14.67,5.73-21.46,1.58a33.73,33.73,0,0,1-7.25-5.74c-2.49-3-6.91-11.58-6.92-11.6l-.06-.11,0-.11a28.68,28.68,0,0,1-.89-6.11c0-.7,0-1.42,0-2.13.05-3.5-.1-7.33-4.78-4.32-4.48,2.89-5.27,7.81-2,11.86,1.54-1.22,3.13-1.68,4.31-1-5.15,3.64-8.24,9.25-7,15.56,1.07,5.45,5,10.51,10.45,12.12-6.88-.4-11.29-5-12.6-11.7A18.23,18.23,0,0,1,9,167.83c-4.37,6.14-3.45,16.31,4.21,19.42,4.85,2,7,6.95,8.09,11.75.13.56.27,1.1.45,1.63a12.12,12.12,0,0,0,3.8,6Zm12.33,13.59c6.23,3.85,24.62,15.18,57.48,21.47-3.83-1.68-5.94-4.27-6.74-7.51a13.34,13.34,0,0,1-.35-3c-4.07-1.13-29.22-8.23-42.23-15h0c-6.64-3.24-9.27-5.89-10.3-7.42a8.83,8.83,0,0,1-1.33.71,6.74,6.74,0,0,1-.79.29q-.6.2-1.17.33l-1,.18v.12c-.08,1.75.37,6.15,6.25,9.78l.17.09Zm196.88-8.84c-6.78-1.85-17.29-5.25-19.86-6.09-.86,1.25-1.86,2.68-3,4.28l11.32,3c.43.09,3.61.66,3.4,2.75a59.88,59.88,0,0,1,6.49-1.5,35.39,35.39,0,0,1-7.83,3.92l-.33.34-.17-.17c-1.79.64-3.66,1.22-5.7,1.89-5.56,1.8-11.84,3.64-18.28,5.42-1.64,2.28-3.37,4.66-5.18,7.11l1.77-.47c15.42-4.15,30.82-8.72,40.6-12.54a8.69,8.69,0,0,0,3.33-2.33,1.73,1.73,0,0,0,.38-1.36,3,3,0,0,0-1-1.5,15.14,15.14,0,0,0-6-2.79Zm-31.89,11q2.87-.8,5.64-1.61c4-1.19,10-3.09,15.23-4.62.89-1.4-1.75-1.92-1.76-1.92l-11.37-2.8c-2.21,3.17-4.82,6.88-7.74,11Zm12-21c3.67-5.29,5.17-8.36,5.77-10.09l-1.11.84c-3.91,3-8.08,6.08-12,9-1.54,2-32.75,42.49-54.3,67h0c-7.6,9.47-16.73,8.8-22.95,8.33l-.91-.06c-5.45-.38-32.6-7.18-53.41-14.25-13.62-4.63-24.64-9.5-25.53-13.07-.3-1.19,1.79-3.44,4.71-5.89s7-5.5,10-7.48q-3.68-1.33-6.88-2.66c-1.83,1.36-8.39,6.25-13.42,10a18.71,18.71,0,0,0-3.63,3.5,8.71,8.71,0,0,0-1.85,4.12,4.9,4.9,0,0,0,1,3.63,7.62,7.62,0,0,0,1.42,1.42c9.34,5.11,24.58,10.87,39.85,15.86,20.07,6.56,40.14,11.79,47,12.5,6,.63,10.79,1,15.18.18s8.27-2.8,12.67-6.88c24.31-26.52,48-60.79,57-73.72l1.57-2.27Zm38.71-67.79h0l0,.06v.09s-1.51,8.46-4.86,20.31c-1.64,5.84-3.25,10.09-5.6,13.86s-5.49,7.08-10.19,11c-3,2.5-8.5,6.77-14.69,11.45-9.9,7.48-21.37,15.93-26.76,19.88-.65.48-1.15.89-1.56,1.23-1.06.87-1.15.94-3.48.28q-.74-.21-1.62-.51c-.53-.18-1.11-.39-1.74-.64-1-.38-1-.52-.88-1.18.05-.4.11-.88.15-1.44,1.29-21.42,4.88-35.47,6.18-40a3.46,3.46,0,0,0,.91.31c1.4.28,3.33-.56,4.59-1.22a3.56,3.56,0,0,0,2.16,1,5.59,5.59,0,0,0,3.89-1.32c-5.19,14-7.61,35.91-7.62,36,1.09-.45,2.73-4.23,3.14-6.93.06-.41.12-.83.19-1.27,3.41-2.2,26.15-16.87,28.89-19a46.29,46.29,0,0,0,8.16-8.73A41.22,41.22,0,0,0,238.3,157a139,139,0,0,0,5.07-17.84,15.73,15.73,0,0,0,5.82-4.43l-2.69.9c-.06,0-19.54,8.26-23.18,9.32a34.72,34.72,0,0,0-5.77,2.43c-1,.49-1.89,1-2.76,1.51.15-.4.3-.78.43-1.16,2.2-6.32-.49-3.23,6.52-5.27,14.53-4.24,23.79-8.32,29.55-11.63.67-.39,1.29-.76,1.87-1.13,1.45.91.45,3.93.45,3.93ZM222,174.8l9.51-30.64c-3.41,1.37-6.37,2.51-7.61,2.87a32.47,32.47,0,0,0-5.38,2.27,51.06,51.06,0,0,0-5.52,3.25,30.89,30.89,0,0,1-1.74,2.72,23.72,23.72,0,0,1-3,7.46c-1.5,2.37-3.29,3.86-4.79,3.6-.3-.06-.57-.12-.81-.19-.35.86-.69,1.77-1,2.7l19.6,6.49.76-.53Zm12.13-31.7-9.09,29.29a48.74,48.74,0,0,0,6-6.81,39.71,39.71,0,0,0,5.17-9.36,136.08,136.08,0,0,0,4.62-15.9c-1.85.82-3.84,1.61-5.86,2.43l-.85.35ZM219,176.87l-18-6a160.36,160.36,0,0,0-4.72,20.76c4.7-3,16.21-10.49,22.7-14.81ZM113.31,201h0c-4.1-.84-10.72-5.33-12.46-6.26,1.94,4.4,8,7.28,12.46,6.26ZM182.86,9h0c-1.49,1.54-.77,5,1,5.77-1.05-2-1-3.67-1-5.77Zm-36,100.31h0a4.28,4.28,0,0,1,2.44,3.79c-.42,4.58-6.71,1.89-2.55-1.13-4.15.38-4,5-1.37,5.66,3.82.9,7.22-3,5.15-6.38-.65-1.06-1.95-1.65-3.67-1.94Zm-3.81,73.81h0a55.3,55.3,0,0,0-7,1.91c1.85.89,6.2,1.32,7-1.91ZM203.76,42.6h0c.31-.19,1.05-.69,1.88-1.19a1.68,1.68,0,0,1-.25,2,1.69,1.69,0,0,0,1.33-2.64c1.62-.83,3-1.14,1.79,1.31,3.34-1,2.29-8.63-4.75.49ZM197,27.53h0c.41-6.41-7.71-8.38-8.94-4.48,0,0,4.95-1,8.94,4.48Zm-3.73,2.61h0c.16-5.06-6.14-5.59-6.81-3C186.5,27.09,191.27,26.74,193.3,30.14Z"/><path d="M368.43,151.18l-2.05-6.54H345.19L343,151.18h5.69v11.39H321.2V151.18h5l19.6-53H368l18.49,53h5.13v11.39H363V151.18ZM363,133.91q-1.59-5.61-3.27-10.92t-3.36-10.92H356c-.32,1.12-.75,2.56-1.31,4.34s-1.18,3.67-1.87,5.69-1.37,4.08-2,6.16-1.31,4-1.87,5.65Z"/><path d="M426.59,115.43a19.44,19.44,0,0,1,7.56,1.3,12.43,12.43,0,0,1,4.9,3.55,13.84,13.84,0,0,1,2.61,5.23,25,25,0,0,1,.8,6.44v19h6v10.27a26.26,26.26,0,0,1-6.07,1.77,34.93,34.93,0,0,1-6,.56,14.89,14.89,0,0,1-6.07-1,8.45,8.45,0,0,1-5-6.21,19.15,19.15,0,0,1-.37-3.69V135.5q0-3.65-1.36-5.18a5.49,5.49,0,0,0-4.34-1.55,10.45,10.45,0,0,0-3.73.8,14.66,14.66,0,0,0-3.64,2v31H394.1v-35.1h-5.6V116.55h23v4a1.28,1.28,0,0,1,.28,0,1.3,1.3,0,0,0,.29,0,34.12,34.12,0,0,1,7.28-3.82A20.46,20.46,0,0,1,426.59,115.43Z"/><path d="M480.73,173.68a21.23,21.23,0,0,1-2,3.87,12.48,12.48,0,0,1-2.71,3,11.78,11.78,0,0,1-3.82,2,18.22,18.22,0,0,1-5.33.7c-.43,0-1.18,0-2.24-.1s-2.28-.18-3.68-.37-2.9-.44-4.48-.75a28.73,28.73,0,0,1-4.62-1.3L453.94,169c.31.06.78.14,1.4.23s1.27.19,2,.28l1.91.24q.89.09,1.26.09c2.18.06,3.72-.2,4.62-.79a7.24,7.24,0,0,0,2.38-3.41l1.87-4.86h-8.21l-1.36-4c-.59-1.71-1.26-3.6-2-5.65s-1.51-4.2-2.29-6.44-1.54-4.4-2.29-6.49-1.43-4-2.05-5.65-1.09-3-1.4-4h-4.58v-12h17.65l10.26,34.63h.38a22.44,22.44,0,0,1,.7-2.24q.6-1.77,1.35-4.2c.5-1.62,1-3.35,1.64-5.18l1.68-5.23c.52-1.65,1-3.08,1.4-4.3s.66-2,.79-2.38h-4.39v-11.1h25.67v11.1h-4.2Z"/><path d="M536.08,142.22l.1,6.81a18.13,18.13,0,0,0,3,.89c1.06.22,2.12.4,3.18.56s2,.26,3,.33,1.74.09,2.42.09q5.7,0,8-1.87a5.6,5.6,0,0,0,2.29-4.48,4.63,4.63,0,0,0-1.31-3.55,9.75,9.75,0,0,0-3.54-2l-12-4a52.93,52.93,0,0,1-9.38-4.06,17.88,17.88,0,0,1-6.07-5.42,14.19,14.19,0,0,1-2.14-8.12q0-9.53,6.76-14.89t20.12-5.37q2.61,0,5.55.24t5.88.74a51.22,51.22,0,0,1,5.75,1.36,39.55,39.55,0,0,1,5.22,2c0,2.74,0,5.44,0,8.12s.05,5.38.05,8.12H560.54c0-1.12,0-2.24,0-3.36s0-2.21,0-3.27a19.72,19.72,0,0,0-4.53-1.12,32.62,32.62,0,0,0-4.43-.37c-3.3,0-5.64.59-7,1.77a5.3,5.3,0,0,0-2.06,4.11,4,4,0,0,0,1.12,2.8,10.18,10.18,0,0,0,3,2.15,31.25,31.25,0,0,0,4.25,1.72c1.58.53,3.22,1,4.9,1.54q4.75,1.41,8.82,2.94a29.55,29.55,0,0,1,7.09,3.78,16.39,16.39,0,0,1,4.76,5.47,16.7,16.7,0,0,1,1.73,8q0,9.61-7.28,14.7t-21.94,5.09a84.43,84.43,0,0,1-12.55-1A53.24,53.24,0,0,1,524,159.3q0-4.2-.05-8.49t0-8.59Z"/><path d="M599.28,102.92v13.63h13v11h-13v15.87q0,4.29,1.31,5.7t5,1.4c.68,0,1.69-.07,3-.19a37.43,37.43,0,0,0,4.25-.66l2,11.21a31,31,0,0,1-3.45,1.16,35.88,35.88,0,0,1-3.74.84c-1.24.22-2.47.39-3.68.52s-2.32.18-3.32.18a28.4,28.4,0,0,1-10-1.44,14.33,14.33,0,0,1-5.69-3.69,11.16,11.16,0,0,1-2.57-5,25.69,25.69,0,0,1-.61-5.47V127.56h-6.34V118l7.65-2.24,4-11.86Z"/><path d="M658.56,151.37h6.35c.12,1.61.24,3.2.37,4.76s.25,3.14.37,4.76a28.06,28.06,0,0,1-6.81,2.1,41.6,41.6,0,0,1-7.38.7,12.74,12.74,0,0,1-5.78-1.22q-2.43-1.2-2.62-5l-.09-.09a19.77,19.77,0,0,1-4.44,3.55,20.28,20.28,0,0,1-4.34,1.91,19.68,19.68,0,0,1-3.73.75c-1.12.09-2,.14-2.61.14a17,17,0,0,1-7.33-1.36A13.09,13.09,0,0,1,616,159a11.07,11.07,0,0,1-2.29-4.38,18,18,0,0,1-.6-4.34,14.26,14.26,0,0,1,.74-4.63,9.77,9.77,0,0,1,2.62-4,16.12,16.12,0,0,1,5-3.08,30.55,30.55,0,0,1,8.12-1.87L642,135.59V134.1a6.61,6.61,0,0,0-1.54-4.72c-1-1.09-2.94-1.63-5.74-1.63a50,50,0,0,0-7.18.56,41.38,41.38,0,0,0-6.82,1.49l-2.61-10.45a39,39,0,0,1,4.62-1.54c1.71-.47,3.48-.87,5.32-1.22a54.38,54.38,0,0,1,5.55-.74c1.87-.16,3.71-.24,5.51-.24a35.63,35.63,0,0,1,8.08.84,16,16,0,0,1,6.11,2.76,12.24,12.24,0,0,1,3.87,5.08,19.62,19.62,0,0,1,1.36,7.75Zm-23-7.85a5.19,5.19,0,0,0-3.45,1.68,4.58,4.58,0,0,0-1,2.9,5.91,5.91,0,0,0,1.08,3.78,4.43,4.43,0,0,0,3.68,1.35,7.51,7.51,0,0,0,3.08-.7,10.2,10.2,0,0,0,2.9-1.91v-7.94Z"/><path d="M696.74,173.68a21.89,21.89,0,0,1-2,3.87,12.48,12.48,0,0,1-2.71,3,11.73,11.73,0,0,1-3.83,2,18.15,18.15,0,0,1-5.32.7c-.44,0-1.18,0-2.24-.1s-2.29-.18-3.69-.37-2.89-.44-4.48-.75a29.32,29.32,0,0,1-4.62-1.3L670,169c.31.06.77.14,1.4.23s1.27.19,2,.28l1.91.24q.88.09,1.26.09c2.18.06,3.72-.2,4.62-.79a7.24,7.24,0,0,0,2.38-3.41l1.87-4.86h-8.22q-.46-1.39-1.35-4c-.59-1.71-1.26-3.6-2-5.65s-1.51-4.2-2.28-6.44-1.54-4.4-2.29-6.49-1.43-4-2.06-5.65-1.08-3-1.4-4h-4.57v-12h17.64l10.27,34.63h.38a22.44,22.44,0,0,1,.7-2.24q.6-1.77,1.35-4.2t1.63-5.18l1.68-5.23c.53-1.65,1-3.08,1.4-4.3l.8-2.38h-4.39v-11.1H718.3v11.1h-4.2Z"/><path d="M784.11,151.18l-2.05-6.54h-21.2l-2.14,6.54h5.69v11.39H736.87V151.18h5l19.6-53h22.12l18.49,53h5.13v11.39H778.69V151.18Zm-5.42-17.27q-1.58-5.61-3.26-10.92t-3.36-10.92h-.38c-.31,1.12-.74,2.56-1.3,4.34s-1.19,3.67-1.87,5.69-1.37,4.08-2,6.16-1.31,4-1.87,5.65Z"/><path d="M842.26,115.43a19.46,19.46,0,0,1,7.57,1.3,12.51,12.51,0,0,1,4.9,3.55,13.84,13.84,0,0,1,2.61,5.23,25,25,0,0,1,.79,6.44v19h6v10.27A26.26,26.26,0,0,1,858,163a34.93,34.93,0,0,1-6,.56,14.86,14.86,0,0,1-6.07-1,8.45,8.45,0,0,1-5-6.21,19.15,19.15,0,0,1-.37-3.69V135.5c0-2.43-.46-4.16-1.36-5.18a5.49,5.49,0,0,0-4.34-1.55,10.41,10.41,0,0,0-3.73.8,14.48,14.48,0,0,0-3.64,2v31H809.78v-35.1h-5.6V116.55h23v4a1.38,1.38,0,0,1,.28,0,1.3,1.3,0,0,0,.28,0,34.36,34.36,0,0,1,7.28-3.82A20.54,20.54,0,0,1,842.26,115.43Z"/><path d="M896.41,173.68a21.89,21.89,0,0,1-2,3.87,12.48,12.48,0,0,1-2.71,3,11.73,11.73,0,0,1-3.83,2,18.1,18.1,0,0,1-5.32.7c-.43,0-1.18,0-2.24-.1s-2.29-.18-3.69-.37-2.89-.44-4.48-.75a29.32,29.32,0,0,1-4.62-1.3L869.62,169c.31.06.77.14,1.4.23s1.27.19,2,.28l1.91.24q.89.09,1.26.09c2.18.06,3.72-.2,4.62-.79a7.24,7.24,0,0,0,2.38-3.41l1.87-4.86H876.8q-.46-1.39-1.35-4c-.59-1.71-1.26-3.6-2-5.65s-1.51-4.2-2.28-6.44-1.54-4.4-2.29-6.49-1.43-4-2-5.65-1.09-3-1.4-4h-4.58v-12h17.64l10.27,34.63h.38a22.44,22.44,0,0,1,.7-2.24q.6-1.77,1.35-4.2t1.63-5.18l1.68-5.23c.53-1.65,1-3.08,1.4-4.3l.8-2.38H892.3v-11.1H918v11.1h-4.2Z"/><path d="M938.79,162.57V151.18h7V109.45h-6.54V98.06h33.42q9.06,0,15,2.57a23.61,23.61,0,0,1,9.39,7,25.71,25.71,0,0,1,4.8,10.23,54.13,54.13,0,0,1,1.36,12.36,48.21,48.21,0,0,1-1.54,12.28,27.31,27.31,0,0,1-5.18,10.32,25.74,25.74,0,0,1-9.53,7.14,35.34,35.34,0,0,1-14.56,2.66Zm25-53.12v41.73h6.66a11.72,11.72,0,0,0,5.39-1.26,12.07,12.07,0,0,0,4.32-3.84,19.91,19.91,0,0,0,2.86-6.5,36.26,36.26,0,0,0,1-9.17q0-10.86-3.75-15.91a12,12,0,0,0-10.13-5Z"/><path d="M1048.75,151.37h6.35c.12,1.61.25,3.2.37,4.76s.25,3.14.38,4.76A28.29,28.29,0,0,1,1049,163a41.58,41.58,0,0,1-7.37.7,12.81,12.81,0,0,1-5.79-1.22q-2.43-1.2-2.61-5l-.1-.09a20,20,0,0,1-4.43,3.55,20.5,20.5,0,0,1-4.34,1.91,19.77,19.77,0,0,1-3.74.75c-1.12.09-2,.14-2.61.14a17,17,0,0,1-7.33-1.36,13.09,13.09,0,0,1-4.53-3.36,10.92,10.92,0,0,1-2.28-4.38,17.52,17.52,0,0,1-.61-4.34,14.26,14.26,0,0,1,.75-4.63,9.75,9.75,0,0,1,2.61-4,16.24,16.24,0,0,1,5-3.08,30.65,30.65,0,0,1,8.12-1.87l12.42-1.12V134.1a6.65,6.65,0,0,0-1.54-4.72q-1.55-1.64-5.74-1.63a50.13,50.13,0,0,0-7.19.56,41.61,41.61,0,0,0-6.82,1.49l-2.61-10.45a39,39,0,0,1,4.62-1.54c1.71-.47,3.49-.87,5.32-1.22a54.57,54.57,0,0,1,5.56-.74c1.86-.16,3.7-.24,5.5-.24a35.63,35.63,0,0,1,8.08.84,16,16,0,0,1,6.11,2.76,12.35,12.35,0,0,1,3.88,5.08,19.81,19.81,0,0,1,1.35,7.75Zm-23-7.85a5.24,5.24,0,0,0-3.46,1.68,4.62,4.62,0,0,0-1,2.9,5.91,5.91,0,0,0,1.07,3.78,4.44,4.44,0,0,0,3.69,1.35,7.58,7.58,0,0,0,3.08-.7,10.16,10.16,0,0,0,2.89-1.91v-7.94Z"/><path d="M1086.93,173.68a21.23,21.23,0,0,1-2,3.87,12.48,12.48,0,0,1-2.71,3,11.78,11.78,0,0,1-3.82,2,18.22,18.22,0,0,1-5.33.7c-.43,0-1.18,0-2.24-.1s-2.28-.18-3.68-.37-2.9-.44-4.48-.75a28.73,28.73,0,0,1-4.62-1.3l2.05-11.67c.31.06.78.14,1.4.23s1.27.19,2,.28l1.91.24q.88.09,1.26.09c2.18.06,3.72-.2,4.62-.79a7.24,7.24,0,0,0,2.38-3.41l1.87-4.86h-8.21l-1.36-4c-.59-1.71-1.26-3.6-2-5.65s-1.51-4.2-2.29-6.44-1.54-4.4-2.29-6.49-1.43-4-2.05-5.65-1.09-3-1.4-4h-4.58v-12H1069l10.26,34.63h.38a22.44,22.44,0,0,1,.7-2.24q.6-1.77,1.35-4.2c.5-1.62,1-3.35,1.64-5.18l1.68-5.23c.52-1.65,1-3.08,1.4-4.3s.66-2,.79-2.38h-4.39v-11.1h25.67v11.1h-4.2Z"/><path d="M343.43,232.16h-2V218.29H325v13.87h-2V204h2v12.52h16.48V204h2Z"/><path d="M385.4,218c0,4.47-1.12,8-3.35,10.62a12.91,12.91,0,0,1-18.51,0q-3.36-3.9-3.36-10.66t3.39-10.6a13,13,0,0,1,18.5,0Q385.4,211.29,385.4,218Zm-23.07,0q0,6.06,2.7,9.37t7.75,3.3q5.1,0,7.79-3.28t2.69-9.39q0-6.11-2.69-9.35c-1.79-2.17-4.38-3.25-7.75-3.25a9.52,9.52,0,0,0-7.76,3.28Q362.33,212,362.33,218Z"/><path d="M402.16,232.16V204h2v26.36h13.45v1.85Z"/><path d="M432.72,232.16V204h2v28.21Z"/><path d="M474.37,217.79q0,7.1-3.73,10.73t-10.94,3.64H453V204h7.62q6.75,0,10.28,3.53T474.37,217.79Zm-2.14.07q0-6.06-3.08-9.11t-9-3.06h-5.19v24.73h4.67Q472.22,230.42,472.23,217.86Z"/><path d="M504.71,222.2H493.25l-3.94,10h-2.18l11.35-28.33h1.25l11.12,28.33h-2.22ZM494,220.43h10.09l-3.84-10.17c-.32-.8-.7-1.9-1.15-3.32a31.3,31.3,0,0,1-1.14,3.36Z"/><path d="M531.6,219.39,539.86,204H542l-9.4,17.31v10.9h-2V221.41L521.12,204h2.26Z"/><path d="M597.23,232.16h-2V218.29H578.76v13.87h-2V204h2v12.52h16.48V204h2Z"/><path d="M639.2,218c0,4.47-1.11,8-3.35,10.62a12.91,12.91,0,0,1-18.51,0Q614,224.74,614,218t3.39-10.6a13,13,0,0,1,18.5,0Q639.2,211.29,639.2,218Zm-23.07,0q0,6.06,2.7,9.37c1.8,2.2,4.38,3.3,7.76,3.3s6-1.09,7.78-3.28,2.69-5.31,2.69-9.39-.89-7.18-2.69-9.35-4.38-3.25-7.75-3.25a9.52,9.52,0,0,0-7.76,3.28Q616.13,212,616.13,218Z"/><path d="M668.37,232.16l-10.52-26h-.15c.1,1.6.15,3.23.15,4.9v21.15H656V204h3l10,24.82h.11l10-24.82h3v28.21h-2V210.78c0-1.49.08-3,.23-4.63h-.15l-10.56,26Z"/><path d="M715.75,232.16H700.33V204h15.42v1.81H702.3v10.68H715v1.81H702.3v12.1h13.45Z"/><path d="M748,224.89a6.76,6.76,0,0,1-2.6,5.59,10.75,10.75,0,0,1-6.9,2.07,21.57,21.57,0,0,1-7.93-1.14v-2a20.12,20.12,0,0,0,7.78,1.29,8.74,8.74,0,0,0,5.51-1.59,5.06,5.06,0,0,0,2-4.18,4.83,4.83,0,0,0-.67-2.65,6.24,6.24,0,0,0-2.2-1.92,27.27,27.27,0,0,0-4.48-1.87q-4.32-1.49-6-3.21a6.4,6.4,0,0,1-1.65-4.61,6.33,6.33,0,0,1,2.48-5.16,9.85,9.85,0,0,1,6.38-2,18.66,18.66,0,0,1,7.46,1.5l-.71,1.7a17.38,17.38,0,0,0-6.72-1.47,7.82,7.82,0,0,0-5,1.45,4.72,4.72,0,0,0-1.86,3.94,5.13,5.13,0,0,0,.57,2.56A5.3,5.3,0,0,0,735.4,215a26.72,26.72,0,0,0,4.44,1.92,23.51,23.51,0,0,1,5,2.21,6.92,6.92,0,0,1,2.42,2.43A6.59,6.59,0,0,1,748,224.89Z"/><path d="M786.73,219.87v12.29h-2V204h6.72c3.5,0,6.08.65,7.76,1.94a6.92,6.92,0,0,1,2.5,5.84,7.59,7.59,0,0,1-1.49,4.78,8.33,8.33,0,0,1-4.55,2.8l7.67,12.85H801l-7.27-12.29Zm0-1.7h5.39a8.57,8.57,0,0,0,5.53-1.59,5.67,5.67,0,0,0,2-4.7,5.51,5.51,0,0,0-1.93-4.69c-1.28-1-3.38-1.46-6.29-1.46h-4.67Z"/><path d="M833.94,232.16H818.52V204h15.42v1.81H820.49v10.68h12.7v1.81h-12.7v12.1h13.45Z"/><path d="M871.11,232.16h-2l-16.71-25h-.16c.16,3,.23,5.23.23,6.75v18.29H850.6V204h2l16.69,25h.12q-.18-3.48-.18-6.6V204h1.91Z"/><path d="M896.73,232.16h-2V205.8h-9.16V204H905.9v1.85h-9.17Z"/><path d="M933.94,222.2H922.48l-3.94,10h-2.18l11.35-28.33H929l11.12,28.33h-2.22Zm-10.75-1.77h10.1l-3.84-10.17c-.33-.8-.71-1.9-1.16-3.32a31.3,31.3,0,0,1-1.14,3.36Z"/><path d="M954.35,232.16V204h2v26.36h13.45v1.85Z"/><path d="M1005.44,232.16V204h2v26.36h13.45v1.85Z"/><path d="M1036,232.16V204h2v26.36h13.45v1.85Z"/><path d="M1078.59,205.32a10.64,10.64,0,0,0-8.35,3.4q-3,3.39-3,9.3t2.88,9.38q2.87,3.33,8.22,3.33a22.44,22.44,0,0,0,6.52-.9v1.73a21.22,21.22,0,0,1-7,1,11.89,11.89,0,0,1-9.36-3.84q-3.4-3.84-3.41-10.73a16.75,16.75,0,0,1,1.63-7.58,11.81,11.81,0,0,1,4.69-5.07,13.85,13.85,0,0,1,7.11-1.78,17.08,17.08,0,0,1,7.39,1.54l-.79,1.77A14.44,14.44,0,0,0,1078.59,205.32Z"/></g></g></svg>