<?xml version="1.0" standalone="no"?>
<!DOCTYPE svg PUBLIC "-//W3C//DTD SVG 20010904//EN"
 "http://www.w3.org/TR/2001/REC-SVG-20010904/DTD/svg10.dtd">
<svg version="1.0" xmlns="http://www.w3.org/2000/svg"
 width="800.000000pt" height="800.000000pt" viewBox="0 0 800.000000 800.000000"
 preserveAspectRatio="xMidYMid meet">
<metadata>
Created by potrace 1.14, written by Peter Selinger 2001-2017
</metadata>
<g transform="translate(0.000000,800.000000) scale(0.100000,-0.100000)"
fill="#000000" stroke="none">
<path d="M1020 7995 c0 -6 110 -166 120 -175 3 -3 10 -13 15 -22 9 -16 40 -61
169 -246 28 -41 56 -81 61 -90 6 -10 13 -19 16 -22 3 -3 30 -41 59 -85 30 -44
60 -86 67 -93 7 -7 13 -17 13 -22 0 -5 6 -15 13 -22 6 -7 41 -56 76 -108 36
-52 68 -96 73 -98 4 -2 8 -8 8 -14 0 -5 8 -20 18 -33 9 -12 23 -31 30 -41 7
-11 35 -50 62 -89 28 -38 53 -78 56 -87 3 -10 9 -18 13 -18 3 0 15 -15 26 -32
10 -18 23 -37 27 -43 5 -5 65 -91 133 -190 68 -99 138 -200 155 -225 18 -25
83 -119 145 -210 63 -91 118 -170 123 -176 5 -5 15 -21 22 -34 7 -14 18 -30
25 -36 6 -6 31 -42 55 -80 25 -38 51 -76 57 -84 10 -12 74 -104 243 -350 6 -8
32 -45 58 -82 126 -179 172 -248 172 -257 0 -5 4 -11 9 -13 4 -1 100 -136 211
-298 210 -304 239 -345 341 -490 33 -47 87 -125 121 -173 33 -48 62 -86 63
-85 22 31 318 456 339 488 16 25 32 47 35 50 4 3 44 61 90 130 47 69 87 127
90 130 3 3 11 12 16 21 9 16 91 136 139 204 12 17 24 32 29 33 4 2 7 7 7 12 0
5 60 96 134 202 174 250 194 279 342 493 68 99 128 187 134 195 6 8 76 110
156 225 81 116 163 235 182 265 20 30 40 60 45 65 20 25 167 236 167 241 0 3
5 10 10 17 13 15 97 135 173 247 32 47 85 123 118 170 33 47 76 110 96 140 19
30 38 57 42 60 3 3 11 12 16 22 8 14 69 103 159 233 12 17 23 32 26 35 3 3 10
12 15 22 10 17 112 165 174 253 19 28 48 70 65 95 17 25 36 51 43 58 7 7 13
15 13 18 0 2 -137 4 -305 4 -183 0 -305 -4 -305 -9 0 -6 -42 -70 -93 -143 -51
-73 -115 -167 -142 -208 -28 -41 -55 -80 -60 -86 -6 -6 -28 -37 -50 -70 -22
-32 -42 -61 -45 -64 -3 -3 -26 -36 -52 -75 -26 -38 -70 -104 -99 -145 -28 -41
-75 -109 -103 -150 -28 -41 -53 -77 -56 -80 -3 -3 -28 -39 -56 -80 -28 -41
-99 -144 -158 -228 -58 -85 -106 -158 -106 -162 0 -5 -4 -10 -8 -12 -4 -1 -37
-46 -72 -98 -36 -52 -67 -97 -70 -100 -3 -3 -25 -34 -49 -70 -25 -36 -48 -66
-53 -68 -4 -2 -8 -8 -8 -13 0 -5 -41 -69 -92 -142 -50 -72 -115 -166 -142
-207 -28 -41 -53 -77 -56 -80 -3 -3 -23 -32 -45 -65 -22 -33 -43 -62 -46 -65
-3 -3 -50 -70 -104 -150 -122 -180 -139 -204 -145 -210 -10 -10 -70 -101 -70
-106 0 -3 -6 -12 -12 -19 -20 -22 -30 -36 -73 -100 -22 -33 -43 -64 -48 -70
-4 -5 -35 -49 -68 -97 -33 -49 -63 -88 -67 -88 -4 0 -33 37 -64 83 -168 244
-202 292 -210 295 -4 2 -8 8 -8 13 0 6 -21 40 -47 77 -26 37 -75 108 -109 157
-35 50 -67 95 -72 101 -5 5 -15 21 -22 34 -7 13 -17 29 -22 34 -12 13 -165
234 -260 376 -39 58 -74 107 -77 110 -3 3 -44 61 -90 130 -47 69 -87 127 -90
130 -3 3 -44 61 -90 130 -46 69 -87 127 -90 130 -3 3 -33 46 -66 95 -33 50
-62 92 -65 95 -3 3 -34 48 -70 100 -35 52 -68 97 -72 98 -4 2 -8 8 -8 13 0 11
-71 113 -82 117 -5 2 -8 9 -8 16 0 7 -9 21 -20 31 -11 10 -20 24 -20 32 0 7
-4 13 -10 13 -5 0 -10 6 -10 14 0 8 -3 16 -8 18 -4 2 -32 39 -62 83 -29 44
-60 86 -67 93 -7 7 -13 17 -13 21 0 4 -11 21 -25 37 -14 16 -25 32 -25 36 0 4
-7 16 -15 25 -17 22 -137 194 -265 383 l-95 139 -297 1 c-164 0 -298 -2 -298
-5z"/>
<path d="M2740 7991 c0 -5 6 -16 13 -23 7 -7 46 -62 87 -123 41 -60 78 -111
82 -113 5 -2 8 -10 8 -17 0 -7 3 -15 8 -17 4 -1 26 -30 48 -63 23 -33 61 -89
85 -125 24 -36 49 -70 54 -76 6 -7 39 -56 75 -109 36 -53 81 -118 100 -145 81
-112 316 -453 325 -471 5 -10 13 -19 17 -19 5 0 8 -7 8 -15 0 -8 3 -15 8 -15
4 0 23 -25 42 -55 19 -30 38 -55 43 -55 4 0 7 -4 7 -9 0 -6 25 -45 56 -88 54
-76 84 -105 84 -84 0 9 65 105 99 147 4 5 14 21 21 34 7 13 17 29 22 34 4 6
20 25 33 41 14 17 28 38 31 48 3 9 10 17 15 17 5 0 9 6 9 14 0 8 3 16 8 18 4
2 26 30 48 63 23 33 71 103 107 155 36 52 100 145 142 205 41 61 96 139 121
175 25 36 66 97 92 135 26 39 49 72 52 75 3 3 23 32 45 65 22 33 43 62 46 65
3 3 14 20 24 38 11 17 23 32 27 32 4 0 8 7 8 15 0 8 4 15 8 15 5 0 14 11 20
25 7 14 17 31 23 38 17 20 119 167 119 172 0 3 -133 5 -296 5 -295 0 -296 0
-315 -22 -10 -13 -18 -26 -19 -30 0 -4 -7 -16 -15 -25 -8 -10 -84 -119 -169
-243 -85 -124 -160 -230 -165 -237 -6 -7 -11 -16 -11 -22 0 -5 -4 -11 -9 -13
-7 -3 -27 -31 -76 -106 -13 -21 -21 -32 -43 -61 l-19 -24 -33 49 c-19 27 -40
55 -47 62 -7 7 -13 17 -13 22 0 5 -6 15 -12 22 -7 7 -42 56 -78 108 -35 52
-68 97 -72 98 -4 2 -8 8 -8 13 0 7 -85 134 -117 174 -4 6 -26 37 -48 70 -22
33 -46 66 -52 73 -7 7 -13 17 -13 22 0 5 -12 22 -26 39 l-26 31 -294 0 c-174
0 -294 -4 -294 -9z"/>
<path d="M960 3143 l0 -3143 245 0 c226 0 245 1 245 18 1 9 1 1071 1 2360 0
1288 2 2342 3 2342 2 0 16 -19 32 -42 16 -24 31 -45 34 -48 3 -3 14 -18 26
-35 34 -49 102 -148 270 -389 87 -125 164 -235 169 -245 19 -30 50 -76 62 -91
7 -8 77 -109 157 -225 79 -115 148 -215 153 -220 4 -6 37 -53 73 -105 35 -52
68 -99 72 -105 5 -5 41 -58 82 -116 73 -105 92 -144 75 -154 -4 -3 -6 -12 -3
-19 3 -8 6 -666 7 -1462 l2 -1449 242 0 c155 0 244 3 246 10 1 5 2 706 1 1556
l-1 1546 -29 39 c-16 21 -32 41 -35 44 -3 3 -14 19 -23 35 -9 17 -37 60 -64
96 -26 36 -90 129 -143 205 -53 76 -118 168 -143 204 -26 36 -49 73 -53 83 -3
9 -9 17 -14 17 -5 0 -14 10 -19 23 -6 12 -43 68 -83 124 -39 57 -110 158 -156
225 -46 68 -88 125 -93 126 -4 2 -8 9 -8 15 0 7 -14 28 -30 47 -17 19 -36 47
-43 63 -6 15 -15 27 -18 27 -4 0 -22 25 -40 55 -18 30 -37 55 -41 55 -4 0 -8
5 -8 10 0 6 -19 37 -43 70 -70 98 -121 171 -137 196 -8 12 -60 87 -115 166
-55 78 -118 169 -140 202 -120 176 -209 301 -217 304 -4 2 -8 9 -8 16 0 7 -8
22 -17 34 -10 11 -25 30 -33 42 -8 12 -23 33 -32 45 -10 13 -18 28 -18 33 0 6
-4 12 -8 14 -5 2 -23 26 -42 53 -18 28 -36 52 -39 55 -3 3 -10 13 -16 22 -17
28 -88 133 -94 138 -3 3 -10 12 -16 21 -28 46 -106 159 -117 170 -8 8 -23 30
-36 49 l-22 35 0 -3142z"/>
<path d="M6730 6192 c-30 -46 -60 -89 -66 -95 -6 -7 -19 -25 -30 -42 -10 -16
-22 -34 -27 -40 -4 -5 -64 -91 -132 -190 -68 -99 -127 -184 -132 -190 -4 -5
-31 -44 -58 -85 -28 -41 -53 -79 -58 -85 -61 -82 -77 -105 -77 -114 0 -5 -4
-11 -8 -13 -4 -1 -43 -55 -87 -118 -43 -63 -93 -135 -110 -160 -17 -25 -62
-90 -100 -145 -38 -55 -71 -102 -74 -105 -3 -3 -44 -61 -90 -130 -46 -69 -88
-126 -93 -128 -4 -2 -8 -7 -8 -12 0 -5 -55 -86 -121 -181 -67 -96 -126 -184
-132 -196 -6 -13 -13 -23 -16 -23 -4 0 -27 -30 -51 -67 -24 -38 -48 -69 -52
-71 -4 -2 -8 -10 -8 -18 0 -8 -4 -14 -10 -14 -5 0 -10 -6 -10 -14 0 -8 -4 -16
-8 -18 -5 -1 -23 -25 -42 -53 -18 -27 -36 -52 -39 -55 -3 -3 -10 -13 -16 -22
-36 -60 -140 -208 -147 -208 -4 0 -8 -5 -8 -11 0 -9 -44 -77 -73 -114 -5 -5
-44 -62 -87 -125 -44 -63 -83 -119 -87 -125 -5 -5 -23 -32 -40 -58 -32 -49
-32 -50 -33 -180 0 -147 0 -145 1 -224 0 -32 0 -67 0 -78 -1 -11 -1 -47 0 -80
0 -33 0 -69 0 -80 -1 -11 -1 -47 0 -80 0 -33 0 -69 -1 -80 -1 -18 -1 -1420 0
-1452 1 -35 1 -130 1 -148 -1 -11 -1 -47 0 -80 0 -33 0 -69 0 -80 -1 -11 -1
-47 0 -80 0 -33 0 -69 0 -80 -1 -11 0 -112 1 -225 l3 -205 235 -1 c129 0 240
3 245 7 7 5 10 511 9 1486 l-1 1478 65 95 c36 52 73 105 81 116 9 12 22 30 29
40 106 156 237 343 249 357 9 9 12 17 7 17 -5 0 -4 4 3 8 6 4 31 37 56 72 24
36 61 90 83 121 87 125 160 231 169 247 6 9 18 25 28 36 9 11 17 23 17 27 0 4
6 14 13 21 6 7 26 33 42 58 17 25 34 50 38 55 4 6 39 55 77 110 38 55 72 105
77 111 4 5 13 18 18 27 41 66 142 206 150 207 7 0 10 -791 10 -2352 l0 -2353
245 0 245 0 0 3128 c0 1721 -2 3132 -5 3136 -3 4 -30 -31 -60 -77z"/>
</g>
</svg>
