<svg width="50" height="50" fill="none" xmlns="http://www.w3.org/2000/svg"><path opacity=".3" fill-rule="evenodd" clip-rule="evenodd" d="M42.513 14.033a2.083 2.083 0 0 1 1.237 1.904v18.254a2.08 2.08 0 0 1-1.072 1.82l-16.666 9.26c-.63.35-1.395.35-2.024 0l-16.666-9.26a2.083 2.083 0 0 1-1.072-1.82V15.937c0-.823.485-1.57 1.237-1.904l16.667-7.407a2.083 2.083 0 0 1 1.692 0l16.667 7.407Z" fill="#000"/><path fill-rule="evenodd" clip-rule="evenodd" d="m31.181 8.8-15.348 8.528v9.559L20 28.97v-9.19l15.948-8.86L31.18 8.8Z" fill="#000"/></svg>