<svg width="50" height="50" fill="none" xmlns="http://www.w3.org/2000/svg"><path fill-rule="evenodd" clip-rule="evenodd" d="M37.5 12.5h-25v8.333c.02.01 6.25 3.133 6.25 8.334v14.666a2 2 0 0 0 2 2h8.5a2 2 0 0 0 2-2V29.167c0-3.58 6.234-8.322 6.25-8.334V12.5ZM20.833 24.917a2 2 0 0 1 2-2h4.334a2 2 0 0 1 2 2v8.5a2 2 0 0 1-2 2h-4.334a2 2 0 0 1-2-2v-8.5Zm6.25 2.166a2.083 2.083 0 1 1-4.166 0 2.083 2.083 0 0 1 4.166 0Z" fill="#000"/><path opacity=".3" d="M12.5 5.167a1 1 0 0 1 1-1h23a1 1 0 0 1 1 1v3.166h-25V5.167Z" fill="#000"/></svg>