<svg width="51" height="50" fill="none" xmlns="http://www.w3.org/2000/svg"><path opacity=".3" fill-rule="evenodd" clip-rule="evenodd" d="M8.03 7.523a1 1 0 0 0-1.225.707L.852 30.446a1 1 0 0 0 .707 1.225l40.328 10.806a1 1 0 0 0 1.225-.707l5.952-22.217a1 1 0 0 0-.707-1.224L8.03 7.523Zm24.978 19.634a8.333 8.333 0 1 1-16.1-4.314 8.333 8.333 0 0 1 16.1 4.314Z" fill="#000"/><path fill-rule="evenodd" clip-rule="evenodd" d="M4.083 12.5a1 1 0 0 0-1 1v23a1 1 0 0 0 1 1h41.75a1 1 0 0 0 1-1v-23a1 1 0 0 0-1-1H4.084ZM33.292 25a8.333 8.333 0 1 1-16.667 0 8.333 8.333 0 0 1 16.667 0Zm-8.334 4.167a4.167 4.167 0 1 0 0-8.334 4.167 4.167 0 0 0 0 8.334Z" fill="#000"/></svg>