<svg width="50" height="50" fill="none" xmlns="http://www.w3.org/2000/svg"><path opacity=".3" fill-rule="evenodd" clip-rule="evenodd" d="m8.334 8.333 16.298-3.056a2 2 0 0 1 .737 0l16.298 3.056v23.07a11 11 0 0 1-5.17 9.328L25.53 47.585a1 1 0 0 1-1.06 0l-10.966-6.854a11 11 0 0 1-5.17-9.328V8.333Z" fill="#000"/><path fill-rule="evenodd" clip-rule="evenodd" d="M23.281 30.73c-.499 0-.998-.2-1.397-.6l-3.994-3.993c-.798-.799-.798-1.996 0-2.795.8-.799 2.097-.799 2.796 0l2.595 2.596 6.589-6.589c.798-.799 1.996-.799 2.795 0 .798.799.798 1.997 0 2.795l-7.986 7.986c-.4.4-.899.6-1.398.6Z" fill="#000"/></svg>