<svg width="50" height="50" fill="none" xmlns="http://www.w3.org/2000/svg"><path opacity=".3" d="M29.777 34.806a2.083 2.083 0 1 1 2.946-2.946l8.333 8.334a2.083 2.083 0 1 1-2.946 2.946l-8.333-8.334Z" fill="#000"/><path fill-rule="evenodd" clip-rule="evenodd" d="M8.334 22.917c0 8.054 6.529 14.583 14.583 14.583S37.5 30.97 37.5 22.917c0-8.055-6.529-14.584-14.583-14.584S8.333 14.863 8.333 22.917Zm25 0c0 5.753-4.664 10.416-10.417 10.416S12.5 28.67 12.5 22.917 17.164 12.5 22.917 12.5s10.416 4.664 10.416 10.417Z" fill="#000"/></svg>