<svg width="723" height="393" fill="none" xmlns="http://www.w3.org/2000/svg"><path d="M155 207.7c.8-5.5-7-10-12.8-10.4-2.8-.2-5.6.2-8.3-.7-5.7-2-7.9-9.3-13.5-11.7-4.1-1.7-8.9-.2-12.9 1.8s-8 4.6-12.5 4.9c-3.9.2-8.1-1.2-11.6.7-2.5 1.4-3.9 4.4-6.2 6.1-2.3 1.7-5.3 2.1-8.1 2.2-2.8.2-5.8.2-8.4 1.4-2.6 1.2-4.7 3.9-4.2 6.7l98.5-1ZM649.5 17.2c.5-3.9-5-7.1-9.1-7.5-2-.2-4 .1-5.9-.5-4.1-1.4-5.7-6.7-9.7-8.3-3-1.3-6.4-.1-9.3 1.3-2.9 1.4-5.7 3.3-8.9 3.5-2.8.2-5.8-.9-8.3.5-1.8 1-2.8 3.1-4.5 4.4-1.6 1.2-3.8 1.5-5.8 1.6-2 .1-4.1.1-6 1-1.9.8-3.4 2.8-3 4.8l70.5-.8Z" fill="#EBEBEB"/><path d="M352.7 133.1c-.5 0-1-.4-1-1V73l-47.6 58.3c-.3.4-1 .5-1.4.1-.4-.3-.5-1-.1-1.4l49.3-60.5c.3-.3.7-.4 1.1-.3.4.1.7.5.7.9v61.8c-.1.8-.5 1.2-1 1.2Z" fill="#E0E0E0"/><path d="M144.3 148.7c-.4 0-.8-.2-.9-.6-.2-.5.1-1.1.6-1.3l208.3-77.4c.4-.1.8 0 1.1.3l53 61.8c.4.4.3 1-.1 1.4-.4.4-1 .3-1.4-.1l-52.6-61.3-207.7 77.2h-.3Z" fill="#E0E0E0"/><path d="m118.6 143.6 13.9 8.3h330.8v-8.3H118.6Z" fill="#E0E0E0"/><path d="M303.3 130.8h-5.5v158.7h5.5V130.8Zm57.4 0h-5.5v158.7h5.5V130.8Z" fill="#E0E0E0"/><path d="M410.1 288.2H292v6.4h118.1v-6.4Zm-49.1-68h-60.4v6.4H361v-6.4Z" fill="#E0E0E0"/><path d="M347.3 130.8h-5.5v158.7h5.5V130.8Zm58.4 1.3h-5.5v158.7h5.5V132.1Z" fill="#E0E0E0"/><path d="M304.1 222.8c-.1 0-.3 0-.4-.1-.5-.2-.7-.8-.5-1.3l41.6-87.3c.2-.5.8-.7 1.3-.5.5.2.7.8.5 1.3L305 222.2c-.1.4-.5.6-.9.6Zm55.5-1.6c-.1 0-.3 0-.4-.1-.5-.2-.7-.8-.4-1.3 1.7-3.4 40.6-82.2 41.1-83.3.3-.5.8-.7 1.3-.4.5.3.7.8.4 1.3-.5 1-40.7 82.4-41.1 83.2-.2.4-.5.6-.9.6Z" fill="#EBEBEB"/><path d="M311.3 294.6h-23.7v5.7h23.7v-5.7Zm44.2-.8h-23.7v5.7h23.7v-5.7Zm56.6 0h-23.7v5.7h23.7v-5.7Z" fill="#E0E0E0"/><path d="M416.6 299.4h-137v5.2h137v-5.2Zm-7.1-168.6H295.7v7.4h113.8v-7.4Zm-4.6 89.4h-59.2v6.4h59.2v-6.4ZM136.8 359.9h-33V372h33v-12.1Z" fill="#E0E0E0"/><path d="M111.5 358.5h-33v12.1h33v-12.1Z" fill="#EBEBEB"/><path d="M43.4 357.5h-33v12.1h33v-12.1Z" fill="#E0E0E0"/><path d="M41.3 345.4h-33v12.1h33v-12.1Z" fill="#EBEBEB"/><path d="M51 341.1v-5.6h5.2v5.3l-5.2.3Z" fill="#E0E0E0"/><path d="M83.4 335.5H56.3v5.2h27.1v-5.2Z" fill="#F5F5F5"/><path d="M50 340.8h-9.5v29.3H50v-29.3Z" fill="#E0E0E0"/><path d="M83.3 340.8H49.9V370h33.5l-.1-29.2Z" fill="#F5F5F5"/><path d="M59.7 337.1H59v1.8h.7v-1.8Zm1.3 0h-.7v1.8h.7v-1.8Zm3.9 0h-.7v1.8h.7v-1.8Zm1.3 0h-.7v1.8h.7v-1.8Zm4 0h-.7v1.8h.7v-1.8Zm1.2 0h-.7v1.8h.7v-1.8Zm4 0h-.7v1.8h.7v-1.8Zm1.3 0H76v1.8h.7v-1.8Zm3.9 0h-.7v1.8h.7v-1.8Zm1.3 0h-.7v1.8h.7v-1.8Zm-12.4-1.6h-9.2l1.3-17.4h6.3l1.6 17.4Z" fill="#E0E0E0"/><path d="M68.6 326H61l.2-2.9h7.2l.2 2.9Zm.6 6h-8.7l.3-2.9h8.1l.3 2.9Z" fill="#fff"/><path d="M95 358.5H62v12.1h33v-12.1Z" fill="#E0E0E0"/><path d="M99.2 346.4h-33v12.1h33v-12.1ZM.6 370l4.2 22.2h165.4s0-6.3 9.2-14.5 9.8-17.7 9.8-17.7l-51.3.4-7.4 9.4-126.4.2H.6Z" fill="#EBEBEB"/><path d="M.6 370h9.5c6.2 0 15.3-.1 26.7-.1 22.9-.1 55.4-.2 93.8-.3l-.2.1c2.3-2.9 4.8-6.1 7.4-9.4l.1-.1h.1c16-.1 33.3-.3 51.3-.4h.3v.3c-.3 2.7-1.1 5.3-2.3 7.8-1.2 2.5-2.7 4.9-4.6 7.1-1.2 1.4-2.6 2.7-3.9 3.9-1.3 1.2-2.6 2.6-3.7 4s-2.1 2.9-2.9 4.5c-.8 1.6-1.4 3.3-1.5 5v.3h-.2c-73.1-.1-134.8-.1-165.4-.1H5v-.1c-1.4-7.2-2.4-12.8-3.1-16.6-.3-1.9-.6-3.3-.8-4.2-.4-1.2-.5-1.7-.5-1.7l.3 1.5c.2 1 .5 2.4.8 4.2.7 3.7 1.8 9.3 3.2 16.5l-.1-.1c30.6 0 92.4-.1 165.4-.1l-.3.3c.1-1.9.8-3.6 1.6-5.2s1.8-3.1 3-4.6c1.1-1.4 2.4-2.8 3.8-4 1.4-1.3 2.7-2.5 3.9-3.9 1.9-2.1 3.4-4.5 4.5-6.9 1.2-2.5 2-5.1 2.2-7.6l.3.3c-17.9.1-35.3.3-51.3.4l.2-.1c-2.6 3.3-5.1 6.5-7.4 9.4l-.1.1h-.1c-38.3 0-70.8.1-93.8.1H1.1c-.3-.3-.5-.3-.5-.3Z" fill="#E0E0E0"/><path d="m4.9 392.2-1.2-6.5h169s-2.2 3.6-2.3 6.5H4.9ZM611.6 185c-.5 0-1-.4-1-1v-59L563 183.3c-.3.4-1 .5-1.4.1-.4-.3-.5-1-.1-1.4l49.3-60.5c.3-.3.7-.4 1.1-.3.4.1.7.5.7.9v61.8c0 .7-.5 1.1-1 1.1Z" fill="#E0E0E0"/><path d="M403.3 200.7c-.4 0-.8-.2-.9-.6-.2-.5.1-1.1.6-1.3l208.3-77.4c.4-.1.8 0 1.1.3l53 61.8c.4.4.3 1-.1 1.4-.4.4-1 .3-1.4-.1l-52.6-61.3-207.7 77.2c-.1-.1-.2 0-.3 0Z" fill="#E0E0E0"/><path d="m377.5 195.6 14 8.2h330.7v-8.2H377.5Z" fill="#E0E0E0"/><path d="M562.3 182.7h-5.5v158.7h5.5V182.7Zm57.3 0h-5.5v158.7h5.5V182.7Z" fill="#E0E0E0"/><path d="M669 340.1H550.9v6.4H669v-6.4Zm-49.1-67.9h-60.4v6.4h60.4v-6.4Z" fill="#E0E0E0"/><path d="M606.2 182.7h-5.5v158.7h5.5V182.7Zm58.4 1.4h-5.5v158.7h5.5V184.1Z" fill="#E0E0E0"/><path d="M563.1 274.7c-.1 0-.3 0-.4-.1-.5-.2-.7-.8-.5-1.3l41.6-87.3c.2-.5.8-.7 1.3-.5.5.2.7.8.5 1.3L564 274.2c-.2.3-.6.5-.9.5Zm55.4-1.6c-.1 0-.3 0-.4-.1-.5-.2-.7-.8-.4-1.3 1.7-3.4 40.6-82.2 41.1-83.3.3-.5.8-.7 1.3-.4.5.3.7.8.4 1.3-.5 1-40.7 82.4-41.1 83.2-.1.4-.5.6-.9.6Z" fill="#EBEBEB"/><path d="M570.2 346.5h-23.7v5.7h23.7v-5.7Zm44.2-.8h-23.7v5.7h23.7v-5.7Zm56.6 0h-23.7v5.7H671v-5.7Z" fill="#E0E0E0"/><path d="M675.5 351.3h-137v5.2h137v-5.2Zm-7-168.6H554.7v7.4h113.8v-7.4Zm-4.6 89.5h-59.2v6.4h59.2v-6.4Z" fill="#E0E0E0"/><path d="M294.4 39.9c1-7.1-9.1-13-16.7-13.6-3.6-.3-7.4.3-10.8-.9-7.4-2.6-10.4-12.2-17.6-15.2-5.4-2.3-11.6-.3-16.9 2.4-5.2 2.6-10.4 6-16.3 6.3-5.1.3-10.6-1.6-15.1.9-3.3 1.9-5.1 5.7-8.1 7.9s-6.9 2.7-10.6 2.9c-3.7.2-7.6.2-10.9 1.8-3.4 1.5-6.2 5.1-5.5 8.8l128.5-1.3Zm205.3 41c.7-5.4-6.9-9.9-12.7-10.4-2.8-.2-5.6.2-8.2-.7-5.6-2-7.9-9.3-13.4-11.6-4.1-1.7-8.9-.2-12.9 1.8s-7.9 4.5-12.4 4.8c-3.9.2-8.1-1.2-11.5.7-2.5 1.4-3.9 4.3-6.2 6-2.3 1.7-5.3 2-8.1 2.2-2.8.2-5.8.2-8.3 1.4-2.6 1.2-4.7 3.9-4.2 6.7l97.9-.9Z" fill="#EBEBEB"/></svg>