<svg width="62" height="49" fill="none" xmlns="http://www.w3.org/2000/svg"><path d="M40.4 48.7s-.6-.1-1.4-.3c-.9-.2-2.1-.6-3.4-1.1-1.3-.5-2.5-.9-3.3-1.3-.8-.4-1.3-.6-1.3-.7 0 0 .6.1 1.4.4 1 .3 2.1.7 3.3 1.2L39 48c.9.4 1.4.6 1.4.7Zm1.2-1.3s-.6-.1-1.4-.3c-.9-.2-2.1-.6-3.4-1.1-1.3-.5-2.5-.9-3.3-1.3-.8-.4-1.3-.6-1.3-.7 0 0 .6.1 1.4.4 1 .3 2.1.7 3.3 1.2l3.3 1.1c.8.5 1.4.7 1.4.7Z" fill="#263238"/><path d="M4.5 35.8s2.2-2.3 3.9-2.6c1.8-.3 16.2 2.1 16.2 2.1l23.3 8.8s-1.5 2.3-5.3 1.6c-3.8-.7-8.1-2-8.1-2s-3.3 2.2-7.7 2.1c-4.4 0-9.8-1.1-13.1-4.5-3.3-3.4-7.1-1.2-7.9-4.1-.2-1.3-1.3-1.4-1.3-1.4Z" fill="#E0E0E0"/><path d="M61.6 10.1c-1.5 2-3.1 4-4.9 5.8-.5.5-1.2 1.1-1.9 1.1 2.4-3 4.2-6.5 5.2-10.1-.7 1.1-1.5 2.2-2.4 3.3-.6.8-1.3 1.6-2 2.3-1.9 1.9-4.2 3.3-6.4 4.7-1.7 1.1-3.4 2.3-5.3 3.1-3.8 1.6-4 1.4-8.1 2.7-1.3.4-3.6.9-4.6 1.8-.5.4-.9 1-1.3 1.5-3.2 4.4-7.4 8-12.2 10.4l7.5 3.7c3.3.5 6.7-.5 9.5-2.3 2.8-1.9 4.9-4.5 6.6-7.4.4-.7.8-1.4 1.5-1.9.6-.4 1.2-.5 1.9-.7 1.1-.3 2.1-.9 2.9-1.8-.7.3-1.6.3-2.3.1 2.4-.9 4.7-1.9 7-3.1 2.1-1.1 4.2-2.4 5.5-4.3-.9.7-2 1.2-3.1 1.4 3.3-2.7 5.7-6.3 6.9-10.3Z" fill="#E0E0E0"/><path d="M8.4 35.1c-.1-.1-.3-.1-.5 0-.1.1-.2.3-.2.4 0 .3.2.7.5.8.3.1.7 0 .9-.3.2-.3.1-.7-.2-.9-.2-.1-.4-.2-.6-.2" fill="#263238"/><path d="M5.2 35.2S3.1 35 2 36 .5 38 .7 38.1c0 0 .5-.6 2.2-.7 1.7-.1 3.4 0 3.4 0l-1.1-2.2Z" fill="#FF725E"/><path d="M22.5 32.7c-2-3.1-4.1-6.3-6.1-9.4-.7-1.1-1.4-2.2-1.9-3.4-.9-2.5-.6-5.4-1.5-7.9-.3.6-.6 1.1-1 1.7 0-1.7-.2-3.4-.7-5-.4.7-.7 1.3-1.1 2 .1-2.3-.2-4.7-1-6.8-.9.6-1.5 1.6-1.8 2.6-.2-2.1-.5-4.2-1-6.2-3.3 4.4-4 10.1-4.1 15.5 0 1.1 0 2.1.2 3.2.3 1.1.9 2.2 1.6 3.1 2.8 4.2 6.5 7.9 8.3 12.7l12.1 2.7c-.5-.5-1.8-4.5-2-4.8Z" fill="#E0E0E0"/><path d="M41.3 30.6c.4-.7.8-1.4 1.5-1.9.6-.4 1.2-.5 1.9-.7 1.1-.3 2.1-.9 2.9-1.8-.7.3-1.6.3-2.3.1 2.4-.9 4.7-1.9 7-3.1 2.1-1.1 4.2-2.4 5.5-4.3-.9.7-2 1.2-3.1 1.4 3.2-2.6 5.7-6.2 6.9-10.2-1.5 2-3.1 4-4.9 5.8-.5.5-1.2 1.1-1.9 1.1 2.4-3 4.2-6.5 5.2-10.1-.7 1.1-1.5 2.2-2.4 3.3-.6.8-1.3 1.6-2 2.3-1.9 1.9-4.2 3.3-6.4 4.7-1.7 1.1-3.5 2.1-5.3 3.1l7.9-1.4-4.7 3.4 4.4-.7s-7.8 3.6-9.6 6c-1.8 2.4-1.4 4.5-1.4 4.5l.8-1.5ZM14.5 19.9c-.9-2.5-.6-5.4-1.5-7.9-.3.6-.6 1.1-1 1.7 0-1.7-.2-3.4-.7-5-.4.7-.7 1.3-1.1 2 .1-2.3-.2-4.7-1-6.8-.9.6-1.5 1.6-1.8 2.6-.2-2.1-.5-4.2-1-6.2-3.3 4.4-4 10.1-4.1 15.5 0 1.1 0 2.1.2 3.2L4 14.9S5.7 9.5 6.6 12c.9 2.6 2.9 6.9 2.9 6.9l.4-3.9s1.2 3.8 2.4 4.6c1.3.6 2.2.3 2.2.3Zm16.2 5.3c.1-.1.1 0 0 0 0 .1-.1.1-.1.2-.1.2-.3.4-.6.7-.5.6-1.2 1.4-2.1 2.5-.9 1-2 2.2-3.3 3.5-.6.6-1.3 1.3-2.1 2-.4.3-.8.6-1.3.9-.3.1-.6 0-.8 0-.3 0-.5 0-.8-.1-4.2-.5-7.9-1.2-10.6-1.6-.7-.1-1.2.1-1.7.4-.5.3-.9.5-1.2.8-.6.5-.9.8-.9.7l.2-.2c.1-.1.4-.4.7-.6.3-.2.7-.5 1.2-.8.5-.3 1.1-.5 1.8-.4 2.7.3 6.5 1 10.6 1.5.3 0 .5.1.8.1h.7c.4-.2.8-.5 1.2-.8.8-.6 1.4-1.3 2.1-1.9 1.3-1.3 2.4-2.5 3.4-3.5.9-1 1.6-1.8 2.2-2.4.2-.3.4-.5.6-.7-.1-.2 0-.3 0-.3s.1-.1 0 0c.1 0 0 0 0 0Z" fill="#263238"/><path d="M47.1 21.8s0 .1-.2.2c-.1.1-.3.3-.6.5-.5.4-1.3 1-2.4 1.5-1.1.5-2.5.9-4 1.3-.8.2-1.6.4-2.4.7-.8.3-1.5.8-2.2 1.4-1.4 1.2-2.3 2.6-3.3 3.9-1 1.3-2 2.3-2.9 3.1-.9.8-1.8 1.3-2.3 1.6-.3.2-.5.3-.7.4-.2.1-.2.1-.3.1l.9-.6c.6-.4 1.4-.9 2.3-1.7.9-.8 1.9-1.8 2.8-3.1 1-1.2 1.9-2.7 3.4-3.9.7-.6 1.5-1.1 2.3-1.4.8-.3 1.6-.5 2.4-.7 1.5-.4 2.9-.8 4-1.3s1.9-1 2.4-1.4c.6-.3.8-.6.8-.6Zm-23 21.1c0 .1-.7.2-1.5-.2s-1.2-1-1.1-1c.1-.1.6.4 1.3.7.6.4 1.3.4 1.3.5Zm3.3.4c0 .1-1.2.3-2.6-.2-1.4-.5-2.2-1.4-2.1-1.4.1-.1.9.7 2.2 1.1 1.3.5 2.5.4 2.5.5Z" fill="#263238"/></svg>