<svg width="54" height="79" fill="none" xmlns="http://www.w3.org/2000/svg"><path d="M13 40.2c.1-.1-1.1 0-1.9.1-1.1.2-1.8 1-2.5 1.8.3.1.6 0 .9 0 1.4-.1 2.4-.2 3.8-.1.2-.5.2-1.3-.3-1.8Z" fill="#FF725E"/><path d="M34 45.3c-4.3-.7-8.5-1.7-12.7-3.1-2.8 2.6-4.6 6.3-7.8 8.5-1.4 1-3.1 1.6-4.4 2.8-1.8 1.6-2.7 3.9-3.5 6.2-2.2 6.2-4 12.5-5.5 18.9l4.3-5.7-.1 3.4 5.9-9.6.6 3.1s9.9-8.8 13.7-12c3.7-3.3 7-7.3 7-7.3l2.5-5.2Zm-11.7-6.6s2.2-2.7 4-7.3c1.8-4.6 2.3-14.1 7.6-18C39.2 9.5 52.4.2 52.4.2L47 8l6.7-5.3s-1.9 4.3-5.6 7.6l5.4-2.5s-.7 5.8-3.1 6.2c-.3.1-1.9 2.2-1.9 2.2l.6 1.4S42.7 31.2 41 33.9c-1.7 2.7-6 8.1-6 8.1l-12.7-3.3Z" fill="#E0E0E0"/><path d="M12.8 40.6c.1-.2.3-2.6 4.2-2.7 3.9-.1 5.6.4 5.6.4s11.1 2.9 12.7 3.8c1.6.9 12.8-1.8 12.8-1.8s5.1 8.9-1.6 14.8c-6.7 5.9-10.4 3.7-10.4 3.7s-.6-7-3.4-8.8c0 0-5-.1-7.3-1.2-2.4-1.1-6.7-5.3-7.6-5.8-.9-.6-3.4-.2-4.3-.9-.9-.6-.7-1.5-.7-1.5Z" fill="#E0E0E0"/><path d="M16.2 40.1c0 .4-.4.8-.8.8s-.8-.4-.8-.8.4-.8.8-.8.8.3.8.8ZM49 17.5l-.6-1.4s1.5-2.1 1.9-2.2c2.4-.4 3.1-6.2 3.1-6.2L48 10.2c3.7-3.3 5.6-7.6 5.6-7.6L47 8 52.5.3S39.3 9.7 34 13.5l8.5-2.7-1.6 4 6.7-2.9s-1.4 2-.7 4c.8 2 2.1 1.6 2.1 1.6ZM10.8 69.8l-.6-3.1-5.9 9.6.1-3.4-4.3 5.7c1.4-6.4 3.3-12.7 5.5-18.9l-.1 5.8 3.3-2.4v4.2l2.9-2.7-.9 5.2Zm31.4-17.3s-.4-.3-1.2-.6c-.7-.3-1.8-.6-3-1.2-2.3-1.1-3.8-2.5-3.8-2.6.1-.1 1.7 1.2 3.9 2.2 1.1.5 2.2.9 3 1.3.8.5 1.1.9 1.1.9Zm1.5-2.5c0 .1-2-.2-4.3-1.1-2.3-.9-4-2-3.9-2.1.1-.1 1.8.9 4 1.7 2.3 1 4.2 1.4 4.2 1.5Zm-10.5-.3-.6.3c-.4.1-1 .3-1.7.5-.7.1-1.7.3-2.7.1-1-.1-2.1-.6-3-1.2-2-1.2-3.6-2.5-4.7-3.6-.5-.5-1-1-1.2-1.3-.3-.3-.4-.5-.4-.5s.7.6 1.8 1.6 2.7 2.3 4.7 3.5c1 .6 1.9 1.1 2.9 1.2 1 .2 1.8.1 2.6 0 1.4-.4 2.3-.7 2.3-.6Z" fill="#263238"/><path d="M41.8 12.7s-.3.3-.8.9c-.6.6-1.4 1.4-2.3 2.4-1 1-2.2 2.2-3.4 3.5-.6.7-1.2 1.5-1.3 2.4-.2 1-.1 2-.1 3.1.1 2.1 0 4.2-.5 6-.4 1.8-1.1 3.4-1.9 4.6-.8 1.2-1.6 2-2.2 2.6-.3.3-.5.4-.7.6-.2.1-.3.2-.3.2-.1-.1 1.5-1 2.9-3.4.7-1.2 1.4-2.7 1.8-4.5.4-1.8.5-3.8.4-5.9-.1-1.1-.1-2.1.1-3.2.2-1 .8-1.9 1.4-2.6l3.5-3.5c1-.9 1.8-1.7 2.4-2.3.7-.6 1-.9 1-.9Z" fill="#263238"/><path d="M48.1 19.2s-.2.2-.5.4-.8.5-1.4.9c-1.2.7-3 1.6-5 2.2-2 .7-4 1-5.4 1.1-.7.1-1.3.1-1.7.1h-.6c0-.1.9-.1 2.2-.3 1.4-.2 3.3-.6 5.3-1.2 2-.7 3.8-1.5 5-2.1 1.3-.7 2-1.1 2.1-1.1Zm.3-5.5-.3.6c-.3.3-.7.8-1.3 1.1-.6.4-1.4.8-2.3 1.2-.9.4-1.9.8-2.9 1.2-2.1.8-4 1.5-5.4 1.9-1.4.5-2.3.7-2.3.7s.8-.4 2.2-.9c1.5-.6 3.3-1.3 5.3-2 1-.4 2-.8 2.9-1.2.9-.4 1.7-.7 2.3-1.1 1.2-.7 1.7-1.5 1.8-1.5Zm-5 12.5s-.3.5-1.2.9c-.9.4-2.1.6-3.4.9-1.4.3-2.6.6-3.5.6-.9 0-1.5-.3-1.4-.4 0-.1.6.2 1.4.1.9 0 2.1-.4 3.4-.7 1.3-.3 2.6-.5 3.4-.8.8-.3 1.2-.6 1.3-.6Zm-36 38.4s0-.3.3-.9c.2-.6.6-1.4 1.2-2.2.6-.9 1.5-1.9 2.6-2.7 1.1-.9 2.6-1.5 4.1-2.2 1.5-.7 2.9-1.3 4-2.1s2-1.7 2.7-2.5c1.4-1.6 1.9-2.8 2-2.8 0 0-.1.3-.4.8-.3.5-.7 1.3-1.4 2.1s-1.6 1.8-2.7 2.6c-1.1.9-2.6 1.6-4 2.2-1.5.7-2.9 1.3-4 2.1s-2 1.7-2.6 2.6c-1.3 1.7-1.7 3-1.8 3Z" fill="#263238"/><path d="M13.3 66.2c-.1 0 .5-1.7.6-3.9.1-2.2-.4-3.9-.3-4 .1 0 .7 1.7.7 4-.1 2.2-.9 3.9-1 3.9Zm4.6-3.8c-.1 0 0-1.3-.2-2.9-.1-1.6-.3-2.9-.2-2.9.1 0 .5 1.2.6 2.9.1 1.7-.1 3-.2 2.9Zm3.8-3c-.1 0-.2-1.3-.5-2.9-.3-1.6-.7-2.8-.6-2.9.1 0 .6 1.2 1 2.8.2 1.7.2 3 .1 3Zm4.2-6.4c-.1.1-.6-.2-1.1-.7-.5-.5-.9-.9-.8-1 .1-.1.6.2 1.1.7.5.5.9 1 .8 1ZM36 39.8c-.1.1-1.2-.7-2.6-1.7-1.4-1-2.4-1.9-2.4-2 .1-.1 1.2.7 2.6 1.7 1.4 1 2.5 1.9 2.4 2Zm4.9-6.4c0 .1-1.8.9-4.2 1-1.2 0-2.3-.1-3.1-.1-.8-.1-1.3-.1-1.3-.1s.5-.1 1.3-.2c.8 0 1.9.1 3.1 0 2.4 0 4.2-.7 4.2-.6Z" fill="#263238"/></svg>