<svg width="65" height="62" fill="none" xmlns="http://www.w3.org/2000/svg"><path d="m45.163 43.212 3.163-1.498-10.186-21.51-3.163 1.498 10.186 21.51Z" fill="#455A64"/><path d="M38.2 20.1c.1 0 1.9 3.6 4 8.1 2.2 4.5 3.8 8.2 3.7 8.2-.1 0-1.9-3.6-4-8.1-2.2-4.5-3.8-8.2-3.7-8.2Zm-1.1 5.8c.1 0 1.9 3.6 4 8.1s3.8 8.2 3.7 8.2c-.1 0-1.9-3.6-4-8.1-2.1-4.4-3.8-8.1-3.7-8.2Z" fill="#263238"/><path d="m50.678 24.714-2.45-2.498-16.99 16.667 2.452 2.498 16.988-16.667Z" fill="#455A64"/><path d="M48.3 22.1c.1.1-2.8 2.9-6.3 6.4-3.6 3.5-6.5 6.2-6.6 6.2-.1-.1 2.8-2.9 6.3-6.4 3.6-3.5 6.5-6.2 6.6-6.2ZM47.2 28c.1.1-2.7 2.9-6.3 6.4-3.5 3.5-6.5 6.3-6.5 6.2-.1-.1 2.7-2.9 6.3-6.4 3.5-3.5 6.5-6.3 6.5-6.2Z" fill="#263238"/><path d="m47.9 18.7-8.2-1.5c-1.6-.3-2.6-1.8-2.3-3.3l1.5-8.4c.5-3 3.4-5 6.4-4.5l3 .5c3 .5 5 3.4 4.5 6.4l-1.5 8.4c-.3 1.7-1.8 2.7-3.4 2.4Z" fill="#455A64"/><path d="M52.122 11.655 38.339 9.199l-.456 2.56 13.783 2.455.456-2.56Zm.794-4.812L39.133 4.388l-.457 2.56L52.46 9.402l.457-2.56Z" fill="#fff"/><path d="M48.9 18.9h.6c.4-.1.9-.3 1.3-.9.2-.3.2-.7.3-1.1.1-.4.2-.9.2-1.4.2-1 .4-2.2.6-3.4.2-1.3.5-2.7.7-4.2.1-.4.1-.8.2-1.1.1-.4.2-.8.1-1.2 0-.8-.3-1.6-.8-2.2-1-1.4-3-1.3-4.8-1.7-.9-.2-1.8-.3-2.8-.5-.5-.1-1-.2-1.4-.2-.5 0-.9 0-1.4.1-.9.3-1.7.9-2.1 1.8-.2.4-.3.8-.4 1.3-.1.5-.2.9-.2 1.4-.3 1.8-.6 3.6-.9 5.3-.2.8-.3 1.7-.4 2.5-.1.4-.1.8-.2 1.2-.1.4-.2.8-.1 1.1.1.7.7 1.3 1.3 1.4.7.1 1.3.3 2 .4 2.5.5 4.6.9 6 1.1.7.1 1.2.2 1.6.3h.6s-.2 0-.6-.1c-.4-.1-1-.2-1.6-.3-1.5-.2-3.5-.6-6-1-.6-.1-1.3-.2-2-.4s-1.4-.8-1.5-1.6c-.1-.4 0-.8.1-1.2.1-.4.1-.8.2-1.2.1-.8.3-1.6.4-2.5.3-1.7.6-3.4.9-5.3.1-.5.2-.9.2-1.4.1-.5.2-1 .4-1.4.4-.9 1.3-1.6 2.3-1.9.5-.2 1-.2 1.5-.2.5.1 1 .2 1.4.2.9.2 1.9.3 2.8.5.9.2 1.8.3 2.7.5.9.2 1.8.7 2.3 1.4.6.7.8 1.6.8 2.4 0 .4-.1.8-.2 1.2-.1.4-.1.8-.2 1.1-.3 1.5-.5 2.9-.8 4.2-.2 1.3-.4 2.4-.6 3.4-.1.5-.2 1-.3 1.4-.1.4-.1.9-.4 1.2-.4.6-1 .8-1.4.9-.2.2-.4.1-.4.1Z" fill="#263238"/><path d="m52.329 19.605-3.446-.614-4.35 24.416 3.446.614 4.35-24.416Zm-13.783-1.903-3.445-.614-4.35 24.415 3.445.614 4.35-24.415Z" fill="#455A64"/><path d="m54.3 22.6-21.9-3.9c-1.1-.2-1.9-1.3-1.7-2.4l.1-.3c.2-1.1 1.3-1.9 2.4-1.7l21.9 3.9c1.1.2 1.9 1.3 1.7 2.4l-.1.3c-.2 1.2-1.2 1.9-2.4 1.7Z" fill="#455A64"/><path d="M54.6 22.7c0 .1-5-.7-11.2-1.8-6.2-1.1-11.2-2.1-11.1-2.2 0-.1 5 .7 11.2 1.8 6.1 1.1 11.1 2.1 11.1 2.2Zm.8-4.4c0 .1-5-.7-11.2-1.8-6.2-1.1-11.2-2.1-11.1-2.2 0-.1 5 .7 11.2 1.8 6.1 1.2 11.1 2.1 11.1 2.2Z" fill="#263238"/><path d="M34.2 42.1c-.1 0 .7-5 1.8-11.1s2.1-11.1 2.1-11.1c.1 0-.7 5-1.8 11.1s-2 11.1-2.1 11.1Zm10.3 1.8c-.1 0 .7-5 1.8-11.1s2.1-11.1 2.1-11.1c.1 0-.7 5-1.8 11.1s-2 11.1-2.1 11.1Z" fill="#263238"/><path d="M53.2 44.3 26 39.4c-1.8-.3-3.5.9-3.8 2.7l-3.3 18.8 34.8-.1L56 48.1c.1-1.8-1.1-3.5-2.8-3.8Z" fill="#455A64"/><path d="M53.6 60.8H18.8l2.3-13.1 33.7 6-1.2 7.1Zm-1.1-16.5c0 .1-5.8-.9-12.9-2.1-7.1-1.3-12.9-2.4-12.8-2.5 0-.1 5.8.9 12.9 2.1 7.1 1.3 12.9 2.4 12.8 2.5Z" fill="#263238"/><path d="M0 61.5c3-4 8.8-5.6 13.5-3.8 2 .8 3.9 2.1 6 2 2.2-.1 4.1-1.7 6.2-2.4 2.5-.8 5.2-.1 7.7.4 7.6 1.7 22.1 3.5 31.6 3.8" fill="#fff"/><path d="M65 61.5h-.7c-.5 0-1.1 0-2-.1-1.7-.1-4.2-.2-7.2-.5-3.1-.3-6.7-.6-10.7-1.2-4-.5-8.4-1.3-13-2.3-1.1-.2-2.3-.4-3.4-.4s-2.2.3-3.2.7c-1 .4-1.9 1-2.9 1.4-1 .4-2.1.7-3.1.6-1-.1-2-.5-2.9-.9-.9-.4-1.7-.8-2.5-1.1-1.7-.6-3.4-.8-4.9-.7-3.1.2-5.3 1.5-6.6 2.5-.7.5-1.1 1-1.4 1.3-.1.2-.3.3-.3.4l-.1.1s0-.1.1-.1c.1-.1.2-.2.3-.4.3-.4.7-.8 1.4-1.4 1.3-1.1 3.6-2.4 6.7-2.7 1.5-.1 3.3 0 5 .6 1.7.6 3.3 1.8 5.3 2 1 .1 2-.1 2.9-.6 1-.4 1.9-1 2.9-1.4 1-.5 2.2-.7 3.3-.7 1.2 0 2.3.1 3.5.4 4.6 1.1 8.9 1.8 13 2.3 4 .6 7.6 1 10.7 1.3 3 .3 5.5.5 7.2.6.8 0 1.5.1 2 .1h.5l.1.2Z" fill="#263238"/><path d="M13 51.8a1.8 1.8 0 1 0 0-3.6 1.8 1.8 0 0 0 0 3.6Z" fill="#FAFAFA"/><path d="M14.8 50s0-.2-.1-.4c-.1-.3-.3-.6-.7-.9-.4-.3-1-.4-1.6-.2-.6.2-1.1.8-1.1 1.5s.5 1.3 1.1 1.5c.6.2 1.2.1 1.6-.2.4-.3.6-.7.7-.9.1-.3.1-.4.1-.4s.1.2 0 .5c0 .3-.2.7-.6 1.1-.4.3-1.1.6-1.8.3-.7-.2-1.3-1-1.3-1.8 0-.9.6-1.6 1.3-1.8.7-.3 1.4 0 1.8.3.4.3.6.8.6 1.1.1.1.1.3 0 .3Z" fill="#263238"/></svg>