<svg width="464" height="273" fill="none" xmlns="http://www.w3.org/2000/svg"><path d="M371.3 214.5h-75.4v21.9h75.4v-21.9Z" fill="#FF725E"/><path opacity=".3" d="M371.4 214.5h-27v21.9h27v-21.9Z" fill="#000"/><path d="M343.3 235.5v-5.4c0-3.4-.1-8.3-.1-14.4l.2.2c-12 0-28.4 0-46.6.1l.3-.3v19.7l-.2-.2c13.5 0 25.1.1 33.3.1 4.1 0 7.4.1 9.7.1h3.3c0 .1.1.1.1.1h-3.5c-2.3 0-5.5 0-9.6.1-8.3 0-20 .1-33.5.1h-.2v-20l.3-.3c18.1 0 34.6.1 46.6.1h.2v.2c0 6.1-.1 11.1-.1 14.5v4.9c-.2.3-.2.4-.2.4Zm26.7 0V234c0-1 0-2.3-.1-4 0-3.5-.1-8.4-.1-14.3l.2.2h-24.5l.3-.3v19.7l-.2-.2c7.2 0 13.3.1 17.7.1 2.1 0 3.8 0 5 .1h1.3c.3.2.4.2.4.2h-1.7c-1.2 0-2.9 0-5 .1-4.4 0-10.5.1-17.8.1h-.2v-20l.3-.3h24.7v.2c0 6-.1 10.9-.1 14.4 0 1.7 0 3-.1 4v1c-.1.4-.1.5-.1.5Z" fill="#263238"/><path d="M298.5 235.3c-.1 0-.3-4.4-.3-9.8s.1-9.8.3-9.8c.1 0 .3 4.4.3 9.8s-.1 9.8-.3 9.8Zm2.2 0c-.1 0-.3-4.4-.3-9.8s.1-9.8.3-9.8c.1 0 .3 4.4.3 9.8-.1 5.4-.2 9.8-.3 9.8Zm2.1 0c-.1 0-.3-4.4-.3-9.8s.1-9.8.3-9.8c.1 0 .3 4.4.3 9.8s-.1 9.8-.3 9.8Zm2.2 0c-.1 0-.3-4.4-.3-9.8s.1-9.8.3-9.8c.2 0 .3 4.4.3 9.8-.1 5.4-.2 9.8-.3 9.8Zm2.1 0c-.1 0-.3-4.4-.3-9.8s.1-9.8.3-9.8c.2 0 .3 4.4.3 9.8s-.1 9.8-.3 9.8Zm2.2 0c-.1 0-.3-4.4-.3-9.8s.1-9.8.3-9.8c.1 0 .3 4.4.3 9.8-.1 5.4-.2 9.8-.3 9.8Zm2.1 0c-.1 0-.3-4.4-.3-9.8s.1-9.8.3-9.8c.2 0 .3 4.4.3 9.8s-.1 9.8-.3 9.8Zm2.2 0c-.1 0-.3-4.4-.3-9.8s.1-9.8.3-9.8c.2 0 .3 4.4.3 9.8-.1 5.4-.2 9.8-.3 9.8Zm2.1 0c-.1 0-.3-4.4-.3-9.8s.1-9.8.3-9.8c.2 0 .3 4.4.3 9.8s-.1 9.8-.3 9.8Zm2.2 0c-.1 0-.3-4.4-.3-9.8s.1-9.8.3-9.8c.2 0 .3 4.4.3 9.8-.1 5.4-.2 9.8-.3 9.8Zm2.1 0c-.1 0-.3-4.4-.3-9.8s.1-9.8.3-9.8c.2 0 .3 4.4.3 9.8s-.1 9.8-.3 9.8Zm2.2 0c-.1 0-.3-4.4-.3-9.8s.1-9.8.3-9.8c.1 0 .3 4.4.3 9.8-.1 5.4-.2 9.8-.3 9.8Zm2.1 0c-.1 0-.3-4.4-.3-9.8s.1-9.8.3-9.8c.1 0 .3 4.4.3 9.8s-.1 9.8-.3 9.8Zm2.2 0c-.1 0-.3-4.4-.3-9.8s.1-9.8.3-9.8c.1 0 .3 4.4.3 9.8-.1 5.4-.2 9.8-.3 9.8Zm2.1 0c-.1 0-.3-4.4-.3-9.8s.1-9.8.3-9.8c.1 0 .3 4.4.3 9.8s-.1 9.8-.3 9.8Zm2.2 0c-.1 0-.3-4.4-.3-9.8s.1-9.8.3-9.8c.1 0 .3 4.4.3 9.8-.1 5.4-.2 9.8-.3 9.8Zm2.1 0c-.1 0-.3-4.4-.3-9.8s.1-9.8.3-9.8c.2 0 .3 4.4.3 9.8s-.1 9.8-.3 9.8Zm2.2 0c-.1 0-.3-4.4-.3-9.8s.1-9.8.3-9.8c.2 0 .3 4.4.3 9.8-.1 5.4-.2 9.8-.3 9.8Zm2.1 0c-.1 0-.3-4.4-.3-9.8s.1-9.8.3-9.8c.2 0 .3 4.4.3 9.8s-.1 9.8-.3 9.8Zm2.2 0c-.1 0-.3-4.4-.3-9.8s.1-9.8.3-9.8c.2 0 .3 4.4.3 9.8-.1 5.4-.2 9.8-.3 9.8Zm2.1 0c-.1 0-.3-4.4-.3-9.8s.1-9.8.3-9.8c.2 0 .3 4.4.3 9.8s-.1 9.8-.3 9.8Zm6 0c-.1 0-.3-4.4-.3-9.8s.1-9.8.3-9.8c.2 0 .3 4.4.3 9.8s-.2 9.8-.3 9.8Zm2.2 0c-.1 0-.3-4.4-.3-9.8s.1-9.8.3-9.8c.1 0 .3 4.4.3 9.8s-.1 9.8-.3 9.8Zm2.2 0c-.1 0-.3-4.4-.3-9.8s.1-9.8.3-9.8c.2 0 .3 4.4.3 9.8s-.1 9.8-.3 9.8Zm2.2 0c-.1 0-.3-4.4-.3-9.8s.1-9.8.3-9.8c.2 0 .3 4.4.3 9.8s-.1 9.8-.3 9.8Zm2.3 0c-.1 0-.3-4.4-.3-9.8s.1-9.8.3-9.8c.1 0 .3 4.4.3 9.8-.1 5.4-.2 9.8-.3 9.8Zm2.2 0c-.1 0-.3-4.4-.3-9.8s.1-9.8.3-9.8c.2 0 .3 4.4.3 9.8-.1 5.4-.2 9.8-.3 9.8Zm2.2 0c-.1 0-.3-4.4-.3-9.8s.1-9.8.3-9.8c.2 0 .3 4.4.3 9.8s-.2 9.8-.3 9.8Zm2.2 0c-.1 0-.3-4.4-.3-9.8s.1-9.8.3-9.8c.1 0 .3 4.4.3 9.8s-.2 9.8-.3 9.8Zm2.2 0c-.1 0-.3-4.4-.3-9.8s.1-9.8.3-9.8c.1 0 .3 4.4.3 9.8s-.1 9.8-.3 9.8Zm2.2 0c-.1 0-.3-4.4-.3-9.8s.1-9.8.3-9.8c.2 0 .3 4.4.3 9.8s-.1 9.8-.3 9.8Z" fill="#263238"/><path d="M463.4 215.6h-35.3v21.9h35.3v-21.9Z" fill="#E0E0E0"/><path d="m399.7 206.2-29.2 8.8v22.1h57.6v-21.7l-28.4-9.2Z" fill="#E0E0E0"/><path d="M415.914 237.113h9.4v-13.3h-9.4v13.3Zm-44.362 0h9.401v-13.3h-9.401v13.3Zm27.726 0h14.8v-13.3h-14.8v13.3Zm-16.716 0h14.8v-13.3h-14.8v13.3Z" fill="#263238"/><path d="M399.7 206.2h43.2l20.4 9.4h-35.2l-28.4-9.4Z" fill="#FF725E"/><path d="M370.5 215s.2-.1.6-.2c.4-.1 1-.3 1.6-.5 1.5-.5 3.5-1.1 6.1-1.9 5.2-1.6 12.5-3.8 20.9-6.4h.2c3 1 6.2 2.1 9.5 3.2 6.9 2.3 13.3 4.5 18.8 6.4.1 0 .2.1.2.2 0 6.1-.1 11.3-.1 14.9 0 1.8 0 3.2-.1 4.2v1.5-1.5c0-1 0-2.4-.1-4.2 0-3.7-.1-8.8-.1-14.9l.2.2c-5.5-1.9-12-4-18.9-6.3-3.3-1.1-6.5-2.2-9.5-3.2h.2c-8.4 2.5-15.7 4.7-21 6.2-2.6.7-4.6 1.3-6.1 1.8-.7.2-1.2.3-1.6.5h-.8ZM246 65.3c-.8 0-1.5-.7-1.5-1.5V6.2l-46.7 57.2c-.5.6-1.5.7-2.1.2-.6-.5-.7-1.5-.2-2.1L244.8 1c.4-.5 1.1-.7 1.7-.5.6.2 1 .8 1 1.4v61.8c0 .9-.6 1.6-1.5 1.6Z" fill="#263238"/><path d="M37.7 80.9c-.6 0-1.2-.4-1.4-1-.3-.8.1-1.6.9-1.9L245.5.6c.6-.2 1.3 0 1.7.4l53 61.8c.5.6.5 1.6-.2 2.1-.6.5-1.6.5-2.1-.2l-52.4-61L38.1 80.8c-.1.1-.2.1-.4.1Z" fill="#263238"/><path d="m11.9 75.3 14 8.2h330.8v-8.2H11.9Z" fill="#455A64"/><path d="M196.7 62.4h-5.5v158.7h5.5V62.4Zm57.4 0h-5.5v158.7h5.5V62.4Z" fill="#263238"/><path d="M303.4 219.8H185.3v6.4h118.1v-6.4Z" fill="#455A64"/><path d="M254.4 151.9H194v6.4h60.4v-6.4Z" fill="#263238"/><path d="M240.6 62.4h-5.5v158.7h5.5V62.4Zm58.5 1.4h-5.5v158.7h5.5V63.8Z" fill="#455A64"/><path d="M197.5 155c-.2 0-.4 0-.6-.1-.7-.4-1.1-1.3-.7-2l41.6-87.3c.4-.7 1.3-1.1 2-.7.7.4 1.1 1.3.7 2l-41.6 87.3c-.3.4-.8.8-1.4.8Zm55.5-1.6c-.2 0-.4 0-.7-.2-.7-.4-1-1.3-.7-2 1.7-3.4 40.6-82.2 41.2-83.3.4-.7 1.3-1 2-.6s1 1.3.6 2c-.6 1.1-40.7 82.4-41.1 83.2-.2.6-.8.9-1.3.9Z" fill="#263238"/><path d="M204.6 226.2h-23.7v5.7h23.7v-5.7Zm44.3-.8h-23.7v5.7h23.7v-5.7Zm56.6 0h-23.7v5.7h23.7v-5.7Z" fill="#455A64"/><path d="M309.9 231h-137v5.2h137V231Zm-7-168.6H189.1v7.4h113.8v-7.4Zm-4.6 89.5h-59.2v6.4h59.2v-6.4Z" fill="#455A64"/><path d="M76.1 93.8H.7v21.9h75.4V93.8Z" fill="#FF725E"/><path opacity=".3" d="M76.1 93.8h-27v21.9h27V93.8Z" fill="#000"/><path d="M48 114.8v-5.4c0-3.4-.1-8.3-.1-14.4l.2.2c-12 0-28.4 0-46.6.1l.3-.3v19.7l-.2-.2c13.5 0 25.1.1 33.3.1 4.1 0 7.4.1 9.7.1h3.3l.1.1h-3.5c-2.3 0-5.5 0-9.6.1-8.3 0-20 .1-33.5.1h-.2V95.1l.3-.3c18.1 0 34.6.1 46.6.1h.2v.2c0 6.1-.1 11.1-.1 14.5v4.9c-.1.2-.2.3-.2.3Zm26.8 0v-1.5c0-1 0-2.3-.1-4 0-3.5-.1-8.4-.1-14.3l.2.2H50.3l.3-.3v19.7l-.2-.2c7.2 0 13.3.1 17.7.1 2.1 0 3.8 0 5 .1h1.3c.2.2.4.2.4.2h-1.7c-1.2 0-2.9 0-5 .1-4.4 0-10.5.1-17.8.1h-.2V95.1l.3-.3h24.7v.2c0 6-.1 10.9-.1 14.4 0 1.7 0 3-.1 4v1c-.1.3-.1.4-.1.4Z" fill="#263238"/><path d="M3.3 114.6c-.1 0-.3-4.4-.3-9.8s.1-9.8.3-9.8c.1 0 .3 4.4.3 9.8s-.2 9.8-.3 9.8Zm2.1 0c-.1 0-.3-4.4-.3-9.8s.1-9.8.3-9.8c.1 0 .3 4.4.3 9.8s-.1 9.8-.3 9.8Zm2.2 0c-.1 0-.3-4.4-.3-9.8s.1-9.8.3-9.8c.1 0 .3 4.4.3 9.8s-.2 9.8-.3 9.8Zm2.1 0c-.1 0-.3-4.4-.3-9.8s.1-9.8.3-9.8c.2 0 .3 4.4.3 9.8s-.1 9.8-.3 9.8Zm2.2 0c-.1 0-.3-4.4-.3-9.8s.1-9.8.3-9.8c.2 0 .3 4.4.3 9.8s-.2 9.8-.3 9.8Zm2.1 0c-.1 0-.3-4.4-.3-9.8s.1-9.8.3-9.8c.2 0 .3 4.4.3 9.8s-.1 9.8-.3 9.8Zm2.2 0c-.1 0-.3-4.4-.3-9.8s.1-9.8.3-9.8c.1 0 .3 4.4.3 9.8s-.2 9.8-.3 9.8Zm2.1 0c-.1 0-.3-4.4-.3-9.8s.1-9.8.3-9.8c.2 0 .3 4.4.3 9.8s-.1 9.8-.3 9.8Zm2.2 0c-.1 0-.3-4.4-.3-9.8s.1-9.8.3-9.8c.1 0 .3 4.4.3 9.8s-.2 9.8-.3 9.8Zm2.1 0c-.1 0-.3-4.4-.3-9.8s.1-9.8.3-9.8c.1 0 .3 4.4.3 9.8s-.1 9.8-.3 9.8Zm2.2 0c-.1 0-.3-4.4-.3-9.8s.1-9.8.3-9.8c.1 0 .3 4.4.3 9.8s-.2 9.8-.3 9.8Zm2.1 0c-.1 0-.3-4.4-.3-9.8s.1-9.8.3-9.8c.1 0 .3 4.4.3 9.8s-.1 9.8-.3 9.8Zm2.2 0c-.1 0-.3-4.4-.3-9.8s.1-9.8.3-9.8c.1 0 .3 4.4.3 9.8s-.2 9.8-.3 9.8Zm2.1 0c-.1 0-.3-4.4-.3-9.8s.1-9.8.3-9.8c.1 0 .3 4.4.3 9.8s-.1 9.8-.3 9.8Zm2.2 0c-.1 0-.3-4.4-.3-9.8s.1-9.8.3-9.8c.1 0 .3 4.4.3 9.8s-.2 9.8-.3 9.8Zm2.1 0c-.1 0-.3-4.4-.3-9.8s.1-9.8.3-9.8c.2 0 .3 4.4.3 9.8s-.1 9.8-.3 9.8Zm2.2 0c-.1 0-.3-4.4-.3-9.8s.1-9.8.3-9.8c.1 0 .3 4.4.3 9.8s-.2 9.8-.3 9.8Zm2.1 0c-.1 0-.3-4.4-.3-9.8s.1-9.8.3-9.8c.2 0 .3 4.4.3 9.8s-.1 9.8-.3 9.8Zm2.2 0c-.1 0-.3-4.4-.3-9.8s.1-9.8.3-9.8c.2 0 .3 4.4.3 9.8s-.2 9.8-.3 9.8Zm2.2 0c-.1 0-.3-4.4-.3-9.8s.1-9.8.3-9.8c.2 0 .3 4.4.3 9.8-.1 5.4-.2 9.8-.3 9.8Zm2.1 0c-.1 0-.3-4.4-.3-9.8s.1-9.8.3-9.8c.2 0 .3 4.4.3 9.8s-.2 9.8-.3 9.8Zm6 0c-.1 0-.3-4.4-.3-9.8s.1-9.8.3-9.8c.2 0 .3 4.4.3 9.8-.1 5.4-.2 9.8-.3 9.8Zm2.2 0c-.1 0-.3-4.4-.3-9.8s.1-9.8.3-9.8c.1 0 .3 4.4.3 9.8-.1 5.4-.2 9.8-.3 9.8Zm2.2 0c-.1 0-.3-4.4-.3-9.8s.1-9.8.3-9.8c.1 0 .3 4.4.3 9.8s-.2 9.8-.3 9.8Zm2.2 0c-.1 0-.3-4.4-.3-9.8s.1-9.8.3-9.8c.2 0 .3 4.4.3 9.8s-.1 9.8-.3 9.8Zm2.2 0c-.1 0-.3-4.4-.3-9.8s.1-9.8.3-9.8c.2 0 .3 4.4.3 9.8s-.1 9.8-.3 9.8Zm2.2 0c-.1 0-.3-4.4-.3-9.8s.1-9.8.3-9.8c.1 0 .3 4.4.3 9.8s-.1 9.8-.3 9.8Zm2.3 0c-.1 0-.3-4.4-.3-9.8s.1-9.8.3-9.8c.2 0 .3 4.4.3 9.8-.1 5.4-.2 9.8-.3 9.8Zm2.2 0c-.1 0-.3-4.4-.3-9.8s.1-9.8.3-9.8c.1 0 .3 4.4.3 9.8-.1 5.4-.2 9.8-.3 9.8Zm2.2 0c-.1 0-.3-4.4-.3-9.8s.1-9.8.3-9.8c.1 0 .3 4.4.3 9.8-.1 5.4-.2 9.8-.3 9.8Zm2.2 0c-.1 0-.3-4.4-.3-9.8s.1-9.8.3-9.8c.1 0 .3 4.4.3 9.8s-.2 9.8-.3 9.8Z" fill="#263238"/><path d="M56.7 90.8h-38v3h38v-3Z" fill="#455A64"/><path d="M38.4 93.5H12.8v4.2h25.6v-4.2Zm-5.5-10.7h-4.2v8.4h4.2v-8.4Zm430.4 153.5H60.2v35.8h403.1v-35.8Z" fill="#455A64"/><path d="M463.3 236.3h-419v12.6h419v-12.6Z" fill="#455A64"/><path d="M463.3 248.9c0-.4 0-4.1-.1-12.6l.1.1c-44.1 0-215 .1-419 .2l.3-.3v12.6l-.3-.3c232.7.2 416.2.3 419 .3-2.8 0-186.3.1-419 .3-.1 0-.3-.1-.3-.3v-12.6c0-.1.1-.3.3-.3 203.9.1 374.9.2 419 .2 0 0 .1 0 .1.1-.1 8.5-.1 12.2-.1 12.6Z" fill="#263238"/><path d="M137.3 272c-.1 0-.3-5.2-.3-11.6 0-6.4.1-11.6.3-11.6.2 0 .3 5.2.3 11.6 0 6.5-.2 11.6-.3 11.6Zm-4.3-17.2c0 .7-.6 1.2-1.2 1.2-.7 0-1.2-.6-1.2-1.2 0-.7.6-1.2 1.2-1.2.6-.1 1.2.5 1.2 1.2Zm72.7 17.2c-.1 0-.3-5.2-.3-11.6 0-6.4.1-11.6.3-11.6.2 0 .3 5.2.3 11.6-.1 6.5-.2 11.6-.3 11.6Zm-4.4-17.2c0 .7-.6 1.2-1.2 1.2-.7 0-1.2-.6-1.2-1.2 0-.7.6-1.2 1.2-1.2.7-.1 1.2.5 1.2 1.2ZM274 272c-.1 0-.3-5.2-.3-11.6 0-6.4.1-11.6.3-11.6.1 0 .3 5.2.3 11.6 0 6.5-.1 11.6-.3 11.6Zm-4.3-17.2c0 .7-.6 1.2-1.2 1.2-.7 0-1.2-.6-1.2-1.2 0-.7.6-1.2 1.2-1.2.6-.1 1.2.5 1.2 1.2Zm72.7 17.2c-.1 0-.3-5.2-.3-11.6 0-6.4.1-11.6.3-11.6.1 0 .3 5.2.3 11.6 0 6.5-.1 11.6-.3 11.6Zm-4.3-17.2c0 .7-.6 1.2-1.2 1.2-.7 0-1.2-.6-1.2-1.2 0-.7.6-1.2 1.2-1.2.6-.1 1.2.5 1.2 1.2Z" fill="#263238"/><path opacity=".3" d="m60.2 250.8 403.1 4v-5.9H60.2v1.9Z" fill="#000"/><path d="M319.5 214.5h-75.4v21.9h75.4v-21.9Z" fill="#FF725E"/><path opacity=".3" d="M319.5 214.5h-27v21.9h27v-21.9Z" fill="#000"/><path d="M291.4 235.5v-5.4c0-3.4-.1-8.3-.1-14.4l.2.2c-12 0-28.4 0-46.6.1l.3-.3v19.7l-.2-.2c13.5 0 25.1.1 33.3.1 4.1 0 7.4.1 9.7.1h3.3c0 .1.1.1.1.1h-3.5c-2.3 0-5.5 0-9.6.1-8.3 0-20 .1-33.5.1h-.2v-20l.3-.3c18.1 0 34.6.1 46.6.1h.2v.2c0 6.1-.1 11.1-.1 14.5v4.9c-.2.3-.2.4-.2.4Zm26.8 0V234c0-1 0-2.3-.1-4 0-3.5-.1-8.4-.1-14.3l.2.2h-24.5l.3-.3v19.7l-.2-.2c7.2 0 13.3.1 17.7.1 2.1 0 3.8 0 5 .1h1.3c.2.2.4.2.4.2h-1.7c-1.2 0-2.9 0-5 .1-4.4 0-10.5.1-17.8.1h-.2v-20l.3-.3h24.7v.2c0 6-.1 10.9-.1 14.4 0 1.7 0 3-.1 4v1c-.1.4-.1.5-.1.5Z" fill="#263238"/><path d="M246.7 235.3c-.1 0-.3-4.4-.3-9.8s.1-9.8.3-9.8c.1 0 .3 4.4.3 9.8-.1 5.4-.2 9.8-.3 9.8Zm2.1 0c-.1 0-.3-4.4-.3-9.8s.1-9.8.3-9.8c.1 0 .3 4.4.3 9.8s-.1 9.8-.3 9.8Zm2.2 0c-.1 0-.3-4.4-.3-9.8s.1-9.8.3-9.8c.2 0 .3 4.4.3 9.8-.1 5.4-.2 9.8-.3 9.8Zm2.1 0c-.1 0-.3-4.4-.3-9.8s.1-9.8.3-9.8c.2 0 .3 4.4.3 9.8s-.1 9.8-.3 9.8Zm2.2 0c-.1 0-.3-4.4-.3-9.8s.1-9.8.3-9.8c.2 0 .3 4.4.3 9.8-.1 5.4-.2 9.8-.3 9.8Zm2.1 0c-.1 0-.3-4.4-.3-9.8s.1-9.8.3-9.8c.2 0 .3 4.4.3 9.8s-.1 9.8-.3 9.8Zm2.2 0c-.1 0-.3-4.4-.3-9.8s.1-9.8.3-9.8c.1 0 .3 4.4.3 9.8-.1 5.4-.2 9.8-.3 9.8Zm2.1 0c-.1 0-.3-4.4-.3-9.8s.1-9.8.3-9.8c.2 0 .3 4.4.3 9.8s-.1 9.8-.3 9.8Zm2.2 0c-.1 0-.3-4.4-.3-9.8s.1-9.8.3-9.8c.1 0 .3 4.4.3 9.8-.1 5.4-.2 9.8-.3 9.8Zm2.1 0c-.1 0-.3-4.4-.3-9.8s.1-9.8.3-9.8c.1 0 .3 4.4.3 9.8s-.1 9.8-.3 9.8Zm2.2 0c-.1 0-.3-4.4-.3-9.8s.1-9.8.3-9.8c.1 0 .3 4.4.3 9.8-.1 5.4-.2 9.8-.3 9.8Zm2.1 0c-.1 0-.3-4.4-.3-9.8s.1-9.8.3-9.8c.1 0 .3 4.4.3 9.8s-.1 9.8-.3 9.8Zm2.2 0c-.1 0-.3-4.4-.3-9.8s.1-9.8.3-9.8c.1 0 .3 4.4.3 9.8-.1 5.4-.2 9.8-.3 9.8Zm2.1 0c-.1 0-.3-4.4-.3-9.8s.1-9.8.3-9.8c.1 0 .3 4.4.3 9.8s-.1 9.8-.3 9.8Zm2.2 0c-.1 0-.3-4.4-.3-9.8s.1-9.8.3-9.8c.1 0 .3 4.4.3 9.8-.1 5.4-.2 9.8-.3 9.8Zm2.1 0c-.1 0-.3-4.4-.3-9.8s.1-9.8.3-9.8c.2 0 .3 4.4.3 9.8s-.1 9.8-.3 9.8Zm2.2 0c-.1 0-.3-4.4-.3-9.8s.1-9.8.3-9.8c.2 0 .3 4.4.3 9.8-.1 5.4-.2 9.8-.3 9.8Zm2.1 0c-.1 0-.3-4.4-.3-9.8s.1-9.8.3-9.8c.2 0 .3 4.4.3 9.8s-.1 9.8-.3 9.8Zm2.2 0c-.1 0-.3-4.4-.3-9.8s.1-9.8.3-9.8c.2 0 .3 4.4.3 9.8-.1 5.4-.2 9.8-.3 9.8Zm2.1 0c-.1 0-.3-4.4-.3-9.8s.1-9.8.3-9.8c.2 0 .3 4.4.3 9.8s-.1 9.8-.3 9.8Zm2.2 0c-.1 0-.3-4.4-.3-9.8s.1-9.8.3-9.8c.1 0 .3 4.4.3 9.8-.1 5.4-.2 9.8-.3 9.8Zm5.9 0c-.1 0-.3-4.4-.3-9.8s.1-9.8.3-9.8c.1 0 .3 4.4.3 9.8s-.1 9.8-.3 9.8Zm2.3 0c-.1 0-.3-4.4-.3-9.8s.1-9.8.3-9.8c.2 0 .3 4.4.3 9.8-.1 5.4-.2 9.8-.3 9.8Zm2.2 0c-.1 0-.3-4.4-.3-9.8s.1-9.8.3-9.8c.1 0 .3 4.4.3 9.8-.1 5.4-.2 9.8-.3 9.8Zm2.2 0c-.1 0-.3-4.4-.3-9.8s.1-9.8.3-9.8c.2 0 .3 4.4.3 9.8-.1 5.4-.2 9.8-.3 9.8Zm2.2 0c-.1 0-.3-4.4-.3-9.8s.1-9.8.3-9.8c.2 0 .3 4.4.3 9.8s-.2 9.8-.3 9.8Zm2.2 0c-.1 0-.3-4.4-.3-9.8s.1-9.8.3-9.8c.1 0 .3 4.4.3 9.8s-.1 9.8-.3 9.8Zm2.2 0c-.1 0-.3-4.4-.3-9.8s.1-9.8.3-9.8c.2 0 .3 4.4.3 9.8s-.1 9.8-.3 9.8Zm2.2 0c-.1 0-.3-4.4-.3-9.8s.1-9.8.3-9.8c.1 0 .3 4.4.3 9.8s-.1 9.8-.3 9.8Zm2.3 0c-.1 0-.3-4.4-.3-9.8s.1-9.8.3-9.8c.1 0 .3 4.4.3 9.8-.1 5.4-.2 9.8-.3 9.8Zm2.2 0c-.1 0-.3-4.4-.3-9.8s.1-9.8.3-9.8c.2 0 .3 4.4.3 9.8-.1 5.4-.2 9.8-.3 9.8Z" fill="#263238"/><path d="M334.4 191H259v21.9h75.4V191Z" fill="#E0E0E0"/><path opacity=".3" d="M334.4 191h-27v21.9h27V191Z" fill="#000"/><path d="M306.3 212v-5.4c0-3.4-.1-8.3-.1-14.4l.2.2c-12 0-28.4 0-46.6.1l.3-.3v19.7l-.2-.2c13.5 0 25.1.1 33.3.1 4.1 0 7.4.1 9.7.1h3.3c0 .1.1.1.1.1h-3.5c-2.3 0-5.5 0-9.6.1-8.3 0-20 .1-33.5.1h-.2v-19.9l.3-.3c18.1 0 34.6.1 46.6.1h.2v.2c0 6.1-.1 11.1-.1 14.5v4.9c-.2.2-.2.3-.2.3Zm26.8 0v-1.5c0-1 0-2.3-.1-4 0-3.5-.1-8.4-.1-14.3l.2.2h-24.5l.3-.3v19.7l-.2-.2c7.2 0 13.3.1 17.7.1 2.1 0 3.8 0 5 .1h1.3c.2.2.4.2.4.2h-1.7c-1.2 0-2.9 0-5 .1-4.4 0-10.5.1-17.8.1h-.2v-19.9l.3-.3h24.7v.2c0 6-.1 10.9-.1 14.4 0 1.7 0 3-.1 4v1c-.1.3-.1.4-.1.4Z" fill="#263238"/><path d="M261.6 211.8c-.1 0-.3-4.4-.3-9.8s.1-9.8.3-9.8c.2 0 .3 4.4.3 9.8-.1 5.4-.2 9.8-.3 9.8Zm2.1 0c-.1 0-.3-4.4-.3-9.8s.1-9.8.3-9.8c.1 0 .3 4.4.3 9.8s-.1 9.8-.3 9.8Zm2.2 0c-.1 0-.3-4.4-.3-9.8s.1-9.8.3-9.8c.1 0 .3 4.4.3 9.8-.1 5.4-.2 9.8-.3 9.8Zm2.1 0c-.1 0-.3-4.4-.3-9.8s.1-9.8.3-9.8c.2 0 .3 4.4.3 9.8s-.1 9.8-.3 9.8Zm2.2 0c-.1 0-.3-4.4-.3-9.8s.1-9.8.3-9.8c.1 0 .3 4.4.3 9.8-.1 5.4-.2 9.8-.3 9.8Zm2.1 0c-.1 0-.3-4.4-.3-9.8s.1-9.8.3-9.8c.1 0 .3 4.4.3 9.8s-.1 9.8-.3 9.8Zm2.2 0c-.1 0-.3-4.4-.3-9.8s.1-9.8.3-9.8c.1 0 .3 4.4.3 9.8-.1 5.4-.2 9.8-.3 9.8Zm2.1 0c-.1 0-.3-4.4-.3-9.8s.1-9.8.3-9.8c.1 0 .3 4.4.3 9.8s-.1 9.8-.3 9.8Zm2.2 0c-.1 0-.3-4.4-.3-9.8s.1-9.8.3-9.8c.1 0 .3 4.4.3 9.8-.1 5.4-.2 9.8-.3 9.8Zm2.1 0c-.1 0-.3-4.4-.3-9.8s.1-9.8.3-9.8c.2 0 .3 4.4.3 9.8s-.1 9.8-.3 9.8Zm2.2 0c-.1 0-.3-4.4-.3-9.8s.1-9.8.3-9.8c.2 0 .3 4.4.3 9.8-.1 5.4-.2 9.8-.3 9.8Zm2.1 0c-.1 0-.3-4.4-.3-9.8s.1-9.8.3-9.8c.2 0 .3 4.4.3 9.8s-.1 9.8-.3 9.8Zm2.2 0c-.1 0-.3-4.4-.3-9.8s.1-9.8.3-9.8c.2 0 .3 4.4.3 9.8-.1 5.4-.2 9.8-.3 9.8Zm2.1 0c-.1 0-.3-4.4-.3-9.8s.1-9.8.3-9.8c.2 0 .3 4.4.3 9.8s-.1 9.8-.3 9.8Zm2.2 0c-.1 0-.3-4.4-.3-9.8s.1-9.8.3-9.8c.1 0 .3 4.4.3 9.8-.1 5.4-.2 9.8-.3 9.8Zm2.1 0c-.1 0-.3-4.4-.3-9.8s.1-9.8.3-9.8c.2 0 .3 4.4.3 9.8s-.1 9.8-.3 9.8Zm2.2 0c-.1 0-.3-4.4-.3-9.8s.1-9.8.3-9.8c.1 0 .3 4.4.3 9.8-.1 5.4-.2 9.8-.3 9.8Zm2.1 0c-.1 0-.3-4.4-.3-9.8s.1-9.8.3-9.8c.1 0 .3 4.4.3 9.8s-.1 9.8-.3 9.8Zm2.2 0c-.1 0-.3-4.4-.3-9.8s.1-9.8.3-9.8c.1 0 .3 4.4.3 9.8-.1 5.4-.2 9.8-.3 9.8Zm2.1 0c-.1 0-.3-4.4-.3-9.8s.1-9.8.3-9.8c.1 0 .3 4.4.3 9.8s-.1 9.8-.3 9.8Zm2.2 0c-.1 0-.3-4.4-.3-9.8s.1-9.8.3-9.8c.1 0 .3 4.4.3 9.8-.1 5.4-.2 9.8-.3 9.8Zm6 0c-.1 0-.3-4.4-.3-9.8s.1-9.8.3-9.8c.1 0 .3 4.4.3 9.8-.1 5.4-.2 9.8-.3 9.8Zm2.2 0c-.1 0-.3-4.4-.3-9.8s.1-9.8.3-9.8c.2 0 .3 4.4.3 9.8-.1 5.4-.2 9.8-.3 9.8Zm2.2 0c-.1 0-.3-4.4-.3-9.8s.1-9.8.3-9.8c.2 0 .3 4.4.3 9.8-.1 5.4-.2 9.8-.3 9.8Zm2.2 0c-.1 0-.3-4.4-.3-9.8s.1-9.8.3-9.8c.1 0 .3 4.4.3 9.8s-.2 9.8-.3 9.8Zm2.2 0c-.1 0-.3-4.4-.3-9.8s.1-9.8.3-9.8c.2 0 .3 4.4.3 9.8s-.1 9.8-.3 9.8Zm2.2 0c-.1 0-.3-4.4-.3-9.8s.1-9.8.3-9.8c.2 0 .3 4.4.3 9.8s-.1 9.8-.3 9.8Zm2.2 0c-.1 0-.3-4.4-.3-9.8s.1-9.8.3-9.8c.1 0 .3 4.4.3 9.8s-.1 9.8-.3 9.8Zm2.3 0c-.1 0-.3-4.4-.3-9.8s.1-9.8.3-9.8c.1 0 .3 4.4.3 9.8-.1 5.4-.2 9.8-.3 9.8Zm2.2 0c-.1 0-.3-4.4-.3-9.8s.1-9.8.3-9.8c.2 0 .3 4.4.3 9.8-.1 5.4-.2 9.8-.3 9.8Zm2.2 0c-.1 0-.3-4.4-.3-9.8s.1-9.8.3-9.8c.1 0 .3 4.4.3 9.8s-.2 9.8-.3 9.8Z" fill="#263238"/><path d="M176.6 214.5h-75.4v21.9h75.4v-21.9Z" fill="#FF725E"/><path opacity=".3" d="M176.6 214.5h-27v21.9h27v-21.9Z" fill="#000"/><path d="M148.5 235.6v-5.4c0-3.4-.1-8.3-.1-14.4l.2.2c-12 0-28.4 0-46.6.1l.3-.3v19.7l-.2-.2c13.5 0 25.1.1 33.3.1 4.1 0 7.4.1 9.7.1h3.3c.1 0 .1.1.1.1H145c-2.3 0-5.5 0-9.6.1-8.3 0-20 .1-33.5.1h-.2v-19.9l.3-.3c18.1 0 34.6.1 46.6.1h.2v.2c0 6.1-.1 11.1-.1 14.5v4.9c-.1.2-.2.3-.2.3Zm26.8 0v-1.5c0-1 0-2.3-.1-4 0-3.5-.1-8.4-.1-14.3l.2.2h-24.5l.3-.3v19.7l-.2-.2c7.2 0 13.3.1 17.7.1 2.1 0 3.8 0 5 .1h1.3c.2.1.4.1.4.2h-1.7c-1.2 0-2.9 0-5 .1-4.4 0-10.5.1-17.8.1h-.2v-19.9l.3-.3h24.7v.2c0 6-.1 10.9-.1 14.4 0 1.7 0 3-.1 4v1c-.1.3-.1.4-.1.4Z" fill="#263238"/><path d="M103.8 235.4c-.1 0-.3-4.4-.3-9.8s.1-9.8.3-9.8c.1 0 .3 4.4.3 9.8s-.2 9.8-.3 9.8Zm2.1 0c-.1 0-.3-4.4-.3-9.8s.1-9.8.3-9.8c.2 0 .3 4.4.3 9.8s-.1 9.8-.3 9.8Zm2.2 0c-.1 0-.3-4.4-.3-9.8s.1-9.8.3-9.8c.1 0 .3 4.4.3 9.8s-.2 9.8-.3 9.8Zm2.1 0c-.1 0-.3-4.4-.3-9.8s.1-9.8.3-9.8c.1 0 .3 4.4.3 9.8s-.1 9.8-.3 9.8Zm2.2 0c-.1 0-.3-4.4-.3-9.8s.1-9.8.3-9.8c.1 0 .3 4.4.3 9.8s-.2 9.8-.3 9.8Zm2.1 0c-.1 0-.3-4.4-.3-9.8s.1-9.8.3-9.8c.1 0 .3 4.4.3 9.8s-.1 9.8-.3 9.8Zm2.2 0c-.1 0-.3-4.4-.3-9.8s.1-9.8.3-9.8c.1 0 .3 4.4.3 9.8s-.2 9.8-.3 9.8Zm2.1 0c-.1 0-.3-4.4-.3-9.8s.1-9.8.3-9.8c.2 0 .3 4.4.3 9.8s-.1 9.8-.3 9.8Zm2.2 0c-.1 0-.3-4.4-.3-9.8s.1-9.8.3-9.8c.2 0 .3 4.4.3 9.8s-.2 9.8-.3 9.8Zm2.2 0c-.1 0-.3-4.4-.3-9.8s.1-9.8.3-9.8c.2 0 .3 4.4.3 9.8-.1 5.4-.2 9.8-.3 9.8Zm2.1 0c-.1 0-.3-4.4-.3-9.8s.1-9.8.3-9.8c.2 0 .3 4.4.3 9.8s-.2 9.8-.3 9.8Zm2.2 0c-.1 0-.3-4.4-.3-9.8s.1-9.8.3-9.8c.2 0 .3 4.4.3 9.8-.1 5.4-.2 9.8-.3 9.8Zm2.1 0c-.1 0-.3-4.4-.3-9.8s.1-9.8.3-9.8c.1 0 .3 4.4.3 9.8s-.2 9.8-.3 9.8Zm2.2 0c-.1 0-.3-4.4-.3-9.8s.1-9.8.3-9.8c.1 0 .3 4.4.3 9.8-.1 5.4-.2 9.8-.3 9.8Zm2.1 0c-.1 0-.3-4.4-.3-9.8s.1-9.8.3-9.8c.1 0 .3 4.4.3 9.8s-.2 9.8-.3 9.8Zm2.2 0c-.1 0-.3-4.4-.3-9.8s.1-9.8.3-9.8c.1 0 .3 4.4.3 9.8-.1 5.4-.2 9.8-.3 9.8Zm2.1 0c-.1 0-.3-4.4-.3-9.8s.1-9.8.3-9.8c.1 0 .3 4.4.3 9.8s-.2 9.8-.3 9.8Zm2.2 0c-.1 0-.3-4.4-.3-9.8s.1-9.8.3-9.8c.1 0 .3 4.4.3 9.8-.1 5.4-.2 9.8-.3 9.8Zm2.1 0c-.1 0-.3-4.4-.3-9.8s.1-9.8.3-9.8c.1 0 .3 4.4.3 9.8s-.2 9.8-.3 9.8Zm2.2 0c-.1 0-.3-4.4-.3-9.8s.1-9.8.3-9.8c.2 0 .3 4.4.3 9.8-.1 5.4-.2 9.8-.3 9.8Zm2.1 0c-.1 0-.3-4.4-.3-9.8s.1-9.8.3-9.8c.1 0 .3 4.4.3 9.8s-.1 9.8-.3 9.8Zm6 0c-.1 0-.3-4.4-.3-9.8s.1-9.8.3-9.8c.2 0 .3 4.4.3 9.8-.1 5.4-.2 9.8-.3 9.8Zm2.2 0c-.1 0-.3-4.4-.3-9.8s.1-9.8.3-9.8c.1 0 .3 4.4.3 9.8s-.2 9.8-.3 9.8Zm2.2 0c-.1 0-.3-4.4-.3-9.8s.1-9.8.3-9.8c.2 0 .3 4.4.3 9.8s-.2 9.8-.3 9.8Zm2.2 0c-.1 0-.3-4.4-.3-9.8s.1-9.8.3-9.8c.2 0 .3 4.4.3 9.8s-.1 9.8-.3 9.8Zm2.2 0c-.1 0-.3-4.4-.3-9.8s.1-9.8.3-9.8c.1 0 .3 4.4.3 9.8s-.1 9.8-.3 9.8Zm2.2 0c-.1 0-.3-4.4-.3-9.8s.1-9.8.3-9.8c.2 0 .3 4.4.3 9.8s-.1 9.8-.3 9.8Zm2.3 0c-.1 0-.3-4.4-.3-9.8s.1-9.8.3-9.8c.2 0 .3 4.4.3 9.8-.1 5.4-.2 9.8-.3 9.8Zm2.2 0c-.1 0-.3-4.4-.3-9.8s.1-9.8.3-9.8c.1 0 .3 4.4.3 9.8-.1 5.4-.2 9.8-.3 9.8Zm2.2 0c-.1 0-.3-4.4-.3-9.8s.1-9.8.3-9.8c.2 0 .3 4.4.3 9.8s-.2 9.8-.3 9.8Zm2.2 0c-.1 0-.3-4.4-.3-9.8s.1-9.8.3-9.8c.1 0 .3 4.4.3 9.8s-.1 9.8-.3 9.8Z" fill="#263238"/><path d="M364.9 189.7h-23.1v7.1h23.1v-7.1Z" fill="#455A64"/><path d="M353.3 196.8h-11.2v1.8h11.2v-1.8Z" fill="#263238"/><path d="M356.9 198.6h-14.8v1.8h14.8v-1.8Z" fill="#263238"/><path d="M339.6 201.1h-1.7v17.3h1.7v-17.3Zm14.4 0h-1.7v17.3h1.7v-17.3Zm-6.5 0h-1.7v17.3h1.7v-17.3Zm14.4 0h-1.7v17.3h1.7v-17.3Z" fill="#E0E0E0"/><path opacity=".3" d="M347.5 201.1h-1.7v17.3h1.7v-17.3Zm14.4 0h-1.7v17.3h1.7v-17.3Z" fill="#000"/><path d="M362.5 200.3h-25.4v1.6h25.4v-1.6Z" fill="#E0E0E0"/><path d="M352.8 218.3c-14-16.3-14-16.5-14-16.7h1-.5l.4-.2c.4.6 8.4 10.1 13.8 16.3l-.7.6Z" fill="#E0E0E0"/><path d="M339.6 218.9h-1.7v17.3h1.7v-17.3Z" fill="#455A64"/><path d="M339.7 236.3H338V219h1.7v17.3Zm-1.7-.1h1.7V219H338v17.2Z" fill="#263238"/><path d="M354 218.9h-1.7v17.3h1.7v-17.3Z" fill="#455A64"/><path d="M354 236.3h-1.7V219h1.7v17.3Zm-1.7-.1h1.7V219h-1.7v17.2Z" fill="#263238"/><path d="M347.5 218.9h-1.7v17.3h1.7v-17.3Z" fill="#455A64"/><path d="M347.6 236.3h-1.7V219h1.7v17.3Zm-1.8-.1h1.7V219h-1.7v17.2Z" fill="#263238"/><path d="M361.9 218.9h-1.7v17.3h1.7v-17.3Z" fill="#455A64"/><path d="M361.9 236.3h-1.7V219h1.7v17.3Zm-1.7-.1h1.7V219h-1.7v17.2Z" fill="#263238"/><path d="M362.5 218.1h-25.4v1.6h25.4v-1.6Z" fill="#455A64"/><path d="M362.5 219.8h-25.4v-1.6h25.4v1.6c0-.1 0 0 0 0Zm-25.4-.1h25.4v-1.6h-25.4v1.6Z" fill="#263238"/><path d="M352.8 236.1c-14-16.3-14-16.5-14-16.7h1-.5l.4-.2c.4.6 8.4 10.1 13.8 16.3l-.7.6Zm9.1-53.8h-13.5v7.4h13.5v-7.4Z" fill="#455A64"/><path d="m359.2 183.3-22.5-47.4-4.4 1.4 20.8 46h6.1Z" fill="#455A64"/><path d="m343.3 135.2-32.5 15.5-1.1-1.9 32.4-15.6 1.2 2Z" fill="#455A64"/><path d="M331.3 137.2c0 2.2 1.8 4 4 4s4-1.8 4-4-1.8-4-4-4-4 1.8-4 4Z" fill="#455A64"/><path d="M309.5 178.7c-.4 0-.8-.1-1.1-.3-.6-.4-1-1-1-1.9 0-.8.3-1.4.7-1.8.4-.3.9-.4 1.3-.4l.1-23.6c0-.3.2-.5.5-.5s.5.2.5.5l-.1 24.2c0 .2-.1.3-.2.4-.1.1-.3.1-.4.1-.2 0-.7-.1-1.1.2-.2.2-.4.5-.4 1s.2.8.5 1c.3.2.8.2 1.2 0 .2-.1.3-.3.3-.5 0-.3.2-.5.5-.5s.5.2.5.5c0 .6-.3 1.1-.8 1.4-.2.1-.6.2-1 .2Z" fill="#263238"/><path d="M307.9 162.3c0 1.3 1 2.3 2.3 2.3 1.3 0 2.3-1 2.3-2.3 0-1.3-1-2.3-2.3-2.3-1.3 0-2.3 1.1-2.3 2.3Z" fill="#455A64"/><path d="M361.8 183.9c-.2 0-.4-.1-.5-.3L343.1 134l-14.4-6.5-18.6 21.6c-.2.2-.5.2-.7.1-.2-.2-.2-.5-.1-.7l18.8-21.9c.1-.2.4-.2.6-.1l14.9 6.8.3.3 18.3 49.8c.1.3 0 .5-.3.6 0-.1 0-.1-.1-.1Zm-20 5.8s.4-6.8 6.7-7.4l.3 7.5-7-.1Z" fill="#263238"/><path d="M307.6 150.2c0 1.3 1 2.3 2.3 2.3 1.3 0 2.3-1 2.3-2.3 0-1.3-1-2.3-2.3-2.3-1.3 0-2.3 1-2.3 2.3Zm18.9-23.3c0 1.2.9 2.1 2.1 2.1 1.2 0 2.1-.9 2.1-2.1 0-1.2-.9-2.1-2.1-2.1-1.2 0-2.1.9-2.1 2.1Zm15 7.1c0 1.2.9 2.1 2.1 2.1 1.2 0 2.1-.9 2.1-2.1 0-1.2-.9-2.1-2.1-2.1-1.1 0-2.1.9-2.1 2.1Z" fill="#455A64"/><path d="m313.6 168-1.3-1.7h-4.7l-1.2 1.9 2.8 4.2h2l2.4-4.4Z" fill="#FF725E"/><path d="m312.3 166.3-5 3.3 1.2 1.8 4.9-3.1.2-.3-1.3-1.7Z" fill="#fff"/><path d="M131.7 268.6a1.2 1.2 0 1 0 0-2.4 1.2 1.2 0 0 0 0 2.4Zm69.6-1.2c0 .7-.6 1.2-1.2 1.2-.7 0-1.2-.6-1.2-1.2 0-.7.6-1.2 1.2-1.2.7 0 1.2.5 1.2 1.2Zm67.2 1.2a1.2 1.2 0 1 0 0-2.4 1.2 1.2 0 0 0 0 2.4Zm69.6-1.2c0 .7-.6 1.2-1.2 1.2-.7 0-1.2-.6-1.2-1.2 0-.7.6-1.2 1.2-1.2s1.2.5 1.2 1.2Z" fill="#263238"/></svg>