<svg width="718" height="39" fill="none" xmlns="http://www.w3.org/2000/svg"><path d="M717.7.6c0 .1-160.6.3-358.7.3C160.8.9.3.8.3.6.3.5 160.9.3 359 .3c198.1.1 358.7.2 358.7.3Zm-70.3 36.7s-.3-.1-.8-.3c-.5-.2-1.3-.5-2.2-.9-.9-.4-2.1-.9-3.4-1.5-1.3-.6-2.9-1.1-4.7-1.4-1.8-.3-3.8-.2-5.9.2-1 .2-2.1.5-3.2.9s-2.1 1-3.2 1.5-2.2 1.1-3.5 1.4c-1.3.4-2.6.4-4 .2-2.7-.4-5.2-1.7-7.8-2.7-1.3-.5-2.6-.9-3.9-1.1-1.3-.2-2.7-.1-3.9.3-2.5.8-4.4 2.6-6.6 3.8-1.1.6-2.3 1-3.4 1.1-1.2.1-2.3 0-3.4-.3-2.1-.5-4-1.4-5.7-2-3.4-1.4-6.6-1.2-8.4-.3-.9.5-1.5 1-1.8 1.5-.3.4-.4.7-.5.7 0 0 .1-.3.4-.7.3-.5.9-1.1 1.8-1.6 1.8-1 5.1-1.2 8.6.1 1.7.6 3.6 1.5 5.7 2 1 .2 2.1.4 3.3.2 1.1-.1 2.2-.5 3.3-1.1 2.1-1.1 4-2.9 6.6-3.8 1.3-.4 2.7-.6 4.1-.3 1.4.2 2.7.7 4 1.2 2.6 1 5.1 2.3 7.7 2.7 1.3.2 2.6.2 3.8-.2 1.2-.3 2.3-.8 3.4-1.4 1.1-.5 2.1-1.1 3.2-1.5 1.1-.4 2.2-.7 3.3-.9 2.1-.4 4.2-.5 6.1-.2 1.8.3 3.4.9 4.8 1.5 1.3.6 2.5 1.1 3.4 1.6.9.4 1.6.7 2.2 1l.6.3ZM383.9 25.4s-.3-.1-.8-.3c-.5-.2-1.3-.5-2.2-.9-.9-.4-2.1-.9-3.4-1.5-1.3-.6-2.9-1.1-4.7-1.4-1.8-.3-3.8-.2-5.9.2-1 .2-2.1.5-3.2.9s-2.1 1-3.2 1.5-2.2 1.1-3.5 1.4c-1.3.4-2.6.4-4 .2-2.7-.4-5.2-1.7-7.8-2.7-1.3-.5-2.6-.9-3.9-1.1-1.3-.2-2.7-.1-3.9.3-2.5.8-4.4 2.6-6.6 3.8-1.1.6-2.3 1-3.4 1.1-1.2.1-2.3 0-3.4-.3-2.1-.5-4-1.4-5.7-2-3.4-1.4-6.6-1.2-8.4-.3-.9.5-1.5 1-1.8 1.5-.3.4-.4.7-.5.7 0 0 .1-.3.4-.7.3-.5.9-1.1 1.8-1.6 1.8-1 5.1-1.2 8.6.1 1.7.6 3.6 1.5 5.7 2 1 .2 2.1.4 3.3.2 1.1-.1 2.2-.5 3.3-1.1 2.1-1.1 4-2.9 6.6-3.8 1.3-.4 2.7-.6 4.1-.3 1.4.2 2.7.7 4 1.2 2.6 1 5.1 2.3 7.7 2.7 1.3.2 2.6.2 3.8-.2 1.2-.3 2.3-.8 3.4-1.4 1.1-.5 2.1-1.1 3.2-1.5 1.1-.4 2.2-.7 3.3-.9 2.1-.4 4.2-.5 6.1-.2 1.8.3 3.4.9 4.8 1.5 1.3.6 2.5 1.1 3.4 1.6.9.4 1.6.7 2.2 1l.6.3Z" fill="#263238"/><path d="M701 9.9c0 .1-81.1.3-181 .3-100 0-181-.1-181-.3 0-.1 81-.3 181-.3s181 .1 181 .3Zm-168.7 6.5c0 .1-21.2.3-47.4.3s-47.4-.1-47.4-.3c0-.2 21.2-.3 47.4-.3s47.4.1 47.4.3Z" fill="#455A64"/><path d="M573.5 16.4c0 .1-5.9.3-13.3.3-7.3 0-13.3-.1-13.3-.3 0-.2 5.9-.3 13.3-.3 7.3 0 13.3.1 13.3.3Zm-140.4 0c0 .1-4.1.3-9.1.3s-9.1-.1-9.1-.3c0-.2 4.1-.3 9.1-.3s9.1.1 9.1.3ZM104.9 8c0 .1-16.6.3-37.1.3S30.7 8.2 30.7 8c0-.2 16.6-.3 37.1-.3s37.1.2 37.1.3Zm189.9 1.4c0 .1-20.7.3-46.3.3-25.6 0-46.3-.1-46.3-.3 0-.2 20.7-.3 46.3-.3 25.6 0 46.3.1 46.3.3Z" fill="#FF725E"/></svg>