<svg width="450" height="178" fill="none" xmlns="http://www.w3.org/2000/svg"><path d="M128.9 101.7H53.5v21.9h75.4v-21.9Z" fill="#455A64"/><path opacity=".3" d="M128.9 101.7h-27v21.9h27v-21.9Z" fill="#000"/><path d="M100.8 122.8v-5.4c0-3.4-.1-8.3-.1-14.4l.2.2c-12 0-28.4 0-46.6.1l.3-.3v19.7l-.2-.2c13.5 0 25.1.1 33.3.1 4.1 0 7.4.1 9.7.1h3.3l.1.1h-3.5c-2.3 0-5.5 0-9.6.1-8.3 0-20 .1-33.5.1H54v-19.9l.3-.3c18.1 0 34.6.1 46.6.1h.2v.2c0 6.1-.1 11.1-.1 14.5v4.9c-.2.2-.2.3-.2.3Zm26.8 0v-1.5c0-1 0-2.3-.1-4 0-3.5-.1-8.4-.1-14.3l.2.2h-24.5l.3-.3v19.7l-.2-.2c7.2 0 13.3.1 17.7.1 2.1 0 3.8 0 5 .1h1.3c.2.1.4.1.4.2s-.1 0-.4 0h-1.3c-1.2 0-2.9 0-5 .1-4.4 0-10.5.1-17.8.1h-.2v-19.9l.3-.3h24.7v.2c0 6-.1 10.9-.1 14.4 0 1.7 0 3-.1 4v1c-.1.3-.1.4-.1.4Z" fill="#263238"/><path d="M56.1 122.6c-.1 0-.3-4.4-.3-9.8s.1-9.8.3-9.8c.2 0 .3 4.4.3 9.8-.1 5.4-.2 9.8-.3 9.8Zm2.1 0c-.1 0-.3-4.4-.3-9.8s.1-9.8.3-9.8c.1 0 .3 4.4.3 9.8s-.2 9.8-.3 9.8Zm2.2 0c-.1 0-.3-4.4-.3-9.8s.1-9.8.3-9.8c.2 0 .3 4.4.3 9.8-.1 5.4-.2 9.8-.3 9.8Zm2.1 0c-.1 0-.3-4.4-.3-9.8s.1-9.8.3-9.8c.2 0 .3 4.4.3 9.8s-.2 9.8-.3 9.8Zm2.2 0c-.1 0-.3-4.4-.3-9.8s.1-9.8.3-9.8c.1 0 .3 4.4.3 9.8-.1 5.4-.2 9.8-.3 9.8Zm2.1 0c-.1 0-.3-4.4-.3-9.8s.1-9.8.3-9.8c.2 0 .3 4.4.3 9.8s-.2 9.8-.3 9.8Zm2.2 0c-.1 0-.3-4.4-.3-9.8s.1-9.8.3-9.8c.1 0 .3 4.4.3 9.8-.1 5.4-.2 9.8-.3 9.8Zm2.1 0c-.1 0-.3-4.4-.3-9.8s.1-9.8.3-9.8c.1 0 .3 4.4.3 9.8s-.2 9.8-.3 9.8Zm2.2 0c-.1 0-.3-4.4-.3-9.8s.1-9.8.3-9.8c.1 0 .3 4.4.3 9.8-.1 5.4-.2 9.8-.3 9.8Zm2.1 0c-.1 0-.3-4.4-.3-9.8s.1-9.8.3-9.8c.1 0 .3 4.4.3 9.8s-.2 9.8-.3 9.8Zm2.2 0c-.1 0-.3-4.4-.3-9.8s.1-9.8.3-9.8c.1 0 .3 4.4.3 9.8-.1 5.4-.2 9.8-.3 9.8Zm2.1 0c-.1 0-.3-4.4-.3-9.8s.1-9.8.3-9.8c.1 0 .3 4.4.3 9.8s-.2 9.8-.3 9.8Zm2.2 0c-.1 0-.3-4.4-.3-9.8s.1-9.8.3-9.8c.1 0 .3 4.4.3 9.8-.1 5.4-.2 9.8-.3 9.8Zm2.1 0c-.1 0-.3-4.4-.3-9.8s.1-9.8.3-9.8c.2 0 .3 4.4.3 9.8s-.1 9.8-.3 9.8Zm2.2 0c-.1 0-.3-4.4-.3-9.8s.1-9.8.3-9.8c.2 0 .3 4.4.3 9.8-.1 5.4-.2 9.8-.3 9.8Zm2.1 0c-.1 0-.3-4.4-.3-9.8s.1-9.8.3-9.8c.1 0 .3 4.4.3 9.8s-.1 9.8-.3 9.8Zm2.2 0c-.1 0-.3-4.4-.3-9.8s.1-9.8.3-9.8c.2 0 .3 4.4.3 9.8-.1 5.4-.2 9.8-.3 9.8Zm2.1 0c-.1 0-.3-4.4-.3-9.8s.1-9.8.3-9.8c.1 0 .3 4.4.3 9.8s-.1 9.8-.3 9.8Zm2.2 0c-.1 0-.3-4.4-.3-9.8s.1-9.8.3-9.8c.2 0 .3 4.4.3 9.8-.1 5.4-.2 9.8-.3 9.8Zm2.1 0c-.1 0-.3-4.4-.3-9.8s.1-9.8.3-9.8c.1 0 .3 4.4.3 9.8s-.1 9.8-.3 9.8Zm2.2 0c-.1 0-.3-4.4-.3-9.8s.1-9.8.3-9.8c.1 0 .3 4.4.3 9.8-.1 5.4-.2 9.8-.3 9.8Zm5.9 0c-.1 0-.3-4.4-.3-9.8s.1-9.8.3-9.8c.1 0 .3 4.4.3 9.8s-.1 9.8-.3 9.8Zm2.2 0c-.1 0-.3-4.4-.3-9.8s.1-9.8.3-9.8c.1 0 .3 4.4.3 9.8s-.1 9.8-.3 9.8Zm2.3 0c-.1 0-.3-4.4-.3-9.8s.1-9.8.3-9.8c.1 0 .3 4.4.3 9.8-.1 5.4-.2 9.8-.3 9.8Zm2.2 0c-.1 0-.3-4.4-.3-9.8s.1-9.8.3-9.8c.1 0 .3 4.4.3 9.8-.1 5.4-.2 9.8-.3 9.8Zm2.2 0c-.1 0-.3-4.4-.3-9.8s.1-9.8.3-9.8c.2 0 .3 4.4.3 9.8-.1 5.4-.2 9.8-.3 9.8Zm2.2 0c-.1 0-.3-4.4-.3-9.8s.1-9.8.3-9.8c.1 0 .3 4.4.3 9.8s-.2 9.8-.3 9.8Zm2.2 0c-.1 0-.3-4.4-.3-9.8s.1-9.8.3-9.8c.2 0 .3 4.4.3 9.8s-.1 9.8-.3 9.8Zm2.2 0c-.1 0-.3-4.4-.3-9.8s.1-9.8.3-9.8c.1 0 .3 4.4.3 9.8s-.1 9.8-.3 9.8Zm2.2 0c-.1 0-.3-4.4-.3-9.8s.1-9.8.3-9.8c.1 0 .3 4.4.3 9.8s-.1 9.8-.3 9.8Zm2.3 0c-.1 0-.3-4.4-.3-9.8s.1-9.8.3-9.8c.2 0 .3 4.4.3 9.8-.1 5.4-.2 9.8-.3 9.8Z" fill="#263238"/><path d="M121.9 57.8H46.5v21.9h75.4V57.8Z" fill="#FF725E"/><path opacity=".3" d="M121.9 57.8h-27v21.9h27V57.8Z" fill="#000"/><path d="M93.8 78.8v-5.4c0-3.4-.1-8.3-.1-14.4l.2.2c-12 0-28.4 0-46.6.1l.3-.3v19.7l-.2-.2c13.5 0 25.1.1 33.3.1 4.1 0 7.4.1 9.7.1h3.3c0 .1.1.1.1.1h-3.5c-2.3 0-5.5 0-9.6.1-8.3 0-20 .1-33.5.1H47V59.1l.3-.3c18.1 0 34.6.1 46.6.1h.2v.2c0 6.1-.1 11.1-.1 14.5v4.9c-.2.2-.2.3-.2.3Zm26.8 0v-1.5c0-1 0-2.3-.1-4 0-3.5-.1-8.4-.1-14.3l.2.2H96.1l.3-.3v19.7l-.2-.2c7.2 0 13.3.1 17.7.1 2.1 0 3.8 0 5 .1h1.3c.2.2.4.2.4.2h-1.7c-1.2 0-2.9 0-5 .1-4.4 0-10.5.1-17.8.1h-.2V59.1l.3-.3h24.7v.2c0 6-.1 10.9-.1 14.4 0 1.7 0 3-.1 4v1c-.1.3-.1.4-.1.4Z" fill="#263238"/><path d="M49.1 78.6c-.1 0-.3-4.4-.3-9.8s.1-9.8.3-9.8c.2 0 .3 4.4.3 9.8-.1 5.5-.2 9.8-.3 9.8Zm2.1 0c-.1 0-.3-4.4-.3-9.8s.1-9.8.3-9.8c.1 0 .3 4.4.3 9.8 0 5.5-.1 9.8-.3 9.8Zm2.2 0c-.1 0-.3-4.4-.3-9.8s.1-9.8.3-9.8c.1 0 .3 4.4.3 9.8-.1 5.5-.2 9.8-.3 9.8Zm2.1 0c-.1 0-.3-4.4-.3-9.8s.1-9.8.3-9.8c.1 0 .3 4.4.3 9.8 0 5.5-.1 9.8-.3 9.8Zm2.2 0c-.1 0-.3-4.4-.3-9.8s.1-9.8.3-9.8c.1 0 .3 4.4.3 9.8-.1 5.5-.2 9.8-.3 9.8Zm2.1 0c-.1 0-.3-4.4-.3-9.8s.1-9.8.3-9.8c.1 0 .3 4.4.3 9.8 0 5.5-.1 9.8-.3 9.8Zm2.2 0c-.1 0-.3-4.4-.3-9.8s.1-9.8.3-9.8c.1 0 .3 4.4.3 9.8-.1 5.5-.2 9.8-.3 9.8Zm2.1 0c-.1 0-.3-4.4-.3-9.8s.1-9.8.3-9.8c.2 0 .3 4.4.3 9.8 0 5.5-.1 9.8-.3 9.8Zm2.2 0c-.1 0-.3-4.4-.3-9.8s.1-9.8.3-9.8c.2 0 .3 4.4.3 9.8-.1 5.5-.2 9.8-.3 9.8Zm2.1 0c-.1 0-.3-4.4-.3-9.8s.1-9.8.3-9.8c.2 0 .3 4.4.3 9.8 0 5.5-.1 9.8-.3 9.8Zm2.2 0c-.1 0-.3-4.4-.3-9.8s.1-9.8.3-9.8c.2 0 .3 4.4.3 9.8-.1 5.5-.2 9.8-.3 9.8Zm2.1 0c-.1 0-.3-4.4-.3-9.8s.1-9.8.3-9.8c.2 0 .3 4.4.3 9.8 0 5.5-.1 9.8-.3 9.8Zm2.2 0c-.1 0-.3-4.4-.3-9.8s.1-9.8.3-9.8c.2 0 .3 4.4.3 9.8-.1 5.5-.2 9.8-.3 9.8Zm2.1 0c-.1 0-.3-4.4-.3-9.8s.1-9.8.3-9.8c.1 0 .3 4.4.3 9.8 0 5.5-.1 9.8-.3 9.8Zm2.2 0c-.1 0-.3-4.4-.3-9.8s.1-9.8.3-9.8c.1 0 .3 4.4.3 9.8-.1 5.5-.2 9.8-.3 9.8Zm2.1 0c-.1 0-.3-4.4-.3-9.8s.1-9.8.3-9.8c.1 0 .3 4.4.3 9.8 0 5.5-.1 9.8-.3 9.8Zm2.2 0c-.1 0-.3-4.4-.3-9.8s.1-9.8.3-9.8c.1 0 .3 4.4.3 9.8-.1 5.5-.2 9.8-.3 9.8Zm2.1 0c-.1 0-.3-4.4-.3-9.8s.1-9.8.3-9.8c.1 0 .3 4.4.3 9.8 0 5.5-.1 9.8-.3 9.8Zm2.2 0c-.1 0-.3-4.4-.3-9.8s.1-9.8.3-9.8c.1 0 .3 4.4.3 9.8-.1 5.5-.2 9.8-.3 9.8Zm2.1 0c-.1 0-.3-4.4-.3-9.8s.1-9.8.3-9.8c.1 0 .3 4.4.3 9.8 0 5.5-.1 9.8-.3 9.8Zm2.2 0c-.1 0-.3-4.4-.3-9.8s.1-9.8.3-9.8c.2 0 .3 4.4.3 9.8 0 5.5-.2 9.8-.3 9.8Zm6 0c-.1 0-.3-4.4-.3-9.8s.1-9.8.3-9.8c.1 0 .3 4.4.3 9.8-.1 5.5-.2 9.8-.3 9.8Zm2.2 0c-.1 0-.3-4.4-.3-9.8s.1-9.8.3-9.8c.1 0 .3 4.4.3 9.8-.1 5.5-.2 9.8-.3 9.8Zm2.2 0c-.1 0-.3-4.4-.3-9.8s.1-9.8.3-9.8c.1 0 .3 4.4.3 9.8-.1 5.5-.2 9.8-.3 9.8Zm2.2 0c-.1 0-.3-4.4-.3-9.8s.1-9.8.3-9.8c.1 0 .3 4.4.3 9.8 0 5.5-.2 9.8-.3 9.8Zm2.2 0c-.1 0-.3-4.4-.3-9.8s.1-9.8.3-9.8c.1 0 .3 4.4.3 9.8 0 5.5-.1 9.8-.3 9.8Zm2.2 0c-.1 0-.3-4.4-.3-9.8s.1-9.8.3-9.8c.2 0 .3 4.4.3 9.8 0 5.5-.1 9.8-.3 9.8Zm2.2 0c-.1 0-.3-4.4-.3-9.8s.1-9.8.3-9.8c.1 0 .3 4.4.3 9.8 0 5.5-.1 9.8-.3 9.8Zm2.3 0c-.1 0-.3-4.4-.3-9.8s.1-9.8.3-9.8c.1 0 .3 4.4.3 9.8-.1 5.5-.2 9.8-.3 9.8Zm2.2 0c-.1 0-.3-4.4-.3-9.8s.1-9.8.3-9.8c.1 0 .3 4.4.3 9.8-.1 5.5-.2 9.8-.3 9.8Zm2.2 0c-.1 0-.3-4.4-.3-9.8s.1-9.8.3-9.8c.1 0 .3 4.4.3 9.8 0 5.5-.2 9.8-.3 9.8Z" fill="#263238"/><path d="M80.5 101.7H5.1v21.9h75.4v-21.9Z" fill="#FF725E"/><path opacity=".3" d="M80.5 101.7h-27v21.9h27v-21.9Z" fill="#000"/><path d="M52.4 122.8v-5.4c0-3.4-.1-8.3-.1-14.4l.2.2c-12 0-28.4 0-46.6.1l.3-.3v19.7l-.2-.2c13.5 0 25.1.1 33.3.1 4.1 0 7.4.1 9.7.1h3.3l.1.1h-3.5c-2.3 0-5.5 0-9.6.1-8.3 0-20 .1-33.5.1h-.2v-19.9l.3-.3c18.1 0 34.6.1 46.6.1h.2v.2c0 6.1-.1 11.1-.1 14.5v4.9c-.2.2-.2.3-.2.3Zm26.7 0v-1.5c0-1 0-2.3-.1-4 0-3.5-.1-8.4-.1-14.3l.2.2H54.6l.3-.3v19.7l-.2-.2c7.2 0 13.3.1 17.7.1 2.1 0 3.8 0 5 .1h1.3c.3.1.4.1.4.2s-.1 0-.4 0h-1.3c-1.2 0-2.9 0-5 .1-4.4 0-10.5.1-17.8.1h-.2v-19.9l.3-.3h24.7v.2c0 6-.1 10.9-.1 14.4 0 1.7 0 3-.1 4v1c0 .3 0 .4-.1.4Z" fill="#263238"/><path d="M7.6 122.6c-.1 0-.3-4.4-.3-9.8s.1-9.8.3-9.8c.1 0 .3 4.4.3 9.8s-.1 9.8-.3 9.8Zm2.2 0c-.1 0-.3-4.4-.3-9.8s.1-9.8.3-9.8c.1 0 .3 4.4.3 9.8-.1 5.4-.2 9.8-.3 9.8Zm2.1 0c-.1 0-.3-4.4-.3-9.8s.1-9.8.3-9.8c.1 0 .3 4.4.3 9.8s-.1 9.8-.3 9.8Zm2.2 0c-.1 0-.3-4.4-.3-9.8s.1-9.8.3-9.8c.1 0 .3 4.4.3 9.8-.1 5.4-.2 9.8-.3 9.8Zm2.1 0c-.1 0-.3-4.4-.3-9.8s.1-9.8.3-9.8c.1 0 .3 4.4.3 9.8s-.1 9.8-.3 9.8Zm2.2 0c-.1 0-.3-4.4-.3-9.8s.1-9.8.3-9.8c.2 0 .3 4.4.3 9.8-.1 5.4-.2 9.8-.3 9.8Zm2.1 0c-.1 0-.3-4.4-.3-9.8s.1-9.8.3-9.8c.2 0 .3 4.4.3 9.8s-.1 9.8-.3 9.8Zm2.2 0c-.1 0-.3-4.4-.3-9.8s.1-9.8.3-9.8c.1 0 .3 4.4.3 9.8-.1 5.4-.2 9.8-.3 9.8Zm2.1 0c-.1 0-.3-4.4-.3-9.8s.1-9.8.3-9.8c.2 0 .3 4.4.3 9.8s-.1 9.8-.3 9.8Zm2.2 0c-.1 0-.3-4.4-.3-9.8s.1-9.8.3-9.8c.2 0 .3 4.4.3 9.8-.1 5.4-.2 9.8-.3 9.8Zm2.1 0c-.1 0-.3-4.4-.3-9.8s.1-9.8.3-9.8c.1 0 .3 4.4.3 9.8s-.1 9.8-.3 9.8Zm2.2 0c-.1 0-.3-4.4-.3-9.8s.1-9.8.3-9.8c.1 0 .3 4.4.3 9.8-.1 5.4-.2 9.8-.3 9.8Zm2.1 0c-.1 0-.3-4.4-.3-9.8s.1-9.8.3-9.8c.1 0 .3 4.4.3 9.8s-.1 9.8-.3 9.8Zm2.2 0c-.1 0-.3-4.4-.3-9.8s.1-9.8.3-9.8c.1 0 .3 4.4.3 9.8s-.2 9.8-.3 9.8Zm2.1 0c-.1 0-.3-4.4-.3-9.8s.1-9.8.3-9.8c.1 0 .3 4.4.3 9.8s-.1 9.8-.3 9.8Zm2.2 0c-.1 0-.3-4.4-.3-9.8s.1-9.8.3-9.8c.1 0 .3 4.4.3 9.8s-.2 9.8-.3 9.8Zm2.1 0c-.1 0-.3-4.4-.3-9.8s.1-9.8.3-9.8c.1 0 .3 4.4.3 9.8s-.1 9.8-.3 9.8Zm2.2 0c-.1 0-.3-4.4-.3-9.8s.1-9.8.3-9.8c.1 0 .3 4.4.3 9.8s-.2 9.8-.3 9.8Zm2.1 0c-.1 0-.3-4.4-.3-9.8s.1-9.8.3-9.8c.1 0 .3 4.4.3 9.8s-.1 9.8-.3 9.8Zm2.2 0c-.1 0-.3-4.4-.3-9.8s.1-9.8.3-9.8c.1 0 .3 4.4.3 9.8s-.2 9.8-.3 9.8Zm2.1 0c-.1 0-.3-4.4-.3-9.8s.1-9.8.3-9.8c.2 0 .3 4.4.3 9.8s-.1 9.8-.3 9.8Zm6 0c-.1 0-.3-4.4-.3-9.8s.1-9.8.3-9.8c.1 0 .3 4.4.3 9.8s-.1 9.8-.3 9.8Zm2.2 0c-.1 0-.3-4.4-.3-9.8s.1-9.8.3-9.8c.1 0 .3 4.4.3 9.8s-.1 9.8-.3 9.8Zm2.2 0c-.1 0-.3-4.4-.3-9.8s.1-9.8.3-9.8c.2 0 .3 4.4.3 9.8s-.1 9.8-.3 9.8Zm2.3 0c-.1 0-.3-4.4-.3-9.8s.1-9.8.3-9.8c.1 0 .3 4.4.3 9.8-.1 5.4-.2 9.8-.3 9.8Zm2.2 0c-.1 0-.3-4.4-.3-9.8s.1-9.8.3-9.8c.1 0 .3 4.4.3 9.8-.1 5.4-.2 9.8-.3 9.8Zm2.2 0c-.1 0-.3-4.4-.3-9.8s.1-9.8.3-9.8c.2 0 .3 4.4.3 9.8-.1 5.4-.2 9.8-.3 9.8Zm2.2 0c-.1 0-.3-4.4-.3-9.8s.1-9.8.3-9.8c.1 0 .3 4.4.3 9.8s-.2 9.8-.3 9.8Zm2.2 0c-.1 0-.3-4.4-.3-9.8s.1-9.8.3-9.8c.1 0 .3 4.4.3 9.8s-.1 9.8-.3 9.8Zm2.2 0c-.1 0-.3-4.4-.3-9.8s.1-9.8.3-9.8c.2 0 .3 4.4.3 9.8s-.1 9.8-.3 9.8Zm2.2 0c-.1 0-.3-4.4-.3-9.8s.1-9.8.3-9.8c.1 0 .3 4.4.3 9.8s-.1 9.8-.3 9.8Z" fill="#263238"/><path d="M114.2 79.8H38.8v21.9h75.4V79.8Z" fill="#E0E0E0"/><path opacity=".3" d="M114.2 79.8h-27v21.9h27V79.8Z" fill="#000"/><path d="M86.1 100.8v-5.4c0-3.4-.1-8.3-.1-14.4l.2.2c-12 0-28.4 0-46.6.1l.3-.3v19.7l-.2-.2c13.5 0 25.1.1 33.3.1 4.1 0 7.4.1 9.7.1H86c0 .1.1.1.1.1h-3.5c-2.3 0-5.5 0-9.6.1-8.3 0-20 .1-33.5.1h-.2V81.1l.3-.3c18.1 0 34.6.1 46.6.1h.2v.2c0 6.1-.1 11.1-.1 14.5v4.9c-.2.2-.2.3-.2.3Zm26.8 0v-1.5c0-1 0-2.3-.1-4 0-3.5-.1-8.4-.1-14.3l.2.2H88.4l.3-.3v19.7l-.2-.2c7.2 0 13.3.1 17.7.1 2.1 0 3.8 0 5 .1h1.3c.2.2.4.2.4.2h-1.7c-1.2 0-2.9 0-5 .1-4.4 0-10.5.1-17.8.1h-.2V81.1l.3-.3h24.7v.2c0 6-.1 10.9-.1 14.4 0 1.7 0 3-.1 4v1c-.1.3-.1.4-.1.4Z" fill="#263238"/><path d="M41.4 100.6c-.1 0-.3-4.4-.3-9.8s.1-9.8.3-9.8c.1 0 .3 4.4.3 9.8-.1 5.4-.2 9.8-.3 9.8Zm2.1 0c-.1 0-.3-4.4-.3-9.8s.1-9.8.3-9.8c.1 0 .3 4.4.3 9.8s-.1 9.8-.3 9.8Zm2.2 0c-.1 0-.3-4.4-.3-9.8s.1-9.8.3-9.8c.1 0 .3 4.4.3 9.8-.1 5.4-.2 9.8-.3 9.8Zm2.1 0c-.1 0-.3-4.4-.3-9.8s.1-9.8.3-9.8c.1 0 .3 4.4.3 9.8s-.1 9.8-.3 9.8Zm2.2 0c-.1 0-.3-4.4-.3-9.8s.1-9.8.3-9.8c.2 0 .3 4.4.3 9.8-.1 5.4-.2 9.8-.3 9.8Zm2.1 0c-.1 0-.3-4.4-.3-9.8s.1-9.8.3-9.8c.1 0 .3 4.4.3 9.8s-.1 9.8-.3 9.8Zm2.2 0c-.1 0-.3-4.4-.3-9.8s.1-9.8.3-9.8c.2 0 .3 4.4.3 9.8-.1 5.4-.2 9.8-.3 9.8Zm2.1 0c-.1 0-.3-4.4-.3-9.8s.1-9.8.3-9.8c.2 0 .3 4.4.3 9.8s-.1 9.8-.3 9.8Zm2.2 0c-.1 0-.3-4.4-.3-9.8s.1-9.8.3-9.8c.1 0 .3 4.4.3 9.8-.1 5.4-.2 9.8-.3 9.8Zm2.1 0c-.1 0-.3-4.4-.3-9.8s.1-9.8.3-9.8c.2 0 .3 4.4.3 9.8s-.1 9.8-.3 9.8Zm2.2 0c-.1 0-.3-4.4-.3-9.8s.1-9.8.3-9.8c.1 0 .3 4.4.3 9.8-.1 5.4-.2 9.8-.3 9.8Zm2.1 0c-.1 0-.3-4.4-.3-9.8s.1-9.8.3-9.8c.1 0 .3 4.4.3 9.8s-.1 9.8-.3 9.8Zm2.2 0c-.1 0-.3-4.4-.3-9.8s.1-9.8.3-9.8c.1 0 .3 4.4.3 9.8-.1 5.4-.2 9.8-.3 9.8Zm2.1 0c-.1 0-.3-4.4-.3-9.8s.1-9.8.3-9.8c.1 0 .3 4.4.3 9.8s-.1 9.8-.3 9.8Zm2.2 0c-.1 0-.3-4.4-.3-9.8s.1-9.8.3-9.8c.1 0 .3 4.4.3 9.8-.1 5.4-.2 9.8-.3 9.8Zm2.1 0c-.1 0-.3-4.4-.3-9.8s.1-9.8.3-9.8c.1 0 .3 4.4.3 9.8s-.1 9.8-.3 9.8Zm2.2 0c-.1 0-.3-4.4-.3-9.8s.1-9.8.3-9.8c.1 0 .3 4.4.3 9.8s-.2 9.8-.3 9.8Zm2.1 0c-.1 0-.3-4.4-.3-9.8s.1-9.8.3-9.8c.2 0 .3 4.4.3 9.8s-.1 9.8-.3 9.8Zm2.2 0c-.1 0-.3-4.4-.3-9.8s.1-9.8.3-9.8c.2 0 .3 4.4.3 9.8s-.2 9.8-.3 9.8Zm2.1 0c-.1 0-.3-4.4-.3-9.8s.1-9.8.3-9.8c.1 0 .3 4.4.3 9.8s-.1 9.8-.3 9.8Zm2.2 0c-.1 0-.3-4.4-.3-9.8s.1-9.8.3-9.8c.2 0 .3 4.4.3 9.8s-.2 9.8-.3 9.8Zm6 0c-.1 0-.3-4.4-.3-9.8s.1-9.8.3-9.8c.2 0 .3 4.4.3 9.8-.1 5.4-.2 9.8-.3 9.8Zm2.2 0c-.1 0-.3-4.4-.3-9.8s.1-9.8.3-9.8c.1 0 .3 4.4.3 9.8-.1 5.4-.2 9.8-.3 9.8Zm2.2 0c-.1 0-.3-4.4-.3-9.8s.1-9.8.3-9.8c.1 0 .3 4.4.3 9.8s-.2 9.8-.3 9.8Zm2.2 0c-.1 0-.3-4.4-.3-9.8s.1-9.8.3-9.8c.2 0 .3 4.4.3 9.8s-.2 9.8-.3 9.8Zm2.2 0c-.1 0-.3-4.4-.3-9.8s.1-9.8.3-9.8c.1 0 .3 4.4.3 9.8s-.1 9.8-.3 9.8Zm2.2 0c-.1 0-.3-4.4-.3-9.8s.1-9.8.3-9.8c.1 0 .3 4.4.3 9.8s-.1 9.8-.3 9.8Zm2.3 0c-.1 0-.3-4.4-.3-9.8s.1-9.8.3-9.8c.2 0 .3 4.4.3 9.8-.1 5.4-.2 9.8-.3 9.8Zm2.2 0c-.1 0-.3-4.4-.3-9.8s.1-9.8.3-9.8c.1 0 .3 4.4.3 9.8-.1 5.4-.2 9.8-.3 9.8Zm2.2 0c-.1 0-.3-4.4-.3-9.8s.1-9.8.3-9.8c.1 0 .3 4.4.3 9.8-.1 5.4-.2 9.8-.3 9.8Zm2.2 0c-.1 0-.3-4.4-.3-9.8s.1-9.8.3-9.8c.2 0 .3 4.4.3 9.8s-.2 9.8-.3 9.8Z" fill="#263238"/><path d="M84 79.8H8.6v21.9H84V79.8Z" fill="#455A64"/><path opacity=".3" d="M84 79.8H57v21.9h27V79.8Z" fill="#000"/><path d="M55.9 100.8v-5.4c0-3.4-.1-8.3-.1-14.4l.2.2c-12 0-28.4 0-46.6.1l.3-.3v19.7l-.2-.2c13.5 0 25.1.1 33.3.1 4.1 0 7.4.1 9.7.1h3.3l.1.1h-3.5c-2.3 0-5.5 0-9.6.1-8.3 0-20 .1-33.5.1h-.2V81.1l.3-.3c18.1 0 34.6.1 46.6.1h.2v.2c0 6.1-.1 11.1-.1 14.5v4.9c-.1.2-.1.3-.2.3Zm26.8 0v-1.5c0-1 0-2.3-.1-4 0-3.5-.1-8.4-.1-14.3l.2.2H58.2l.3-.3v19.7l-.2-.2c7.2 0 13.3.1 17.7.1 2.1 0 3.8 0 5 .1h1.3c.2.2.4.2.4.2H81c-1.2 0-2.9 0-5 .1-4.4 0-10.5.1-17.8.1H58V81.1l.3-.3H83v.2c0 6-.1 10.9-.1 14.4 0 1.7 0 3-.1 4v1c-.1.3-.1.4-.1.4Z" fill="#263238"/><path d="M11.2 100.6c-.1 0-.3-4.4-.3-9.8s.1-9.8.3-9.8c.1 0 .3 4.4.3 9.8s-.2 9.8-.3 9.8Zm2.1 0c-.1 0-.3-4.4-.3-9.8s.1-9.8.3-9.8c.2 0 .3 4.4.3 9.8s-.1 9.8-.3 9.8Zm2.2 0c-.1 0-.3-4.4-.3-9.8s.1-9.8.3-9.8c.2 0 .3 4.4.3 9.8s-.2 9.8-.3 9.8Zm2.2 0c-.1 0-.3-4.4-.3-9.8s.1-9.8.3-9.8c.1 0 .3 4.4.3 9.8-.1 5.4-.2 9.8-.3 9.8Zm2.1 0c-.1 0-.3-4.4-.3-9.8s.1-9.8.3-9.8c.1 0 .3 4.4.3 9.8s-.2 9.8-.3 9.8Zm2.2 0c-.1 0-.3-4.4-.3-9.8s.1-9.8.3-9.8c.1 0 .3 4.4.3 9.8-.1 5.4-.2 9.8-.3 9.8Zm2.1 0c-.1 0-.3-4.4-.3-9.8s.1-9.8.3-9.8c.1 0 .3 4.4.3 9.8s-.2 9.8-.3 9.8Zm2.2 0c-.1 0-.3-4.4-.3-9.8s.1-9.8.3-9.8c.1 0 .3 4.4.3 9.8-.1 5.4-.2 9.8-.3 9.8Zm2.1 0c-.1 0-.3-4.4-.3-9.8s.1-9.8.3-9.8c.1 0 .3 4.4.3 9.8s-.2 9.8-.3 9.8Zm2.2 0c-.1 0-.3-4.4-.3-9.8s.1-9.8.3-9.8c.1 0 .3 4.4.3 9.8-.1 5.4-.2 9.8-.3 9.8Zm2.1 0c-.1 0-.3-4.4-.3-9.8s.1-9.8.3-9.8c.1 0 .3 4.4.3 9.8s-.2 9.8-.3 9.8Zm2.2 0c-.1 0-.3-4.4-.3-9.8s.1-9.8.3-9.8c.1 0 .3 4.4.3 9.8-.1 5.4-.2 9.8-.3 9.8Zm2.1 0c-.1 0-.3-4.4-.3-9.8s.1-9.8.3-9.8c.1 0 .3 4.4.3 9.8s-.2 9.8-.3 9.8Zm2.2 0c-.1 0-.3-4.4-.3-9.8s.1-9.8.3-9.8c.1 0 .3 4.4.3 9.8-.1 5.4-.2 9.8-.3 9.8Zm2.1 0c-.1 0-.3-4.4-.3-9.8s.1-9.8.3-9.8c.1 0 .3 4.4.3 9.8s-.1 9.8-.3 9.8Zm2.2 0c-.1 0-.3-4.4-.3-9.8s.1-9.8.3-9.8c.1 0 .3 4.4.3 9.8-.1 5.4-.2 9.8-.3 9.8Zm2.1 0c-.1 0-.3-4.4-.3-9.8s.1-9.8.3-9.8c.1 0 .3 4.4.3 9.8s-.1 9.8-.3 9.8Zm2.2 0c-.1 0-.3-4.4-.3-9.8s.1-9.8.3-9.8c.1 0 .3 4.4.3 9.8-.1 5.4-.2 9.8-.3 9.8Zm2.1 0c-.1 0-.3-4.4-.3-9.8s.1-9.8.3-9.8c.1 0 .3 4.4.3 9.8s-.1 9.8-.3 9.8Zm2.2 0c-.1 0-.3-4.4-.3-9.8s.1-9.8.3-9.8c.1 0 .3 4.4.3 9.8-.1 5.4-.2 9.8-.3 9.8Zm2.1 0c-.1 0-.3-4.4-.3-9.8s.1-9.8.3-9.8c.1 0 .3 4.4.3 9.8s-.1 9.8-.3 9.8Zm6 0c-.1 0-.3-4.4-.3-9.8s.1-9.8.3-9.8c.1 0 .3 4.4.3 9.8-.1 5.4-.2 9.8-.3 9.8Zm2.2 0c-.1 0-.3-4.4-.3-9.8s.1-9.8.3-9.8c.1 0 .3 4.4.3 9.8s-.2 9.8-.3 9.8Zm2.2 0c-.1 0-.3-4.4-.3-9.8s.1-9.8.3-9.8c.2 0 .3 4.4.3 9.8s-.1 9.8-.3 9.8Zm2.2 0c-.1 0-.3-4.4-.3-9.8s.1-9.8.3-9.8c.1 0 .3 4.4.3 9.8s-.1 9.8-.3 9.8Zm2.2 0c-.1 0-.3-4.4-.3-9.8s.1-9.8.3-9.8c.1 0 .3 4.4.3 9.8s-.1 9.8-.3 9.8Zm2.3 0c-.1 0-.3-4.4-.3-9.8s.1-9.8.3-9.8c.2 0 .3 4.4.3 9.8-.1 5.4-.2 9.8-.3 9.8Zm2.2 0c-.1 0-.3-4.4-.3-9.8s.1-9.8.3-9.8c.1 0 .3 4.4.3 9.8-.1 5.4-.2 9.8-.3 9.8Zm2.2 0c-.1 0-.3-4.4-.3-9.8s.1-9.8.3-9.8c.1 0 .3 4.4.3 9.8-.1 5.4-.2 9.8-.3 9.8Zm2.2 0c-.1 0-.3-4.4-.3-9.8s.1-9.8.3-9.8c.1 0 .3 4.4.3 9.8s-.2 9.8-.3 9.8Zm2.2 0c-.1 0-.3-4.4-.3-9.8s.1-9.8.3-9.8c.1 0 .3 4.4.3 9.8s-.1 9.8-.3 9.8Z" fill="#263238"/><path d="M119.9 54.9V41.7h12.5v12.4l-12.5.8Z" fill="#E0E0E0"/><path d="M197.3 41.7h-64.9v12.4h64.9V41.7Z" fill="#F5F5F5"/><path d="M396 78.7h-75.4v21.9H396V78.7Z" fill="#E0E0E0"/><path opacity=".3" d="M396.1 78.7h-27v21.9h27V78.7Z" fill="#000"/><path d="M368 99.7v-5.4c0-3.4-.1-8.3-.1-14.4l.2.2c-12 0-28.4 0-46.6.1l.3-.3v19.7l-.2-.2c13.5 0 25.1.1 33.3.1 4.1 0 7.4.1 9.7.1h3.3c0 .1.1.1.1.1h-3.5c-2.3 0-5.5 0-9.6.1-8.3 0-20 .1-33.5.1h-.2V80l.3-.3c18.1 0 34.6.1 46.6.1h.2v.2c0 6.1-.1 11.1-.1 14.5v4.9c-.2.2-.2.4-.2.3Zm26.7 0v-1.5c0-1 0-2.3-.1-4 0-3.5-.1-8.4-.1-14.3l.2.2h-24.5l.3-.3v19.7l-.2-.2c7.2 0 13.3.1 17.7.1 2.1 0 3.8 0 5 .1h1.3c.3.2.4.2.4.2H393c-1.2 0-2.9 0-5 .1-4.4 0-10.5.1-17.8.1h-.2V80l.3-.3H395v.2c0 6-.1 10.9-.1 14.4 0 1.7 0 3-.1 4v1c-.1.3-.1.5-.1.4Z" fill="#263238"/><path d="M323.2 99.6c-.1 0-.3-4.4-.3-9.8s.1-9.8.3-9.8c.1 0 .3 4.4.3 9.8s-.1 9.8-.3 9.8Zm2.2 0c-.1 0-.3-4.4-.3-9.8s.1-9.8.3-9.8c.1 0 .3 4.4.3 9.8-.1 5.4-.2 9.8-.3 9.8Zm2.1 0c-.1 0-.3-4.4-.3-9.8s.1-9.8.3-9.8c.1 0 .3 4.4.3 9.8s-.1 9.8-.3 9.8Zm2.2 0c-.1 0-.3-4.4-.3-9.8s.1-9.8.3-9.8c.1 0 .3 4.4.3 9.8-.1 5.4-.2 9.8-.3 9.8Zm2.1 0c-.1 0-.3-4.4-.3-9.8s.1-9.8.3-9.8c.1 0 .3 4.4.3 9.8s-.1 9.8-.3 9.8Zm2.2 0c-.1 0-.3-4.4-.3-9.8s.1-9.8.3-9.8c.1 0 .3 4.4.3 9.8-.1 5.4-.2 9.8-.3 9.8Zm2.1 0c-.1 0-.3-4.4-.3-9.8s.1-9.8.3-9.8c.1 0 .3 4.4.3 9.8s-.1 9.8-.3 9.8Zm2.2 0c-.1 0-.3-4.4-.3-9.8s.1-9.8.3-9.8c.2 0 .3 4.4.3 9.8-.1 5.4-.2 9.8-.3 9.8Zm2.1 0c-.1 0-.3-4.4-.3-9.8s.1-9.8.3-9.8c.2 0 .3 4.4.3 9.8s-.1 9.8-.3 9.8Zm2.2 0c-.1 0-.3-4.4-.3-9.8s.1-9.8.3-9.8c.2 0 .3 4.4.3 9.8-.1 5.4-.2 9.8-.3 9.8Zm2.1 0c-.1 0-.3-4.4-.3-9.8s.1-9.8.3-9.8c.2 0 .3 4.4.3 9.8s-.1 9.8-.3 9.8Zm2.2 0c-.1 0-.3-4.4-.3-9.8s.1-9.8.3-9.8c.2 0 .3 4.4.3 9.8-.1 5.4-.2 9.8-.3 9.8Zm2.1 0c-.1 0-.3-4.4-.3-9.8s.1-9.8.3-9.8c.1 0 .3 4.4.3 9.8s-.1 9.8-.3 9.8Zm2.2 0c-.1 0-.3-4.4-.3-9.8s.1-9.8.3-9.8c.1 0 .3 4.4.3 9.8-.1 5.4-.2 9.8-.3 9.8Zm2.1 0c-.1 0-.3-4.4-.3-9.8s.1-9.8.3-9.8c.1 0 .3 4.4.3 9.8s-.1 9.8-.3 9.8Zm2.2 0c-.1 0-.3-4.4-.3-9.8s.1-9.8.3-9.8c.1 0 .3 4.4.3 9.8-.1 5.4-.2 9.8-.3 9.8Zm2.1 0c-.1 0-.3-4.4-.3-9.8s.1-9.8.3-9.8c.1 0 .3 4.4.3 9.8s-.1 9.8-.3 9.8Zm2.2 0c-.1 0-.3-4.4-.3-9.8s.1-9.8.3-9.8c.1 0 .3 4.4.3 9.8-.1 5.4-.2 9.8-.3 9.8Zm2.1 0c-.1 0-.3-4.4-.3-9.8s.1-9.8.3-9.8c.1 0 .3 4.4.3 9.8s-.1 9.8-.3 9.8Zm2.2 0c-.1 0-.3-4.4-.3-9.8s.1-9.8.3-9.8c.1 0 .3 4.4.3 9.8-.1 5.4-.2 9.8-.3 9.8Zm2.1 0c-.1 0-.3-4.4-.3-9.8s.1-9.8.3-9.8c.1 0 .3 4.4.3 9.8s-.1 9.8-.3 9.8Zm6 0c-.1 0-.3-4.4-.3-9.8s.1-9.8.3-9.8c.2 0 .3 4.4.3 9.8s-.2 9.8-.3 9.8Zm2.2 0c-.1 0-.3-4.4-.3-9.8s.1-9.8.3-9.8c.1 0 .3 4.4.3 9.8s-.1 9.8-.3 9.8Zm2.2 0c-.1 0-.3-4.4-.3-9.8s.1-9.8.3-9.8c.2 0 .3 4.4.3 9.8s-.1 9.8-.3 9.8Zm2.2 0c-.1 0-.3-4.4-.3-9.8s.1-9.8.3-9.8c.2 0 .3 4.4.3 9.8s-.1 9.8-.3 9.8Zm2.3 0c-.1 0-.3-4.4-.3-9.8s.1-9.8.3-9.8c.1 0 .3 4.4.3 9.8-.1 5.4-.2 9.8-.3 9.8Zm2.2 0c-.1 0-.3-4.4-.3-9.8s.1-9.8.3-9.8c.2 0 .3 4.4.3 9.8-.1 5.4-.2 9.8-.3 9.8Zm2.2 0c-.1 0-.3-4.4-.3-9.8s.1-9.8.3-9.8c.1 0 .3 4.4.3 9.8-.1 5.4-.2 9.8-.3 9.8Zm2.2 0c-.1 0-.3-4.4-.3-9.8s.1-9.8.3-9.8c.1 0 .3 4.4.3 9.8s-.2 9.8-.3 9.8Zm2.2 0c-.1 0-.3-4.4-.3-9.8s.1-9.8.3-9.8c.2 0 .3 4.4.3 9.8s-.1 9.8-.3 9.8Zm2.2 0c-.1 0-.3-4.4-.3-9.8s.1-9.8.3-9.8c.1 0 .3 4.4.3 9.8s-.1 9.8-.3 9.8Z" fill="#263238"/><path d="M256 101.6h-75.4v21.9H256v-21.9Z" fill="#455A64"/><path opacity=".3" d="M256 101.6h-27v21.9h27v-21.9Z" fill="#000"/><path d="M228 122.6v-5.4c0-3.4-.1-8.3-.1-14.4l.2.2c-12 0-28.4 0-46.6.1l.3-.3v19.7l-.2-.2c13.5 0 25.1.1 33.3.1 4.1 0 7.4.1 9.7.1h3.3c0 .1 0 .1.1.1h-3.5c-2.3 0-5.5 0-9.6.1-8.3 0-20 .1-33.5.1h-.2v-19.9l.3-.3c18.1 0 34.6.1 46.6.1h.2v.2c0 6.1-.1 11.1-.1 14.5v4.9c-.2.2-.2.3-.2.3Zm26.7 0v-1.5c0-1 0-2.3-.1-4 0-3.5-.1-8.4-.1-14.3l.2.2h-24.5l.3-.3v19.7l-.2-.2c7.2 0 13.3.1 17.7.1 2.1 0 3.8 0 5 .1h1.3c.2.2.4.2.4.2H253c-1.2 0-2.9 0-5 .1-4.4 0-10.5.1-17.8.1h-.2v-19.9l.3-.3H255v.2c0 6-.1 10.9-.1 14.4 0 1.7 0 3-.1 4v1c-.1.3-.1.4-.1.4Z" fill="#263238"/><path d="M183.2 122.4c-.1 0-.3-4.4-.3-9.8s.1-9.8.3-9.8c.2 0 .3 4.4.3 9.8s-.1 9.8-.3 9.8Zm2.2 0c-.1 0-.3-4.4-.3-9.8s.1-9.8.3-9.8c.2 0 .3 4.4.3 9.8-.1 5.4-.2 9.8-.3 9.8Zm2.1 0c-.1 0-.3-4.4-.3-9.8s.1-9.8.3-9.8c.2 0 .3 4.4.3 9.8s-.1 9.8-.3 9.8Zm2.2 0c-.1 0-.3-4.4-.3-9.8s.1-9.8.3-9.8c.1 0 .3 4.4.3 9.8-.1 5.4-.2 9.8-.3 9.8Zm2.1 0c-.1 0-.3-4.4-.3-9.8s.1-9.8.3-9.8c.2 0 .3 4.4.3 9.8s-.1 9.8-.3 9.8Zm2.2 0c-.1 0-.3-4.4-.3-9.8s.1-9.8.3-9.8c.2 0 .3 4.4.3 9.8-.1 5.4-.2 9.8-.3 9.8Zm2.1 0c-.1 0-.3-4.4-.3-9.8s.1-9.8.3-9.8c.1 0 .3 4.4.3 9.8s-.1 9.8-.3 9.8Zm2.2 0c-.1 0-.3-4.4-.3-9.8s.1-9.8.3-9.8c.1 0 .3 4.4.3 9.8-.1 5.4-.2 9.8-.3 9.8Zm2.1 0c-.1 0-.3-4.4-.3-9.8s.1-9.8.3-9.8c.1 0 .3 4.4.3 9.8s-.1 9.8-.3 9.8Zm2.2 0c-.1 0-.3-4.4-.3-9.8s.1-9.8.3-9.8c.1 0 .3 4.4.3 9.8-.1 5.4-.2 9.8-.3 9.8Zm2.1 0c-.1 0-.3-4.4-.3-9.8s.1-9.8.3-9.8c.1 0 .3 4.4.3 9.8s-.1 9.8-.3 9.8Zm2.2 0c-.1 0-.3-4.4-.3-9.8s.1-9.8.3-9.8c.1 0 .3 4.4.3 9.8-.1 5.4-.2 9.8-.3 9.8Zm2.1 0c-.1 0-.3-4.4-.3-9.8s.1-9.8.3-9.8c.1 0 .3 4.4.3 9.8s-.1 9.8-.3 9.8Zm2.2 0c-.1 0-.3-4.4-.3-9.8s.1-9.8.3-9.8c.2 0 .3 4.4.3 9.8-.1 5.4-.2 9.8-.3 9.8Zm2.1 0c-.1 0-.3-4.4-.3-9.8s.1-9.8.3-9.8c.2 0 .3 4.4.3 9.8s-.1 9.8-.3 9.8Zm2.2 0c-.1 0-.3-4.4-.3-9.8s.1-9.8.3-9.8c.2 0 .3 4.4.3 9.8-.1 5.4-.2 9.8-.3 9.8Zm2.1 0c-.1 0-.3-4.4-.3-9.8s.1-9.8.3-9.8c.2 0 .3 4.4.3 9.8s-.1 9.8-.3 9.8Zm2.2 0c-.1 0-.3-4.4-.3-9.8s.1-9.8.3-9.8c.1 0 .3 4.4.3 9.8-.1 5.4-.2 9.8-.3 9.8Zm2.1 0c-.1 0-.3-4.4-.3-9.8s.1-9.8.3-9.8c.2 0 .3 4.4.3 9.8s-.1 9.8-.3 9.8Zm2.2 0c-.1 0-.3-4.4-.3-9.8s.1-9.8.3-9.8c.1 0 .3 4.4.3 9.8-.1 5.4-.2 9.8-.3 9.8Zm2.1 0c-.1 0-.3-4.4-.3-9.8s.1-9.8.3-9.8c.1 0 .3 4.4.3 9.8s-.1 9.8-.3 9.8Zm6 0c-.1 0-.3-4.4-.3-9.8s.1-9.8.3-9.8c.1 0 .3 4.4.3 9.8-.1 5.4-.2 9.8-.3 9.8Zm2.2 0c-.1 0-.3-4.4-.3-9.8s.1-9.8.3-9.8c.2 0 .3 4.4.3 9.8s-.2 9.8-.3 9.8Zm2.2 0c-.1 0-.3-4.4-.3-9.8s.1-9.8.3-9.8c.1 0 .3 4.4.3 9.8s-.1 9.8-.3 9.8Zm2.2 0c-.1 0-.3-4.4-.3-9.8s.1-9.8.3-9.8c.1 0 .3 4.4.3 9.8s-.1 9.8-.3 9.8Zm2.2 0c-.1 0-.3-4.4-.3-9.8s.1-9.8.3-9.8c.1 0 .3 4.4.3 9.8s-.1 9.8-.3 9.8Zm2.3 0c-.1 0-.3-4.4-.3-9.8s.1-9.8.3-9.8c.1 0 .3 4.4.3 9.8-.1 5.4-.2 9.8-.3 9.8Zm2.2 0c-.1 0-.3-4.4-.3-9.8s.1-9.8.3-9.8c.2 0 .3 4.4.3 9.8-.1 5.4-.2 9.8-.3 9.8Zm2.2 0c-.1 0-.3-4.4-.3-9.8s.1-9.8.3-9.8c.2 0 .3 4.4.3 9.8s-.2 9.8-.3 9.8Zm2.2 0c-.1 0-.3-4.4-.3-9.8s.1-9.8.3-9.8c.1 0 .3 4.4.3 9.8s-.2 9.8-.3 9.8Zm2.2 0c-.1 0-.3-4.4-.3-9.8s.1-9.8.3-9.8c.1 0 .3 4.4.3 9.8s-.1 9.8-.3 9.8Z" fill="#263238"/><path d="M348.4 56.5H273v21.9h75.4V56.5Z" fill="#455A64"/><path opacity=".3" d="M348.4 56.5h-27v21.9h27V56.5Z" fill="#000"/><path d="M320.4 77.5v-5.4c0-3.4-.1-8.3-.1-14.4l.2.2c-12 0-28.4 0-46.6.1l.3-.3v19.7l-.2-.2c13.5 0 25.1.1 33.3.1 4.1 0 7.4.1 9.7.1h3.3c0 .1 0 .1.1.1h-3.5c-2.3 0-5.5 0-9.6.1-8.3 0-20 .1-33.5.1h-.2V57.8l.3-.3c18.1 0 34.6.1 46.6.1h.2v.2c0 6.1-.1 11.1-.1 14.5v4.9c-.2.2-.2.3-.2.3Zm26.7 0V76c0-1 0-2.3-.1-4 0-3.5-.1-8.4-.1-14.3l.2.2h-24.5l.3-.3v19.7l-.2-.2c7.2 0 13.3.1 17.7.1 2.1 0 3.8 0 5 .1h1.3c.2.2.4.2.4.2h-1.7c-1.2 0-2.9 0-5 .1-4.4 0-10.5.1-17.8.1h-.2V57.8l.3-.3h24.7v.2c0 6-.1 10.9-.1 14.4 0 1.7 0 3-.1 4v1c-.1.3-.1.4-.1.4Z" fill="#263238"/><path d="M275.6 77.3c-.1 0-.3-4.4-.3-9.8s.1-9.8.3-9.8c.2 0 .3 4.4.3 9.8s-.2 9.8-.3 9.8Zm2.2 0c-.1 0-.3-4.4-.3-9.8s.1-9.8.3-9.8c.1 0 .3 4.4.3 9.8-.1 5.4-.2 9.8-.3 9.8Zm2.1 0c-.1 0-.3-4.4-.3-9.8s.1-9.8.3-9.8c.1 0 .3 4.4.3 9.8s-.1 9.8-.3 9.8Zm2.2 0c-.1 0-.3-4.4-.3-9.8s.1-9.8.3-9.8c.2 0 .3 4.4.3 9.8-.1 5.4-.2 9.8-.3 9.8Zm2.1 0c-.1 0-.3-4.4-.3-9.8s.1-9.8.3-9.8c.1 0 .3 4.4.3 9.8s-.1 9.8-.3 9.8Zm2.2 0c-.1 0-.3-4.4-.3-9.8s.1-9.8.3-9.8c.1 0 .3 4.4.3 9.8-.1 5.4-.2 9.8-.3 9.8Zm2.1 0c-.1 0-.3-4.4-.3-9.8s.1-9.8.3-9.8c.1 0 .3 4.4.3 9.8s-.1 9.8-.3 9.8Zm2.2 0c-.1 0-.3-4.4-.3-9.8s.1-9.8.3-9.8c.1 0 .3 4.4.3 9.8-.1 5.4-.2 9.8-.3 9.8Zm2.1 0c-.1 0-.3-4.4-.3-9.8s.1-9.8.3-9.8c.2 0 .3 4.4.3 9.8s-.1 9.8-.3 9.8Zm2.2 0c-.1 0-.3-4.4-.3-9.8s.1-9.8.3-9.8c.2 0 .3 4.4.3 9.8-.1 5.4-.2 9.8-.3 9.8Zm2.1 0c-.1 0-.3-4.4-.3-9.8s.1-9.8.3-9.8c.1 0 .3 4.4.3 9.8s-.1 9.8-.3 9.8Zm2.2 0c-.1 0-.3-4.4-.3-9.8s.1-9.8.3-9.8c.2 0 .3 4.4.3 9.8-.1 5.4-.2 9.8-.3 9.8Zm2.1 0c-.1 0-.3-4.4-.3-9.8s.1-9.8.3-9.8c.2 0 .3 4.4.3 9.8s-.1 9.8-.3 9.8Zm2.2 0c-.1 0-.3-4.4-.3-9.8s.1-9.8.3-9.8c.2 0 .3 4.4.3 9.8-.1 5.4-.2 9.8-.3 9.8Zm2.1 0c-.1 0-.3-4.4-.3-9.8s.1-9.8.3-9.8c.1 0 .3 4.4.3 9.8s-.1 9.8-.3 9.8Zm2.2 0c-.1 0-.3-4.4-.3-9.8s.1-9.8.3-9.8c.2 0 .3 4.4.3 9.8-.1 5.4-.2 9.8-.3 9.8Zm2.1 0c-.1 0-.3-4.4-.3-9.8s.1-9.8.3-9.8c.1 0 .3 4.4.3 9.8s-.1 9.8-.3 9.8Zm2.2 0c-.1 0-.3-4.4-.3-9.8s.1-9.8.3-9.8c.1 0 .3 4.4.3 9.8-.1 5.4-.2 9.8-.3 9.8Zm2.1 0c-.1 0-.3-4.4-.3-9.8s.1-9.8.3-9.8c.1 0 .3 4.4.3 9.8s-.1 9.8-.3 9.8Zm2.2 0c-.1 0-.3-4.4-.3-9.8s.1-9.8.3-9.8c.1 0 .3 4.4.3 9.8-.1 5.4-.2 9.8-.3 9.8Zm2.1 0c-.1 0-.3-4.4-.3-9.8s.1-9.8.3-9.8c.1 0 .3 4.4.3 9.8s-.1 9.8-.3 9.8Zm6 0c-.1 0-.3-4.4-.3-9.8s.1-9.8.3-9.8c.1 0 .3 4.4.3 9.8-.1 5.4-.2 9.8-.3 9.8Zm2.2 0c-.1 0-.3-4.4-.3-9.8s.1-9.8.3-9.8c.2 0 .3 4.4.3 9.8s-.2 9.8-.3 9.8Zm2.2 0c-.1 0-.3-4.4-.3-9.8s.1-9.8.3-9.8c.2 0 .3 4.4.3 9.8s-.1 9.8-.3 9.8Zm2.2 0c-.1 0-.3-4.4-.3-9.8s.1-9.8.3-9.8c.1 0 .3 4.4.3 9.8s-.1 9.8-.3 9.8Zm2.2 0c-.1 0-.3-4.4-.3-9.8s.1-9.8.3-9.8c.2 0 .3 4.4.3 9.8s-.1 9.8-.3 9.8Zm2.3 0c-.1 0-.3-4.4-.3-9.8s.1-9.8.3-9.8c.2 0 .3 4.4.3 9.8-.1 5.4-.2 9.8-.3 9.8Zm2.2 0c-.1 0-.3-4.4-.3-9.8s.1-9.8.3-9.8c.1 0 .3 4.4.3 9.8-.1 5.4-.2 9.8-.3 9.8Zm2.2 0c-.1 0-.3-4.4-.3-9.8s.1-9.8.3-9.8c.2 0 .3 4.4.3 9.8-.1 5.4-.2 9.8-.3 9.8Zm2.2 0c-.1 0-.3-4.4-.3-9.8s.1-9.8.3-9.8c.1 0 .3 4.4.3 9.8s-.2 9.8-.3 9.8Zm2.2 0c-.1 0-.3-4.4-.3-9.8s.1-9.8.3-9.8c.1 0 .3 4.4.3 9.8s-.1 9.8-.3 9.8Z" fill="#263238"/><path d="M404.9 101h-75.4v21.9h75.4V101Z" fill="#455A64"/><path opacity=".3" d="M404.9 101h-27v21.9h27V101Z" fill="#000"/><path d="M376.8 122v-5.4c0-3.4-.1-8.3-.1-14.4l.2.2c-12 0-28.4 0-46.6.1l.3-.3v19.7l-.2-.2c13.5 0 25.1.1 33.3.1 4.1 0 7.4.1 9.7.1h3.3c0 .1.1.1.1.1h-3.5c-2.3 0-5.5 0-9.6.1-8.3 0-20 .1-33.5.1h-.2v-19.9l.3-.3c18.1 0 34.6.1 46.6.1h.2v.2c0 6.1-.1 11.1-.1 14.5v4.9c-.2.2-.2.3-.2.3Zm26.8 0v-1.5c0-1 0-2.3-.1-4 0-3.5-.1-8.4-.1-14.3l.2.2h-24.5l.3-.3v19.7l-.2-.2c7.2 0 13.3.1 17.7.1 2.1 0 3.8 0 5 .1h1.3c.2.2.4.2.4.2h-1.7c-1.2 0-2.9 0-5 .1-4.4 0-10.5.1-17.8.1h-.2v-19.9l.3-.3h24.7v.2c0 6-.1 10.9-.1 14.4 0 1.7 0 3-.1 4v1c-.1.3-.1.4-.1.4Z" fill="#263238"/><path d="M332.1 121.8c-.1 0-.3-4.4-.3-9.8s.1-9.8.3-9.8c.2 0 .3 4.4.3 9.8-.1 5.4-.2 9.8-.3 9.8Zm2.1 0c-.1 0-.3-4.4-.3-9.8s.1-9.8.3-9.8c.2 0 .3 4.4.3 9.8s-.1 9.8-.3 9.8Zm2.2 0c-.1 0-.3-4.4-.3-9.8s.1-9.8.3-9.8c.2 0 .3 4.4.3 9.8-.1 5.4-.2 9.8-.3 9.8Zm2.1 0c-.1 0-.3-4.4-.3-9.8s.1-9.8.3-9.8c.2 0 .3 4.4.3 9.8s-.1 9.8-.3 9.8Zm2.2 0c-.1 0-.3-4.4-.3-9.8s.1-9.8.3-9.8c.2 0 .3 4.4.3 9.8-.1 5.4-.2 9.8-.3 9.8Zm2.1 0c-.1 0-.3-4.4-.3-9.8s.1-9.8.3-9.8c.1 0 .3 4.4.3 9.8s-.1 9.8-.3 9.8Zm2.2 0c-.1 0-.3-4.4-.3-9.8s.1-9.8.3-9.8c.1 0 .3 4.4.3 9.8-.1 5.4-.2 9.8-.3 9.8Zm2.1 0c-.1 0-.3-4.4-.3-9.8s.1-9.8.3-9.8c.1 0 .3 4.4.3 9.8s-.1 9.8-.3 9.8Zm2.2 0c-.1 0-.3-4.4-.3-9.8s.1-9.8.3-9.8c.1 0 .3 4.4.3 9.8-.1 5.4-.2 9.8-.3 9.8Zm2.1 0c-.1 0-.3-4.4-.3-9.8s.1-9.8.3-9.8c.1 0 .3 4.4.3 9.8s-.1 9.8-.3 9.8Zm2.2 0c-.1 0-.3-4.4-.3-9.8s.1-9.8.3-9.8c.1 0 .3 4.4.3 9.8-.1 5.4-.2 9.8-.3 9.8Zm2.1 0c-.1 0-.3-4.4-.3-9.8s.1-9.8.3-9.8c.1 0 .3 4.4.3 9.8s-.1 9.8-.3 9.8Zm2.2 0c-.1 0-.3-4.4-.3-9.8s.1-9.8.3-9.8c.2 0 .3 4.4.3 9.8-.1 5.4-.2 9.8-.3 9.8Zm2.1 0c-.1 0-.3-4.4-.3-9.8s.1-9.8.3-9.8c.2 0 .3 4.4.3 9.8s-.1 9.8-.3 9.8Zm2.2 0c-.1 0-.3-4.4-.3-9.8s.1-9.8.3-9.8c.2 0 .3 4.4.3 9.8-.1 5.4-.2 9.8-.3 9.8Zm2.1 0c-.1 0-.3-4.4-.3-9.8s.1-9.8.3-9.8c.2 0 .3 4.4.3 9.8s-.1 9.8-.3 9.8Zm2.2 0c-.1 0-.3-4.4-.3-9.8s.1-9.8.3-9.8c.2 0 .3 4.4.3 9.8-.1 5.4-.2 9.8-.3 9.8Zm2.1 0c-.1 0-.3-4.4-.3-9.8s.1-9.8.3-9.8c.1 0 .3 4.4.3 9.8s-.1 9.8-.3 9.8Zm2.2 0c-.1 0-.3-4.4-.3-9.8s.1-9.8.3-9.8c.1 0 .3 4.4.3 9.8-.1 5.4-.2 9.8-.3 9.8Zm2.1 0c-.1 0-.3-4.4-.3-9.8s.1-9.8.3-9.8c.1 0 .3 4.4.3 9.8s-.1 9.8-.3 9.8Zm2.2 0c-.1 0-.3-4.4-.3-9.8s.1-9.8.3-9.8c.1 0 .3 4.4.3 9.8-.1 5.4-.2 9.8-.3 9.8Zm6 0c-.1 0-.3-4.4-.3-9.8s.1-9.8.3-9.8c.1 0 .3 4.4.3 9.8-.1 5.4-.2 9.8-.3 9.8Zm2.2 0c-.1 0-.3-4.4-.3-9.8s.1-9.8.3-9.8c.2 0 .3 4.4.3 9.8-.1 5.4-.2 9.8-.3 9.8Zm2.2 0c-.1 0-.3-4.4-.3-9.8s.1-9.8.3-9.8c.1 0 .3 4.4.3 9.8-.1 5.4-.2 9.8-.3 9.8Zm2.2 0c-.1 0-.3-4.4-.3-9.8s.1-9.8.3-9.8c.1 0 .3 4.4.3 9.8s-.2 9.8-.3 9.8Zm2.2 0c-.1 0-.3-4.4-.3-9.8s.1-9.8.3-9.8c.2 0 .3 4.4.3 9.8s-.1 9.8-.3 9.8Zm2.2 0c-.1 0-.3-4.4-.3-9.8s.1-9.8.3-9.8c.1 0 .3 4.4.3 9.8s-.1 9.8-.3 9.8Zm2.2 0c-.1 0-.3-4.4-.3-9.8s.1-9.8.3-9.8c.2 0 .3 4.4.3 9.8s-.1 9.8-.3 9.8Zm2.3 0c-.1 0-.3-4.4-.3-9.8s.1-9.8.3-9.8c.2 0 .3 4.4.3 9.8-.1 5.4-.2 9.8-.3 9.8Zm2.2 0c-.1 0-.3-4.4-.3-9.8s.1-9.8.3-9.8c.1 0 .3 4.4.3 9.8-.1 5.4-.2 9.8-.3 9.8Zm2.2 0c-.1 0-.3-4.4-.3-9.8s.1-9.8.3-9.8c.2 0 .3 4.4.3 9.8s-.2 9.8-.3 9.8Z" fill="#263238"/><path d="M249.1 57.6h-75.4v21.9h75.4V57.6Z" fill="#FF725E"/><path opacity=".3" d="M249.1 57.6h-27v21.9h27V57.6Z" fill="#000"/><path d="M221 78.7v-5.4c0-3.4-.1-8.3-.1-14.4l.2.2c-12 0-28.4 0-46.6.1l.3-.3v19.7l-.2-.2c13.5 0 25.1.1 33.3.1 4.1 0 7.4.1 9.7.1h3.3s.1 0 .1.1h-3.5c-2.3 0-5.5 0-9.6.1-8.3 0-20 .1-33.5.1h-.2V59l.3-.3c18.1 0 34.6.1 46.6.1h.2v.2c0 6.1-.1 11.1-.1 14.5v4.9c-.2.1-.2.3-.2.3Zm26.7 0v-1.5c0-1 0-2.3-.1-4 0-3.5-.1-8.4-.1-14.3l.2.2h-24.5l.3-.3v19.7l-.2-.2c7.2 0 13.3.1 17.7.1 2.1 0 3.8 0 5 .1h1.3c.3.1.4.1.4.2H246c-1.2 0-2.9 0-5 .1-4.4 0-10.5.1-17.8.1h-.2V59l.3-.3H248v.2c0 6-.1 10.9-.1 14.4 0 1.7 0 3-.1 4v1c0 .2 0 .4-.1.4Z" fill="#263238"/><path d="M176.2 78.5c-.1 0-.3-4.4-.3-9.8s.1-9.8.3-9.8c.1 0 .3 4.4.3 9.8s-.1 9.8-.3 9.8Zm2.2 0c-.1 0-.3-4.4-.3-9.8s.1-9.8.3-9.8c.1 0 .3 4.4.3 9.8-.1 5.4-.2 9.8-.3 9.8Zm2.1 0c-.1 0-.3-4.4-.3-9.8s.1-9.8.3-9.8c.1 0 .3 4.4.3 9.8s-.1 9.8-.3 9.8Zm2.2 0c-.1 0-.3-4.4-.3-9.8s.1-9.8.3-9.8c.1 0 .3 4.4.3 9.8-.1 5.4-.2 9.8-.3 9.8Zm2.1 0c-.1 0-.3-4.4-.3-9.8s.1-9.8.3-9.8c.1 0 .3 4.4.3 9.8s-.1 9.8-.3 9.8Zm2.2 0c-.1 0-.3-4.4-.3-9.8s.1-9.8.3-9.8c.1 0 .3 4.4.3 9.8-.1 5.4-.2 9.8-.3 9.8Zm2.1 0c-.1 0-.3-4.4-.3-9.8s.1-9.8.3-9.8c.2 0 .3 4.4.3 9.8s-.1 9.8-.3 9.8Zm2.2 0c-.1 0-.3-4.4-.3-9.8s.1-9.8.3-9.8c.2 0 .3 4.4.3 9.8s-.2 9.8-.3 9.8Zm2.1 0c-.1 0-.3-4.4-.3-9.8s.1-9.8.3-9.8c.2 0 .3 4.4.3 9.8s-.1 9.8-.3 9.8Zm2.2 0c-.1 0-.3-4.4-.3-9.8s.1-9.8.3-9.8c.2 0 .3 4.4.3 9.8s-.2 9.8-.3 9.8Zm2.1 0c-.1 0-.3-4.4-.3-9.8s.1-9.8.3-9.8c.1 0 .3 4.4.3 9.8s-.1 9.8-.3 9.8Zm2.2 0c-.1 0-.3-4.4-.3-9.8s.1-9.8.3-9.8c.2 0 .3 4.4.3 9.8s-.2 9.8-.3 9.8Zm2.1 0c-.1 0-.3-4.4-.3-9.8s.1-9.8.3-9.8c.2 0 .3 4.4.3 9.8s-.1 9.8-.3 9.8Zm2.2 0c-.1 0-.3-4.4-.3-9.8s.1-9.8.3-9.8c.1 0 .3 4.4.3 9.8s-.2 9.8-.3 9.8Zm2.1 0c-.1 0-.3-4.4-.3-9.8s.1-9.8.3-9.8c.1 0 .3 4.4.3 9.8s-.1 9.8-.3 9.8Zm2.2 0c-.1 0-.3-4.4-.3-9.8s.1-9.8.3-9.8c.1 0 .3 4.4.3 9.8s-.2 9.8-.3 9.8Zm2.1 0c-.1 0-.3-4.4-.3-9.8s.1-9.8.3-9.8c.1 0 .3 4.4.3 9.8s-.1 9.8-.3 9.8Zm2.2 0c-.1 0-.3-4.4-.3-9.8s.1-9.8.3-9.8c.1 0 .3 4.4.3 9.8s-.2 9.8-.3 9.8Zm2.1 0c-.1 0-.3-4.4-.3-9.8s.1-9.8.3-9.8c.1 0 .3 4.4.3 9.8s-.1 9.8-.3 9.8Zm2.2 0c-.1 0-.3-4.4-.3-9.8s.1-9.8.3-9.8c.1 0 .3 4.4.3 9.8s-.2 9.8-.3 9.8Zm2.1 0c-.1 0-.3-4.4-.3-9.8s.1-9.8.3-9.8c.1 0 .3 4.4.3 9.8s-.1 9.8-.3 9.8Zm6 0c-.1 0-.3-4.4-.3-9.8s.1-9.8.3-9.8c.2 0 .3 4.4.3 9.8s-.1 9.8-.3 9.8Zm2.2 0c-.1 0-.3-4.4-.3-9.8s.1-9.8.3-9.8c.1 0 .3 4.4.3 9.8s-.1 9.8-.3 9.8Zm2.2 0c-.1 0-.3-4.4-.3-9.8s.1-9.8.3-9.8c.2 0 .3 4.4.3 9.8s-.1 9.8-.3 9.8Zm2.3 0c-.1 0-.3-4.4-.3-9.8s.1-9.8.3-9.8c.1 0 .3 4.4.3 9.8-.1 5.4-.2 9.8-.3 9.8Zm2.2 0c-.1 0-.3-4.4-.3-9.8s.1-9.8.3-9.8c.1 0 .3 4.4.3 9.8-.1 5.4-.2 9.8-.3 9.8Zm2.2 0c-.1 0-.3-4.4-.3-9.8s.1-9.8.3-9.8c.2 0 .3 4.4.3 9.8-.1 5.4-.2 9.8-.3 9.8Zm2.2 0c-.1 0-.3-4.4-.3-9.8s.1-9.8.3-9.8c.1 0 .3 4.4.3 9.8s-.2 9.8-.3 9.8Zm2.2 0c-.1 0-.3-4.4-.3-9.8s.1-9.8.3-9.8c.1 0 .3 4.4.3 9.8s-.1 9.8-.3 9.8Zm2.2 0c-.1 0-.3-4.4-.3-9.8s.1-9.8.3-9.8c.2 0 .3 4.4.3 9.8s-.1 9.8-.3 9.8Zm2.2 0c-.1 0-.3-4.4-.3-9.8s.1-9.8.3-9.8c.1 0 .3 4.4.3 9.8s-.1 9.8-.3 9.8Z" fill="#263238"/><path d="M335.3 78.9h-75.4v21.9h75.4V78.9Z" fill="#FF725E"/><path opacity=".3" d="M335.4 78.9h-27v21.9h27V78.9Z" fill="#000"/><path d="M307.3 99.9v-5.4c0-3.4-.1-8.3-.1-14.4l.2.2c-12 0-28.4 0-46.6.1l.3-.3v19.7l-.2-.2c13.5 0 25.1.1 33.3.1 4.1 0 7.4.1 9.7.1h3.3c0 .1.1.1.1.1h-3.5c-2.3 0-5.5 0-9.6.1-8.3 0-20 .1-33.5.1h-.2V80.2l.3-.3c18.1 0 34.6.1 46.6.1h.2v.2c0 6.1-.1 11.1-.1 14.5v4.9c-.2.2-.2.3-.2.3Zm26.7 0v-1.5c0-1 0-2.3-.1-4 0-3.5-.1-8.4-.1-14.3l.2.2h-24.5l.3-.3v19.7l-.2-.2c7.2 0 13.3.1 17.7.1 2.1 0 3.8 0 5 .1h1.3c.2.2.4.2.4.2h-1.7c-1.2 0-2.9 0-5 .1-4.4 0-10.5.1-17.8.1h-.2V80.2l.3-.3h24.7v.2c0 6-.1 10.9-.1 14.4 0 1.7 0 3-.1 4v1c-.1.3-.1.4-.1.4Z" fill="#263238"/><path d="M262.5 99.7c-.1 0-.3-4.4-.3-9.8s.1-9.8.3-9.8c.2 0 .3 4.4.3 9.8s-.1 9.8-.3 9.8Zm2.2 0c-.1 0-.3-4.4-.3-9.8s.1-9.8.3-9.8c.1 0 .3 4.4.3 9.8-.1 5.4-.2 9.8-.3 9.8Zm2.1 0c-.1 0-.3-4.4-.3-9.8s.1-9.8.3-9.8c.2 0 .3 4.4.3 9.8s-.1 9.8-.3 9.8Zm2.2 0c-.1 0-.3-4.4-.3-9.8s.1-9.8.3-9.8c.2 0 .3 4.4.3 9.8-.1 5.4-.2 9.8-.3 9.8Zm2.1 0c-.1 0-.3-4.4-.3-9.8s.1-9.8.3-9.8c.2 0 .3 4.4.3 9.8s-.1 9.8-.3 9.8Zm2.2 0c-.1 0-.3-4.4-.3-9.8s.1-9.8.3-9.8c.1 0 .3 4.4.3 9.8-.1 5.4-.2 9.8-.3 9.8Zm2.1 0c-.1 0-.3-4.4-.3-9.8s.1-9.8.3-9.8c.1 0 .3 4.4.3 9.8s-.1 9.8-.3 9.8Zm2.2 0c-.1 0-.3-4.4-.3-9.8s.1-9.8.3-9.8c.1 0 .3 4.4.3 9.8-.1 5.4-.2 9.8-.3 9.8Zm2.1 0c-.1 0-.3-4.4-.3-9.8s.1-9.8.3-9.8c.1 0 .3 4.4.3 9.8s-.1 9.8-.3 9.8Zm2.2 0c-.1 0-.3-4.4-.3-9.8s.1-9.8.3-9.8c.1 0 .3 4.4.3 9.8-.1 5.4-.2 9.8-.3 9.8Zm2.1 0c-.1 0-.3-4.4-.3-9.8s.1-9.8.3-9.8c.1 0 .3 4.4.3 9.8s-.1 9.8-.3 9.8Zm2.2 0c-.1 0-.3-4.4-.3-9.8s.1-9.8.3-9.8c.1 0 .3 4.4.3 9.8-.1 5.4-.2 9.8-.3 9.8Zm2.1 0c-.1 0-.3-4.4-.3-9.8s.1-9.8.3-9.8c.2 0 .3 4.4.3 9.8s-.1 9.8-.3 9.8Zm2.2 0c-.1 0-.3-4.4-.3-9.8s.1-9.8.3-9.8c.2 0 .3 4.4.3 9.8-.1 5.4-.2 9.8-.3 9.8Zm2.1 0c-.1 0-.3-4.4-.3-9.8s.1-9.8.3-9.8c.2 0 .3 4.4.3 9.8s-.1 9.8-.3 9.8Zm2.2 0c-.1 0-.3-4.4-.3-9.8s.1-9.8.3-9.8c.2 0 .3 4.4.3 9.8-.1 5.4-.2 9.8-.3 9.8Zm2.1 0c-.1 0-.3-4.4-.3-9.8s.1-9.8.3-9.8c.1 0 .3 4.4.3 9.8s-.1 9.8-.3 9.8Zm2.2 0c-.1 0-.3-4.4-.3-9.8s.1-9.8.3-9.8c.2 0 .3 4.4.3 9.8-.1 5.4-.2 9.8-.3 9.8Zm2.1 0c-.1 0-.3-4.4-.3-9.8s.1-9.8.3-9.8c.2 0 .3 4.4.3 9.8s-.1 9.8-.3 9.8Zm2.2 0c-.1 0-.3-4.4-.3-9.8s.1-9.8.3-9.8c.1 0 .3 4.4.3 9.8-.1 5.4-.2 9.8-.3 9.8Zm2.1 0c-.1 0-.3-4.4-.3-9.8s.1-9.8.3-9.8c.1 0 .3 4.4.3 9.8s-.1 9.8-.3 9.8Zm6 0c-.1 0-.3-4.4-.3-9.8s.1-9.8.3-9.8c.1 0 .3 4.4.3 9.8-.1 5.4-.2 9.8-.3 9.8Zm2.2 0c-.1 0-.3-4.4-.3-9.8s.1-9.8.3-9.8c.2 0 .3 4.4.3 9.8s-.2 9.8-.3 9.8Zm2.2 0c-.1 0-.3-4.4-.3-9.8s.1-9.8.3-9.8c.1 0 .3 4.4.3 9.8s-.1 9.8-.3 9.8Zm2.2 0c-.1 0-.3-4.4-.3-9.8s.1-9.8.3-9.8c.1 0 .3 4.4.3 9.8s-.1 9.8-.3 9.8Zm2.2 0c-.1 0-.3-4.4-.3-9.8s.1-9.8.3-9.8c.2 0 .3 4.4.3 9.8s-.1 9.8-.3 9.8Zm2.3 0c-.1 0-.3-4.4-.3-9.8s.1-9.8.3-9.8c.1 0 .3 4.4.3 9.8-.1 5.4-.2 9.8-.3 9.8Zm2.2 0c-.1 0-.3-4.4-.3-9.8s.1-9.8.3-9.8c.1 0 .3 4.4.3 9.8-.1 5.4-.2 9.8-.3 9.8Zm2.2 0c-.1 0-.3-4.4-.3-9.8s.1-9.8.3-9.8c.2 0 .3 4.4.3 9.8s-.2 9.8-.3 9.8Zm2.2 0c-.1 0-.3-4.4-.3-9.8s.1-9.8.3-9.8c.1 0 .3 4.4.3 9.8s-.1 9.8-.3 9.8Zm2.2 0c-.1 0-.3-4.4-.3-9.8s.1-9.8.3-9.8c.1 0 .3 4.4.3 9.8s-.1 9.8-.3 9.8Z" fill="#263238"/><path d="M117.4 54.1H94.9v69.7h22.5V54.1Z" fill="#E0E0E0"/><path d="M197 54.1h-79.6v69.7h79.8l-.2-69.7Z" fill="#F5F5F5"/><path d="M140.8 45.4h-1.7v4.4h1.7v-4.4Zm3-.1h-1.7v4.4h1.7v-4.4Zm9.4.1h-1.7v4.4h1.7v-4.4Zm3-.1h-1.7v4.4h1.7v-4.4Zm9.5.1H164v4.4h1.7v-4.4Zm3-.1H167v4.4h1.7v-4.4Zm9.5.1h-1.7v4.4h1.7v-4.4Zm3-.1h-1.7v4.4h1.7v-4.4Zm9.5.1H189v4.4h1.7v-4.4Zm3-.1H192v4.4h1.7v-4.4Z" fill="#263238"/><path d="M213.7 57.6h-75.4v21.9h75.4V57.6Z" fill="#FF725E"/><path opacity=".3" d="M213.8 57.6h-27v21.9h27V57.6Z" fill="#000"/><path d="M185.7 78.7v-5.4c0-3.4-.1-8.3-.1-14.4l.2.2c-12 0-28.4 0-46.6.1l.3-.3v19.7l-.2-.2c13.5 0 25.1.1 33.3.1 4.1 0 7.4.1 9.7.1h3.3s.1 0 .1.1h-3.5c-2.3 0-5.5 0-9.6.1-8.3 0-20 .1-33.5.1h-.2V59l.3-.3c18.1 0 34.6.1 46.6.1h.2v.2c0 6.1-.1 11.1-.1 14.5v4.9c-.2.1-.2.3-.2.3Zm26.7 0v-1.5c0-1 0-2.3-.1-4 0-3.5-.1-8.4-.1-14.3l.2.2h-24.5l.3-.3v19.7l-.2-.2c7.2 0 13.3.1 17.7.1 2.1 0 3.8 0 5 .1h1.3c.3.1.4.1.4.2h-1.7c-1.2 0-2.9 0-5 .1-4.4 0-10.5.1-17.8.1h-.2V59l.3-.3h24.7v.2c0 6-.1 10.9-.1 14.4 0 1.7 0 3-.1 4v1c-.1.2-.1.4-.1.4Z" fill="#263238"/><path d="M140.9 78.5c-.1 0-.3-4.4-.3-9.8s.1-9.8.3-9.8c.1 0 .3 4.4.3 9.8s-.1 9.8-.3 9.8Zm2.2 0c-.1 0-.3-4.4-.3-9.8s.1-9.8.3-9.8c.1 0 .3 4.4.3 9.8-.1 5.4-.2 9.8-.3 9.8Zm2.1 0c-.1 0-.3-4.4-.3-9.8s.1-9.8.3-9.8c.1 0 .3 4.4.3 9.8s-.1 9.8-.3 9.8Zm2.2 0c-.1 0-.3-4.4-.3-9.8s.1-9.8.3-9.8c.2 0 .3 4.4.3 9.8-.1 5.4-.2 9.8-.3 9.8Zm2.1 0c-.1 0-.3-4.4-.3-9.8s.1-9.8.3-9.8c.2 0 .3 4.4.3 9.8s-.1 9.8-.3 9.8Zm2.2 0c-.1 0-.3-4.4-.3-9.8s.1-9.8.3-9.8c.2 0 .3 4.4.3 9.8-.1 5.4-.2 9.8-.3 9.8Zm2.1 0c-.1 0-.3-4.4-.3-9.8s.1-9.8.3-9.8c.2 0 .3 4.4.3 9.8s-.1 9.8-.3 9.8Zm2.2 0c-.1 0-.3-4.4-.3-9.8s.1-9.8.3-9.8c.2 0 .3 4.4.3 9.8-.1 5.4-.2 9.8-.3 9.8Zm2.1 0c-.1 0-.3-4.4-.3-9.8s.1-9.8.3-9.8c.1 0 .3 4.4.3 9.8s-.1 9.8-.3 9.8Zm2.2 0c-.1 0-.3-4.4-.3-9.8s.1-9.8.3-9.8c.2 0 .3 4.4.3 9.8-.1 5.4-.2 9.8-.3 9.8Zm2.1 0c-.1 0-.3-4.4-.3-9.8s.1-9.8.3-9.8c.1 0 .3 4.4.3 9.8s-.1 9.8-.3 9.8Zm2.2 0c-.1 0-.3-4.4-.3-9.8s.1-9.8.3-9.8c.1 0 .3 4.4.3 9.8-.1 5.4-.2 9.8-.3 9.8Zm2.1 0c-.1 0-.3-4.4-.3-9.8s.1-9.8.3-9.8c.1 0 .3 4.4.3 9.8s-.1 9.8-.3 9.8Zm2.2 0c-.1 0-.3-4.4-.3-9.8s.1-9.8.3-9.8c.1 0 .3 4.4.3 9.8-.1 5.4-.2 9.8-.3 9.8Zm2.1 0c-.1 0-.3-4.4-.3-9.8s.1-9.8.3-9.8c.1 0 .3 4.4.3 9.8s-.1 9.8-.3 9.8Zm2.2 0c-.1 0-.3-4.4-.3-9.8s.1-9.8.3-9.8c.1 0 .3 4.4.3 9.8-.1 5.4-.2 9.8-.3 9.8Zm2.1 0c-.1 0-.3-4.4-.3-9.8s.1-9.8.3-9.8c.2 0 .3 4.4.3 9.8s-.1 9.8-.3 9.8Zm2.2 0c-.1 0-.3-4.4-.3-9.8s.1-9.8.3-9.8c.1 0 .3 4.4.3 9.8-.1 5.4-.2 9.8-.3 9.8Zm2.1 0c-.1 0-.3-4.4-.3-9.8s.1-9.8.3-9.8c.2 0 .3 4.4.3 9.8s-.1 9.8-.3 9.8Zm2.2 0c-.1 0-.3-4.4-.3-9.8s.1-9.8.3-9.8c.2 0 .3 4.4.3 9.8-.1 5.4-.2 9.8-.3 9.8Zm2.1 0c-.1 0-.3-4.4-.3-9.8s.1-9.8.3-9.8c.2 0 .3 4.4.3 9.8s-.1 9.8-.3 9.8Zm6 0c-.1 0-.3-4.4-.3-9.8s.1-9.8.3-9.8c.2 0 .3 4.4.3 9.8s-.2 9.8-.3 9.8Zm2.2 0c-.1 0-.3-4.4-.3-9.8s.1-9.8.3-9.8c.1 0 .3 4.4.3 9.8s-.1 9.8-.3 9.8Zm2.2 0c-.1 0-.3-4.4-.3-9.8s.1-9.8.3-9.8c.1 0 .3 4.4.3 9.8s-.1 9.8-.3 9.8Zm2.2 0c-.1 0-.3-4.4-.3-9.8s.1-9.8.3-9.8c.1 0 .3 4.4.3 9.8s-.1 9.8-.3 9.8Zm2.3 0c-.1 0-.3-4.4-.3-9.8s.1-9.8.3-9.8c.1 0 .3 4.4.3 9.8-.1 5.4-.2 9.8-.3 9.8Zm2.2 0c-.1 0-.3-4.4-.3-9.8s.1-9.8.3-9.8c.1 0 .3 4.4.3 9.8-.1 5.4-.2 9.8-.3 9.8Zm2.2 0c-.1 0-.3-4.4-.3-9.8s.1-9.8.3-9.8c.2 0 .3 4.4.3 9.8-.1 5.4-.2 9.8-.3 9.8Zm2.2 0c-.1 0-.3-4.4-.3-9.8s.1-9.8.3-9.8c.1 0 .3 4.4.3 9.8s-.2 9.8-.3 9.8Zm2.2 0c-.1 0-.3-4.4-.3-9.8s.1-9.8.3-9.8c.2 0 .3 4.4.3 9.8s-.1 9.8-.3 9.8Zm2.2 0c-.1 0-.3-4.4-.3-9.8s.1-9.8.3-9.8c.2 0 .3 4.4.3 9.8s-.1 9.8-.3 9.8Z" fill="#263238"/><path d="M207.6 101.6h-75.4v21.9h75.4v-21.9Z" fill="#E0E0E0"/><path opacity=".3" d="M207.6 101.6h-27v21.9h27v-21.9Z" fill="#000"/><path d="M179.5 122.6v-5.4c0-3.4-.1-8.3-.1-14.4l.2.2c-12 0-28.4 0-46.6.1l.3-.3v19.7l-.2-.2c13.5 0 25.1.1 33.3.1 4.1 0 7.4.1 9.7.1h3.3c0 .1.1.1.1.1H176c-2.3 0-5.5 0-9.6.1-8.3 0-20 .1-33.5.1h-.2v-19.9l.3-.3c18.1 0 34.6.1 46.6.1h.2v.2c0 6.1-.1 11.1-.1 14.5v4.9c-.2.2-.2.3-.2.3Zm26.8 0v-1.5c0-1 0-2.3-.1-4 0-3.5-.1-8.4-.1-14.3l.2.2h-24.5l.3-.3v19.7l-.2-.2c7.2 0 13.3.1 17.7.1 2.1 0 3.8 0 5 .1h1.3c.2.2.4.2.4.2h-1.7c-1.2 0-2.9 0-5 .1-4.4 0-10.5.1-17.8.1h-.2v-19.9l.3-.3h24.7v.2c0 6-.1 10.9-.1 14.4 0 1.7 0 3-.1 4v1c-.1.3-.1.4-.1.4Z" fill="#263238"/><path d="M134.8 122.4c-.1 0-.3-4.4-.3-9.8s.1-9.8.3-9.8c.1 0 .3 4.4.3 9.8-.1 5.4-.2 9.8-.3 9.8Zm2.1 0c-.1 0-.3-4.4-.3-9.8s.1-9.8.3-9.8c.1 0 .3 4.4.3 9.8s-.1 9.8-.3 9.8Zm2.2 0c-.1 0-.3-4.4-.3-9.8s.1-9.8.3-9.8c.1 0 .3 4.4.3 9.8s-.2 9.8-.3 9.8Zm2.1 0c-.1 0-.3-4.4-.3-9.8s.1-9.8.3-9.8c.1 0 .3 4.4.3 9.8s-.1 9.8-.3 9.8Zm2.2 0c-.1 0-.3-4.4-.3-9.8s.1-9.8.3-9.8c.1 0 .3 4.4.3 9.8s-.2 9.8-.3 9.8Zm2.1 0c-.1 0-.3-4.4-.3-9.8s.1-9.8.3-9.8c.2 0 .3 4.4.3 9.8s-.1 9.8-.3 9.8Zm2.2 0c-.1 0-.3-4.4-.3-9.8s.1-9.8.3-9.8c.2 0 .3 4.4.3 9.8s-.2 9.8-.3 9.8Zm2.1 0c-.1 0-.3-4.4-.3-9.8s.1-9.8.3-9.8c.2 0 .3 4.4.3 9.8s-.1 9.8-.3 9.8Zm2.2 0c-.1 0-.3-4.4-.3-9.8s.1-9.8.3-9.8c.2 0 .3 4.4.3 9.8s-.2 9.8-.3 9.8Zm2.1 0c-.1 0-.3-4.4-.3-9.8s.1-9.8.3-9.8c.2 0 .3 4.4.3 9.8s-.1 9.8-.3 9.8Zm2.2 0c-.1 0-.3-4.4-.3-9.8s.1-9.8.3-9.8c.1 0 .3 4.4.3 9.8s-.2 9.8-.3 9.8Zm2.1 0c-.1 0-.3-4.4-.3-9.8s.1-9.8.3-9.8c.1 0 .3 4.4.3 9.8s-.1 9.8-.3 9.8Zm2.2 0c-.1 0-.3-4.4-.3-9.8s.1-9.8.3-9.8c.1 0 .3 4.4.3 9.8s-.2 9.8-.3 9.8Zm2.1 0c-.1 0-.3-4.4-.3-9.8s.1-9.8.3-9.8c.1 0 .3 4.4.3 9.8s-.1 9.8-.3 9.8Zm2.2 0c-.1 0-.3-4.4-.3-9.8s.1-9.8.3-9.8c.1 0 .3 4.4.3 9.8s-.2 9.8-.3 9.8Zm2.1 0c-.1 0-.3-4.4-.3-9.8s.1-9.8.3-9.8c.1 0 .3 4.4.3 9.8s-.1 9.8-.3 9.8Zm2.2 0c-.1 0-.3-4.4-.3-9.8s.1-9.8.3-9.8c.1 0 .3 4.4.3 9.8s-.2 9.8-.3 9.8Zm2.1 0c-.1 0-.3-4.4-.3-9.8s.1-9.8.3-9.8c.1 0 .3 4.4.3 9.8s-.1 9.8-.3 9.8Zm2.2 0c-.1 0-.3-4.4-.3-9.8s.1-9.8.3-9.8c.2 0 .3 4.4.3 9.8s-.2 9.8-.3 9.8Zm2.1 0c-.1 0-.3-4.4-.3-9.8s.1-9.8.3-9.8c.2 0 .3 4.4.3 9.8s-.1 9.8-.3 9.8Zm2.2 0c-.1 0-.3-4.4-.3-9.8s.1-9.8.3-9.8c.2 0 .3 4.4.3 9.8s-.2 9.8-.3 9.8Zm6 0c-.1 0-.3-4.4-.3-9.8s.1-9.8.3-9.8c.1 0 .3 4.4.3 9.8-.1 5.4-.2 9.8-.3 9.8Zm2.2 0c-.1 0-.3-4.4-.3-9.8s.1-9.8.3-9.8c.1 0 .3 4.4.3 9.8-.1 5.4-.2 9.8-.3 9.8Zm2.2 0c-.1 0-.3-4.4-.3-9.8s.1-9.8.3-9.8c.1 0 .3 4.4.3 9.8s-.2 9.8-.3 9.8Zm2.2 0c-.1 0-.3-4.4-.3-9.8s.1-9.8.3-9.8c.2 0 .3 4.4.3 9.8s-.1 9.8-.3 9.8Zm2.2 0c-.1 0-.3-4.4-.3-9.8s.1-9.8.3-9.8c.1 0 .3 4.4.3 9.8s-.1 9.8-.3 9.8Zm2.2 0c-.1 0-.3-4.4-.3-9.8s.1-9.8.3-9.8c.2 0 .3 4.4.3 9.8s-.1 9.8-.3 9.8Zm2.3 0c-.1 0-.3-4.4-.3-9.8s.1-9.8.3-9.8c.1 0 .3 4.4.3 9.8-.1 5.4-.2 9.8-.3 9.8Zm2.2 0c-.1 0-.3-4.4-.3-9.8s.1-9.8.3-9.8c.1 0 .3 4.4.3 9.8-.1 5.4-.2 9.8-.3 9.8Zm2.2 0c-.1 0-.3-4.4-.3-9.8s.1-9.8.3-9.8c.2 0 .3 4.4.3 9.8-.1 5.4-.2 9.8-.3 9.8Zm2.2 0c-.1 0-.3-4.4-.3-9.8s.1-9.8.3-9.8c.2 0 .3 4.4.3 9.8s-.2 9.8-.3 9.8Z" fill="#263238"/><path d="M341.8 101.1h-75.4V123h75.4v-21.9Z" fill="#E0E0E0"/><path opacity=".3" d="M341.8 101.1h-27V123h27v-21.9Z" fill="#000"/><path d="M313.7 122.1v-5.4c0-3.4-.1-8.3-.1-14.4l.2.2c-12 0-28.4 0-46.6.1l.3-.3V122l-.2-.2c13.5 0 25.1.1 33.3.1 4.1 0 7.4.1 9.7.1h3.3c0 .1.1.1.1.1h-3.5c-2.3 0-5.5 0-9.6.1-8.3 0-20 .1-33.5.1h-.2v-19.9l.3-.3c18.1 0 34.6.1 46.6.1h.2v.2c0 6.1-.1 11.1-.1 14.5v4.9c-.2.2-.2.3-.2.3Zm26.8 0v-1.5c0-1 0-2.3-.1-4 0-3.5-.1-8.4-.1-14.3l.2.2H316l.3-.3v19.7l-.2-.2c7.2 0 13.3.1 17.7.1 2.1 0 3.8 0 5 .1h1.3c.2.2.4.2.4.2h-1.7c-1.2 0-2.9 0-5 .1-4.4 0-10.5.1-17.8.1h-.2v-19.9l.3-.3h24.7v.2c0 6-.1 10.9-.1 14.4 0 1.7 0 3-.1 4v1c-.1.3-.1.4-.1.4Z" fill="#263238"/><path d="M269 121.9c-.1 0-.3-4.4-.3-9.8s.1-9.8.3-9.8c.2 0 .3 4.4.3 9.8-.1 5.4-.2 9.8-.3 9.8Zm2.1 0c-.1 0-.3-4.4-.3-9.8s.1-9.8.3-9.8c.2 0 .3 4.4.3 9.8s-.1 9.8-.3 9.8Zm2.2 0c-.1 0-.3-4.4-.3-9.8s.1-9.8.3-9.8c.1 0 .3 4.4.3 9.8-.1 5.4-.2 9.8-.3 9.8Zm2.1 0c-.1 0-.3-4.4-.3-9.8s.1-9.8.3-9.8c.1 0 .3 4.4.3 9.8s-.1 9.8-.3 9.8Zm2.2 0c-.1 0-.3-4.4-.3-9.8s.1-9.8.3-9.8c.1 0 .3 4.4.3 9.8-.1 5.4-.2 9.8-.3 9.8Zm2.1 0c-.1 0-.3-4.4-.3-9.8s.1-9.8.3-9.8c.1 0 .3 4.4.3 9.8s-.1 9.8-.3 9.8Zm2.2 0c-.1 0-.3-4.4-.3-9.8s.1-9.8.3-9.8c.1 0 .3 4.4.3 9.8-.1 5.4-.2 9.8-.3 9.8Zm2.1 0c-.1 0-.3-4.4-.3-9.8s.1-9.8.3-9.8c.1 0 .3 4.4.3 9.8s-.1 9.8-.3 9.8Zm2.2 0c-.1 0-.3-4.4-.3-9.8s.1-9.8.3-9.8c.1 0 .3 4.4.3 9.8-.1 5.4-.2 9.8-.3 9.8Zm2.1 0c-.1 0-.3-4.4-.3-9.8s.1-9.8.3-9.8c.2 0 .3 4.4.3 9.8s-.1 9.8-.3 9.8Zm2.2 0c-.1 0-.3-4.4-.3-9.8s.1-9.8.3-9.8c.2 0 .3 4.4.3 9.8-.1 5.4-.2 9.8-.3 9.8Zm2.1 0c-.1 0-.3-4.4-.3-9.8s.1-9.8.3-9.8c.2 0 .3 4.4.3 9.8s-.1 9.8-.3 9.8Zm2.2 0c-.1 0-.3-4.4-.3-9.8s.1-9.8.3-9.8c.2 0 .3 4.4.3 9.8-.1 5.4-.2 9.8-.3 9.8Zm2.1 0c-.1 0-.3-4.4-.3-9.8s.1-9.8.3-9.8c.1 0 .3 4.4.3 9.8s-.1 9.8-.3 9.8Zm2.2 0c-.1 0-.3-4.4-.3-9.8s.1-9.8.3-9.8c.2 0 .3 4.4.3 9.8-.1 5.4-.2 9.8-.3 9.8Zm2.1 0c-.1 0-.3-4.4-.3-9.8s.1-9.8.3-9.8c.2 0 .3 4.4.3 9.8s-.1 9.8-.3 9.8Zm2.2 0c-.1 0-.3-4.4-.3-9.8s.1-9.8.3-9.8c.1 0 .3 4.4.3 9.8-.1 5.4-.2 9.8-.3 9.8Zm2.1 0c-.1 0-.3-4.4-.3-9.8s.1-9.8.3-9.8c.1 0 .3 4.4.3 9.8s-.1 9.8-.3 9.8Zm2.2 0c-.1 0-.3-4.4-.3-9.8s.1-9.8.3-9.8c.1 0 .3 4.4.3 9.8-.1 5.4-.2 9.8-.3 9.8Zm2.1 0c-.1 0-.3-4.4-.3-9.8s.1-9.8.3-9.8c.1 0 .3 4.4.3 9.8s-.1 9.8-.3 9.8Zm2.2 0c-.1 0-.3-4.4-.3-9.8s.1-9.8.3-9.8c.1 0 .3 4.4.3 9.8-.1 5.4-.2 9.8-.3 9.8Zm5.9 0c-.1 0-.3-4.4-.3-9.8s.1-9.8.3-9.8c.2 0 .3 4.4.3 9.8s-.1 9.8-.3 9.8Zm2.3 0c-.1 0-.3-4.4-.3-9.8s.1-9.8.3-9.8c.1 0 .3 4.4.3 9.8-.1 5.4-.2 9.8-.3 9.8Zm2.2 0c-.1 0-.3-4.4-.3-9.8s.1-9.8.3-9.8c.2 0 .3 4.4.3 9.8-.1 5.4-.2 9.8-.3 9.8Zm2.2 0c-.1 0-.3-4.4-.3-9.8s.1-9.8.3-9.8c.1 0 .3 4.4.3 9.8-.1 5.4-.2 9.8-.3 9.8Zm2.2 0c-.1 0-.3-4.4-.3-9.8s.1-9.8.3-9.8c.2 0 .3 4.4.3 9.8s-.2 9.8-.3 9.8Zm2.2 0c-.1 0-.3-4.4-.3-9.8s.1-9.8.3-9.8c.2 0 .3 4.4.3 9.8s-.1 9.8-.3 9.8Zm2.2 0c-.1 0-.3-4.4-.3-9.8s.1-9.8.3-9.8c.1 0 .3 4.4.3 9.8s-.1 9.8-.3 9.8Zm2.2 0c-.1 0-.3-4.4-.3-9.8s.1-9.8.3-9.8c.2 0 .3 4.4.3 9.8s-.1 9.8-.3 9.8Zm2.3 0c-.1 0-.3-4.4-.3-9.8s.1-9.8.3-9.8c.2 0 .3 4.4.3 9.8-.1 5.4-.2 9.8-.3 9.8Zm2.2 0c-.1 0-.3-4.4-.3-9.8s.1-9.8.3-9.8c.1 0 .3 4.4.3 9.8-.1 5.4-.2 9.8-.3 9.8Z" fill="#263238"/><path d="M241.4 79.6H166v21.9h75.4V79.6Z" fill="#E0E0E0"/><path opacity=".3" d="M241.4 79.6h-27v21.9h27V79.6Z" fill="#000"/><path d="M213.3 100.6v-5.4c0-3.4-.1-8.3-.1-14.4l.2.2c-12 0-28.4 0-46.6.1l.3-.3v19.7l-.2-.2c13.5 0 25.1.1 33.3.1 4.1 0 7.4.1 9.7.1h3.3c0 .1.1.1.1.1h-3.5c-2.3 0-5.5 0-9.6.1-8.3 0-20 .1-33.5.1h-.2V80.9l.3-.3c18.1 0 34.6.1 46.6.1h.2v.2c0 6.1-.1 11.1-.1 14.5v4.9c-.2.2-.2.3-.2.3Zm26.7 0v-1.5c0-1 0-2.3-.1-4 0-3.5-.1-8.4-.1-14.3l.2.2h-24.5l.3-.3v19.7l-.2-.2c7.2 0 13.3.1 17.7.1 2.1 0 3.8 0 5 .1h1.3c.3.2.4.2.4.2h-1.7c-1.2 0-2.9 0-5 .1-4.4 0-10.5.1-17.8.1h-.2V80.9l.3-.3h24.7v.2c0 6-.1 10.9-.1 14.4 0 1.7 0 3-.1 4v1c0 .3 0 .4-.1.4Z" fill="#263238"/><path d="M168.5 100.5c-.1 0-.3-4.4-.3-9.8s.1-9.8.3-9.8c.1 0 .3 4.4.3 9.8s-.1 9.8-.3 9.8Zm2.2 0c-.1 0-.3-4.4-.3-9.8s.1-9.8.3-9.8c.1 0 .3 4.4.3 9.8-.1 5.4-.2 9.8-.3 9.8Zm2.1 0c-.1 0-.3-4.4-.3-9.8s.1-9.8.3-9.8c.1 0 .3 4.4.3 9.8s-.1 9.8-.3 9.8Zm2.2 0c-.1 0-.3-4.4-.3-9.8s.1-9.8.3-9.8c.1 0 .3 4.4.3 9.8s-.2 9.8-.3 9.8Zm2.1 0c-.1 0-.3-4.4-.3-9.8s.1-9.8.3-9.8c.1 0 .3 4.4.3 9.8s-.1 9.8-.3 9.8Zm2.2 0c-.1 0-.3-4.4-.3-9.8s.1-9.8.3-9.8c.2 0 .3 4.4.3 9.8s-.2 9.8-.3 9.8Zm2.1 0c-.1 0-.3-4.4-.3-9.8s.1-9.8.3-9.8c.2 0 .3 4.4.3 9.8s-.1 9.8-.3 9.8Zm2.2 0c-.1 0-.3-4.4-.3-9.8s.1-9.8.3-9.8c.2 0 .3 4.4.3 9.8s-.2 9.8-.3 9.8Zm2.1 0c-.1 0-.3-4.4-.3-9.8s.1-9.8.3-9.8c.2 0 .3 4.4.3 9.8s-.1 9.8-.3 9.8Zm2.2 0c-.1 0-.3-4.4-.3-9.8s.1-9.8.3-9.8c.1 0 .3 4.4.3 9.8s-.2 9.8-.3 9.8Zm2.1 0c-.1 0-.3-4.4-.3-9.8s.1-9.8.3-9.8c.1 0 .3 4.4.3 9.8s-.1 9.8-.3 9.8Zm2.2 0c-.1 0-.3-4.4-.3-9.8s.1-9.8.3-9.8c.1 0 .3 4.4.3 9.8s-.2 9.8-.3 9.8Zm2.1 0c-.1 0-.3-4.4-.3-9.8s.1-9.8.3-9.8c.1 0 .3 4.4.3 9.8s-.1 9.8-.3 9.8Zm2.2 0c-.1 0-.3-4.4-.3-9.8s.1-9.8.3-9.8c.1 0 .3 4.4.3 9.8s-.2 9.8-.3 9.8Zm2.1 0c-.1 0-.3-4.4-.3-9.8s.1-9.8.3-9.8c.1 0 .3 4.4.3 9.8s-.1 9.8-.3 9.8Zm2.2 0c-.1 0-.3-4.4-.3-9.8s.1-9.8.3-9.8c.2 0 .3 4.4.3 9.8s-.2 9.8-.3 9.8Zm2.1 0c-.1 0-.3-4.4-.3-9.8s.1-9.8.3-9.8c.1 0 .3 4.4.3 9.8s-.1 9.8-.3 9.8Zm2.2 0c-.1 0-.3-4.4-.3-9.8s.1-9.8.3-9.8c.2 0 .3 4.4.3 9.8s-.2 9.8-.3 9.8Zm2.1 0c-.1 0-.3-4.4-.3-9.8s.1-9.8.3-9.8c.2 0 .3 4.4.3 9.8s-.1 9.8-.3 9.8Zm2.2 0c-.1 0-.3-4.4-.3-9.8s.1-9.8.3-9.8c.1 0 .3 4.4.3 9.8s-.2 9.8-.3 9.8Zm2.1 0c-.1 0-.3-4.4-.3-9.8s.1-9.8.3-9.8c.2 0 .3 4.4.3 9.8s-.1 9.8-.3 9.8Zm6 0c-.1 0-.3-4.4-.3-9.8s.1-9.8.3-9.8c.2 0 .3 4.4.3 9.8s-.1 9.8-.3 9.8Zm2.2 0c-.1 0-.3-4.4-.3-9.8s.1-9.8.3-9.8c.1 0 .3 4.4.3 9.8s-.1 9.8-.3 9.8Zm2.2 0c-.1 0-.3-4.4-.3-9.8s.1-9.8.3-9.8c.1 0 .3 4.4.3 9.8s-.1 9.8-.3 9.8Zm2.3 0c-.1 0-.3-4.4-.3-9.8s.1-9.8.3-9.8c.2 0 .3 4.4.3 9.8-.1 5.4-.2 9.8-.3 9.8Zm2.2 0c-.1 0-.3-4.4-.3-9.8s.1-9.8.3-9.8c.1 0 .3 4.4.3 9.8-.1 5.4-.2 9.8-.3 9.8Zm2.2 0c-.1 0-.3-4.4-.3-9.8s.1-9.8.3-9.8c.1 0 .3 4.4.3 9.8s-.2 9.8-.3 9.8Zm2.2 0c-.1 0-.3-4.4-.3-9.8s.1-9.8.3-9.8c.2 0 .3 4.4.3 9.8s-.1 9.8-.3 9.8Zm2.2 0c-.1 0-.3-4.4-.3-9.8s.1-9.8.3-9.8c.1 0 .3 4.4.3 9.8s-.1 9.8-.3 9.8Zm2.2 0c-.1 0-.3-4.4-.3-9.8s.1-9.8.3-9.8c.1 0 .3 4.4.3 9.8s-.1 9.8-.3 9.8Zm2.3 0c-.1 0-.3-4.4-.3-9.8s.1-9.8.3-9.8c.1 0 .3 4.4.3 9.8-.1 5.4-.2 9.8-.3 9.8Z" fill="#263238"/><path d="M211.2 79.6h-75.4v21.9h75.4V79.6Z" fill="#455A64"/><path opacity=".3" d="M211.2 79.6h-27v21.9h27V79.6Z" fill="#000"/><path d="M183.1 100.6v-5.4c0-3.4-.1-8.3-.1-14.4l.2.2c-12 0-28.4 0-46.6.1l.3-.3v19.7l-.2-.2c13.5 0 25.1.1 33.3.1 4.1 0 7.4.1 9.7.1h3.3c0 .1.1.1.1.1h-3.5c-2.3 0-5.5 0-9.6.1-8.3 0-20 .1-33.5.1h-.2V80.9l.3-.3c18.1 0 34.6.1 46.6.1h.2v.2c0 6.1-.1 11.1-.1 14.5v4.9c-.2.2-.2.3-.2.3Zm26.8 0v-1.5c0-1 0-2.3-.1-4 0-3.5-.1-8.4-.1-14.3l.2.2h-24.5l.3-.3v19.7l-.2-.2c7.2 0 13.3.1 17.7.1 2.1 0 3.8 0 5 .1h1.3c.2.2.4.2.4.2h-1.7c-1.2 0-2.9 0-5 .1-4.4 0-10.5.1-17.8.1h-.2V80.9l.3-.3h24.7v.2c0 6-.1 10.9-.1 14.4 0 1.7 0 3-.1 4v1c-.1.3-.1.4-.1.4Z" fill="#263238"/><path d="M138.4 100.5c-.1 0-.3-4.4-.3-9.8s.1-9.8.3-9.8c.2 0 .3 4.4.3 9.8-.1 5.4-.2 9.8-.3 9.8Zm2.1 0c-.1 0-.3-4.4-.3-9.8s.1-9.8.3-9.8c.2 0 .3 4.4.3 9.8s-.2 9.8-.3 9.8Zm2.2 0c-.1 0-.3-4.4-.3-9.8s.1-9.8.3-9.8c.2 0 .3 4.4.3 9.8-.1 5.4-.2 9.8-.3 9.8Zm2.1 0c-.1 0-.3-4.4-.3-9.8s.1-9.8.3-9.8c.1 0 .3 4.4.3 9.8s-.1 9.8-.3 9.8Zm2.2 0c-.1 0-.3-4.4-.3-9.8s.1-9.8.3-9.8c.1 0 .3 4.4.3 9.8-.1 5.4-.2 9.8-.3 9.8Zm2.1 0c-.1 0-.3-4.4-.3-9.8s.1-9.8.3-9.8c.1 0 .3 4.4.3 9.8s-.1 9.8-.3 9.8Zm2.2 0c-.1 0-.3-4.4-.3-9.8s.1-9.8.3-9.8c.1 0 .3 4.4.3 9.8-.1 5.4-.2 9.8-.3 9.8Zm2.1 0c-.1 0-.3-4.4-.3-9.8s.1-9.8.3-9.8c.1 0 .3 4.4.3 9.8s-.1 9.8-.3 9.8Zm2.2 0c-.1 0-.3-4.4-.3-9.8s.1-9.8.3-9.8c.1 0 .3 4.4.3 9.8-.1 5.4-.2 9.8-.3 9.8Zm2.1 0c-.1 0-.3-4.4-.3-9.8s.1-9.8.3-9.8c.2 0 .3 4.4.3 9.8s-.1 9.8-.3 9.8Zm2.2 0c-.1 0-.3-4.4-.3-9.8s.1-9.8.3-9.8c.2 0 .3 4.4.3 9.8-.1 5.4-.2 9.8-.3 9.8Zm2.1 0c-.1 0-.3-4.4-.3-9.8s.1-9.8.3-9.8c.2 0 .3 4.4.3 9.8s-.1 9.8-.3 9.8Zm2.2 0c-.1 0-.3-4.4-.3-9.8s.1-9.8.3-9.8c.2 0 .3 4.4.3 9.8-.1 5.4-.2 9.8-.3 9.8Zm2.1 0c-.1 0-.3-4.4-.3-9.8s.1-9.8.3-9.8c.1 0 .3 4.4.3 9.8s-.1 9.8-.3 9.8Zm2.2 0c-.1 0-.3-4.4-.3-9.8s.1-9.8.3-9.8c.2 0 .3 4.4.3 9.8-.1 5.4-.2 9.8-.3 9.8Zm2.1 0c-.1 0-.3-4.4-.3-9.8s.1-9.8.3-9.8c.2 0 .3 4.4.3 9.8s-.1 9.8-.3 9.8Zm2.2 0c-.1 0-.3-4.4-.3-9.8s.1-9.8.3-9.8c.1 0 .3 4.4.3 9.8-.1 5.4-.2 9.8-.3 9.8Zm2.1 0c-.1 0-.3-4.4-.3-9.8s.1-9.8.3-9.8c.1 0 .3 4.4.3 9.8s-.1 9.8-.3 9.8Zm2.2 0c-.1 0-.3-4.4-.3-9.8s.1-9.8.3-9.8c.1 0 .3 4.4.3 9.8-.1 5.4-.2 9.8-.3 9.8Zm2.1 0c-.1 0-.3-4.4-.3-9.8s.1-9.8.3-9.8c.1 0 .3 4.4.3 9.8s-.1 9.8-.3 9.8Zm2.2 0c-.1 0-.3-4.4-.3-9.8s.1-9.8.3-9.8c.1 0 .3 4.4.3 9.8-.1 5.4-.2 9.8-.3 9.8Zm5.9 0c-.1 0-.3-4.4-.3-9.8s.1-9.8.3-9.8c.1 0 .3 4.4.3 9.8s-.1 9.8-.3 9.8Zm2.2 0c-.1 0-.3-4.4-.3-9.8s.1-9.8.3-9.8c.1 0 .3 4.4.3 9.8s-.1 9.8-.3 9.8Zm2.3 0c-.1 0-.3-4.4-.3-9.8s.1-9.8.3-9.8c.2 0 .3 4.4.3 9.8-.1 5.4-.2 9.8-.3 9.8Zm2.2 0c-.1 0-.3-4.4-.3-9.8s.1-9.8.3-9.8c.1 0 .3 4.4.3 9.8-.1 5.4-.2 9.8-.3 9.8Zm2.2 0c-.1 0-.3-4.4-.3-9.8s.1-9.8.3-9.8c.2 0 .3 4.4.3 9.8s-.2 9.8-.3 9.8Zm2.2 0c-.1 0-.3-4.4-.3-9.8s.1-9.8.3-9.8c.2 0 .3 4.4.3 9.8s-.1 9.8-.3 9.8Zm2.2 0c-.1 0-.3-4.4-.3-9.8s.1-9.8.3-9.8c.1 0 .3 4.4.3 9.8s-.1 9.8-.3 9.8Zm2.2 0c-.1 0-.3-4.4-.3-9.8s.1-9.8.3-9.8c.2 0 .3 4.4.3 9.8s-.1 9.8-.3 9.8Zm2.3 0c-.1 0-.3-4.4-.3-9.8s.1-9.8.3-9.8c.2 0 .3 4.4.3 9.8-.1 5.4-.2 9.8-.3 9.8Zm2.2 0c-.1 0-.3-4.4-.3-9.8s.1-9.8.3-9.8c.1 0 .3 4.4.3 9.8-.1 5.4-.2 9.8-.3 9.8Z" fill="#263238"/><path d="M164 41.7h-21.9L145.3.1h15.1l3.6 41.6Z" fill="#FF725E"/><path d="M162 18.8h-18.2l.6-6.9h17l.6 6.9Zm1.3 14.3h-20.7l.7-6.9 19.4.1.6 6.8Z" fill="#fff"/><path d="m0 123.8 10 52.8h394.2s0-15.1 22-34.6 23.3-42.2 23.3-42.2l-122.2 1-17.6 22.4-301.4.6H0Z" fill="#E0E0E0"/><path d="M0 123.8c2.2 0 127.2-.3 309.8-.8l-.2.1c5.5-7 11.5-14.6 17.6-22.4l.1-.1h.1c38.2-.3 79.4-.6 122.2-1h.3v.3c-.3 3.2-1 6.3-1.9 9.4-.9 3.1-2.1 6.2-3.5 9.2-2.8 6-6.5 11.7-11 16.8-2.9 3.3-6.2 6.3-9.4 9.3-1.6 1.4-3.1 3.1-4.6 4.6-.7.8-1.4 1.6-2.2 2.4l-1.1 1.2-1 1.3c-2.7 3.4-5.1 6.9-7 10.7-1.9 3.8-3.4 7.8-3.7 12v.3h-.2C230.2 177 83 177 10.1 177H10v-.1C3.4 142.2.1 124.6 0 123.8c.2.8 3.6 18.5 10.2 52.9l-.1-.1c72.9 0 220.1-.1 394.2-.1l-.3.3c.3-4.3 1.9-8.3 3.8-12.2 1.9-3.8 4.4-7.4 7.1-10.8l1-1.3 1.1-1.2c.7-.8 1.4-1.6 2.2-2.4 1.5-1.5 3-3.2 4.6-4.6 3.2-3 6.4-5.9 9.3-9.2 4.4-5 8.1-10.7 10.9-16.6 1.4-3 2.6-6 3.5-9.1.9-3.1 1.6-6.2 1.9-9.3l.3.3c-42.8.3-84 .7-122.2 1l.2-.1c-6.1 7.8-12.1 15.4-17.6 22.4l-.1.1h-.1c-91.3.1-168.8.2-223.4.3-27.3 0-48.9 0-63.7.1H5.9c-3.9-.4-5.7-.4-5.9-.4Z" fill="#263238"/><path d="m10.2 176.6-2.9-15.4h402.6s-5.2 8.7-5.5 15.4H10.2Z" fill="#FF725E"/><path d="M257.2 150.5a6.7 6.7 0 1 0 0-13.4 6.7 6.7 0 0 0 0 13.4Z" fill="#fff"/><path d="M263.9 143.8c-.1 0 0-.6-.3-1.6s-1-2.5-2.5-3.6-3.8-1.7-6.1-.9c-1.1.4-2.2 1.2-3 2.3-.8 1.1-1.2 2.4-1.3 3.8 0 1.4.5 2.8 1.3 3.8.8 1.1 1.9 1.8 3 2.3 2.3.9 4.7.2 6.1-.9 1.5-1.1 2.2-2.6 2.5-3.6.3-1 .2-1.6.3-1.6v.4c0 .3 0 .7-.1 1.2-.2 1-.9 2.6-2.4 3.8-.8.6-1.8 1.1-2.9 1.3-1.1.2-2.4.2-3.6-.3-1.2-.4-2.4-1.3-3.2-2.4-.9-1.1-1.3-2.6-1.4-4.1 0-1.5.5-3 1.4-4.1.8-1.2 2-2 3.2-2.4 1.2-.5 2.5-.5 3.6-.3s2.1.7 2.9 1.3c1.6 1.2 2.2 2.8 2.4 3.8.1.5.2.9.1 1.2v.6ZM197.2 41.7h-4.5c-2.9 0-7.1 0-12.3.1-10.4 0-24.8 0-40.6.1h-7.5l.3-.3v12.6h-.2c-10.9 0-20.3-.1-27-.1-3.3 0-5.9-.1-7.7-.1h-2.8 2.8c1.8 0 4.5 0 7.7-.1 6.7 0 16-.1 27-.1l-.2.2V41.3h7.8c15.8 0 30.2.1 40.6.1 5.2 0 9.4.1 12.3.1h4.2c0 .2.1.2.1.2Z" fill="#263238"/><path d="M48.1 150.5a6.7 6.7 0 1 0 0-13.4 6.7 6.7 0 0 0 0 13.4Z" fill="#fff"/><path d="M54.8 143.8c-.1 0 0-.6-.3-1.6s-1-2.5-2.5-3.6-3.8-1.7-6.1-.9c-1.1.4-2.2 1.2-3 2.3-.8 1.1-1.2 2.4-1.3 3.8 0 1.4.5 2.8 1.3 3.8.8 1.1 1.9 1.8 3 2.3 2.3.9 4.7.2 6.1-.9 1.5-1.1 2.2-2.6 2.5-3.6.3-1 .2-1.6.3-1.6v.4c0 .3 0 .7-.1 1.2-.2 1-.9 2.6-2.4 3.8-.8.6-1.8 1.1-2.9 1.3-1.1.2-2.4.2-3.6-.3-1.2-.4-2.4-1.3-3.2-2.4-.9-1.1-1.3-2.6-1.4-4.1 0-1.5.5-3 1.4-4.1.8-1.2 2-2 3.2-2.4 1.2-.5 2.5-.5 3.6-.3s2.1.7 2.9 1.3c1.6 1.2 2.2 2.8 2.4 3.8.1.5.2.9.1 1.2v.6Z" fill="#263238"/><path d="M117.8 150.5a6.7 6.7 0 1 0 0-13.4 6.7 6.7 0 0 0 0 13.4Z" fill="#fff"/><path d="M124.5 143.8c-.1 0 0-.6-.3-1.6s-1-2.5-2.5-3.6-3.8-1.7-6.1-.9c-1.1.4-2.2 1.2-3 2.3-.8 1.1-1.2 2.4-1.3 3.8 0 1.4.5 2.8 1.3 3.8.8 1.1 1.9 1.8 3 2.3 2.3.9 4.7.2 6.1-.9 1.5-1.1 2.2-2.6 2.5-3.6.3-1 .2-1.6.3-1.6v.4c0 .3 0 .7-.1 1.2-.2 1-.9 2.6-2.4 3.8-.8.6-1.8 1.1-2.9 1.3-1.1.2-2.4.2-3.6-.3-1.2-.4-2.4-1.3-3.2-2.4-.9-1.1-1.3-2.6-1.4-4.1 0-1.5.5-3 1.4-4.1.8-1.2 2-2 3.2-2.4 1.2-.5 2.5-.5 3.6-.3s2.1.7 2.9 1.3c1.6 1.2 2.2 2.8 2.4 3.8.1.5.2.9.1 1.2v.6Z" fill="#263238"/><path d="M187.5 150.5a6.7 6.7 0 1 0 0-13.4 6.7 6.7 0 0 0 0 13.4Z" fill="#fff"/><path d="M194.2 143.8c-.1 0 0-.6-.3-1.6s-1-2.5-2.5-3.6-3.8-1.7-6.1-.9c-1.1.4-2.2 1.2-3 2.3-.8 1.1-1.2 2.4-1.3 3.8 0 1.4.5 2.8 1.3 3.8.8 1.1 1.9 1.8 3 2.3 2.3.9 4.7.2 6.1-.9 1.5-1.1 2.2-2.6 2.5-3.6.3-1 .2-1.6.3-1.6v.4c0 .3 0 .7-.1 1.2-.2 1-.9 2.6-2.4 3.8-.8.6-1.8 1.1-2.9 1.3-1.1.2-2.4.2-3.6-.3-1.2-.4-2.4-1.3-3.2-2.4-.9-1.1-1.3-2.6-1.4-4.1 0-1.5.5-3 1.4-4.1.8-1.2 2-2 3.2-2.4 1.2-.5 2.5-.5 3.6-.3s2.1.7 2.9 1.3c1.6 1.2 2.2 2.8 2.4 3.8.1.5.2.9.1 1.2v.6Z" fill="#263238"/></svg>