<svg width="1440" height="565" fill="none" xmlns="http://www.w3.org/2000/svg"><path d="M176.178 338.139a4.03 4.03 0 1 1 4.029 4.028c-2.2 0-4.029-1.804-4.029-4.028Z" fill="url(#a)"/><path d="M180.898 246.82h-1.334v88.971h1.334V246.82Z" fill="url(#b)"/><path d="M-6.558 228.581a4.03 4.03 0 1 1 8.058 0 4.03 4.03 0 0 1-8.058 0Z" fill="url(#c)"/><path d="M43.513 133.901a4.029 4.029 0 1 1 8.057.002 4.029 4.029 0 0 1-8.057-.002Z" fill="url(#d)"/><path d="M48.233 42.582h-1.335v88.971h1.335v-88.97Z" fill="url(#e)"/><path d="M83.747 154.34a4.03 4.03 0 1 1 4.029 4.028c-2.2.025-4.029-1.779-4.029-4.028Z" fill="url(#f)"/><path d="M88.468 63.045h-1.335v88.996h1.335V63.046Z" fill="url(#g)"/><path d="M149.388 384.082a4.029 4.029 0 1 1 8.058.002 4.029 4.029 0 0 1-8.058-.002Z" fill="url(#h)"/><path d="M154.108 292.764h-1.334v88.971h1.334v-88.971Z" fill="url(#i)"/><path d="M211.742 124.954a4.029 4.029 0 1 1 8.058.002 4.029 4.029 0 0 1-8.058-.002Z" fill="url(#j)"/><path d="M216.438 33.66h-1.335v88.971h1.335v-88.97Z" fill="url(#k)"/><path d="M100.553 121a4.029 4.029 0 1 1 8.058.002 4.029 4.029 0 0 1-8.058-.002Z" fill="url(#l)"/><path d="M105.273 74.192h-1.334v44.485h1.334V74.192Z" fill="url(#m)"/><path d="M252.495 344.663a4.03 4.03 0 0 1 8.057 0 4.029 4.029 0 0 1-4.028 4.029c-2.2 0-4.029-1.804-4.029-4.029Z" fill="url(#n)"/><path d="M257.216 297.83h-1.335v44.486h1.335V297.83Z" fill="url(#o)"/><path d="M20.726 108.94a4.03 4.03 0 1 1 8.058 0 4.03 4.03 0 0 1-8.058 0Z" fill="url(#p)"/><path d="M25.447 62.106h-1.335v44.486h1.335V62.106Z" fill="url(#q)"/><path d="M150.97 47.303a4.029 4.029 0 1 1 4.028 4.028c-2.199.025-4.028-1.804-4.028-4.028Z" fill="url(#r)"/><path d="M155.69.494h-1.334V44.98h1.334V.494Z" fill="url(#s)"/><path d="M94.918 372.862a4.029 4.029 0 1 1 8.058.002 4.029 4.029 0 0 1-8.058-.002Z" fill="url(#t)"/><path d="M99.614 281.543h-1.335v88.996h1.335v-88.996Z" fill="url(#u)"/><path d="M210.852 325.634a4.029 4.029 0 1 1 4.028 4.028c-2.224.025-4.028-1.779-4.028-4.028Z" fill="url(#v)"/><path d="M215.548 234.339h-1.335v88.996h1.335v-88.996Z" fill="url(#w)"/><path d="M16.698 549.815a4.029 4.029 0 1 1 4.028 4.029c-2.224.025-4.028-1.804-4.028-4.029Z" fill="url(#x)"/><path d="M21.393 240.468H20.06v307.024h1.334V240.468Z" fill="url(#y)"/><path d="M187.522 374.024a4.03 4.03 0 0 1 8.057 0 4.029 4.029 0 0 1-8.057 0Z" fill="url(#z)"/><path d="M192.218 64.677h-1.335V371.7h1.335V64.677Z" fill="url(#A)"/><path d="M79.002 464.008a4.029 4.029 0 1 1 4.029 4.029c-2.225.024-4.029-1.805-4.029-4.029Z" fill="url(#B)"/><path d="M83.722 154.686h-1.334V461.71h1.334V154.686Z" fill="url(#C)"/><path d="M164.291 225.862a4.029 4.029 0 1 1 4.028 4.029c-2.224.025-4.028-1.78-4.028-4.029Z" fill="url(#D)"/><path d="M169.011 53.679h-1.335v169.86h1.335V53.679Z" fill="url(#E)"/><path d="M1307.77 380.722a4.033 4.033 0 0 1 4.03-4.029c2.23 0 4.03 1.804 4.03 4.029 0 2.224-1.8 4.028-4.03 4.028-2.22.025-4.03-1.804-4.03-4.028Z" fill="url(#F)"/><path d="M1312.47 316.366h-1.33v62.057h1.33v-62.057Z" fill="url(#G)"/><path d="M1203.85 290.614a4.033 4.033 0 0 1 4.03-4.029c2.22 0 4.03 1.804 4.03 4.029a4.033 4.033 0 0 1-4.03 4.028 4.033 4.033 0 0 1-4.03-4.028Z" fill="url(#H)"/><path d="M1208.55 127.673h-1.34v160.618h1.34V127.673Z" fill="url(#I)"/><path d="M1157.91 151.745a4.025 4.025 0 1 1 8.05 0c0 2.224-1.8 4.028-4.02 4.028-2.2.025-4.03-1.779-4.03-4.028Z" fill="url(#J)"/><path d="M1162.63 60.45h-1.34v88.996h1.34V60.451Z" fill="url(#K)"/><path d="M1282.64 221.884c0-2.225 1.8-4.029 4.03-4.029 2.22 0 4.03 1.804 4.03 4.029a4.033 4.033 0 0 1-4.03 4.028c-2.23.025-4.03-1.804-4.03-4.028Z" fill="url(#L)"/><path d="M1287.34 130.59H1286v88.995h1.34V130.59Z" fill="url(#M)"/><path d="M1410.17 228.902a4.025 4.025 0 1 1 8.05 0 4.025 4.025 0 1 1-8.05 0Z" fill="url(#N)"/><path d="M1414.89 137.608h-1.34v88.996h1.34v-88.996Z" fill="url(#O)"/><path d="M1270.8 296.273a4.033 4.033 0 0 1 4.03-4.028c2.23 0 4.03 1.804 4.03 4.028 0 2.225-1.8 4.029-4.03 4.029-2.22.024-4.03-1.804-4.03-4.029Z" fill="url(#P)"/><path d="M1275.52 127.055h-1.33V293.95h1.33V127.055Z" fill="url(#Q)"/><path d="M1294.26 265.677a4.025 4.025 0 1 1 8.05 0 4.025 4.025 0 1 1-8.05 0Z" fill="url(#R)"/><path d="M1298.98 130.12h-1.34v133.234h1.34V130.12Z" fill="url(#S)"/><path d="M1236.77 442.655a4.033 4.033 0 0 1 4.03-4.028c2.22 0 4.03 1.804 4.03 4.028a4.034 4.034 0 0 1-4.03 4.029c-2.2 0-4.03-1.805-4.03-4.029Z" fill="url(#T)"/><path d="M1241.49 133.308h-1.33v307.024h1.33V133.308Z" fill="url(#U)"/><path d="M1354.29 309.347a4.025 4.025 0 1 1 8.05 0 4.025 4.025 0 1 1-8.05 0Z" fill="url(#V)"/><path d="M1359.01 0h-1.34v307.024h1.34V0Z" fill="url(#W)"/><path d="M1415.45 326.523a4.033 4.033 0 0 1 4.03-4.028c2.23 0 4.03 1.804 4.03 4.028 0 2.225-1.8 4.029-4.03 4.029a4.033 4.033 0 0 1-4.03-4.029Z" fill="url(#X)"/><path d="M1420.15 17.176h-1.33V324.2h1.33V17.176Z" fill="url(#Y)"/><path d="M1168.61 510.248c0-2.224 1.8-4.028 4.03-4.028 2.22 0 4.03 1.804 4.03 4.028a4.033 4.033 0 0 1-4.03 4.029c-2.2 0-4.03-1.804-4.03-4.029Z" fill="url(#Z)"/><path d="M1173.33 200.901H1172v307.024h1.33V200.901Z" fill="url(#aa)"/><path d="M1426.43 388.63a4.025 4.025 0 1 1 8.05 0 4.025 4.025 0 1 1-8.05 0Z" fill="url(#ab)"/><path d="M1431.15 79.283h-1.34v307.024h1.34V79.283Z" fill="url(#ac)"/><path d="M1115.89 428.198a4.033 4.033 0 0 1 4.03-4.029c2.23 0 4.03 1.804 4.03 4.029 0 2.224-1.8 4.028-4.03 4.028-2.22.025-4.03-1.779-4.03-4.028Z" fill="url(#ad)"/><path d="M1120.59 256.014h-1.33v169.86h1.33v-169.86Z" fill="url(#ae)"/><path d="M1185.34 243.088c0-2.224 1.8-4.028 4.03-4.028 2.22 0 4.03 1.804 4.03 4.028a4.033 4.033 0 0 1-4.03 4.029c-2.23.025-4.03-1.78-4.03-4.029Z" fill="url(#af)"/><path d="M1190.06 117.763h-1.33V240.79h1.33V117.763Z" fill="url(#ag)"/><path d="M1404.98 460.202a4.025 4.025 0 1 1 8.05 0 4.025 4.025 0 1 1-8.05 0Z" fill="url(#ah)"/><path d="M1409.7 287.994h-1.34v169.861h1.34V287.994Z" fill="url(#ai)"/><defs><linearGradient id="a" x1="180.2" y1="315.5" x2="180.2" y2="245.4" gradientUnits="userSpaceOnUse"><stop stop-color="#A4FFFF"/><stop offset="1" stop-color="#A4FFFF" stop-opacity="0"/></linearGradient><linearGradient id="b" x1="180.2" y1="315.5" x2="180.2" y2="245.4" gradientUnits="userSpaceOnUse"><stop stop-color="#A4FFFF"/><stop offset="1" stop-color="#A4FFFF" stop-opacity="0"/></linearGradient><linearGradient id="c" x1="-2.5" y1="205.9" x2="-2.5" y2="135.9" gradientUnits="userSpaceOnUse"><stop stop-color="#A4FFFF"/><stop offset="1" stop-color="#A4FFFF" stop-opacity="0"/></linearGradient><linearGradient id="d" x1="47.6" y1="111.2" x2="47.6" y2="41.2" gradientUnits="userSpaceOnUse"><stop stop-color="#A4FFFF"/><stop offset="1" stop-color="#A4FFFF" stop-opacity="0"/></linearGradient><linearGradient id="e" x1="47.6" y1="111.2" x2="47.6" y2="41.2" gradientUnits="userSpaceOnUse"><stop stop-color="#A4FFFF"/><stop offset="1" stop-color="#A4FFFF" stop-opacity="0"/></linearGradient><linearGradient id="f" x1="87.8" y1="131.7" x2="87.8" y2="61.7" gradientUnits="userSpaceOnUse"><stop stop-color="#A4FFFF"/><stop offset="1" stop-color="#A4FFFF" stop-opacity="0"/></linearGradient><linearGradient id="g" x1="87.8" y1="131.7" x2="87.8" y2="61.7" gradientUnits="userSpaceOnUse"><stop stop-color="#A4FFFF"/><stop offset="1" stop-color="#A4FFFF" stop-opacity="0"/></linearGradient><linearGradient id="h" x1="153.4" y1="361.4" x2="153.4" y2="291.4" gradientUnits="userSpaceOnUse"><stop stop-color="#A4FFFF"/><stop offset="1" stop-color="#A4FFFF" stop-opacity="0"/></linearGradient><linearGradient id="i" x1="153.4" y1="361.4" x2="153.4" y2="291.4" gradientUnits="userSpaceOnUse"><stop stop-color="#A4FFFF"/><stop offset="1" stop-color="#A4FFFF" stop-opacity="0"/></linearGradient><linearGradient id="j" x1="215.8" y1="102.3" x2="215.8" y2="32.3" gradientUnits="userSpaceOnUse"><stop stop-color="#A4FFFF"/><stop offset="1" stop-color="#A4FFFF" stop-opacity="0"/></linearGradient><linearGradient id="k" x1="215.8" y1="102.3" x2="215.8" y2="32.3" gradientUnits="userSpaceOnUse"><stop stop-color="#A4FFFF"/><stop offset="1" stop-color="#A4FFFF" stop-opacity="0"/></linearGradient><linearGradient id="l" x1="104.6" y1="98.3" x2="104.6" y2="28.3" gradientUnits="userSpaceOnUse"><stop stop-color="#A4FFFF"/><stop offset="1" stop-color="#A4FFFF" stop-opacity="0"/></linearGradient><linearGradient id="m" x1="104.6" y1="108.5" x2="104.6" y2="73.5" gradientUnits="userSpaceOnUse"><stop stop-color="#A4FFFF"/><stop offset="1" stop-color="#A4FFFF" stop-opacity="0"/></linearGradient><linearGradient id="n" x1="256.5" y1="322" x2="256.5" y2="252" gradientUnits="userSpaceOnUse"><stop stop-color="#A4FFFF"/><stop offset="1" stop-color="#A4FFFF" stop-opacity="0"/></linearGradient><linearGradient id="o" x1="256.5" y1="332.2" x2="256.5" y2="297.1" gradientUnits="userSpaceOnUse"><stop stop-color="#A4FFFF"/><stop offset="1" stop-color="#A4FFFF" stop-opacity="0"/></linearGradient><linearGradient id="p" x1="24.8" y1="86.3" x2="24.8" y2="16.2" gradientUnits="userSpaceOnUse"><stop stop-color="#A4FFFF"/><stop offset="1" stop-color="#A4FFFF" stop-opacity="0"/></linearGradient><linearGradient id="q" x1="24.8" y1="96.4" x2="24.8" y2="61.4" gradientUnits="userSpaceOnUse"><stop stop-color="#A4FFFF"/><stop offset="1" stop-color="#A4FFFF" stop-opacity="0"/></linearGradient><linearGradient id="r" x1="155" y1="24.6" x2="155" y2="-45.4" gradientUnits="userSpaceOnUse"><stop stop-color="#A4FFFF"/><stop offset="1" stop-color="#A4FFFF" stop-opacity="0"/></linearGradient><linearGradient id="s" x1="155" y1="34.8" x2="155" y2="-.2" gradientUnits="userSpaceOnUse"><stop stop-color="#A4FFFF"/><stop offset="1" stop-color="#A4FFFF" stop-opacity="0"/></linearGradient><linearGradient id="t" x1="99" y1="350.2" x2="99" y2="280.2" gradientUnits="userSpaceOnUse"><stop stop-color="#A4FFFF"/><stop offset="1" stop-color="#A4FFFF" stop-opacity="0"/></linearGradient><linearGradient id="u" x1="99" y1="350.2" x2="99" y2="280.2" gradientUnits="userSpaceOnUse"><stop stop-color="#A4FFFF"/><stop offset="1" stop-color="#A4FFFF" stop-opacity="0"/></linearGradient><linearGradient id="v" x1="214.9" y1="303" x2="214.9" y2="232.9" gradientUnits="userSpaceOnUse"><stop stop-color="#A4FFFF"/><stop offset="1" stop-color="#A4FFFF" stop-opacity="0"/></linearGradient><linearGradient id="w" x1="214.9" y1="303" x2="214.9" y2="233" gradientUnits="userSpaceOnUse"><stop stop-color="#A4FFFF"/><stop offset="1" stop-color="#A4FFFF" stop-opacity="0"/></linearGradient><linearGradient id="x" x1="20.7" y1="510.3" x2="20.7" y2="385.6" gradientUnits="userSpaceOnUse"><stop stop-color="#A4FFFF"/><stop offset="1" stop-color="#A4FFFF" stop-opacity="0"/></linearGradient><linearGradient id="y" x1="20.7" y1="479.1" x2="20.7" y2="249.7" gradientUnits="userSpaceOnUse"><stop stop-color="#A4FFFF"/><stop offset="1" stop-color="#A4FFFF" stop-opacity="0"/></linearGradient><linearGradient id="z" x1="191.5" y1="334.5" x2="191.5" y2="209.8" gradientUnits="userSpaceOnUse"><stop stop-color="#A4FFFF"/><stop offset="1" stop-color="#A4FFFF" stop-opacity="0"/></linearGradient><linearGradient id="A" x1="191.6" y1="303.3" x2="191.6" y2="73.9" gradientUnits="userSpaceOnUse"><stop stop-color="#A4FFFF"/><stop offset="1" stop-color="#A4FFFF" stop-opacity="0"/></linearGradient><linearGradient id="B" x1="83" y1="424.5" x2="83" y2="299.8" gradientUnits="userSpaceOnUse"><stop stop-color="#A4FFFF"/><stop offset="1" stop-color="#A4FFFF" stop-opacity="0"/></linearGradient><linearGradient id="C" x1="83" y1="393.3" x2="83" y2="163.9" gradientUnits="userSpaceOnUse"><stop stop-color="#A4FFFF"/><stop offset="1" stop-color="#A4FFFF" stop-opacity="0"/></linearGradient><linearGradient id="D" x1="168.3" y1="186.4" x2="168.3" y2="61.6" gradientUnits="userSpaceOnUse"><stop stop-color="#A4FFFF"/><stop offset="1" stop-color="#A4FFFF" stop-opacity="0"/></linearGradient><linearGradient id="E" x1="168.3" y1="185.7" x2="168.3" y2="58.8" gradientUnits="userSpaceOnUse"><stop stop-color="#A4FFFF"/><stop offset="1" stop-color="#A4FFFF" stop-opacity="0"/></linearGradient><linearGradient id="F" x1="1311.8" y1="358.1" x2="1311.8" y2="288.1" gradientUnits="userSpaceOnUse"><stop stop-color="#A4FFFF"/><stop offset="1" stop-color="#A4FFFF" stop-opacity="0"/></linearGradient><linearGradient id="G" x1="1311.8" y1="364.2" x2="1311.8" y2="315.4" gradientUnits="userSpaceOnUse"><stop stop-color="#A4FFFF"/><stop offset="1" stop-color="#A4FFFF" stop-opacity="0"/></linearGradient><linearGradient id="H" x1="1207.9" y1="267.9" x2="1207.9" y2="197.9" gradientUnits="userSpaceOnUse"><stop stop-color="#A4FFFF"/><stop offset="1" stop-color="#A4FFFF" stop-opacity="0"/></linearGradient><linearGradient id="I" x1="1207.9" y1="251.6" x2="1207.9" y2="125.2" gradientUnits="userSpaceOnUse"><stop stop-color="#A4FFFF"/><stop offset="1" stop-color="#A4FFFF" stop-opacity="0"/></linearGradient><linearGradient id="J" x1="1162" y1="129.1" x2="1162" y2="59.1" gradientUnits="userSpaceOnUse"><stop stop-color="#A4FFFF"/><stop offset="1" stop-color="#A4FFFF" stop-opacity="0"/></linearGradient><linearGradient id="K" x1="1162" y1="129.1" x2="1162" y2="59.1" gradientUnits="userSpaceOnUse"><stop stop-color="#A4FFFF"/><stop offset="1" stop-color="#A4FFFF" stop-opacity="0"/></linearGradient><linearGradient id="L" x1="1286.7" y1="199.2" x2="1286.7" y2="129.2" gradientUnits="userSpaceOnUse"><stop stop-color="#A4FFFF"/><stop offset="1" stop-color="#A4FFFF" stop-opacity="0"/></linearGradient><linearGradient id="M" x1="1286.7" y1="199.2" x2="1286.7" y2="129.2" gradientUnits="userSpaceOnUse"><stop stop-color="#A4FFFF"/><stop offset="1" stop-color="#A4FFFF" stop-opacity="0"/></linearGradient><linearGradient id="N" x1="1414.2" y1="206.2" x2="1414.2" y2="136.2" gradientUnits="userSpaceOnUse"><stop stop-color="#A4FFFF"/><stop offset="1" stop-color="#A4FFFF" stop-opacity="0"/></linearGradient><linearGradient id="O" x1="1414.2" y1="206.2" x2="1414.2" y2="136.2" gradientUnits="userSpaceOnUse"><stop stop-color="#A4FFFF"/><stop offset="1" stop-color="#A4FFFF" stop-opacity="0"/></linearGradient><linearGradient id="P" x1="1274.8" y1="256.8" x2="1274.8" y2="132.1" gradientUnits="userSpaceOnUse"><stop stop-color="#A4FFFF"/><stop offset="1" stop-color="#A4FFFF" stop-opacity="0"/></linearGradient><linearGradient id="Q" x1="1274.8" y1="256.8" x2="1274.8" y2="132.1" gradientUnits="userSpaceOnUse"><stop stop-color="#A4FFFF"/><stop offset="1" stop-color="#A4FFFF" stop-opacity="0"/></linearGradient><linearGradient id="R" x1="1298.3" y1="226.2" x2="1298.3" y2="101.5" gradientUnits="userSpaceOnUse"><stop stop-color="#A4FFFF"/><stop offset="1" stop-color="#A4FFFF" stop-opacity="0"/></linearGradient><linearGradient id="S" x1="1298.3" y1="233.7" x2="1298.3" y2="134.1" gradientUnits="userSpaceOnUse"><stop stop-color="#A4FFFF"/><stop offset="1" stop-color="#A4FFFF" stop-opacity="0"/></linearGradient><linearGradient id="T" x1="1240.8" y1="403.2" x2="1240.8" y2="278.5" gradientUnits="userSpaceOnUse"><stop stop-color="#A4FFFF"/><stop offset="1" stop-color="#A4FFFF" stop-opacity="0"/></linearGradient><linearGradient id="U" x1="1240.8" y1="372" x2="1240.8" y2="142.6" gradientUnits="userSpaceOnUse"><stop stop-color="#A4FFFF"/><stop offset="1" stop-color="#A4FFFF" stop-opacity="0"/></linearGradient><linearGradient id="V" x1="1358.3" y1="269.8" x2="1358.3" y2="145.1" gradientUnits="userSpaceOnUse"><stop stop-color="#A4FFFF"/><stop offset="1" stop-color="#A4FFFF" stop-opacity="0"/></linearGradient><linearGradient id="W" x1="1358.3" y1="238.6" x2="1358.3" y2="9.3" gradientUnits="userSpaceOnUse"><stop stop-color="#A4FFFF"/><stop offset="1" stop-color="#A4FFFF" stop-opacity="0"/></linearGradient><linearGradient id="X" x1="1419.5" y1="287" x2="1419.5" y2="162.3" gradientUnits="userSpaceOnUse"><stop stop-color="#A4FFFF"/><stop offset="1" stop-color="#A4FFFF" stop-opacity="0"/></linearGradient><linearGradient id="Y" x1="1419.5" y1="255.8" x2="1419.5" y2="26.4" gradientUnits="userSpaceOnUse"><stop stop-color="#A4FFFF"/><stop offset="1" stop-color="#A4FFFF" stop-opacity="0"/></linearGradient><linearGradient id="Z" x1="1172.7" y1="470.8" x2="1172.7" y2="346.1" gradientUnits="userSpaceOnUse"><stop stop-color="#A4FFFF"/><stop offset="1" stop-color="#A4FFFF" stop-opacity="0"/></linearGradient><linearGradient id="aa" x1="1172.7" y1="439.6" x2="1172.7" y2="210.2" gradientUnits="userSpaceOnUse"><stop stop-color="#A4FFFF"/><stop offset="1" stop-color="#A4FFFF" stop-opacity="0"/></linearGradient><linearGradient id="ab" x1="1430.5" y1="349.1" x2="1430.5" y2="224.5" gradientUnits="userSpaceOnUse"><stop stop-color="#A4FFFF"/><stop offset="1" stop-color="#A4FFFF" stop-opacity="0"/></linearGradient><linearGradient id="ac" x1="1430.5" y1="317.9" x2="1430.5" y2="88.5" gradientUnits="userSpaceOnUse"><stop stop-color="#A4FFFF"/><stop offset="1" stop-color="#A4FFFF" stop-opacity="0"/></linearGradient><linearGradient id="ad" x1="1119.9" y1="388.7" x2="1119.9" y2="264" gradientUnits="userSpaceOnUse"><stop stop-color="#A4FFFF"/><stop offset="1" stop-color="#A4FFFF" stop-opacity="0"/></linearGradient><linearGradient id="ae" x1="1119.9" y1="388.1" x2="1119.9" y2="261.1" gradientUnits="userSpaceOnUse"><stop stop-color="#A4FFFF"/><stop offset="1" stop-color="#A4FFFF" stop-opacity="0"/></linearGradient><linearGradient id="af" x1="1189.4" y1="203.6" x2="1189.4" y2="78.9" gradientUnits="userSpaceOnUse"><stop stop-color="#A4FFFF"/><stop offset="1" stop-color="#A4FFFF" stop-opacity="0"/></linearGradient><linearGradient id="ag" x1="1189.4" y1="213.4" x2="1189.4" y2="121.5" gradientUnits="userSpaceOnUse"><stop stop-color="#A4FFFF"/><stop offset="1" stop-color="#A4FFFF" stop-opacity="0"/></linearGradient><linearGradient id="ah" x1="1409" y1="420.7" x2="1409" y2="296.1" gradientUnits="userSpaceOnUse"><stop stop-color="#A4FFFF"/><stop offset="1" stop-color="#A4FFFF" stop-opacity="0"/></linearGradient><linearGradient id="ai" x1="1409" y1="420" x2="1409" y2="293.1" gradientUnits="userSpaceOnUse"><stop stop-color="#A4FFFF"/><stop offset="1" stop-color="#A4FFFF" stop-opacity="0"/></linearGradient></defs></svg>