<svg width="1440" height="582" fill="none" xmlns="http://www.w3.org/2000/svg"><path d="M-41.943 800.103c73.614 0 133.29-59.676 133.29-133.29 0-73.614-59.676-133.29-133.29-133.29-73.614 0-133.29 59.676-133.29 133.29 0 73.614 59.676 133.29 133.29 133.29Z" fill="url(#a)"/><path d="M107.696 95.915a6.999 6.999 0 1 0 0-13.998 7 7 0 0 0 0 13.998Z" fill="url(#b)"/><path d="M1180.48 450.543c0-8.595-6.97-15.594-15.59-15.594-8.6 0-15.59 6.971-15.59 15.594 0 8.595 6.97 15.594 15.59 15.594 8.59-.028 15.59-6.999 15.59-15.594Z" fill="url(#c)"/><path opacity=".2" d="M464.06 341.386c0-8.595-6.971-15.594-15.594-15.594-8.595 0-15.594 6.971-15.594 15.594 0 8.595 6.971 15.594 15.594 15.594 8.623-.028 15.594-6.999 15.594-15.594Z" fill="url(#d)"/><path opacity=".2" d="M14.385 494.805c0-8.595-6.971-15.594-15.594-15.594-8.595 0-15.594 6.971-15.594 15.594 0 8.595 6.971 15.594 15.594 15.594 8.623-.028 15.594-6.999 15.594-15.594Z" fill="url(#e)"/><path d="M1418.12 163.61c3.86 0 6.99-3.134 6.99-6.999 0-3.866-3.13-6.999-6.99-6.999-3.87 0-7 3.133-7 6.999a6.997 6.997 0 0 0 7 6.999Z" fill="url(#f)"/><path d="M223.237 436.041a7 7 0 1 0-.001-14 7 7 0 0 0 .001 14Z" fill="url(#g)"/><path d="M1014.77 547.242a6.998 6.998 0 0 0-7-6.999c-3.86 0-6.99 3.136-6.99 6.999 0 3.864 3.13 7 6.99 7 3.9 0 7-3.136 7-7Z" fill="url(#h)"/><path d="M1321 537.164c3.86 0 7-3.134 7-6.999a7.003 7.003 0 0 0-7-6.999c-3.87 0-7 3.133-7 6.999a6.997 6.997 0 0 0 7 6.999Z" fill="url(#i)"/><path d="M459.049 434.865a6.999 6.999 0 1 0 0-13.998 6.999 6.999 0 0 0 0 13.998Z" fill="url(#j)"/><path d="M408.516 503.792a7 7 0 1 0-.001-14 7 7 0 0 0 .001 14Z" fill="url(#k)"/><path opacity=".2" d="M595.502 15.594C595.502 6.999 588.531 0 579.908 0c-8.594 0-15.593 6.971-15.593 15.594 0 8.595 6.971 15.594 15.593 15.594 8.623-.028 15.594-7 15.594-15.594Z" fill="url(#l)"/><path d="M946.575 38.158a7 7 0 1 0 0-13.998 7 7 0 0 0 0 13.998Z" fill="url(#m)"/><path d="M810.681 97.734a6.999 6.999 0 1 0-6.999-6.999 7 7 0 0 0 6.999 7Z" fill="url(#n)"/><path d="M590.491 109.073a7 7 0 1 0-.001-14 7 7 0 0 0 .001 14Z" fill="url(#o)"/><path d="M222.285 524.09a7 7 0 1 0-.001-14 7 7 0 0 0 .001 14Z" fill="url(#p)"/><defs><radialGradient id="a" cx="0" cy="0" r="1" gradientUnits="userSpaceOnUse" gradientTransform="translate(-41.943 666.811) scale(133.277)"><stop offset=".6" stop-color="#DE0000"/><stop offset=".6" stop-color="#DA0000"/><stop offset=".7" stop-color="#D00000"/><stop offset=".7" stop-color="#BE0000"/><stop offset=".8" stop-color="#A40000"/><stop offset=".9" stop-color="#830000"/><stop offset=".9" stop-color="#5B0000"/><stop offset="1" stop-color="#2C0000"/><stop offset="1"/></radialGradient><radialGradient id="b" cx="0" cy="0" r="1" gradientUnits="userSpaceOnUse" gradientTransform="translate(107.707 88.911) scale(6.99904)"><stop offset=".6" stop-color="#F50000"/><stop offset=".6" stop-color="#F10000"/><stop offset=".7" stop-color="#E70000"/><stop offset=".7" stop-color="#D50000"/><stop offset=".8" stop-color="#B00"/><stop offset=".8" stop-color="#9A0000"/><stop offset=".9" stop-color="#720000"/><stop offset=".9" stop-color="#420000"/><stop offset="1" stop-color="#0C0000"/><stop offset="1"/></radialGradient><radialGradient id="c" cx="0" cy="0" r="1" gradientUnits="userSpaceOnUse" gradientTransform="translate(1164.89 450.536) scale(15.581)"><stop offset=".6" stop-color="#6E008B"/><stop offset=".6" stop-color="#6B0087"/><stop offset=".7" stop-color="#63007D"/><stop offset=".8" stop-color="#54006B"/><stop offset=".9" stop-color="#400051"/><stop offset=".9" stop-color="#260030"/><stop offset="1" stop-color="#070008"/><stop offset="1"/></radialGradient><radialGradient id="d" cx="0" cy="0" r="1" gradientUnits="userSpaceOnUse" gradientTransform="translate(448.489 341.374) scale(15.581)"><stop offset=".6" stop-color="#EA8100"/><stop offset=".6" stop-color="#E67F00"/><stop offset=".7" stop-color="#DC7900"/><stop offset=".7" stop-color="#CA6F00"/><stop offset=".8" stop-color="#B06100"/><stop offset=".8" stop-color="#8F4F00"/><stop offset=".9" stop-color="#673900"/><stop offset=".9" stop-color="#371F00"/><stop offset="1" stop-color="#010100"/><stop offset="1"/></radialGradient><radialGradient id="e" cx="0" cy="0" r="1" gradientUnits="userSpaceOnUse" gradientTransform="translate(-1.198 494.794) scale(15.581)"><stop offset=".6" stop-color="#EA8100"/><stop offset=".6" stop-color="#E67F00"/><stop offset=".7" stop-color="#DC7900"/><stop offset=".7" stop-color="#CA6F00"/><stop offset=".8" stop-color="#B06100"/><stop offset=".8" stop-color="#8F4F00"/><stop offset=".9" stop-color="#673900"/><stop offset=".9" stop-color="#371F00"/><stop offset="1" stop-color="#010100"/><stop offset="1"/></radialGradient><radialGradient id="f" cx="0" cy="0" r="1" gradientUnits="userSpaceOnUse" gradientTransform="translate(1418.11 156.616) scale(6.99905)"><stop offset=".6" stop-color="#7000B2"/><stop offset=".6" stop-color="#6E00AE"/><stop offset=".7" stop-color="#6700A4"/><stop offset=".8" stop-color="#5C0092"/><stop offset=".8" stop-color="#4C0078"/><stop offset=".9" stop-color="#370057"/><stop offset=".9" stop-color="#1E002F"/><stop offset="1" stop-color="#000001"/><stop offset="1"/></radialGradient><radialGradient id="g" cx="0" cy="0" r="1" gradientUnits="userSpaceOnUse" gradientTransform="translate(223.25 429.031) scale(6.99905)"><stop offset=".6" stop-color="#7000B2"/><stop offset=".6" stop-color="#6E00AE"/><stop offset=".7" stop-color="#6700A4"/><stop offset=".8" stop-color="#5C0092"/><stop offset=".8" stop-color="#4C0078"/><stop offset=".9" stop-color="#370057"/><stop offset=".9" stop-color="#1E002F"/><stop offset="1" stop-color="#000001"/><stop offset="1"/></radialGradient><radialGradient id="h" cx="0" cy="0" r="1" gradientUnits="userSpaceOnUse" gradientTransform="translate(1007.79 547.255) scale(6.99933)"><stop offset=".6" stop-color="#7000B2"/><stop offset=".6" stop-color="#6E00AE"/><stop offset=".7" stop-color="#6700A4"/><stop offset=".8" stop-color="#5C0092"/><stop offset=".8" stop-color="#4C0078"/><stop offset=".9" stop-color="#370057"/><stop offset=".9" stop-color="#1E002F"/><stop offset="1" stop-color="#000001"/><stop offset="1"/></radialGradient><radialGradient id="i" cx="0" cy="0" r="1" gradientUnits="userSpaceOnUse" gradientTransform="translate(1321 530.157) scale(6.99905)"><stop offset=".6" stop-color="#F50000"/><stop offset=".6" stop-color="#F10000"/><stop offset=".7" stop-color="#E70000"/><stop offset=".7" stop-color="#D50000"/><stop offset=".8" stop-color="#B00"/><stop offset=".8" stop-color="#9A0000"/><stop offset=".9" stop-color="#720000"/><stop offset=".9" stop-color="#420000"/><stop offset="1" stop-color="#0C0000"/><stop offset="1"/></radialGradient><radialGradient id="j" cx="0" cy="0" r="1" gradientUnits="userSpaceOnUse" gradientTransform="translate(459.05 427.853) scale(6.99905)"><stop offset=".6" stop-color="#F50000"/><stop offset=".6" stop-color="#F10000"/><stop offset=".7" stop-color="#E70000"/><stop offset=".7" stop-color="#D50000"/><stop offset=".8" stop-color="#B00"/><stop offset=".8" stop-color="#9A0000"/><stop offset=".9" stop-color="#720000"/><stop offset=".9" stop-color="#420000"/><stop offset="1" stop-color="#0C0000"/><stop offset="1"/></radialGradient><radialGradient id="k" cx="0" cy="0" r="1" gradientUnits="userSpaceOnUse" gradientTransform="translate(408.515 496.788) scale(6.99905)"><stop offset=".6" stop-color="#F50000"/><stop offset=".6" stop-color="#F10000"/><stop offset=".7" stop-color="#E70000"/><stop offset=".7" stop-color="#D50000"/><stop offset=".8" stop-color="#B00"/><stop offset=".8" stop-color="#9A0000"/><stop offset=".9" stop-color="#720000"/><stop offset=".9" stop-color="#420000"/><stop offset="1" stop-color="#0C0000"/><stop offset="1"/></radialGradient><radialGradient id="l" cx="0" cy="0" r="1" gradientUnits="userSpaceOnUse" gradientTransform="translate(579.919 15.581) scale(15.5813)"><stop offset=".6" stop-color="#EA8100"/><stop offset=".6" stop-color="#E67F00"/><stop offset=".7" stop-color="#DC7900"/><stop offset=".7" stop-color="#CA6F00"/><stop offset=".8" stop-color="#B06100"/><stop offset=".8" stop-color="#8F4F00"/><stop offset=".9" stop-color="#673900"/><stop offset=".9" stop-color="#371F00"/><stop offset="1" stop-color="#010100"/><stop offset="1"/></radialGradient><radialGradient id="m" cx="0" cy="0" r="1" gradientUnits="userSpaceOnUse" gradientTransform="translate(946.568 31.162) scale(6.99905)"><stop offset=".6" stop-color="#7000B2"/><stop offset=".6" stop-color="#6E00AE"/><stop offset=".7" stop-color="#6700A4"/><stop offset=".8" stop-color="#5C0092"/><stop offset=".8" stop-color="#4C0078"/><stop offset=".9" stop-color="#370057"/><stop offset=".9" stop-color="#1E002F"/><stop offset="1" stop-color="#000001"/><stop offset="1"/></radialGradient><radialGradient id="n" cx="0" cy="0" r="1" gradientUnits="userSpaceOnUse" gradientTransform="translate(810.678 90.747) scale(6.99905)"><stop offset=".6" stop-color="#7000B2"/><stop offset=".6" stop-color="#6E00AE"/><stop offset=".7" stop-color="#6700A4"/><stop offset=".8" stop-color="#5C0092"/><stop offset=".8" stop-color="#4C0078"/><stop offset=".9" stop-color="#370057"/><stop offset=".9" stop-color="#1E002F"/><stop offset="1" stop-color="#000001"/><stop offset="1"/></radialGradient><radialGradient id="o" cx="0" cy="0" r="1" gradientUnits="userSpaceOnUse" gradientTransform="translate(590.481 102.062) scale(6.99905)"><stop offset=".6" stop-color="#F50000"/><stop offset=".6" stop-color="#F10000"/><stop offset=".7" stop-color="#E70000"/><stop offset=".7" stop-color="#D50000"/><stop offset=".8" stop-color="#B00"/><stop offset=".8" stop-color="#9A0000"/><stop offset=".9" stop-color="#720000"/><stop offset=".9" stop-color="#420000"/><stop offset="1" stop-color="#0C0000"/><stop offset="1"/></radialGradient><radialGradient id="p" cx="0" cy="0" r="1" gradientUnits="userSpaceOnUse" gradientTransform="translate(222.279 517.077) scale(6.99905)"><stop offset=".6" stop-color="#7000B2"/><stop offset=".6" stop-color="#6E00AE"/><stop offset=".7" stop-color="#6700A4"/><stop offset=".8" stop-color="#5C0092"/><stop offset=".8" stop-color="#4C0078"/><stop offset=".9" stop-color="#370057"/><stop offset=".9" stop-color="#1E002F"/><stop offset="1" stop-color="#000001"/><stop offset="1"/></radialGradient></defs></svg>