<svg width="723" height="393" viewBox="0 0 723 393" fill="none" xmlns="http://www.w3.org/2000/svg">
<path d="M155 207.7C155.8 202.2 148 197.7 142.2 197.3C139.4 197.1 136.6 197.5 133.9 196.6C128.2 194.6 126 187.3 120.4 184.9C116.3 183.2 111.5 184.7 107.5 186.7C103.5 188.7 99.5 191.3 95 191.6C91.1 191.8 86.9 190.4 83.4 192.3C80.9 193.7 79.5 196.7 77.2 198.4C74.9 200.1 71.9 200.5 69.1 200.6C66.3 200.8 63.3 200.8 60.7 202C58.1 203.2 56 205.9 56.5 208.7L155 207.7Z" fill="#EBEBEB"/>
<path d="M649.5 17.2C650 13.3 644.5 10.1 640.4 9.7C638.4 9.5 636.4 9.8 634.5 9.2C630.4 7.8 628.8 2.5 624.8 0.900001C621.8 -0.399999 618.4 0.8 615.5 2.2C612.6 3.6 609.8 5.5 606.6 5.7C603.8 5.9 600.8 4.8 598.3 6.2C596.5 7.2 595.5 9.3 593.8 10.6C592.2 11.8 590 12.1 588 12.2C586 12.3 583.9 12.3 582 13.2C580.1 14 578.6 16 579 18L649.5 17.2Z" fill="#EBEBEB"/>
<path d="M352.7 133.1C352.2 133.1 351.7 132.7 351.7 132.1V73L304.1 131.3C303.8 131.7 303.1 131.8 302.7 131.4C302.3 131.1 302.2 130.4 302.6 130L351.9 69.5C352.2 69.2 352.6 69.1 353 69.2C353.4 69.3 353.7 69.7 353.7 70.1V131.9C353.6 132.7 353.2 133.1 352.7 133.1Z" fill="#E0E0E0"/>
<path d="M144.3 148.7C143.9 148.7 143.5 148.5 143.4 148.1C143.2 147.6 143.5 147 144 146.8L352.3 69.4C352.7 69.3 353.1 69.4 353.4 69.7L406.4 131.5C406.8 131.9 406.7 132.5 406.3 132.9C405.9 133.3 405.3 133.2 404.9 132.8L352.3 71.5L144.6 148.7C144.6 148.7 144.4 148.7 144.3 148.7Z" fill="#E0E0E0"/>
<path d="M118.6 143.6L132.5 151.9H463.3V143.6H118.6Z" fill="#E0E0E0"/>
<path d="M303.3 130.8H297.8V289.5H303.3V130.8Z" fill="#E0E0E0"/>
<path d="M360.7 130.8H355.2V289.5H360.7V130.8Z" fill="#E0E0E0"/>
<path d="M410.1 288.2H292V294.6H410.1V288.2Z" fill="#E0E0E0"/>
<path d="M361 220.2H300.6V226.6H361V220.2Z" fill="#E0E0E0"/>
<path d="M347.3 130.8H341.8V289.5H347.3V130.8Z" fill="#E0E0E0"/>
<path d="M405.7 132.1H400.2V290.8H405.7V132.1Z" fill="#E0E0E0"/>
<path d="M304.1 222.8C304 222.8 303.8 222.8 303.7 222.7C303.2 222.5 303 221.9 303.2 221.4L344.8 134.1C345 133.6 345.6 133.4 346.1 133.6C346.6 133.8 346.8 134.4 346.6 134.9L305 222.2C304.9 222.6 304.5 222.8 304.1 222.8Z" fill="#EBEBEB"/>
<path d="M359.6 221.2C359.5 221.2 359.3 221.2 359.2 221.1C358.7 220.9 358.5 220.3 358.8 219.8C360.5 216.4 399.4 137.6 399.9 136.5C400.2 136 400.7 135.8 401.2 136.1C401.7 136.4 401.9 136.9 401.6 137.4C401.1 138.4 360.9 219.8 360.5 220.6C360.3 221 360 221.2 359.6 221.2Z" fill="#EBEBEB"/>
<path d="M311.3 294.6H287.6V300.3H311.3V294.6Z" fill="#E0E0E0"/>
<path d="M355.5 293.8H331.8V299.5H355.5V293.8Z" fill="#E0E0E0"/>
<path d="M412.1 293.8H388.4V299.5H412.1V293.8Z" fill="#E0E0E0"/>
<path d="M416.6 299.4H279.6V304.6H416.6V299.4Z" fill="#E0E0E0"/>
<path d="M409.5 130.8H295.7V138.2H409.5V130.8Z" fill="#E0E0E0"/>
<path d="M404.9 220.2H345.7V226.6H404.9V220.2Z" fill="#E0E0E0"/>
<path d="M136.8 359.9H103.8V372H136.8V359.9Z" fill="#E0E0E0"/>
<path d="M111.5 358.5H78.5V370.6H111.5V358.5Z" fill="#EBEBEB"/>
<path d="M43.4 357.5H10.4V369.6H43.4V357.5Z" fill="#E0E0E0"/>
<path d="M41.3 345.4H8.29999V357.5H41.3V345.4Z" fill="#EBEBEB"/>
<path d="M51 341.1V335.5H56.2V340.8L51 341.1Z" fill="#E0E0E0"/>
<path d="M83.4 335.5H56.3V340.7H83.4V335.5Z" fill="#F5F5F5"/>
<path d="M50 340.8H40.5V370.1H50V340.8Z" fill="#E0E0E0"/>
<path d="M83.3 340.8H49.9V370H83.4L83.3 340.8Z" fill="#F5F5F5"/>
<path d="M59.7 337.1H59V338.9H59.7V337.1Z" fill="#E0E0E0"/>
<path d="M61 337.1H60.3V338.9H61V337.1Z" fill="#E0E0E0"/>
<path d="M64.9 337.1H64.2V338.9H64.9V337.1Z" fill="#E0E0E0"/>
<path d="M66.2 337.1H65.5V338.9H66.2V337.1Z" fill="#E0E0E0"/>
<path d="M70.2 337.1H69.5V338.9H70.2V337.1Z" fill="#E0E0E0"/>
<path d="M71.4 337.1H70.7V338.9H71.4V337.1Z" fill="#E0E0E0"/>
<path d="M75.4 337.1H74.7V338.9H75.4V337.1Z" fill="#E0E0E0"/>
<path d="M76.7 337.1H76V338.9H76.7V337.1Z" fill="#E0E0E0"/>
<path d="M80.6 337.1H79.9V338.9H80.6V337.1Z" fill="#E0E0E0"/>
<path d="M81.9 337.1H81.2V338.9H81.9V337.1Z" fill="#E0E0E0"/>
<path d="M69.5 335.5H60.3L61.6 318.1H67.9L69.5 335.5Z" fill="#E0E0E0"/>
<path d="M68.6 326H61L61.2 323.1H68.4L68.6 326Z" fill="white"/>
<path d="M69.2 332H60.5L60.8 329.1H68.9L69.2 332Z" fill="white"/>
<path d="M95 358.5H62V370.6H95V358.5Z" fill="#E0E0E0"/>
<path d="M99.2 346.4H66.2V358.5H99.2V346.4Z" fill="#EBEBEB"/>
<path d="M0.599976 370L4.79998 392.2H170.2C170.2 392.2 170.2 385.9 179.4 377.7C188.6 369.5 189.2 360 189.2 360L137.9 360.4L130.5 369.8L4.09998 370H0.599976Z" fill="#EBEBEB"/>
<path d="M0.599976 370C0.599976 370 0.799975 370 1.19998 370C1.59998 370 2.19998 370 2.99998 370C4.59998 370 6.99998 370 10.1 370C16.3 370 25.4 369.9 36.8 369.9C59.7 369.8 92.2 369.7 130.6 369.6L130.4 369.7C132.7 366.8 135.2 363.6 137.8 360.3L137.9 360.2H138C154 360.1 171.3 359.9 189.3 359.8H189.6V360.1C189.3 362.8 188.5 365.4 187.3 367.9C186.1 370.4 184.6 372.8 182.7 375C181.5 376.4 180.1 377.7 178.8 378.9C177.5 380.1 176.2 381.5 175.1 382.9C174 384.3 173 385.8 172.2 387.4C171.4 389 170.8 390.7 170.7 392.4V392.7H170.5C97.4 392.6 35.7 392.6 5.09998 392.6H4.99998V392.5C3.59998 385.3 2.59998 379.7 1.89998 375.9C1.59998 374 1.29998 372.6 1.09998 371.7C0.699976 370.5 0.599976 370 0.599976 370C0.599976 370 0.699976 370.5 0.899976 371.5C1.09998 372.5 1.39998 373.9 1.69998 375.7C2.39998 379.4 3.49998 385 4.89998 392.2L4.79998 392.1C35.4 392.1 97.2 392 170.2 392L169.9 392.3C170 390.4 170.7 388.7 171.5 387.1C172.3 385.5 173.3 384 174.5 382.5C175.6 381.1 176.9 379.7 178.3 378.5C179.7 377.2 181 376 182.2 374.6C184.1 372.5 185.6 370.1 186.7 367.7C187.9 365.2 188.7 362.6 188.9 360.1L189.2 360.4C171.3 360.5 153.9 360.7 137.9 360.8L138.1 360.7C135.5 364 133 367.2 130.7 370.1L130.6 370.2H130.5C92.2 370.2 59.7 370.3 36.7 370.3C25.2 370.3 16.2 370.3 9.99998 370.3C6.89998 370.3 4.49998 370.3 2.89998 370.3C2.09998 370.3 1.49998 370.3 1.09998 370.3C0.799976 370 0.599976 370 0.599976 370Z" fill="#E0E0E0"/>
<path d="M4.89995 392.2L3.69995 385.7H172.7C172.7 385.7 170.5 389.3 170.4 392.2H4.89995Z" fill="#E0E0E0"/>
<path d="M611.6 185C611.1 185 610.6 184.6 610.6 184V125L563 183.3C562.7 183.7 562 183.8 561.6 183.4C561.2 183.1 561.1 182.4 561.5 182L610.8 121.5C611.1 121.2 611.5 121.1 611.9 121.2C612.3 121.3 612.6 121.7 612.6 122.1V183.9C612.6 184.6 612.1 185 611.6 185Z" fill="#E0E0E0"/>
<path d="M403.3 200.7C402.9 200.7 402.5 200.5 402.4 200.1C402.2 199.6 402.5 199 403 198.8L611.3 121.4C611.7 121.3 612.1 121.4 612.4 121.7L665.4 183.5C665.8 183.9 665.7 184.5 665.3 184.9C664.9 185.3 664.3 185.2 663.9 184.8L611.3 123.5L403.6 200.7C403.5 200.6 403.4 200.7 403.3 200.7Z" fill="#E0E0E0"/>
<path d="M377.5 195.6L391.5 203.8H722.2V195.6H377.5Z" fill="#E0E0E0"/>
<path d="M562.3 182.7H556.8V341.4H562.3V182.7Z" fill="#E0E0E0"/>
<path d="M619.6 182.7H614.1V341.4H619.6V182.7Z" fill="#E0E0E0"/>
<path d="M669 340.1H550.9V346.5H669V340.1Z" fill="#E0E0E0"/>
<path d="M619.9 272.2H559.5V278.6H619.9V272.2Z" fill="#E0E0E0"/>
<path d="M606.2 182.7H600.7V341.4H606.2V182.7Z" fill="#E0E0E0"/>
<path d="M664.6 184.1H659.1V342.8H664.6V184.1Z" fill="#E0E0E0"/>
<path d="M563.1 274.7C563 274.7 562.8 274.7 562.7 274.6C562.2 274.4 562 273.8 562.2 273.3L603.8 186C604 185.5 604.6 185.3 605.1 185.5C605.6 185.7 605.8 186.3 605.6 186.8L564 274.2C563.8 274.5 563.4 274.7 563.1 274.7Z" fill="#EBEBEB"/>
<path d="M618.5 273.1C618.4 273.1 618.2 273.1 618.1 273C617.6 272.8 617.4 272.2 617.7 271.7C619.4 268.3 658.3 189.5 658.8 188.4C659.1 187.9 659.6 187.7 660.1 188C660.6 188.3 660.8 188.8 660.5 189.3C660 190.3 619.8 271.7 619.4 272.5C619.3 272.9 618.9 273.1 618.5 273.1Z" fill="#EBEBEB"/>
<path d="M570.2 346.5H546.5V352.2H570.2V346.5Z" fill="#E0E0E0"/>
<path d="M614.4 345.7H590.7V351.4H614.4V345.7Z" fill="#E0E0E0"/>
<path d="M671 345.7H647.3V351.4H671V345.7Z" fill="#E0E0E0"/>
<path d="M675.5 351.3H538.5V356.5H675.5V351.3Z" fill="#E0E0E0"/>
<path d="M668.5 182.7H554.7V190.1H668.5V182.7Z" fill="#E0E0E0"/>
<path d="M663.9 272.2H604.7V278.6H663.9V272.2Z" fill="#E0E0E0"/>
<path d="M294.4 39.9C295.4 32.8 285.3 26.9 277.7 26.3C274.1 26 270.3 26.6 266.9 25.4C259.5 22.8 256.5 13.2 249.3 10.2C243.9 7.9 237.7 9.89999 232.4 12.6C227.2 15.2 222 18.6 216.1 18.9C211 19.2 205.5 17.3 201 19.8C197.7 21.7 195.9 25.5 192.9 27.7C189.9 29.9 186 30.4 182.3 30.6C178.6 30.8 174.7 30.8 171.4 32.4C168 33.9 165.2 37.5 165.9 41.2L294.4 39.9Z" fill="#EBEBEB"/>
<path d="M499.7 80.9C500.4 75.5 492.8 71 487 70.5C484.2 70.3 481.4 70.7 478.8 69.8C473.2 67.8 470.9 60.5 465.4 58.2C461.3 56.5 456.5 58 452.5 60C448.5 62 444.6 64.5 440.1 64.8C436.2 65 432 63.6 428.6 65.5C426.1 66.9 424.7 69.8 422.4 71.5C420.1 73.2 417.1 73.5 414.3 73.7C411.5 73.9 408.5 73.9 406 75.1C403.4 76.3 401.3 79 401.8 81.8L499.7 80.9Z" fill="#EBEBEB"/>
</svg>
