<svg width="54" height="79" viewBox="0 0 54 79" fill="none" xmlns="http://www.w3.org/2000/svg">
<path d="M13 40.2C13.1 40.1 11.9 40.2 11.1 40.3C9.99998 40.5 9.29998 41.3 8.59998 42.1C8.89998 42.2 9.2 42.1 9.5 42.1C10.9 42 11.9 41.9 13.3 42C13.5 41.5 13.5 40.7 13 40.2Z" fill="#FF725E"/>
<path d="M34 45.3C29.7 44.6 25.5 43.6 21.3 42.2C18.5 44.8 16.7 48.5 13.5 50.7C12.1 51.7 10.4 52.3 9.09998 53.5C7.29998 55.1 6.39998 57.4 5.59998 59.7C3.39998 65.9 1.59998 72.2 0.0999756 78.6L4.40002 72.9L4.29999 76.3L10.2 66.7L10.8 69.8C10.8 69.8 20.7 61 24.5 57.8C28.2 54.5 31.5 50.5 31.5 50.5L34 45.3Z" fill="#E0E0E0"/>
<path d="M22.3 38.7C22.3 38.7 24.5 36 26.3 31.4C28.1 26.8 28.6001 17.3 33.9001 13.4C39.2001 9.5 52.4001 0.199997 52.4001 0.199997L47.0001 8L53.7001 2.7C53.7001 2.7 51.8 7 48.1 10.3L53.5001 7.8C53.5001 7.8 52.8001 13.6 50.4001 14C50.1001 14.1 48.5001 16.2 48.5001 16.2L49.1 17.6C49.1 17.6 42.7001 31.2 41.0001 33.9C39.3001 36.6 35.0001 42 35.0001 42L22.3 38.7Z" fill="#E0E0E0"/>
<path d="M12.7999 40.6C12.8999 40.4 13.1 38 17 37.9C20.9 37.8 22.5999 38.3 22.5999 38.3C22.5999 38.3 33.6999 41.2 35.2999 42.1C36.8999 43 48.0999 40.3 48.0999 40.3C48.0999 40.3 53.2 49.2 46.5 55.1C39.7999 61 36.0999 58.8 36.0999 58.8C36.0999 58.8 35.5 51.8 32.7 50C32.7 50 27.7 49.9 25.4 48.8C23 47.7 18.6999 43.5 17.7999 43C16.8999 42.4 14.4 42.8 13.5 42.1C12.6 41.5 12.7999 40.6 12.7999 40.6Z" fill="#E0E0E0"/>
<path d="M16.2 40.1C16.2 40.5 15.8 40.9 15.4 40.9C15 40.9 14.6 40.5 14.6 40.1C14.6 39.7 15 39.3 15.4 39.3C15.8 39.3 16.2 39.6 16.2 40.1Z" fill="#263238"/>
<path d="M49 17.5L48.4 16.1C48.4 16.1 49.9 14 50.3 13.9C52.7 13.5 53.4 7.7 53.4 7.7L48 10.2C51.7 6.9 53.6 2.6 53.6 2.6L47 8L52.5 0.300003C52.5 0.300003 39.3 9.7 34 13.5L42.5 10.8L40.9 14.8L47.6 11.9C47.6 11.9 46.2 13.9 46.9 15.9C47.7 17.9 49 17.5 49 17.5Z" fill="#263238"/>
<path d="M10.8 69.8L10.2 66.7L4.29999 76.3L4.40002 72.9L0.0999756 78.6C1.49998 72.2 3.39998 65.9 5.59998 59.7L5.5 65.5L8.79999 63.1V67.3L11.7 64.6L10.8 69.8Z" fill="#263238"/>
<path d="M42.2 52.5C42.2 52.5 41.7999 52.2 40.9999 51.9C40.2999 51.6 39.1999 51.3 37.9999 50.7C35.6999 49.6 34.2 48.2 34.2 48.1C34.3 48 35.8999 49.3 38.0999 50.3C39.1999 50.8 40.2999 51.2 41.0999 51.6C41.8999 52.1 42.2 52.5 42.2 52.5Z" fill="#263238"/>
<path d="M43.7001 50C43.7001 50.1 41.7001 49.8 39.4001 48.9C37.1001 48 35.4 46.9 35.5 46.8C35.6 46.7 37.3 47.7 39.5 48.5C41.8 49.5 43.7001 49.9 43.7001 50Z" fill="#263238"/>
<path d="M33.2 49.7C33.2 49.7 33 49.8 32.6 50C32.2 50.1 31.6 50.3 30.9 50.5C30.2 50.6 29.2 50.8 28.2 50.6C27.2 50.5 26.1 50 25.2 49.4C23.2 48.2 21.6 46.9 20.5 45.8C20 45.3 19.5 44.8 19.3 44.5C19 44.2 18.9 44 18.9 44C18.9 44 19.6 44.6 20.7 45.6C21.8 46.6 23.4 47.9 25.4 49.1C26.4 49.7 27.3 50.2 28.3 50.3C29.3 50.5 30.1 50.4 30.9 50.3C32.3 49.9 33.2 49.6 33.2 49.7Z" fill="#263238"/>
<path d="M41.8 12.7C41.8 12.7 41.5 13 41 13.6C40.4 14.2 39.6 15 38.7 16C37.7 17 36.5 18.2 35.3 19.5C34.7 20.2 34.1 21 34 21.9C33.8 22.9 33.9 23.9 33.9 25C34 27.1 33.9 29.2 33.4 31C33 32.8 32.3 34.4 31.5 35.6C30.7 36.8 29.9 37.6 29.3 38.2C29 38.5 28.8 38.6 28.6 38.8C28.4 38.9 28.3 39 28.3 39C28.2 38.9 29.8 38 31.2 35.6C31.9 34.4 32.6 32.9 33 31.1C33.4 29.3 33.5 27.3 33.4 25.2C33.3 24.1 33.3 23.1 33.5 22C33.7 21 34.3 20.1 34.9 19.4C36.2 18.1 37.4 16.9 38.4 15.9C39.4 15 40.2 14.2 40.8 13.6C41.5 13 41.8 12.7 41.8 12.7Z" fill="#263238"/>
<path d="M48.1 19.2C48.1 19.2 47.9 19.4 47.6 19.6C47.3 19.8 46.8 20.1 46.2 20.5C45 21.2 43.2 22.1 41.2 22.7C39.2 23.4 37.2 23.7 35.8 23.8C35.1 23.9 34.5 23.9 34.1 23.9C33.7 23.9 33.5 23.9 33.5 23.9C33.5 23.8 34.4 23.8 35.7 23.6C37.1 23.4 39 23 41 22.4C43 21.7 44.8 20.9 46 20.3C47.3 19.6 48 19.2 48.1 19.2Z" fill="#263238"/>
<path d="M48.4 13.7C48.4 13.7 48.3 13.9 48.1 14.3C47.8 14.6 47.4 15.1 46.8 15.4C46.2 15.8 45.4 16.2 44.5 16.6C43.6 17 42.6 17.4 41.6 17.8C39.5 18.6 37.6 19.3 36.2 19.7C34.8 20.2 33.9 20.4 33.9 20.4C33.9 20.4 34.7 20 36.1 19.5C37.6 18.9 39.4 18.2 41.4 17.5C42.4 17.1 43.4 16.7 44.3 16.3C45.2 15.9 46 15.6 46.6 15.2C47.8 14.5 48.3 13.7 48.4 13.7Z" fill="#263238"/>
<path d="M43.4 26.2C43.4 26.2 43.1 26.7 42.2 27.1C41.3 27.5 40.1 27.7 38.8 28C37.4 28.3 36.2 28.6 35.3 28.6C34.4 28.6 33.8 28.3 33.9 28.2C33.9 28.1 34.5 28.4 35.3 28.3C36.2 28.3 37.4 27.9 38.7 27.6C40 27.3 41.3 27.1 42.1 26.8C42.9 26.5 43.3 26.2 43.4 26.2Z" fill="#263238"/>
<path d="M7.40002 64.6C7.40002 64.6 7.40001 64.3 7.70001 63.7C7.90001 63.1 8.30002 62.3 8.90002 61.5C9.50002 60.6 10.4 59.6 11.5 58.8C12.6 57.9 14.1 57.3 15.6 56.6C17.1 55.9 18.5 55.3 19.6 54.5C20.7 53.7 21.6 52.8 22.3 52C23.7 50.4 24.2 49.2 24.3 49.2C24.3 49.2 24.2 49.5 23.9 50C23.6 50.5 23.2 51.3 22.5 52.1C21.8 52.9 20.9 53.9 19.8 54.7C18.7 55.6 17.2 56.3 15.8 56.9C14.3 57.6 12.9 58.2 11.8 59C10.7 59.8 9.80001 60.7 9.20001 61.6C7.90001 63.3 7.50002 64.6 7.40002 64.6Z" fill="#263238"/>
<path d="M13.3 66.2C13.2 66.2 13.8001 64.5 13.9001 62.3C14.0001 60.1 13.5 58.4 13.6 58.3C13.7 58.3 14.3 60 14.3 62.3C14.2 64.5 13.4 66.2 13.3 66.2Z" fill="#263238"/>
<path d="M17.8999 62.4C17.7999 62.4 17.8999 61.1 17.6999 59.5C17.5999 57.9 17.3999 56.6 17.4999 56.6C17.5999 56.6 17.9999 57.8 18.0999 59.5C18.1999 61.2 17.9999 62.5 17.8999 62.4Z" fill="#263238"/>
<path d="M21.6999 59.4C21.5999 59.4 21.4999 58.1 21.1999 56.5C20.8999 54.9 20.4999 53.7 20.5999 53.6C20.6999 53.6 21.1999 54.8 21.5999 56.4C21.7999 58.1 21.7999 59.4 21.6999 59.4Z" fill="#263238"/>
<path d="M25.9001 53C25.8001 53.1 25.3 52.8 24.8 52.3C24.3 51.8 23.9 51.4 24 51.3C24.1 51.2 24.6 51.5 25.1 52C25.6 52.5 26.0001 53 25.9001 53Z" fill="#263238"/>
<path d="M36 39.8C35.9 39.9 34.8 39.1 33.4 38.1C32 37.1 31 36.2 31 36.1C31.1 36 32.2 36.8 33.6 37.8C35 38.8 36.1 39.7 36 39.8Z" fill="#263238"/>
<path d="M40.9001 33.4C40.9001 33.5 39.1001 34.3 36.7001 34.4C35.5001 34.4 34.4 34.3 33.6 34.3C32.8 34.2 32.3 34.2 32.3 34.2C32.3 34.2 32.8 34.1 33.6 34C34.4 34 35.5001 34.1 36.7001 34C39.1001 34 40.9001 33.3 40.9001 33.4Z" fill="#263238"/>
</svg>
