<svg width="62" height="49" viewBox="0 0 62 49" fill="none" xmlns="http://www.w3.org/2000/svg">
<path d="M40.4 48.7C40.4 48.7 39.8 48.6 39 48.4C38.1 48.2 36.9 47.8 35.6 47.3C34.3 46.8 33.1 46.4 32.3 46C31.5 45.6 31 45.4 31 45.3C31 45.3 31.6 45.4 32.4 45.7C33.4 46 34.5 46.4 35.7 46.9C36.9 47.3 38.1 47.7 39 48C39.9 48.4 40.4 48.6 40.4 48.7Z" fill="#263238"/>
<path d="M41.6 47.4C41.6 47.4 41 47.3 40.2 47.1C39.3 46.9 38.1 46.5 36.8 46C35.5 45.5 34.3 45.1 33.5 44.7C32.7 44.3 32.2 44.1 32.2 44C32.2 44 32.8 44.1 33.6 44.4C34.6 44.7 35.7 45.1 36.9 45.6C38.1 46 39.3 46.4 40.2 46.7C41 47.2 41.6 47.4 41.6 47.4Z" fill="#263238"/>
<path d="M4.5 35.8C4.5 35.8 6.7 33.5 8.4 33.2C10.2 32.9 24.6 35.3 24.6 35.3L47.9 44.1C47.9 44.1 46.4 46.4 42.6 45.7C38.8 45 34.5 43.7 34.5 43.7C34.5 43.7 31.2 45.9 26.8 45.8C22.4 45.8 17 44.7 13.7 41.3C10.4 37.9 6.6 40.1 5.8 37.2C5.6 35.9 4.5 35.8 4.5 35.8Z" fill="#E0E0E0"/>
<path d="M61.6 10.1C60.1 12.1 58.5 14.1 56.7 15.9C56.2 16.4 55.5 17 54.8 17C57.2 14 59 10.5 60 6.89999C59.3 7.99999 58.5 9.09999 57.6 10.2C57 11 56.3 11.8 55.6 12.5C53.7 14.4 51.4 15.8 49.2 17.2C47.5 18.3 45.8 19.5 43.9 20.3C40.1 21.9 39.9 21.7 35.8 23C34.5 23.4 32.2 23.9 31.2 24.8C30.7 25.2 30.3 25.8 29.9 26.3C26.7 30.7 22.5 34.3 17.7 36.7L25.2 40.4C28.5 40.9 31.9 39.9 34.7 38.1C37.5 36.2 39.6 33.6 41.3 30.7C41.7 30 42.1 29.3 42.8 28.8C43.4 28.4 44 28.3 44.7 28.1C45.8 27.8 46.8 27.2 47.6 26.3C46.9 26.6 46 26.6 45.3 26.4C47.7 25.5 50 24.5 52.3 23.3C54.4 22.2 56.5 20.9 57.8 19C56.9 19.7 55.8 20.2 54.7 20.4C58 17.7 60.4 14.1 61.6 10.1Z" fill="#E0E0E0"/>
<path d="M8.40002 35.1C8.30002 35 8.10002 35 7.90002 35.1C7.80002 35.2 7.70001 35.4 7.70001 35.5C7.70001 35.8 7.90001 36.2 8.20001 36.3C8.50001 36.4 8.90001 36.3 9.10001 36C9.30001 35.7 9.20002 35.3 8.90002 35.1C8.70002 35 8.50002 34.9 8.30002 34.9" fill="#263238"/>
<path d="M5.2 35.2C5.2 35.2 3.1 35 2 36C0.900001 37 0.499998 38 0.699998 38.1C0.699998 38.1 1.2 37.5 2.9 37.4C4.6 37.3 6.3 37.4 6.3 37.4L5.2 35.2Z" fill="#FF725E"/>
<path d="M22.5 32.7C20.5 29.6 18.4 26.4 16.4 23.3C15.7 22.2 15 21.1 14.5 19.9C13.6 17.4 13.9 14.5 13 12C12.7 12.6 12.4 13.1 12 13.7C12 12 11.8 10.3 11.3 8.7C10.9 9.4 10.6 10 10.2 10.7C10.3 8.4 9.99998 6 9.19998 3.9C8.29998 4.5 7.69999 5.5 7.39999 6.5C7.19999 4.4 6.89999 2.3 6.39999 0.300003C3.09999 4.7 2.39999 10.4 2.29999 15.8C2.29999 16.9 2.29998 17.9 2.49998 19C2.79998 20.1 3.39998 21.2 4.09998 22.1C6.89998 26.3 10.6 30 12.4 34.8L24.5 37.5C24 37 22.7 33 22.5 32.7Z" fill="#E0E0E0"/>
<path d="M41.3 30.6C41.7 29.9 42.1 29.2 42.8 28.7C43.4 28.3 44 28.2 44.7 28C45.8 27.7 46.8 27.1 47.6 26.2C46.9 26.5 46 26.5 45.3 26.3C47.7 25.4 50 24.4 52.3 23.2C54.4 22.1 56.5 20.8 57.8 18.9C56.9 19.6 55.8 20.1 54.7 20.3C57.9 17.7 60.4 14.1 61.6 10.1C60.1 12.1 58.5 14.1 56.7 15.9C56.2 16.4 55.5 17 54.8 17C57.2 14 59 10.5 60 6.89999C59.3 7.99999 58.5 9.09999 57.6 10.2C57 11 56.3 11.8 55.6 12.5C53.7 14.4 51.4 15.8 49.2 17.2C47.5 18.3 45.7 19.3 43.9 20.3L51.8 18.9L47.1 22.3L51.5 21.6C51.5 21.6 43.7 25.2 41.9 27.6C40.1 30 40.5 32.1 40.5 32.1L41.3 30.6Z" fill="#263238"/>
<path d="M14.5 19.9C13.6 17.4 13.9 14.5 13 12C12.7 12.6 12.4 13.1 12 13.7C12 12 11.8 10.3 11.3 8.7C10.9 9.4 10.6 10 10.2 10.7C10.3 8.4 9.99998 6 9.19998 3.9C8.29998 4.5 7.69999 5.5 7.39999 6.5C7.19999 4.4 6.89999 2.3 6.39999 0.300003C3.09999 4.7 2.39999 10.4 2.29999 15.8C2.29999 16.9 2.29998 17.9 2.49998 19L3.99998 14.9C3.99998 14.9 5.69998 9.5 6.59998 12C7.49998 14.6 9.49998 18.9 9.49998 18.9L9.89999 15C9.89999 15 11.1 18.8 12.3 19.6C13.6 20.2 14.5 19.9 14.5 19.9Z" fill="#263238"/>
<path d="M30.7 25.2C30.8 25.1 30.8 25.2 30.7 25.2C30.7 25.3 30.6 25.3 30.6 25.4C30.5 25.6 30.3 25.8 30 26.1C29.5 26.7 28.8 27.5 27.9 28.6C27 29.6 25.9 30.8 24.6 32.1C24 32.7 23.3 33.4 22.5 34.1C22.1 34.4 21.7 34.7 21.2 35C20.9 35.1 20.6 35 20.4 35C20.1 35 19.9 35 19.6 34.9C15.4 34.4 11.7 33.7 9.00002 33.3C8.30002 33.2 7.80002 33.4 7.30002 33.7C6.80002 34 6.40001 34.2 6.10001 34.5C5.50001 35 5.20001 35.3 5.20001 35.2C5.20001 35.2 5.30002 35.1 5.40002 35C5.50002 34.9 5.80001 34.6 6.10001 34.4C6.40001 34.2 6.80002 33.9 7.30002 33.6C7.80002 33.3 8.40001 33.1 9.10001 33.2C11.8 33.5 15.6 34.2 19.7 34.7C20 34.7 20.2 34.8 20.5 34.8C20.7 34.8 21 34.8 21.2 34.8C21.6 34.6 22 34.3 22.4 34C23.2 33.4 23.8 32.7 24.5 32.1C25.8 30.8 26.9 29.6 27.9 28.6C28.8 27.6 29.5 26.8 30.1 26.2C30.3 25.9 30.5 25.7 30.7 25.5C30.6 25.3 30.7 25.2 30.7 25.2C30.7 25.2 30.8 25.1 30.7 25.2C30.8 25.2 30.7 25.2 30.7 25.2Z" fill="#263238"/>
<path d="M47.1 21.8C47.1 21.8 47.1 21.9 46.9 22C46.8 22.1 46.6 22.3 46.3 22.5C45.8 22.9 45 23.5 43.9 24C42.8 24.5 41.4 24.9 39.9 25.3C39.1 25.5 38.3 25.7 37.5 26C36.7 26.3 36 26.8 35.3 27.4C33.9 28.6 33 30 32 31.3C31 32.6 30 33.6 29.1 34.4C28.2 35.2 27.3 35.7 26.8 36C26.5 36.2 26.3 36.3 26.1 36.4C25.9 36.5 25.9 36.5 25.8 36.5C25.8 36.5 26.1 36.3 26.7 35.9C27.3 35.5 28.1 35 29 34.2C29.9 33.4 30.9 32.4 31.8 31.1C32.8 29.9 33.7 28.4 35.2 27.2C35.9 26.6 36.7 26.1 37.5 25.8C38.3 25.5 39.1 25.3 39.9 25.1C41.4 24.7 42.8 24.3 43.9 23.8C45 23.3 45.8 22.8 46.3 22.4C46.9 22.1 47.1 21.8 47.1 21.8Z" fill="#263238"/>
<path d="M24.1 42.9C24.1 43 23.4 43.1 22.6 42.7C21.8 42.3 21.4 41.7 21.5 41.7C21.6 41.6 22.1 42.1 22.8 42.4C23.4 42.8 24.1 42.8 24.1 42.9Z" fill="#263238"/>
<path d="M27.4 43.3C27.4 43.4 26.2 43.6 24.8 43.1C23.4 42.6 22.6 41.7 22.7 41.7C22.8 41.6 23.6 42.4 24.9 42.8C26.2 43.3 27.4 43.2 27.4 43.3Z" fill="#263238"/>
</svg>
