<svg width="65" height="62" viewBox="0 0 65 62" fill="none" xmlns="http://www.w3.org/2000/svg">
<path d="M45.1629 43.2124L48.3262 41.7144L38.1398 20.2039L34.9765 21.7019L45.1629 43.2124Z" fill="#455A64"/>
<path d="M38.2 20.1C38.3 20.1 40.1 23.7 42.2 28.2C44.4 32.7 46 36.4 45.9 36.4C45.8 36.4 44 32.8 41.9 28.3C39.7 23.8 38.1 20.1 38.2 20.1Z" fill="#263238"/>
<path d="M37.1 25.9C37.2 25.9 39 29.5 41.1 34C43.2 38.5 44.9 42.2 44.8 42.2C44.7 42.2 42.9 38.6 40.8 34.1C38.7 29.7 37 26 37.1 25.9Z" fill="#263238"/>
<path d="M50.6784 24.7143L48.2274 22.216L31.2389 38.8832L33.69 41.3815L50.6784 24.7143Z" fill="#455A64"/>
<path d="M48.3 22.1C48.4 22.2 45.5 25 42 28.5C38.4 32 35.5 34.7 35.4 34.7C35.3 34.6 38.2 31.8 41.7 28.3C45.3 24.8 48.2 22.1 48.3 22.1Z" fill="#263238"/>
<path d="M47.2 28C47.3 28.1 44.5 30.9 40.9 34.4C37.4 37.9 34.4 40.7 34.4 40.6C34.3 40.5 37.1 37.7 40.7 34.2C44.2 30.7 47.2 27.9 47.2 28Z" fill="#263238"/>
<path d="M47.9 18.7L39.7 17.2C38.1 16.9 37.1 15.4 37.4 13.9L38.9 5.5C39.4 2.5 42.3 0.500003 45.3 1L48.3 1.5C51.3 2 53.3 4.9 52.8 7.9L51.3 16.3C51 18 49.5 19 47.9 18.7Z" fill="#455A64"/>
<path d="M52.1219 11.6548L38.3389 9.19919L37.8829 11.7589L51.6659 14.2145L52.1219 11.6548Z" fill="white"/>
<path d="M52.9156 6.84311L39.1326 4.38751L38.6765 6.94722L52.4595 9.40282L52.9156 6.84311Z" fill="white"/>
<path d="M48.9 18.9C48.9 18.9 49.1 18.9 49.5 18.9C49.9 18.8 50.4 18.6 50.8 18C51 17.7 51 17.3 51.1 16.9C51.2 16.5 51.3 16 51.3 15.5C51.5 14.5 51.7 13.3 51.9 12.1C52.1 10.8 52.4 9.39999 52.6 7.89999C52.7 7.49999 52.7 7.09999 52.8 6.79999C52.9 6.39999 53 6.00001 52.9 5.60001C52.9 4.80001 52.6 3.99999 52.1 3.39999C51.1 1.99999 49.1 2.10001 47.3 1.70001C46.4 1.50001 45.5 1.40001 44.5 1.20001C44 1.10001 43.5 1 43.1 1C42.6 1 42.2 1.00001 41.7 1.10001C40.8 1.40001 40 1.99999 39.6 2.89999C39.4 3.29999 39.3 3.70001 39.2 4.20001C39.1 4.70001 39 5.10001 39 5.60001C38.7 7.40001 38.4 9.19999 38.1 10.9C37.9 11.7 37.8 12.6 37.7 13.4C37.6 13.8 37.6 14.2 37.5 14.6C37.4 15 37.3 15.4 37.4 15.7C37.5 16.4 38.1 17 38.7 17.1C39.4 17.2 40 17.4 40.7 17.5C43.2 18 45.3 18.4 46.7 18.6C47.4 18.7 47.9 18.8 48.3 18.9C48.7 18.9 48.9 18.9 48.9 18.9C48.9 18.9 48.7 18.9 48.3 18.8C47.9 18.7 47.3 18.6 46.7 18.5C45.2 18.3 43.2 17.9 40.7 17.5C40.1 17.4 39.4 17.3 38.7 17.1C38 16.9 37.3 16.3 37.2 15.5C37.1 15.1 37.2 14.7 37.3 14.3C37.4 13.9 37.4 13.5 37.5 13.1C37.6 12.3 37.8 11.5 37.9 10.6C38.2 8.90001 38.5 7.19999 38.8 5.29999C38.9 4.79999 39 4.39999 39 3.89999C39.1 3.39999 39.2 2.9 39.4 2.5C39.8 1.6 40.7 0.900006 41.7 0.600006C42.2 0.400006 42.7 0.399994 43.2 0.399994C43.7 0.499994 44.2 0.600006 44.6 0.600006C45.5 0.800006 46.5 0.900006 47.4 1.10001C48.3 1.30001 49.2 1.40001 50.1 1.60001C51 1.80001 51.9 2.3 52.4 3C53 3.7 53.2 4.59999 53.2 5.39999C53.2 5.79999 53.1 6.20001 53 6.60001C52.9 7.00001 52.9 7.40001 52.8 7.70001C52.5 9.20001 52.3 10.6 52 11.9C51.8 13.2 51.6 14.3 51.4 15.3C51.3 15.8 51.2 16.3 51.1 16.7C51 17.1 51 17.6 50.7 17.9C50.3 18.5 49.7 18.7 49.3 18.8C49.1 19 48.9 18.9 48.9 18.9Z" fill="#263238"/>
<path d="M52.3286 19.605L48.8828 18.9911L44.5329 43.4067L47.9786 44.0206L52.3286 19.605Z" fill="#455A64"/>
<path d="M38.5464 17.7017L35.1006 17.0878L30.7507 41.5034L34.1965 42.1173L38.5464 17.7017Z" fill="#455A64"/>
<path d="M54.3 22.6L32.4 18.7C31.3 18.5 30.5 17.4 30.7 16.3L30.8 16C31 14.9 32.1 14.1 33.2 14.3L55.1 18.2C56.2 18.4 57 19.5 56.8 20.6L56.7 20.9C56.5 22.1 55.5 22.8 54.3 22.6Z" fill="#455A64"/>
<path d="M54.6 22.7C54.6 22.8 49.6 22 43.4 20.9C37.2 19.8 32.2 18.8 32.3 18.7C32.3 18.6 37.3 19.4 43.5 20.5C49.6 21.6 54.6 22.6 54.6 22.7Z" fill="#263238"/>
<path d="M55.4 18.3C55.4 18.4 50.4 17.6 44.2 16.5C38 15.4 33 14.4 33.1 14.3C33.1 14.2 38.1 15 44.3 16.1C50.4 17.3 55.4 18.2 55.4 18.3Z" fill="#263238"/>
<path d="M34.2 42.1C34.1 42.1 34.9 37.1 36 31C37.1 24.9 38.1 19.9 38.1 19.9C38.2 19.9 37.4 24.9 36.3 31C35.2 37.1 34.3 42.1 34.2 42.1Z" fill="#263238"/>
<path d="M44.5 43.9C44.4 43.9 45.2 38.9 46.3 32.8C47.4 26.7 48.4 21.7 48.4 21.7C48.5 21.7 47.7 26.7 46.6 32.8C45.5 38.9 44.6 43.9 44.5 43.9Z" fill="#263238"/>
<path d="M53.2 44.3L26 39.4C24.2 39.1 22.5 40.3 22.2 42.1L18.9 60.9L53.7 60.8L56 48.1C56.1 46.3 54.9 44.6 53.2 44.3Z" fill="#455A64"/>
<path d="M53.6 60.8H18.8L21.1 47.7L54.8 53.7L53.6 60.8Z" fill="#263238"/>
<path d="M52.5 44.3C52.5 44.4 46.7 43.4 39.6 42.2C32.5 40.9 26.7 39.8 26.8 39.7C26.8 39.6 32.6 40.6 39.7 41.8C46.8 43.1 52.6 44.2 52.5 44.3Z" fill="#263238"/>
<path d="M0 61.5C3 57.5 8.8 55.9 13.5 57.7C15.5 58.5 17.4 59.8 19.5 59.7C21.7 59.6 23.6 58 25.7 57.3C28.2 56.5 30.9 57.2 33.4 57.7C41 59.4 55.5 61.2 65 61.5" fill="white"/>
<path d="M65 61.5C65 61.5 64.9 61.5 64.8 61.5C64.7 61.5 64.5 61.5 64.3 61.5C63.8 61.5 63.2 61.5 62.3 61.4C60.6 61.3 58.1 61.2 55.1 60.9C52 60.6 48.4 60.3 44.4 59.7C40.4 59.2 36 58.4 31.4 57.4C30.3 57.2 29.1 57 28 57C26.9 57 25.8 57.3 24.8 57.7C23.8 58.1 22.9 58.7 21.9 59.1C20.9 59.5 19.8 59.8 18.8 59.7C17.8 59.6 16.8 59.2 15.9 58.8C15 58.4 14.2 58 13.4 57.7C11.7 57.1 9.99998 56.9 8.49998 57C5.39998 57.2 3.19998 58.5 1.89998 59.5C1.19998 60 0.799977 60.5 0.499977 60.8C0.399977 61 0.199974 61.1 0.199974 61.2C0.0999741 61.3 0.0999756 61.3 0.0999756 61.3C0.0999756 61.3 0.0999741 61.2 0.199974 61.2C0.299974 61.1 0.399977 61 0.499977 60.8C0.799977 60.4 1.19998 60 1.89998 59.4C3.19998 58.3 5.49998 57 8.59998 56.7C10.1 56.6 11.9 56.7 13.6 57.3C15.3 57.9 16.9 59.1 18.9 59.3C19.9 59.4 20.9 59.2 21.8 58.7C22.8 58.3 23.7 57.7 24.7 57.3C25.7 56.8 26.9 56.6 28 56.6C29.2 56.6 30.3 56.7 31.5 57C36.1 58.1 40.4 58.8 44.5 59.3C48.5 59.9 52.1 60.3 55.2 60.6C58.2 60.9 60.7 61.1 62.4 61.2C63.2 61.2 63.9 61.3 64.4 61.3C64.6 61.3 64.8 61.3 64.9 61.3C65 61.5 65 61.5 65 61.5Z" fill="#263238"/>
<path d="M13 51.8C13.9941 51.8 14.8 50.9941 14.8 50C14.8 49.0059 13.9941 48.2 13 48.2C12.0058 48.2 11.2 49.0059 11.2 50C11.2 50.9941 12.0058 51.8 13 51.8Z" fill="#FAFAFA"/>
<path d="M14.8 50C14.8 50 14.8 49.8 14.7 49.6C14.6 49.3 14.4 49 14 48.7C13.6 48.4 13 48.3 12.4 48.5C11.8 48.7 11.3 49.3 11.3 50C11.3 50.7 11.8 51.3 12.4 51.5C13 51.7 13.6 51.6 14 51.3C14.4 51 14.6 50.6 14.7 50.4C14.8 50.1 14.8 50 14.8 50C14.8 50 14.9 50.2 14.8 50.5C14.8 50.8 14.6 51.2 14.2 51.6C13.8 51.9 13.1 52.2 12.4 51.9C11.7 51.7 11.1 50.9 11.1 50.1C11.1 49.2 11.7 48.5 12.4 48.3C13.1 48 13.8 48.3 14.2 48.6C14.6 48.9 14.8 49.4 14.8 49.7C14.9 49.8 14.9 50 14.8 50Z" fill="#263238"/>
</svg>
