<svg width="464" height="273" viewBox="0 0 464 273" fill="none" xmlns="http://www.w3.org/2000/svg">
<path d="M371.3 214.5H295.9V236.4H371.3V214.5Z" fill="#FF725E"/>
<g opacity="0.3">
<path opacity="0.3" d="M371.4 214.5H344.4V236.4H371.4V214.5Z" fill="black"/>
</g>
<path d="M343.3 235.5C343.3 235.5 343.3 235.4 343.3 235.1C343.3 234.8 343.3 234.5 343.3 234.1C343.3 233.2 343.3 231.8 343.3 230.1C343.3 226.7 343.2 221.8 343.2 215.7L343.4 215.9C331.4 215.9 315 215.9 296.8 216C296.6 216.2 297.1 215.7 297.1 215.7V215.8V216V216.3V216.9V218.2C297.1 219.1 297.1 219.9 297.1 220.8C297.1 222.5 297.1 224.2 297.1 225.8C297.1 229.1 297.1 232.3 297.1 235.4L296.9 235.2C310.4 235.2 322 235.3 330.2 235.3C334.3 235.3 337.6 235.4 339.9 235.4C341 235.4 341.9 235.4 342.5 235.4C342.8 235.4 343 235.4 343.2 235.4C343.2 235.5 343.3 235.5 343.3 235.5C343.3 235.5 343.2 235.5 343.1 235.5C342.9 235.5 342.7 235.5 342.4 235.5C341.8 235.5 340.9 235.5 339.8 235.5C337.5 235.5 334.3 235.5 330.2 235.6C321.9 235.6 310.2 235.7 296.7 235.7H296.5V235.5C296.5 232.4 296.5 229.2 296.5 225.9C296.5 224.2 296.5 222.6 296.5 220.9C296.5 220.1 296.5 219.2 296.5 218.3V217V216.4V216V215.8V215.7C296.4 215.8 297 215.2 296.8 215.4C314.9 215.4 331.4 215.5 343.4 215.5H343.6V215.7C343.6 221.8 343.5 226.8 343.5 230.2C343.5 231.9 343.5 233.2 343.5 234.1C343.5 234.5 343.5 234.9 343.5 235.1C343.3 235.4 343.3 235.5 343.3 235.5Z" fill="#263238"/>
<path d="M370 235.5C370 235.5 370 235.4 370 235.1C370 234.8 370 234.5 370 234C370 233 370 231.7 369.9 230C369.9 226.5 369.8 221.6 369.8 215.7L370 215.9C363 215.9 354.5 215.9 345.5 215.9C345.4 216 346 215.4 345.8 215.6V215.7V215.9V216.2V216.9C345.8 217.3 345.8 217.8 345.8 218.2C345.8 219.1 345.8 220 345.8 220.8C345.8 222.5 345.8 224.2 345.8 225.9C345.8 229.2 345.8 232.4 345.8 235.3L345.6 235.1C352.8 235.1 358.9 235.2 363.3 235.2C365.4 235.2 367.1 235.2 368.3 235.3C368.9 235.3 369.3 235.3 369.6 235.3C369.9 235.5 370 235.5 370 235.5C370 235.5 369.9 235.5 369.6 235.5C369.3 235.5 368.8 235.5 368.3 235.5C367.1 235.5 365.4 235.5 363.3 235.6C358.9 235.6 352.8 235.7 345.5 235.7H345.3V235.5C345.3 232.6 345.3 229.4 345.3 226.1C345.3 224.4 345.3 222.7 345.3 221C345.3 220.1 345.3 219.3 345.3 218.4C345.3 218 345.3 217.5 345.3 217.1V216.4V216V215.8V215.7C345.1 215.9 345.6 215.4 345.6 215.4C354.7 215.4 363.1 215.4 370.1 215.4H370.3V215.6C370.3 221.6 370.2 226.5 370.2 230C370.2 231.7 370.2 233 370.1 234C370.1 234.4 370.1 234.8 370.1 235C370 235.4 370 235.5 370 235.5Z" fill="#263238"/>
<path d="M298.5 235.3C298.4 235.3 298.2 230.9 298.2 225.5C298.2 220.1 298.3 215.7 298.5 215.7C298.6 215.7 298.8 220.1 298.8 225.5C298.8 230.9 298.7 235.3 298.5 235.3Z" fill="#263238"/>
<path d="M300.7 235.3C300.6 235.3 300.4 230.9 300.4 225.5C300.4 220.1 300.5 215.7 300.7 215.7C300.8 215.7 301 220.1 301 225.5C300.9 230.9 300.8 235.3 300.7 235.3Z" fill="#263238"/>
<path d="M302.8 235.3C302.7 235.3 302.5 230.9 302.5 225.5C302.5 220.1 302.6 215.7 302.8 215.7C302.9 215.7 303.1 220.1 303.1 225.5C303.1 230.9 303 235.3 302.8 235.3Z" fill="#263238"/>
<path d="M305 235.3C304.9 235.3 304.7 230.9 304.7 225.5C304.7 220.1 304.8 215.7 305 215.7C305.2 215.7 305.3 220.1 305.3 225.5C305.2 230.9 305.1 235.3 305 235.3Z" fill="#263238"/>
<path d="M307.1 235.3C307 235.3 306.8 230.9 306.8 225.5C306.8 220.1 306.9 215.7 307.1 215.7C307.3 215.7 307.4 220.1 307.4 225.5C307.4 230.9 307.3 235.3 307.1 235.3Z" fill="#263238"/>
<path d="M309.3 235.3C309.2 235.3 309 230.9 309 225.5C309 220.1 309.1 215.7 309.3 215.7C309.4 215.7 309.6 220.1 309.6 225.5C309.5 230.9 309.4 235.3 309.3 235.3Z" fill="#263238"/>
<path d="M311.4 235.3C311.3 235.3 311.1 230.9 311.1 225.5C311.1 220.1 311.2 215.7 311.4 215.7C311.6 215.7 311.7 220.1 311.7 225.5C311.7 230.9 311.6 235.3 311.4 235.3Z" fill="#263238"/>
<path d="M313.6 235.3C313.5 235.3 313.3 230.9 313.3 225.5C313.3 220.1 313.4 215.7 313.6 215.7C313.8 215.7 313.9 220.1 313.9 225.5C313.8 230.9 313.7 235.3 313.6 235.3Z" fill="#263238"/>
<path d="M315.7 235.3C315.6 235.3 315.4 230.9 315.4 225.5C315.4 220.1 315.5 215.7 315.7 215.7C315.9 215.7 316 220.1 316 225.5C316 230.9 315.9 235.3 315.7 235.3Z" fill="#263238"/>
<path d="M317.9 235.3C317.8 235.3 317.6 230.9 317.6 225.5C317.6 220.1 317.7 215.7 317.9 215.7C318.1 215.7 318.2 220.1 318.2 225.5C318.1 230.9 318 235.3 317.9 235.3Z" fill="#263238"/>
<path d="M320 235.3C319.9 235.3 319.7 230.9 319.7 225.5C319.7 220.1 319.8 215.7 320 215.7C320.2 215.7 320.3 220.1 320.3 225.5C320.3 230.9 320.2 235.3 320 235.3Z" fill="#263238"/>
<path d="M322.2 235.3C322.1 235.3 321.9 230.9 321.9 225.5C321.9 220.1 322 215.7 322.2 215.7C322.3 215.7 322.5 220.1 322.5 225.5C322.4 230.9 322.3 235.3 322.2 235.3Z" fill="#263238"/>
<path d="M324.3 235.3C324.2 235.3 324 230.9 324 225.5C324 220.1 324.1 215.7 324.3 215.7C324.4 215.7 324.6 220.1 324.6 225.5C324.6 230.9 324.5 235.3 324.3 235.3Z" fill="#263238"/>
<path d="M326.5 235.3C326.4 235.3 326.2 230.9 326.2 225.5C326.2 220.1 326.3 215.7 326.5 215.7C326.6 215.7 326.8 220.1 326.8 225.5C326.7 230.9 326.6 235.3 326.5 235.3Z" fill="#263238"/>
<path d="M328.6 235.3C328.5 235.3 328.3 230.9 328.3 225.5C328.3 220.1 328.4 215.7 328.6 215.7C328.7 215.7 328.9 220.1 328.9 225.5C328.9 230.9 328.8 235.3 328.6 235.3Z" fill="#263238"/>
<path d="M330.8 235.3C330.7 235.3 330.5 230.9 330.5 225.5C330.5 220.1 330.6 215.7 330.8 215.7C330.9 215.7 331.1 220.1 331.1 225.5C331 230.9 330.9 235.3 330.8 235.3Z" fill="#263238"/>
<path d="M332.9 235.3C332.8 235.3 332.6 230.9 332.6 225.5C332.6 220.1 332.7 215.7 332.9 215.7C333.1 215.7 333.2 220.1 333.2 225.5C333.2 230.9 333.1 235.3 332.9 235.3Z" fill="#263238"/>
<path d="M335.1 235.3C335 235.3 334.8 230.9 334.8 225.5C334.8 220.1 334.9 215.7 335.1 215.7C335.3 215.7 335.4 220.1 335.4 225.5C335.3 230.9 335.2 235.3 335.1 235.3Z" fill="#263238"/>
<path d="M337.2 235.3C337.1 235.3 336.9 230.9 336.9 225.5C336.9 220.1 337 215.7 337.2 215.7C337.4 215.7 337.5 220.1 337.5 225.5C337.5 230.9 337.4 235.3 337.2 235.3Z" fill="#263238"/>
<path d="M339.4 235.3C339.3 235.3 339.1 230.9 339.1 225.5C339.1 220.1 339.2 215.7 339.4 215.7C339.6 215.7 339.7 220.1 339.7 225.5C339.6 230.9 339.5 235.3 339.4 235.3Z" fill="#263238"/>
<path d="M341.5 235.3C341.4 235.3 341.2 230.9 341.2 225.5C341.2 220.1 341.3 215.7 341.5 215.7C341.7 215.7 341.8 220.1 341.8 225.5C341.8 230.9 341.7 235.3 341.5 235.3Z" fill="#263238"/>
<path d="M347.5 235.3C347.4 235.3 347.2 230.9 347.2 225.5C347.2 220.1 347.3 215.7 347.5 215.7C347.7 215.7 347.8 220.1 347.8 225.5C347.8 230.9 347.6 235.3 347.5 235.3Z" fill="#263238"/>
<path d="M349.7 235.3C349.6 235.3 349.4 230.9 349.4 225.5C349.4 220.1 349.5 215.7 349.7 215.7C349.8 215.7 350 220.1 350 225.5C350 230.9 349.9 235.3 349.7 235.3Z" fill="#263238"/>
<path d="M351.9 235.3C351.8 235.3 351.6 230.9 351.6 225.5C351.6 220.1 351.7 215.7 351.9 215.7C352.1 215.7 352.2 220.1 352.2 225.5C352.2 230.9 352.1 235.3 351.9 235.3Z" fill="#263238"/>
<path d="M354.1 235.3C354 235.3 353.8 230.9 353.8 225.5C353.8 220.1 353.9 215.7 354.1 215.7C354.3 215.7 354.4 220.1 354.4 225.5C354.4 230.9 354.3 235.3 354.1 235.3Z" fill="#263238"/>
<path d="M356.4 235.3C356.3 235.3 356.1 230.9 356.1 225.5C356.1 220.1 356.2 215.7 356.4 215.7C356.5 215.7 356.7 220.1 356.7 225.5C356.6 230.9 356.5 235.3 356.4 235.3Z" fill="#263238"/>
<path d="M358.6 235.3C358.5 235.3 358.3 230.9 358.3 225.5C358.3 220.1 358.4 215.7 358.6 215.7C358.8 215.7 358.9 220.1 358.9 225.5C358.8 230.9 358.7 235.3 358.6 235.3Z" fill="#263238"/>
<path d="M360.8 235.3C360.7 235.3 360.5 230.9 360.5 225.5C360.5 220.1 360.6 215.7 360.8 215.7C361 215.7 361.1 220.1 361.1 225.5C361.1 230.9 360.9 235.3 360.8 235.3Z" fill="#263238"/>
<path d="M363 235.3C362.9 235.3 362.7 230.9 362.7 225.5C362.7 220.1 362.8 215.7 363 215.7C363.1 215.7 363.3 220.1 363.3 225.5C363.3 230.9 363.1 235.3 363 235.3Z" fill="#263238"/>
<path d="M365.2 235.3C365.1 235.3 364.9 230.9 364.9 225.5C364.9 220.1 365 215.7 365.2 215.7C365.3 215.7 365.5 220.1 365.5 225.5C365.5 230.9 365.4 235.3 365.2 235.3Z" fill="#263238"/>
<path d="M367.4 235.3C367.3 235.3 367.1 230.9 367.1 225.5C367.1 220.1 367.2 215.7 367.4 215.7C367.6 215.7 367.7 220.1 367.7 225.5C367.7 230.9 367.6 235.3 367.4 235.3Z" fill="#263238"/>
<path d="M463.4 215.6H428.1V237.5H463.4V215.6Z" fill="#E0E0E0"/>
<path d="M399.7 206.2L370.5 215V237.1H428.1V215.4L399.7 206.2Z" fill="#E0E0E0"/>
<path d="M415.914 237.113H425.314V223.813H415.914V237.113Z" fill="#263238"/>
<path d="M371.552 237.113H380.953V223.813H371.552V237.113Z" fill="#263238"/>
<path d="M399.278 237.113H414.078V223.813H399.278V237.113Z" fill="#263238"/>
<path d="M382.562 237.113H397.362V223.813H382.562V237.113Z" fill="#263238"/>
<path d="M399.7 206.2H442.9L463.3 215.6H428.1L399.7 206.2Z" fill="#FF725E"/>
<path d="M370.5 215C370.5 215 370.7 214.9 371.1 214.8C371.5 214.7 372.1 214.5 372.7 214.3C374.2 213.8 376.2 213.2 378.8 212.4C384 210.8 391.3 208.6 399.7 206C399.8 206 399.8 206 399.9 206C402.9 207 406.1 208.1 409.4 209.2C416.3 211.5 422.7 213.7 428.2 215.6C428.3 215.6 428.4 215.7 428.4 215.8C428.4 221.9 428.3 227.1 428.3 230.7C428.3 232.5 428.3 233.9 428.2 234.9C428.2 235.4 428.2 235.7 428.2 236C428.2 236.3 428.2 236.4 428.2 236.4C428.2 236.4 428.2 236.3 428.2 236C428.2 235.7 428.2 235.3 428.2 234.9C428.2 233.9 428.2 232.5 428.1 230.7C428.1 227 428 221.9 428 215.8L428.2 216C422.7 214.1 416.2 212 409.3 209.7C406 208.6 402.8 207.5 399.8 206.5H400C391.6 209 384.3 211.2 379 212.7C376.4 213.4 374.4 214 372.9 214.5C372.2 214.7 371.7 214.8 371.3 215C370.7 215 370.5 215 370.5 215Z" fill="#263238"/>
<path d="M246 65.3C245.2 65.3 244.5 64.6 244.5 63.8V6.19999L197.8 63.4C197.3 64 196.3 64.1 195.7 63.6C195.1 63.1 195 62.1 195.5 61.5L244.8 0.999996C245.2 0.499996 245.9 0.299996 246.5 0.499996C247.1 0.699996 247.5 1.29999 247.5 1.89999V63.7C247.5 64.6 246.9 65.3 246 65.3Z" fill="#263238"/>
<path d="M37.7 80.9C37.1 80.9 36.5 80.5 36.3 79.9C36 79.1 36.4 78.3 37.2 78L245.5 0.600007C246.1 0.400007 246.8 0.600001 247.2 1L300.2 62.8C300.7 63.4 300.7 64.4 300 64.9C299.4 65.4 298.4 65.4 297.9 64.7L245.5 3.7L38.1 80.8C38 80.9 37.9 80.9 37.7 80.9Z" fill="#263238"/>
<path d="M11.9 75.3L25.9 83.5H356.7V75.3H11.9Z" fill="#455A64"/>
<path d="M196.7 62.4H191.2V221.1H196.7V62.4Z" fill="#263238"/>
<path d="M254.1 62.4H248.6V221.1H254.1V62.4Z" fill="#263238"/>
<path d="M303.4 219.8H185.3V226.2H303.4V219.8Z" fill="#455A64"/>
<path d="M254.4 151.9H194V158.3H254.4V151.9Z" fill="#263238"/>
<path d="M240.6 62.4H235.1V221.1H240.6V62.4Z" fill="#455A64"/>
<path d="M299.1 63.8H293.6V222.5H299.1V63.8Z" fill="#455A64"/>
<path d="M197.5 155C197.3 155 197.1 155 196.9 154.9C196.2 154.5 195.8 153.6 196.2 152.9L237.8 65.6C238.2 64.9 239.1 64.5 239.8 64.9C240.5 65.3 240.9 66.2 240.5 66.9L198.9 154.2C198.6 154.6 198.1 155 197.5 155Z" fill="#263238"/>
<path d="M253 153.4C252.8 153.4 252.6 153.4 252.3 153.2C251.6 152.8 251.3 151.9 251.6 151.2C253.3 147.8 292.2 69 292.8 67.9C293.2 67.2 294.1 66.9 294.8 67.3C295.5 67.7 295.8 68.6 295.4 69.3C294.8 70.4 254.7 151.7 254.3 152.5C254.1 153.1 253.5 153.4 253 153.4Z" fill="#263238"/>
<path d="M204.6 226.2H180.9V231.9H204.6V226.2Z" fill="#455A64"/>
<path d="M248.9 225.4H225.2V231.1H248.9V225.4Z" fill="#455A64"/>
<path d="M305.5 225.4H281.8V231.1H305.5V225.4Z" fill="#455A64"/>
<path d="M309.9 231H172.9V236.2H309.9V231Z" fill="#455A64"/>
<path d="M302.9 62.4H189.1V69.8H302.9V62.4Z" fill="#455A64"/>
<path d="M298.3 151.9H239.1V158.3H298.3V151.9Z" fill="#455A64"/>
<path d="M76.1 93.8H0.700012V115.7H76.1V93.8Z" fill="#FF725E"/>
<g opacity="0.3">
<path opacity="0.3" d="M76.1 93.8H49.1V115.7H76.1V93.8Z" fill="black"/>
</g>
<path d="M48 114.8C48 114.8 48 114.7 48 114.4C48 114.1 48 113.8 48 113.4C48 112.5 48 111.1 48 109.4C48 106 47.9 101.1 47.9 95L48.1001 95.2C36.1001 95.2 19.7 95.2 1.50004 95.3C1.30004 95.5 1.80003 95 1.80003 95V95.1V95.3V95.6V96.2V97.5C1.80003 98.4 1.80003 99.2 1.80003 100.1C1.80003 101.8 1.80003 103.5 1.80003 105.1C1.80003 108.4 1.80003 111.6 1.80003 114.7L1.60005 114.5C15.1 114.5 26.7 114.6 34.9 114.6C39 114.6 42.3001 114.7 44.6001 114.7C45.7001 114.7 46.6001 114.7 47.2001 114.7C47.5001 114.7 47.7 114.7 47.9 114.7C48 114.8 48 114.8 48 114.8C48 114.8 47.9 114.8 47.8 114.8C47.6 114.8 47.4001 114.8 47.1001 114.8C46.5001 114.8 45.6 114.8 44.5 114.8C42.2 114.8 39 114.8 34.9 114.9C26.6 114.9 14.9 115 1.40004 115H1.20006V114.8C1.20006 111.7 1.20006 108.5 1.20006 105.2C1.20006 103.5 1.20006 101.9 1.20006 100.2C1.20006 99.4 1.20006 98.5 1.20006 97.6V96.3V95.7V95.4V95.2V95.1C1.10006 95.2 1.70004 94.6 1.50004 94.8C19.6 94.8 36.1001 94.9 48.1001 94.9H48.3V95.1C48.3 101.2 48.2001 106.2 48.2001 109.6C48.2001 111.3 48.2001 112.6 48.2001 113.5C48.2001 113.9 48.2001 114.3 48.2001 114.5C48.1001 114.7 48 114.8 48 114.8Z" fill="#263238"/>
<path d="M74.8 114.8C74.8 114.8 74.8 114.7 74.8 114.4C74.8 114.1 74.8 113.8 74.8 113.3C74.8 112.3 74.8 111 74.7 109.3C74.7 105.8 74.6 100.9 74.6 95L74.8 95.2C67.8 95.2 59.3 95.2 50.3 95.2C50.2 95.3 50.8 94.7 50.6 94.9V95V95.2V95.5V96.2C50.6 96.6 50.6 97.1 50.6 97.5C50.6 98.4 50.6 99.3 50.6 100.1C50.6 101.8 50.6 103.5 50.6 105.2C50.6 108.5 50.6 111.7 50.6 114.6L50.4 114.4C57.6 114.4 63.7 114.5 68.1 114.5C70.2 114.5 71.9 114.5 73.1 114.6C73.7 114.6 74.1 114.6 74.4 114.6C74.6 114.8 74.8 114.8 74.8 114.8C74.8 114.8 74.7 114.8 74.4 114.8C74.1 114.8 73.6 114.8 73.1 114.8C71.9 114.8 70.2 114.8 68.1 114.9C63.7 114.9 57.6 115 50.3 115H50.1V114.8C50.1 111.9 50.1 108.7 50.1 105.4C50.1 103.7 50.1 102 50.1 100.3C50.1 99.4 50.1 98.6 50.1 97.7C50.1 97.3 50.1 96.8 50.1 96.4V95.7V95.4V95.2V95.1C49.9 95.3 50.4 94.8 50.4 94.8C59.5 94.8 67.9 94.8 74.9 94.8H75.1V95C75.1 101 75 105.9 75 109.4C75 111.1 75 112.4 74.9 113.4C74.9 113.8 74.9 114.2 74.9 114.4C74.8 114.7 74.8 114.8 74.8 114.8Z" fill="#263238"/>
<path d="M3.29999 114.6C3.19999 114.6 3 110.2 3 104.8C3 99.4 3.09999 95 3.29999 95C3.39999 95 3.60001 99.4 3.60001 104.8C3.60001 110.2 3.39999 114.6 3.29999 114.6Z" fill="#263238"/>
<path d="M5.39996 114.6C5.29996 114.6 5.09998 110.2 5.09998 104.8C5.09998 99.4 5.19996 95 5.39996 95C5.49996 95 5.69998 99.4 5.69998 104.8C5.69998 110.2 5.59996 114.6 5.39996 114.6Z" fill="#263238"/>
<path d="M7.60001 114.6C7.50001 114.6 7.29999 110.2 7.29999 104.8C7.29999 99.4 7.40001 95 7.60001 95C7.70001 95 7.89999 99.4 7.89999 104.8C7.89999 110.2 7.70001 114.6 7.60001 114.6Z" fill="#263238"/>
<path d="M9.70004 114.6C9.60004 114.6 9.40002 110.2 9.40002 104.8C9.40002 99.4 9.50004 95 9.70004 95C9.90004 95 10 99.4 10 104.8C10 110.2 9.90004 114.6 9.70004 114.6Z" fill="#263238"/>
<path d="M11.9 114.6C11.8 114.6 11.6 110.2 11.6 104.8C11.6 99.4 11.7 95 11.9 95C12.1 95 12.2 99.4 12.2 104.8C12.2 110.2 12 114.6 11.9 114.6Z" fill="#263238"/>
<path d="M14 114.6C13.9 114.6 13.7 110.2 13.7 104.8C13.7 99.4 13.8 95 14 95C14.2 95 14.3 99.4 14.3 104.8C14.3 110.2 14.2 114.6 14 114.6Z" fill="#263238"/>
<path d="M16.2 114.6C16.1 114.6 15.9 110.2 15.9 104.8C15.9 99.4 16 95 16.2 95C16.3 95 16.5 99.4 16.5 104.8C16.5 110.2 16.3 114.6 16.2 114.6Z" fill="#263238"/>
<path d="M18.3 114.6C18.2 114.6 18 110.2 18 104.8C18 99.4 18.1 95 18.3 95C18.5 95 18.6 99.4 18.6 104.8C18.6 110.2 18.5 114.6 18.3 114.6Z" fill="#263238"/>
<path d="M20.5 114.6C20.4 114.6 20.2 110.2 20.2 104.8C20.2 99.4 20.3 95 20.5 95C20.6 95 20.8 99.4 20.8 104.8C20.8 110.2 20.6 114.6 20.5 114.6Z" fill="#263238"/>
<path d="M22.6 114.6C22.5 114.6 22.3 110.2 22.3 104.8C22.3 99.4 22.4 95 22.6 95C22.7 95 22.9 99.4 22.9 104.8C22.9 110.2 22.8 114.6 22.6 114.6Z" fill="#263238"/>
<path d="M24.8 114.6C24.7 114.6 24.5 110.2 24.5 104.8C24.5 99.4 24.6 95 24.8 95C24.9 95 25.1 99.4 25.1 104.8C25.1 110.2 24.9 114.6 24.8 114.6Z" fill="#263238"/>
<path d="M26.9 114.6C26.8 114.6 26.6 110.2 26.6 104.8C26.6 99.4 26.7 95 26.9 95C27 95 27.2 99.4 27.2 104.8C27.2 110.2 27.1 114.6 26.9 114.6Z" fill="#263238"/>
<path d="M29.1 114.6C29 114.6 28.8 110.2 28.8 104.8C28.8 99.4 28.9 95 29.1 95C29.2 95 29.4 99.4 29.4 104.8C29.4 110.2 29.2 114.6 29.1 114.6Z" fill="#263238"/>
<path d="M31.2 114.6C31.1 114.6 30.9 110.2 30.9 104.8C30.9 99.4 31 95 31.2 95C31.3 95 31.5 99.4 31.5 104.8C31.5 110.2 31.4 114.6 31.2 114.6Z" fill="#263238"/>
<path d="M33.4 114.6C33.3 114.6 33.1 110.2 33.1 104.8C33.1 99.4 33.2 95 33.4 95C33.5 95 33.7 99.4 33.7 104.8C33.7 110.2 33.5 114.6 33.4 114.6Z" fill="#263238"/>
<path d="M35.5 114.6C35.4 114.6 35.2 110.2 35.2 104.8C35.2 99.4 35.3 95 35.5 95C35.7 95 35.8 99.4 35.8 104.8C35.8 110.2 35.7 114.6 35.5 114.6Z" fill="#263238"/>
<path d="M37.7 114.6C37.6 114.6 37.4 110.2 37.4 104.8C37.4 99.4 37.5 95 37.7 95C37.8 95 38 99.4 38 104.8C38 110.2 37.8 114.6 37.7 114.6Z" fill="#263238"/>
<path d="M39.8 114.6C39.7 114.6 39.5 110.2 39.5 104.8C39.5 99.4 39.6 95 39.8 95C40 95 40.1 99.4 40.1 104.8C40.1 110.2 40 114.6 39.8 114.6Z" fill="#263238"/>
<path d="M42 114.6C41.9 114.6 41.7 110.2 41.7 104.8C41.7 99.4 41.8 95 42 95C42.2 95 42.3 99.4 42.3 104.8C42.3 110.2 42.1 114.6 42 114.6Z" fill="#263238"/>
<path d="M44.2 114.6C44.1 114.6 43.9 110.2 43.9 104.8C43.9 99.4 44 95 44.2 95C44.4 95 44.5 99.4 44.5 104.8C44.4 110.2 44.3 114.6 44.2 114.6Z" fill="#263238"/>
<path d="M46.3 114.6C46.2 114.6 46 110.2 46 104.8C46 99.4 46.1 95 46.3 95C46.5 95 46.6 99.4 46.6 104.8C46.6 110.2 46.4 114.6 46.3 114.6Z" fill="#263238"/>
<path d="M52.3 114.6C52.2 114.6 52 110.2 52 104.8C52 99.4 52.1 95 52.3 95C52.5 95 52.6 99.4 52.6 104.8C52.5 110.2 52.4 114.6 52.3 114.6Z" fill="#263238"/>
<path d="M54.5 114.6C54.4 114.6 54.2 110.2 54.2 104.8C54.2 99.4 54.3 95 54.5 95C54.6 95 54.8 99.4 54.8 104.8C54.7 110.2 54.6 114.6 54.5 114.6Z" fill="#263238"/>
<path d="M56.7 114.6C56.6 114.6 56.4 110.2 56.4 104.8C56.4 99.4 56.5 95 56.7 95C56.8 95 57 99.4 57 104.8C57 110.2 56.8 114.6 56.7 114.6Z" fill="#263238"/>
<path d="M58.9 114.6C58.8 114.6 58.6 110.2 58.6 104.8C58.6 99.4 58.7 95 58.9 95C59.1 95 59.2 99.4 59.2 104.8C59.2 110.2 59.1 114.6 58.9 114.6Z" fill="#263238"/>
<path d="M61.1 114.6C61 114.6 60.8 110.2 60.8 104.8C60.8 99.4 60.9 95 61.1 95C61.3 95 61.4 99.4 61.4 104.8C61.4 110.2 61.3 114.6 61.1 114.6Z" fill="#263238"/>
<path d="M63.3 114.6C63.2 114.6 63 110.2 63 104.8C63 99.4 63.1 95 63.3 95C63.4 95 63.6 99.4 63.6 104.8C63.6 110.2 63.5 114.6 63.3 114.6Z" fill="#263238"/>
<path d="M65.6 114.6C65.5 114.6 65.3 110.2 65.3 104.8C65.3 99.4 65.4 95 65.6 95C65.8 95 65.9 99.4 65.9 104.8C65.8 110.2 65.7 114.6 65.6 114.6Z" fill="#263238"/>
<path d="M67.8 114.6C67.7 114.6 67.5 110.2 67.5 104.8C67.5 99.4 67.6 95 67.8 95C67.9 95 68.1 99.4 68.1 104.8C68 110.2 67.9 114.6 67.8 114.6Z" fill="#263238"/>
<path d="M70 114.6C69.9 114.6 69.7 110.2 69.7 104.8C69.7 99.4 69.8 95 70 95C70.1 95 70.3 99.4 70.3 104.8C70.2 110.2 70.1 114.6 70 114.6Z" fill="#263238"/>
<path d="M72.2 114.6C72.1 114.6 71.9 110.2 71.9 104.8C71.9 99.4 72 95 72.2 95C72.3 95 72.5 99.4 72.5 104.8C72.5 110.2 72.3 114.6 72.2 114.6Z" fill="#263238"/>
<path d="M56.7 90.8H18.7V93.8H56.7V90.8Z" fill="#455A64"/>
<path d="M38.4 93.5H12.8V97.7H38.4V93.5Z" fill="#455A64"/>
<path d="M32.9 82.8H28.7V91.2H32.9V82.8Z" fill="#455A64"/>
<path d="M463.3 236.3H60.2V272.1H463.3V236.3Z" fill="#455A64"/>
<path d="M463.3 236.3H44.3V248.9H463.3V236.3Z" fill="#455A64"/>
<path d="M463.3 248.9C463.3 248.5 463.3 244.8 463.2 236.3L463.3 236.4C419.2 236.4 248.3 236.5 44.3 236.6L44.6 236.3C44.6 240.6 44.6 244.9 44.6 248.9L44.3 248.6C277 248.8 460.5 248.9 463.3 248.9C460.5 248.9 277 249 44.3 249.2C44.2 249.2 44 249.1 44 248.9C44 244.9 44 240.6 44 236.3C44 236.2 44.1 236 44.3 236C248.2 236.1 419.2 236.2 463.3 236.2C463.3 236.2 463.4 236.2 463.4 236.3C463.3 244.8 463.3 248.5 463.3 248.9Z" fill="#263238"/>
<path d="M137.3 272C137.2 272 137 266.8 137 260.4C137 254 137.1 248.8 137.3 248.8C137.5 248.8 137.6 254 137.6 260.4C137.6 266.9 137.4 272 137.3 272Z" fill="#263238"/>
<path d="M133 254.8C133 255.5 132.4 256 131.8 256C131.1 256 130.6 255.4 130.6 254.8C130.6 254.1 131.2 253.6 131.8 253.6C132.4 253.5 133 254.1 133 254.8Z" fill="#263238"/>
<path d="M205.7 272C205.6 272 205.4 266.8 205.4 260.4C205.4 254 205.5 248.8 205.7 248.8C205.9 248.8 206 254 206 260.4C205.9 266.9 205.8 272 205.7 272Z" fill="#263238"/>
<path d="M201.3 254.8C201.3 255.5 200.7 256 200.1 256C199.4 256 198.9 255.4 198.9 254.8C198.9 254.1 199.5 253.6 200.1 253.6C200.8 253.5 201.3 254.1 201.3 254.8Z" fill="#263238"/>
<path d="M274 272C273.9 272 273.7 266.8 273.7 260.4C273.7 254 273.8 248.8 274 248.8C274.1 248.8 274.3 254 274.3 260.4C274.3 266.9 274.2 272 274 272Z" fill="#263238"/>
<path d="M269.7 254.8C269.7 255.5 269.1 256 268.5 256C267.8 256 267.3 255.4 267.3 254.8C267.3 254.1 267.9 253.6 268.5 253.6C269.1 253.5 269.7 254.1 269.7 254.8Z" fill="#263238"/>
<path d="M342.4 272C342.3 272 342.1 266.8 342.1 260.4C342.1 254 342.2 248.8 342.4 248.8C342.5 248.8 342.7 254 342.7 260.4C342.7 266.9 342.6 272 342.4 272Z" fill="#263238"/>
<path d="M338.1 254.8C338.1 255.5 337.5 256 336.9 256C336.2 256 335.7 255.4 335.7 254.8C335.7 254.1 336.3 253.6 336.9 253.6C337.5 253.5 338.1 254.1 338.1 254.8Z" fill="#263238"/>
<g opacity="0.3">
<path opacity="0.3" d="M60.2 250.8L463.3 254.8V248.9H60.2V250.8Z" fill="black"/>
</g>
<path d="M319.5 214.5H244.1V236.4H319.5V214.5Z" fill="#FF725E"/>
<g opacity="0.3">
<path opacity="0.3" d="M319.5 214.5H292.5V236.4H319.5V214.5Z" fill="black"/>
</g>
<path d="M291.4 235.5C291.4 235.5 291.4 235.4 291.4 235.1C291.4 234.8 291.4 234.5 291.4 234.1C291.4 233.2 291.4 231.8 291.4 230.1C291.4 226.7 291.3 221.8 291.3 215.7L291.5 215.9C279.5 215.9 263.1 215.9 244.9 216C244.7 216.2 245.2 215.7 245.2 215.7V215.8V216V216.3V216.9V218.2C245.2 219.1 245.2 219.9 245.2 220.8C245.2 222.5 245.2 224.2 245.2 225.8C245.2 229.1 245.2 232.3 245.2 235.4L245 235.2C258.5 235.2 270.1 235.3 278.3 235.3C282.4 235.3 285.7 235.4 288 235.4C289.1 235.4 290 235.4 290.6 235.4C290.9 235.4 291.1 235.4 291.3 235.4C291.3 235.5 291.4 235.5 291.4 235.5C291.4 235.5 291.3 235.5 291.2 235.5C291 235.5 290.8 235.5 290.5 235.5C289.9 235.5 289 235.5 287.9 235.5C285.6 235.5 282.4 235.5 278.3 235.6C270 235.6 258.3 235.7 244.8 235.7H244.6V235.5C244.6 232.4 244.6 229.2 244.6 225.9C244.6 224.2 244.6 222.6 244.6 220.9C244.6 220.1 244.6 219.2 244.6 218.3V217V216.4V216V215.8V215.7C244.5 215.8 245.1 215.2 244.9 215.4C263 215.4 279.5 215.5 291.5 215.5H291.7V215.7C291.7 221.8 291.6 226.8 291.6 230.2C291.6 231.9 291.6 233.2 291.6 234.1C291.6 234.5 291.6 234.9 291.6 235.1C291.4 235.4 291.4 235.5 291.4 235.5Z" fill="#263238"/>
<path d="M318.2 235.5C318.2 235.5 318.2 235.4 318.2 235.1C318.2 234.8 318.2 234.5 318.2 234C318.2 233 318.2 231.7 318.1 230C318.1 226.5 318 221.6 318 215.7L318.2 215.9C311.2 215.9 302.7 215.9 293.7 215.9C293.6 216 294.2 215.4 294 215.6V215.7V215.9V216.2V216.9C294 217.3 294 217.8 294 218.2C294 219.1 294 220 294 220.8C294 222.5 294 224.2 294 225.9C294 229.2 294 232.4 294 235.3L293.8 235.1C301 235.1 307.1 235.2 311.5 235.2C313.6 235.2 315.3 235.2 316.5 235.3C317.1 235.3 317.5 235.3 317.8 235.3C318 235.5 318.2 235.5 318.2 235.5C318.2 235.5 318.1 235.5 317.8 235.5C317.5 235.5 317 235.5 316.5 235.5C315.3 235.5 313.6 235.5 311.5 235.6C307.1 235.6 301 235.7 293.7 235.7H293.5V235.5C293.5 232.6 293.5 229.4 293.5 226.1C293.5 224.4 293.5 222.7 293.5 221C293.5 220.1 293.5 219.3 293.5 218.4C293.5 218 293.5 217.5 293.5 217.1V216.4V216V215.8V215.7C293.3 215.9 293.8 215.4 293.8 215.4C302.9 215.4 311.3 215.4 318.3 215.4H318.5V215.6C318.5 221.6 318.4 226.5 318.4 230C318.4 231.7 318.4 233 318.3 234C318.3 234.4 318.3 234.8 318.3 235C318.2 235.4 318.2 235.5 318.2 235.5Z" fill="#263238"/>
<path d="M246.7 235.3C246.6 235.3 246.4 230.9 246.4 225.5C246.4 220.1 246.5 215.7 246.7 215.7C246.8 215.7 247 220.1 247 225.5C246.9 230.9 246.8 235.3 246.7 235.3Z" fill="#263238"/>
<path d="M248.8 235.3C248.7 235.3 248.5 230.9 248.5 225.5C248.5 220.1 248.6 215.7 248.8 215.7C248.9 215.7 249.1 220.1 249.1 225.5C249.1 230.9 249 235.3 248.8 235.3Z" fill="#263238"/>
<path d="M251 235.3C250.9 235.3 250.7 230.9 250.7 225.5C250.7 220.1 250.8 215.7 251 215.7C251.2 215.7 251.3 220.1 251.3 225.5C251.2 230.9 251.1 235.3 251 235.3Z" fill="#263238"/>
<path d="M253.1 235.3C253 235.3 252.8 230.9 252.8 225.5C252.8 220.1 252.9 215.7 253.1 215.7C253.3 215.7 253.4 220.1 253.4 225.5C253.4 230.9 253.3 235.3 253.1 235.3Z" fill="#263238"/>
<path d="M255.3 235.3C255.2 235.3 255 230.9 255 225.5C255 220.1 255.1 215.7 255.3 215.7C255.5 215.7 255.6 220.1 255.6 225.5C255.5 230.9 255.4 235.3 255.3 235.3Z" fill="#263238"/>
<path d="M257.4 235.3C257.3 235.3 257.1 230.9 257.1 225.5C257.1 220.1 257.2 215.7 257.4 215.7C257.6 215.7 257.7 220.1 257.7 225.5C257.7 230.9 257.6 235.3 257.4 235.3Z" fill="#263238"/>
<path d="M259.6 235.3C259.5 235.3 259.3 230.9 259.3 225.5C259.3 220.1 259.4 215.7 259.6 215.7C259.7 215.7 259.9 220.1 259.9 225.5C259.8 230.9 259.7 235.3 259.6 235.3Z" fill="#263238"/>
<path d="M261.7 235.3C261.6 235.3 261.4 230.9 261.4 225.5C261.4 220.1 261.5 215.7 261.7 215.7C261.9 215.7 262 220.1 262 225.5C262 230.9 261.9 235.3 261.7 235.3Z" fill="#263238"/>
<path d="M263.9 235.3C263.8 235.3 263.6 230.9 263.6 225.5C263.6 220.1 263.7 215.7 263.9 215.7C264 215.7 264.2 220.1 264.2 225.5C264.1 230.9 264 235.3 263.9 235.3Z" fill="#263238"/>
<path d="M266 235.3C265.9 235.3 265.7 230.9 265.7 225.5C265.7 220.1 265.8 215.7 266 215.7C266.1 215.7 266.3 220.1 266.3 225.5C266.3 230.9 266.2 235.3 266 235.3Z" fill="#263238"/>
<path d="M268.2 235.3C268.1 235.3 267.9 230.9 267.9 225.5C267.9 220.1 268 215.7 268.2 215.7C268.3 215.7 268.5 220.1 268.5 225.5C268.4 230.9 268.3 235.3 268.2 235.3Z" fill="#263238"/>
<path d="M270.3 235.3C270.2 235.3 270 230.9 270 225.5C270 220.1 270.1 215.7 270.3 215.7C270.4 215.7 270.6 220.1 270.6 225.5C270.6 230.9 270.5 235.3 270.3 235.3Z" fill="#263238"/>
<path d="M272.5 235.3C272.4 235.3 272.2 230.9 272.2 225.5C272.2 220.1 272.3 215.7 272.5 215.7C272.6 215.7 272.8 220.1 272.8 225.5C272.7 230.9 272.6 235.3 272.5 235.3Z" fill="#263238"/>
<path d="M274.6 235.3C274.5 235.3 274.3 230.9 274.3 225.5C274.3 220.1 274.4 215.7 274.6 215.7C274.7 215.7 274.9 220.1 274.9 225.5C274.9 230.9 274.8 235.3 274.6 235.3Z" fill="#263238"/>
<path d="M276.8 235.3C276.7 235.3 276.5 230.9 276.5 225.5C276.5 220.1 276.6 215.7 276.8 215.7C276.9 215.7 277.1 220.1 277.1 225.5C277 230.9 276.9 235.3 276.8 235.3Z" fill="#263238"/>
<path d="M278.9 235.3C278.8 235.3 278.6 230.9 278.6 225.5C278.6 220.1 278.7 215.7 278.9 215.7C279.1 215.7 279.2 220.1 279.2 225.5C279.2 230.9 279.1 235.3 278.9 235.3Z" fill="#263238"/>
<path d="M281.1 235.3C281 235.3 280.8 230.9 280.8 225.5C280.8 220.1 280.9 215.7 281.1 215.7C281.3 215.7 281.4 220.1 281.4 225.5C281.3 230.9 281.2 235.3 281.1 235.3Z" fill="#263238"/>
<path d="M283.2 235.3C283.1 235.3 282.9 230.9 282.9 225.5C282.9 220.1 283 215.7 283.2 215.7C283.4 215.7 283.5 220.1 283.5 225.5C283.5 230.9 283.4 235.3 283.2 235.3Z" fill="#263238"/>
<path d="M285.4 235.3C285.3 235.3 285.1 230.9 285.1 225.5C285.1 220.1 285.2 215.7 285.4 215.7C285.6 215.7 285.7 220.1 285.7 225.5C285.6 230.9 285.5 235.3 285.4 235.3Z" fill="#263238"/>
<path d="M287.5 235.3C287.4 235.3 287.2 230.9 287.2 225.5C287.2 220.1 287.3 215.7 287.5 215.7C287.7 215.7 287.8 220.1 287.8 225.5C287.8 230.9 287.7 235.3 287.5 235.3Z" fill="#263238"/>
<path d="M289.7 235.3C289.6 235.3 289.4 230.9 289.4 225.5C289.4 220.1 289.5 215.7 289.7 215.7C289.8 215.7 290 220.1 290 225.5C289.9 230.9 289.8 235.3 289.7 235.3Z" fill="#263238"/>
<path d="M295.6 235.3C295.5 235.3 295.3 230.9 295.3 225.5C295.3 220.1 295.4 215.7 295.6 215.7C295.7 215.7 295.9 220.1 295.9 225.5C295.9 230.9 295.8 235.3 295.6 235.3Z" fill="#263238"/>
<path d="M297.9 235.3C297.8 235.3 297.6 230.9 297.6 225.5C297.6 220.1 297.7 215.7 297.9 215.7C298.1 215.7 298.2 220.1 298.2 225.5C298.1 230.9 298 235.3 297.9 235.3Z" fill="#263238"/>
<path d="M300.1 235.3C300 235.3 299.8 230.9 299.8 225.5C299.8 220.1 299.9 215.7 300.1 215.7C300.2 215.7 300.4 220.1 300.4 225.5C300.3 230.9 300.2 235.3 300.1 235.3Z" fill="#263238"/>
<path d="M302.3 235.3C302.2 235.3 302 230.9 302 225.5C302 220.1 302.1 215.7 302.3 215.7C302.5 215.7 302.6 220.1 302.6 225.5C302.5 230.9 302.4 235.3 302.3 235.3Z" fill="#263238"/>
<path d="M304.5 235.3C304.4 235.3 304.2 230.9 304.2 225.5C304.2 220.1 304.3 215.7 304.5 215.7C304.7 215.7 304.8 220.1 304.8 225.5C304.8 230.9 304.6 235.3 304.5 235.3Z" fill="#263238"/>
<path d="M306.7 235.3C306.6 235.3 306.4 230.9 306.4 225.5C306.4 220.1 306.5 215.7 306.7 215.7C306.8 215.7 307 220.1 307 225.5C307 230.9 306.9 235.3 306.7 235.3Z" fill="#263238"/>
<path d="M308.9 235.3C308.8 235.3 308.6 230.9 308.6 225.5C308.6 220.1 308.7 215.7 308.9 215.7C309.1 215.7 309.2 220.1 309.2 225.5C309.2 230.9 309.1 235.3 308.9 235.3Z" fill="#263238"/>
<path d="M311.1 235.3C311 235.3 310.8 230.9 310.8 225.5C310.8 220.1 310.9 215.7 311.1 215.7C311.2 215.7 311.4 220.1 311.4 225.5C311.4 230.9 311.3 235.3 311.1 235.3Z" fill="#263238"/>
<path d="M313.4 235.3C313.3 235.3 313.1 230.9 313.1 225.5C313.1 220.1 313.2 215.7 313.4 215.7C313.5 215.7 313.7 220.1 313.7 225.5C313.6 230.9 313.5 235.3 313.4 235.3Z" fill="#263238"/>
<path d="M315.6 235.3C315.5 235.3 315.3 230.9 315.3 225.5C315.3 220.1 315.4 215.7 315.6 215.7C315.8 215.7 315.9 220.1 315.9 225.5C315.8 230.9 315.7 235.3 315.6 235.3Z" fill="#263238"/>
<path d="M334.4 191H259V212.9H334.4V191Z" fill="#E0E0E0"/>
<g opacity="0.3">
<path opacity="0.3" d="M334.4 191H307.4V212.9H334.4V191Z" fill="black"/>
</g>
<path d="M306.3 212C306.3 212 306.3 211.9 306.3 211.6C306.3 211.3 306.3 211 306.3 210.6C306.3 209.7 306.3 208.3 306.3 206.6C306.3 203.2 306.2 198.3 306.2 192.2L306.4 192.4C294.4 192.4 278 192.4 259.8 192.5C259.6 192.7 260.1 192.2 260.1 192.2V192.3V192.5V192.8V193.4V194.7C260.1 195.6 260.1 196.4 260.1 197.3C260.1 199 260.1 200.7 260.1 202.3C260.1 205.6 260.1 208.8 260.1 211.9L259.9 211.7C273.4 211.7 285 211.8 293.2 211.8C297.3 211.8 300.6 211.9 302.9 211.9C304 211.9 304.9 211.9 305.5 211.9C305.8 211.9 306 211.9 306.2 211.9C306.2 212 306.3 212 306.3 212C306.3 212 306.2 212 306.1 212C305.9 212 305.7 212 305.4 212C304.8 212 303.9 212 302.8 212C300.5 212 297.3 212 293.2 212.1C284.9 212.1 273.2 212.2 259.7 212.2H259.5V212C259.5 208.9 259.5 205.7 259.5 202.4C259.5 200.7 259.5 199.1 259.5 197.4C259.5 196.6 259.5 195.7 259.5 194.8V193.5V192.9V192.6V192.4V192.3C259.4 192.4 260 191.8 259.8 192C277.9 192 294.4 192.1 306.4 192.1H306.6V192.3C306.6 198.4 306.5 203.4 306.5 206.8C306.5 208.5 306.5 209.8 306.5 210.7C306.5 211.1 306.5 211.5 306.5 211.7C306.3 211.9 306.3 212 306.3 212Z" fill="#263238"/>
<path d="M333.1 212C333.1 212 333.1 211.9 333.1 211.6C333.1 211.3 333.1 211 333.1 210.5C333.1 209.5 333.1 208.2 333 206.5C333 203 332.9 198.1 332.9 192.2L333.1 192.4C326.1 192.4 317.6 192.4 308.6 192.4C308.5 192.5 309.1 191.9 308.9 192.1V192.2V192.4V192.7V193.4C308.9 193.8 308.9 194.3 308.9 194.7C308.9 195.6 308.9 196.5 308.9 197.3C308.9 199 308.9 200.7 308.9 202.4C308.9 205.7 308.9 208.9 308.9 211.8L308.7 211.6C315.9 211.6 322 211.7 326.4 211.7C328.5 211.7 330.2 211.7 331.4 211.8C332 211.8 332.4 211.8 332.7 211.8C332.9 212 333.1 212 333.1 212C333.1 212 333 212 332.7 212C332.4 212 331.9 212 331.4 212C330.2 212 328.5 212 326.4 212.1C322 212.1 315.9 212.2 308.6 212.2H308.4V212C308.4 209.1 308.4 205.9 308.4 202.6C308.4 200.9 308.4 199.2 308.4 197.5C308.4 196.6 308.4 195.8 308.4 194.9C308.4 194.5 308.4 194 308.4 193.6V192.9V192.6V192.4V192.3C308.2 192.5 308.7 192 308.7 192C317.8 192 326.2 192 333.2 192H333.4V192.2C333.4 198.2 333.3 203.1 333.3 206.6C333.3 208.3 333.3 209.6 333.2 210.6C333.2 211 333.2 211.4 333.2 211.6C333.1 211.9 333.1 212 333.1 212Z" fill="#263238"/>
<path d="M261.6 211.8C261.5 211.8 261.3 207.4 261.3 202C261.3 196.6 261.4 192.2 261.6 192.2C261.8 192.2 261.9 196.6 261.9 202C261.8 207.4 261.7 211.8 261.6 211.8Z" fill="#263238"/>
<path d="M263.7 211.8C263.6 211.8 263.4 207.4 263.4 202C263.4 196.6 263.5 192.2 263.7 192.2C263.8 192.2 264 196.6 264 202C264 207.4 263.9 211.8 263.7 211.8Z" fill="#263238"/>
<path d="M265.9 211.8C265.8 211.8 265.6 207.4 265.6 202C265.6 196.6 265.7 192.2 265.9 192.2C266 192.2 266.2 196.6 266.2 202C266.1 207.4 266 211.8 265.9 211.8Z" fill="#263238"/>
<path d="M268 211.8C267.9 211.8 267.7 207.4 267.7 202C267.7 196.6 267.8 192.2 268 192.2C268.2 192.2 268.3 196.6 268.3 202C268.3 207.4 268.2 211.8 268 211.8Z" fill="#263238"/>
<path d="M270.2 211.8C270.1 211.8 269.9 207.4 269.9 202C269.9 196.6 270 192.2 270.2 192.2C270.3 192.2 270.5 196.6 270.5 202C270.4 207.4 270.3 211.8 270.2 211.8Z" fill="#263238"/>
<path d="M272.3 211.8C272.2 211.8 272 207.4 272 202C272 196.6 272.1 192.2 272.3 192.2C272.4 192.2 272.6 196.6 272.6 202C272.6 207.4 272.5 211.8 272.3 211.8Z" fill="#263238"/>
<path d="M274.5 211.8C274.4 211.8 274.2 207.4 274.2 202C274.2 196.6 274.3 192.2 274.5 192.2C274.6 192.2 274.8 196.6 274.8 202C274.7 207.4 274.6 211.8 274.5 211.8Z" fill="#263238"/>
<path d="M276.6 211.8C276.5 211.8 276.3 207.4 276.3 202C276.3 196.6 276.4 192.2 276.6 192.2C276.7 192.2 276.9 196.6 276.9 202C276.9 207.4 276.8 211.8 276.6 211.8Z" fill="#263238"/>
<path d="M278.8 211.8C278.7 211.8 278.5 207.4 278.5 202C278.5 196.6 278.6 192.2 278.8 192.2C278.9 192.2 279.1 196.6 279.1 202C279 207.4 278.9 211.8 278.8 211.8Z" fill="#263238"/>
<path d="M280.9 211.8C280.8 211.8 280.6 207.4 280.6 202C280.6 196.6 280.7 192.2 280.9 192.2C281.1 192.2 281.2 196.6 281.2 202C281.2 207.4 281.1 211.8 280.9 211.8Z" fill="#263238"/>
<path d="M283.1 211.8C283 211.8 282.8 207.4 282.8 202C282.8 196.6 282.9 192.2 283.1 192.2C283.3 192.2 283.4 196.6 283.4 202C283.3 207.4 283.2 211.8 283.1 211.8Z" fill="#263238"/>
<path d="M285.2 211.8C285.1 211.8 284.9 207.4 284.9 202C284.9 196.6 285 192.2 285.2 192.2C285.4 192.2 285.5 196.6 285.5 202C285.5 207.4 285.4 211.8 285.2 211.8Z" fill="#263238"/>
<path d="M287.4 211.8C287.3 211.8 287.1 207.4 287.1 202C287.1 196.6 287.2 192.2 287.4 192.2C287.6 192.2 287.7 196.6 287.7 202C287.6 207.4 287.5 211.8 287.4 211.8Z" fill="#263238"/>
<path d="M289.5 211.8C289.4 211.8 289.2 207.4 289.2 202C289.2 196.6 289.3 192.2 289.5 192.2C289.7 192.2 289.8 196.6 289.8 202C289.8 207.4 289.7 211.8 289.5 211.8Z" fill="#263238"/>
<path d="M291.7 211.8C291.6 211.8 291.4 207.4 291.4 202C291.4 196.6 291.5 192.2 291.7 192.2C291.8 192.2 292 196.6 292 202C291.9 207.4 291.8 211.8 291.7 211.8Z" fill="#263238"/>
<path d="M293.8 211.8C293.7 211.8 293.5 207.4 293.5 202C293.5 196.6 293.6 192.2 293.8 192.2C294 192.2 294.1 196.6 294.1 202C294.1 207.4 294 211.8 293.8 211.8Z" fill="#263238"/>
<path d="M296 211.8C295.9 211.8 295.7 207.4 295.7 202C295.7 196.6 295.8 192.2 296 192.2C296.1 192.2 296.3 196.6 296.3 202C296.2 207.4 296.1 211.8 296 211.8Z" fill="#263238"/>
<path d="M298.1 211.8C298 211.8 297.8 207.4 297.8 202C297.8 196.6 297.9 192.2 298.1 192.2C298.2 192.2 298.4 196.6 298.4 202C298.4 207.4 298.3 211.8 298.1 211.8Z" fill="#263238"/>
<path d="M300.3 211.8C300.2 211.8 300 207.4 300 202C300 196.6 300.1 192.2 300.3 192.2C300.4 192.2 300.6 196.6 300.6 202C300.5 207.4 300.4 211.8 300.3 211.8Z" fill="#263238"/>
<path d="M302.4 211.8C302.3 211.8 302.1 207.4 302.1 202C302.1 196.6 302.2 192.2 302.4 192.2C302.5 192.2 302.7 196.6 302.7 202C302.7 207.4 302.6 211.8 302.4 211.8Z" fill="#263238"/>
<path d="M304.6 211.8C304.5 211.8 304.3 207.4 304.3 202C304.3 196.6 304.4 192.2 304.6 192.2C304.7 192.2 304.9 196.6 304.9 202C304.8 207.4 304.7 211.8 304.6 211.8Z" fill="#263238"/>
<path d="M310.6 211.8C310.5 211.8 310.3 207.4 310.3 202C310.3 196.6 310.4 192.2 310.6 192.2C310.7 192.2 310.9 196.6 310.9 202C310.8 207.4 310.7 211.8 310.6 211.8Z" fill="#263238"/>
<path d="M312.8 211.8C312.7 211.8 312.5 207.4 312.5 202C312.5 196.6 312.6 192.2 312.8 192.2C313 192.2 313.1 196.6 313.1 202C313 207.4 312.9 211.8 312.8 211.8Z" fill="#263238"/>
<path d="M315 211.8C314.9 211.8 314.7 207.4 314.7 202C314.7 196.6 314.8 192.2 315 192.2C315.2 192.2 315.3 196.6 315.3 202C315.2 207.4 315.1 211.8 315 211.8Z" fill="#263238"/>
<path d="M317.2 211.8C317.1 211.8 316.9 207.4 316.9 202C316.9 196.6 317 192.2 317.2 192.2C317.3 192.2 317.5 196.6 317.5 202C317.5 207.4 317.3 211.8 317.2 211.8Z" fill="#263238"/>
<path d="M319.4 211.8C319.3 211.8 319.1 207.4 319.1 202C319.1 196.6 319.2 192.2 319.4 192.2C319.6 192.2 319.7 196.6 319.7 202C319.7 207.4 319.6 211.8 319.4 211.8Z" fill="#263238"/>
<path d="M321.6 211.8C321.5 211.8 321.3 207.4 321.3 202C321.3 196.6 321.4 192.2 321.6 192.2C321.8 192.2 321.9 196.6 321.9 202C321.9 207.4 321.8 211.8 321.6 211.8Z" fill="#263238"/>
<path d="M323.8 211.8C323.7 211.8 323.5 207.4 323.5 202C323.5 196.6 323.6 192.2 323.8 192.2C323.9 192.2 324.1 196.6 324.1 202C324.1 207.4 324 211.8 323.8 211.8Z" fill="#263238"/>
<path d="M326.1 211.8C326 211.8 325.8 207.4 325.8 202C325.8 196.6 325.9 192.2 326.1 192.2C326.2 192.2 326.4 196.6 326.4 202C326.3 207.4 326.2 211.8 326.1 211.8Z" fill="#263238"/>
<path d="M328.3 211.8C328.2 211.8 328 207.4 328 202C328 196.6 328.1 192.2 328.3 192.2C328.5 192.2 328.6 196.6 328.6 202C328.5 207.4 328.4 211.8 328.3 211.8Z" fill="#263238"/>
<path d="M330.5 211.8C330.4 211.8 330.2 207.4 330.2 202C330.2 196.6 330.3 192.2 330.5 192.2C330.6 192.2 330.8 196.6 330.8 202C330.8 207.4 330.6 211.8 330.5 211.8Z" fill="#263238"/>
<path d="M176.6 214.5H101.2V236.4H176.6V214.5Z" fill="#FF725E"/>
<g opacity="0.3">
<path opacity="0.3" d="M176.6 214.5H149.6V236.4H176.6V214.5Z" fill="black"/>
</g>
<path d="M148.5 235.6C148.5 235.6 148.5 235.5 148.5 235.2C148.5 234.9 148.5 234.6 148.5 234.2C148.5 233.3 148.5 231.9 148.5 230.2C148.5 226.8 148.4 221.9 148.4 215.8L148.6 216C136.6 216 120.2 216 102 216.1C101.8 216.3 102.3 215.8 102.3 215.8V215.9V216.1V216.4V217V218.3C102.3 219.2 102.3 220 102.3 220.9C102.3 222.6 102.3 224.3 102.3 225.9C102.3 229.2 102.3 232.4 102.3 235.5L102.1 235.3C115.6 235.3 127.2 235.4 135.4 235.4C139.5 235.4 142.8 235.5 145.1 235.5C146.2 235.5 147.1 235.5 147.7 235.5C148 235.5 148.2 235.5 148.4 235.5C148.5 235.5 148.5 235.6 148.5 235.6C148.5 235.6 148.4 235.6 148.3 235.6C148.1 235.6 147.9 235.6 147.6 235.6C147 235.6 146.1 235.6 145 235.6C142.7 235.6 139.5 235.6 135.4 235.7C127.1 235.7 115.4 235.8 101.9 235.8H101.7V235.6C101.7 232.5 101.7 229.3 101.7 226C101.7 224.3 101.7 222.7 101.7 221C101.7 220.2 101.7 219.3 101.7 218.4V217.1V216.5V216.2V216V215.9C101.6 216 102.2 215.4 102 215.6C120.1 215.6 136.6 215.7 148.6 215.7H148.8V215.9C148.8 222 148.7 227 148.7 230.4C148.7 232.1 148.7 233.4 148.7 234.3C148.7 234.7 148.7 235.1 148.7 235.3C148.6 235.5 148.5 235.6 148.5 235.6Z" fill="#263238"/>
<path d="M175.3 235.6C175.3 235.6 175.3 235.5 175.3 235.2C175.3 234.9 175.3 234.6 175.3 234.1C175.3 233.1 175.3 231.8 175.2 230.1C175.2 226.6 175.1 221.7 175.1 215.8L175.3 216C168.3 216 159.8 216 150.8 216C150.7 216.1 151.3 215.5 151.1 215.7V215.8V216V216.3V217C151.1 217.4 151.1 217.9 151.1 218.3C151.1 219.2 151.1 220.1 151.1 220.9C151.1 222.6 151.1 224.3 151.1 226C151.1 229.3 151.1 232.5 151.1 235.4L150.9 235.2C158.1 235.2 164.2 235.3 168.6 235.3C170.7 235.3 172.4 235.3 173.6 235.4C174.2 235.4 174.6 235.4 174.9 235.4C175.1 235.5 175.3 235.5 175.3 235.6C175.3 235.6 175.2 235.6 174.9 235.6C174.6 235.6 174.1 235.6 173.6 235.6C172.4 235.6 170.7 235.6 168.6 235.7C164.2 235.7 158.1 235.8 150.8 235.8H150.6V235.6C150.6 232.7 150.6 229.5 150.6 226.2C150.6 224.5 150.6 222.8 150.6 221.1C150.6 220.2 150.6 219.4 150.6 218.5C150.6 218.1 150.6 217.6 150.6 217.2V216.5V216.2V216V215.9C150.4 216.1 150.9 215.6 150.9 215.6C160 215.6 168.4 215.6 175.4 215.6H175.6V215.8C175.6 221.8 175.5 226.7 175.5 230.2C175.5 231.9 175.5 233.2 175.4 234.2C175.4 234.6 175.4 235 175.4 235.2C175.3 235.5 175.3 235.6 175.3 235.6Z" fill="#263238"/>
<path d="M103.8 235.4C103.7 235.4 103.5 231 103.5 225.6C103.5 220.2 103.6 215.8 103.8 215.8C103.9 215.8 104.1 220.2 104.1 225.6C104.1 231 103.9 235.4 103.8 235.4Z" fill="#263238"/>
<path d="M105.9 235.4C105.8 235.4 105.6 231 105.6 225.6C105.6 220.2 105.7 215.8 105.9 215.8C106.1 215.8 106.2 220.2 106.2 225.6C106.2 231 106.1 235.4 105.9 235.4Z" fill="#263238"/>
<path d="M108.1 235.4C108 235.4 107.8 231 107.8 225.6C107.8 220.2 107.9 215.8 108.1 215.8C108.2 215.8 108.4 220.2 108.4 225.6C108.4 231 108.2 235.4 108.1 235.4Z" fill="#263238"/>
<path d="M110.2 235.4C110.1 235.4 109.9 231 109.9 225.6C109.9 220.2 110 215.8 110.2 215.8C110.3 215.8 110.5 220.2 110.5 225.6C110.5 231 110.4 235.4 110.2 235.4Z" fill="#263238"/>
<path d="M112.4 235.4C112.3 235.4 112.1 231 112.1 225.6C112.1 220.2 112.2 215.8 112.4 215.8C112.5 215.8 112.7 220.2 112.7 225.6C112.7 231 112.5 235.4 112.4 235.4Z" fill="#263238"/>
<path d="M114.5 235.4C114.4 235.4 114.2 231 114.2 225.6C114.2 220.2 114.3 215.8 114.5 215.8C114.6 215.8 114.8 220.2 114.8 225.6C114.8 231 114.7 235.4 114.5 235.4Z" fill="#263238"/>
<path d="M116.7 235.4C116.6 235.4 116.4 231 116.4 225.6C116.4 220.2 116.5 215.8 116.7 215.8C116.8 215.8 117 220.2 117 225.6C117 231 116.8 235.4 116.7 235.4Z" fill="#263238"/>
<path d="M118.8 235.4C118.7 235.4 118.5 231 118.5 225.6C118.5 220.2 118.6 215.8 118.8 215.8C119 215.8 119.1 220.2 119.1 225.6C119.1 231 119 235.4 118.8 235.4Z" fill="#263238"/>
<path d="M121 235.4C120.9 235.4 120.7 231 120.7 225.6C120.7 220.2 120.8 215.8 121 215.8C121.2 215.8 121.3 220.2 121.3 225.6C121.3 231 121.1 235.4 121 235.4Z" fill="#263238"/>
<path d="M123.2 235.4C123.1 235.4 122.9 231 122.9 225.6C122.9 220.2 123 215.8 123.2 215.8C123.4 215.8 123.5 220.2 123.5 225.6C123.4 231 123.3 235.4 123.2 235.4Z" fill="#263238"/>
<path d="M125.3 235.4C125.2 235.4 125 231 125 225.6C125 220.2 125.1 215.8 125.3 215.8C125.5 215.8 125.6 220.2 125.6 225.6C125.6 231 125.4 235.4 125.3 235.4Z" fill="#263238"/>
<path d="M127.5 235.4C127.4 235.4 127.2 231 127.2 225.6C127.2 220.2 127.3 215.8 127.5 215.8C127.7 215.8 127.8 220.2 127.8 225.6C127.7 231 127.6 235.4 127.5 235.4Z" fill="#263238"/>
<path d="M129.6 235.4C129.5 235.4 129.3 231 129.3 225.6C129.3 220.2 129.4 215.8 129.6 215.8C129.7 215.8 129.9 220.2 129.9 225.6C129.9 231 129.7 235.4 129.6 235.4Z" fill="#263238"/>
<path d="M131.8 235.4C131.7 235.4 131.5 231 131.5 225.6C131.5 220.2 131.6 215.8 131.8 215.8C131.9 215.8 132.1 220.2 132.1 225.6C132 231 131.9 235.4 131.8 235.4Z" fill="#263238"/>
<path d="M133.9 235.4C133.8 235.4 133.6 231 133.6 225.6C133.6 220.2 133.7 215.8 133.9 215.8C134 215.8 134.2 220.2 134.2 225.6C134.2 231 134 235.4 133.9 235.4Z" fill="#263238"/>
<path d="M136.1 235.4C136 235.4 135.8 231 135.8 225.6C135.8 220.2 135.9 215.8 136.1 215.8C136.2 215.8 136.4 220.2 136.4 225.6C136.3 231 136.2 235.4 136.1 235.4Z" fill="#263238"/>
<path d="M138.2 235.4C138.1 235.4 137.9 231 137.9 225.6C137.9 220.2 138 215.8 138.2 215.8C138.3 215.8 138.5 220.2 138.5 225.6C138.5 231 138.3 235.4 138.2 235.4Z" fill="#263238"/>
<path d="M140.4 235.4C140.3 235.4 140.1 231 140.1 225.6C140.1 220.2 140.2 215.8 140.4 215.8C140.5 215.8 140.7 220.2 140.7 225.6C140.6 231 140.5 235.4 140.4 235.4Z" fill="#263238"/>
<path d="M142.5 235.4C142.4 235.4 142.2 231 142.2 225.6C142.2 220.2 142.3 215.8 142.5 215.8C142.6 215.8 142.8 220.2 142.8 225.6C142.8 231 142.6 235.4 142.5 235.4Z" fill="#263238"/>
<path d="M144.7 235.4C144.6 235.4 144.4 231 144.4 225.6C144.4 220.2 144.5 215.8 144.7 215.8C144.9 215.8 145 220.2 145 225.6C144.9 231 144.8 235.4 144.7 235.4Z" fill="#263238"/>
<path d="M146.8 235.4C146.7 235.4 146.5 231 146.5 225.6C146.5 220.2 146.6 215.8 146.8 215.8C146.9 215.8 147.1 220.2 147.1 225.6C147.1 231 147 235.4 146.8 235.4Z" fill="#263238"/>
<path d="M152.8 235.4C152.7 235.4 152.5 231 152.5 225.6C152.5 220.2 152.6 215.8 152.8 215.8C153 215.8 153.1 220.2 153.1 225.6C153 231 152.9 235.4 152.8 235.4Z" fill="#263238"/>
<path d="M155 235.4C154.9 235.4 154.7 231 154.7 225.6C154.7 220.2 154.8 215.8 155 215.8C155.1 215.8 155.3 220.2 155.3 225.6C155.3 231 155.1 235.4 155 235.4Z" fill="#263238"/>
<path d="M157.2 235.4C157.1 235.4 156.9 231 156.9 225.6C156.9 220.2 157 215.8 157.2 215.8C157.4 215.8 157.5 220.2 157.5 225.6C157.5 231 157.3 235.4 157.2 235.4Z" fill="#263238"/>
<path d="M159.4 235.4C159.3 235.4 159.1 231 159.1 225.6C159.1 220.2 159.2 215.8 159.4 215.8C159.6 215.8 159.7 220.2 159.7 225.6C159.7 231 159.6 235.4 159.4 235.4Z" fill="#263238"/>
<path d="M161.6 235.4C161.5 235.4 161.3 231 161.3 225.6C161.3 220.2 161.4 215.8 161.6 215.8C161.7 215.8 161.9 220.2 161.9 225.6C161.9 231 161.8 235.4 161.6 235.4Z" fill="#263238"/>
<path d="M163.8 235.4C163.7 235.4 163.5 231 163.5 225.6C163.5 220.2 163.6 215.8 163.8 215.8C164 215.8 164.1 220.2 164.1 225.6C164.1 231 164 235.4 163.8 235.4Z" fill="#263238"/>
<path d="M166.1 235.4C166 235.4 165.8 231 165.8 225.6C165.8 220.2 165.9 215.8 166.1 215.8C166.3 215.8 166.4 220.2 166.4 225.6C166.3 231 166.2 235.4 166.1 235.4Z" fill="#263238"/>
<path d="M168.3 235.4C168.2 235.4 168 231 168 225.6C168 220.2 168.1 215.8 168.3 215.8C168.4 215.8 168.6 220.2 168.6 225.6C168.5 231 168.4 235.4 168.3 235.4Z" fill="#263238"/>
<path d="M170.5 235.4C170.4 235.4 170.2 231 170.2 225.6C170.2 220.2 170.3 215.8 170.5 215.8C170.7 215.8 170.8 220.2 170.8 225.6C170.8 231 170.6 235.4 170.5 235.4Z" fill="#263238"/>
<path d="M172.7 235.4C172.6 235.4 172.4 231 172.4 225.6C172.4 220.2 172.5 215.8 172.7 215.8C172.8 215.8 173 220.2 173 225.6C173 231 172.9 235.4 172.7 235.4Z" fill="#263238"/>
<path d="M364.9 189.7H341.8V196.8H364.9V189.7Z" fill="#455A64"/>
<path d="M353.3 196.8H342.1V198.6H353.3V196.8Z" fill="#263238"/>
<path d="M356.9 198.6H342.1V200.4H356.9V198.6Z" fill="#263238"/>
<path d="M339.6 201.1H337.9V218.4H339.6V201.1Z" fill="#E0E0E0"/>
<path d="M354 201.1H352.3V218.4H354V201.1Z" fill="#E0E0E0"/>
<path d="M347.5 201.1H345.8V218.4H347.5V201.1Z" fill="#E0E0E0"/>
<path d="M361.9 201.1H360.2V218.4H361.9V201.1Z" fill="#E0E0E0"/>
<g opacity="0.3">
<path opacity="0.3" d="M347.5 201.1H345.8V218.4H347.5V201.1Z" fill="black"/>
</g>
<g opacity="0.3">
<path opacity="0.3" d="M361.9 201.1H360.2V218.4H361.9V201.1Z" fill="black"/>
</g>
<path d="M362.5 200.3H337.1V201.9H362.5V200.3Z" fill="#E0E0E0"/>
<path d="M352.8 218.3C338.8 202 338.8 201.8 338.8 201.6H339.8H339.3L339.7 201.4C340.1 202 348.1 211.5 353.5 217.7L352.8 218.3Z" fill="#E0E0E0"/>
<path d="M339.6 218.9H337.9V236.2H339.6V218.9Z" fill="#455A64"/>
<path d="M339.7 236.3H338V219H339.7V236.3ZM338 236.2H339.7V219H338V236.2Z" fill="#263238"/>
<path d="M354 218.9H352.3V236.2H354V218.9Z" fill="#455A64"/>
<path d="M354 236.3H352.3V219H354V236.3ZM352.3 236.2H354V219H352.3V236.2Z" fill="#263238"/>
<path d="M347.5 218.9H345.8V236.2H347.5V218.9Z" fill="#455A64"/>
<path d="M347.6 236.3H345.9V219H347.6V236.3ZM345.8 236.2H347.5V219H345.8V236.2Z" fill="#263238"/>
<path d="M361.9 218.9H360.2V236.2H361.9V218.9Z" fill="#455A64"/>
<path d="M361.9 236.3H360.2V219H361.9V236.3ZM360.2 236.2H361.9V219H360.2V236.2Z" fill="#263238"/>
<path d="M362.5 218.1H337.1V219.7H362.5V218.1Z" fill="#455A64"/>
<path d="M362.5 219.8H337.1V218.2H362.5V219.8C362.5 219.7 362.5 219.8 362.5 219.8ZM337.1 219.7H362.5V218.1H337.1V219.7Z" fill="#263238"/>
<path d="M352.8 236.1C338.8 219.8 338.8 219.6 338.8 219.4H339.8H339.3L339.7 219.2C340.1 219.8 348.1 229.3 353.5 235.5L352.8 236.1Z" fill="#455A64"/>
<path d="M361.9 182.3H348.4V189.7H361.9V182.3Z" fill="#455A64"/>
<path d="M359.2 183.3L336.7 135.9L332.3 137.3L353.1 183.3H359.2Z" fill="#455A64"/>
<path d="M343.3 135.2L310.8 150.7L309.7 148.8L342.1 133.2L343.3 135.2Z" fill="#455A64"/>
<path d="M331.3 137.2C331.3 139.4 333.1 141.2 335.3 141.2C337.5 141.2 339.3 139.4 339.3 137.2C339.3 135 337.5 133.2 335.3 133.2C333.1 133.2 331.3 135 331.3 137.2Z" fill="#455A64"/>
<path d="M309.5 178.7C309.1 178.7 308.7 178.6 308.4 178.4C307.8 178 307.4 177.4 307.4 176.5C307.4 175.7 307.7 175.1 308.1 174.7C308.5 174.4 309 174.3 309.4 174.3L309.5 150.7C309.5 150.4 309.7 150.2 310 150.2C310.3 150.2 310.5 150.4 310.5 150.7L310.4 174.9C310.4 175.1 310.3 175.2 310.2 175.3C310.1 175.4 309.9 175.4 309.8 175.4C309.6 175.4 309.1 175.3 308.7 175.6C308.5 175.8 308.3 176.1 308.3 176.6C308.3 177.1 308.5 177.4 308.8 177.6C309.1 177.8 309.6 177.8 310 177.6C310.2 177.5 310.3 177.3 310.3 177.1C310.3 176.8 310.5 176.6 310.8 176.6C311.1 176.6 311.3 176.8 311.3 177.1C311.3 177.7 311 178.2 310.5 178.5C310.3 178.6 309.9 178.7 309.5 178.7Z" fill="#263238"/>
<path d="M307.9 162.3C307.9 163.6 308.9 164.6 310.2 164.6C311.5 164.6 312.5 163.6 312.5 162.3C312.5 161 311.5 160 310.2 160C308.9 160 307.9 161.1 307.9 162.3Z" fill="#455A64"/>
<path d="M361.8 183.9C361.6 183.9 361.4 183.8 361.3 183.6L343.1 134L328.7 127.5L310.1 149.1C309.9 149.3 309.6 149.3 309.4 149.2C309.2 149 309.2 148.7 309.3 148.5L328.1 126.6C328.2 126.4 328.5 126.4 328.7 126.5L343.6 133.3C343.7 133.4 343.8 133.5 343.9 133.6L362.2 183.4C362.3 183.7 362.2 183.9 361.9 184C361.9 183.9 361.9 183.9 361.8 183.9Z" fill="#263238"/>
<path d="M341.8 189.7C341.8 189.7 342.2 182.9 348.5 182.3L348.8 189.8L341.8 189.7Z" fill="#263238"/>
<path d="M307.6 150.2C307.6 151.5 308.6 152.5 309.9 152.5C311.2 152.5 312.2 151.5 312.2 150.2C312.2 148.9 311.2 147.9 309.9 147.9C308.6 147.9 307.6 148.9 307.6 150.2Z" fill="#455A64"/>
<path d="M326.5 126.9C326.5 128.1 327.4 129 328.6 129C329.8 129 330.7 128.1 330.7 126.9C330.7 125.7 329.8 124.8 328.6 124.8C327.4 124.8 326.5 125.7 326.5 126.9Z" fill="#455A64"/>
<path d="M341.5 134C341.5 135.2 342.4 136.1 343.6 136.1C344.8 136.1 345.7 135.2 345.7 134C345.7 132.8 344.8 131.9 343.6 131.9C342.5 131.9 341.5 132.8 341.5 134Z" fill="#455A64"/>
<path d="M313.6 168L312.3 166.3H307.6L306.4 168.2L309.2 172.4H311.2L313.6 168Z" fill="#FF725E"/>
<path d="M312.3 166.3L307.3 169.6L308.5 171.4L313.4 168.3L313.6 168L312.3 166.3Z" fill="white"/>
<path d="M131.7 268.6C132.363 268.6 132.9 268.063 132.9 267.4C132.9 266.737 132.363 266.2 131.7 266.2C131.037 266.2 130.5 266.737 130.5 267.4C130.5 268.063 131.037 268.6 131.7 268.6Z" fill="#263238"/>
<path d="M201.3 267.4C201.3 268.1 200.7 268.6 200.1 268.6C199.4 268.6 198.9 268 198.9 267.4C198.9 266.7 199.5 266.2 200.1 266.2C200.8 266.2 201.3 266.7 201.3 267.4Z" fill="#263238"/>
<path d="M268.5 268.6C269.163 268.6 269.7 268.063 269.7 267.4C269.7 266.737 269.163 266.2 268.5 266.2C267.837 266.2 267.3 266.737 267.3 267.4C267.3 268.063 267.837 268.6 268.5 268.6Z" fill="#263238"/>
<path d="M338.1 267.4C338.1 268.1 337.5 268.6 336.9 268.6C336.2 268.6 335.7 268 335.7 267.4C335.7 266.7 336.3 266.2 336.9 266.2C337.5 266.2 338.1 266.7 338.1 267.4Z" fill="#263238"/>
</svg>
