<svg width="718" height="39" viewBox="0 0 718 39" fill="none" xmlns="http://www.w3.org/2000/svg">
<path d="M717.7 0.600006C717.7 0.700006 557.1 0.899994 359 0.899994C160.8 0.899994 0.299988 0.800006 0.299988 0.600006C0.299988 0.500006 160.9 0.299988 359 0.299988C557.1 0.399988 717.7 0.500006 717.7 0.600006Z" fill="#263238"/>
<path d="M647.4 37.3C647.4 37.3 647.1 37.2 646.6 37C646.1 36.8 645.3 36.5 644.4 36.1C643.5 35.7 642.3 35.2 641 34.6C639.7 34 638.1 33.5 636.3 33.2C634.5 32.9 632.5 33 630.4 33.4C629.4 33.6 628.3 33.9 627.2 34.3C626.1 34.7 625.1 35.3 624 35.8C622.9 36.3 621.8 36.9 620.5 37.2C619.2 37.6 617.9 37.6 616.5 37.4C613.8 37 611.3 35.7 608.7 34.7C607.4 34.2 606.1 33.8 604.8 33.6C603.5 33.4 602.1 33.5 600.9 33.9C598.4 34.7 596.5 36.5 594.3 37.7C593.2 38.3 592 38.7 590.9 38.8C589.7 38.9 588.6 38.8 587.5 38.5C585.4 38 583.5 37.1 581.8 36.5C578.4 35.1 575.2 35.3 573.4 36.2C572.5 36.7 571.9 37.2 571.6 37.7C571.3 38.1 571.2 38.4 571.1 38.4C571.1 38.4 571.2 38.1 571.5 37.7C571.8 37.2 572.4 36.6 573.3 36.1C575.1 35.1 578.4 34.9 581.9 36.2C583.6 36.8 585.5 37.7 587.6 38.2C588.6 38.4 589.7 38.6 590.9 38.4C592 38.3 593.1 37.9 594.2 37.3C596.3 36.2 598.2 34.4 600.8 33.5C602.1 33.1 603.5 32.9 604.9 33.2C606.3 33.4 607.6 33.9 608.9 34.4C611.5 35.4 614 36.7 616.6 37.1C617.9 37.3 619.2 37.3 620.4 36.9C621.6 36.6 622.7 36.1 623.8 35.5C624.9 35 625.9 34.4 627 34C628.1 33.6 629.2 33.3 630.3 33.1C632.4 32.7 634.5 32.6 636.4 32.9C638.2 33.2 639.8 33.8 641.2 34.4C642.5 35 643.7 35.5 644.6 36C645.5 36.4 646.2 36.7 646.8 37C647.2 37.2 647.4 37.3 647.4 37.3Z" fill="#263238"/>
<path d="M383.9 25.4C383.9 25.4 383.6 25.3 383.1 25.1C382.6 24.9 381.8 24.6 380.9 24.2C380 23.8 378.8 23.3 377.5 22.7C376.2 22.1 374.6 21.6 372.8 21.3C371 21 369 21.1 366.9 21.5C365.9 21.7 364.8 22 363.7 22.4C362.6 22.8 361.6 23.4 360.5 23.9C359.4 24.4 358.3 25 357 25.3C355.7 25.7 354.4 25.7 353 25.5C350.3 25.1 347.8 23.8 345.2 22.8C343.9 22.3 342.6 21.9 341.3 21.7C340 21.5 338.6 21.6 337.4 22C334.9 22.8 333 24.6 330.8 25.8C329.7 26.4 328.5 26.8 327.4 26.9C326.2 27 325.1 26.9 324 26.6C321.9 26.1 320 25.2 318.3 24.6C314.9 23.2 311.7 23.4 309.9 24.3C309 24.8 308.4 25.3 308.1 25.8C307.8 26.2 307.7 26.5 307.6 26.5C307.6 26.5 307.7 26.2 308 25.8C308.3 25.3 308.9 24.7 309.8 24.2C311.6 23.2 314.9 23 318.4 24.3C320.1 24.9 322 25.8 324.1 26.3C325.1 26.5 326.2 26.7 327.4 26.5C328.5 26.4 329.6 26 330.7 25.4C332.8 24.3 334.7 22.5 337.3 21.6C338.6 21.2 340 21 341.4 21.3C342.8 21.5 344.1 22 345.4 22.5C348 23.5 350.5 24.8 353.1 25.2C354.4 25.4 355.7 25.4 356.9 25C358.1 24.7 359.2 24.2 360.3 23.6C361.4 23.1 362.4 22.5 363.5 22.1C364.6 21.7 365.7 21.4 366.8 21.2C368.9 20.8 371 20.7 372.9 21C374.7 21.3 376.3 21.9 377.7 22.5C379 23.1 380.2 23.6 381.1 24.1C382 24.5 382.7 24.8 383.3 25.1C383.7 25.3 383.9 25.4 383.9 25.4Z" fill="#263238"/>
<path d="M701 9.89999C701 9.99999 619.9 10.2 520 10.2C420 10.2 339 10.1 339 9.89999C339 9.79999 420 9.60001 520 9.60001C620 9.60001 701 9.69999 701 9.89999Z" fill="#455A64"/>
<path d="M532.3 16.4C532.3 16.5 511.1 16.7 484.9 16.7C458.7 16.7 437.5 16.6 437.5 16.4C437.5 16.2 458.7 16.1 484.9 16.1C511.1 16.1 532.3 16.2 532.3 16.4Z" fill="#455A64"/>
<path d="M573.5 16.4C573.5 16.5 567.6 16.7 560.2 16.7C552.9 16.7 546.9 16.6 546.9 16.4C546.9 16.2 552.8 16.1 560.2 16.1C567.5 16.1 573.5 16.2 573.5 16.4Z" fill="#FF725E"/>
<path d="M433.1 16.4C433.1 16.5 429 16.7 424 16.7C419 16.7 414.9 16.6 414.9 16.4C414.9 16.2 419 16.1 424 16.1C429 16.1 433.1 16.2 433.1 16.4Z" fill="#FF725E"/>
<path d="M104.9 8C104.9 8.1 88.3 8.29999 67.8 8.29999C47.3 8.29999 30.7 8.2 30.7 8C30.7 7.8 47.3 7.70001 67.8 7.70001C88.3 7.70001 104.9 7.9 104.9 8Z" fill="#FF725E"/>
<path d="M294.8 9.39999C294.8 9.49999 274.1 9.70001 248.5 9.70001C222.9 9.70001 202.2 9.59999 202.2 9.39999C202.2 9.19999 222.9 9.10001 248.5 9.10001C274.1 9.10001 294.8 9.19999 294.8 9.39999Z" fill="#FF725E"/>
</svg>
