<svg version="1.0" xmlns="http://www.w3.org/2000/svg" width="1066.7" height="1066.7" viewBox="0 0 800 800"><path d="M102 .5c0 .6 11 16.6 12 17.5.3.3 1 1.3 1.5 2.2.9 1.6 4 6.1 16.9 24.6 2.8 4.1 5.6 8.1 6.1 9 .6 1 1.3 1.9 1.6 2.2.3.3 3 4.1 5.9 8.5 3 4.4 6 8.6 6.7 9.3.7.7 1.3 1.7 1.3 2.2 0 .5.6 1.5 1.3 2.2.6.7 4.1 5.6 7.6 10.8 3.6 5.2 6.8 9.6 7.3 9.8.4.2.8.8.8 1.4 0 .5.8 2 1.8 3.3.9 1.2 2.3 3.1 3 4.1.7 1.1 3.5 5 6.2 8.9 2.8 3.8 5.3 7.8 5.6 8.7.3 1 .9 1.8 1.3 1.8.3 0 1.5 1.5 2.6 3.2 1 1.8 2.3 3.7 2.7 4.3.5.5 6.5 9.1 13.3 19 6.8 9.9 13.8 20 15.5 22.5 1.8 2.5 8.3 11.9 14.5 21 6.3 9.1 11.8 17 12.3 17.6.5.5 1.5 2.1 2.2 3.4.7 1.4 1.8 3 2.5 3.6.6.6 3.1 4.2 5.5 8 2.5 3.8 5.1 7.6 5.7 8.4 1 1.2 7.4 10.4 24.3 35 .6.8 3.2 4.5 5.8 8.2 12.6 17.9 17.2 24.8 17.2 25.7 0 .5.4 1.1.9 1.3.4.1 10 13.6 21.1 29.8 21 30.4 23.9 34.5 34.1 49 3.3 4.7 8.7 12.5 12.1 17.3 3.3 4.8 6.2 8.6 6.3 8.5 2.2-3.1 31.8-45.6 33.9-48.8 1.6-2.5 3.2-4.7 3.5-5 .4-.3 4.4-6.1 9-13 4.7-6.9 8.7-12.7 9-13 .3-.3 1.1-1.2 1.6-2.1.9-1.6 9.1-13.6 13.9-20.4 1.2-1.7 2.4-3.2 2.9-3.3.4-.2.7-.7.7-1.2s6-9.6 13.4-20.2c17.4-25 19.4-27.9 34.2-49.3 6.8-9.9 12.8-18.7 13.4-19.5.6-.8 7.6-11 15.6-22.5 8.1-11.6 16.3-23.5 18.2-26.5 2-3 4-6 4.5-6.5 2-2.5 16.7-23.6 16.7-24.1 0-.3.5-1 1-1.7 1.3-1.5 9.7-13.5 17.3-24.7 3.2-4.7 8.5-12.3 11.8-17 3.3-4.7 7.6-11 9.6-14 1.9-3 3.8-5.7 4.2-6 .3-.3 1.1-1.2 1.6-2.2.8-1.4 6.9-10.3 15.9-23.3 1.2-1.7 2.3-3.2 2.6-3.5.3-.3 1-1.2 1.5-2.2 1-1.7 11.2-16.5 17.4-25.3 1.9-2.8 4.8-7 6.5-9.5 1.7-2.5 3.6-5.1 4.3-5.8.7-.7 1.3-1.5 1.3-1.8 0-.2-13.7-.4-30.5-.4-18.3 0-30.5.4-30.5.9 0 .6-4.2 7-9.3 14.3-5.1 7.3-11.5 16.7-14.2 20.8-2.8 4.1-5.5 8-6 8.6-.6.6-2.8 3.7-5 7-2.2 3.2-4.2 6.1-4.5 6.4-.3.3-2.6 3.6-5.2 7.5-2.6 3.8-7 10.4-9.9 14.5-2.8 4.1-7.5 10.9-10.3 15-2.8 4.1-5.3 7.7-5.6 8-.3.3-2.8 3.9-5.6 8s-9.9 14.4-15.8 22.8c-5.8 8.5-10.6 15.8-10.6 16.2 0 .5-.4 1-.8 1.2-.4.1-3.7 4.6-7.2 9.8-3.6 5.2-6.7 9.7-7 10-.3.3-2.5 3.4-4.9 7-2.5 3.6-4.8 6.6-5.3 6.8-.4.2-.8.8-.8 1.3s-4.1 6.9-9.2 14.2c-5 7.2-11.5 16.6-14.2 20.7-2.8 4.1-5.3 7.7-5.6 8-.3.3-2.3 3.2-4.5 6.5s-4.3 6.2-4.6 6.5c-.3.3-5 7-10.4 15-12.2 18-13.9 20.4-14.5 21-1 1-7 10.1-7 10.6 0 .3-.6 1.2-1.2 1.9-2 2.2-3 3.6-7.3 10-2.2 3.3-4.3 6.4-4.8 7-.4.5-3.5 4.9-6.8 9.7-3.3 4.9-6.3 8.8-6.7 8.8-.4 0-3.3-3.7-6.4-8.3-16.8-24.4-20.2-29.2-21-29.5-.4-.2-.8-.8-.8-1.3 0-.6-2.1-4-4.7-7.7s-7.5-10.8-10.9-15.7c-3.5-5-6.7-9.5-7.2-10.1-.5-.5-1.5-2.1-2.2-3.4-.7-1.3-1.7-2.9-2.2-3.4-1.2-1.3-16.5-23.4-26-37.6-3.9-5.8-7.4-10.7-7.7-11-.3-.3-4.4-6.1-9-13-4.7-6.9-8.7-12.7-9-13-.3-.3-4.4-6.1-9-13s-8.7-12.7-9-13c-.3-.3-3.3-4.6-6.6-9.5-3.3-5-6.2-9.2-6.5-9.5-.3-.3-3.4-4.8-7-10-3.5-5.2-6.8-9.7-7.2-9.8-.4-.2-.8-.8-.8-1.3 0-1.1-7.1-11.3-8.2-11.7-.5-.2-.8-.9-.8-1.6 0-.7-.9-2.1-2-3.1s-2-2.4-2-3.2c0-.7-.4-1.3-1-1.3-.5 0-1-.6-1-1.4 0-.8-.3-1.6-.8-1.8-.4-.2-3.2-3.9-6.2-8.3-2.9-4.4-6-8.6-6.7-9.3-.7-.7-1.3-1.7-1.3-2.1 0-.4-1.1-2.1-2.5-3.7s-2.5-3.2-2.5-3.6c0-.4-.7-1.6-1.5-2.5-1.7-2.2-13.7-19.4-26.5-38.3L161.5.1 131.8 0c-16.4 0-29.8.2-29.8.5z"/><path d="M274 .9c0 .5.6 1.6 1.3 2.3.7.7 4.6 6.2 8.7 12.3 4.1 6 7.8 11.1 8.2 11.3.5.2.8 1 .8 1.7s.3 1.5.8 1.7c.4.1 2.6 3 4.8 6.3 2.3 3.3 6.1 8.9 8.5 12.5 2.4 3.6 4.9 7 5.4 7.6.6.7 3.9 5.6 7.5 10.9 3.6 5.3 8.1 11.8 10 14.5 8.1 11.2 31.6 45.3 32.5 47.1.5 1 1.3 1.9 1.7 1.9.5 0 .8.7.8 1.5s.3 1.5.8 1.5c.4 0 2.3 2.5 4.2 5.5 1.9 3 3.8 5.5 4.3 5.5.4 0 .7.4.7.9 0 .6 2.5 4.5 5.6 8.8 5.4 7.6 8.4 10.5 8.4 8.4 0-.9 6.5-10.5 9.9-14.7.4-.5 1.4-2.1 2.1-3.4.7-1.3 1.7-2.9 2.2-3.4.4-.6 2-2.5 3.3-4.1 1.4-1.7 2.8-3.8 3.1-4.8.3-.9 1-1.7 1.5-1.7s.9-.6.9-1.4c0-.8.3-1.6.8-1.8.4-.2 2.6-3 4.8-6.3 2.3-3.3 7.1-10.3 10.7-15.5 3.6-5.2 10-14.5 14.2-20.5 4.1-6.1 9.6-13.9 12.1-17.5 2.5-3.6 6.6-9.7 9.2-13.5 2.6-3.9 4.9-7.2 5.2-7.5.3-.3 2.3-3.2 4.5-6.5s4.3-6.2 4.6-6.5c.3-.3 1.4-2 2.4-3.8 1.1-1.7 2.3-3.2 2.7-3.2.4 0 .8-.7.8-1.5s.4-1.5.8-1.5c.5 0 1.4-1.1 2-2.5.7-1.4 1.7-3.1 2.3-3.8C490.8 15.7 501 1 501 .5c0-.3-13.3-.5-29.6-.5-29.5 0-29.6 0-31.5 2.2-1 1.3-1.8 2.6-1.9 3 0 .4-.7 1.6-1.5 2.5-.8 1-8.4 11.9-16.9 24.3-8.5 12.4-16 23-16.5 23.7-.6.7-1.1 1.6-1.1 2.2 0 .5-.4 1.1-.9 1.3-.7.3-2.7 3.1-7.6 10.6-1.3 2.1-2.1 3.2-4.3 6.1l-1.9 2.4-3.3-4.9c-1.9-2.7-4-5.5-4.7-6.2-.7-.7-1.3-1.7-1.3-2.2 0-.5-.6-1.5-1.2-2.2-.7-.7-4.2-5.6-7.8-10.8-3.5-5.2-6.8-9.7-7.2-9.8-.4-.2-.8-.8-.8-1.3 0-.7-8.5-13.4-11.7-17.4-.4-.6-2.6-3.7-4.8-7-2.2-3.3-4.6-6.6-5.2-7.3-.7-.7-1.3-1.7-1.3-2.2 0-.5-1.2-2.2-2.6-3.9L332.8 0h-29.4C286 0 274 .4 274 .9zM96 485.7V800h24.5c22.6 0 24.5-.1 24.5-1.8.1-.9.1-107.1.1-236 0-128.8.2-234.2.3-234.2.2 0 1.6 1.9 3.2 4.2 1.6 2.4 3.1 4.5 3.4 4.8.3.3 1.4 1.8 2.6 3.5 3.4 4.9 10.2 14.8 27 38.9 8.7 12.5 16.4 23.5 16.9 24.5 1.9 3 5 7.6 6.2 9.1.7.8 7.7 10.9 15.7 22.5 7.9 11.5 14.8 21.5 15.3 22 .4.6 3.7 5.3 7.3 10.5 3.5 5.2 6.8 9.9 7.2 10.5.5.5 4.1 5.8 8.2 11.6 7.3 10.5 9.2 14.4 7.5 15.4-.4.3-.6 1.2-.3 1.9.3.8.6 66.6.7 146.2l.2 144.9h24.2c15.5 0 24.4-.3 24.6-1 .1-.5.2-70.6.1-155.6l-.1-154.6-2.9-3.9c-1.6-2.1-3.2-4.1-3.5-4.4-.3-.3-1.4-1.9-2.3-3.5-.9-1.7-3.7-6-6.4-9.6-2.6-3.6-9-12.9-14.3-20.5-5.3-7.6-11.8-16.8-14.3-20.4-2.6-3.6-4.9-7.3-5.3-8.3-.3-.9-.9-1.7-1.4-1.7-.5 0-1.4-1-1.9-2.3-.6-1.2-4.3-6.8-8.3-12.4-3.9-5.7-11-15.8-15.6-22.5-4.6-6.8-8.8-12.5-9.3-12.6-.4-.2-.8-.9-.8-1.5 0-.7-1.4-2.8-3-4.7-1.7-1.9-3.6-4.7-4.3-6.3-.6-1.5-1.5-2.7-1.8-2.7-.4 0-2.2-2.5-4-5.5-1.8-3-3.7-5.5-4.1-5.5-.4 0-.8-.5-.8-1 0-.6-1.9-3.7-4.3-7-7-9.8-12.1-17.1-13.7-19.6-.8-1.2-6-8.7-11.5-16.6-5.5-7.8-11.8-16.9-14-20.2-12-17.6-20.9-30.1-21.7-30.4-.4-.2-.8-.9-.8-1.6 0-.7-.8-2.2-1.7-3.4-1-1.1-2.5-3-3.3-4.2-.8-1.2-2.3-3.3-3.2-4.5-1-1.3-1.8-2.8-1.8-3.3 0-.6-.4-1.2-.8-1.4-.5-.2-2.3-2.6-4.2-5.3-1.8-2.8-3.6-5.2-3.9-5.5-.3-.3-1-1.3-1.6-2.2-1.7-2.8-8.8-13.3-9.4-13.8-.3-.3-1-1.2-1.6-2.1-2.8-4.6-10.6-15.9-11.7-17-.8-.8-2.3-3-3.6-4.9l-2.2-3.5v314.2zm577-304.9c-3 4.6-6 8.9-6.6 9.5-.6.7-1.9 2.5-3 4.2-1 1.6-2.2 3.4-2.7 4-.4.5-6.4 9.1-13.2 19-6.8 9.9-12.7 18.4-13.2 19-.4.5-3.1 4.4-5.8 8.5-2.8 4.1-5.3 7.9-5.8 8.5-6.1 8.2-7.7 10.5-7.7 11.4 0 .5-.4 1.1-.8 1.3-.4.1-4.3 5.5-8.7 11.8-4.3 6.3-9.3 13.5-11 16-1.7 2.5-6.2 9-10 14.5s-7.1 10.2-7.4 10.5c-.3.3-4.4 6.1-9 13s-8.8 12.6-9.3 12.8c-.4.2-.8.7-.8 1.2s-5.5 8.6-12.1 18.1c-6.7 9.6-12.6 18.4-13.2 19.6-.6 1.3-1.3 2.3-1.6 2.3-.4 0-2.7 3-5.1 6.7-2.4 3.8-4.8 6.9-5.2 7.1-.4.2-.8 1-.8 1.8s-.4 1.4-1 1.4c-.5 0-1 .6-1 1.4 0 .8-.4 1.6-.8 1.8-.5.1-2.3 2.5-4.2 5.3-1.8 2.7-3.6 5.2-3.9 5.5-.3.3-1 1.3-1.6 2.2-3.6 6-14 20.8-14.7 20.8-.4 0-.8.5-.8 1.1 0 .9-4.4 7.7-7.3 11.4-.5.5-4.4 6.2-8.7 12.5-4.4 6.3-8.3 11.9-8.7 12.5-.5.5-2.3 3.2-4 5.8-3.2 4.9-3.2 5-3.3 18 0 14.7 0 14.5.1 22.4v7.8c-.1 1.1-.1 4.7 0 8v8c-.1 1.1-.1 4.7 0 8 0 3.3 0 6.9-.1 8-.1 1.8-.1 142 0 145.2.1 3.5.1 13 .1 14.8-.1 1.1-.1 4.7 0 8v8c-.1 1.1-.1 4.7 0 8v8c-.1 1.1 0 11.2.1 22.5l.3 20.5 23.5.1c12.9 0 24-.3 24.5-.7.7-.5 1-51.1.9-148.6l-.1-147.8 6.5-9.5c3.6-5.2 7.3-10.5 8.1-11.6.9-1.2 2.2-3 2.9-4 10.6-15.6 23.7-34.3 24.9-35.7.9-.9 1.2-1.7.7-1.7s-.4-.4.3-.8c.6-.4 3.1-3.7 5.6-7.2 2.4-3.6 6.1-9 8.3-12.1 8.7-12.5 16-23.1 16.9-24.7.6-.9 1.8-2.5 2.8-3.6.9-1.1 1.7-2.3 1.7-2.7 0-.4.6-1.4 1.3-2.1.6-.7 2.6-3.3 4.2-5.8 1.7-2.5 3.4-5 3.8-5.5.4-.6 3.9-5.5 7.7-11 3.8-5.5 7.2-10.5 7.7-11.1.4-.5 1.3-1.8 1.8-2.7 4.1-6.6 14.2-20.6 15-20.7.7 0 1 79.1 1 235.2v235.3h49V486.7c0-172.1-.2-313.2-.5-313.6-.3-.4-3 3.1-6 7.7z"/></svg>