<svg width="81" height="72" viewBox="0 0 81 72" fill="none" xmlns="http://www.w3.org/2000/svg">
<path fill-rule="evenodd" clip-rule="evenodd" d="M36.1254 16.7077C35.9566 15.8639 36.463 15.864 36.9694 16.2015C37.6447 16.7078 37.9823 17.3828 38.6575 17.8891C40.3456 19.408 42.2025 17.214 40.8521 15.8639C39.8392 15.0201 38.9952 14.1763 38.9952 12.995C38.9952 12.6575 38.9952 12.3199 38.9952 11.9824H40.8521V12.1512C40.8521 12.32 40.8521 12.4887 41.0209 12.8262C41.5273 13.8388 42.3714 14.1763 43.0466 14.5139C45.9163 16.539 44.5659 20.4205 41.1897 21.0956C39.6704 21.4331 38.3199 20.9268 37.3071 19.5767C36.9695 19.2392 36.8006 18.5642 36.6318 17.8891C36.463 17.3828 36.2942 17.214 36.1254 16.7077Z" fill="#808184"/>
<path fill-rule="evenodd" clip-rule="evenodd" d="M41.3587 9.78809V11.982H38.1514V9.78809H39.8395H40.5147H41.3587Z" fill="#6E6F71"/>
<path fill-rule="evenodd" clip-rule="evenodd" d="M44.7347 2.70021L39.6704 0L34.7749 2.70021L37.4759 9.78822H39.8392H40.5144H42.0337L44.7347 2.70021Z" fill="#E67C25"/>
<path fill-rule="evenodd" clip-rule="evenodd" d="M35.2808 3.88151L38.3193 0.84381L39.6698 0L40.6827 0.506266L35.7872 5.56913L35.2808 3.88151Z" fill="#6E6F71"/>
<path fill-rule="evenodd" clip-rule="evenodd" d="M36.4629 7.08804L42.2024 1.3501L43.5529 2.19391L36.9693 8.77566L36.4629 7.08804Z" fill="#6E6F71"/>
<path fill-rule="evenodd" clip-rule="evenodd" d="M38.1514 9.78809L44.3973 3.54395L43.0468 7.08795L40.3459 9.78809H39.8395H38.1514Z" fill="#6E6F71"/>
<path fill-rule="evenodd" clip-rule="evenodd" d="M37.9824 17.3829C38.32 17.2142 38.4889 17.2142 38.8265 17.0454C39.3329 16.8767 40.0081 16.8767 40.5146 17.2142L77.6527 33.0778H74.2765L40.0081 18.5643C39.8393 18.5643 39.6705 18.5643 39.5017 18.5643C39.1641 18.5643 38.8265 18.3955 38.4889 18.058C38.32 17.7205 38.1512 17.5517 37.9824 17.3829Z" fill="#A7A9AC"/>
<path fill-rule="evenodd" clip-rule="evenodd" d="M1.51904 33.0769L36.6315 18.0571C36.8003 18.5634 36.8003 19.0697 37.1379 19.4072L5.06406 33.0769H1.51904Z" fill="#A7A9AC"/>
<path fill-rule="evenodd" clip-rule="evenodd" d="M0 33.0776H80.0158V71.2179H56.3824V70.0365H51.1493V71.2179H42.7089V70.0365H37.307V71.2179H28.8665V70.0365H23.6334V71.2179H0V33.0776Z" fill="#E67C25"/>
<path d="M4.55803 34.0903H2.70117V69.024H4.55803V34.0903Z" fill="#DC662B"/>
<path d="M8.27144 34.0903H6.41455V69.024H8.27144V34.0903Z" fill="#DC662B"/>
<path d="M11.8169 34.0903H9.95996V69.024H11.8169V34.0903Z" fill="#DC662B"/>
<path d="M15.5307 34.0903H13.6738V69.024H15.5307V34.0903Z" fill="#DC662B"/>
<path d="M19.0756 34.0903H17.2188V69.024H19.0756V34.0903Z" fill="#DC662B"/>
<path d="M22.789 34.0903H20.9321V69.024H22.789V34.0903Z" fill="#DC662B"/>
<path d="M26.5034 34.0903H24.6465V69.024H26.5034V34.0903Z" fill="#DC662B"/>
<path d="M30.0483 34.0903H28.1914V69.024H30.0483V34.0903Z" fill="#DC662B"/>
<path d="M33.7617 34.0903H31.9048V69.024H33.7617V34.0903Z" fill="#DC662B"/>
<path d="M37.3071 34.0903H35.4502V69.024H37.3071V34.0903Z" fill="#DC662B"/>
<path d="M41.021 34.0903H39.1641V69.024H41.021V34.0903Z" fill="#DC662B"/>
<path d="M44.5654 34.0903H42.7085V69.024H44.5654V34.0903Z" fill="#DC662B"/>
<path d="M48.2798 34.0903H46.4229V69.024H48.2798V34.0903Z" fill="#DC662B"/>
<path d="M51.8246 34.0903H49.9678V69.024H51.8246V34.0903Z" fill="#DC662B"/>
<path d="M55.538 34.0903H53.6812V69.024H55.538V34.0903Z" fill="#DC662B"/>
<path d="M59.0835 34.0903H57.2266V69.024H59.0835V34.0903Z" fill="#DC662B"/>
<path d="M62.7973 34.0903H60.9404V69.024H62.7973V34.0903Z" fill="#DC662B"/>
<path d="M66.3423 34.0903H64.4854V69.024H66.3423V34.0903Z" fill="#DC662B"/>
<path d="M70.0556 34.0903H68.1987V69.024H70.0556V34.0903Z" fill="#DC662B"/>
<path d="M73.6011 34.0903H71.7441V69.024H73.6011V34.0903Z" fill="#DC662B"/>
<path d="M77.3149 34.0903H75.458V69.024H77.3149V34.0903Z" fill="#DC662B"/>
</svg>
