<svg width="69" height="91" viewBox="0 0 69 91" fill="none" xmlns="http://www.w3.org/2000/svg">
<path d="M7.96398 1.33645L2.89844 67.9326L53.2183 71.8494L58.2839 5.25327L7.96398 1.33645Z" fill="#CCB7A3"/>
<path opacity="0.09" d="M52.6595 14.1116L36.5808 16.1769C33.978 16.5115 31.3351 16.3058 28.8135 15.5726L13.2355 11.045C10.1366 10.2628 8.04695 7.20876 8.30349 3.83593L8.45795 1.80469L58.2439 5.24577L58.1206 7.82837C57.8649 11.2012 55.8401 13.8179 52.6595 14.1116Z" fill="#272525"/>
<path d="M52.1258 13.6394L36.0471 15.7048C33.4444 16.04 30.8014 15.8347 28.2798 15.1013L12.7018 10.5728C9.60287 9.78795 7.51326 6.7348 7.7698 3.36466L7.92426 1.33252L58.2438 5.24594L58.0893 7.27808C57.8328 10.6509 55.3028 13.3458 52.1258 13.6394Z" fill="#D3BFAF"/>
<path d="M31.5583 27.5889C30.5045 27.5052 29.5265 27.0024 28.8385 26.1906C28.1505 25.3788 27.8086 24.3242 27.8877 23.2579L28.62 13.6181C28.6602 13.0898 28.8028 12.5746 29.0398 12.1021C29.2767 11.6296 29.6034 11.2088 30.001 10.864C30.3987 10.5192 30.8597 10.2569 31.3575 10.0923C31.8554 9.92766 32.3804 9.86383 32.9027 9.90446C33.4249 9.94508 33.9341 10.0894 34.4013 10.3291C34.8684 10.5688 35.2843 10.8992 35.6251 11.3015C35.966 11.7038 36.2252 12.1701 36.388 12.6737C36.5508 13.1773 36.6139 13.7085 36.5737 14.2368L35.8414 23.8767C35.7584 24.9428 35.261 25.9323 34.4581 26.6281C33.6553 27.324 32.6125 27.6695 31.5583 27.5889ZM32.8765 10.2506C31.9134 10.1768 30.9606 10.4924 30.2272 11.1282C29.4939 11.7641 29.0397 12.6682 28.9644 13.6423L28.2285 23.2831C28.1919 23.7656 28.2495 24.2508 28.3982 24.7108C28.5469 25.1708 28.7837 25.5967 29.0951 25.9641C29.4064 26.3315 29.7863 26.6333 30.213 26.8523C30.6396 27.0712 31.1048 27.203 31.5818 27.2401C32.0588 27.2771 32.5384 27.2188 32.9931 27.0684C33.4478 26.918 33.8688 26.6785 34.2321 26.3635C34.5953 26.0485 34.8936 25.6642 35.11 25.2326C35.3265 24.801 35.4567 24.3305 35.4934 23.8479L36.2257 14.208C36.2987 13.2343 35.9872 12.2711 35.3594 11.5293C34.7316 10.7875 33.8388 10.3277 32.8765 10.2506Z" fill="#F9DD82"/>
<path d="M35.3986 15.3015C36.8889 13.7939 36.8889 11.3496 35.3985 9.84204C33.9082 8.33444 31.492 8.33444 30.0017 9.84204C28.5114 11.3496 28.5114 13.7939 30.0017 15.3015C31.492 16.8091 33.9082 16.8091 35.3986 15.3015Z" fill="#AA7355"/>
<path d="M33.0888 14.508C34.1473 14.2908 34.8312 13.2467 34.6165 12.1759C34.4017 11.1052 33.3695 10.4133 32.3111 10.6305C31.2526 10.8478 30.5686 11.8919 30.7834 12.9627C30.9982 14.0334 32.0303 14.7253 33.0888 14.508Z" fill="#BDB39B"/>
<path d="M33.2931 13.2728C33.6746 12.942 33.7188 12.361 33.3918 11.975C33.0648 11.589 32.4904 11.5443 32.1088 11.8751C31.7273 12.2059 31.6831 12.787 32.0101 13.173C32.3371 13.5589 32.9115 13.6037 33.2931 13.2728Z" fill="#434244"/>
<path d="M35.5663 25.1853C35.8206 23.0688 34.3307 21.1445 32.2385 20.8873C30.1463 20.63 28.244 22.1372 27.9897 24.2537C27.7354 26.3702 29.2254 28.2945 31.3176 28.5517C33.4098 28.809 35.312 27.3018 35.5663 25.1853Z" fill="#AA7355"/>
<path d="M33.0496 26.2201C33.8697 25.5091 33.9647 24.2602 33.2618 23.4307C32.5589 22.6011 31.3244 22.505 30.5043 23.216C29.6843 23.927 29.5893 25.1759 30.2922 26.0055C30.995 26.835 32.2296 26.9311 33.0496 26.2201Z" fill="#BDB39B"/>
<path d="M32.6838 24.784C32.6701 24.9655 32.6035 25.1389 32.4923 25.2821C32.3812 25.4254 32.2306 25.5321 32.0595 25.5887C31.8885 25.6453 31.7046 25.6493 31.5313 25.6003C31.358 25.5512 31.2029 25.4512 31.0858 25.313C30.9686 25.1747 30.8947 25.0044 30.8732 24.8237C30.8517 24.6429 30.8838 24.4597 30.9652 24.2973C31.0467 24.135 31.1739 24.0007 31.3308 23.9115C31.4877 23.8223 31.6673 23.7822 31.8467 23.7962C31.9658 23.8054 32.082 23.8382 32.1885 23.8929C32.295 23.9475 32.3899 24.0228 32.4676 24.1146C32.5454 24.2063 32.6045 24.3127 32.6416 24.4275C32.6787 24.5424 32.693 24.6635 32.6838 24.784Z" fill="#434244"/>
<path d="M47.2587 0H0V65.9408H47.2587V0Z" fill="#FFFFF5"/>
<path d="M14.5238 13.1223H41.0231C41.743 13.1223 41.743 11.9917 41.0231 11.9917H14.5238C13.8039 11.9917 13.8039 13.1223 14.5238 13.1223Z" fill="#BBBCBF"/>
<path d="M6.14998 19.8196H41.0228C41.7427 19.8196 41.7427 18.6899 41.0228 18.6899H6.14998C5.42917 18.6899 5.42917 19.8196 6.14998 19.8196Z" fill="#BBBCBF"/>
<path d="M6.14998 26.5173H41.0228C41.7427 26.5173 41.7427 25.3867 41.0228 25.3867H6.14998C5.42917 25.3867 5.42917 26.5173 6.14998 26.5173Z" fill="#BBBCBF"/>
<path d="M6.14998 33.2145H41.0228C41.7427 33.2145 41.7427 32.084 41.0228 32.084H6.14998C5.42917 32.084 5.42917 33.2145 6.14998 33.2145Z" fill="#BBBCBF"/>
<path d="M6.14998 39.9118H41.0228C41.7427 39.9118 41.7427 38.7812 41.0228 38.7812H6.14998C5.42917 38.7812 5.42917 39.9118 6.14998 39.9118Z" fill="#BBBCBF"/>
<path d="M6.92437 56.7222H21.8322C22.2379 56.7222 22.2379 56.0864 21.8322 56.0864H6.92437C6.5187 56.0864 6.5187 56.7222 6.92437 56.7222Z" fill="#51927E"/>
<path d="M36.856 49.3756C35.1073 49.301 33.2769 49.31 31.7696 50.0104C30.2623 50.7109 29.2166 52.312 29.8557 53.747C30.0999 54.2938 33.9267 55.2915 34.3705 55.7414C37.765 59.186 37.7837 62.0946 41.1782 65.5393C42.642 64.776 43.4569 63.3572 43.986 61.9393C44.4431 60.7144 44.7387 59.4429 45.0334 58.1749C45.4915 56.1993 45.9051 54.0038 44.6517 52.2312C43.1045 50.0428 39.757 49.4995 36.856 49.3756Z" fill="#E5CAB1"/>
<path d="M51.3717 66.3484L50.3793 61.7291L49.591 54.1349L40.3901 47.2393L29.0073 50.921C29.0073 50.921 27.7414 52.4889 29.5284 53.0914C31.3153 53.694 40.0519 52.4889 40.0519 52.4889L43.0301 59.7195L43.4269 71.5729L46.2062 79.406L55.74 74.9816L51.3717 66.3484Z" fill="#EDD0B3"/>
<path d="M24.0916 55.7892L23.4418 55.756C23.3921 55.756 23.3814 55.7111 23.424 55.6842L24.0614 55.281L25.993 54.6138L26.2229 55.3833L24.0916 55.7892Z" fill="#D0D1D3"/>
<path d="M27.6676 55.6245L25.2105 55.7493C24.5935 55.7807 24.4115 55.1207 24.9619 54.8441L27.206 53.6992L52.1074 47.293L52.6977 49.7615L27.6676 55.6245Z" fill="#3B464C"/>
<path d="M52.3805 49.9393L51.728 47.2454L53.8025 46.7326C54.131 46.6509 54.4728 46.8934 54.5642 47.2714L54.8838 48.5942C54.9725 48.974 54.7834 49.3476 54.455 49.4293L52.3805 49.9393Z" fill="#7E8587"/>
<path d="M53.9642 48.7312L53.6846 47.5746L55.6375 47.0914C55.9473 47.0151 56.2304 47.0851 56.2704 47.2477L56.4071 47.8143C56.4461 47.9778 56.2296 48.1735 55.9171 48.2481L53.9642 48.7312Z" fill="#7E8587"/>
<path d="M47.3499 50.4541L47.2842 50.1847C47.2558 50.0671 47.3526 49.9432 47.4991 49.9063L52.3032 48.7183C52.4497 48.6824 52.5917 48.748 52.6201 48.8656L52.6849 49.135C52.7133 49.2526 52.6175 49.3774 52.471 49.4134L47.6686 50.6005C47.5195 50.6373 47.3775 50.5708 47.3499 50.4541Z" fill="#7E8587"/>
<path d="M39.4739 50.4192L38.6064 50.6338L39.1905 53.0501L40.058 52.8355L39.4739 50.4192Z" fill="#A36652"/>
<path d="M43.6318 71.6224C43.3025 71.5146 43.0903 70.9498 42.8151 70.5681C42.4973 70.1272 41.5724 69.5804 41.1862 69.1978C39.7304 67.7485 38.7353 66.5434 37.1197 65.2781C35.8628 64.2957 33.8406 62.436 33.8211 62.2304C33.7705 61.6359 33.5317 61.0755 33.4589 60.4838L32.865 55.6347C32.7132 54.3927 32.4744 51.7733 34.0297 51.248C35.6479 50.7047 36.4912 52.9452 36.5693 54.1736C36.6421 55.3114 36.5001 56.5084 36.9635 57.5456C37.536 58.8279 38.8702 59.5373 39.9887 60.3733C42.7663 62.4504 43.9638 60.8968 44.6837 69.3289C44.7361 69.9476 44.7183 70.8402 44.2603 71.3323C44.0046 71.6107 43.8022 71.6781 43.6318 71.6224Z" fill="#EDD0B3"/>
<path d="M44.8807 81.9234L42.4556 75.6456L53.8216 67.5439L57.6014 76.1386L44.9988 82.2511L44.8807 81.9234Z" fill="white"/>
<path d="M57.4987 70.6479C57.4987 70.6479 46.5003 81.6186 44.0059 83.0473L45.8372 90.9999H68.9996L57.4987 70.6479Z" fill="#2E4661"/>
<path d="M45.6069 78.0935C45.8971 77.8 45.8971 77.3241 45.6069 77.0306C45.3167 76.737 44.8463 76.737 44.5561 77.0306C44.266 77.3241 44.266 77.8 44.5561 78.0935C44.8463 78.387 45.3167 78.387 45.6069 78.0935Z" fill="#59595B"/>
<path d="M18.9487 53.8441C18.4254 54.0392 17.8653 54.1126 17.3101 54.0587L17.2319 53.8315C17.1733 53.6609 16.8946 53.625 16.8547 53.8315C16.8414 53.8971 16.7091 54.4754 16.4925 54.1907C16.3656 54.0237 16.4366 53.7624 16.4588 53.5729C16.4836 53.3664 16.4801 53.1042 16.3416 52.9344C16.1809 52.7387 15.7397 52.5402 15.5356 52.798C15.2169 53.1985 15.6962 53.7408 15.319 54.1746C15.097 54.4296 14.6976 54.2644 14.4961 54.0587C14.7624 53.599 14.7082 53.079 14.4712 52.6148C14.4534 52.583 14.4276 52.5566 14.3964 52.5383C14.3652 52.5199 14.3298 52.5102 14.2937 52.5102C14.2576 52.5102 14.2222 52.5199 14.191 52.5383C14.1598 52.5566 14.134 52.583 14.1161 52.6148C13.9235 53.0251 13.817 53.5774 13.9865 54.0138C13.8974 54.0795 13.7917 54.1181 13.6817 54.1253C13.5716 54.1324 13.4619 54.1078 13.3652 54.0542C13.5465 53.7735 13.6665 53.4568 13.717 53.1254C13.7675 52.794 13.7474 52.4555 13.6581 52.1325C13.6462 52.0921 13.6231 52.0561 13.5914 52.0287C13.5597 52.0013 13.5208 51.9838 13.4795 51.9783C13.4382 51.9728 13.3962 51.9795 13.3586 51.9977C13.321 52.0158 13.2893 52.0445 13.2675 52.0805C12.9506 52.5295 12.6532 53.0054 12.6887 53.5801C12.6982 53.7497 12.7472 53.9146 12.8317 54.0614C12.5107 54.4292 12.063 54.6592 11.58 54.7044C11.572 54.6747 11.5649 54.6451 11.5561 54.6146C11.5223 54.4951 11.4833 54.3775 11.4433 54.2599C11.4433 53.9842 11.4478 53.7076 11.4593 53.4319C11.5019 53.3637 11.5481 53.2954 11.6004 53.2227C11.8275 52.8844 12.0296 52.5297 12.205 52.1613C12.9149 50.6884 13.1992 49.0427 13.0252 47.4136C13.0246 47.3723 13.012 47.332 12.989 47.2978C12.966 47.2636 12.9336 47.237 12.8957 47.2213C12.8579 47.2057 12.8163 47.2016 12.7762 47.2096C12.7361 47.2176 12.6992 47.2373 12.6701 47.2664C12.2378 47.6184 12.0407 48.1257 11.8765 48.6466C11.4157 50.1463 11.1443 51.699 11.0687 53.2676L11.019 53.3394C10.7864 53.669 10.9196 54.0291 11.0456 54.373C11.0456 54.5526 11.0495 54.7322 11.0572 54.9118C11.0581 54.9651 11.0794 55.016 11.1167 55.0537C11.1539 55.0914 11.2042 55.1129 11.2569 55.1139H11.2658C11.3561 55.492 11.4222 55.8756 11.4637 56.2624C11.5802 57.37 11.4856 58.49 11.185 59.5616C10.7838 59.3712 10.7287 57.2313 10.7181 56.9431C10.7026 56.1977 10.7299 55.452 10.7997 54.7098C10.8318 54.6906 10.8571 54.6618 10.8721 54.6273C10.8871 54.5928 10.891 54.5544 10.8832 54.5176L10.8264 54.2078C10.7926 54.021 10.4891 54.0201 10.4553 54.2078C10.2955 55.1058 10.2778 56.0361 10.3071 56.9431C10.3204 57.4181 10.3612 57.8913 10.4154 58.3628C10.4589 58.7453 10.4846 59.1557 10.6337 59.5122C10.8068 59.9289 11.406 60.2791 11.5827 59.6855C11.8181 58.8611 11.9359 58.0068 11.9324 57.1487C11.9319 56.4593 11.8512 55.7724 11.6919 55.1022C12.2401 55.0389 12.7483 54.7805 13.1255 54.373C13.2071 54.4335 13.2967 54.4818 13.3918 54.5167C13.6501 54.6128 13.9732 54.5257 14.2156 54.356C14.2596 54.4006 14.3074 54.4411 14.3585 54.4772C14.8476 54.8103 15.6243 54.7618 15.8232 54.1027C15.9226 53.7741 15.8906 53.4472 15.8312 53.1149C15.8606 53.0979 15.8954 53.0929 15.9284 53.1009C15.9614 53.1089 15.9901 53.1293 16.0087 53.158C16.1277 53.2532 16.0611 53.5846 16.046 53.7166C16.0247 53.9079 16.0105 54.1243 16.1063 54.3003C16.2324 54.5338 16.4197 54.708 16.6949 54.6936C16.8609 54.6846 16.9825 54.5625 17.0686 54.408C17.0987 54.4249 17.132 54.4352 17.1662 54.4386C17.8029 54.5252 18.4508 54.4543 19.0544 54.232C19.2931 54.1485 19.1893 53.7561 18.9487 53.8441ZM11.7292 50.9912C11.8339 50.386 11.9759 49.7888 12.1393 49.1952C12.2635 48.7462 12.386 48.2757 12.6506 47.8976C12.7261 49.5227 12.3359 51.1352 11.5268 52.5411C11.5729 52.0233 11.6404 51.5066 11.7292 50.9912ZM13.3208 52.7872C13.3179 53.0961 13.2424 53.3999 13.1006 53.6735C13.0358 53.3996 13.1601 53.0754 13.3208 52.7899V52.7872Z" fill="#3B464C"/>
<path d="M19.9623 54.6875C19.9231 54.6965 19.8881 54.7188 19.863 54.7506C19.8379 54.7824 19.8242 54.8219 19.8242 54.8626C19.8242 54.9033 19.8379 54.9428 19.863 54.9746C19.8881 55.0064 19.9231 55.0287 19.9623 55.0377C20.1851 55.0413 20.1851 54.6875 19.9623 54.6875Z" fill="#3B464C"/>
</svg>
