<svg width="85" height="70" viewBox="0 0 85 70" fill="none" xmlns="http://www.w3.org/2000/svg">
<path fill-rule="evenodd" clip-rule="evenodd" d="M55.3953 52.4133V13.5625H9.75049V52.4133H55.3953Z" fill="#EDCC88"/>
<path d="M55.3957 13.5625H44.6558V52.272H55.3957V13.5625Z" fill="#D8B05C"/>
<path fill-rule="evenodd" clip-rule="evenodd" d="M27.698 38.9922C29.8177 39.1334 31.6548 40.5462 32.2201 42.5241C31.7961 42.1002 31.2309 41.959 30.6656 41.959C30.1003 41.959 29.5351 42.2415 29.1111 42.5241C28.6872 42.2415 28.2632 41.959 27.698 41.959V47.61C27.698 47.7513 27.698 47.8925 27.8393 48.0338C27.9806 48.1751 28.122 48.1751 28.2633 48.1751C28.4046 48.1751 28.5459 48.0338 28.6872 48.0338C28.8285 47.8925 28.8285 47.7513 28.8285 47.61H29.2525C29.2525 47.8925 29.1112 48.1751 28.9698 48.4577C28.8285 48.5989 28.5459 48.7402 28.2633 48.7402C27.9806 48.7402 27.698 48.5989 27.5567 48.4577C27.4154 48.3164 27.2741 48.0338 27.2741 47.61V41.959C26.7088 41.959 26.2848 42.2415 25.8609 42.5241C25.437 42.1002 24.8717 41.959 24.3064 41.959C23.7412 41.959 23.1759 42.2415 22.752 42.5241C23.4585 40.5462 25.1543 38.9922 27.2741 38.9922V38.1445H27.698V38.9922Z" fill="#59595B"/>
<path fill-rule="evenodd" clip-rule="evenodd" d="M34.3394 47.6098H41.9704V48.74H34.3394V47.6098ZM40.6986 47.186V40.8286H41.2638L40.1333 38.7095L39.0028 40.8286H39.568V47.186H40.6986ZM36.6004 47.186V40.8286H37.1657L36.0352 38.7095L34.9046 40.8286H35.4699V47.186H36.6004Z" fill="#59595B"/>
<path fill-rule="evenodd" clip-rule="evenodd" d="M20.4906 38.9922C20.0667 41.959 18.6535 44.2194 16.8164 44.5019V48.0338H18.6535V48.8814H14.5553V48.0338H16.3924V44.5019C14.5553 44.2194 13.1422 41.959 12.7183 38.9922H18.5122L18.9361 40.1224H18.3709L18.9361 42.1003L18.7948 40.4049H19.2187L19.0774 38.9922H20.4906Z" fill="#59595B"/>
<path fill-rule="evenodd" clip-rule="evenodd" d="M24.4473 13.5625H29.3933V21.0501L28.5454 21.1914L27.6975 20.6263L26.4257 21.3327L25.4365 20.6263L24.4473 21.3327V13.5625Z" fill="#A5896B"/>
<path fill-rule="evenodd" clip-rule="evenodd" d="M48.7539 13.5625H51.2976V21.0501L50.8736 21.1914L50.4497 20.6263L49.8844 21.3327L49.3192 20.6263L48.7539 21.3327V13.5625Z" fill="#A5896B"/>
<path d="M80.9736 52.4131H0V62.161H80.9736V52.4131Z" fill="#E67C25"/>
<path fill-rule="evenodd" clip-rule="evenodd" d="M5.93555 69.3662H14.4145V67.6709H66.5598V69.3662H75.0387V62.1611H5.93555V69.3662Z" fill="#414243"/>
<path d="M72.4949 21.4736H69.2446V52.4129H72.4949V21.4736Z" fill="#BDBDBE"/>
<path d="M74.8971 21.4736H72.4946V52.4129H74.8971V21.4736Z" fill="#808184"/>
<path d="M79.7019 19.3545H65.5703V21.3323H79.7019V19.3545Z" fill="#DC662B"/>
<path fill-rule="evenodd" clip-rule="evenodd" d="M72.0706 0C79.1364 0 84.789 5.65102 84.789 12.7148C84.789 15.1165 84.0824 17.3769 82.9519 19.3547H61.048C59.9175 17.3769 59.2109 15.1165 59.2109 12.7148C59.3523 5.79229 65.0049 0 72.0706 0Z" fill="#E67C25"/>
<path fill-rule="evenodd" clip-rule="evenodd" d="M72.0708 12.5734L62.744 15.964C62.32 14.8338 62.1787 13.7036 62.1787 12.5734C62.1787 7.06363 66.5595 2.68408 72.0708 2.68408C77.582 2.68408 81.9628 7.06363 81.9628 12.5734C81.9628 13.7036 81.8215 14.8338 81.3975 15.964L72.0708 12.5734Z" fill="#FDF9D7"/>
<path fill-rule="evenodd" clip-rule="evenodd" d="M65.853 5.50977L70.9404 12.5735L72.3536 11.4433L65.853 5.50977Z" fill="#EC2027"/>
</svg>
