<svg width="71" height="94" viewBox="0 0 71 94" fill="none" xmlns="http://www.w3.org/2000/svg">
<path fill-rule="evenodd" clip-rule="evenodd" d="M23.3232 0H70.2633V93.8535H67.6229V2.78627H26.1103V93.8535H23.3232V0Z" fill="#BBBDBF"/>
<path d="M67.6224 2.78613H26.1099V93.8533H67.6224V2.78613Z" fill="#58595B"/>
<path fill-rule="evenodd" clip-rule="evenodd" d="M26.1102 2.78613C32.5645 3.37272 39.0187 3.95932 45.3263 4.5459C51.6339 5.13249 57.7947 5.71904 63.8089 6.30563C63.8089 20.9702 63.8089 35.4882 63.8089 50.1528C63.8089 64.8174 63.8089 79.3354 63.8089 94C57.6481 94 51.4872 94 45.1796 94C38.872 94 32.4178 94 25.8169 94C25.8169 78.7488 25.8169 63.6442 25.8169 48.3931C26.1103 33.1419 26.1102 17.8907 26.1102 2.78613Z" fill="#E6E7E8"/>
<path fill-rule="evenodd" clip-rule="evenodd" d="M57.9415 64.9644V84.0283L32.418 83.7351V64.0845L57.9415 64.9644Z" fill="#D0D2D3"/>
<path fill-rule="evenodd" clip-rule="evenodd" d="M57.9413 64.9644V84.0283H56.6211V66.1376L57.9413 64.9644Z" fill="#A6A8AB"/>
<path fill-rule="evenodd" clip-rule="evenodd" d="M57.9415 38.861C57.9415 45.1668 57.9415 51.4725 57.9415 57.7783C53.8343 57.6317 49.5803 57.485 45.3264 57.3384C41.0725 57.1917 36.8186 57.0451 32.418 56.8984C32.418 50.446 32.418 43.9936 32.418 37.3945C36.8186 37.6878 41.0725 37.8345 45.3264 38.1278C49.5803 38.4211 53.8343 38.5677 57.9415 38.861Z" fill="#D0D2D3"/>
<path fill-rule="evenodd" clip-rule="evenodd" d="M57.9413 38.8608V57.7782H56.6211V40.1806L57.9413 38.8608Z" fill="#A6A8AB"/>
<path fill-rule="evenodd" clip-rule="evenodd" d="M32.418 10.8516C36.8186 11.2915 41.0725 11.5848 45.3264 11.8781C49.5803 12.1714 53.6876 12.6113 57.9415 12.9046C57.9415 19.2104 57.9415 25.3695 57.9415 31.6753C53.8343 31.382 49.5803 31.0887 45.3264 30.7954C41.0725 30.5022 36.8186 30.2089 32.418 29.9156C32.418 23.6098 32.418 17.1573 32.418 10.8516Z" fill="#D0D2D3"/>
<path fill-rule="evenodd" clip-rule="evenodd" d="M57.9413 12.9048V31.6755H56.6211V14.078L57.9413 12.9048Z" fill="#A6A8AB"/>
<path fill-rule="evenodd" clip-rule="evenodd" d="M0 93.8535H51.0472V50.4463H0V93.8535Z" fill="#EDCC88"/>
<path d="M51.1943 50.4458H39.166V93.8531H51.1943V50.4458Z" fill="#D8B05C"/>
<path fill-rule="evenodd" clip-rule="evenodd" d="M20.2425 78.8955C22.5895 79.0422 24.6432 80.6553 25.3766 82.855C24.9365 82.415 24.2031 82.1217 23.6164 82.1217C22.8829 82.1217 22.2962 82.415 21.8561 82.7083C21.4161 82.415 20.8293 82.1217 20.3892 82.1217V88.4275C20.3892 88.5741 20.5359 88.8674 20.5359 89.0141C20.6826 89.1607 20.8293 89.1607 20.976 89.1607C21.1227 89.1607 21.4161 89.0141 21.4161 89.0141C21.5628 88.8674 21.5628 88.7208 21.5628 88.4275H22.0028C22.0028 88.7208 21.8561 89.1607 21.7094 89.3074C21.5627 89.6007 21.1227 89.7473 20.8293 89.7473C20.536 89.7473 20.2426 89.6007 19.9492 89.3074C19.8025 89.0141 19.6558 88.7208 19.6558 88.4275V82.1217C19.0691 82.1217 18.4823 82.415 18.1889 82.7083C17.7489 82.2684 17.0155 82.1217 16.4287 82.1217C15.6953 82.1217 15.1085 82.415 14.6685 82.855C15.4019 80.6553 17.4555 78.8955 19.8025 78.8955V78.0156H20.2425V78.8955Z" fill="#59595B"/>
<path fill-rule="evenodd" clip-rule="evenodd" d="M27.5767 88.4268H36.0846V89.7466H27.5767V88.4268ZM34.7644 87.9869V80.9479H35.3511L34.1776 78.6016L33.0041 80.9479H33.5909V87.9869H34.7644ZM30.0704 87.9869V80.9479H30.6571L29.4836 78.6016L28.3101 80.9479H28.8969V87.9869H30.0704Z" fill="#59595B"/>
<path fill-rule="evenodd" clip-rule="evenodd" d="M12.0285 78.7485C11.5884 82.1214 9.97485 84.6144 7.92123 84.9077V88.8671H9.82819V89.747H5.28088V88.8671H7.18779V84.9077C5.13417 84.6144 3.52063 82.1214 3.08057 78.7485H9.5348L10.1215 79.9217H9.5348L10.1215 82.1214L9.97484 80.215H10.4149L10.2682 78.7485H12.0285Z" fill="#59595B"/>
<path fill-rule="evenodd" clip-rule="evenodd" d="M16.4292 50.4458H22.0032V58.8046L21.1231 58.9513L20.0963 58.3647L18.7761 59.0979L17.6027 58.3647L16.4292 59.0979V50.4458Z" fill="#A5896B"/>
<path fill-rule="evenodd" clip-rule="evenodd" d="M43.7129 50.4458H46.4999V58.8046L46.0598 58.9513L45.6198 58.3647L44.8864 59.0979L44.2997 58.3647L43.7129 59.0979V50.4458Z" fill="#A5896B"/>
<path fill-rule="evenodd" clip-rule="evenodd" d="M61.3148 49.8596C62.0482 49.8596 62.635 49.1263 62.635 48.2464C62.635 47.3665 62.0482 46.6333 61.3148 46.6333C60.5814 46.6333 59.9946 47.3665 59.9946 48.2464C60.1413 49.1263 60.5814 49.8596 61.3148 49.8596Z" fill="#788084"/>
<path fill-rule="evenodd" clip-rule="evenodd" d="M62.7819 50.4461C63.8088 50.4461 64.6889 49.4196 64.6889 48.0998C64.6889 46.7799 63.8088 45.7534 62.7819 45.7534C61.7551 45.7534 60.875 46.7799 60.875 48.0998C60.875 49.4196 61.7551 50.4461 62.7819 50.4461Z" fill="white"/>
</svg>
