<svg width="62" height="92" viewBox="0 0 62 92" fill="none" xmlns="http://www.w3.org/2000/svg">
<path d="M44.026 7.52637C45.008 7.68999 45.8263 8.01723 46.6446 8.34447C47.463 8.67171 48.2813 9.16258 48.936 9.65344C52.5366 12.1077 54.6643 16.3619 54.6643 20.7796V24.3793H53.1913V20.7796C53.1913 16.6891 51.391 13.0895 48.1176 10.7988C47.463 10.3079 46.8083 9.98068 46.1536 9.65344C45.499 9.3262 44.6806 8.99896 43.8623 8.83534L44.026 7.52637Z" fill="#414243"/>
<path d="M17.5128 7.52637C16.5308 7.68999 15.7125 8.01723 14.8942 8.34447C14.0758 8.67171 13.2575 9.16258 12.6028 9.65344C9.00218 12.1077 6.87451 16.3619 6.87451 20.7796V24.3793H8.34751V20.7796C8.34751 16.6891 10.1478 13.0895 13.4212 10.7988C14.0758 10.3079 14.7305 9.98068 15.3852 9.65344C16.0398 9.3262 16.8582 8.99896 17.6765 8.83534L17.5128 7.52637Z" fill="#414243"/>
<path fill-rule="evenodd" clip-rule="evenodd" d="M30.9327 0C42.553 0 50.2454 9.16274 50.5727 20.4526C50.9 31.906 52.864 51.7041 58.1013 62.9939C51.2274 59.5578 45.3354 56.449 40.2617 52.5221L30.9327 51.704L21.6037 52.5221C17.3484 55.6309 12.7657 58.4125 7.36475 61.194C12.4384 48.9225 11.4564 33.3786 11.4564 20.4526C11.2927 9.16274 19.3124 0 30.9327 0Z" fill="#A5896B"/>
<path fill-rule="evenodd" clip-rule="evenodd" d="M2.12766 63.812C9.81999 60.2123 16.0393 56.7763 21.4403 52.6858L30.7693 51.8677V82.7919V91.4639C21.4403 91.6275 0 81.3194 0 66.4299C0 65.4482 0.981998 64.3028 2.12766 63.812Z" fill="#C4CDD3"/>
<path fill-rule="evenodd" clip-rule="evenodd" d="M59.5747 63.812C51.8824 60.2123 45.6631 56.7763 40.2621 52.6858L30.9331 51.8677V82.7919V91.4639C40.2621 91.6275 61.7024 81.3194 61.7024 66.4299C61.5387 65.4482 60.5567 64.3028 59.5747 63.812Z" fill="#9CA4AB"/>
<path fill-rule="evenodd" clip-rule="evenodd" d="M54.0097 67.9024L40.098 53.9946L30.769 54.6491V86.5551L45.8264 71.0111L43.3714 65.7753L54.0097 67.9024Z" fill="white"/>
<path fill-rule="evenodd" clip-rule="evenodd" d="M7.69238 67.9024L21.4404 53.9946L30.7694 54.6491V86.5551L15.712 71.0111L18.3307 65.7753L7.69238 67.9024Z" fill="white"/>
<path fill-rule="evenodd" clip-rule="evenodd" d="M30.7693 48.9224V85.4098C25.532 77.7196 20.131 67.9024 20.622 61.5212C21.4403 56.6125 21.604 49.5769 21.604 43.6865C24.3863 46.3045 27.8233 48.7588 30.7693 48.9224Z" fill="#FFE5CA"/>
<path fill-rule="evenodd" clip-rule="evenodd" d="M30.7696 43.3594V48.9225V85.4098C36.0069 77.7197 41.4079 67.9024 40.9169 61.5212C40.0986 56.6126 39.9349 49.5769 39.9349 43.6866C36.9889 46.3045 33.7156 48.7588 30.606 48.9225V43.3594H30.7696Z" fill="#FDCF9D"/>
<path fill-rule="evenodd" clip-rule="evenodd" d="M30.7694 52.522C27.3324 52.522 22.9134 47.6134 21.4404 45.1591C21.4404 44.6682 21.4404 44.1774 21.4404 43.6865C24.3864 46.3045 27.6598 48.7588 30.7694 48.9224V52.522Z" fill="#E5BD90"/>
<path fill-rule="evenodd" clip-rule="evenodd" d="M30.769 52.5221C34.206 52.5221 38.625 47.6135 40.098 45.1592C40.098 44.6683 40.098 44.1775 40.098 43.6866C37.152 46.3046 33.8787 48.7589 30.769 48.9225V43.3594V48.9225V52.5221Z" fill="#E5BD90"/>
<path fill-rule="evenodd" clip-rule="evenodd" d="M30.7694 16.0345V48.9222C26.6778 48.7586 22.0951 44.5044 18.8218 41.0684C13.5844 35.8325 11.6204 28.1424 17.0214 14.2346C18.6581 13.7438 19.8038 12.4348 21.9314 11.7803C27.3324 9.8169 28.6418 13.2529 29.6238 14.7255C29.9511 15.2164 30.2784 15.5436 30.7694 16.0345Z" fill="#FFE5CA"/>
<path fill-rule="evenodd" clip-rule="evenodd" d="M30.769 16.0347V48.9223C34.8607 48.7587 39.4434 44.5046 42.7167 41.0686C47.1357 36.6508 49.0997 30.5969 46.6447 20.7796C45.6627 19.9615 44.8444 18.8162 44.3534 16.8528C38.4614 19.1435 33.3877 17.8345 30.769 16.0347Z" fill="#FDCF9D"/>
<path fill-rule="evenodd" clip-rule="evenodd" d="M12.7658 19.4712H13.5842C14.2388 19.4712 14.8935 20.1257 14.8935 20.7802V33.8698C14.8935 34.5243 14.2388 35.1788 13.5842 35.1788H12.7658C11.6202 35.1788 10.6382 34.197 10.6382 33.0517V21.5983C10.6382 20.4529 11.6202 19.4712 12.7658 19.4712Z" fill="#6E6F71"/>
<path fill-rule="evenodd" clip-rule="evenodd" d="M49.2639 19.4712H48.4456C47.7909 19.4712 47.1362 20.1257 47.1362 20.7802V33.8698C47.1362 34.5243 47.7909 35.1788 48.4456 35.1788H49.2639C50.4096 35.1788 51.3916 34.197 51.3916 33.0517V21.5983C51.3916 20.4529 50.4096 19.4712 49.2639 19.4712Z" fill="#6E6F71"/>
<path fill-rule="evenodd" clip-rule="evenodd" d="M9.82009 33.2153C7.52876 32.2335 5.89209 29.9428 5.89209 27.3249C5.89209 24.707 7.52876 22.4163 9.82009 21.4346V33.2153Z" fill="#DC662B"/>
<path fill-rule="evenodd" clip-rule="evenodd" d="M52.2095 33.2153C54.5008 32.2335 56.1375 29.9428 56.1375 27.3249C56.1375 24.707 54.5008 22.4163 52.2095 21.4346V33.2153Z" fill="#DC662B"/>
<path fill-rule="evenodd" clip-rule="evenodd" d="M20.9493 59.0669C20.9493 60.3759 20.9493 62.1757 20.9493 62.5029C21.4403 67.2479 26.1866 76.7379 30.7693 83.1191V85.4098C25.532 77.7196 20.131 67.9024 20.622 61.5212C20.7856 60.7031 20.7856 59.885 20.9493 59.0669Z" fill="#E5BD90"/>
<path d="M54.8277 28.6334V32.5603C54.8277 33.3784 54.6641 34.1965 54.5004 35.0146C54.3367 35.8327 54.0094 36.4872 53.6821 37.3053C51.8817 40.905 48.1174 43.1957 43.6984 43.6865L37.4791 44.341L37.3154 42.8684L43.5348 42.2139C47.4627 41.8867 50.7361 39.7596 52.3727 36.6508C52.7001 35.9963 52.8637 35.3419 53.0274 34.6874C53.1911 34.0329 53.1911 33.2148 53.1911 32.5603V28.6334C53.3547 27.979 54.8277 27.979 54.8277 28.6334Z" fill="#414243"/>
<path fill-rule="evenodd" clip-rule="evenodd" d="M36.007 46.632C37.6437 46.632 38.953 45.3231 38.953 43.6869C38.953 42.0507 37.6437 40.7417 36.007 40.7417C34.3704 40.7417 33.061 42.0507 33.061 43.6869C33.061 45.3231 34.3704 46.632 36.007 46.632Z" fill="#6E6F71"/>
</svg>
