<svg width="115" height="61" viewBox="0 0 115 61" fill="none" xmlns="http://www.w3.org/2000/svg">
<path fill-rule="evenodd" clip-rule="evenodd" d="M34.859 0H27.512L21.2593 12.1895H30.0132V7.65748H34.859V0Z" fill="#E67C25"/>
<path fill-rule="evenodd" clip-rule="evenodd" d="M26.5745 2.03174L24.855 5.15724H34.8594V2.03174H26.5745Z" fill="#414243"/>
<path fill-rule="evenodd" clip-rule="evenodd" d="M44.7075 18.2842H86.4448V38.1311H74.0955V37.506H71.2818V38.1311H66.9048V37.506H64.2474V38.1311H59.7142V37.506H57.0567V38.1311H44.7075V18.2842Z" fill="#E67C25"/>
<path d="M47.0522 18.7529H46.1143V36.8808H47.0522V18.7529Z" fill="#DC662B"/>
<path d="M48.9281 18.7529H47.9902V36.8808H48.9281V18.7529Z" fill="#DC662B"/>
<path d="M50.8036 18.7529H49.8657V36.8808H50.8036V18.7529Z" fill="#DC662B"/>
<path d="M52.8359 18.7529H51.8979V36.8808H52.8359V18.7529Z" fill="#DC662B"/>
<path d="M54.7113 18.7529H53.7734V36.8808H54.7113V18.7529Z" fill="#DC662B"/>
<path d="M56.5878 18.7529H55.6499V36.8808H56.5878V18.7529Z" fill="#DC662B"/>
<path d="M58.4633 18.7529H57.5254V36.8808H58.4633V18.7529Z" fill="#DC662B"/>
<path d="M60.3393 18.7529H59.4014V36.8808H60.3393V18.7529Z" fill="#DC662B"/>
<path d="M62.2153 18.7529H61.2773V36.8808H62.2153V18.7529Z" fill="#DC662B"/>
<path d="M64.0907 18.7529H63.1528V36.8808H64.0907V18.7529Z" fill="#DC662B"/>
<path d="M65.9667 18.7529H65.0288V36.8808H65.9667V18.7529Z" fill="#DC662B"/>
<path d="M67.8422 18.7529H66.9043V36.8808H67.8422V18.7529Z" fill="#DC662B"/>
<path d="M69.7182 18.7529H68.7803V36.8808H69.7182V18.7529Z" fill="#DC662B"/>
<path d="M71.7504 18.7529H70.8125V36.8808H71.7504V18.7529Z" fill="#DC662B"/>
<path d="M73.6264 18.7529H72.6885V36.8808H73.6264V18.7529Z" fill="#DC662B"/>
<path d="M75.5024 18.7529H74.5645V36.8808H75.5024V18.7529Z" fill="#DC662B"/>
<path d="M77.3778 18.7529H76.4399V36.8808H77.3778V18.7529Z" fill="#DC662B"/>
<path d="M79.2538 18.7529H78.3159V36.8808H79.2538V18.7529Z" fill="#DC662B"/>
<path d="M81.1293 18.7529H80.1914V36.8808H81.1293V18.7529Z" fill="#DC662B"/>
<path d="M83.0053 18.7529H82.0674V36.8808H83.0053V18.7529Z" fill="#DC662B"/>
<path d="M84.8812 18.7529H83.9434V36.8808H84.8812V18.7529Z" fill="#DC662B"/>
<path fill-rule="evenodd" clip-rule="evenodd" d="M71.2816 34.8496H114.738L112.862 38.6002C104.734 41.5694 92.6973 51.1022 86.7571 60.635H12.0366L0 41.2569V38.1314H68.7804C70.031 38.1314 71.1252 37.0374 71.1252 35.7872V34.8496H71.2816Z" fill="#414243"/>
<path fill-rule="evenodd" clip-rule="evenodd" d="M91.7593 54.0713C89.8834 56.2591 88.1639 58.447 86.757 60.6348H12.0365L7.97217 54.0713H91.7593Z" fill="#E67C25"/>
<path fill-rule="evenodd" clip-rule="evenodd" d="M96.1363 39.0688C96.7616 39.0688 97.2306 39.6939 96.9179 40.6316C96.7616 41.413 95.98 42.1943 95.3547 42.1943C94.7295 42.1943 94.2605 41.5692 94.5731 40.6316C94.7295 39.8502 95.3547 39.0688 96.1363 39.0688Z" fill="#E67C25"/>
<path d="M30.0134 12.1895H10.7861V38.2874H30.0134V12.1895Z" fill="#D8B05C"/>
<path fill-rule="evenodd" clip-rule="evenodd" d="M42.2064 38.1314H30.0136H21.416V17.9719H30.0136V7.65771H42.2064V38.1314Z" fill="#D1D3D2"/>
<path d="M42.2059 11.0957H32.5142V14.3775H42.2059V11.0957Z" fill="#A4C3D1"/>
<path d="M26.2618 20.6284H25.0112V22.5037H26.2618V20.6284Z" fill="#939597"/>
<path d="M26.2618 24.6914H25.0112V26.5667H26.2618V24.6914Z" fill="#939597"/>
<path d="M26.2618 28.5981H25.0112V30.4734H26.2618V28.5981Z" fill="#939597"/>
<path d="M29.857 20.6284H28.6064V22.5037H29.857V20.6284Z" fill="#939597"/>
<path d="M29.857 24.6914H28.6064V26.5667H29.857V24.6914Z" fill="#939597"/>
<path d="M29.857 28.5981H28.6064V30.4734H29.857V28.5981Z" fill="#939597"/>
<path d="M33.4522 20.6284H32.2017V22.5037H33.4522V20.6284Z" fill="#939597"/>
<path d="M33.4522 24.6914H32.2017V26.5667H33.4522V24.6914Z" fill="#939597"/>
<path d="M33.4522 28.5981H32.2017V30.4734H33.4522V28.5981Z" fill="#939597"/>
<path d="M37.2037 20.6284H35.9531V22.5037H37.2037V20.6284Z" fill="#939597"/>
<path d="M37.2037 24.6914H35.9531V26.5667H37.2037V24.6914Z" fill="#939597"/>
<path d="M37.2037 28.5981H35.9531V30.4734H37.2037V28.5981Z" fill="#939597"/>
<path fill-rule="evenodd" clip-rule="evenodd" d="M23.9169 46.8825C25.0112 46.8825 25.9491 45.9449 25.9491 44.851C25.9491 43.757 25.0112 42.8193 23.9169 42.8193C22.8227 42.8193 21.8848 43.757 21.8848 44.851C21.8848 45.9449 22.8227 46.8825 23.9169 46.8825Z" fill="#A4C3D1"/>
<path fill-rule="evenodd" clip-rule="evenodd" d="M32.6707 46.8825C33.7649 46.8825 34.7028 45.9449 34.7028 44.851C34.7028 43.757 33.7649 42.8193 32.6707 42.8193C31.5764 42.8193 30.6385 43.757 30.6385 44.851C30.4822 45.9449 31.5764 46.8825 32.6707 46.8825Z" fill="#A4C3D1"/>
<path fill-rule="evenodd" clip-rule="evenodd" d="M41.4242 46.8825C42.5184 46.8825 43.4563 45.9449 43.4563 44.851C43.4563 43.757 42.5184 42.8193 41.4242 42.8193C40.3299 42.8193 39.392 43.757 39.392 44.851C39.2357 45.9449 40.1736 46.8825 41.4242 46.8825Z" fill="#A4C3D1"/>
<path fill-rule="evenodd" clip-rule="evenodd" d="M50.1786 46.8825C51.2728 46.8825 52.2108 45.9449 52.2108 44.851C52.2108 43.757 51.2728 42.8193 50.1786 42.8193C49.0844 42.8193 48.1464 43.757 48.1464 44.851C47.9901 45.9449 48.928 46.8825 50.1786 46.8825Z" fill="#A4C3D1"/>
<path fill-rule="evenodd" clip-rule="evenodd" d="M58.9325 46.8825C60.0267 46.8825 60.9646 45.9449 60.9646 44.851C60.9646 43.757 60.0267 42.8193 58.9325 42.8193C57.8383 42.8193 56.9003 43.757 56.9003 44.851C56.744 45.9449 57.6819 46.8825 58.9325 46.8825Z" fill="#A4C3D1"/>
<path fill-rule="evenodd" clip-rule="evenodd" d="M67.6864 46.8825C68.7807 46.8825 69.7186 45.9449 69.7186 44.851C69.7186 43.757 68.7807 42.8193 67.6864 42.8193C66.5922 42.8193 65.6543 43.757 65.6543 44.851C65.4979 45.9449 66.4359 46.8825 67.6864 46.8825Z" fill="#A4C3D1"/>
<path fill-rule="evenodd" clip-rule="evenodd" d="M76.4398 46.8825C77.5341 46.8825 78.472 45.9449 78.472 44.851C78.472 43.757 77.5341 42.8193 76.4398 42.8193C75.3456 42.8193 74.4077 43.757 74.4077 44.851C74.2514 45.9449 75.1893 46.8825 76.4398 46.8825Z" fill="#A4C3D1"/>
</svg>
