<svg width="50" height="50" viewBox="0 0 50 50" fill="none" xmlns="http://www.w3.org/2000/svg">
<path opacity="0.3" fill-rule="evenodd" clip-rule="evenodd" d="M42.5128 14.0334C43.2651 14.3678 43.75 15.1138 43.75 15.9372V34.1907C43.75 34.9473 43.3398 35.6445 42.6784 36.0119L26.0118 45.2712C25.3825 45.6207 24.6175 45.6207 23.9882 45.2712L7.32158 36.0119C6.66019 35.6445 6.25 34.9473 6.25 34.1907L6.25 15.9372C6.25 15.1138 6.73486 14.3678 7.48721 14.0334L24.1539 6.62597C24.6926 6.38656 25.3074 6.38656 25.8461 6.62597L42.5128 14.0334Z" fill="black"/>
<path fill-rule="evenodd" clip-rule="evenodd" d="M31.1812 8.80078L15.833 17.3276V26.8868L19.9997 28.9701V19.7793L35.9477 10.9192L31.1812 8.80078Z" fill="black"/>
</svg>
