<svg width="50" height="50" viewBox="0 0 50 50" fill="none" xmlns="http://www.w3.org/2000/svg">
<path fill-rule="evenodd" clip-rule="evenodd" d="M37.5 12.5H12.5V20.8333V20.8333H12.5C12.5195 20.8431 18.75 23.9664 18.75 29.1666V35.3333V41.6666V43.8333C18.75 44.9379 19.6454 45.8333 20.75 45.8333H29.25C30.3546 45.8333 31.25 44.9379 31.25 43.8333V41.6666V35.3333V29.1666C31.25 25.5872 37.4842 20.8453 37.5 20.8333H37.5V20.8333V12.5ZM20.8332 24.9167C20.8332 23.8121 21.7287 22.9167 22.8332 22.9167H27.1666C28.2711 22.9167 29.1666 23.8121 29.1666 24.9167V33.4167C29.1666 34.5213 28.2711 35.4167 27.1666 35.4167H22.8332C21.7287 35.4167 20.8332 34.5213 20.8332 33.4167V24.9167ZM27.0834 27.0833C27.0834 28.2339 26.1507 29.1667 25.0001 29.1667C23.8495 29.1667 22.9168 28.2339 22.9168 27.0833C22.9168 25.9327 23.8495 25 25.0001 25C26.1507 25 27.0834 25.9327 27.0834 27.0833Z" fill="black"/>
<path opacity="0.3" d="M12.5 5.16663C12.5 4.61434 12.9477 4.16663 13.5 4.16663H36.5C37.0523 4.16663 37.5 4.61434 37.5 5.16663V8.33329H12.5V5.16663Z" fill="black"/>
</svg>
