<svg width="51" height="50" viewBox="0 0 51 50" fill="none" xmlns="http://www.w3.org/2000/svg">
<path opacity="0.3" fill-rule="evenodd" clip-rule="evenodd" d="M8.02989 7.52304C7.49642 7.3801 6.94809 7.69668 6.80515 8.23015L0.852306 30.4464C0.709364 30.9799 1.02595 31.5282 1.55941 31.6712L41.8868 42.4769C42.4203 42.6198 42.9686 42.3032 43.1116 41.7698L49.0644 19.5535C49.2073 19.02 48.8908 18.4717 48.3573 18.3287L8.02989 7.52304ZM33.0076 27.1569C31.8164 31.6025 27.247 34.2406 22.8014 33.0495C18.3559 31.8583 15.7177 27.2888 16.9089 22.8433C18.1 18.3977 22.6695 15.7595 27.1151 16.9507C31.5606 18.1419 34.1988 22.7114 33.0076 27.1569Z" fill="black"/>
<path fill-rule="evenodd" clip-rule="evenodd" d="M4.0835 12.5C3.53121 12.5 3.0835 12.9477 3.0835 13.5V36.5C3.0835 37.0523 3.53121 37.5 4.0835 37.5H45.8335C46.3858 37.5 46.8335 37.0523 46.8335 36.5V13.5C46.8335 12.9477 46.3858 12.5 45.8335 12.5H4.0835ZM33.2918 25C33.2918 29.6024 29.5609 33.3333 24.9585 33.3333C20.3561 33.3333 16.6252 29.6024 16.6252 25C16.6252 20.3976 20.3561 16.6667 24.9585 16.6667C29.5609 16.6667 33.2918 20.3976 33.2918 25ZM24.9585 29.1667C27.2597 29.1667 29.1252 27.3012 29.1252 25C29.1252 22.6988 27.2597 20.8333 24.9585 20.8333C22.6573 20.8333 20.7918 22.6988 20.7918 25C20.7918 27.3012 22.6573 29.1667 24.9585 29.1667Z" fill="black"/>
</svg>
