<svg width="50" height="50" viewBox="0 0 50 50" fill="none" xmlns="http://www.w3.org/2000/svg">
<path opacity="0.3" fill-rule="evenodd" clip-rule="evenodd" d="M8.3335 8.33327L24.6316 5.27738C24.8752 5.23171 25.1251 5.23171 25.3687 5.27738L41.6668 8.33327V31.4032C41.6668 35.1959 39.713 38.7211 36.4968 40.7312L25.5302 47.5854C25.2059 47.788 24.7944 47.788 24.4702 47.5854L13.5035 40.7312C10.2873 38.7211 8.3335 35.1959 8.3335 31.4032L8.3335 8.33327Z" fill="black"/>
<path fill-rule="evenodd" clip-rule="evenodd" d="M23.2811 30.7292C22.782 30.7292 22.2828 30.5295 21.8835 30.1302L17.8905 26.1372C17.0919 25.3385 17.0919 24.1406 17.8905 23.342C18.6891 22.5434 19.9868 22.5434 20.6856 23.342L23.2811 25.9375L29.8696 19.349C30.6682 18.5503 31.8662 18.5503 32.6648 19.349C33.4634 20.1476 33.4634 21.3455 32.6648 22.1441L24.6787 30.1302C24.2794 30.5295 23.7802 30.7292 23.2811 30.7292Z" fill="black"/>
</svg>
