<svg width="50" height="50" viewBox="0 0 50 50" fill="none" xmlns="http://www.w3.org/2000/svg">
<path opacity="0.3" d="M29.7767 34.8065C28.9631 33.9929 28.9631 32.6738 29.7767 31.8602C30.5903 31.0466 31.9094 31.0466 32.723 31.8602L41.0563 40.1935C41.8699 41.0071 41.8699 42.3262 41.0563 43.1398C40.2427 43.9534 38.9236 43.9534 38.11 43.1398L29.7767 34.8065Z" fill="black"/>
<path fill-rule="evenodd" clip-rule="evenodd" d="M8.3335 22.9166C8.3335 30.9708 14.8627 37.5 22.9168 37.5C30.971 37.5 37.5002 30.9708 37.5002 22.9166C37.5002 14.8625 30.971 8.33331 22.9168 8.33331C14.8627 8.33331 8.3335 14.8625 8.3335 22.9166ZM33.3335 22.9166C33.3335 28.6696 28.6698 33.3333 22.9169 33.3333C17.1639 33.3333 12.5002 28.6696 12.5002 22.9166C12.5002 17.1637 17.1639 12.5 22.9169 12.5C28.6698 12.5 33.3335 17.1637 33.3335 22.9166Z" fill="black"/>
</svg>
