<svg width="50" height="50" viewBox="0 0 50 50" fill="none" xmlns="http://www.w3.org/2000/svg">
<path opacity="0.3" d="M25.0003 22.9167C20.398 22.9167 16.667 19.1857 16.667 14.5833C16.667 9.98096 20.398 6.25 25.0003 6.25C29.6027 6.25 33.3337 9.98096 33.3337 14.5833C33.3337 19.1857 29.6027 22.9167 25.0003 22.9167Z" fill="black"/>
<path d="M6.25136 42.0816C7.05887 32.1385 15.129 27.0833 24.9653 27.0833C34.94 27.0833 43.1352 31.8607 43.7457 42.0833C43.77 42.4905 43.7457 43.7499 42.1806 43.7499C34.4607 43.7499 22.989 43.7499 7.76563 43.7499C7.24315 43.7499 6.20737 42.6232 6.25136 42.0816Z" fill="black"/>
</svg>
