<svg width="1000" height="850" viewBox="0 0 1000 850" fill="none" xmlns="http://www.w3.org/2000/svg">
<path d="M76.2245 451.63L76.8555 448.91L76.6025 448.03L76.9185 446.76L77.5505 446.58L78.8755 447.08L79.3805 446.95L79.1915 445.06L79.5075 444.43L78.7495 443.23L78.6895 440.77L78.1845 439.76L78.9415 438.94L80.2045 438.49L81.8465 439.38L82.7935 438.94L84.0555 439.25L85.2555 439.35L88.0335 440.24L88.7275 439.61L90.4325 438.34L90.3065 437.08L90.6855 436.51L91.3795 436.96L91.6955 436.2L91.7555 432.85L92.0075 431.97L92.8915 431.65L94.7225 432.66L96.0485 432.16L95.7955 430.52L96.1115 429.95L98.1955 429.76L99.2685 427.93L102.24 428.56L102.68 428.18L103.94 425.91L105.58 424.52L106.53 420.79L106.63 419.34L108.9 417.57L109.35 416.63L109.16 415.17L109.72 414.16L111.43 413.22L112.25 411.13L111.62 410.69L110.55 410.79L109.6 409.6L108.84 409.5L107.89 411.21L106.06 412.22L105.31 411.65V408.93L104.42 407.04L103.22 408.05L102.53 407.73L102.28 406.28L100.44 405.65L100.13 403.95L99.8135 402.81L100.57 402.12L100.25 401.29L99.6235 401.17L99.4975 400.35L97.9195 400.47L96.9725 399.72L97.4145 398.14L96.9725 397.44L95.5205 396.88L93.9415 397.19L92.9315 397.29L91.5425 396.85L87.8805 397.55L86.4915 396.41L85.1025 396.03L83.9665 396.28L83.1455 397.55L80.1785 398.43L78.7895 398.3L77.5265 399L76.2015 399.1L74.8125 400.17L73.6755 400.27L72.6655 400.96L72.2235 401.97L71.5295 401.85L70.0765 400.9H69.4455L68.6885 401.78H67.0225L67.4785 402.72L70.5825 402.4L71.1505 403.04L69.4455 406L68.8775 407.77L70.0135 412L70.1405 413.58L69.9505 415.79L70.6455 417.37L70.8975 419.96L70.6455 421.41L71.6555 423.68L73.6755 424.56L77.0215 426.02L78.4735 427.85L79.1685 429.24L81.0625 430.37L81.8205 431.7L81.3785 434.1L80.1785 435.17L76.2015 435.8L75.7595 437.89L75.8855 439.97L76.1375 442.18L75.8225 443.88L74.8125 447.55L75.7595 451.27L76.2245 451.63Z" fill="white" stroke="#808080" stroke-width="0.5"/>
<path d="M883.261 721.47L885.591 720.76L886.121 715.94L885.051 711.47L886.301 705.58L889.871 699.87L891.841 693.08L892.911 686.65L893.621 668.26L894.341 662.72L895.231 661.3V657.55L893.981 656.12L892.911 653.26L894.691 650.4L895.411 648.8L894.161 647.37L890.591 646.47H888.981L887.191 644.33H884.691L883.441 646.3L883.981 648.44L879.691 650.05L876.661 652.55L875.231 655.76L874.691 659.69L872.371 662.19L870.761 668.08L868.981 673.26L866.301 679.51L864.871 684.69L864.341 690.22L864.691 695.4L866.121 697.72L868.261 700.94L870.231 706.65L872.731 710.05L875.761 711.3L878.621 712.01L880.941 715.05L882.371 718.8V720.94L883.261 721.47Z" fill="white" stroke="#808080" stroke-width="0.5"/>
<path d="M826.3 673.26L828.26 673.62L827.37 675.05H825.41L826.3 673.26Z" fill="white" stroke="#808080" stroke-width="0.5"/>
<path d="M803.82 761.15L803.19 762.03H804.71L805.21 761.28L803.82 761.15Z" fill="white" stroke="#808080" stroke-width="0.5"/>
<path d="M77.4902 471.85L78.6892 471.66L81.0252 470.4L82.5722 467.37L81.0252 462.19L82.1932 459.67L81.5932 457.9L79.4152 456.95L78.8782 458.4L78.0892 459.38L77.8052 460.27L78.3102 461.12L79.1312 461.47L79.6992 463.39L79.1632 464.69L78.5002 465.1L78.9732 466.07L79.0032 466.96L78.3402 468.47L78.5922 469.36L77.7092 470.43L77.4902 471.85Z" fill="white"/>
<path d="M62.0882 475.82L60.8252 476.2L60.9152 477.9L61.7042 477.68L62.9352 479.77L64.2932 482.04L64.6712 483.96L65.7452 482.61L65.1252 481.01L63.0932 478.47L62.0882 475.82Z" fill="white"/>
<path d="M64.9287 497.25L65.8437 499.12L65.9037 500.92L66.4397 502.02L69.4067 503.25H70.7017L71.7427 503.35L69.5647 496.06L67.8917 495.62L65.9977 496.95L64.9287 497.25Z" fill="white"/>
<path d="M87.6331 515.59L86.6231 513.82L85.1711 513.92L84.1931 512.82L84.0031 514.27L83.9131 515.21L84.9551 515.62L85.8391 516.79L87.6331 515.59Z" fill="white"/>
<path d="M300.72 635.09L304.56 635.22L308.44 634.51L311.43 633.53L314.16 635.58L317.55 635.72L321.03 636.47L324.43 636.03L326.12 636.34L327.1 636.07L331.3 635.27L333.67 634.69L334.43 631.34L337.51 628.48L340.23 626.83L343.09 623.75L347.1 622.99L353.93 621.61L356.93 619.73L359.43 619.11L361.52 617.86L363.62 617.05L364.87 613.57L376.3 610.05L376.93 611.43L378.58 612.5H381.35L383.09 611.78L384.38 613.93L385.81 614.15L386.26 613.66L389.78 616.51L393.71 619.77L396.52 620.84L397.91 622.41L398.04 623.75L404.87 619.33L405.45 617.45L404.83 614.95L405.45 612.99L403.67 612.85L400.5 609.77L398.76 609.95L397.91 610.44L396.79 610L395.76 609.37L394.38 609.55L392.42 608.03L390.27 607.18L387.86 608.08L386.17 609.24L384.11 607.63L385.9 606.78L385.72 605.67L386.17 604.55L388.18 603.61L388.35 602.36L390.72 601.16L390.82 599.15L389.7 597.45L388.9 595.67L389.26 594.01H388.27L385.46 595.13L383.5 596.87H382.52L382.62 594.72L382.44 593.47L386.54 591.47L387.62 589.68L386.95 588.97L384.8 589.63L383.42 588.38L381.63 584.95L372.12 588.92L370.92 591.6L368.46 593.34L365.47 592.8L364.53 591.6L357.08 589.28L356.77 588.34L354.22 585.84L352.35 587.54L350.78 588.16L347.88 589.28L346.45 590.39L344.18 592.58L342.26 592.89L342.12 594.99L335.47 598.21L327.75 598.34L325.83 599.01L324.27 603.52L317.66 607.94L316.81 607.49L314.22 609.59L315.2 610.97L314.36 612.67L309.36 614.9H306.72L305.87 613.74L305.16 614.59L302.7 614.69L301.14 615.94L298.95 615.84L294 614.1L292.17 618.03L293.15 620.84L295.07 622.85L299.62 623.08L301.14 624.68L300.92 626.65L299.09 628.97V631.11L300.25 632.01L300.88 634.28L300.72 635.09Z" fill="white"/>
<path d="M769.999 26.125L789.689 19.219L796.909 16.906L813.589 22.625L818.999 20.25L827.309 22.812L834.089 28.437L835.089 30.937L840.029 34.406L843.719 40.594L844.689 44.656L854.779 57.562L855.249 61.75L864.439 70.906L865.589 78.25L869.529 80.437L869.809 86L875.939 92.437L882.589 92.25L888.369 88.781L896.839 92.719L900.529 90.875L915.249 98.812L920.969 97.562L922.369 103.44L927.909 109.69L926.839 114.19L932.339 118.91L933.939 121.31L940.909 118.72L945.909 118.28L956.059 113.75L957.469 109.31L963.619 102.41L967.779 101.94L970.559 97.812L978.369 90.937L984.409 91.875L984.509 99.125L989.069 104.09L987.599 110.97L983.909 113.66L985.479 130.31L984.879 133.62L986.509 139.72L984.909 143.09L983.909 156.66L980.979 159.75L982.039 168.87L980.289 169.97L965.729 170.37L962.539 168.75L958.319 178.37L952.729 182.09L952.829 183.53L962.079 198.34L962.799 208.94L964.109 210.97L959.609 213.03L954.739 210.41L951.579 209.89L948.269 204.03L944.889 207.17L942.019 204.8L939.959 205.27L939.629 209.09L935.049 210.39L932.169 212.48L932.849 215.72L931.549 218.16L927.629 218.86L923.739 214.17L923.489 212.86L919.799 211.86L915.999 207.62L915.279 201.53L913.459 199.45L909.689 199.35L909.069 202.12L911.139 209.21L910.529 211.2L907.959 212.39L901.319 205.98L900.659 202.5L897.799 201.15L896.099 202.37L893.519 202.92L890.959 199.92L891.919 197L888.659 192.42H885.569L883.109 190.76L880.909 191.03L877.549 194.82L871.329 194.29L868.689 192.75L868.589 190.34L867.259 189.2L864.369 189.68L862.519 192.67L858.699 193.2L856.269 191.43L854.339 193.17L850.589 195.03L847.819 194.26L841.569 189.34L839.259 184.62L839.649 182.59L837.849 179.87L835.659 178.42L829.989 180.4L826.739 180.73L824.629 181.76L822.179 181.32L821.509 179.92L822.209 177.11L821.339 174.98L822.179 173.45L826.679 173.22L828.659 171.57L829.449 169.18L828.769 167.65L827.909 169.61L825.929 170.12L821.959 169.43L820.289 168.54L816.259 164.48L813.929 163.97L809.739 159.54L810.339 155.43L818.809 147.14L819.619 143.43L822.819 140.4L829.519 128.72L831.129 127.68L832.239 128L834.019 132.01L836.179 134.14L836.809 133.14L836.679 130.36L835.929 128.53L835.489 120.4L836.949 111.61L838.409 110.79L841.039 110.4L842.099 104.37L839.019 99.606L839.479 96.903L838.379 93.966L837.759 88.028L839.879 86.512L840.089 82.106L843.599 77.887V75.325L842.059 73.809L842.179 71.653L844.129 69.325L844.599 66.934L843.319 63.606L840.759 63.247L832.869 55.137L827.679 54.997L826.009 59.825L824.379 62.684L820.539 62.774L818.789 64.743L815.449 64.305L813.839 65.602L811.789 65.774L810.159 68.946L808.149 68.79L806.339 67.477L804.589 68.618L801.479 68.258L797.629 65.618L793.849 59.321V55.805L791.839 51.883L791.739 50.258L792.109 48.821L791.129 47.868L788.329 47.383L785.799 44.352L784.149 43.508L782.439 44.321L782.259 47.805L780.489 49.383L778.769 49.473L776.769 47.02L773.679 46.379L769.109 44.239L769.439 42.489L774.129 35.583L775.019 32.583L773.649 30.317L769.999 26.125Z" fill="white" stroke="black"/>
<path d="M824.59 181.91L826.91 180.66L830.16 180.53L835.66 178.44L837.59 179.59L839.75 182.53L839.12 184.62L841.66 189.5L847.73 194.28L850.34 195.17L854.3 193.28L856.05 191.58L859.02 193.41L862.56 192.84L864.41 189.73L867.2 189.27L868.59 190.28V192.58L871.17 194.39L877.31 194.78L880.68 191.14L882.73 190.86L885.54 192.55L888.64 192.45L891.9 196.73L890.95 199.62L893.26 202.71L896.36 202.23L897.73 201.07L900.5 202.34L901 205.6L907.64 212.56L910.29 211.29L911.17 209.28L908.97 202.06L909.4 199.43L913.25 199.53L915.07 201.36L915.95 207.56L919.53 211.89L923.34 212.67L923.72 214.22L927.48 218.92L931.34 218.17L932.75 215.86L932.12 212.67L934.73 210.33L939.47 209.2L939.82 205.36L942.06 204.94L944.64 207.15L948.15 204.28L951.54 209.95L954.67 210.55L959.45 213.01L965.28 210.58V219.34L962.39 226.23L957.4 229.36L957.03 231.59L958.5 233.3L955.61 233.56L949.22 227.23L946.06 228.58L945.67 241.2L939.4 244.17L939 249.51L932.45 254.42L924.33 255.87L923.14 259.08L928.61 265.53L927.97 269.62L912.76 271.03L906.95 266.5L900.98 270.44L900.62 278.51L893.33 290.72L891.23 291.34L889.73 289.12L890.61 286.53L890.29 282.31L885.61 277.94L883.11 274.65L881.42 274.28L879.39 270.12L881.17 265.37L880.89 263.09L878.42 262.78L872.61 255.12L870.45 253.94L870.04 251.53L867.76 250.09L867.08 245.9L865.76 244.75L863.86 246.34L862.83 249.78L860.73 251.09L859.54 249.87L859.44 247.06L856.47 243.87L851.94 242.59L848.04 240.53L847.19 241.12L847.09 243.37L842.03 241.9L840.99 241L840.89 239.34L842.45 238.06V237.09L839.95 231.5L837.73 229.78L837.57 226.81L836.41 226.25L833.32 222.03L832.7 220.06L831.57 220.4L823.1 227.94L821.1 228.84L818.16 227.19L819.51 225.22L818.29 222.78L814.7 219.5L813.38 213.25L812.63 211.34L813.2 209.34L815.13 207.62L815.48 204.69L813.48 202.28L810.82 201.19L809.63 198.37L808.2 197.4L805.85 197.9L804.79 196.78L805.66 194.4V191.12L808.82 190.53L813.32 193.47L814.38 191.78L815.48 191.28L817.51 192.28L819.26 194.12L820.6 194.22L821.44 192.53L821.32 189.28L820.54 187.62L820.91 185.65L823.35 185.15L824.48 184.09L824.59 181.91Z" fill="white" stroke="black"/>
<path d="M798.71 329.04L796.66 327.97L795.91 324.66L793.06 322.59L792.09 318.81L786.75 318.19L784.97 315.97L781.84 316.25L778.59 312.66L780.5 310.47L780.34 307.53L782.84 304.94L782.72 303.19L785.09 300.47L785.53 297.59L783.25 294.56L782.59 291.44V284.34L780.66 282.31L780.47 280.56L783.88 277.28L786.84 279.97H789.84L789.94 281.78L793.63 285.88L795 289.25L796 289.72L796.81 286.94L800.75 281.75L802.03 279.44L805.94 276L809.44 275.41L813.59 269.31L815.47 268.34L818.47 269L821.41 267.25L821.13 264L822.91 262.97L825.38 262.53L827.63 263.06L829.41 261.66L827.94 259.66L828.34 258.22H831.84L834.44 259.91L840.03 257.25L840.66 254L842.13 252L846.34 249.38L847.38 240.85L848.09 240.5L852.06 242.63L856.66 243.66L859.69 246.97L859.53 250.03L860.63 250.97L862.97 249.81L863.84 246.19L865.94 244.72L867.13 245.75L867.78 250L869.94 251.56L870.66 253.85L872.88 255.19L878.25 262.66L880.88 263L881.03 265.03L879.56 269.88L881.31 274.16L883.06 274.5L886.25 278.44L890.47 282.35L890.59 286.28L889.69 288.78L891.09 291.6L887.94 296.06L882.25 299.47L880.31 303.06L878.47 304.25L873.34 311.31L872.81 316.25L870.02 318.64L868.64 319.48L863.18 319.98L861.08 322.07L856.43 322.9L855.31 325.35L852.85 325.59L847.47 330.01L839.87 336.86L838.09 340.92L835.87 343.39L831.82 346.17L828.28 350.23L824.45 353.33L823.18 351.84L824.11 348.34L826.35 348.1L827.38 346.02L830.19 344.49L830.73 341.85L832.38 337.14L828.52 338.24L826.59 336.56L823.41 334.74L825.42 333.62L825.67 328.52L827.37 326.58L831.45 323.52L832.75 319.63L836.34 311.42L833.42 309.3L828.35 304.21L825.14 303.41L821.57 305.45L816.51 305.7L813.08 307.81L812.57 311.12L811.1 312.6L807.26 317.98L807.01 322.98L804.07 324.93L798.71 329.04Z" fill="white" stroke="black"/>
<path d="M845.94 336.83L848.09 336.65L847.55 338.08H845.76L845.94 336.83Z" fill="white" stroke="black" stroke-width="0.5"/>
<path d="M420.75 295.25L423.31 294.69L451 298.75L467.31 296.31L493.75 300.75L499.5 307.81L513.87 310.81L526.56 315.19L538.81 314.5L540 318.5L545.75 320.12L558.94 310.44L575.37 302.75L582.37 301.12L584.37 298.81H587.37L592.81 299.87L597.37 298.25L618.37 296.5L626.69 292.19L633.69 288.62L643.87 274.25L651.56 270.5L654 267.56L657.94 264.44L657.69 262.69L647.75 251.37L653.56 235.44L663.62 234.87L666.56 238.25L681.56 238.81L693.19 228.81L696.06 222.44L711.25 220.94L720.25 210.87L719.56 208.06L722.37 200.87L727.06 195.69L734.5 195L736.81 190.31L740.31 191.12L748.87 184.94L759.19 183.87L765.62 185L770.81 183.44L773.06 179.75L773.16 178.25L768.35 171.06L758.91 164.87L756.48 160.62L752.48 160.37L746.29 156.62L735.48 158.25L731.1 166.25L725.29 163L712.35 165.44L709.91 169.06L704.48 165.69L701.79 159.44L705.85 156.12L706.29 147.69L708.6 144.37L707.91 141.06L714.41 118.81L718.91 121.12L731.48 123.19L734.66 121.62L741.91 112.25L749.1 110.12L751.79 106L748.6 99.687L749.41 95.75L751.35 91.937L756.66 70.312L763.16 62.562L763.6 54.875L761.16 52L761.35 49.25L759.73 47.375L756.04 47L751.91 47.812L752.01 42.875L755.13 40.062L759.07 32.375L769.69 26.125L775.16 32.562L774.1 35.969L769.48 42.531L769.16 44.219L774.07 46.5L776.79 46.875L778.85 49.437L780.48 49.656L782.19 47.812L782.54 44.625L784.01 43.562L785.94 44.469L788.85 47.625L791.35 47.875L792.32 48.687L791.94 50.531L792.07 52.469L793.85 55.906V59.781L797.82 65.469L801.54 68.406L804.85 68.656L806.66 67.5L808.66 69L810.26 68.781L811.6 66.031L813.98 65.594L815.6 64.156L818.63 64.875L820.48 62.937L824.35 62.562L826.54 58.75L827.54 55.25L830.13 54.719L833.54 55.594L840.88 63.281L843.32 63.781L844.7 66.875L844.13 69.375L842.1 71.625V73.937L843.44 75.469L843.6 77.781L840.01 81.937L839.82 86.594L837.76 87.906L838.44 94.25L839.44 96.969L839.04 99.594L842.04 104.22L841.44 109.87L840.57 110.72L838.13 110.84L836.69 111.87L835.6 121.56L836.07 128.69L836.88 131.06L836.69 133.41L836.1 134.41L834.1 132.22L832.29 128L830.85 127.75L829.76 128.5L822.32 141.06L819.73 143.44L818.76 147.59L810.41 155.16L809.76 159.44L813.82 164.06L816.16 164.5L820.1 168.53L822.79 169.69L827.1 170L828.16 169.37L829.01 167.53L829.57 169.16L828.57 171.94L826.57 173.12L822.29 173.47L821.29 174.91L822.35 176.81L821.51 179.5L822.23 181.37L824.51 181.84L824.61 184.03L823.49 185.28L821.05 185.69L820.8 187.66L821.58 189.34V192.75L820.89 194.25L819.64 194.15L817.8 192.18L815.67 191.02L814.45 191.65L813.77 193.3L809.33 190.65L806.2 190.87L805.95 194.46L805.14 196.68L806.14 198.02L808.77 197.52L809.83 198.4L811.33 201.4L814.05 202.24L815.36 204.4V207.83L813.48 209.08L813.02 210.87L815.23 219.71L818.89 222.77L819.83 224.99L818.52 226.87L821.36 228.93L823.3 228.08L831.83 220.12H832.98L833.73 222.02L837.27 226.65L837.8 227.21L838.05 229.68L840.27 231.52L842.7 237.18L842.52 238.12L841.36 239.08V241.46L847.24 243.49L846.58 249.24L841.3 252.9L839.89 257.27L834.39 259.99L832.02 258.24L828.64 258.14L828.24 259.48L829.3 261.61L827.74 263.14L825.67 262.29L822.55 262.86L821.36 264.04L821.7 267.11L818.67 269.04L815.58 268.04L813.74 269.48L809.52 275.42L805.99 275.89L802.08 279.33L795.86 289.54L795.11 289.17L793.61 285.89L790.11 281.76L789.86 279.76L787.17 279.86L783.99 277.42L780.49 280.39L780.92 282.2L782.55 284.36L783.11 294.23L785.52 297.58L785.2 300.64L782.67 302.95L781.55 302.42L779.3 302.67L777.49 303.7L768.99 303.51L767.74 302.14L767.33 299.17L763.14 294.51L764.11 292.67L763.77 289.33L759.45 286.04L757.86 282.14L753.92 277.7L751.67 277.92L748.02 281.26H745.11L740.99 284.23L740.52 285.79L741.8 288.67L741.64 293.29L740.17 294.54H736.11L734.02 293.67L731.77 295.45L731.14 296.95L728.58 298.14L726.11 297.35L724.2 297.95L718.2 303.45L716.64 306.07L714.89 306.48L711.58 306.32L710.39 305.17L710.2 297.67L708.05 294.67L703.45 294.79L701.67 298.7L699.17 302.32L699.05 306.79L697.86 308.39L695.95 310.48L695.39 313.95L696.95 316.32L695.02 319.17L697.52 321.7L701.11 327.04L698.2 331.76L694.33 333.76L690.77 336.51L688.36 336.73L685.39 335.17L683.3 335.85L681.61 337.51L680.36 339.76L678.3 341.14L673.2 339.29L671.11 340.23L668.17 346.14L665.58 353.51L662.92 355.26L658.99 354.82L657.86 356.17L656.99 358.92L654.77 360.67L652.92 360.48L650.89 357.7L647.02 361.6L645.52 363.79L644.64 364.32L642.17 362.73L637.86 363.85L637.61 362.32L636.74 361.98L635.11 365.51L631.17 369.67L630.58 375.14L631.89 376.73L631.61 378.79L630.42 379.85L626.3 380.89L624.92 383.76L622.7 385.73L619.86 390.45L617.11 392.79L615.3 396.79L613.49 401.54L611.89 402.98L607.45 403.17L604.61 399.39L603.17 399.49L601.64 401.14L597.33 401.24L592.58 402.36L591.95 398.02L589.99 395.11L586.42 393.39L582.52 393.55L577.86 391.99L575.7 390.18L575.8 388.99L582.55 373.49L579.08 370.99L578.86 367.05H575.73L573.17 368.86L570.92 369.05L569.83 371.27L566.36 373.71L566.23 377.08L562.89 382.17L563.42 392.64L554.77 400.21L551.48 405.17L548.73 407.3L544.45 408.11L541.58 408.21L539.2 409.99L535.73 410.17L530.42 408.24L529.86 406.02L526.7 404.92L524.17 403.27L523.86 398.36L525.05 396.86L525.77 394.14L525.55 390.64L530.83 389.05L532.73 387.05L532.92 382.36L532.23 379.77L534.7 376.61L534.11 372.11L528.42 367.33L526.39 366.42L519.55 366.74L517.92 367.92L510.58 375.36L502.2 378.64L490.39 378.92L485.08 377.39L483.55 376.08L480.3 375.55L477.73 373.61L477.08 369.11L478.02 366.67L477.2 365.08L469.73 364.58L467.58 361.21L462.61 359.05L458.83 355.42L459.02 354.08L461.3 352.11L463.64 348.64L469.98 344.36L470.67 341.61L469.7 337.11L464.64 333.77H447.7L445.02 334.89L439.48 340.55L435.83 340.99L433.33 339.21L430.73 335.39L426.2 331.08L420.55 318.92L420.65 314.8L423.21 308.21L420.68 303.89L420.75 295.25Z" fill="white" stroke="black"/>
<path d="M540.21 409.06L541.28 408.02H544.94L548.43 407.2L551.66 405.08L554.89 399.84L563.32 392.7L562.89 382.07L566.3 376.87L566.16 373.74L568.71 371.66L569.71 371.27L570.83 369.04L572.94 368.68L575.56 366.81L578.69 366.92L579.05 370.66L582.1 373.24L581.7 375.47L575.74 388.53L575.6 390.29L578.01 392.12L582.38 393.63L586.26 393.38L590.03 394.92L591.97 398.01L592.54 402.03L591.61 402.75L589.46 405.62L588.52 410.72L589.78 413.73L589.31 415.38L586.48 415.71L583.43 416.53L580.95 414.45H578.94L577.32 420.7L578.83 423.14L578.26 424.65L575.96 425.44L575.49 430.82L576.86 434.66L584.18 438L584.79 441.09L583.78 443.42L583.14 446.62L580.91 447.59L578.36 446.9L576.75 447.73L576.39 454.69L575.53 455.91L573.02 456.17L570.07 454.05L566.2 453.87L563.75 448.3L557.87 446.76L555.5 443.57L555.68 441.59L557.62 438.72L557.76 434.63L555.43 431.83L554.06 427.66L553.6 422.24L552.12 420.48L548.1 417.36L546.45 414.31L543.65 414.17L543.9 411.94L542.36 409.93L540.21 409.06Z" fill="white" stroke="black"/>
<path d="M405.21 291.55L420.52 295.54L420.69 304.19L423 308.15L422.45 310.44L420.31 315.13L420.42 319.32L422.85 324.57L426.3 331.2L430.72 335.54L433.03 339.45L435.75 341L439.48 340.74L444.71 335.36L447.45 333.86L464.56 333.97L469.38 337.11L470.42 341.96L469.94 344.47L463.59 348.79L460.7 352.85L458.9 354.17L458.67 355.44L462.42 359.3L467.53 361.23L469.35 364.7L476.92 365.16L477.96 366.51L477.1 368.84L477.27 373.51L480.14 375.67L483.42 376.3L485.27 377.85L490.07 379.05L502.15 378.74L510.27 375.39L519.31 366.81L526.34 366.63L529.84 368.77L533.8 372.34L534.41 376.66L532.07 379.88L532.81 383.08L532.46 387.09L530.86 389.2L525.75 390.24L525.2 395.7L523.7 399.12L523.98 403.82L529.76 406.28L530.37 408.41L535.96 410.42L539.13 410.04L539.87 409.43L542 410.32L543.75 411.97V414.3L546.28 414.56L548.21 417.73L553.57 422.1L553.95 427.86L555.37 432.2L557.88 434.66L557.53 438.87L555.62 441.82V443.87L557.55 446.92L563.87 448.57L564.56 451.06L565.96 454.03L570.07 454.2L573.27 456.46L575.6 455.88L576.29 454.71L576.67 448.09L578.44 446.97L580.96 447.66L582.91 446.87L583.57 443.34L584.69 441.26L584.31 438.39L576.74 434.71L575.3 430.8L575.73 425.7L577.81 424.86L578.77 423.54L577.12 420.78L578.65 414.76L580.86 414.66L583.42 416.64L589.21 415.73L589.79 418.64L590.86 420.47L593.11 421.03L593.85 421.64L600.58 423.57L604.23 427.15L606.62 426.31L615.4 431.51L615.68 439.13L612.46 442.15L612.71 446.84L614.74 449.64L614.18 454.43L612.23 455.7L606.57 455.42L603.75 456.92L600.5 455.63L599.44 455.86L599.34 459.43L601.04 462.05L589.82 464.46L586.27 461.34L583.27 461.01L578.07 461.95L577.21 464.38L578.2 466.52L577.74 469.46L574.95 472.1L575.1 473.5L578.93 474.92L580.99 476.64L581.22 478.4L579.85 480.02L576.8 486.37L578.04 488.12L577.76 492.43L578.42 493.52L577.92 494.56L575.71 494.23L569.92 494.77L566.82 496.39L565.43 498.6L568.32 500.02L569.46 502.84L568.7 506.65L564.67 510.48L560.58 510.58L559.46 511.59L559.36 515.68L553.95 518.42L551.14 516.77L549.59 517.05L548.07 516.08L543.88 515.88L540.32 512.05L540.42 508.04L538.49 504.64L537.35 500.7L536.03 500.8L532.12 503.62H530.11L523.29 497.5L521.79 493.11L517.78 491.92L516.31 488.72L516.89 483.34L515.52 482.91L514.38 481.92L512.19 482.22L507.75 484.43L503.13 485.6L500.11 488.06L500.37 491.54L500.98 493.34L493.44 493.14L491.35 488.21L486.94 485.88L479.4 485.62L477.17 483.87L477.47 477.4L480.31 476.84L485.44 481.28L490.95 482.58L493.16 481.94L495.34 478.01L494.55 474.53L494.45 467.25L497.9 465.93L502.19 463.08L503.03 460.88L501.12 457.91L502.14 455.37L504.24 454.48L506.07 450.72L508.94 452.35L513.08 445.42L513.48 440.47L514.45 437.68L512.06 435.16L511.15 431.25L508.18 429.88L507.93 424.81L505.21 422.32L504.63 417.44L503 414.93L502.06 411.1L497.92 407.85L497.34 404.75H496.16L492.64 407L487.14 404.73L481.12 400.72L480.18 398.29L475.31 393.82L472.21 392.36L469.15 389.46L466 387.69L464.57 391.43L461.79 390.87L453 380.75L451.07 380.44L447.26 376.02L441.27 373.97L438.55 376.36L435.61 374L430.68 378.8L426.73 375.88L424.86 373.38L412.64 369.67L410.37 371.61L411.88 375.58L411.75 380.01L407.97 385.14L407.15 390.67L403.57 391.25L400.24 392.83L395.33 389.87L389.41 390.23L379.25 386.63L368.53 388.31L364.43 379.91L357.59 380.27L355.94 376.26L346.69 376.95L344.06 371.35L335.67 367.46L340.33 364.04L341.8 359.35L342.19 346.11L344.32 336.73L351.74 337.18L356.08 333.77L357.29 330.5L363.65 323.94L370.88 318.91L374.51 314.52L382.23 311.02L386.06 309.72L389.62 307.21L398.14 306.2L403.55 301.68L402.61 297.41L405.21 291.55Z" fill="white" stroke="black"/>
<path d="M280.84 422.12L282 422.22L289.56 425.87H293.16L297.53 423.53L302.59 422.44L303.34 420.5L302.44 419.47L297.72 419.25L296.66 413L299.72 410.22L303.03 409.31L305.44 407.47L305.25 403.5L307.75 401.25L307.5 399.97L293.53 389.31L293.31 376.75L301.91 371.22L313.84 371.03L326 369.31L332.47 365.94L343.94 371.4L346.56 376.9L355.97 376.31L357.66 380.22L364.37 379.87L368.47 388.25L379.22 386.56L389.47 390.22L395.53 389.78L400.31 392.87L403.47 391.37L407.37 390.78L407.97 385L411.75 379.9L411.85 375.53L410.51 371.53L412.7 369.59L424.91 373.15L426.79 375.69L430.85 378.94L435.79 373.87L438.32 376.34L441.16 373.87L447.45 376.12L451.41 380.69L453.26 380.81L461.82 390.87L464.7 391.15L466.1 387.69L469.2 389.31L472.66 392.5L475.66 394.06L480.54 398.4L481.26 400.75L486.79 404.62L488.01 404.52L492.79 407.05L496.29 404.8L497.6 404.96L497.88 407.58L501.88 410.93L503.2 414.8L504.88 417.36L505.38 422.21L508.01 424.8L508.38 429.93L511.1 431.36L512.13 435.05L514.45 437.71L513.48 440.77L513.13 445.9L508.91 452.36L506.13 450.74L504.63 454.43L502.35 455.36L501.26 457.71L502.85 460.96L502.29 463.15L498.29 465.86L494.45 467.08V474.27L495.26 477.86L493.54 481.9L490.6 482.71L485.23 481.11L480.6 476.9L477.82 477.05L477.2 483.65L479.29 485.55L486.48 485.86L491.32 488.36L493.73 493.08L497.54 493.49H501.32L502.07 495.65L503.85 496.65L504.23 498.96L502.54 502.33L502.1 505.71L499.91 506.11L497.66 503.96L495.13 504.06L491.54 507.56L490.07 507.46L488.79 504.93L486.98 502.71H484.76L479.1 505.93L477.13 509.61L477.57 513.05L475.88 516.02L473.45 515.9L471.1 516.46L467.26 515.86L466.13 514.36L457.79 505.18L456.45 501.96L452.41 501.86L448.07 505.32L446.1 503.82L443.63 503.42L438.95 500.48L436.48 499.51L432.95 500.54L430.48 499.73L426.29 500.51L422.98 499.39L417.73 500.89L413.29 503.86L412.95 506.07L414.41 508.29L413.16 510.64L406.41 512.67L405.98 514.7L406.88 515.79L407.01 518.79L405.16 520.61L404.57 523.76L396.23 534.92L394.85 535.73L390.2 532.89L387.98 532.99L386.04 534.58L383.41 534.27L379.45 531.27L375.04 530.33L373.41 523.4L370.95 522.71L365.35 518.68L363.45 515.02L359.91 513.18L352.07 512.58L350.6 511.83L336.91 511.46L332.35 508.58L327.04 508.74L325.57 506.4L323.26 506.3L320.57 507.77L315.73 505.9L311.41 501.36L306.35 498.58L302.6 498.27L299.2 496.52L295.29 495.68L292.54 493.99L283.54 493.15L281.6 487.21L279.82 483.49L276.85 479.49L276.07 474.71L272.41 470.08L271.04 467.21L270.41 464.68L271.35 461.65L269.88 460.24L269.54 457.74L270.29 455.83L275.45 455.49L276.79 451.99L275.1 449.68L277.48 441.8L280.2 437.27L280.6 432.15L279.51 430.49L275.2 429.68L275.38 428.05L280.35 425.65L280.84 422.12Z" fill="white" stroke="black"/>
<path d="M286.25 133.87L285.62 137.31L283.81 140.62L287.12 145.31L287 148.44L294.06 153.19L298.37 163.19L303.5 164L306.12 162.31L311.81 168.19L315.19 167.75L319.75 175.5L321.75 184.19L327.56 195.25L326.75 200.31L324.19 204.12L325.69 209.94L318.94 219.75L318.56 226.25L320.69 228.5L340.37 235.69L353.81 236.25L361.81 238.69L368.62 245.31L377.81 250.94L380.31 253.81L384.87 255.81L390.25 256.69L389.31 260.44L392.87 262.87L398.25 280.87L404.25 288.19L405.19 291.31L402.81 297.5L403.8 301.55L398.19 306.23L389.62 307.25L386.12 309.68L381.22 311.32L374.55 314.63L370.74 319.1L363.85 323.87L357.4 330.45L355.9 333.9L351.43 337.17L344.1 336.73L342.06 346.27L341.71 358.87L340.3 364L335.74 367.36L332.43 366.03L326.37 369.03L313.82 370.98L301.85 371.29L293.45 376.55L293.55 389.36L307.12 399.84L307.95 401.16L305.35 403.51L305.57 407.35L303.14 409.25L299.91 410.36L296.42 412.83L297.79 419.15L302.39 419.64L303.23 420.52L302.61 422.33L297.53 423.57L293.42 425.6L289.7 425.91L282.5 422.16L276.67 421.8L270.61 422.33L263.94 418.36L261.6 417.96L254.83 413.76L248.2 412.26L240.21 411.68L234.73 414.78L224.65 414.68L217.58 415.91L205.16 423.07L203.7 423.3L196.85 421.09L178.6 425.95L176.3 424.31L170.16 423.78L163.31 417.64L159.37 417.06L156.86 415.34L151.15 415.56L148.64 413.35L146.2 413.48L141.7 415.47L137.06 422.32L131.58 423.12L128.62 418.74L123.84 416.89L121.28 417.82L112.79 413.84L109.97 410.92L106.65 416.09L102.81 418.88V421.75L99.7596 422.32L100.38 427.18L95.5616 432.58L90.3906 430.19L87.2526 430.81L84.7786 430.06L81.3756 430.68L79.2986 429.35L76.4256 425.55L71.6086 423.25L70.5916 421.22L70.5016 417.46L69.7056 415.21L70.0156 412.25L68.7336 407.43L71.1646 401.95L67.6286 402.83L55.8736 398.24L48.5816 392.8L46.2826 389.04L41.2006 387.67L38.2836 380.6L39.7866 377.02L39.3886 367.96L36.9586 365.14L33.4666 364.83L32.6266 360.45L28.6496 357.8L25.1586 357.53L18.9266 353.95L18.5736 350.2L30.4616 350.3L31.1246 347.69L29.6216 344.15L31.3896 334.96L30.1966 330.45L32.5386 325.99L32.6716 324L25.6886 318.65L20.6946 317.73L18.2196 319.8L16.0986 315.52L16.8496 310.92L19.3686 309.11L17.4246 303.63L18.9266 298.77L23.4346 298.32L24.9816 295.41L24.4956 292L25.9096 289L30.1966 286.79L35.0576 287.85L37.7536 286.3L43.4546 285.38L44.7366 281.84L50.9236 284.84L56.9336 282.72L57.9946 286.17V289.84L60.2926 290.9L63.7836 289.49L68.2036 291.12L72.5346 288.47L79.9586 279.41L83.4506 279.59L90.4776 282.55L97.4156 282.81L100.2 284.05L109 276.85L122.56 272.6L127.25 272.47L132.95 270.61L135.16 269.47L138.96 270.17L140.64 269.2L142.32 260.23L142.1 257.22L144.79 253.6L148.73 252.76L148.02 249.36L154.52 247.24L154.42 245.29L153.49 243.35L154.9 239.02L151.94 225.18L153 223.37L153.62 216.34L156.45 212.19L153.36 209.49L149.69 208.88L148.72 207.37L152.08 204.85L167.41 204.15L177.93 202.82L181.42 207.77L186.99 207.46L189.86 209.8L192.51 208.88L193.75 204.01L189.64 200.26L194.37 190.71L195.3 187.84L205.33 171.66L207.54 165.79L210.68 166.58L219.65 173.12L230.65 174.4L233.39 178.65L234.37 178.55L239.4 175.98L244.84 175.41L248.51 171.03L246.78 165.51L247.98 156.01L252.71 145.84L259.34 146.86L266.94 143.77L269.24 139.3L269.72 134.13L276.39 132.72L280.55 135.02L283.11 133.69L286.25 133.87Z" fill="white" stroke="black"/>
<path d="M70.2908 403.06L72.7878 400.74L77.9588 398.78L78.8648 398.14L82.9968 397.39L83.9468 396.21L85.2948 395.4L87.8358 397.43L91.3048 396.83L93.5588 397.16L96.0778 396.79L97.0058 399.75L97.9998 400.41L100.52 400.31L99.7198 402.88L100.25 404.67L102.09 405.6L102.31 407.3L103.08 407.78L105.2 407.23L105.3 410.26L105.46 411.45L106.38 412.11L108.59 409.86L109.65 409.57L110.18 410.83L106.56 415.87L102.94 418.79L102.69 421.7L99.7298 422.17L100.4 426.99L95.5928 432.55L90.4678 430.24L87.1548 430.8L85.1548 429.86L81.7178 430.43L79.0298 428.86L76.8428 425.86L71.6548 422.93L70.5928 421.05L70.6528 418.68L70.1528 412.24L68.8408 407.18L70.2908 403.06Z" fill="white"/>
<path d="M95.415 432.67L100.32 427.24L99.57 422.29L102.71 421.63L102.88 419.02L106.68 415.79L109.25 411.9L109.6 410.75L112.96 413.76L121.27 417.87L124.23 416.99L128.78 418.71L131.48 423.08L136.87 422.24L141.2 415.79L146.33 413.58H148.54L151.41 415.66L156.67 415.48L159.36 417.12L163.39 417.69L170.06 423.57L176.38 424.32L178.63 425.82L194.19 422.16L196.58 421.14L203.91 423.26L205.77 422.82L217.3 415.84L224.06 414.64L234.72 414.82L239.84 411.86L247.62 412.21L254.69 413.85L261.45 417.91L263.93 418.49L270.42 422.38L276.52 421.71L280.5 422.11L280.15 425.78L275.29 427.9L275.15 429.67L279.4 430.64L280.46 432.1L280.32 437.18L277.58 441.42L275.06 449.51L276.7 451.85L275.55 455.39L270.51 455.83L269.36 457.38L269.98 460.38L271.4 461.62L270.16 465.2L270.82 467.19L274.09 472.49L276.17 474.84L276.83 479.3L280.37 484.2L283.46 493.22L292.43 494.06L295.22 495.78L298.97 496.49L302.2 498.21L306.49 498.61L311.08 501.13L315.68 506.13L320.67 507.76L323.41 506.35L325.89 506.52L327.17 508.78L332.25 508.88L337.25 511.62L350.42 511.84L352.14 512.72L359.96 513.29L363.45 515.06L365.4 518.6L370.57 522.44L373.4 523.5L374.94 530.4L378.97 531.28L383.12 534.2L385.77 534.64L388.16 532.83L390.23 533.05L394.79 535.75L396.2 535.08L404.6 523.59L404.95 520.94L406.98 519L406.88 515.95L405.95 514.66L406.39 512.54L410.1 511.62L412.97 514.97L416.11 517.14L421.37 518.55L425.57 521.69L426.06 525.49L428.8 528.67L429.19 534.77L432.11 538.71L436.57 543.13L436.26 544.67L433.88 546.44L432.15 546.57L432.51 548.92L435.03 551.92L436.09 556.43L437.68 557.93L438.03 570.92L439.09 573.71L438.87 577.77L438.25 578.88L439.27 590.59L437.37 590.46L435.69 591.83L435.43 595.05L433.44 597.48L430.56 598.37L431.09 601.86L429.81 604.51L430.48 605.93L430.34 611.45L426.76 613.13L423.98 611.27L419.78 614.81L417.88 611.94L414.87 611.36L412.49 607.87L409.93 607.38L404.27 613.04L400.56 609.37L397.95 610.43L395.87 609.42L393.75 609.55L390.44 607.12L386.46 608.67L384.73 607.47L386.33 604.2L390.88 600.62L390.74 599.16L388.14 594.3L385.44 595.1L383.06 597.22L382.22 593.24L385.8 591.65L386.94 589.44L383.67 588.56L381.46 585.11L371.96 588.91L370.06 592.4L368.43 593.24L365.29 592.67L361.13 590.41L356.76 589.04L354.68 585.73L352.38 587.45L349.42 588.6L344.21 592.45L341.78 592.84L341.91 594.83L334.71 598.59L327.68 598.32L325.38 599.25L323.88 603.67L319.46 606.59L314.64 609.77L314.47 613L309.78 614.85L302.84 614.95L301.12 615.92L298.51 615.75L289.81 611.64L286.4 608.81L278.89 608.68L274.25 607.31L269.56 601.43L262.89 599.39L252.46 603.73L245.57 609.69L241.55 615.22L238.58 616.9L236.51 613.4L239.82 606.47L239.2 603.06L236.29 600.32L233.5 600.72L225.59 603.06L216.27 604.61L212.47 602.31L208.58 603.77L197.79 594.93L192.93 597.72L190.37 597.41L187.94 593.47L183.78 596.08L182.24 591.75L176.14 586.76L170.26 586L168.8 581.05L170.26 579.11L169.16 577.65L164.56 578.76L159.34 574.6L152.1 571.29L152.89 564.7L151.83 560.33L149.31 559.22L145.91 563.69L143.92 564.13L139.68 559.22L139.24 553.52L133.09 547.02L130.84 545.96L127.13 540.13L122.71 538.32L119.22 534.21L112.72 530.85L111.84 526.96L100.96 534.03L99.37 528.82L96.235 526.65L94.114 523.07L86.822 516.93L88.634 515.16L87.352 513.7L85.363 513.22L82.181 508.8L78.867 507.47L75.198 507.25L71.663 502.61L69.497 494.7L63.841 496.33L63.178 492.67L64.945 489.31L64.062 486.17L66.05 480.56L62.25 473.71L63.001 471.59L62.78 469.15L63.841 467.43L68.658 467.56L68.967 471.19L71.53 473.66L76.834 472.07L80.811 471.23L83.463 467.39L81.872 462.79L83.021 459.26L77.276 454.57L75.906 451.12L75.275 449.35L76.601 444.3V441.28L76.222 437.37L76.601 435.98L77.927 435.54L80.578 435.16L82.093 433.83L82.472 432L81.904 430.42L85.241 429.74L87.473 430.51L90.544 430.07L93.251 431.315L95.415 432.67Z" fill="white" stroke="black"/>
<path d="M102.99 421.85V418.99L106.67 416.29L110.02 411.16L111.71 412.79L110.98 413.67L109.33 417.34L107.9 418.38L106.03 423.38L102.51 428.31L100.53 427.51L99.8896 422.54L102.99 421.85Z" fill="white"/>
<path d="M75.1876 449.96L74.5566 448.19L76.3826 443.14V441.62L76.0036 437.71L76.3826 436.32L77.7086 435.88L80.3596 435.5L81.8746 434.17L82.2536 432.34L81.6856 430.76L85.0226 430.08L87.2546 430.85L90.3256 430.41L93.0326 431.655L92.7236 436.035L92.2376 437.265L91.5296 437.135L91.3976 438.775L90.7346 439.475L89.0556 440.585L84.4146 439.435L83.0006 439.875L81.2766 438.995L79.8186 439.615L79.6416 441.115L79.6816 443.455L80.6546 445.005L80.4336 447.345L78.1356 447.125L77.6496 449.025L76.9866 451.585L75.1876 449.96Z" fill="white"/>
<path d="M410.779 511.47L413.119 510.87L414.119 508.28L412.809 506.16L413.219 504.19L418.029 500.69L422.939 499.5L425.839 500.53L430.439 499.78L432.939 500.56L437.189 499.69L443.809 503.44L445.839 503.91L447.809 505.31L452.339 501.97H456.309L457.749 505.28L467.809 516L471.279 516.62L473.279 515.84L475.529 516.4L477.559 513.15L477.339 509.59L479.159 506.15L484.689 502.72L487.089 503.09L488.839 505.06L490.059 507.56H491.159L495.119 504.15H497.869L499.779 506.22L501.909 505.87L502.439 502.72L504.339 499.37L503.869 496.9L501.809 495.4L500.219 490.59L499.999 488L503.029 485.69L507.749 484.44L512.089 482L513.969 481.72L516.869 483.28L516.409 488.34L517.969 491.81L521.999 493.03L523.469 497.44L530.219 503.37L532.439 503.65L535.999 500.62H537.309L539.499 505.97L540.559 507.84L540.409 511.81L544.059 515.75L548.369 516.15L549.869 517.19L550.969 516.53L553.869 518.25L559.309 515.56L559.529 511.59L560.909 510.34L570.159 510.72L571.719 511.78L572.219 514.94L574.309 516.09L582.969 514.15L585.219 513.12L589.559 513.37L590.939 517.44L592.219 518.62L594.369 518.72L596.029 517.47L598.369 519.78L601.309 520.28L606.469 524.31H607.409L612.309 522.03L616.219 521.69L619.279 523.56L619.159 524.75L619.529 526.81L617.159 529.62L617.259 530.75L621.199 533.37L621.299 534.22L620.799 536.31L618.079 538.12L615.859 541.12L610.639 553.25L608.709 554.75L603.549 554.37L601.859 555.4L600.739 562.12L594.519 571.5L592.139 572.19L587.769 571.28L583.329 565.94L582.169 566.5L580.419 568L578.139 568.15L573.549 565.31L570.919 564.28L568.549 564.94L565.669 569.94L568.579 573.78L568.419 575L567.739 575.75L558.709 583.15L563.709 589.44L567.079 589.97L569.329 596.34L576.459 597.53L578.709 600.03L579.609 603.69L579.209 606.37L573.019 601.56L571.739 602.09L571.049 604.75L568.359 605.03L566.769 607.25L567.169 611.09L574.299 614.12L577.169 614.75L578.459 618.19L580.359 621.37L579.299 622.94H575.299L568.169 625.6L565.269 623.41L560.579 624.1L559.359 622.91L559.739 619.07L558.639 618.85L556.579 616.69L554.459 617.07L552.389 621.19L547.739 622.1L544.389 621.48L541.859 619.13L543.049 617.48L542.739 613.79L540.329 612.13L539.639 608.13L541.169 606.38L539.389 604.57L535.709 606.01L532.109 605.26L530.389 608.1L531.889 611.82L530.669 613.48L525.639 614.35L524.239 618.29L525.459 620.32L524.579 624.51L519.739 629.07L517.019 632.32L515.169 632.54L513.959 633.91L513.109 644.1L515.989 648.26L515.609 654.57L515.329 655.57L508.959 659.26L507.389 656.26L505.359 656.54L498.609 660.69L497.739 662.23L491.609 662.01L489.889 659.32L487.519 658.66L487.139 653.19L484.419 651.29L485.079 647.63L483.919 646.88L482.639 644.19L480.329 642.38L479.829 636.66L475.109 632.04L474.609 628.6L468.549 621.73L465.489 621.63L459.299 619.48L458.739 615.82L457.389 612.73L459.139 610.13V607.29L457.139 606.23L454.429 606.79L448.609 612.48L446.829 612.16L444.269 614.69L440.859 609.98L438.389 578.82L439.049 577.1V573.38L438.109 571.04L437.769 557.79L435.959 556.44L434.989 551.94L432.639 549.1L432.269 546.76L433.799 546.57L436.429 544.69L436.529 543.23L432.219 539.1L429.369 534.54L428.939 528.76L426.219 525.69L425.719 521.88L421.439 518.54L416.119 517.29L412.869 514.98L410.779 511.47Z" fill="white" stroke="black"/>
<path d="M579.609 606.9L581.289 605.93L582.369 603.56L582.049 601.01L584.239 602.95L584.019 605.5L586.789 607.04L588.579 605.25L589.949 601.26L591.489 598.57L594.399 597.31L597.199 598.61L599.349 598.39L601.929 596.38L600.319 592.29L601.039 589.78L602.149 589.63L604.809 591.07L606.819 591.39L607.889 593.87L609.509 594.51L611.839 592.58L616.939 592.68L618.879 597.89L618.269 600.22L619.809 601.37L623.399 602.3L623.619 606.07L624.409 608.44L625.659 607.29L625.199 605.39L625.949 605.07L627.239 606.4L626.949 608.73L628.529 610.17L632.549 610.38L634.489 607.72V605.53L636.319 604.35L635.419 590.71L632.619 589.45L628.349 584.28L627.989 579.65L625.369 578.86L622.099 575.27L619.909 577.03L620.989 566.73L617.939 562.53L622.069 559.51L624.979 559.61L629.139 557.78L633.449 558.06L638.289 556.48L644.039 550.2L647.839 551.71L649.309 548.62L648.629 544.67L649.639 542.41L648.849 538.86L646.479 535.95L644.319 534.51L644.219 530.03L638.509 529.85L631.579 531.1L629.969 530.71L629.139 527.51L624.109 526.98L619.379 523.89L618.729 524.43L619.299 526.8L616.759 529.81L616.969 530.75L620.809 533.62L621.209 534.55L620.449 536.35L617.579 538.28L615.359 541.59L610.469 552.97L608.249 554.69L603.079 554.44L601.459 555.26L600.459 562.23L593.929 571.45L591.629 572.31L587.279 571.17L583.229 566.03L581.899 566.46L579.819 568.11H577.989L572.959 564.96L570.199 564.24L568.039 565.17L565.639 569.12V570.48L567.969 573L568.329 574.61L567.149 576.01L558.779 582.69V583.59L563.269 589.54L566.459 589.83L567.679 591.7L569.009 596.47L576.159 597.55L578.489 599.99L579.349 603.83L579.099 606.56L579.609 606.9Z" fill="white" stroke="black"/>
<path d="M579.45 606.45L579.99 606.56L581.64 605.84L582.82 603.58L582.18 600.49L584.58 602.57L584.22 605.41L586.77 606.79L589.07 604.96L590.09 600.74L591.73 598.3L594.56 597.11L597.6 598.6L599.71 598.23L601.96 596.29L600.63 592.02L601.45 589.56L602.69 589.68L604.88 590.96L606.95 591.3L608.19 593.88L609.68 594.37L611.99 592.48L617 592.65L618.69 595.93L618.97 597.89L618.65 600.08L620.16 601.19L623.64 601.94V605.89L624.66 608.19L625.91 607.13L625.45 605.12H626.17L627.66 606.3L627.22 608.71L629.07 610.07L632.82 610.17L634.49 607.64L634.76 605.18L636.63 604.5L637.65 607.18L639.25 608.99L638.77 611.3L639.12 615.93L639.84 619.61L641.87 621.97L641.44 624.32L639.91 625.54L638.8 627.44L635.8 628.71L629.99 634.4L631.19 636.4L632.57 636.75L635.77 634.44L638.08 634.28L639.88 633.47L641.8 633.63L643.4 635.07L644.06 639.88L643.52 641.06L640.52 643.56L642.61 646.34L642.14 648.22L640.74 650.16V652.24L643.91 656.66L644.36 658.67L640.39 664.63L637.25 663.64L634.74 664.81V666.1L636.16 667.39L635.58 669.21L631.13 669.39L629.54 670.3L628.03 673.91L623.38 671.14L620.62 672.44L618.89 674.52L617.71 678.38L614.76 678.75L613.01 680.23L608.61 676.74L605.84 677.37L603.39 675.47L602.45 672.53L601.21 671.79L596.96 675.67L595.51 678.63L593.78 680.19L589.92 680.55L582.58 685.27L579.98 686.01L579.88 689.86L575.73 692.61L574.48 691.39L572.14 691.29L570.78 690.18L566.02 689.71L564.66 686.89L559.09 686.23L557.82 687L556.01 690.16L553.8 690.82L551.39 692.94L548.49 692.82L546.42 691.9L547.16 689.39L549.49 686.05L549.98 680.56L547.7 677.58L544.31 676.11L541.7 670.27L545.42 662.61L545.67 657.71L548.61 654.3L543.5 647.98L541.76 649.06H537.9L536.03 651.56L534.51 651.72L530.72 651.02V647.9L529.39 645.6L530.63 642.94L530.13 641.13L527.17 639.8L532.71 633L534.76 632.75L538.22 634.61L541.22 631.89L544.92 633.57H552.24L554.49 632.53L557.36 631.97L560.61 623.84L565.2 623.14L568.36 625.08L575.52 622.71L579.22 622.61L580.42 621.19L578.07 617.3L577.15 614.3L573.92 613.69L567.3 610.8L566.69 607.07L568.29 604.99L570.89 604.41L571.64 602.04L573.28 601.49L579.45 606.45Z" fill="white" stroke="black"/>
<path d="M420.159 614.72L423.939 611.31L426.619 612.94L430.309 611.34L430.619 606.22L429.839 604.37L430.969 601.62L430.469 598.06L433.529 597.66L435.439 595.12L435.619 592.09L437.249 590.5H439.219L440.689 609.75L444.119 614.72L446.749 612.12L448.779 612.41L454.309 606.72L457.159 606.16L458.909 607.06L459.119 610.19L457.529 612.53L458.809 615.78L459.189 619.25L465.469 621.69H468.619L474.499 628.53L475.089 631.91L479.659 636.59L480.189 642.22L482.659 644.25L483.869 646.84L484.969 647.28L484.339 651.22L486.869 653.06L487.469 658.41L489.999 659.47L491.439 661.75L497.279 662.16L498.749 660.5L505.439 656.5L507.089 656.28L508.749 659.28L515.219 655.37L515.809 653.28V648.28L513.119 644.16L513.969 633.97L515.249 632.25L517.059 632.06L524.619 624.41L525.339 620.25L524.189 618.06L525.839 614.41L530.649 613.52L531.839 611.86L530.419 607.84L531.999 605.27L535.639 605.95L539.449 604.62L541.199 606.34L539.699 607.89L540.249 611.91L542.689 613.55L542.889 617.36L541.689 619.06L544.799 621.59L548.199 622L552.369 621.05L554.339 617.25L556.559 616.62L558.649 618.83L559.509 619.08L559.249 622.86L560.589 624.08L557.439 632.27L554.259 632.56L552.079 634L549.229 633.61L544.899 633.87L543.079 632.53L540.799 632.19L538.089 635.03L534.689 632.77H533.419L527.369 639.11V640.16L530.169 641.2L530.859 642.95L529.299 645.83L530.829 648.03L531.029 651.16L534.719 652.09L536.399 651.41L537.619 649.47L541.579 649.24L543.399 648.05L548.699 654.36L545.899 657.74L545.639 662.63L541.669 670.45L544.329 676.19L547.749 677.67L549.799 680.7L549.329 686.56L547.149 689.33L545.779 694.7L548.329 699.28L549.579 700.13L550.469 698.13L553.689 698L554.969 698.72L556.759 697.67L559.609 699.99L560.279 704.7L565.549 706.72L568.259 704.39L571.009 706.27L573.149 706.94L575.749 706.09L577.049 705.52L580.919 709.84L579.509 718.39L577.469 718.88L574.839 718.3L567.439 725.77L563.119 723.89L554.299 730.05L554.449 734.67L543.719 738.5L541.149 735.88L538.329 738.33L536.139 743.56L529.689 737.06L527.249 741.58L523.919 737.2L516.229 744.84L507.449 738.03L505.009 738.69L503.859 741.45L498.829 745.88L489.169 744.8L486.249 750.47L490.259 758.17L491.149 766.49L490.079 773.91L487.399 772.63L480.559 772.75L476.809 761.02L470.669 763.24L465.949 767.2L461.729 765.59L458.259 767.66L455.969 761.95L453.279 759.74L453.529 753.49L437.469 750.41L439.029 744.99L441.579 741.45L441.189 736.3L444.649 732.52L443.969 728.8L435.689 728.7L432.309 725.79L431.229 717.6L428.609 710.3L431.259 705.82L426.309 706.01L420.109 704.59L413.939 705.76L409.419 709.98L406.389 710.26V707.65L408.689 702.99L407.969 699.01L406.419 697.45L405.569 692.9L406.799 689.68L410.419 688.49L409.629 686.09L412.109 679.66L417.469 678.3L419.359 673.51L422.519 673.15L425.879 668.37L428.299 667.71L429.529 666.04L427.779 662.35L430.519 658.38L432.069 642.88L430.669 636.9L431.529 633.37L431.329 629.13L427.159 626.43L424.639 629.3L420.499 620.07L420.159 614.72Z" fill="white" stroke="black"/>
<path d="M736.529 323.36L735.379 319.27L737.469 319.99V318.84L739.119 316.11L741.699 315.4L747.519 320.85L749.669 321.46L751.069 320.13L752.039 320.67L754.839 320.17L755.669 321.89L753.659 323.76L753.119 326.24L754.049 328.43L756.639 330.9L753.939 334.64L751.499 334.78L750.099 335.64L748.269 335.79L746.009 337.47L747.479 339.3L749.889 341.21L750.169 343.36L748.379 345.48L744.179 345.91L742.819 347.27L742.459 348.96L740.979 349.35L737.649 347.63L730.179 349.35L726.119 346.7L724.359 343.47L725.439 338.41L727.269 335.64L730.249 334.53L730.749 331.48L728.959 329.22L729.609 327.03L732.409 324.84L733.409 323.83L736.529 323.36Z" fill="white" stroke="black"/>
<path d="M753.799 343.78L754.159 340.09L753.94 334.7L756.24 331.22L758.43 330.86L761.229 332.08L761.049 335.13L759.969 336.21L760.51 339.73L762.88 342.92L764.93 342.71L766.15 343.82L766.76 346.51L769.229 346.91L770.53 348.38L770.24 352.78L769.289 353L765.15 355.85L763.34 360.26L763.76 365.82L761.14 366.77L755.45 364.5L753.15 365.36L751.18 364.96L748.52 361.87L748.229 359.94L749.71 356.63L749.609 353.83L748.39 351.75L749.039 347.88L748.5 345.43L750.15 343.6L753.799 343.78Z" fill="white" stroke="black"/>
<path d="M798.719 329.16L796.499 328L795.779 324.84L793.029 322.94L791.779 318.84L786.439 318.25L784.909 316.09L781.909 316.31L778.469 312.53L780.589 310.41L780.309 307.66L782.779 304.97V303.25L781.749 302.72L779.119 302.82L777.499 303.7L768.839 303.57L767.689 302.48L767.369 299.45L763.149 294.7L764.089 292.57L763.559 289.63L759.439 286.29L757.559 282.17L753.779 277.82L751.249 278.2L747.969 281.1L745.189 281.26L740.649 284.51L740.529 286.13L741.779 288.92L741.649 293.2L740.499 294.45L736.149 294.55L733.869 293.74L729.559 297.96L728.149 298.39L725.649 297.36L719.469 302.08L716.469 306.14L711.559 306.64L710.369 305.14L710.119 298.02L708.029 294.77L703.719 294.87L701.279 299.75L699.149 302.4L698.999 307.21L695.779 310.53L695.219 314.15L696.869 316.12L695.119 319.03L695.589 320.31L697.339 321.59L703.439 330.59L704.059 333.9L706.469 334.93L706.619 336L703.999 337.81L701.169 338.72L699.999 341.33L701.019 343.36L702.959 344.42L705.989 344.71L706.959 345.88L707.599 349.08L709.609 350.98L710.449 353.17L709.319 356.37L708.839 361.06L706.339 362.69L700.859 363.87L698.699 366.43L698.939 368.31L700.239 369.54L700.069 370.72L695.929 375.14L696.289 381.28L698.189 382.76L701.389 384.15L702.579 387.4L708.259 394.93L704.879 402.16L704.399 405.3L703.309 406.4L703.509 408.94L704.129 410.93L701.609 414.69L699.419 415.09V418.2L702.399 422.36L704.739 423.46L709.979 423.9L711.309 424.88L717.249 425.21L719.129 426.73L721.069 426.95L722.879 425.56L724.229 425.34L726.909 427.06L729.449 424.79L731.699 424.69L735.349 425.97L735.569 423.61L731.969 418.42L732.139 414.42L734.859 410.79L737.029 409.29L739.849 402.97L741.419 397.09L744.409 396.01L745.399 392.23L746.819 390.55L748.649 391.53L750.039 390.66L752.829 386.75L754.389 384.34L756.559 383.61L760.489 383.11L763.319 383.33L765.069 382.29V379.68L767.759 377.05L769.489 374.65L766.679 372.37L763.849 366.99L763.749 366.07L761.299 366.82L755.139 364.41L753.279 365.47L750.979 364.83L748.509 362.14L748.269 359.55L749.459 356.68L749.559 353.83L748.359 351.99L749.069 347.71L748.339 345.45L744.469 345.85L742.679 347.38L742.569 349.12H740.269L737.639 347.8L730.219 349.28L726.199 346.74L724.669 343.49L725.269 339.11L727.129 335.82L730.219 334.65L731.039 331.42L728.849 329.08L729.759 326.87L732.539 324.77L733.509 323.95L736.559 323.34L735.609 319.51L737.339 319.76L737.489 318.59L739.369 315.87L741.869 315.43L747.679 320.77L749.619 321.35L751.429 320.13L752.319 320.75L754.769 320.2L755.719 321.94L753.599 323.78L753.069 325.97L754.089 328.4L756.979 330.98H758.749L761.289 331.98L761.399 335.4L759.849 336.09L760.489 340.04L762.729 342.7L765.199 343L766.129 343.91L766.809 346.63L769.599 347.09L770.389 348.09V352.76L771.729 352.47L775.249 354.21L777.619 353.02L779.159 351.22H782.749L784.299 350.18L785.399 350.62L786.119 345.86L787.389 341.26L790.219 336.64L792.679 335.16V332.91L798.719 329.16Z" fill="white" stroke="black"/>
<path d="M746.109 337.22L748.699 335.59L750.389 335.42L751.529 334.92L753.589 334.66L754.299 340.27L753.719 343.89L750.329 343.48L749.939 341.09L746.109 337.22Z" fill="white" stroke="black"/>
<path d="M647.06 467.43L652.66 467.93L655.53 466.75L657.98 463.93L660.72 463.21L662.52 461.76L666.97 461.31L671.98 455.91L674 454.7H676.57L677.63 451.77L679.93 450.68L685.53 451.05L687.54 448.97L691.05 449.62L694.61 447.52L699.62 443.96L703.31 440.88L703.62 432.51L704.26 430.11V423.56H709.86L711.51 424.79L717.07 425.17L718.98 426.48L721.13 426.71L722.94 425.28L724.54 425.57L726.95 426.82L729.57 424.52L731.5 424.34L732.96 425.22L735.6 425.66V426.62L734.31 428.01L733.57 431.11L734.67 431.88L740.27 427.7L743.08 426.61L746.03 424.38L746.35 426.36L742.69 429.23L734.54 437.75L733.66 440.19L731.42 441.7L729.66 443.66L729.17 445.83L727.34 447.86V449.6L728.42 450.28L733.16 450.71L736.26 453.21L738.87 454.44L739.17 457.1L741.45 458.9L744.48 457.41L748.43 457.53L749.83 456.6L752.22 457.12L752.76 459.24L756.9 462.61L759.49 462.9L760.37 463.78L760.96 467.24L762.74 469.32L761.98 470.78L760.67 471.67L759.43 473.4L755.93 475.66H754.37L751.34 471.6L749.1 469.7L746.24 469.48L744.59 470.74L743.94 473.63L745.43 480.25L741.41 482.13L740.34 485.4L741.32 487.72L740.07 491.06L737.95 492.53L734.25 492.15L733.8 494.02L734.4 495.31L738.78 496.4L740.07 497.71L740.25 500.91L741.25 502.6L744.45 503.1L747.44 505.75L749.35 506.06L751.25 503.71L753.48 502.47L753.37 504.8L755.77 511.95L754.77 518.95L750.84 519.99L747.95 523.2L747.41 528.76L744.45 527.98L743.84 525.91L741.97 525.14L740.91 526.09L740.46 527.72L735.85 528.26L731.18 526.14L730.72 523.47L729.05 523.31L727.5 523.7L724.79 521.89H723.86L722.14 523.5H720.4L718.89 521.74L716.25 519.6L715.41 516.89L714.85 510.68L713.92 509.98L712.32 510.61L710.38 512.53L708.19 513.37L703.81 511.06L700.96 511.27L694.89 513.7L692.5 512.75L688.18 514.09L677.98 511.54L676.12 509.55L672.38 509.17L670.11 505.96L666.53 503.23L663.68 498.51L661.18 496L661.29 490.54L657.77 487.53L656.36 484.53L653.56 482.77L653.81 480.31L652.98 476.58L650.24 475.45L649.75 472.88L647.88 471.21L647.35 468.49L647.06 467.43Z" fill="white" stroke="black"/>
<path d="M769.48 374.61L767.89 377.14L765.28 379.06L764.92 382.47L763.12 383.36L760.64 383.14L754.23 384.28L752.8 387.19L748.66 391.66L746.77 390.55L745.52 392.44L744.56 396.03L741.47 397.09L739.27 404.75L736.81 409.59L734.27 411.39L732.11 414.36L731.87 417.87L733.47 420.97L735.47 423.41L735.66 426.55L734.02 428.53L733.75 431.28L734.55 432.11L740.25 427.94L743.25 426.62L746.06 424.48L746.45 426.25L741.81 430.09L734.34 438.03L733.84 440.31L729.75 443.37L729.25 445.84L727.31 447.92L727.17 449.84L732.91 451.03L736.58 453.47L738.67 454.37L739.06 457.19L741.58 458.87L744.72 457.59L748.37 457.39L750 456.67L753.39 456.95L756.31 455.34L756.98 449.39L762.28 447.17L764.8 448.05L768.64 451.98L769.98 455.41L771.37 456.37L774.05 454.59L776.89 456.12L778.33 455.91L781.08 453.55L781.97 451.08L784.87 450.33L788.36 452.47L788.46 454.77L789.74 455.77L792.3 454.19L794 448.55L797.83 447.66L799.19 441.53L800.57 439.02L803.91 437.78L806.82 437.55L807.31 433.44L808.84 431.16L810.9 426.01L814.17 425L814.89 422.59L816.43 418.49L818.81 416.35L816.04 413.32L817.86 411.52L820.51 412.84L823.63 413.32L826.23 410.71L825.98 404.69L827.59 401.75L829.91 401.23L834.43 397.47L837.74 395.17L839.31 393.98L841.98 391.93L844.56 388.57L847.36 389.08L848.7 387.74L851.5 390.28L854.47 387.99L853.24 384.8L854.27 382.23L854.03 377.9L851 376.73L848.22 378.25L844.91 376.73L839.96 378.72L835.85 380.77L833.41 379.7L831.7 377.75L829.48 378.24L825.11 375.42L821.93 373.95L818.03 375.42L813.83 378.62L813.07 382.66L808.54 386.69L807.78 390.98L804.36 394.65L797.14 393.88L791.66 391.79L790.89 382.12L787.72 378.7L782.95 377.45L779.98 375.23L777.35 376.18L773.94 378.28L770.76 375.63L769.48 374.61Z" fill="white" stroke="black"/>
<path d="M700.909 327.25L700.149 327.72L698.429 331.49L694.279 333.42L690.079 336.57L687.879 336.67L685.259 335.01L683.339 335.58L681.129 337.66L680.139 339.71L677.789 341.02L672.999 339.12L670.739 340.01L666.969 348.25L665.139 353.35L662.499 355.2L658.669 354.59L657.489 356.47L656.839 358.79L654.309 360.87L653.419 360.69L653.319 365.81L652.949 368.19L650.539 370.69V376.22L649.529 378.73L648.939 383L645.389 386.09L643.609 389.71L643.749 393.43L646.499 395.96L649.139 399.75L649.039 402.51L647.839 404.75L648.029 407.84L644.499 414.5L644.339 422.07L645.989 424.32L646.289 434.3L650.259 444.72L649.919 447.96L647.209 452.48L645.319 458.17L645.649 465.42L646.719 467.59L652.539 467.77L655.769 466.57L657.729 463.93L662.499 461.92L666.929 461.09L672.249 455.39L673.839 454.65L676.209 454.55L677.239 451.91L680.159 450.87L685.019 450.97L687.629 448.8L690.389 449.68L692.059 449.25L694.819 446.93L700.639 442.97L703.119 440.56L703.389 433.38L703.999 430.46L703.899 423.42L701.279 421L698.879 417.66L699.239 415.29L700.189 414.54L701.259 414.39L703.739 410.77L703.079 407.64L703.349 405.72L704.029 404.56L704.669 401.11L706.719 397.99L707.759 394.97L706.809 392.69L702.429 387.43L701.159 383.72L697.329 382.3L696.169 380.86L695.479 375.1L696.879 373.33L698.269 372.07L699.669 370.4L699.769 368.98L698.619 367.99L698.299 366.51L700.579 363.87L704.799 363.01L708.119 361.19L708.619 359.9L709.049 356.02L710.269 352.97L709.279 350.62L707.179 348.66L706.629 345.63L705.589 344.48L702.179 344.16L700.149 342.76L699.659 341.14L700.779 338.61L704.059 337.57L706.319 335.6V334.9L703.739 333.66L703.179 330.3L700.909 327.25Z" fill="white" stroke="black"/>
<path d="M604.559 399.53L607.339 403.25L611.499 402.97L613.499 401.78L615.059 397L617.059 392.72L619.939 390.69L623.029 385.34L624.909 383.75L626.279 381.03L630.309 379.87L631.779 378.66V376.75L630.379 375.03L631.129 369.41L634.969 365.78L636.589 362L637.559 362.62L637.939 363.62L642.059 362.94L644.779 364.41L645.839 363.5L646.839 361.66L650.529 357.78L653.379 360.87L653.719 365.12L653.339 368.06L650.749 370.59L650.649 376.03L649.829 378.47L649.299 382.84L645.579 386.31L643.799 389.72L643.959 393.09L646.869 396.28L649.299 400V402.59L648.119 405L648.269 408L644.769 414.66L644.519 422.19L646.089 424.53L646.549 434.5L650.299 444.91L649.989 447.87L647.459 452.47L645.589 458.25L645.839 465.59L647.019 467.84L647.899 471.41L649.709 473.25L650.119 475.37L652.839 476.72L653.769 481.03L653.589 482.94L656.149 484.75L658.089 487.91L661.239 490.75V495.56L657.299 500.03L653.649 497.41L650.649 499.56H646.459L645.049 498.81L638.079 498.03L635.619 498.87L634.829 499.97L635.429 501.72L639.179 502.22L639.799 505.5L644.079 506.44L646.769 508.25L646.459 511.06L643.179 511.72L640.019 513.25L637.239 513.65L635.579 519.03L636.619 521.59L639.269 524.28L638.429 526.65V529.69L631.929 530.94L630.079 530.4L629.359 527.53L624.549 526.75L616.429 521.65L612.579 521.97L606.859 524.47L601.269 520.12L598.329 519.75L596.239 517.37L594.109 518.53L591.579 518.25L590.549 516.72L589.739 513.56L585.109 513.09L583.109 514.06L574.399 516.19L572.209 514.97L571.519 511.56L570.049 510.65L565.239 510.31L568.649 506.53L569.709 502.69L568.679 500.09L565.549 498.4L566.899 496.19L570.519 494.47L577.959 494.37L578.359 493.47L578.019 492.31V487.84L577.019 486.19L579.769 479.97L581.269 478.5L581.169 476.78L578.949 474.65L575.039 473.53L574.849 472.03L577.789 469.37L578.259 466.37L577.289 464.22L577.979 462.03L582.819 460.84L586.509 461.34L589.919 464.4L598.729 462.87L600.639 461.72L599.349 459.4L599.569 455.9L600.919 455.69L603.539 456.9L606.639 455.25L612.169 455.56L614.259 454.22L614.759 449.47L612.729 446.75L612.259 442.12L615.509 439.31L615.229 431.72L612.669 429.4L610.819 429L606.919 426.28L604.229 427.03L600.389 423.28L593.759 421.37L593.009 420.69L590.819 420.19L589.139 415.97L589.669 413.59L588.229 410.87L589.349 405.62L591.949 402.69L597.179 401.33L601.169 401.23L603.449 399.56L604.559 399.53Z" fill="white" stroke="black"/>
<path d="M738.08 492.71L740.16 491.13L741.09 487.94L740.41 485.32L741.38 482.05L745.29 480.51L745.4 479.29L743.96 473.72L744.54 470.74L746.51 469.67L749.17 469.88L751.25 471.93L754.52 475.81L756.06 475.71L759.47 473.63L760.62 471.48L762.31 470.51L762.88 469.32L760.91 467.06L760.69 463.83L759.79 462.86L756.85 462.65L752.76 459.6L752.47 457.05L754.41 456.58L756.45 455.29L758.43 455.39L760.47 457.44L767.58 459.7L768.26 462.71L771.89 465.3L773.97 465.05L776.92 465.87H780.33L783.23 468.74L783.88 470.75L785.32 471.47L787.07 470.57L790.05 469.64L790.99 470.22V473.88L789.19 480.23L789.41 481.95L793.54 482.89L795.58 485.76L795.4 487.2L796.87 490.03L798.96 491.61L804.13 490.46L804.88 489.1L805.27 487.12L806.64 485.11L807.68 485.01L812.31 487.34L814.1 491.25L811.95 495.02L810.48 494.77L808.33 493.15L803.59 493.91L803.19 495.49L804.84 497.53L805.7 499.51L804.95 501.84L802.65 503.67L801.33 505.9L801 507.91L802.33 509.95L804.45 511.64L807.75 512.79L808.76 513.87L811.63 514.69V518.93L810.27 520.4L811.67 522.73L815.26 522.41L818.2 521.15L820.64 520.9L822.91 522.23L827.14 522.73V527.58L825.88 532.17L824.52 534L822.58 535.44L822.76 536.48L824.41 537.81L824.91 539.57L823.4 541.47L821.29 542.19L817.52 541.94L816.33 542.87L816.62 546.6L817.09 547.36L817.41 552.17L815.54 553.25L815.04 556.51L809.94 562.58L808.18 563.08L806.14 564.95L803.84 562.43L801.83 561.86L799.28 562.83L793.65 562.33L791.17 560.68L789.41 558.16L787.29 557.84L786.9 557.16L785.28 556.87L784.35 557.88L783.95 560.93L782.59 562L780.58 565.49L777.78 565.7L776.56 564.05L777.03 562.15L779.07 559.96L779.29 558.06L777.56 555.65L775.88 554.75L773.72 556.05L773.08 557.88L771.21 559.78L765.83 562.18L765.25 559.28L763.92 554.57L762.49 551.85L760.01 550.16L760.23 547L757.93 544.85L756.56 542.66L758.07 539.71L759.97 537.02L760.33 535.4L756.86 532.86L755.32 532.96L753.08 532.34H750.6L747.33 528.95L748.04 523.15L750.82 520.13L754.79 519.04L755.75 511.98L753.41 505.32L753.52 502.6L751.46 503.52L749.3 506.01L747.36 505.91L744.21 503L741.08 502.62L740.21 501.17L740.02 497.67L738.5 496.23L734.41 495.39L733.72 494.16L734.35 492.25L738.08 492.71Z" fill="white" stroke="black"/>
<path d="M806.7 437.8H803.53L802.16 438.89L800.28 439.21L799.19 441.52L797.91 447.64L794.03 448.8L792.44 454.08L789.75 455.74L788.22 454.64L788.12 452.24L785.15 450.36L781.99 451.05L781.18 453.58L777.9 456.3L776.4 456.11L774.4 454.68L771.12 456.39L769.3 454.43L768.33 451.83L764.33 447.64L761.77 447.36L757.24 449.27L756.33 453.08L756.43 455.3L758.68 455.71L760.77 457.68L767.4 459.46L768.36 462.52L771.9 465.46L774.15 465.24L781.11 466.3L783.3 468.46L783.93 470.93L784.99 471.33L789.83 469.68L791.27 470.46L791.11 473.93L789.11 480.05L789.55 482.11L793.68 482.86L795.61 485.86L795.49 487.52L796.99 489.99L798.99 491.64L804.36 490.36L805.24 486.93L807.24 484.74L812.43 487.27L814.08 491.14L812.05 494.99L810.68 494.8L808.3 493.08L803.36 494.08L802.93 495.52L804.68 497.33L805.71 499.77L804.71 502.21L802.55 503.61L800.96 507.18L801.55 509.08L804.74 512.05L807.96 512.89L808.93 514.02L811.61 514.86V519.11L810.33 520.61L811.58 522.55H815.3L817.96 521.02L820.86 520.92L823.18 522.38L827.4 522.7L829.3 521.92L831.93 521.6L838.36 525.79L841.02 524.57L842.58 524.67L843.52 526.17L845.52 526.54L847.8 524.7L848.61 522.54L851.36 520.48L852.18 518.42L853.99 517.1L854.8 512.07L856.44 509.22L855.6 508.75L853.61 506.5L849.69 505.77L844.68 504.97L844.17 502.19L840.64 501.49L836.66 503.47L835.36 503.91L834.99 503.39L836.64 500.78L840.05 499.21L845.03 499.73L846.82 502.28L849.47 503.25H854.25L857.86 503.76L861.4 505.79L865.86 506.53L867.96 506.06L868.6 504.79L865.92 501.14L860.68 496.4L855.81 495.12L854.04 490.05L849.62 488.33L844.54 487.06L842.6 485.67L843.37 482.3L842.15 479.12L836.09 470.28L832.34 464.03L827.53 454.91L825.06 452.45L812.68 448.66L810.42 446.14L804.77 445.12L804.22 440.28L806.7 437.8Z" fill="white" stroke="black"/>
<path d="M856.5 509.2L854.88 511.46L853.81 517.02L852.19 518.46L851.22 520.54L853.38 521.87L854.24 524.16L858.26 524.99L859.69 527.18L864.42 523.78L867.66 519.79L868.37 515.96L864.98 513.05L859.69 511.04L856.5 509.2Z" fill="white" stroke="black"/>
<path d="M859.26 506.4L865.3 507.94L865.8 509.51L861.84 508.97L857.93 508.09L854.38 505.63L856.12 504.51L859.26 506.4Z" fill="white" stroke="black" stroke-width="0.5"/>
<path d="M866.54 511.64L866.44 512.31L862.72 510.98L866.54 511.64Z" fill="white" stroke="black" stroke-width="0.5"/>
<path d="M859.629 527.25L857.939 525L854.059 524.06L853.499 521.72L851.369 520.66L848.589 522.37L847.719 524.56L845.279 526.75L843.559 526.12L842.749 524.53H840.749L838.439 525.84L831.749 521.44L827.339 522.62L827.219 528.12L825.559 532.97L822.659 535.81L825.089 539.5L823.619 541.5L820.749 542.31L816.969 542.06L816.559 543L817.309 552.37L815.469 553.47L815.279 556.94L809.869 562.81L807.999 563.19L804.689 567.62L804.369 571.84L810.589 576.75L813.469 580.22L815.469 587.91L820.089 587.62L821.589 588.84L821.939 592.16L821.589 593.22L823.809 595.75L826.809 602.69L827.219 604.5L832.309 605.09L836.499 602.56L837.939 599.5L838.689 598.66L840.159 599.22L843.059 604.31L845.119 605.59L850.779 603.25L852.279 602.31L855.279 602.87L857.459 604.3L859.049 602.16L858.799 598.44L859.049 596.12L860.829 591.04L862.379 587.42L864.109 586.19L864.619 580.09L868.079 578.65L868.799 583.42L871.239 580.08L874.389 577.9L872.469 573.82L870.599 570.62L873.449 568.03V564.52L876.199 560.77L875.179 557.7L876.949 556.19L875.979 552.54L875.549 547.46L874.119 550.95L870.639 551.26L874.529 545.99L878.839 542.68L882.249 540.98L881.809 538.77L876.459 536.58L874.379 537.28L872.869 540.8L870.119 541.9L866.729 539.55L862.249 536.07L858.649 536.55L853.879 540.82L851.249 541.88L846.619 541.11L842.469 540.07L841.539 538.49L845.079 536.58L850.409 536.07L853.259 535.12L853.499 532.15L859.629 527.25Z" fill="white" stroke="black"/>
<path d="M735.33 663.03L737.11 664.42L737.45 665.8L741.7 666L744.83 664.22L747.58 663.53L749.36 664.39L750.73 666.95L749.89 669.48L746.08 672.16L745.03 676.08L742.23 679.8L746.72 682.81L760.87 677.31L766.39 674.47L771.37 678.23L773.92 678.09L774.59 676.42L773.16 672.42L775.97 670.3L774.16 666.52L774.05 664.23L775.7 662.67L776.77 653.36L778.19 651.37L778.31 647.81L780.91 646.33L782.72 642.44L781.56 638.28L784.78 634.95V633.7L782.81 629.75L783.29 624.22L785.67 622.39L790.34 620.41L793.29 615.5L791.45 609.47L793.59 604.48L794.1 601.33L797.89 599.12L799.89 599.33L801.09 600.52L803.23 600.8L803.84 599L806.9 596.69L813.96 593.33L813.76 590.34L815.56 587.87L813.54 580.2L810.26 576.52L804.31 571.78L804.51 568.03L806.23 565.05L803.89 562.33L801.71 561.83L799.51 562.72L793.7 562.36L791.01 560.44L789.56 558.25L787.42 558.02L786.92 556.94L785.25 556.81L784.39 557.94L783.85 560.98L782.54 562.28L780.65 565.53L778.15 565.8L776.71 564.14L777.09 562.05L779.06 560.03L779.42 557.78L777.57 555.58L776 554.91L773.73 555.92L773.18 558L771.09 559.8L761.53 564.5L758.35 562.95L754.78 562.75L752.73 563.28L752.26 566.72L750.57 567.59L747.95 567.25L746.56 568.27L747.28 570.09L744.76 570.69L742.6 572.64L741.96 574.3L735.98 576.36L732.1 576.73L730.87 578.5L726.07 581.66L725.73 583.14L730.6 589.45L730.73 593.7L733.21 597.62L732.65 599.5L730.48 601.8L728.59 606.53L724.9 607.81L724.54 611.09L723.06 613.28L722.81 617.11L723.96 621.45L725.14 622.09L726.95 620.7L728.29 621.81L728.75 623.11L727.28 626.02L727.84 627.42L730.76 629.89L729.18 633.16L729.71 635.11L732.06 637.12L734.62 637.95L735 640.91L733.9 642.73L733.5 646.39L735.01 647.09L737.14 645.73L738.07 646.41L735.57 649.75L735.71 652.84L733.53 657.62L735.06 659.8L735.33 663.03Z" fill="white" stroke="black"/>
<path d="M661.219 496.26L663.659 498.5L667.249 504.28L670.339 506.06L672.559 509.4L676.169 509.83L678.109 511.55L682.089 512.4L687.959 514.41L692.679 513.04L694.929 513.65L701.299 511.48L704.379 511.37L708.509 513.74L710.429 512.81L712.169 510.8L713.879 510.1L714.899 510.67L715.309 517.64L716.549 519.97L720.659 523.63L722.139 523.34L724.219 521.85L727.649 523.78L730.049 523.34L731.089 524.13L731.189 526.09L735.859 528.5L740.329 527.72L741.849 525.14L743.859 525.91L744.399 527.98L747.289 528.91L750.989 532.71L753.319 532.28L757.379 533.27L760.379 535.41L759.869 537.58L756.569 542.41L758.459 545.6L760.299 546.91L760.119 550.25L762.649 551.86L765.099 558.34L765.899 562.38L761.429 564.5L758.459 563.01L754.779 562.6L752.659 563.08L752.319 566.47L750.219 567.66L747.939 567.44L746.719 568.43L747.179 570.23L744.989 570.57L742.659 572.67L741.919 574.5L736.019 576.42L732.069 576.62L730.469 578.86L726.239 581.59L725.469 583.01L722.809 582.48L721.359 583.2L720.759 580.87L718.989 579.2L719.109 576.02L720.349 574.08L719.759 571.63L717.679 569.27L717.439 567.19L713.459 570.08L708.579 576.33L705.699 575.99L705.089 573.83L706.229 571.02L704.949 571.37L703.769 570.15L701.539 570.96L698.449 573.87H695.829L693.359 575.58L684.179 569.31L675.389 568.88L672.229 566.93L666.559 566.07L663.559 566.39L661.729 567.52L658.109 568.17L657.749 569.53L661.029 572.26L661.569 574.32L657.529 576.83H654.159L652.329 577.42L650.439 574.77L646.999 575.18L643.619 577.53L641.679 578.45L638.399 581.44L637.949 584.28L636.139 586.52L635.629 590.4L632.779 589.5L628.599 584.14L628.309 579.63L625.399 578.84L622.299 575.36L619.949 576.92L620.719 573.65L620.879 566.04L618.119 562.4L622.049 559.42L625.479 559.53L628.989 557.7L632.119 557.98L636.009 557.54L639.639 555.42L644.289 550.2L648.139 551.63L649.509 548.49L648.899 545.01L649.939 542.08L649.059 538.96L647.639 536.5L644.449 534.4V529.93L638.399 529.48L638.579 526.14L639.259 524.15L636.479 521.21L635.479 518.96L637.339 513.6L640.719 512.97L643.159 511.55L646.479 510.91L646.979 508.02L644.159 506.22L639.549 505.4L639.249 501.97L635.489 501.61L634.829 500.08L635.779 498.75L638.349 498.05L645.279 498.83L646.889 499.6L650.819 499.45L653.339 497.34L657.179 499.85L661.219 496.26Z" fill="white" stroke="black"/>
<path d="M635.619 590.87L636.159 587.06L638.969 581.25L641.589 578.66L647.189 575.25L650.589 574.97L652.469 577.34L655.029 576.75L657.839 577L661.559 574.56L661.059 572.31L657.589 569.5L657.999 568.16L661.839 567.75L663.499 566.19L671.939 566.75L675.529 568.91L684.159 569.34L693.469 575.81L695.969 574.06L698.619 573.53L702.939 570.25L706.089 571.37L705.309 573.75L705.839 575.91L708.589 576.22L713.529 570.37L717.309 566.91L717.869 569.28L719.909 572.06L720.409 573.94L719.159 576.19V579.09L720.779 580.84L721.499 583.31L722.689 582.66L725.779 583.12L730.409 589.22L730.809 593.84L733.339 597.47L732.619 599.37L730.439 601.97L728.619 606.5L725.869 607.28L724.719 608.19L724.529 611.28L723.029 613.16L722.719 617.09L724.059 621.62L725.119 622L726.909 620.72L728.659 622.22L728.839 623.44L727.059 626L727.719 627.31L730.839 629.84L729.309 633.22L729.719 634.97L732.089 637.06L734.719 638.03L735.059 640.94L733.939 642.72L733.529 646.47L734.939 647.19L737.309 645.62L738.059 646.28L737.689 647.28L735.469 649.66L735.589 652.72L733.529 657.72L735.219 660.03V662.84L732.249 665.56L725.469 665.84L721.369 663.41L715.339 668.16V669.34L716.649 671.53L716.399 676.28L713.249 676.66L708.369 672.44L700.719 672.87L699.999 677.19L700.899 679.28L699.619 681.75L696.719 682.78L690.429 682.59L687.999 685.69L687.249 686.03L686.369 684.69L686.679 682.19L685.969 677.56L684.219 675.69L682.219 675.84L679.899 678.06L677.999 680L676.719 678.5L676.819 676.16L679.259 672.72L680.229 670.53L682.099 668.84L682.729 662.44L684.009 660.91L684.229 658.62L682.879 658.06L680.229 658.56L679.159 656.81L679.789 650.56L677.129 649.87L675.539 648.87L673.379 649.12L671.479 650.87L667.129 650.03L665.319 652.94L662.479 655.72L661.379 657.66L658.759 658.34L657.689 657.69L657.789 654.53L655.939 652.78L654.219 653.12L652.629 656.09L651.909 658.5L649.939 660.47L648.469 660.16L647.159 658.84H644.409L643.939 656.56L640.849 652.56L640.599 650.44L642.539 647.87L642.659 646.69L640.719 643.75L643.789 640.84L644.099 639.34L643.569 635.19L641.969 633.84L639.659 633.74L637.879 634.55L635.689 634.43L632.689 636.71L631.289 636.46L629.939 634.74L635.759 628.65L638.879 627.49L639.909 625.68L641.469 624.55L641.719 622.24L639.909 619.8L639.069 615.96L638.849 610.43L639.219 608.99L637.789 607.33L636.789 603.86L635.619 590.87Z" fill="white" stroke="black"/>
<path d="M804.559 695.18L804.069 694.19L802.649 693.25L802.289 691.83L799.369 686.72L798.819 681.84L795.649 677.5L794.099 676.39L793.209 673.73L791.339 673.52L788.789 674.87L786.009 671.83L783.129 670.27L780.239 671.05L778.679 670.17L776.099 670.33L774.129 666.53L774.029 664.2L775.859 662.7L776.659 653.08L778.169 651.37V647.58L780.739 646.28L782.799 642.42L781.499 638.53L782.909 636.41L784.659 634.98V633.58L782.669 630.14L783.139 624.27L785.689 622.23L790.049 620.55L792.279 617.59L793.209 615.05L791.579 610.34L792.359 606.39L793.519 604.75L794.029 601.44L796.459 600.03L797.969 598.91L799.859 599.3L800.999 600.72L802.959 600.87L803.909 598.91L807.019 596.84L813.959 593.31L813.749 590.33L815.219 587.98L819.989 587.73L821.249 588.61L821.989 592.14L821.489 593.16L823.779 595.73L825.549 600.5L827.139 603.61L827.299 604.56L830.889 604.84L832.109 605.27L836.159 602.69L838.529 598.62L839.999 599.39L843.299 604.44L845.349 605.62L847.809 604.22L852.579 602.36L855.329 602.89L857.369 604.34L856.319 605.77H853.149L855.309 607.32L853.429 609.2L853.169 612.71L851.749 613.9L848.389 616.23L847.719 619.84L846.989 618.92L843.389 618.37L842.529 621.51L846.399 624.86L847.309 626.45L845.619 628.62L844.309 632.82L845.829 635.36L845.319 637.62L846.559 639.85L844.279 643.39L846.579 646.72L846.169 648.15L844.159 647.7L841.249 645.85L839.299 648.08L838.759 651.04L840.879 653.63L838.889 654.29L834.669 657.99L836.209 660.82L835.329 662.35L829.829 662.61L830.739 665.03L832.649 666.22L831.729 668.29L830.559 669.91H826.329L823.199 671.47L821.449 673.97L817.009 674.8L819.619 677.13L820.789 679.45L818.869 681.37L816.909 684.56H814.019V688.78L810.149 687.75L811.169 692.33L808.529 691.85L807.759 695.41L804.559 695.18Z" fill="white" stroke="black"/>
<path d="M850.409 617.37L849.689 619.87L850.939 621.65L852.009 619.51L850.409 617.37Z" fill="white" stroke="black" stroke-width="0.5"/>
<path d="M848.979 643.08L848.619 645.4L850.229 647.37L851.839 645.58L850.759 643.44L848.979 643.08Z" fill="white" stroke="black" stroke-width="0.5"/>
<path d="M656.59 759.62L657.61 756.34L660.02 755.37L661.31 751.41L662.72 750.2L669.64 749.37L668.62 747.73L668.77 743.52L672.97 742.87L676.5 740.17L675.05 736.45L676.2 734.06L680.37 732.33L687.34 726.33L688.87 724.42L689.02 720.91L688.08 718.75L687.98 714.61L689.7 709.17L691.92 707.16L692.2 704.06L694.73 703.3L696.95 700.17L696.2 695.05L698.71 692.58L698.81 690.11L697.9 688.31L697.76 686.78L696.51 684.81L696.4 682.83L699.21 681.8L700.95 679.34L699.89 677.06L700.78 673L708.35 672.41L713.31 676.91L716.46 676.41L716.62 671.47L715 669.2L715.57 667.7L721.5 663.33L725.45 665.89L732.31 665.48L735.34 662.92L736.96 664.41L737.57 665.94L741.48 666.04L744.93 664.09L747.59 663.65L749.62 664.81L750.71 667.26L749.81 669.87L746.09 672.38L745.12 676.06L742.31 679.68L746.59 682.71L760.81 677.63L765.1 674.82H766.54L771.64 678.32L773.6 678.07L774.54 676.2L773.26 673.01L773.95 671.42L777.76 670.04L780.23 671.01L783.51 670.35L786.32 671.95L788.73 674.85L792.23 673.38L793.14 673.76L794.01 676.26L796.23 678.2L799.07 682.1L799.39 687.13L802.42 692.17L802.52 693.26L804.08 694.29L804.4 695.16L802.42 697.99L804.32 699.66L800.92 701.24L795.15 701.75L795.05 702.22L796.98 702.95L798.31 705.16L794.39 706.88L793.9 712.13L789.23 712.87L786.19 715.14L783.92 715.65L780.22 718.36L776.13 716.07L774.95 717.55L774.22 721.69H771.87L771.63 719.51L770.19 718.65L766.99 718.91L763.37 722.28L761.9 724.73L758.98 724.95L758.46 721.05L754.49 723.04L754.23 726.61L751.56 725.35L747.79 726.85L743.86 728.2L741.19 728.36L738.95 726.26L737.91 723.74L735.63 723.95L734.34 722.67L733.35 721.93L732.48 724.23L733.25 725.44L733.47 726.51L733.73 729.12L735.14 732.8L735.38 734.52L735.27 734.71L732.92 736.1L730.53 733.8L730.13 734.08L731.37 737.15L728.11 741.34L724.66 736.91L723.52 739.47L723.91 745.17H720.05L715.79 748.18L711.89 747.14L711.11 749.46H703.91L701.59 750.75L698.41 751.81V754.13L695.3 756.28H692.01L690.23 757.8L684.65 758.06L682.88 760.33L678.83 760.59L675.3 765.39L672.81 765.64L669.21 768.21L666.82 770.61L667.91 774.15L670.67 775.15L671.42 778.63L674.91 782.12L674.69 783.44L671.28 786.84L664 787.09L663.34 784.9L664.77 783.77L660.26 781.38L659.75 775.53L657.02 774.79L657.99 766.97L660.75 762.71L662.19 760.11L656.59 759.62Z" fill="white" stroke="black"/>
<path d="M672.549 767.9L670.939 768.97L671.479 769.87L673.979 769.69L674.509 767.72L672.549 767.9Z" fill="white" stroke="black" stroke-width="0.5"/>
<path d="M731.849 739.93L730.989 741.14L732.049 741.4L731.849 739.93Z" fill="white" stroke="black" stroke-width="0.5"/>
<path d="M719.1 749.28V750.8L720.34 751.3L720.44 748.26L719.1 749.28Z" fill="white" stroke="black" stroke-width="0.5"/>
<path d="M716.27 749.7L715.18 751.68L716.32 751.58L717.2 750.51L716.27 749.7Z" fill="white" stroke="black" stroke-width="0.5"/>
<path d="M701.169 754.08L701.039 755.09L702.559 754.33V752.44L701.169 754.08Z" fill="white" stroke="black" stroke-width="0.5"/>
<path d="M567.749 725.59L574.909 718.44L577.809 718.94L579.659 718.28L580.249 711.44L580.749 709.97L577.119 705.44L572.939 707.12L568.339 704.78L565.089 706.78L560.409 704.59L559.749 700.66L557.029 697.47L554.869 698.81L553.589 697.91L550.339 698.19L549.619 700.16L548.219 699.16L545.619 694.56L546.469 692.16L550.809 693.31L556.089 689.97L558.749 686.37L564.559 687.09L566.339 689.87L570.279 690.31L572.409 691.62L574.499 691.5L575.689 692.66L579.999 689.91L579.869 686.06L582.689 685.66L589.869 680.72L593.779 680.34L595.689 678.47L597.219 675.5L601.029 671.94L602.499 672.75L603.369 675.41L606.189 677.5L608.779 676.94L612.969 680.28L615.119 678.81L617.659 678.37L619.089 674.56L620.689 672.44L623.279 671.12L628.029 674.09L630.439 669.62L635.219 669.5L636.249 667.75L634.689 665.81L635.339 664.66L637.589 663.59L640.219 664.62L644.439 658.87L646.809 658.77L648.619 660.18H650.119L651.869 658.33L652.529 655.96L654.439 652.9L655.939 652.68L657.439 654.21L657.559 657.71L660.869 657.93L666.089 651.49L667.119 650.05L671.309 650.8L673.999 648.71L679.689 650.55L679.309 656.99L680.439 658.27L683.999 658.43L683.899 660.77L682.549 662.71L682.079 668.93L679.929 670.3L679.459 672.65L676.739 675.9L676.429 678.3L678.049 679.96L681.989 675.77H684.049L685.929 677.71L686.579 685.02L687.329 685.77L688.959 684.74L690.119 682.62L696.079 682.83L696.619 685.08L697.899 687.33L698.019 688.99L698.929 690.49L698.649 692.58L696.269 694.8V697.15L696.959 700.24L694.709 703.33L692.149 704.08L691.769 707.15L689.619 709.18L687.989 714.71L688.089 718.96L689.189 721.12L688.839 724.74L683.279 730.24L678.749 733.08L676.119 733.96L675.089 736.43L676.499 739.96L672.809 742.83L668.809 743.46L668.589 747.55L669.439 749.02L667.659 749.99L663.089 750.21L661.159 751.68L659.969 755.49L657.559 756.37L656.659 759.58H656.149L653.069 755.74L651.409 756.08L652.429 760.38L646.559 761.59L645.049 762.68L644.079 758.85L641.209 758.07L638.289 756.47L636.829 757.93L634.519 754.9L633.699 751.67L630.499 752.54V757.35L627.799 758.09L626.799 760.32H625.039L624.459 759.79L620.949 761.18L616.809 759.18L610.559 760.83L602.589 756.9L600.189 754.18L593.659 752.71L592.309 745.68L590.779 744.18L591.189 741.05L594.619 737.86L594.279 734.71L588.869 732.3L584.659 733.9L580.529 731.08L576.189 732.74L568.839 728.24L567.749 725.59Z" fill="white" stroke="black"/>
<path d="M658.26 794.33L663.44 795.22L666.66 794.51L667.55 792.9L674.16 792.01L678.44 790.76L683.26 788.62L684.69 789.15V792.72L686.12 796.65L686.66 800.05L684.16 802.19L681.48 805.94L678.8 811.65L677.91 817.9L677.19 822.55L674.87 823.62H672.73L669.16 828.08L668.98 830.05L665.76 830.22L662.19 831.12V834.69L657.73 835.4L655.59 833.44L649.51 833.8L645.23 831.83L639.87 829.51L639.16 825.22L637.91 822.19L637.01 817.37L637.91 815.05L637.19 812.55L638.44 809.87L646.12 804.51L648.8 803.8L650.23 801.47L647.73 801.3V799.15L649.87 797.72L653.8 797.9L655.23 797.19V795.4L657.01 794.51L658.26 794.33Z" fill="white" stroke="black"/>
<path d="M744.14 728.48L748.05 727.18L750.95 729.64L749.04 730.82L749.55 732.42L747.13 731.98L745.43 731.53L743.21 731.75L744.14 728.48Z" fill="white" stroke="black"/>
<path d="M744.14 734.29L740.72 734.86L743.86 732.55L744.14 734.29Z" fill="white" stroke="black" stroke-width="0.5"/>
<path d="M749.31 733.41L748.34 734.23L747.05 733.17L749.31 733.41Z" fill="white" stroke="black" stroke-width="0.5"/>
<path d="M733.31 736.4L735.13 735.01L734.52 736.17L733.31 736.4Z" fill="white" stroke="black"/>
<path d="M735.77 736.48L733.979 737.91L735.59 738.8L735.77 736.48Z" fill="white" stroke="black" stroke-width="0.5"/>
<path d="M300.89 635.01L304.45 635.3L308.52 634.55L311.46 633.54L314.13 635.57L317.6 635.75L320.98 636.5L324.43 635.99L326.31 636.34L326.99 636.12L333.6 634.73L334.44 631.37L337.69 628.37L340.38 626.78L343.12 623.7L353.97 621.54L356.98 619.73L359.5 619.11L361.49 617.83L363.74 617.03L365.18 613.56L376.27 610.09L376.98 611.48L378.52 612.52L381.42 612.42L383.05 611.78L384.33 613.82L385.86 614.13L386.19 613.66L393.77 619.76L396.55 620.87L397.97 622.41L398.07 623.74" stroke="#808080" stroke-dasharray="2 4"/>
<path d="M76.3748 450.5L77.1248 446.87H79.0628L79.3128 445.31L79.6248 444.44L78.6878 442.44V441L78.3128 439.87L80.2498 438.5L81.8748 439.5L82.6878 439.25L83.8128 439.35H85.2498L87.9528 440.21L90.4998 438.41L90.3588 437.01L90.6878 436.6L91.4378 436.91L91.7188 436.35L91.7688 432.87L91.9718 432.02L93.0498 431.65L95.4088 432.43L96.0808 431.88L95.7998 430.59L96.1588 430.01L97.9408 429.82L99.8618 427.96L102.28 428.54L103.98 425.82L105.67 424.49L106.56 420.81L106.67 419.31L108.91 417.49L109.28 416.73L109.13 415.15L109.73 414.12L111.41 413.2L112.19 411.16L111.58 410.66L110.59 410.87L109.63 409.59L108.78 409.49L107.89 411.18L106 412.15L105.22 411.57V408.79L104.37 407.03L103.22 408.01L102.47 407.68L102.2 406.2L100.39 405.65L99.7358 402.81L100.53 402.09L100.19 401.26L99.5798 401.12L99.4388 400.32L97.9078 400.42L96.9388 399.62L97.3608 398.07L96.9708 397.39L95.5168 396.85L93.8918 397.17H92.8608L91.4548 396.74L87.8918 397.42L86.4858 396.31L85.1578 395.91L83.9858 396.17L83.1268 397.45L80.1108 398.36L78.8138 398.22L77.6108 398.84L76.1578 398.97L74.7988 400.05L73.6108 400.15L72.6418 400.78L72.2358 401.75L71.3608 401.62L70.1268 400.78H69.5018L68.5488 401.84" stroke="#808080" stroke-dasharray="2 4"/>
<path d="M77.6875 471.22L78.4105 469.49V468.36L79.0105 466.48L78.5525 464.93L79.2745 463.88L79.0885 461.59L77.9325 460.19L79.0575 457.69" stroke="#808080" stroke-dasharray="2 4"/>
<path d="M64.8389 483.33L61.7489 477.79L60.9689 477.91L60.8789 476.22L62.3169 475.72" stroke="#808080" stroke-dasharray="2 4"/>
<path d="M71.339 503.36L69.579 503.26L66.468 502.12L65.969 500.83L65.563 498.93L65 497.36" stroke="#808080" stroke-dasharray="2 4"/>
<path d="M85.6196 516.3L85.0786 515.74L84.0605 515.51L84.2186 512.56" stroke="#808080" stroke-dasharray="2 4"/>
</svg>
