<svg width="488" height="336" viewBox="0 0 488 336" fill="none" xmlns="http://www.w3.org/2000/svg">
<path opacity="0.7" d="M202.447 84.7888C221.43 76.4543 266.208 64.4439 293.455 83.0793C327.514 106.373 222.15 136.488 254.575 154.211C287 171.934 347.59 97.4666 371.008 110.267C394.426 123.067 311.421 157.217 335.573 175.096C359.724 192.974 430.556 114.75 459.871 129.603C489.185 144.457 389.791 187.19 436.627 212.79" stroke="url(#paint0_linear_26:747)" stroke-width="2"/>
<path fill-rule="evenodd" clip-rule="evenodd" d="M66.1116 139.485C67.7579 140.919 69.0622 142.437 70.1024 143.888L72.4983 140.414C71.2301 139.019 69.9981 137.746 68.5381 136.528L66.1116 139.485Z" fill="#3E1A0B"/>
<path fill-rule="evenodd" clip-rule="evenodd" d="M74.2534 145.897C72.6856 143.103 69.4104 142.05 66.9026 143.591L63.5832 145.727C61.0754 147.267 60.4133 150.871 61.866 153.693C63.4338 156.487 66.7089 157.54 69.2168 156L72.5362 153.864C75.044 152.323 75.8578 148.814 74.2534 145.897Z" fill="#F69E9F"/>
<path fill-rule="evenodd" clip-rule="evenodd" d="M207.536 34.9454L148.364 42.9262L144.312 22.6008C143.922 20.8655 142.32 19.5582 140.547 19.7316L93.6407 26.0106C92.0173 26.2781 90.9032 27.8595 91.2162 29.7446L95.2678 50.0701L39.4921 57.6099C38.0955 57.8218 37.0588 59.2534 37.3772 60.7448L86.5399 308.964C86.8583 310.455 88.3106 311.668 89.7072 311.456L257.787 288.914C259.183 288.702 260.22 287.27 259.902 285.779L210.626 37.5878C210.498 35.9188 208.968 34.8554 207.536 34.9454Z" fill="url(#paint1_linear_26:747)"/>
<path fill-rule="evenodd" clip-rule="evenodd" d="M199.903 65.3158L51.8195 85.2432C50.5329 85.4276 49.6848 86.6835 49.968 88.0552L92.6553 303.182C92.9385 304.554 94.2087 305.552 95.4952 305.368L243.579 285.441C244.865 285.256 245.714 284 245.43 282.629L202.743 67.5017C202.46 66.13 201.19 65.1314 199.903 65.3158Z" fill="#F36F49"/>
<path fill-rule="evenodd" clip-rule="evenodd" d="M199.613 57.8491L55.1256 77.1569C53.8391 77.3413 53.1046 78.5694 53.3878 79.941L95.0508 289.948C95.3339 291.32 96.5681 292.196 97.8546 292.012L242.42 272.554C243.706 272.37 244.441 271.142 244.158 269.77L202.495 59.7628C202.134 58.5412 200.9 57.6647 199.613 57.8491Z" fill="#FAFBFC"/>
<path opacity="0.8" d="M194.626 66.6842L63.2374 84.3605C62.5196 84.4056 61.9099 84.817 61.5996 85.417C61.2893 86.017 61.1287 86.7112 61.2315 87.4719L99.6683 281.19C99.771 281.95 100.215 282.627 100.813 283.004C101.412 283.381 102.089 283.609 102.807 283.564L234.231 266.009C234.949 265.964 235.559 265.553 235.869 264.953C236.179 264.353 236.34 263.659 236.237 262.898L197.764 69.0582C197.662 68.2975 197.218 67.6204 196.619 67.2434C196.02 66.8663 195.344 66.6392 194.626 66.6842ZM235.178 263.027C235.323 263.515 235.204 263.937 234.935 264.265C234.666 264.593 234.361 264.799 233.907 264.91L102.632 282.559C102.177 282.67 101.764 282.509 101.429 282.199C101.093 281.888 100.871 281.549 100.727 281.061L62.2542 87.2211C62.1099 86.7326 62.229 86.3105 62.4978 85.9826C62.7666 85.6548 63.0714 85.449 63.526 85.3376L194.915 67.6613C195.369 67.5498 195.782 67.7105 196.118 68.0212C196.453 68.3319 196.675 68.6704 196.819 69.1589L235.178 263.027Z" fill="#F58A6B"/>
<path fill-rule="evenodd" clip-rule="evenodd" d="M122.929 31.181C120.106 31.6081 118.318 34.2855 118.962 37.2905C119.605 40.2955 122.316 42.3992 125.139 41.9722C127.961 41.5452 129.749 38.8677 129.106 35.8627C128.499 32.9806 125.751 30.754 122.929 31.181Z" fill="#FAFBFC"/>
<path fill-rule="evenodd" clip-rule="evenodd" d="M163.121 39.9612L87.1579 50.1675C85.4847 50.4449 84.3365 52.0833 84.6593 54.0364L89.2029 76.7655C89.6055 78.5633 91.2565 79.9176 93.0837 79.7378L169.046 69.5315C170.72 69.2541 171.868 67.6157 171.545 65.6626L167.081 42.7783C166.562 41.0093 164.794 39.6839 163.121 39.9612Z" fill="#F58A6B"/>
<path opacity="0.8" fill-rule="evenodd" clip-rule="evenodd" d="M122.026 49.7201L93.3682 53.5401C92.0584 53.7277 91.1949 55.0048 91.4832 56.3996L94.9741 73.6624C95.2624 75.0572 96.5556 76.0728 97.8654 75.8853L126.523 72.0652C127.833 71.8777 128.696 70.6006 128.408 69.2058L124.917 51.9429C124.629 50.5481 123.335 49.5326 122.026 49.7201Z" fill="#F36F49"/>
<path opacity="0.2" d="M118.728 103.47L119.169 106.034L199.691 93.2782L199.25 90.7144L118.728 103.47Z" fill="#EE4D47"/>
<path opacity="0.2" d="M119.577 108.701L120.019 111.265L200.541 98.5092L200.099 95.9453L119.577 108.701Z" fill="#EE4D47"/>
<path opacity="0.2" d="M160.638 107.222L161.078 109.718L201.351 103.511L200.911 101.015L160.638 107.222Z" fill="#EE4D47"/>
<path opacity="0.2" d="M120.425 113.868L120.864 116.356L158.583 110.561L158.143 108.073L120.425 113.868Z" fill="#EE4D47"/>
<path opacity="0.2" d="M124.289 137.655L124.73 140.219L205.252 127.464L204.811 124.9L124.289 137.655Z" fill="#EE4D47"/>
<path opacity="0.2" d="M125.138 142.887L125.58 145.451L206.102 132.695L205.66 130.131L125.138 142.887Z" fill="#EE4D47"/>
<path opacity="0.2" d="M166.322 141.388L166.762 143.884L207.035 137.677L206.595 135.181L166.322 141.388Z" fill="#EE4D47"/>
<path opacity="0.2" d="M125.987 148.054L126.427 150.542L164.146 144.747L163.706 142.259L125.987 148.054Z" fill="#EE4D47"/>
<path opacity="0.2" d="M129.345 168.315L129.787 170.879L210.309 158.124L209.867 155.56L129.345 168.315Z" fill="#EE4D47"/>
<path opacity="0.2" d="M130.195 173.546L130.636 176.11L211.158 163.354L210.717 160.791L130.195 173.546Z" fill="#EE4D47"/>
<path opacity="0.2" d="M171.378 172.047L171.818 174.543L212.09 168.336L211.65 165.84L171.378 172.047Z" fill="#EE4D47"/>
<path opacity="0.2" d="M131.042 178.713L131.481 181.202L169.2 175.407L168.761 172.918L131.042 178.713Z" fill="#EE4D47"/>
<path opacity="0.2" d="M134.515 199.895L134.956 202.459L215.478 189.704L215.037 187.14L134.515 199.895Z" fill="#EE4D47"/>
<path opacity="0.2" d="M135.386 205.248L135.827 207.812L216.349 195.057L215.908 192.493L135.386 205.248Z" fill="#EE4D47"/>
<path opacity="0.2" d="M176.567 203.749L177.007 206.245L217.28 200.039L216.84 197.542L176.567 203.749Z" fill="#EE4D47"/>
<path opacity="0.2" d="M136.232 210.416L136.672 212.904L174.391 207.109L173.951 204.621L136.232 210.416Z" fill="#EE4D47"/>
<path opacity="0.2" d="M139.607 231.273L140.048 233.836L220.57 221.081L220.129 218.518L139.607 231.273Z" fill="#EE4D47"/>
<path opacity="0.2" d="M140.456 236.505L140.897 239.069L221.419 226.312L220.978 223.749L140.456 236.505Z" fill="#EE4D47"/>
<path opacity="0.2" d="M181.639 235.004L182.079 237.5L222.352 231.294L221.912 228.798L181.639 235.004Z" fill="#EE4D47"/>
<path opacity="0.2" d="M141.425 241.652L141.865 244.14L179.584 238.345L179.144 235.857L141.425 241.652Z" fill="#EE4D47"/>
<path opacity="0.2" d="M80.5852 103.671L79.6308 103.772L79.8074 104.785L83.5849 123.786L83.7614 124.799L84.7158 124.697L103.887 122.119L104.842 122.017L104.665 121.005L100.888 102.003L100.711 100.991L99.7566 101.092L80.5852 103.671ZM102.616 120.318L85.2023 122.599L81.7416 105.499L99.0406 103.247L102.616 120.318Z" fill="#EE4D47"/>
<path opacity="0.2" d="M86.2263 138.511L85.272 138.612L85.5633 139.597L89.3407 158.598L89.5173 159.611L90.4717 159.509L109.643 156.931L110.597 156.829L110.421 155.817L106.643 136.815L106.467 135.803L105.512 135.904L86.2263 138.511ZM108.257 155.158L90.9582 157.411L87.4974 140.311L104.796 138.059L108.257 155.158Z" fill="#EE4D47"/>
<path opacity="0.2" d="M91.7136 171.867L90.7593 171.968L90.9358 172.981L94.7133 191.982L94.8899 192.994L95.8442 192.893L115.016 190.314L115.97 190.213L115.793 189.2L112.016 170.199L111.839 169.187L110.885 169.288L91.7136 171.867ZM113.745 188.514L96.4455 190.766L92.9848 173.667L110.284 171.415L113.745 188.514Z" fill="#EE4D47"/>
<path opacity="0.2" d="M97.2694 205.457L96.3151 205.558L96.4917 206.57L100.305 225.692L100.481 226.704L101.436 226.603L120.604 224.025L121.558 223.923L121.382 222.911L117.605 203.912L117.428 202.9L116.474 203.002L97.2694 205.457ZM119.297 222.102L102 224.354L98.5403 207.257L115.837 205.005L119.297 222.102Z" fill="#EE4D47"/>
<path opacity="0.2" d="M102.625 237.825L101.671 237.927L101.847 238.939L105.625 257.941L105.801 258.953L106.756 258.852L125.927 256.273L126.882 256.172L126.705 255.159L122.928 236.158L122.751 235.145L121.797 235.247L102.625 237.825ZM124.62 254.35L107.321 256.602L103.86 239.502L121.159 237.25L124.62 254.35Z" fill="#EE4D47"/>
<path d="M93.4234 113.298L82.9815 106.529L81.9177 108.388L93.3902 115.705L94.3051 116.28L94.7791 115.364L107.514 92.5274L105.684 91.3767L93.4234 113.298Z" fill="#EE4D47"/>
<path d="M99.3205 149.1L88.8786 142.33L87.8148 144.19L99.2873 151.506L100.165 151.957L100.676 151.166L113.374 128.205L111.545 127.054L99.3205 149.1Z" fill="#F58A6B"/>
<path d="M110.598 217.379L100.042 210.639L99.0936 212.47L110.449 219.813L111.364 220.389L111.837 219.473L124.686 196.612L122.82 195.337L110.598 217.379Z" fill="#F58A6B"/>
<path d="M382.146 77.9995C382.146 66.9538 373.192 57.9995 362.146 57.9995H286.667C275.621 57.9995 266.667 66.9538 266.667 77.9995V88.4021C266.667 99.4478 275.621 108.402 286.667 108.402H382.146V77.9995Z" fill="white"/>
<circle r="3.82804" transform="matrix(-1 0 0 1 355.988 83.5199)" fill="#F4A984"/>
<circle r="3.82804" transform="matrix(-1 0 0 1 340.037 83.5199)" fill="#F4A984"/>
<circle r="3.82804" transform="matrix(-1 0 0 1 324.087 83.5199)" fill="#F4A984"/>
<circle r="3.82804" transform="matrix(-1 0 0 1 308.136 83.5199)" fill="#F4A984"/>
<circle r="3.82804" transform="matrix(-1 0 0 1 292.186 83.5199)" fill="#F4A984"/>
<path d="M232.667 245.5C189.067 245.5 211.167 182.5 227.667 150.999C236.5 144.333 258.167 130.9 274.167 130.5C290.167 130.1 300.167 150 303.167 160C301.334 160.166 299.467 167.8 306.667 197C313.867 226.2 310.334 241.5 307.667 245.5H232.667Z" fill="#402B2B"/>
<path d="M278.266 230.54C274.154 223.351 277.238 212.225 277.238 212.225L264.558 214.793L251.878 212.225C251.878 212.225 253.42 217.531 252.906 223.351C257.361 228.486 267.643 238.072 278.266 230.54Z" fill="url(#paint2_linear_26:747)"/>
<path d="M276.465 216.233C273.69 217.905 270.183 219.452 266.258 220.639C261.334 222.128 256.643 222.779 252.96 222.639C253.297 217.106 251.879 212.225 251.879 212.225L264.559 214.793L277.239 212.225C277.239 212.225 276.792 213.838 276.465 216.233Z" fill="url(#paint3_linear_26:747)" style="mix-blend-mode:multiply"/>
<path d="M233.543 240.639C240.912 247.143 255.477 261.35 264.73 261.35C273.983 261.35 290.433 247.828 297.801 241.324C294.203 239.954 283.236 235.675 280.666 233.45C279.809 232.594 278.952 231.567 278.438 230.54C267.814 238.071 257.533 228.486 253.078 223.18C252.735 226.945 251.707 230.711 248.794 233.279C245.881 235.675 236.971 239.27 233.543 240.639Z" fill="url(#paint4_linear_26:747)"/>
<path d="M299.443 173.37C298.243 171.145 296.359 170.802 295.159 171.145C295.159 171.145 291.732 160.19 289.333 152.145C281.279 148.379 273.74 145.127 264.658 144.442V144.271C263.287 144.271 260.888 144.271 259.517 144.271C253.863 144.442 248.208 144.613 242.725 145.64C241.354 145.983 239.983 146.325 238.612 146.325C236.899 155.397 233.986 171.316 232.786 171.145H232.615C232.443 171.145 232.443 171.145 232.272 170.973C231.073 170.631 229.702 170.973 228.502 173.027C226.446 176.793 228.502 184.325 231.244 186.55C232.615 187.577 233.814 188.433 234.671 188.946C236.042 195.793 238.441 202.297 242.039 206.234C251.464 216.333 260.203 218.559 262.602 218.901C262.773 218.901 263.116 218.901 263.287 218.901C263.287 218.901 263.459 218.901 263.63 218.901C265.343 218.73 274.768 217.018 284.878 206.063C288.476 202.297 291.047 199.559 292.589 189.46C293.617 188.946 294.645 188.09 296.359 186.721C299.443 184.667 301.499 177.136 299.443 173.37Z" fill="url(#paint5_linear_26:747)"/>
<path d="M264.403 183C264.403 183 264.535 186.856 263.492 188.125C262.449 189.393 260.47 190.622 260.307 191.57C260.116 192.338 260.944 193.687 262.389 194.018C263.835 194.348 264.069 194.865 264.069 194.865C264.069 194.865 261.402 195.647 259.734 193.874C258.066 192.102 259.328 190.245 260.55 189.133C261.772 188.021 262.321 187.567 262.843 186.933C263.516 186.275 264.403 183 264.403 183Z" fill="#D87C60"/>
<path d="M274.733 200H254.031C253.356 200 252.879 200.655 253.15 201.274C254.61 204.609 258.191 209.5 264.167 209.5C270.118 209.5 273.951 204.648 275.596 201.315C275.904 200.691 275.429 200 274.733 200Z" fill="#D87C60"/>
<path fill-rule="evenodd" clip-rule="evenodd" d="M274.643 203H254.034C253.682 202.402 253.388 201.817 253.151 201.274C252.88 200.655 253.356 200 254.032 200H274.733C275.429 200 275.905 200.691 275.597 201.315C275.334 201.846 275.016 202.416 274.643 203Z" fill="white"/>
<path d="M284.265 131.947C309.796 135.199 303.799 166.352 298.83 171.829L295.167 178C293.334 174.833 289.567 166.1 289.167 156.5C285.334 159 273.867 164 258.667 164C239.667 164 234.459 167.145 232.667 176C228.212 166.072 225.148 145.983 236.114 134.686C251.193 118.938 273.983 115.172 284.265 131.947Z" fill="#402B2B"/>
<path d="M232.686 175.937L233.543 183.298C233.543 183.298 230.973 181.928 230.459 178.505C230.287 176.451 231.144 175.081 232.686 175.937Z" fill="#ED8A40"/>
<path d="M294.887 175.937L294.03 183.298C294.03 183.298 296.6 181.928 297.114 178.505C297.286 176.451 296.6 175.081 294.887 175.937Z" fill="#ED8A40"/>
<path d="M281.352 184.26C281.352 185.801 280.153 187.17 278.439 187.17C276.897 187.17 275.526 185.972 275.526 184.26C275.526 182.719 276.726 181.35 278.439 181.35C280.153 181.35 281.352 182.719 281.352 184.26Z" fill="#402B2B"/>
<path d="M250.851 187.17C252.459 187.17 253.764 185.867 253.764 184.26C253.764 182.653 252.459 181.35 250.851 181.35C249.242 181.35 247.938 182.653 247.938 184.26C247.938 185.867 249.242 187.17 250.851 187.17Z" fill="#402B2B"/>
<path d="M243.208 178.86C244.457 177.498 248.113 174.773 252.745 174.773" stroke="#402B2B" stroke-width="2"/>
<path d="M276.247 174.89C278.094 174.809 282.606 175.468 285.882 178.743" stroke="#402B2B" stroke-width="2"/>
<path d="M325.732 279.495C326.417 261.008 320.762 250.053 312.195 245.432C303.627 240.81 283.407 234.991 282.722 234.819L264.387 249.369L246.909 234.819C246.223 234.991 225.489 240.81 217.093 245.432C208.525 250.053 202.871 261.008 203.556 279.495C204.07 294.386 203.042 317.837 203.213 334.953H326.246C326.246 317.837 325.217 294.386 325.732 279.495Z" fill="url(#paint6_linear_26:747)"/>
<path d="M274.496 241.153L269.698 238.928L264.215 249.027L258.731 238.928L253.762 241.153L260.959 252.792V334.954H267.642V252.279L274.496 241.153Z" fill="#EE4D47" fill-opacity="0.29" style="mix-blend-mode:multiply"/>
<path d="M252.906 223.18C252.735 228.144 259.76 240.982 259.76 240.982L247.594 252.792L243.653 235.676C243.653 235.676 247.594 225.234 252.906 223.18Z" fill="white"/>
<path d="M276.209 223.18C276.381 228.144 268.499 241.153 268.499 241.153L281.35 252.792L285.291 235.504C285.291 235.504 281.521 225.234 276.209 223.18Z" fill="white"/>
<path d="M266.274 255.702C266.274 256.729 265.417 257.585 264.389 257.585C263.361 257.585 262.504 256.729 262.504 255.702C262.504 254.675 263.361 253.819 264.389 253.819C265.417 253.819 266.274 254.675 266.274 255.702Z" fill="white"/>
<path d="M266.273 273.161C266.273 274.188 265.416 275.044 264.388 275.044C263.36 275.044 262.503 274.188 262.503 273.161C262.503 272.134 263.36 271.278 264.388 271.278C265.416 271.278 266.273 271.963 266.273 273.161Z" fill="white"/>
<path d="M266.273 290.278C266.273 291.305 265.416 292.161 264.388 292.161C263.36 292.161 262.503 291.305 262.503 290.278C262.503 289.251 263.36 288.396 264.388 288.396C265.416 288.396 266.273 289.251 266.273 290.278Z" fill="white"/>
<path d="M266.273 309.278C266.273 310.305 265.416 311.161 264.388 311.161C263.36 311.161 262.503 310.305 262.503 309.278C262.503 308.251 263.36 307.396 264.388 307.396C265.416 307.396 266.273 308.251 266.273 309.278Z" fill="white"/>
<path d="M206.298 250.567C206.298 250.567 188.134 299.35 186.764 307.395C185.564 315.44 195.845 334.098 200.643 334.782C207.669 335.809 213.323 333.755 220.349 321.773C227.203 309.792 226.004 258.612 226.004 258.612L206.298 250.567Z" fill="url(#paint7_linear_26:747)"/>
<path d="M226.175 253.82C226.175 253.82 224.976 312.702 222.405 320.062C218.293 331.873 207.84 335.125 207.84 335.125H219.492C219.492 335.125 228.574 329.134 229.431 311.161C229.945 300.378 228.06 265.973 227.032 254.504C226.689 251.423 226.175 253.82 226.175 253.82Z" fill="#EE4D47" fill-opacity="0.29" style="mix-blend-mode:multiply"/>
<path d="M230.202 248.263L210.501 240.312L206.393 250.469L226.094 258.42L230.202 248.263Z" fill="white"/>
<path d="M304.655 262.207C304.655 262.207 297.63 295.585 297.116 309.278C296.602 322.972 297.116 334.782 297.116 334.782L302.085 335.125C302.085 335.125 303.284 275.215 304.655 262.207Z" fill="#EE4D47" fill-opacity="0.29" style="mix-blend-mode:multiply"/>
<path d="M245.023 215.991C235.599 215.991 232.515 211.37 230.63 204.352C229.773 200.586 229.43 190.487 229.43 190.145H232.172C232.172 190.316 232.515 200.415 233.371 203.838C235.085 210.514 237.655 213.937 246.908 213.252L247.08 215.991C246.394 215.991 245.709 215.991 245.023 215.991Z" fill="white"/>
<path d="M264.387 122.875C256.847 122.19 239.54 122.704 231.658 137.766C231.658 137.766 233.714 141.361 236.113 138.965C244.681 131.262 256.676 131.091 264.044 131.091C271.584 131.091 284.093 131.091 292.489 138.965C295.059 141.19 296.944 137.766 296.944 137.766C289.233 122.704 271.926 122.19 264.387 122.875Z" fill="white"/>
<path d="M304.998 174.568C304.998 174.568 304.655 164.127 304.484 161.217C304.141 155.568 303.284 146.325 301.399 141.361C295.231 124.415 275.182 121.163 264.73 121.163C254.106 121.163 233.714 124.415 227.546 141.19C225.832 145.983 224.975 154.541 224.461 160.361C224.29 163.784 224.119 174.397 224.119 174.397H227.032C227.032 174.397 227.032 163.784 227.374 160.361C227.717 155.91 228.574 149.406 230.801 143.244C235.942 128.695 254.962 127.154 264.216 127.154C273.64 127.154 293.003 128.695 298.144 143.244C300.543 150.091 301.399 157.109 301.742 161.559C301.913 164.469 302.085 174.568 302.085 174.568H304.998Z" fill="url(#paint8_linear_26:747)"/>
<path d="M227.718 172.514H223.948V188.604H227.718V172.514Z" fill="white"/>
<path d="M234.4 191.685H230.116C228.06 191.685 226.347 189.973 226.347 187.919V173.198C226.347 171.144 228.06 169.433 230.116 169.433H234.4C234.914 169.433 235.257 169.775 235.257 170.288V190.658C235.257 191.171 234.914 191.685 234.4 191.685Z" fill="url(#paint9_linear_26:747)"/>
<path d="M222.405 189.973H222.234C221.377 189.973 220.691 189.288 220.691 188.432V172.342C220.691 171.486 221.377 170.802 222.234 170.802H222.405C223.262 170.802 223.947 171.486 223.947 172.342V188.432C223.947 189.288 223.262 189.973 222.405 189.973Z" fill="url(#paint10_linear_26:747)"/>
<path d="M300.844 188.882H304.614V172.792H300.844V188.882Z" fill="white"/>
<path d="M294.374 192.027H298.658C300.714 192.027 302.428 190.315 302.428 188.261V173.541C302.428 171.487 300.714 169.775 298.658 169.775H294.374C293.86 169.775 293.517 170.117 293.517 170.631V191C293.346 191.513 293.86 192.027 294.374 192.027Z" fill="url(#paint11_linear_26:747)"/>
<path d="M306.197 190.315H306.369C307.226 190.315 307.911 189.63 307.911 188.774V172.685C307.911 171.829 307.226 171.144 306.369 171.144H306.197C305.341 171.144 304.655 171.829 304.655 172.685V188.774C304.655 189.63 305.341 190.315 306.197 190.315Z" fill="url(#paint12_linear_26:747)"/>
<path d="M255.134 214.279C255.134 215.991 253.078 217.531 250.336 217.531C247.766 217.531 245.539 216.162 245.539 214.279C245.539 212.396 247.595 211.027 250.336 211.027C252.907 211.027 255.134 212.396 255.134 214.279Z" fill="url(#paint13_linear_26:747)"/>
<path fill-rule="evenodd" clip-rule="evenodd" d="M219.321 203.325L219.322 203.324C220.916 201.832 222.741 200.802 224.495 199.932C227.648 197.893 231.324 195.573 232.687 194.937C235.429 193.568 237.142 195.964 233.201 199.388C232.346 200.131 231.353 200.922 230.324 201.705C232.464 200.886 234.358 200.182 235.257 199.901C238.17 199.045 239.541 201.784 234.914 204.352C233.032 205.396 230.669 206.525 228.527 207.497L229.26 209.829C229.26 209.829 231.317 207.946 232.002 207.433C236.286 204.523 238.513 206.919 236.628 209.487C234.572 212.054 231.488 219.414 232.516 224.549C233.201 227.973 232.687 232.766 231.831 236.531C230.974 240.126 225.662 250.738 225.662 250.738L211.954 245.946C211.954 245.946 215.038 242.693 214.524 234.82C214.372 232.239 213.344 229.523 212.321 226.822C211.038 223.433 209.763 220.066 210.24 217.018C211.097 212.225 218.122 204.523 219.322 203.325L219.321 203.325Z" fill="url(#paint14_linear_26:747)"/>
<path opacity="0.3" d="M231.658 223.865C232.001 219.586 231.658 218.73 231.316 216.676C230.973 214.279 231.487 211.198 230.459 208.973C229.259 206.577 227.375 205.207 224.119 205.892C219.835 206.919 218.121 209.144 218.121 209.144C218.121 209.144 221.548 207.775 223.262 207.261C225.832 206.577 228.403 206.748 229.431 209.829C229.945 211.712 230.288 214.279 230.63 216.162C230.802 217.532 231.83 223.523 230.973 223.694C230.116 223.694 228.231 223.18 227.375 220.099C227.203 220.784 227.032 225.405 226.518 225.405C223.433 225.063 223.091 222.667 222.919 220.099C222.919 218.901 222.748 217.189 222.405 214.964C221.206 216.847 218.293 218.559 217.093 219.414C218.464 220.613 221.034 223.523 222.063 224.721C223.947 226.946 225.661 230.369 226.004 233.964C230.63 229.513 228.06 224.892 227.889 223.351C229.088 224.721 231.487 225.748 231.658 223.865Z" fill="#EB5046"/>
<path d="M425.976 223.865C425.976 221.297 423.919 219.415 421.178 219.415H294.547C291.977 219.415 289.749 221.469 289.749 223.865V302.603H425.804V223.865H425.976Z" fill="url(#paint15_linear_26:747)"/>
<path d="M294.718 317.494H421.349C423.919 317.494 426.147 315.44 426.147 313.044V302.774H290.091V313.044C289.92 315.44 292.148 317.494 294.718 317.494Z" fill="#CA3F3A"/>
<path d="M377.826 315.611H343.897V331.701H377.826V315.611Z" fill="#CA3F3A"/>
<path d="M381.937 315.611H348.009V331.701H381.937V315.611Z" fill="url(#paint16_linear_26:747)"/>
<path d="M376.282 330.161H334.3V334.782H376.282V330.161Z" fill="url(#paint17_linear_26:747)"/>
<path d="M389.991 330.161H348.009V334.782H389.991V330.161Z" fill="url(#paint18_linear_26:747)"/>
<path d="M433.001 223.864C433.001 221.297 430.945 219.414 428.204 219.414H301.744C299.174 219.414 296.946 221.468 296.946 223.864V302.602H433.001V223.864Z" fill="url(#paint19_linear_26:747)"/>
<path d="M301.744 317.494H428.375C430.945 317.494 433.173 315.44 433.173 313.044V302.774H297.117V313.044C296.946 315.44 299.002 317.494 301.744 317.494Z" fill="url(#paint20_linear_26:747)"/>
<path opacity="0.2" d="M377.311 253.819C377.311 260.666 371.827 266.144 364.973 266.144C358.119 266.144 352.636 260.666 352.636 253.819C352.636 246.973 358.119 241.495 364.973 241.495C371.827 241.495 377.311 246.973 377.311 253.819Z" fill="white"/>
<path d="M262.331 330.161H233.029V334.611H262.331V330.161Z" fill="url(#paint21_linear_26:747)"/>
<path d="M310.996 330.161H249.479V334.611H310.996V330.161Z" fill="url(#paint22_linear_26:747)"/>
<path d="M334.667 139C334.667 127.954 343.621 119 354.667 119H467.286C478.331 119 487.286 127.954 487.286 139V165.612C487.286 176.658 478.331 185.612 467.286 185.612H334.667V139Z" fill="#F69477"/>
<circle opacity="0.5" cx="369.238" cy="152.727" r="5.05919" fill="white"/>
<circle opacity="0.5" cx="390.318" cy="152.727" r="5.05919" fill="white"/>
<circle opacity="0.5" cx="411.399" cy="152.727" r="5.05919" fill="white"/>
<circle opacity="0.5" cx="432.479" cy="152.727" r="5.05919" fill="white"/>
<circle opacity="0.5" cx="453.558" cy="152.727" r="5.05919" fill="white"/>
<defs>
<linearGradient id="paint0_linear_26:747" x1="346.265" y1="99.8897" x2="289.619" y2="203.525" gradientUnits="userSpaceOnUse">
<stop stop-color="#F37753"/>
<stop offset="1" stop-color="white" stop-opacity="0"/>
</linearGradient>
<linearGradient id="paint1_linear_26:747" x1="123.77" y1="-19.2204" x2="162.265" y2="315.822" gradientUnits="userSpaceOnUse">
<stop stop-color="#F7A58D"/>
<stop offset="1" stop-color="#F58A6B"/>
</linearGradient>
<linearGradient id="paint2_linear_26:747" x1="279.455" y1="222.496" x2="276.4" y2="188.71" gradientUnits="userSpaceOnUse">
<stop stop-color="#FFB3B6"/>
<stop offset="1" stop-color="#FFC8C1"/>
</linearGradient>
<linearGradient id="paint3_linear_26:747" x1="252.048" y1="218.537" x2="280.782" y2="228.885" gradientUnits="userSpaceOnUse">
<stop stop-color="#FFB3B6" stop-opacity="0.31"/>
<stop offset="1" stop-color="#FFC8C1"/>
</linearGradient>
<linearGradient id="paint4_linear_26:747" x1="305.03" y1="276.408" x2="298.901" y2="213.207" gradientUnits="userSpaceOnUse">
<stop stop-color="#FFB3B6"/>
<stop offset="1" stop-color="white"/>
</linearGradient>
<linearGradient id="paint5_linear_26:747" x1="303.54" y1="209.856" x2="297.656" y2="159.227" gradientUnits="userSpaceOnUse">
<stop stop-color="#FFB3B6"/>
<stop offset="1" stop-color="#FFC8C1"/>
</linearGradient>
<linearGradient id="paint6_linear_26:747" x1="264.72" y1="211.641" x2="264.72" y2="337.695" gradientUnits="userSpaceOnUse">
<stop stop-color="#F4A984"/>
<stop offset="1" stop-color="#EE4D47"/>
</linearGradient>
<linearGradient id="paint7_linear_26:747" x1="206.376" y1="231.02" x2="206.376" y2="337.326" gradientUnits="userSpaceOnUse">
<stop stop-color="#F4A984"/>
<stop offset="1" stop-color="#EE4D47"/>
</linearGradient>
<linearGradient id="paint8_linear_26:747" x1="264.558" y1="108.801" x2="264.558" y2="176.03" gradientUnits="userSpaceOnUse">
<stop stop-color="#F4A984"/>
<stop offset="1" stop-color="#EE4D47"/>
</linearGradient>
<linearGradient id="paint9_linear_26:747" x1="230.802" y1="164.282" x2="230.802" y2="192.294" gradientUnits="userSpaceOnUse">
<stop stop-color="#F4A984"/>
<stop offset="1" stop-color="#EE4D47"/>
</linearGradient>
<linearGradient id="paint10_linear_26:747" x1="222.319" y1="166.364" x2="222.319" y2="190.498" gradientUnits="userSpaceOnUse">
<stop stop-color="#F4A984"/>
<stop offset="1" stop-color="#EE4D47"/>
</linearGradient>
<linearGradient id="paint11_linear_26:747" x1="297.956" y1="164.624" x2="297.956" y2="192.636" gradientUnits="userSpaceOnUse">
<stop stop-color="#F4A984"/>
<stop offset="1" stop-color="#EE4D47"/>
</linearGradient>
<linearGradient id="paint12_linear_26:747" x1="306.283" y1="166.706" x2="306.283" y2="190.84" gradientUnits="userSpaceOnUse">
<stop stop-color="#F4A984"/>
<stop offset="1" stop-color="#EE4D47"/>
</linearGradient>
<linearGradient id="paint13_linear_26:747" x1="250.336" y1="209.521" x2="250.336" y2="217.709" gradientUnits="userSpaceOnUse">
<stop stop-color="#F4A984"/>
<stop offset="1" stop-color="#EE4D47"/>
</linearGradient>
<linearGradient id="paint14_linear_26:747" x1="223.667" y1="248.499" x2="246.167" y2="164.499" gradientUnits="userSpaceOnUse">
<stop stop-color="#FFB3B6"/>
<stop offset="0.239165" stop-color="#FFC5C7"/>
<stop offset="1" stop-color="white"/>
</linearGradient>
<linearGradient id="paint15_linear_26:747" x1="338.772" y1="470.263" x2="338.772" y2="-14.8093" gradientUnits="userSpaceOnUse">
<stop stop-color="#FFEDBA"/>
<stop offset="0.423008" stop-color="#F16D5E"/>
<stop offset="0.651925" stop-color="#EE4D47"/>
</linearGradient>
<linearGradient id="paint16_linear_26:747" x1="360.218" y1="364.129" x2="360.218" y2="270.309" gradientUnits="userSpaceOnUse">
<stop stop-color="#FFEDBA"/>
<stop offset="1" stop-color="#EE4D47"/>
</linearGradient>
<linearGradient id="paint17_linear_26:747" x1="349.408" y1="352.272" x2="349.408" y2="325.771" gradientUnits="userSpaceOnUse">
<stop stop-color="#FFEDBA"/>
<stop offset="1" stop-color="#EE4D47"/>
</linearGradient>
<linearGradient id="paint18_linear_26:747" x1="363.116" y1="344.097" x2="363.116" y2="317.148" gradientUnits="userSpaceOnUse">
<stop stop-color="#FFEDBA"/>
<stop offset="1" stop-color="#EE4D47"/>
</linearGradient>
<linearGradient id="paint19_linear_26:747" x1="345.907" y1="357.04" x2="345.907" y2="140.407" gradientUnits="userSpaceOnUse">
<stop stop-color="#FFEDBA"/>
<stop offset="1" stop-color="#EE4D47"/>
</linearGradient>
<linearGradient id="paint20_linear_26:747" x1="346.072" y1="347.163" x2="346.072" y2="261.327" gradientUnits="userSpaceOnUse">
<stop stop-color="#FFEDBA"/>
<stop offset="1" stop-color="#EE4D47"/>
</linearGradient>
<linearGradient id="paint21_linear_26:747" x1="243.574" y1="351.453" x2="243.574" y2="325.934" gradientUnits="userSpaceOnUse">
<stop stop-color="#FFEDBA"/>
<stop offset="1" stop-color="#EE4D47"/>
</linearGradient>
<linearGradient id="paint22_linear_26:747" x1="271.617" y1="330.131" x2="271.617" y2="310.716" gradientUnits="userSpaceOnUse">
<stop stop-color="#FFEDBA"/>
<stop offset="1" stop-color="#EE4D47"/>
</linearGradient>
</defs>
</svg>
