<svg width="511" height="468" viewBox="0 0 511 468" fill="none" xmlns="http://www.w3.org/2000/svg">
<path opacity="0.7" d="M0.999023 279.131C20.8636 253.324 73.4778 203.001 125.018 208.162C189.444 214.614 67.0353 335.583 125.018 335.583C183.001 335.583 210.382 187.194 252.259 187.194C294.136 187.194 205.55 296.873 252.259 303.325C298.967 309.776 337.623 148.484 389.163 146.871C440.704 145.258 336.012 279.131 419.765 279.131" stroke="url(#paint0_linear_26:656)" stroke-width="2"/>
<path d="M289.778 437.504L269.575 435.791L270.602 410.782L290.977 412.666L289.778 437.504Z" fill="#D88D6C"/>
<path d="M252.11 434.078C252.11 434.078 265.464 427.911 267.69 423.458C267.69 423.458 271.628 409.069 277.621 416.606C277.621 416.606 283.785 421.573 292.517 417.634L293.544 444.869L233.105 444.698C234.645 440.587 236.015 435.962 252.11 434.078Z" fill="url(#paint1_linear_26:656)"/>
<path d="M293.544 445.041L293.886 449.323L232.933 449.152C232.933 447.439 232.42 446.583 233.276 444.87L293.544 445.041Z" fill="#C73E39"/>
<path d="M378.295 434.078L358.091 437.503L352.784 413.18L372.816 409.754L378.295 434.078Z" fill="#D88D6C"/>
<path d="M339.429 434.078C339.429 434.078 352.784 427.912 355.01 423.458C355.01 423.458 351.928 412.153 359.119 417.805C359.119 417.805 371.447 422.43 376.583 416.778L380.692 445.041L320.253 444.87C322.137 440.587 323.506 435.962 339.429 434.078Z" fill="url(#paint2_linear_26:656)"/>
<path d="M380.864 445.04L381.206 449.323L320.253 449.151C320.253 447.439 319.739 446.582 320.596 444.869L380.864 445.04Z" fill="#C73E39"/>
<path d="M266.149 201.807C266.149 201.807 262.554 304.753 265.807 421.745C265.807 421.745 275.566 430.995 294.057 424.828C294.057 424.828 293.886 294.647 298.852 242.917C298.852 242.917 322.137 341.238 351.586 426.37C351.586 426.37 371.276 430.138 378.296 419.004C378.296 419.004 338.574 281.115 332.752 201.807H266.149Z" fill="url(#paint3_linear_26:656)"/>
<path d="M266.149 201.807H332.752C333.266 207.802 333.78 214.14 334.636 220.649C294.914 220.82 273.854 210.714 265.978 206.089C265.978 203.177 266.149 201.807 266.149 201.807Z" fill="#402B2B" fill-opacity="0.45" style="mix-blend-mode:multiply"/>
<path d="M510.36 388.846H408.552V467.461H510.36V388.846Z" fill="#8C5E5E"/>
<path d="M510.525 388.846H473.459V467.46H510.525V388.846Z" fill="#694646"/>
<path d="M497.84 388.846H488.285V399.723H497.84V388.846Z" fill="#A3774A"/>
<path d="M443.148 388.846H433.593V399.723H443.148V388.846Z" fill="#A3774A"/>
<path d="M443.597 388.846H341.789V467.461H443.597V388.846Z" fill="#F7A58D"/>
<path d="M443.761 388.846H406.695V467.46H443.761V388.846Z" fill="#F58A6B"/>
<path d="M431.076 388.846H421.521V399.723H431.076V388.846Z" fill="white"/>
<path d="M376.382 388.846H366.827V399.723H376.382V388.846Z" fill="white"/>
<path d="M469.561 312.534H367.753V391.149H469.561V312.534Z" fill="#F7A58D"/>
<path d="M469.725 312.534H432.659V391.149H469.725V312.534Z" fill="#F58A6B"/>
<path d="M457.041 312.534H447.486V323.412H457.041V312.534Z" fill="white"/>
<path d="M402.347 312.534H392.792V323.412H402.347V312.534Z" fill="white"/>
<path d="M272.827 29.3171H289.263L291.489 19.3822C291.489 19.3822 284.983 23.1507 283.442 20.5813C281.901 18.0119 282.244 19.0397 280.703 19.3822C279.162 19.7248 279.162 17.6694 277.278 18.8684C275.224 20.2387 272.142 26.7477 272.827 29.3171Z" fill="#6B1912"/>
<path d="M236.684 158.34L252.952 133.748L276.409 140.558C275.501 147.822 260.392 169.564 252.952 179.526L236.684 158.34Z" fill="url(#paint4_linear_26:656)"/>
<path d="M238.953 149.441C246.94 113.111 262.642 88.2125 262.642 88.2125C271.479 90.1523 274.72 121.056 274.72 121.056C272.847 131.848 267.159 159.898 262.642 170.25L238.953 149.441Z" fill="url(#paint5_linear_26:656)"/>
<path d="M262.554 87.8101C262.554 87.8101 263.41 107.509 265.978 202.233C265.978 202.233 289.263 214.052 335.663 205.83C335.663 205.83 335.834 177.395 342.169 152.216C342.169 152.216 353.983 104.768 347.991 90.8934C347.991 90.8934 310.152 67.4264 262.554 87.8101Z" fill="url(#paint6_linear_26:656)"/>
<path d="M298.508 69.0364L298.166 81.3011C298.166 81.3011 301.077 85.5834 308.097 86.0973C315.116 86.4398 318.541 82.5001 318.541 82.5001L319.226 64.2402C310.494 68.0086 301.933 69.5502 298.508 69.0364Z" fill="url(#paint7_linear_26:656)"/>
<path d="M299.194 64L298.509 77.532C301.933 78.0459 310.494 76.5043 319.055 72.7359L319.568 64H299.194Z" fill="url(#paint8_linear_26:656)" style="mix-blend-mode:multiply"/>
<path d="M345.594 117.614C345.594 117.614 335.492 140.396 331.896 150.673C328.301 160.78 328.301 201.033 309.467 208.741C309.467 208.741 329.499 207.542 335.834 205.829C335.834 205.829 336.177 175.511 342.34 152.215C342.34 152.215 346.621 127.72 348.333 116.586L345.594 117.614Z" fill="#EE4D47" fill-opacity="0.29" style="mix-blend-mode:multiply"/>
<path d="M332.238 34.1958C331.896 34.3671 331.553 39.8484 331.553 39.8484L330.184 51.3249L323.849 56.2923L320.253 57.8339C320.253 57.8339 314.945 55.6071 315.63 53.5516C316.315 51.6674 319.739 24.6035 320.424 24.6035C321.109 24.6035 326.588 28.5432 326.588 28.5432L332.238 34.1958Z" fill="#402B2B"/>
<path d="M282.071 23.918C280.53 23.918 282.927 42.76 282.927 42.76L285.667 35.2232L287.55 26.1447L282.071 23.918Z" fill="#402B2B"/>
<path d="M284.641 27.6868L281.73 51.8388C281.73 51.8388 280.703 72.2225 297.482 73.4215C314.261 74.4492 325.733 57.834 325.733 57.834C325.733 57.834 327.787 60.2321 330.013 56.1211C332.068 52.0101 330.698 46.5288 327.787 46.0149C324.705 45.6723 323.336 47.3852 322.993 49.9546C322.651 52.524 322.308 54.4082 322.308 54.4082L319.74 54.0656L321.624 34.1959C321.624 34.1959 317.686 26.4878 313.234 24.9462C308.782 23.4045 304.844 29.571 304.844 29.571C304.844 29.571 300.735 30.4274 296.797 29.571C292.859 28.7145 290.291 27.6868 290.291 27.6868C290.291 27.6868 287.894 28.3719 284.641 27.6868Z" fill="url(#paint9_linear_26:656)"/>
<path d="M296.797 64.1718C302.447 64.5144 303.303 58.0054 303.303 58.0054C303.303 58.0054 290.291 56.4638 289.948 56.2925C289.948 56.2925 288.921 63.658 296.797 64.1718Z" fill="#893D43"/>
<path d="M302.79 60.0609C303.303 58.8618 303.475 58.0054 303.475 58.0054C303.475 58.0054 290.462 56.4638 290.12 56.2925C290.12 56.2925 289.949 57.1489 290.12 58.5192L302.79 60.0609Z" fill="#FFFEFF"/>
<path d="M302.275 21.52V4.04834C312.719 4.56221 323.506 6.61768 328.814 13.1267C335.149 20.8348 331.553 38.6492 331.553 38.6492C331.553 38.6492 323.848 37.7927 322.479 35.2233C321.109 32.654 308.096 29.0568 298.166 29.5707C288.235 30.0846 283.441 29.0568 278.476 24.7746C277.449 23.9181 276.593 22.7191 275.908 21.3487H302.275V21.52Z" fill="#402B2B"/>
<path d="M332.753 32.1402C332.753 32.1402 325.39 29.7421 313.063 28.7144C292.346 19.9785 283.442 21.5202 283.442 21.5202C283.442 21.5202 283.614 14.8398 285.497 10.215C287.38 5.5901 300.05 -0.918953 310.666 0.108794C321.281 1.13654 332.239 9.01589 333.951 16.5527C335.321 22.3766 332.753 32.1402 332.753 32.1402Z" fill="url(#paint10_linear_26:656)"/>
<path d="M320.255 29.5709C318.029 18.9508 302.106 13.6408 290.806 13.8121C279.677 13.9834 271.801 23.2331 270.602 29.5709C270.089 32.1403 272.143 32.4828 272.828 30.256C273.342 28.7144 274.369 21.3489 284.642 22.2054C294.915 23.0618 294.401 32.3116 299.538 33.168C304.332 34.0245 309.811 30.5986 320.255 29.5709Z" fill="url(#paint11_linear_26:656)"/>
<path d="M285.839 31.9686V30.7696C286.353 30.7696 290.291 30.2557 295.085 31.2834L294.914 33.1676C290.976 31.9686 285.839 31.9686 285.839 31.9686Z" fill="#402B2B"/>
<path d="M314.774 36.252C311.692 34.5391 305.871 33.6826 305.871 33.5113L306.556 31.7983C306.727 31.7983 312.035 32.8261 315.459 35.053L314.774 36.252Z" fill="#402B2B"/>
<path d="M297.654 42.0752C297.654 42.0752 297.14 45.6723 295.77 46.7C294.401 47.7278 292.004 48.5842 291.661 49.4407C291.319 50.1259 292.004 51.4962 293.545 52.0101C295.086 52.524 295.257 53.0378 295.257 53.0378C295.257 53.0378 292.175 53.3804 290.634 51.4962C289.093 49.612 290.805 48.0704 292.346 47.2139C293.887 46.3575 294.572 46.0149 295.257 45.501C296.113 44.9871 297.654 42.0752 297.654 42.0752Z" fill="#D87C60"/>
<path d="M305.016 43.9591C305.016 45.672 306.215 47.2137 307.756 47.2137C309.297 47.2137 310.495 45.8433 310.495 43.9591C310.495 42.2462 309.297 40.7046 307.756 40.7046C306.215 40.7046 305.016 42.0749 305.016 43.9591Z" fill="#402B2B"/>
<path d="M286.182 41.7325C286.182 43.4455 287.381 44.9871 288.922 44.9871C290.463 44.9871 291.661 43.6167 291.661 41.7325C291.661 40.0196 290.463 38.478 288.922 38.478C287.381 38.6493 286.182 40.0196 286.182 41.7325Z" fill="#402B2B"/>
<path d="M203.167 116.974C202.455 115.645 202.955 113.989 204.285 113.277C205.614 112.564 207.269 113.065 207.982 114.394L217.012 131.244L212.197 133.824L203.167 116.974Z" fill="white"/>
<path d="M204.91 120.148L209.682 117.591L220.002 136.848L215.23 139.405L204.91 120.148Z" fill="#822626"/>
<path d="M274.896 169.115C272.778 164.878 273.257 161.549 273.761 160.414C275.905 161.675 280.344 164.878 280.95 167.602C281.555 170.326 280.193 173.781 279.436 175.169C278.806 174.916 277.015 173.353 274.896 169.115Z" fill="url(#paint12_linear_26:656)"/>
<path d="M184.122 139.951C183.178 136.748 185.579 133.538 188.918 133.538H245.836C248.053 133.538 250.006 134.998 250.632 137.125L271.886 209.265C272.829 212.467 270.429 215.678 267.09 215.678H210.171C207.954 215.678 206.002 214.217 205.375 212.091L184.122 139.951Z" fill="white"/>
<path d="M182.935 136.234C182.097 133.062 184.488 129.956 187.769 129.956H244.769C247.038 129.956 249.023 131.484 249.603 133.678L271.158 215.206C271.997 218.378 269.605 221.484 266.324 221.484H209.325C207.056 221.484 205.071 219.956 204.491 217.763L182.935 136.234Z" fill="url(#paint13_linear_26:656)"/>
<path fill-rule="evenodd" clip-rule="evenodd" d="M336.521 167.46C349.019 149.303 350.731 94.3188 350.731 94.3188C339.231 95.8146 333.738 107.199 330.21 114.512C328.485 118.086 327.23 120.688 325.971 120.688L320.675 154.36L267.708 163.818C267.664 163.879 267.62 163.94 267.578 164C264.97 164.068 255.914 164.579 250 168.345C250 168.345 246.936 170.641 248.697 172.251C249.539 173.17 249.271 174.166 249.003 175.161C248.735 176.157 248.466 177.153 249.308 178.072C250.019 178.848 250.13 179.651 250.239 180.441C250.389 181.523 250.535 182.581 252.217 183.512C252.217 183.512 251.91 185.963 254.131 186.96C254.231 187.006 254.338 187.054 254.449 187.104C256.794 188.16 261.37 190.22 262.247 189.416C262.577 189.114 263.4 188.517 264.323 187.846C265.972 186.648 267.942 185.217 267.992 184.824C268.068 184.211 267.915 183.139 265.924 182.984C265.924 182.984 267.839 182.603 269.83 181.225C271.898 180.001 274.12 176.785 274.12 176.785L276.134 172.183C325.208 176.366 336.521 167.46 336.521 167.46Z" fill="url(#paint14_linear_26:656)"/>
<path d="M322.138 119.499L317.344 144.678L316.134 151.016L273.761 160.413C275.779 162.179 279.739 167.526 279.436 174.79C292.551 176.682 322.036 178.649 335.051 171.385C337.424 169.534 342.752 162.869 345.081 151.016C360.319 98.6011 347.992 90.8931 347.992 90.8931C330.87 93.1199 322.138 119.499 322.138 119.499Z" fill="url(#paint15_linear_26:656)"/>
<path d="M301.465 348.097C291.165 348.097 287.303 339.081 287.303 326.523C287.303 313.965 283.763 303.661 269.923 303.017C251.899 302.373 253.509 319.761 253.509 341.013C253.509 368.06 243.853 350.673 230.335 365.806C218.748 378.686 233.554 401.548 238.06 408.31H296.315C298.246 404.768 303.074 396.074 308.545 385.448C320.776 362.908 311.764 348.097 301.465 348.097Z" fill="#F37753"/>
<path opacity="0.2" fill-rule="evenodd" clip-rule="evenodd" d="M273.786 352.283H270.889V392.664L258.721 376.433L256.404 378.172L270.889 397.494V408.31H273.786V377.8L286.06 362.57L283.805 360.751L273.786 373.183V352.283Z" fill="white"/>
<rect x="226" y="408.161" width="84.5044" height="46.9469" fill="#FCDDD4"/>
<defs>
<linearGradient id="paint0_linear_26:656" x1="210.382" y1="191.535" x2="210.382" y2="377.18" gradientUnits="userSpaceOnUse">
<stop stop-color="#F37753"/>
<stop offset="1" stop-color="white" stop-opacity="0"/>
</linearGradient>
<linearGradient id="paint1_linear_26:656" x1="263.324" y1="419.685" x2="263.324" y2="445.703" gradientUnits="userSpaceOnUse">
<stop stop-color="#F4A984"/>
<stop offset="1" stop-color="#EE4D47"/>
</linearGradient>
<linearGradient id="paint2_linear_26:656" x1="350.473" y1="410.316" x2="350.473" y2="445.83" gradientUnits="userSpaceOnUse">
<stop stop-color="#F4A984"/>
<stop offset="1" stop-color="#EE4D47"/>
</linearGradient>
<linearGradient id="paint3_linear_26:656" x1="321.37" y1="138.119" x2="321.37" y2="426.984" gradientUnits="userSpaceOnUse">
<stop stop-color="#822626"/>
<stop offset="0.943497" stop-color="#402B2B"/>
</linearGradient>
<linearGradient id="paint4_linear_26:656" x1="255.312" y1="133.748" x2="255.312" y2="178.79" gradientUnits="userSpaceOnUse">
<stop stop-color="#FFB3B6"/>
<stop offset="1" stop-color="#FFC8C1"/>
</linearGradient>
<linearGradient id="paint5_linear_26:656" x1="245.385" y1="176.681" x2="271.112" y2="96.4749" gradientUnits="userSpaceOnUse">
<stop stop-color="#F4A984"/>
<stop offset="1" stop-color="#EE4D47"/>
</linearGradient>
<linearGradient id="paint6_linear_26:656" x1="306.12" y1="30.2673" x2="306.12" y2="204.3" gradientUnits="userSpaceOnUse">
<stop stop-color="#F4A984"/>
<stop offset="1" stop-color="#EE4D47"/>
</linearGradient>
<linearGradient id="paint7_linear_26:656" x1="315.712" y1="80.4178" x2="298.386" y2="87.8905" gradientUnits="userSpaceOnUse">
<stop stop-color="#FFB3B6"/>
<stop offset="1" stop-color="#FFC8C1"/>
</linearGradient>
<linearGradient id="paint8_linear_26:656" x1="316.055" y1="71.8226" x2="298.631" y2="79.2017" gradientUnits="userSpaceOnUse">
<stop stop-color="#FFB3B6" stop-opacity="0.31"/>
<stop offset="1" stop-color="#FFC8C1"/>
</linearGradient>
<linearGradient id="paint9_linear_26:656" x1="279.499" y1="67.5568" x2="283.205" y2="34.4399" gradientUnits="userSpaceOnUse">
<stop stop-color="#FFB3B6"/>
<stop offset="1" stop-color="#FFC8C1"/>
</linearGradient>
<linearGradient id="paint10_linear_26:656" x1="308.898" y1="-17.2584" x2="308.898" y2="32.5458" gradientUnits="userSpaceOnUse">
<stop stop-color="#F4A984"/>
<stop offset="1" stop-color="#EE4D47"/>
</linearGradient>
<linearGradient id="paint11_linear_26:656" x1="310.2" y1="8.87652" x2="310.2" y2="60.6531" gradientUnits="userSpaceOnUse">
<stop stop-color="#F4A984"/>
<stop offset="1" stop-color="#EE4D47"/>
</linearGradient>
<linearGradient id="paint12_linear_26:656" x1="280.571" y1="161.17" x2="262.942" y2="168.15" gradientUnits="userSpaceOnUse">
<stop stop-color="#F4A984"/>
<stop offset="1" stop-color="#EE4D47"/>
</linearGradient>
<linearGradient id="paint13_linear_26:656" x1="272.352" y1="175.964" x2="105.221" y2="207.887" gradientUnits="userSpaceOnUse">
<stop stop-color="#F58A6B"/>
<stop offset="1" stop-color="#F7A58D"/>
</linearGradient>
<linearGradient id="paint14_linear_26:656" x1="333.869" y1="142.016" x2="245.109" y2="171.603" gradientUnits="userSpaceOnUse">
<stop stop-color="#FFB3B6"/>
<stop offset="1" stop-color="#FFC8C1"/>
</linearGradient>
<linearGradient id="paint15_linear_26:656" x1="303.271" y1="129.39" x2="354.982" y2="164.28" gradientUnits="userSpaceOnUse">
<stop stop-color="#F4A984"/>
<stop offset="1" stop-color="#EE4D47"/>
</linearGradient>
</defs>
</svg>
