<svg width="642" height="515" viewBox="0 0 642 515" fill="none" xmlns="http://www.w3.org/2000/svg">
<mask id="mask0_26:462" style="mask-type:alpha" maskUnits="userSpaceOnUse" x="116" y="199" width="527" height="316">
<path d="M591.378 412.629C648.232 349.488 668.907 221.891 591.378 204.351C476.415 178.343 533.231 270.123 251.112 221.891C76.3236 192.008 89.5938 368.781 186.505 467.439C283.416 566.098 520.31 491.556 591.378 412.629Z" fill="#FCDDD4"/>
</mask>
<g mask="url(#mask0_26:462)">
<path opacity="0.7" d="M78.8262 383.601C107.022 346.277 181.701 273.494 254.857 280.959C346.301 290.29 172.557 465.248 254.857 465.248C337.157 465.248 376.02 250.633 435.459 250.633C494.898 250.633 369.162 409.262 435.459 418.593C501.757 427.924 556.623 194.647 629.779 192.314C702.934 189.981 554.337 383.601 673.215 383.601" stroke="url(#paint0_linear_26:462)" stroke-width="2"/>
<path d="M707.185 470.113C707.185 494.456 693.422 514.124 676.496 514.124H645.807C628.881 514.124 615.276 494.295 615.276 470.113C615.276 445.77 629.039 426.103 645.965 426.103C646.281 426.103 646.44 426.103 646.756 426.103H676.496C693.58 426.103 707.185 445.931 707.185 470.113Z" fill="#402B2B"/>
<path d="M466.738 469.629C466.738 493.972 452.976 513.64 436.049 513.64H405.361C388.434 513.64 374.83 493.811 374.83 469.629C374.83 445.286 388.592 425.619 405.519 425.619C405.835 425.619 405.993 425.619 406.31 425.619H436.049C453.134 425.619 466.738 445.286 466.738 469.629Z" fill="#F48767"/>
<path d="M709.24 465.922L585.694 465.599L599.931 457.055L693.421 457.216L709.24 465.922Z" fill="#402B2B"/>
<path d="M825.827 394.183L825.669 474.95L725.377 474.789L693.422 457.217L599.932 457.055L571.142 474.466L367.077 473.983C363.755 473.983 361.065 471.242 361.065 467.857L361.224 393.216L825.827 394.183Z" fill="#F36F49"/>
<path d="M607.207 412.561L447.119 412.238L447.435 264.408C447.435 258.443 452.181 253.607 458.192 253.607L607.682 253.929L607.207 412.561Z" fill="#F48767"/>
<path d="M856.831 413.206L607.366 412.722L607.682 254.091L846.549 254.574C852.402 254.574 857.147 259.411 857.147 265.537L856.831 413.206Z" fill="#F06A5B"/>
<path d="M486.985 469.629C486.985 493.972 500.59 513.64 517.516 513.64H548.047V498.808C559.278 498.808 568.453 485.75 568.453 469.629C568.453 453.508 559.436 440.45 548.205 440.45V425.619H517.674C500.748 425.78 487.144 445.448 486.985 469.629Z" fill="#F48767"/>
<path d="M573.355 469.952C573.355 489.942 562.124 506.064 548.203 505.902C534.283 505.902 523.209 489.781 523.209 469.791C523.209 449.801 534.441 433.68 548.361 433.841C562.124 433.841 573.355 449.962 573.355 469.952Z" fill="#F48767"/>
<path d="M548.205 493.649C539.03 493.649 531.754 483.009 531.754 469.79C531.754 456.571 539.189 446.092 548.364 446.092C557.539 446.092 564.815 456.732 564.815 469.951C564.815 483.17 557.381 493.649 548.205 493.649ZM548.205 455.764C542.827 455.764 538.398 462.052 538.398 469.79C538.398 477.528 542.827 483.976 548.205 483.976C553.584 483.976 558.013 477.689 558.013 469.951C558.013 462.052 553.742 455.764 548.205 455.764Z" fill="#F7A58D"/>
<path d="M548.205 513.801C531.278 513.801 517.674 493.972 517.674 469.79C517.674 445.609 531.437 425.78 548.363 425.78C565.289 425.78 578.894 445.609 578.894 469.79C578.894 493.972 564.973 513.962 548.205 513.801ZM548.363 433.84C534.442 433.84 523.211 449.961 523.211 469.79C523.211 489.781 534.284 505.902 548.205 505.902C562.125 505.902 573.357 489.78 573.357 469.952C573.357 449.961 562.125 433.84 548.363 433.84Z" fill="#F7A58D"/>
<path d="M552.476 469.791C552.476 466.405 550.577 463.826 548.363 463.826C546.148 463.826 544.25 466.566 544.092 469.791C544.092 473.176 545.99 475.755 548.204 475.755C550.577 475.917 552.476 473.176 552.476 469.791Z" fill="#5B2929"/>
<path d="M341.134 349.206C341.134 349.851 340.66 350.334 340.185 350.496C338.92 350.818 334.174 350.818 332.75 350.334C332.118 350.173 331.485 349.689 331.485 348.883C331.01 335.987 331.01 323.412 331.485 311.482C331.485 310.676 332.118 310.193 332.75 310.032C334.332 309.548 339.869 309.226 341.609 309.87C342.242 310.032 342.716 310.676 342.716 311.321C343.033 323.573 342.558 336.148 341.134 349.206Z" fill="#F69276"/>
<path d="M348.884 360.651C348.726 360.651 348.568 360.651 348.252 360.49L337.495 355.009C334.964 353.719 333.382 351.14 333.382 348.238L333.54 307.774C333.54 306.162 334.805 304.872 336.387 304.872H365.969C366.76 304.872 367.234 305.517 367.234 306.162C367.234 306.968 366.602 307.451 365.969 307.451H336.387C336.229 307.451 336.229 307.613 336.229 307.613L336.071 348.077C336.071 350.011 337.178 351.623 338.76 352.429L349.517 357.91C350.15 358.233 350.466 359.039 350.15 359.684C349.834 360.49 349.359 360.651 348.884 360.651Z" fill="#F69276"/>
<path d="M585.694 412.238C585.694 412.238 581.581 412.238 575.254 412.238H550.101C531.277 412.238 526.848 421.749 515.3 445.125L478.758 444.964C478.758 444.964 478.758 442.223 478.758 437.548L339.234 437.226C338.602 425.457 337.336 401.598 337.336 379.028C337.336 378.222 337.336 377.578 337.336 376.771C337.336 370.323 338.443 363.23 340.342 356.136C347.777 328.408 366.601 298.907 374.353 288.105C376.884 284.559 379.098 281.496 380.997 278.755C386.375 271.501 390.013 267.793 396.816 267.793L565.92 268.277C569.401 268.277 572.564 270.695 573.514 274.08C588.067 328.569 585.852 370.001 585.694 412.238ZM443.165 287.461C443.323 286.655 442.691 286.01 441.9 286.01L390.488 285.849C387.482 285.849 384.477 287.461 382.578 290.201C362.488 318.091 354.421 343.562 351.415 358.232L348.251 373.708C347.777 375.965 349.2 377.739 351.415 377.739H363.912C365.968 377.739 368.183 376.771 369.765 375.159L395.392 350.172C398.239 347.431 402.036 345.819 405.674 345.819H436.363L443.165 287.461Z" fill="#F36F49"/>
<path d="M469.743 356.621C468.636 361.78 467.37 367.1 466.263 372.742C465.472 376.611 462.15 379.352 458.353 379.513C408.366 381.287 366.92 381.448 337.338 379.191C337.338 378.385 337.338 377.74 337.338 376.934C337.338 370.485 338.446 363.392 340.344 356.299L469.743 356.621Z" fill="#F6977C"/>
<path d="M562.126 286.171L510.714 286.01C507.708 286.01 505.019 287.622 503.595 290.363C489.2 318.252 486.194 343.724 486.194 358.394V373.87C486.194 376.127 487.935 377.901 490.149 377.901H502.646C504.703 377.901 506.759 376.933 508.025 375.321L528.589 350.333C530.962 347.593 534.284 345.82 537.922 345.981H568.611L563.707 287.622C563.707 286.816 563.075 286.171 562.126 286.171Z" fill="#F36F49"/>
<path d="M585.694 412.238C585.694 412.238 581.581 412.238 575.254 412.238H550.101C531.277 412.238 526.848 421.749 515.3 445.125L478.758 444.964C478.758 444.964 478.758 442.223 478.758 437.548L339.234 437.226C338.602 425.457 337.336 401.598 337.336 379.028C366.918 381.285 408.522 381.285 458.351 379.351C462.148 379.19 465.47 376.449 466.261 372.58C467.368 366.938 468.634 361.456 469.741 356.459C476.543 326.957 483.978 305.839 493.786 282.947C494.577 281.173 493.311 279.078 491.413 279.078L380.997 278.755C386.375 271.501 390.013 267.793 396.816 267.793L565.92 268.277C569.401 268.277 572.564 270.695 573.514 274.08C588.067 328.569 585.852 370.001 585.694 412.238ZM568.768 345.98L563.864 287.622C563.864 286.816 563.073 286.171 562.282 286.171L510.87 286.01C507.865 286.01 505.176 287.622 503.752 290.362C489.357 318.252 486.351 343.723 486.351 358.393V373.87C486.351 376.127 488.091 377.9 490.306 377.9H502.803C504.859 377.9 506.916 376.933 508.181 375.321L528.746 350.333C531.119 347.592 534.441 345.819 538.079 345.98H568.768Z" fill="#F7A58D"/>
<path d="M579.526 408.047C579.526 410.465 577.628 412.239 575.255 412.239H550.103C531.278 412.239 526.849 421.75 515.301 445.126L478.759 444.965C478.759 444.965 478.759 442.224 478.759 437.549L478.917 372.258C478.917 339.855 484.612 319.381 499.64 286.978C501.855 282.142 506.759 279.079 511.979 279.079L566.396 279.24C567.662 279.24 568.611 280.046 568.927 281.174C579.684 322.767 579.684 390.475 579.526 408.047ZM568.769 345.981L563.865 287.623C563.865 286.817 563.074 286.172 562.284 286.172L510.872 286.011C507.866 286.011 505.177 287.623 503.753 290.363C489.358 318.253 486.352 343.724 486.352 358.394V373.871C486.352 376.128 488.092 377.901 490.307 377.901H502.804C504.861 377.901 506.917 376.934 508.183 375.321L528.747 350.334C531.12 347.593 534.442 345.82 538.08 345.981H568.769Z" fill="#F58A6B"/>
<path d="M561.809 288.106L510.714 287.945C508.499 287.945 506.443 289.234 505.335 291.169C490.466 320.026 488.093 345.658 488.093 358.233V373.709C488.093 374.838 489.042 375.805 490.149 375.805H502.646C504.228 375.805 505.652 375.16 506.601 374.031L527.166 349.044C529.855 345.82 533.81 343.885 538.081 343.885H566.555L561.809 288.106ZM562.126 286.171C562.916 286.171 563.707 286.816 563.707 287.622L568.611 345.981H537.922C534.284 345.981 530.962 347.593 528.589 350.333L508.025 375.321C506.759 376.933 504.703 377.901 502.646 377.901H490.149C487.935 377.901 486.194 376.127 486.194 373.87V358.394C486.194 343.724 489.2 318.252 503.595 290.363C505.019 287.622 507.708 286.01 510.714 286.01L562.126 286.171Z" fill="#F7A58D"/>
<path d="M478.915 406.757V437.548L423.707 437.387C424.34 429.326 425.763 421.588 428.136 414.334C429.085 411.432 431.458 409.336 434.464 408.853C446.644 407.402 462.147 406.757 478.915 406.757ZM367.233 437.387H339.866C339.392 430.616 338.917 419.654 338.442 407.24C345.086 407.563 351.256 408.208 356.792 409.014C359.798 409.497 362.171 411.593 363.12 414.495C365.335 421.588 366.6 429.326 367.233 437.387Z" fill="#F6977C"/>
<path d="M478.758 468.501L350.782 468.179C342.082 468.179 334.963 460.924 334.963 452.058V449.317C334.963 446.738 337.02 444.803 339.393 444.803L478.6 445.126L478.758 468.501Z" fill="#F6977C"/>
<path d="M502.328 468.501H478.758V445.125H514.983L511.029 461.408C510.08 465.599 506.441 468.501 502.328 468.501Z" fill="#F7A58D"/>
<path d="M558.645 383.221C553.267 383.382 542.826 384.51 542.826 388.379C542.826 392.249 552.001 393.538 559.436 393.538C566.871 393.538 567.662 389.347 568.295 387.573C568.769 385.8 569.244 383.059 558.645 383.221Z" fill="#F6977C"/>
<path d="M558.17 387.412C560.702 387.412 563.391 386.606 564.656 385.316C563.707 384.833 562.283 384.349 560.069 384.349C555.956 384.349 549.312 384.833 545.832 386.445C546.306 386.767 547.572 387.412 549.628 387.412C552.159 387.412 555.481 387.412 558.17 387.412Z" fill="#F47B58"/>
<path d="M547.572 390.475C546.622 390.475 546.148 390.636 545.99 390.798C548.837 392.087 554.057 392.571 556.588 392.571C560.227 392.571 562.758 392.571 563.549 391.765C562.916 391.281 561.492 390.475 560.069 390.475C558.17 390.636 548.837 390.475 547.572 390.475Z" fill="#F47B58"/>
<path d="M478.758 437.71C478.758 442.385 478.758 445.125 478.758 445.125L339.709 444.803C339.709 444.803 339.551 442.062 339.235 437.387L478.758 437.71Z" fill="#F58A6B"/>
<g opacity="0.2">
<path d="M418.803 405.145V435.936L372.137 435.775V404.984C372.137 401.276 375.459 398.374 379.572 398.374H411.526C415.481 398.535 418.803 401.598 418.803 405.145Z" fill="#F16036"/>
</g>
<path d="M356.477 434.808H346.669C344.138 434.808 341.923 432.712 341.923 429.972V424.974C341.923 422.395 343.98 420.138 346.669 420.138H356.477C359.008 420.138 361.223 422.233 361.223 424.974V429.972C361.223 432.712 359.008 434.808 356.477 434.808Z" fill="white"/>
<path d="M449.337 435.131H439.53C436.998 435.131 434.784 433.035 434.784 430.294V425.297C434.784 422.717 436.84 420.46 439.53 420.46H449.337C451.868 420.46 454.083 422.556 454.083 425.297V430.294C454.083 432.874 452.027 435.131 449.337 435.131Z" fill="white"/>
<path d="M512.612 349.528C512.612 350.173 512.137 350.657 511.663 350.818C505.493 351.463 499.008 351.463 492.364 350.657C491.573 350.495 491.098 350.012 491.098 349.206C490.623 336.309 490.623 323.735 491.098 311.805C491.098 310.999 491.731 310.515 492.364 310.354C499.166 309.548 505.968 309.548 513.087 310.354C513.719 310.515 514.194 311.16 514.194 311.805C514.668 323.896 514.036 336.47 512.612 349.528Z" fill="#F7A58D"/>
<path d="M488.093 360.974C487.619 360.974 487.144 360.652 486.986 360.168C486.669 359.523 486.986 358.717 487.619 358.395L498.375 353.075C499.957 352.269 501.065 350.495 501.065 348.722L501.223 308.258C501.223 308.097 501.065 308.097 501.065 308.097H494.421C493.63 308.097 493.155 307.452 493.155 306.807C493.155 306.001 493.788 305.518 494.421 305.518H501.065C502.647 305.518 503.912 306.807 503.912 308.419L503.754 348.883C503.754 351.785 502.172 354.365 499.641 355.654L488.884 360.974C488.41 360.974 488.251 360.974 488.093 360.974Z" fill="#F69276"/>
<path d="M415.541 470.41L370.773 470.311L370.803 456.608L415.57 456.707L415.541 470.41Z" fill="#F8B4A0"/>
<path opacity="0.6" d="M494.092 283.435C484.284 306.327 477.007 327.445 470.047 356.947L340.647 356.624C348.082 328.896 366.907 299.394 374.658 288.593C377.189 285.047 379.404 281.984 381.302 279.243L491.719 279.566C493.617 279.727 494.883 281.661 494.092 283.435Z" fill="url(#paint1_linear_26:462)"/>
<path d="M284.492 299.174C284.492 299.174 280.839 414.879 284.392 544.954C284.392 544.954 295.051 555.238 315.246 548.382C315.246 548.382 315.059 403.642 320.482 346.127C320.482 346.127 345.913 455.444 378.075 550.096C378.075 550.096 399.579 554.286 407.246 541.907C407.246 541.907 363.864 388.597 357.506 300.42L284.492 299.174Z" fill="url(#paint2_linear_26:462)"/>
<path d="M284.766 300.42H357.506C358.067 307.086 358.628 314.132 359.562 321.369C316.18 321.56 293.18 310.323 284.579 305.181C284.579 301.944 284.766 300.42 284.766 300.42Z" fill="#402B2B" fill-opacity="0.45" style="mix-blend-mode:multiply"/>
</g>
<path d="M292.063 108.638H310.014L312.445 97.5918C312.445 97.5918 305.339 101.782 303.656 98.9249C301.973 96.0682 302.347 97.2109 300.664 97.5918C298.981 97.9727 298.981 95.6873 296.924 97.0205C294.681 98.544 291.315 105.781 292.063 108.638Z" fill="#6B1912"/>
<path d="M256.983 246.554L267.212 221.341L295.977 232.317C294.985 240.393 277.442 255.872 267.212 266.834L256.983 246.554Z" fill="url(#paint3_linear_26:462)"/>
<path d="M280.94 173.077C280.94 173.077 265.19 202.159 255.958 244.911C253.118 258.066 253.805 264.862 258.112 267.932C263.496 271.768 273.186 268.48 278.031 258.066C282.965 246.557 292.086 221.592 294.132 209.593C294.132 209.593 290.592 175.233 280.94 173.077Z" fill="url(#paint4_linear_26:462)"/>
<path d="M280.844 172.628C280.844 172.628 281.779 194.529 284.584 299.846C284.584 299.846 310.015 312.987 360.69 303.846C360.69 303.846 360.877 272.231 367.795 244.236C367.795 244.236 380.698 191.482 374.153 176.056C374.153 176.056 332.828 149.964 280.844 172.628Z" fill="url(#paint5_linear_26:462)"/>
<path d="M320.111 151.754L319.737 165.391C319.737 165.391 322.916 170.152 330.583 170.723C338.25 171.104 341.989 166.724 341.989 166.724L342.737 146.422C333.201 150.612 323.851 152.326 320.111 151.754Z" fill="url(#paint6_linear_26:462)"/>
<path d="M320.86 146.156L320.112 161.201C323.852 161.772 333.202 160.058 342.551 155.869L343.112 146.156H320.86Z" fill="url(#paint7_linear_26:462)" style="mix-blend-mode:multiply"/>
<path d="M371.535 205.765C371.535 205.765 360.502 231.094 356.576 242.521C352.649 253.757 352.649 298.512 332.08 307.082C332.08 307.082 353.958 305.749 360.876 303.845C360.876 303.845 361.25 270.136 367.982 244.235C367.982 244.235 372.657 217.001 374.527 204.622L371.535 205.765Z" fill="#EE4D47" fill-opacity="0.29" style="mix-blend-mode:multiply"/>
<path d="M356.95 113.019C356.576 113.209 356.202 119.303 356.202 119.303L354.706 132.063L347.788 137.586L343.861 139.3C343.861 139.3 338.064 136.824 338.812 134.539C339.56 132.444 343.3 102.354 344.048 102.354C344.796 102.354 350.779 106.734 350.779 106.734L356.95 113.019Z" fill="#402B2B"/>
<path d="M302.162 101.591C300.479 101.591 303.097 122.54 303.097 122.54L306.089 114.161L308.146 104.067L302.162 101.591Z" fill="#402B2B"/>
<path d="M304.966 105.78L301.787 132.633C301.787 132.633 300.665 155.296 318.99 156.629C337.315 157.772 349.844 139.298 349.844 139.298C349.844 139.298 352.088 141.965 354.519 137.394C356.763 132.823 355.267 126.729 352.088 126.158C348.722 125.777 347.226 127.681 346.852 130.538C346.478 133.395 346.104 135.489 346.104 135.489L343.299 135.109L345.356 113.017C345.356 113.017 341.055 104.447 336.193 102.733C331.332 101.019 327.031 107.875 327.031 107.875C327.031 107.875 322.543 108.827 318.242 107.875C313.941 106.922 311.137 105.78 311.137 105.78C311.137 105.78 308.519 106.542 304.966 105.78Z" fill="url(#paint8_linear_26:462)"/>
<path d="M318.95 261.353C318.95 261.353 290.415 256.969 290.415 252.584C290.415 248.199 296.337 237.785 300.644 225.727C304.951 213.669 308.72 194.485 310.335 190.648C311.951 186.811 305.49 197.773 305.49 197.773C294.901 211.841 273.294 240.964 271.571 244.91C269.848 248.857 269.058 258.247 268.879 262.45L276.416 266.834L298.491 264.094L318.95 261.353Z" fill="#EE4D47" fill-opacity="0.29" style="mix-blend-mode:multiply"/>
<path d="M309.745 145.156C309.745 142.963 311.94 139.686 315.667 140.771C319.436 141.867 320.334 145.156 320.513 147.348" stroke="#893D43"/>
<path d="M304.362 176.946C304.362 176.946 257.522 238.35 256.446 248.199C255.369 258.048 254.585 267.762 264.374 268.962C274.163 270.161 283.463 254.469 286.889 246.473L294.671 226.275L310.823 186.264L304.362 176.946Z" fill="url(#paint9_linear_26:462)"/>
<path d="M310.874 190.1C310.874 184.619 304.413 182.426 299.029 182.426L265.649 229.563C258.829 239.246 247.128 261.572 259.188 269.026C271.248 276.481 284.672 257.516 289.338 247.65C291.922 241.512 304.772 206.725 310.874 190.1Z" fill="url(#paint10_linear_26:462)"/>
<path d="M304.413 178.042C304.413 178.042 301.123 165.024 304.618 156.554C304.618 156.554 306.526 152.766 308.583 154.395C310.873 155.896 312.672 152.472 314.963 153.973C317.253 155.474 319.085 153.254 321.354 156.141C321.354 156.141 323.936 155.345 325.418 157.592C326.901 159.838 330.294 164.862 329.557 166.027C328.819 167.192 326.316 172.984 325.671 173.183C325.025 173.382 323.842 173.415 323.31 171.262C323.31 171.262 323.251 173.432 322.135 175.872C321.198 178.368 318.145 181.405 318.145 181.405L310.336 186.811L304.413 178.042Z" fill="url(#paint11_linear_26:462)"/>
<path d="M324.225 98.9246V79.499C335.632 80.0704 347.412 82.3557 353.209 89.5927C360.127 98.1628 356.201 117.969 356.201 117.969C356.201 117.969 347.786 117.017 346.29 114.16C344.794 111.304 330.583 107.304 319.737 107.876C308.892 108.447 303.656 107.304 298.233 102.543C297.111 101.591 296.176 100.258 295.428 98.7342H324.225V98.9246Z" fill="#402B2B"/>
<path d="M357.51 110.733C357.51 110.733 349.469 108.066 336.005 106.924C313.379 97.2108 303.656 98.9248 303.656 98.9248C303.656 98.9248 303.843 91.4974 305.9 86.3553C307.957 81.2132 321.794 73.9763 333.388 75.119C344.981 76.2616 356.949 85.0222 358.819 93.4018C360.315 99.877 357.51 110.733 357.51 110.733Z" fill="url(#paint12_linear_26:462)"/>
<path d="M343.859 107.879C341.428 96.0709 324.038 90.167 311.697 90.3575C299.542 90.5479 290.941 100.832 289.632 107.879C289.071 110.735 291.315 111.116 292.062 108.64C292.623 106.926 293.745 98.7372 304.965 99.6894C316.184 100.642 315.624 110.926 321.233 111.878C326.469 112.83 332.453 109.021 343.859 107.879Z" fill="url(#paint13_linear_26:462)"/>
<path d="M305.545 114.876L304.962 113.682C305.464 113.428 309.066 110.968 314.255 109.62L315.003 111.581C310.568 112.335 305.545 114.876 305.545 114.876Z" fill="#402B2B"/>
<path d="M337.376 119.887C335.136 116.699 329.79 113.068 329.87 112.896L331.347 111.501C331.516 111.582 336.274 115.141 338.613 119.009L337.376 119.887Z" fill="#402B2B"/>
<path d="M319.178 121.779C319.178 121.779 318.617 125.779 317.121 126.921C315.625 128.064 313.007 129.016 312.633 129.969C312.259 130.73 313.007 132.254 314.69 132.825C316.373 133.397 316.56 133.968 316.56 133.968C316.56 133.968 313.194 134.349 311.511 132.254C309.829 130.159 311.698 128.445 313.381 127.493C315.064 126.54 315.812 126.16 316.56 125.588C317.495 125.017 319.178 121.779 319.178 121.779Z" fill="#D87C60"/>
<path d="M327.217 123.872C327.217 125.776 328.526 127.49 330.209 127.49C331.892 127.49 333.201 125.967 333.201 123.872C333.201 121.967 331.892 120.253 330.209 120.253C328.526 120.253 327.217 121.777 327.217 123.872Z" fill="#402B2B"/>
<path d="M306.648 121.396C306.648 123.301 307.957 125.015 309.64 125.015C311.323 125.015 312.632 123.491 312.632 121.396C312.632 119.492 311.323 117.778 309.64 117.778C307.957 117.968 306.648 119.492 306.648 121.396Z" fill="#402B2B"/>
<path d="M296.505 270.124C295.069 267.749 292.413 261.135 293.275 253.681C295.069 256.238 298.228 263.108 296.505 270.124Z" fill="#644545"/>
<path fill-rule="evenodd" clip-rule="evenodd" d="M361.624 261.186C375.274 240.998 377.144 179.865 377.144 179.865C364.584 181.528 358.585 194.185 354.731 202.316C352.848 206.29 351.477 209.183 350.103 209.183L344.318 246.62L286.471 257.136C286.422 257.204 286.375 257.272 286.328 257.339C283.478 257.415 273.59 257.983 267.132 262.17C267.132 262.17 263.786 264.723 265.709 266.512C266.629 267.535 266.336 268.642 266.043 269.749C265.75 270.856 265.457 271.963 266.377 272.985C267.152 273.848 267.274 274.74 267.393 275.618C267.556 276.822 267.716 277.999 269.553 279.034C269.553 279.034 269.218 281.759 271.643 282.867C271.753 282.918 271.869 282.971 271.991 283.027C274.552 284.201 279.549 286.492 280.507 285.598C280.868 285.262 281.766 284.598 282.774 283.852C284.576 282.52 286.727 280.929 286.781 280.492C286.865 279.811 286.698 278.618 284.523 278.447C284.523 278.447 286.614 278.022 288.789 276.49C291.048 275.129 293.474 271.554 293.474 271.554L295.674 266.437C349.269 271.087 361.624 261.186 361.624 261.186Z" fill="url(#paint14_linear_26:462)"/>
<path d="M345.917 207.861L340.681 235.857L338.332 242.903L293.107 253.681C294.363 256.056 296.768 262.669 296.337 270.124C306.387 271.22 334.348 271.33 352.869 267.383C357.844 266.41 363.637 261.354 370.974 242.903C387.616 184.627 374.153 176.057 374.153 176.057C355.454 178.532 345.917 207.861 345.917 207.861Z" fill="url(#paint15_linear_26:462)"/>
<path d="M199.745 143.602C199.745 143.602 221.199 166.075 203.514 171.008C185.829 175.94 169.097 161.427 146.484 165.361C107.72 172.104 44.0668 180.873 9.60948 115.101C-33.4622 32.8853 78.9421 -0.000788174 135.594 -0.000488281C203.554 -0.000128524 230.352 29.597 236.812 70.1566C241.981 102.604 213.743 133.737 199.745 143.602Z" fill="url(#paint16_linear_26:462)"/>
<path d="M118.048 98.2508L119.085 75.6342C123.236 74.5378 126.703 72.5258 129.483 69.5983C132.264 66.6707 133.873 62.9569 134.311 58.4568C134.825 53.1625 134.291 48.9209 132.707 45.7319C131.132 42.4546 128.938 40.6743 126.126 40.3909C123.654 40.1419 121.65 40.8311 120.115 42.4584C118.665 44.0944 117.41 46.3737 116.351 49.2965L114.072 55.4822C113.013 58.405 111.482 60.4337 109.478 61.5684C107.568 62.6234 105.603 62.9154 103.583 62.4446C101.648 61.9824 100.033 60.8842 98.7387 59.1499C97.4527 57.3274 96.9469 55.0043 97.2214 52.1807C97.5645 48.6512 99.0964 45.7315 101.817 43.4217C104.623 41.1204 108.055 39.4614 112.113 38.4446C116.171 37.4278 120.331 37.1341 124.593 37.5635C133.202 38.4308 139.751 41.0063 144.241 45.29C148.816 49.5823 150.734 55.5227 149.997 63.1111C149.491 68.3172 147.826 72.6045 145.002 75.9732C142.179 79.342 138.695 81.9759 134.551 83.8751C130.501 85.6946 126.327 87.0116 122.031 87.8262L120.349 98.4826L118.048 98.2508ZM115.088 130.029C112.019 129.72 109.484 128.351 107.482 125.922C105.566 123.501 104.762 120.702 105.071 117.526C105.371 114.438 106.694 111.898 109.039 109.907C111.478 107.836 114.232 106.955 117.301 107.264C120.455 107.582 122.943 108.991 124.766 111.491C126.682 113.912 127.49 116.666 127.19 119.754C126.881 122.931 125.554 125.515 123.209 127.506C120.949 129.506 118.242 130.347 115.088 130.029Z" fill="white"/>
<defs>
<linearGradient id="paint0_linear_26:462" x1="376.021" y1="256.911" x2="376.021" y2="525.41" gradientUnits="userSpaceOnUse">
<stop stop-color="#F37753"/>
<stop offset="1" stop-color="white" stop-opacity="0"/>
</linearGradient>
<linearGradient id="paint1_linear_26:462" x1="433.728" y1="254.582" x2="369.829" y2="404.895" gradientUnits="userSpaceOnUse">
<stop stop-color="#F7A58D"/>
<stop offset="0.926161" stop-color="white"/>
</linearGradient>
<linearGradient id="paint2_linear_26:462" x1="345.075" y1="229.609" x2="345.075" y2="550.778" gradientUnits="userSpaceOnUse">
<stop stop-color="#822626"/>
<stop offset="0.943497" stop-color="#402B2B"/>
</linearGradient>
<linearGradient id="paint3_linear_26:462" x1="272.937" y1="224.746" x2="272.937" y2="274.825" gradientUnits="userSpaceOnUse">
<stop stop-color="#FFB3B6"/>
<stop offset="1" stop-color="#FFC8C1"/>
</linearGradient>
<linearGradient id="paint4_linear_26:462" x1="294.183" y1="177.495" x2="294.183" y2="276.153" gradientUnits="userSpaceOnUse">
<stop stop-color="#F4A984"/>
<stop offset="1" stop-color="#EE4D47"/>
</linearGradient>
<linearGradient id="paint5_linear_26:462" x1="328.425" y1="108.65" x2="328.425" y2="302.145" gradientUnits="userSpaceOnUse">
<stop stop-color="#F4A984"/>
<stop offset="1" stop-color="#EE4D47"/>
</linearGradient>
<linearGradient id="paint6_linear_26:462" x1="338.9" y1="164.409" x2="319.872" y2="172.47" gradientUnits="userSpaceOnUse">
<stop stop-color="#FFB3B6"/>
<stop offset="1" stop-color="#FFC8C1"/>
</linearGradient>
<linearGradient id="paint7_linear_26:462" x1="339.275" y1="154.853" x2="320.143" y2="162.812" gradientUnits="userSpaceOnUse">
<stop stop-color="#FFB3B6" stop-opacity="0.31"/>
<stop offset="1" stop-color="#FFC8C1"/>
</linearGradient>
<linearGradient id="paint8_linear_26:462" x1="299.35" y1="150.108" x2="303.543" y2="113.305" gradientUnits="userSpaceOnUse">
<stop stop-color="#FFB3B6"/>
<stop offset="1" stop-color="#FFC8C1"/>
</linearGradient>
<linearGradient id="paint9_linear_26:462" x1="290.01" y1="155.022" x2="290.01" y2="267.195" gradientUnits="userSpaceOnUse">
<stop stop-color="#FFB3B6"/>
<stop offset="1" stop-color="#FFC8C1"/>
</linearGradient>
<linearGradient id="paint10_linear_26:462" x1="266.725" y1="205.447" x2="308.053" y2="265.081" gradientUnits="userSpaceOnUse">
<stop stop-color="#F4A984"/>
<stop offset="0.91698" stop-color="#EE4D47"/>
</linearGradient>
<linearGradient id="paint11_linear_26:462" x1="313.324" y1="175.798" x2="328.932" y2="149.514" gradientUnits="userSpaceOnUse">
<stop stop-color="#FFB3B6"/>
<stop offset="1" stop-color="#FFC8C1"/>
</linearGradient>
<linearGradient id="paint12_linear_26:462" x1="331.457" y1="55.8096" x2="331.457" y2="111.183" gradientUnits="userSpaceOnUse">
<stop stop-color="#F4A984"/>
<stop offset="1" stop-color="#EE4D47"/>
</linearGradient>
<linearGradient id="paint13_linear_26:462" x1="332.878" y1="84.8699" x2="332.878" y2="142.437" gradientUnits="userSpaceOnUse">
<stop stop-color="#F4A984"/>
<stop offset="1" stop-color="#EE4D47"/>
</linearGradient>
<linearGradient id="paint14_linear_26:462" x1="358.728" y1="232.897" x2="261.448" y2="264.749" gradientUnits="userSpaceOnUse">
<stop stop-color="#FFB3B6"/>
<stop offset="1" stop-color="#FFC8C1"/>
</linearGradient>
<linearGradient id="paint15_linear_26:462" x1="330.256" y1="210.38" x2="372.199" y2="272.723" gradientUnits="userSpaceOnUse">
<stop stop-color="#F4A984"/>
<stop offset="1" stop-color="#EE4D47"/>
</linearGradient>
<linearGradient id="paint16_linear_26:462" x1="34.4578" y1="-108.525" x2="237.918" y2="182.88" gradientUnits="userSpaceOnUse">
<stop stop-color="#F4A984"/>
<stop offset="1" stop-color="#EE4D47"/>
</linearGradient>
</defs>
</svg>
