<svg width="498" height="694" viewBox="0 0 498 694" fill="none" xmlns="http://www.w3.org/2000/svg">
<mask id="mask0_50:315" style="mask-type:alpha" maskUnits="userSpaceOnUse" x="114" y="212" width="468" height="321">
<path d="M201.911 228.651C138.559 239.953 72.331 356.083 147.677 448.905C269.625 599.139 427.364 513.638 507.63 448.485C651.571 331.646 572.417 126.106 390.837 251.529C228.985 363.325 337.164 204.523 201.911 228.651Z" fill="#F6A182"/>
</mask>
<g mask="url(#mask0_50:315)">
<path opacity="0.7" d="M478.986 158.527C479.831 191.233 470.654 263.796 427.185 292.402C372.848 328.16 391.737 156.304 346.51 193.015C301.284 229.726 373.877 362.804 341.213 389.317C308.55 415.831 308.205 274.196 267.688 298.736C227.17 323.277 299.139 473.557 259.959 507.447C220.779 541.337 217.678 370.634 152.351 423.661" stroke="url(#paint0_linear_50:315)" stroke-width="2"/>
<path d="M153.47 217.832L170.313 206.377L185.345 226.534L168.26 237.964L153.47 217.832Z" fill="#D88D6C"/>
<path d="M185.019 196.655C185.019 196.655 178.507 209.92 179.59 214.803C179.59 214.803 185.629 228.519 176.183 226.435C176.183 226.435 168.23 226.463 163.913 235.064L145.869 214.471L193.119 176.339C194.52 180.521 196.38 184.996 185.019 196.655Z" fill="url(#paint1_linear_50:315)"/>
<path d="M145.761 214.338L142.782 211.214L190.434 172.757C191.518 174.093 192.461 174.436 192.878 176.314L145.761 214.338Z" fill="#C73E39"/>
<path d="M86.5953 276.548L100.185 261.084L119.725 276.696L106.269 292.051L86.5953 276.548Z" fill="#D88D6C"/>
<path d="M116.91 251.941C116.91 251.941 110.398 265.206 111.481 270.089C111.481 270.089 121.043 276.956 111.855 277.1C111.855 277.1 99.3116 281.297 98.884 288.959L77.7846 269.515L125.035 231.383C126.277 235.915 128.137 240.39 116.91 251.941Z" fill="url(#paint2_linear_50:315)"/>
<path d="M77.6513 269.623L74.673 266.5L122.324 228.042C123.409 229.379 124.352 229.721 124.768 231.599L77.6513 269.623Z" fill="#C73E39"/>
</g>
<path d="M412.801 298.853L394.527 287.959L398.744 277.418C399.096 277.418 406.124 273.201 409.287 274.607C412.45 276.012 413.856 279.878 414.207 284.094C414.207 288.311 412.801 298.853 412.801 298.853Z" fill="#E0932D"/>
<path d="M363.6 316.422C363.6 302.718 372.034 286.554 382.226 280.58C384.686 279.175 390.309 278.121 392.769 278.121C394.877 278.121 400.149 279.878 406.826 284.797C412.449 289.014 413.151 296.042 413.151 296.042L392.066 339.262C392.066 339.262 388.2 342.073 381.874 339.614C379.063 338.56 375.197 336.1 373.088 334.694C368.871 331.883 367.114 329.775 365.708 327.667C365.357 326.612 364.303 324.855 364.303 324.153C363.951 322.044 363.6 319.233 363.6 316.422Z" fill="#191919"/>
<path d="M413.854 302.015C413.854 315.719 405.42 331.883 395.229 337.857C384.686 343.83 376.603 337.505 376.603 323.801C376.603 310.097 385.037 293.933 395.229 287.96C405.42 281.635 413.854 287.96 413.854 302.015Z" fill="#333333"/>
<path d="M410.34 304.475C410.34 315.368 403.663 328.018 395.58 332.586C387.497 337.154 380.82 332.235 380.82 321.341C380.82 310.448 387.497 297.799 395.58 293.23C404.014 288.662 410.34 293.582 410.34 304.475Z" fill="#191919"/>
<path d="M404.718 307.286C404.718 314.314 400.501 322.747 395.229 325.91C389.958 329.072 385.741 325.558 385.741 318.53C385.741 311.503 389.958 303.069 395.229 299.907C400.501 297.096 404.718 300.258 404.718 307.286Z" fill="#F7F2EC"/>
<path d="M398.742 300.961C399.796 302.366 400.148 304.123 400.148 306.232C400.148 312.557 396.282 319.585 391.714 322.396C390.308 323.098 389.254 323.45 388.199 323.45C389.605 325.558 392.416 325.91 395.228 324.504C399.796 321.693 403.662 314.665 403.662 308.34C403.662 303.772 401.554 300.961 398.742 300.961Z" fill="#D1C5BA"/>
<path d="M398.742 300.961C397.687 300.961 396.282 301.312 395.227 302.015C391.01 304.475 387.496 310.8 386.793 316.773C387.496 316.422 387.847 316.773 387.847 317.828C387.847 318.53 387.496 319.585 386.793 319.936C387.145 321.341 387.496 322.396 388.199 323.45C389.253 323.45 390.659 323.098 391.713 322.396C396.282 319.585 400.147 312.557 400.147 306.232C400.147 304.123 399.796 302.015 398.742 300.961Z" fill="#B29EA1"/>
<path d="M388.198 317.476C388.198 316.773 387.847 316.071 387.144 316.422C387.144 316.773 387.144 317.125 387.144 317.476C387.144 318.179 387.144 318.882 387.144 319.585C387.495 319.233 388.198 318.53 388.198 317.476Z" fill="#191919"/>
<path d="M392.066 306.583C390.308 307.637 388.903 310.448 388.903 312.908C388.903 315.368 390.308 316.422 392.066 315.368C393.823 314.314 395.229 311.503 395.229 309.043C395.229 306.583 393.823 305.529 392.066 306.583Z" fill="#191919"/>
<path d="M396.985 303.069C396.282 303.421 395.931 304.475 395.931 305.529C395.931 306.583 396.634 306.935 396.985 306.583C397.688 306.232 398.039 305.178 398.039 304.123C398.391 303.069 397.688 302.718 396.985 303.069Z" fill="#191919"/>
<path d="M396.985 310.448C396.282 310.8 395.931 311.854 395.931 312.908C395.931 313.962 396.634 314.314 396.985 313.962C397.688 313.611 398.039 312.557 398.039 311.502C398.391 310.448 397.688 310.097 396.985 310.448Z" fill="#191919"/>
<path d="M392.417 316.773C391.715 317.125 391.012 318.179 391.012 319.233C391.012 320.287 391.715 320.639 392.417 320.287C393.12 319.936 393.472 318.882 393.472 317.828C393.472 316.773 393.12 316.422 392.417 316.773Z" fill="#191919"/>
<path d="M345.678 195.545C343.921 194.49 341.812 194.49 339.352 195.896L307.372 214.519C294.018 222.25 291.207 238.062 286.638 253.172C282.069 268.282 277.852 277.067 266.255 284.094C264.498 285.148 263.092 285.851 261.335 286.905V307.989L344.975 259.849C347.435 258.443 349.544 254.578 349.544 251.064L354.464 199.761C353.761 200.113 346.03 195.896 345.678 195.545Z" fill="#FABF5B"/>
<path d="M363.952 251.415L308.075 219.087L347.084 196.599L405.421 230.332L363.952 251.415Z" fill="#FABF5B"/>
<path d="M413.151 234.9C413.151 234.9 404.717 229.98 404.014 229.629C402.257 228.926 400.149 228.926 398.04 230.332L366.06 248.955C352.706 256.686 349.894 272.498 345.326 287.608C340.757 302.718 336.54 311.502 324.943 318.53C313.345 325.207 297.531 334.343 297.531 334.343V355.426L367.817 314.665L371.683 280.932L413.151 234.9Z" fill="#FABF5B"/>
<path d="M406.826 235.251L374.846 253.875C361.491 261.605 358.68 277.418 354.111 292.528C349.543 307.637 345.326 316.422 333.729 323.45C322.131 330.126 306.317 339.262 306.317 339.262V360.345L372.034 322.396V310.448C372.034 302.015 377.306 292.176 383.28 288.662L401.554 278.121C407.88 274.607 412.8 278.472 412.8 286.554V291.825C412.8 291.825 413.503 294.987 413.854 297.447C415.26 295.69 416.314 292.879 416.314 290.419V242.279C416.314 235.603 412.097 232.44 406.826 235.251Z" fill="#F4AA40"/>
<path d="M316.86 325.909L246.574 285.148L268.011 273.201L338.297 313.611L316.86 325.909Z" fill="#FABF5B"/>
<path d="M341.813 231.386L317.565 218.033L316.862 218.385C303.507 226.115 300.696 241.928 296.127 257.037C292.262 269.687 288.747 277.769 281.016 284.094L299.993 296.393L328.459 315.016C337.948 308.34 341.813 299.907 346.03 286.203C350.599 271.093 353.762 255.28 366.765 247.55L369.576 246.144L341.813 231.386Z" fill="#191919"/>
<path d="M312.643 299.907L315.103 298.501L315.454 324.855L312.994 326.261L312.643 299.907Z" fill="#191919"/>
<path d="M262.386 310.448L243.76 299.204L248.329 289.365C248.68 289.365 255.709 285.148 258.872 286.554C262.035 287.959 263.441 291.825 263.792 296.041C263.792 300.258 262.386 310.448 262.386 310.448Z" fill="#E0932D"/>
<path d="M217.051 319.936C217.051 308.34 224.08 294.987 232.865 290.068C234.974 288.662 239.543 287.959 241.651 287.959C243.408 287.959 247.977 289.365 253.6 293.582C258.168 297.096 258.871 302.718 258.871 302.718L241.3 338.911C241.3 338.911 238.137 341.37 232.865 339.262C230.757 338.559 227.242 336.451 225.837 335.045C222.322 332.586 220.917 331.18 219.862 329.072C219.511 328.369 218.808 326.612 218.457 325.909C217.402 324.855 217.051 322.395 217.051 319.936Z" fill="#191919"/>
<path d="M259.222 307.988C259.222 319.584 252.193 332.937 243.407 337.856C234.622 342.776 227.593 337.505 227.593 325.909C227.593 314.313 234.622 300.961 243.407 296.041C252.193 291.122 259.222 296.393 259.222 307.988Z" fill="#333333"/>
<path d="M256.058 310.097C256.058 319.233 250.435 329.775 243.758 333.64C237.08 337.505 231.458 333.288 231.458 324.152C231.458 315.016 237.08 304.475 243.758 300.609C250.786 296.744 256.058 300.961 256.058 310.097Z" fill="#191919"/>
<path d="M251.49 312.557C251.49 318.53 247.975 325.558 243.407 328.018C238.838 330.477 235.324 328.018 235.324 322.044C235.324 316.07 238.838 309.043 243.407 306.583C247.975 304.123 251.49 306.583 251.49 312.557Z" fill="#F7F2EC"/>
<path d="M246.57 307.286C247.273 308.34 247.625 309.745 247.625 311.854C247.625 317.125 244.462 323.098 240.596 325.207C239.542 325.909 238.487 325.909 237.433 325.909C238.839 327.666 240.947 328.018 243.407 326.612C247.273 324.504 250.436 318.53 250.436 313.259C250.436 309.394 248.679 307.286 246.57 307.286Z" fill="#D1C5BA"/>
<path d="M246.571 307.286C245.516 307.286 244.462 307.286 243.408 307.989C239.894 310.097 236.731 315.368 236.379 320.287C237.082 319.936 237.434 320.287 237.434 320.99C237.434 321.693 237.082 322.395 236.379 322.747C236.731 323.801 237.082 324.855 237.434 325.558C238.488 325.558 239.542 325.558 240.596 324.855C244.462 322.747 247.625 316.773 247.625 311.502C247.625 309.745 247.274 308.34 246.571 307.286Z" fill="#B29EA1"/>
<path d="M237.433 320.99C237.433 320.287 237.081 319.936 236.378 320.287C236.378 320.638 236.378 320.99 236.378 321.341C236.378 322.044 236.378 322.395 236.378 323.098C237.081 322.395 237.433 321.693 237.433 320.99Z" fill="#191919"/>
<path d="M240.596 312.205C239.19 312.908 237.784 315.368 237.784 317.476C237.784 319.584 239.19 320.287 240.596 319.584C242.001 318.881 243.407 316.422 243.407 314.313C243.407 312.205 242.353 311.151 240.596 312.205Z" fill="#191919"/>
<path d="M245.164 309.043C244.461 309.394 244.11 310.097 244.11 311.151C244.11 311.854 244.461 312.205 245.164 311.854C245.867 311.502 246.218 310.8 246.218 309.745C246.218 309.043 245.515 308.691 245.164 309.043Z" fill="#191919"/>
<path d="M245.164 315.016C244.461 315.368 244.11 316.07 244.11 317.125C244.11 317.827 244.461 318.179 245.164 317.827C245.867 317.476 246.218 316.773 246.218 315.719C246.218 315.016 245.515 314.665 245.164 315.016Z" fill="#191919"/>
<path d="M241.299 320.638C240.596 320.99 240.245 321.693 240.245 322.747C240.245 323.801 240.596 323.801 241.299 323.45C242.002 323.098 242.354 322.395 242.354 321.341C242.002 320.638 241.651 320.287 241.299 320.638Z" fill="#191919"/>
<path d="M236.378 296.744C237.784 296.041 243.056 292.879 249.381 289.365C251.841 287.959 253.598 286.905 254.653 286.554C258.167 285.148 259.924 285.5 260.979 285.851L245.164 276.715C243.056 275.309 240.244 274.958 237.081 277.066L234.621 278.472L221.618 285.851L217.753 288.311L234.621 298.149C234.973 297.447 235.676 297.095 236.378 296.744Z" fill="#FFC97B"/>
<path d="M260.627 285.851C260.978 285.851 260.979 286.202 260.979 286.202L260.627 285.851Z" fill="#D1C5BA"/>
<path d="M238.137 294.636L252.897 286.202C259.223 282.688 264.143 286.554 264.143 294.636V309.394L262.385 310.448V295.69C262.385 288.662 258.168 285.5 252.897 288.311L238.137 296.744V294.636Z" fill="#F4AA40"/>
<path d="M233.567 297.095V299.555L244.11 293.23L250.436 289.716V287.257L233.567 297.095Z" fill="#F4AA40"/>
<path d="M233.567 297.095V299.555L223.025 293.23L217.402 290.419V287.959L233.567 297.095Z" fill="#F4AA40"/>
<path d="M305.963 346.29L315.101 331.532L244.815 291.122L235.677 305.88L305.963 346.29Z" fill="#FABF5B"/>
<path d="M305.965 367.373L235.679 326.612V305.88L305.965 346.29V367.373Z" fill="#F4AA40"/>
<path d="M316.507 315.016L266.604 285.851L290.501 272.498L340.404 301.312L316.507 315.016Z" fill="#232323"/>
<path d="M310.533 325.558C310.533 325.558 323.536 318.179 328.456 315.368C330.916 313.962 333.376 311.502 336.187 307.988C338.647 305.177 340.404 301.312 340.404 301.312L310.533 317.827V325.558Z" fill="#191919"/>
<path d="M292.26 245.442C292.26 245.09 297.532 236.657 297.532 236.657L309.129 244.036L294.017 284.446L281.366 277.418L292.26 245.442Z" fill="#191919"/>
<path d="M297.529 236.657L286.986 242.631C283.824 244.387 281.364 249.307 281.364 253.524V277.418L297.529 268.282V236.657Z" fill="#191919"/>
<path d="M321.426 232.089L298.583 245.09C296.474 246.496 294.717 249.658 294.717 252.469L294.366 284.446L326.697 303.069C326.697 303.069 337.24 270.39 339.7 266.173C342.511 262.308 354.46 250.361 354.46 250.361L321.426 232.089Z" fill="#232323"/>
<path d="M326.698 272.147V303.42L335.132 298.501C337.241 294.284 338.647 289.716 340.404 284.445C343.918 272.147 346.729 259.497 354.461 251.064L330.212 265.119C328.455 266.173 326.698 269.336 326.698 272.147Z" fill="#333333"/>
<path d="M295.422 240.171C291.907 241.928 289.096 243.333 286.987 245.441C284.879 247.55 283.122 252.469 286.284 253.523C289.096 254.578 288.393 251.415 291.556 248.253C294.016 245.793 298.936 243.333 300.342 242.63C302.45 241.576 298.584 238.765 295.422 240.171Z" fill="#232323"/>
<path d="M289.8 246.144L284.177 231.737C283.825 231.034 283.474 231.034 282.771 231.034C282.068 231.386 282.068 231.737 282.068 232.44L287.691 247.198C287.691 247.198 287.691 247.55 288.043 247.55C288.394 248.604 289.8 246.496 289.8 246.144Z" fill="#E0D7CE"/>
<path d="M293.664 243.685L291.204 227.169C291.204 226.467 290.501 226.115 289.798 226.115C289.096 226.115 288.744 226.818 288.744 227.521L291.556 244.739C292.258 244.387 292.961 244.387 293.664 243.685Z" fill="#E0D7CE"/>
<path d="M296.477 242.279V224.358C296.477 223.655 296.829 223.304 297.531 223.304C298.234 223.304 298.586 223.655 298.586 224.358V241.576C298.937 242.279 296.477 242.982 296.477 242.279Z" fill="#E0D7CE"/>
<path d="M286.286 232.791C286.286 234.548 284.88 235.954 283.123 235.954C281.366 235.954 279.96 234.548 279.96 232.791C279.96 231.034 281.366 229.629 283.123 229.629C284.88 229.629 286.286 231.034 286.286 232.791Z" fill="#232323"/>
<path d="M284.175 231.737C284.175 232.792 283.472 233.494 282.418 233.494C281.363 233.494 280.66 232.792 280.66 231.737C280.66 230.683 281.363 229.98 282.418 229.98C283.472 230.332 284.175 231.035 284.175 231.737Z" fill="#444444"/>
<path d="M292.961 226.115C292.961 227.872 291.555 229.278 289.798 229.278C288.041 229.278 286.635 227.872 286.635 226.115C286.635 224.358 288.041 222.953 289.798 222.953C291.555 222.953 292.961 224.358 292.961 226.115Z" fill="#232323"/>
<path d="M290.5 225.061C290.5 226.115 289.797 226.818 288.743 226.818C287.689 226.818 286.986 226.115 286.986 225.061C286.986 224.007 287.689 223.304 288.743 223.304C289.797 223.655 290.5 224.358 290.5 225.061Z" fill="#444444"/>
<path d="M297.53 224.358C295.783 224.358 294.367 222.942 294.367 221.196C294.367 219.449 295.783 218.033 297.53 218.033C299.276 218.033 300.692 219.449 300.692 221.196C300.692 222.942 299.276 224.358 297.53 224.358Z" fill="#232323"/>
<path d="M298.586 220.493C298.586 221.547 297.883 222.25 296.829 222.25C295.775 222.25 295.072 221.547 295.072 220.493C295.072 219.439 295.775 218.736 296.829 218.736C297.883 218.736 298.586 219.439 298.586 220.493Z" fill="#444444"/>
<path d="M289.448 247.55C289.097 248.253 288.394 248.253 288.043 248.253C287.691 247.901 287.691 247.55 288.394 246.847C288.745 246.144 289.448 246.144 289.8 246.144C289.8 246.144 289.8 246.847 289.448 247.55Z" fill="#E0D7CE"/>
<path d="M292.61 244.739C291.908 245.09 291.556 245.09 291.205 244.739C291.205 244.387 291.556 244.036 291.908 243.684C292.61 243.333 292.962 243.333 293.313 243.684C293.665 244.036 293.313 244.739 292.61 244.739Z" fill="#E0D7CE"/>
<path d="M297.881 242.63C297.178 242.63 296.827 242.63 296.476 242.279C296.476 241.928 296.827 241.576 297.53 241.225C298.233 240.873 298.584 241.225 298.936 241.576C298.936 241.928 298.584 242.279 297.881 242.63Z" fill="#E0D7CE"/>
<path d="M337.943 103.129L336.186 102.075H335.835C334.429 101.372 332.672 102.075 330.212 103.481L268.712 138.971C265.549 140.728 264.495 142.836 263.089 152.675C261.683 161.108 248.329 261.957 247.626 267.579L249.383 268.633L252.897 264.416C253.6 259.146 266.955 157.243 267.657 151.269C268.36 144.944 269.766 143.539 272.577 141.782L327.4 110.157C330.915 108.049 331.969 107.697 331.969 110.508V200.112L333.726 201.167L336.889 196.95V106.292C337.943 106.292 337.943 103.129 337.943 103.129Z" fill="#444444"/>
<path d="M255.358 265.471C256.061 260.2 269.415 158.297 270.118 152.675C270.821 146.35 272.227 144.945 275.038 143.188L329.861 111.563C333.375 109.454 334.43 109.103 334.43 111.914V200.815L339.701 197.653V106.995C339.701 101.372 336.89 101.372 332.321 103.832L270.821 139.322C267.658 141.079 266.604 143.188 265.198 153.027C263.792 161.46 250.79 262.308 249.735 267.93L255.358 265.471Z" fill="#232323"/>
<path d="M308.777 201.518C308.777 201.518 305.965 204.681 304.208 208.194C302.1 212.06 300.694 213.465 300.343 216.276C300.343 217.331 296.828 225.061 298.585 228.224C300.343 231.737 302.1 228.926 303.505 226.467C304.56 224.71 307.371 220.493 307.723 218.385C307.723 218.385 308.777 216.276 311.588 212.762C314.4 209.249 315.454 206.789 315.454 206.789L308.777 201.518Z" fill="#FFC9B6"/>
<path d="M317.21 211.708C311.939 210.654 308.073 206.789 304.91 202.924C305.613 201.869 307.722 199.761 308.425 199.058C310.533 190.625 315.805 189.571 318.616 190.976C323.536 193.436 324.239 198.707 322.13 203.275C321.427 205.383 318.967 209.6 317.21 211.708Z" fill="#F4AA40"/>
<path d="M281.366 298.853C281.717 295.69 284.529 294.284 286.989 292.528C288.395 291.473 289.8 290.419 289.449 287.959C289.449 287.608 289.449 287.257 289.449 286.905C292.612 289.014 295.072 285.851 298.586 285.148C298.937 286.905 299.64 290.771 299.64 292.528C300.343 295.339 298.937 296.041 297.18 296.744C297.18 297.798 293.666 301.312 291.557 303.069C289.449 304.475 287.692 305.529 285.583 304.475C282.42 302.366 281.015 301.664 281.366 298.853Z" fill="#33212A"/>
<path d="M309.479 300.258C309.479 299.907 309.479 299.907 309.479 299.555C312.641 300.61 315.804 300.258 319.319 299.204C319.319 299.555 319.319 299.555 319.319 299.907C319.319 301.664 320.724 303.772 319.319 305.88C318.616 306.583 318.264 306.583 316.859 307.989C315.804 310.097 314.75 313.259 311.587 315.719C308.776 317.827 304.559 316.773 303.153 315.368C301.044 313.259 302.45 310.448 304.207 307.989C305.964 305.178 308.776 302.366 309.479 300.258Z" fill="#33212A"/>
<path d="M293.666 262.308C291.557 261.957 289.449 253.523 286.989 256.335C284.88 258.794 288.746 281.634 288.394 288.662C290.503 292.528 298.937 292.528 300.343 290.419C302.1 282.337 303.857 267.93 302.803 263.362C299.991 263.714 296.828 263.011 293.666 262.308Z" fill="#00665C"/>
<path d="M327.403 241.576C327.755 241.225 327.403 240.522 327.052 240.171C324.592 238.062 316.86 231.386 316.86 231.386C313.346 231.386 313.346 229.629 310.535 231.737C309.48 232.44 307.723 233.494 307.723 235.954C299.289 240.522 288.395 253.875 286.989 255.983C288.395 257.74 291.206 261.605 292.963 263.011C295.072 265.119 294.72 265.822 297.532 266.876C299.289 266.525 302.452 265.471 304.209 264.417C314.752 260.2 322.835 251.767 327.403 241.576Z" fill="#00665C"/>
<path d="M315.805 278.121C316.859 278.823 318.616 279.878 318.616 279.878C321.076 279.878 322.131 272.498 323.536 271.444C327.754 268.282 331.971 260.551 334.079 255.983C338.296 252.469 342.865 251.064 341.459 238.414C337.945 235.603 330.565 230.332 325.645 231.737C320.022 237.711 317.914 241.928 318.968 246.144C315.454 252.118 312.642 258.443 309.479 264.768C308.073 267.228 308.425 270.039 308.074 272.85C311.236 274.958 312.642 276.364 315.805 278.121Z" fill="#007D75"/>
<path d="M321.78 266.876C317.563 267.228 313.345 267.228 309.128 266.525C307.723 274.958 307.723 288.662 309.831 294.636C307.02 297.798 308.074 300.961 310.183 302.015C314.4 303.772 317.563 303.069 320.023 302.015C322.131 298.15 325.294 274.607 324.24 266.876C323.537 266.876 322.483 266.876 321.78 266.876Z" fill="#007D75"/>
<path d="M341.109 236.657L341.812 238.414C341.812 238.414 337.243 242.982 331.269 244.036C324.943 244.739 319.32 243.684 316.86 242.982C314.4 242.279 313.346 239.116 313.346 239.116C313.346 239.116 327.754 241.576 331.269 240.522C335.134 239.116 341.109 236.657 341.109 236.657Z" fill="#00665C"/>
<path d="M340.055 233.846C339.703 231.035 335.838 231.035 335.838 231.035L334.432 236.305C334.432 235.954 340.758 238.062 340.055 233.846Z" fill="#00665C"/>
<path d="M311.94 233.846C310.534 231.386 311.237 221.547 312.291 217.682C310.534 210.654 309.831 205.735 311.237 200.112C312.291 196.598 315.454 192.733 319.671 192.382C321.78 192.382 328.808 195.193 330.214 195.896C335.837 197.301 339 200.112 342.514 203.978C342.865 204.329 341.108 220.493 340.054 223.655C339 227.169 339.702 232.44 338.648 235.954C339 239.116 329.16 241.225 326.348 241.225C316.508 241.225 314.048 238.414 311.94 233.846Z" fill="#FABF5B"/>
<path d="M335.837 231.035C335.837 231.035 333.377 232.44 330.565 231.386C327.403 230.683 325.645 228.926 325.645 228.926C325.645 228.926 329.511 230.332 331.268 230.332C333.026 230.683 335.837 231.035 335.837 231.035Z" fill="#F4AA40"/>
<path d="M333.376 196.95C333.376 196.95 333.025 200.112 329.159 201.518C323.185 203.626 319.319 200.815 318.264 197.653C317.21 194.49 320.725 192.031 320.725 192.031C320.725 192.031 328.105 193.085 333.376 196.95Z" fill="#F4AA40"/>
<path d="M340.054 233.846L341.108 236.657C341.108 236.657 338.648 238.765 332.323 241.225C325.997 243.684 318.617 242.279 315.454 239.468C312.291 236.657 310.183 234.9 310.183 232.44C309.831 229.629 310.183 225.412 310.534 221.547C310.886 217.682 311.94 206.789 311.94 206.789C311.94 206.789 315.103 208.897 318.968 209.951C324.24 211.357 327.051 211.357 327.051 211.357C327.051 211.357 326.7 221.196 328.106 225.764C328.808 228.926 330.214 232.089 333.728 233.846C337.594 235.251 340.054 233.846 340.054 233.846Z" fill="#007D75"/>
<path d="M324.591 214.168C324.591 214.168 321.779 214.168 317.914 213.114C315.454 212.411 313.697 211.357 313.697 211.357C313.697 211.357 312.994 214.519 312.642 218.033C312.642 220.142 314.751 221.898 317.562 222.601C320.022 223.304 323.537 222.601 323.888 220.142C324.591 215.925 324.591 214.168 324.591 214.168Z" fill="#00665C"/>
<path d="M335.134 198.004C335.134 198.004 332.323 199.41 329.863 204.329C327.754 208.546 327.403 214.871 327.403 214.871L324.943 214.168C324.943 214.168 324.943 207.843 327.754 203.275C330.917 198.004 331.971 196.95 334.431 196.599C335.486 196.599 335.134 198.004 335.134 198.004Z" fill="#007D75"/>
<path d="M322.482 192.733C322.482 192.733 319.67 194.139 317.21 199.058C315.102 203.275 314.75 209.6 314.75 209.6L312.29 208.897C312.29 208.897 312.29 202.572 315.102 198.004C318.265 192.733 319.319 191.679 321.779 191.328C322.833 191.328 322.482 192.733 322.482 192.733Z" fill="#007D75"/>
<path d="M320.724 190.625C321.778 190.976 323.887 191.328 325.292 190.976C327.05 190.625 328.807 189.922 330.212 188.517C330.212 190.274 330.915 194.49 331.618 196.247C332.672 198.356 328.104 200.113 324.59 199.761C322.13 199.41 319.67 197.301 319.67 196.247C320.372 193.788 320.372 191.679 320.724 190.625Z" fill="#FFB9A4"/>
<path d="M316.859 182.192C317.211 179.732 317.914 176.921 320.022 175.515C322.131 174.11 324.942 174.11 327.402 174.813C330.917 175.515 333.025 179.732 331.971 184.3C330.917 188.517 327.402 194.842 322.482 195.193C320.022 195.545 318.265 193.436 317.562 190.976C316.156 187.463 316.508 183.949 316.859 182.192Z" fill="#FFC9B6"/>
<path d="M334.079 234.9C334.079 234.9 331.268 236.657 328.808 237.36C326.348 238.062 324.239 237.36 324.239 237.36C324.239 237.36 325.645 237.36 328.808 236.305C331.971 235.251 334.079 234.9 334.079 234.9Z" fill="#00665C"/>
<path d="M320.372 267.93C321.075 270.039 321.075 271.444 321.075 271.444C321.075 271.444 318.967 270.39 318.967 267.579C318.967 264.768 319.669 265.822 320.372 267.93Z" fill="#00665C"/>
<path d="M315.804 273.553C315.804 273.553 317.209 272.147 318.615 272.498C320.021 272.85 321.075 273.201 321.075 273.201C321.075 273.201 320.372 274.255 318.264 273.904C316.507 273.904 315.804 273.553 315.804 273.553Z" fill="#00665C"/>
<path d="M330.917 178.326C330.214 172.353 322.482 169.893 319.671 175.515C316.859 174.461 313.697 177.272 312.994 180.435C313.345 180.786 317.562 183.949 320.725 182.192C321.077 185.354 325.645 184.651 327.051 183.597C327.051 185.003 328.457 185.003 329.862 185.003C329.159 186.408 328.808 188.868 329.511 190.625C329.862 188.868 332.674 187.814 333.025 186.057C333.025 185.354 333.025 184.651 332.322 183.949C334.782 182.192 333.728 177.624 330.917 178.326Z" fill="#191919"/>
<path d="M316.508 176.218C316.508 176.218 311.939 178.678 311.237 181.84V182.543C311.237 183.597 311.588 184.3 312.642 185.354C315.102 187.814 320.022 188.517 325.294 187.463C330.214 186.408 332.674 182.543 332.674 182.543L316.508 176.218Z" fill="#007D75"/>
<path d="M312.292 184.651C314.752 187.111 319.672 187.814 324.943 186.76C329.863 185.706 332.323 181.84 332.323 181.84L316.509 175.515C316.509 175.515 308.075 180.083 312.292 184.651Z" fill="#089688"/>
<path d="M330.214 169.893C330.916 172.001 330.214 174.461 328.456 175.867C325.996 178.678 322.131 180.083 318.616 180.083C315.805 180.083 313.696 178.678 313.345 176.218C313.345 176.921 312.994 177.624 312.994 178.326C312.994 178.326 312.994 179.029 312.994 179.381C313.345 182.543 317.914 184.651 323.888 184.651C329.862 184.651 334.431 182.192 334.782 179.381C334.782 179.029 334.782 178.326 334.782 178.326C334.782 175.164 333.025 172.001 330.214 169.893Z" fill="#007065"/>
<path d="M318.617 180.435C322.131 180.435 325.997 179.029 328.457 176.218C329.863 174.461 330.566 172.353 330.214 170.245C328.457 168.839 326.348 168.136 323.888 168.136C318.617 168.136 314.4 172.001 313.346 176.921C313.697 179.029 316.157 180.435 318.617 180.435Z" fill="#007D75"/>
<path d="M330.564 171.65C327.402 170.947 324.239 172.353 322.13 174.461C320.022 176.569 317.913 180.435 318.264 183.597C318.616 182.192 318.616 180.786 319.319 179.38C320.022 177.624 320.724 176.218 322.13 174.812C324.239 173.055 327.05 171.65 330.564 171.65C330.564 172.001 330.564 172.001 330.564 171.65Z" fill="#00665C"/>
<path d="M323.184 168.839C322.481 168.488 321.778 168.487 320.724 169.19C318.967 169.893 317.21 171.299 316.507 172.704C315.804 173.407 315.101 174.812 315.101 175.867C315.101 176.569 315.452 176.921 316.155 176.569C317.21 175.867 317.561 174.461 317.913 173.758C318.615 172.353 319.67 171.299 321.075 170.596C321.427 170.244 323.887 169.542 323.184 168.839Z" fill="#089688"/>
<path d="M317.212 172.704C316.861 172.353 315.455 174.461 315.455 175.164C315.455 175.867 315.806 176.218 316.509 175.515C316.86 175.164 316.861 174.812 317.212 174.461C317.212 174.11 317.563 172.704 317.212 172.704Z" fill="#11AA97"/>
<path d="M324.942 174.461C324.239 174.461 323.536 174.813 323.185 175.164C321.779 176.218 321.076 177.624 321.076 178.327C321.076 178.678 321.076 179.029 321.779 179.029C322.482 179.029 323.185 177.975 323.887 177.624C323.887 177.272 326.699 174.813 324.942 174.461Z" fill="#089688"/>
<path d="M323.537 175.867C322.834 175.164 321.428 177.272 321.428 177.624C321.428 177.975 321.428 177.975 321.78 177.975C322.131 177.975 322.482 177.624 322.834 177.272C322.834 177.624 323.888 176.569 323.537 175.867Z" fill="#11AA97"/>
<path d="M275.04 140.025L331.972 173.056L334.783 171.299L277.852 138.62L275.04 140.025Z" fill="#444444"/>
<path d="M275.04 140.025V141.782L331.972 174.813V173.056L275.04 140.025Z" fill="#232323"/>
<path d="M283.824 134.754L341.107 167.785L343.918 166.379L286.635 133.349L283.824 134.754Z" fill="#444444"/>
<path d="M283.824 134.754V136.511L341.106 169.542V167.785L283.824 134.754Z" fill="#232323"/>
<path d="M292.961 129.835L349.893 162.514L352.704 161.108L295.773 128.078L292.961 129.835Z" fill="#444444"/>
<path d="M292.962 129.835V131.24L349.894 164.271V162.514L292.962 129.835Z" fill="#232323"/>
<path d="M301.749 124.564L359.032 157.243L361.844 155.838L304.561 122.807L301.749 124.564Z" fill="#444444"/>
<path d="M301.749 124.564V125.969L359.032 159V157.243L301.749 124.564Z" fill="#232323"/>
<path d="M310.887 119.293L367.818 152.324L370.63 150.567L313.698 117.888L310.887 119.293Z" fill="#444444"/>
<path d="M310.887 119.293V121.05L367.818 154.081V152.324L310.887 119.293Z" fill="#232323"/>
<path d="M319.67 114.022L376.953 147.053L379.765 145.647L322.482 112.617L319.67 114.022Z" fill="#444444"/>
<path d="M319.671 114.022V115.779L376.954 148.81V147.053L319.671 114.022Z" fill="#232323"/>
<path d="M328.808 109.103L385.739 141.782L388.551 140.376L331.619 107.346L328.808 109.103Z" fill="#444444"/>
<path d="M328.809 109.103V110.508L385.74 143.539V141.782L328.809 109.103Z" fill="#232323"/>
<path d="M307.371 259.848C305.965 259.848 304.56 259.497 302.803 258.443C299.991 257.037 296.828 254.226 294.368 251.064C291.908 247.901 290.151 244.036 289.8 240.873C289.097 237.36 289.8 234.9 291.557 233.494C293.314 232.089 296.125 232.089 299.288 233.846C302.1 235.251 305.263 238.062 307.723 241.225C310.183 244.387 311.94 248.253 312.291 251.415C312.994 254.929 312.291 257.389 310.534 258.794C309.48 259.497 308.426 259.848 307.371 259.848ZM294.72 234.548C294.017 234.548 293.314 234.9 292.611 235.251C291.205 236.305 290.854 238.414 291.557 240.873C292.26 243.685 293.665 247.198 295.774 250.01C297.883 253.172 300.694 255.632 303.505 257.037C305.965 258.443 308.074 258.443 309.128 257.389C310.534 256.335 310.886 254.226 310.183 251.766C309.48 248.955 308.074 245.442 305.965 242.63C303.857 239.468 301.045 237.008 298.234 235.603C297.18 234.9 295.774 234.548 294.72 234.548Z" fill="#F7F2EC"/>
<path d="M334.08 212.411C334.08 212.411 329.511 220.493 327.051 226.467C321.429 228.926 318.617 238.062 314.049 240.522C310.534 242.279 308.074 240.522 307.02 240.873C307.371 241.576 307.723 241.928 308.426 242.982C308.777 243.685 308.074 243.333 307.02 246.144C306.669 246.847 306.669 247.55 307.723 247.901C307.723 248.955 308.074 249.307 308.777 249.658C309.129 250.361 308.777 251.766 311.589 250.361C312.994 249.658 314.751 245.793 315.806 245.09C317.914 243.685 331.62 235.251 334.431 232.089C337.594 228.926 341.812 215.925 341.812 215.925L334.08 212.411Z" fill="#FFC9B6"/>
<path d="M335.834 200.464C331.617 203.978 331.617 213.817 331.617 213.817C331.617 213.817 329.86 215.222 328.806 217.682C329.509 220.844 337.24 224.007 340.052 224.358C342.16 221.196 342.512 219.087 342.512 219.087C342.512 219.087 346.377 211.357 344.62 206.086C342.512 201.518 337.943 198.707 335.834 200.464Z" fill="#F4AA40"/>
<path d="M304.558 251.064C304.909 250.712 305.261 249.658 304.909 248.604C304.558 247.55 304.206 246.144 303.152 245.09C302.449 244.036 301.395 242.982 300.341 242.63C299.286 241.928 298.232 241.928 297.529 242.63L296.826 243.333C296.826 243.333 296.826 244.387 296.826 245.09C297.178 246.144 297.529 247.55 298.583 248.604C299.286 249.658 300.341 250.712 301.395 251.064C302.098 251.415 303.503 251.766 303.503 251.766L304.558 251.064C304.206 251.415 304.206 251.415 304.558 251.064Z" fill="#E0D7CE"/>
<path d="M302.45 252.469C302.098 252.469 301.395 252.469 300.693 252.118C299.638 251.767 298.584 250.712 297.881 249.658C297.178 248.604 296.475 247.198 296.124 246.144C295.773 245.09 296.124 244.036 296.827 243.685C297.53 243.333 298.584 243.333 299.638 243.685C300.693 244.036 301.747 245.09 302.45 246.144C303.153 247.198 303.855 248.604 304.207 249.658C304.558 250.712 304.207 251.767 303.504 252.118C303.504 252.118 303.153 252.469 302.45 252.469Z" fill="#F7F2EC"/>
<path d="M303.153 249.658C303.153 249.658 303.153 249.307 303.153 249.658C303.153 248.604 302.45 247.55 302.099 246.847C301.396 246.144 300.693 245.442 299.99 245.09C299.288 244.739 298.585 244.739 297.882 245.09C297.882 245.09 292.962 246.496 287.69 257.74C283.122 267.228 279.959 279.526 279.959 279.526L284.528 283.04C284.528 283.04 289.799 273.201 294.368 265.119C297.882 258.794 302.099 251.415 302.099 248.955C302.099 248.604 302.802 248.955 303.153 249.658Z" fill="#232323"/>
<path d="M303.154 249.658C303.154 247.901 301.397 246.144 301.397 246.144C301.397 246.144 299.64 247.55 298.234 248.955C296.829 250.712 294.369 254.226 291.206 260.2C289.8 263.011 288.746 266.525 287.34 269.336C284.88 276.012 283.474 281.986 283.474 281.986L286.637 284.446C286.637 284.446 290.503 279.175 294.369 273.201C295.423 271.444 296.829 269.336 297.883 267.228C301.397 261.254 302.451 252.118 302.451 249.307C303.154 250.01 303.154 250.01 303.154 249.658Z" fill="#191919"/>
<path d="M249.736 288.662L318.616 328.018V301.664L249.385 262.308L249.736 288.662Z" fill="#333333"/>
<path d="M242.003 295.339L310.883 334.694V305.88L242.003 266.525V295.339Z" fill="#232323"/>
<path d="M318.265 301.664L249.385 262.308L242.005 266.525L310.885 305.88L318.265 301.664Z" fill="#232323"/>
<path d="M339.001 354.372L320.375 343.127L324.943 333.288C324.943 333.288 332.323 329.072 335.486 330.477C338.649 331.883 340.055 335.748 340.406 339.965C340.406 344.181 339.001 354.372 339.001 354.372Z" fill="#E0932D"/>
<path d="M293.315 364.211C293.315 352.615 300.343 339.262 309.129 334.343C311.238 332.937 315.806 332.234 317.915 332.234C319.672 332.234 324.24 333.64 329.863 337.857C334.432 341.37 335.135 346.993 335.135 346.993L317.563 383.186C317.563 383.186 314.4 385.645 309.129 383.537C307.02 382.834 303.506 380.726 302.1 379.32C298.586 376.861 297.18 375.455 296.126 373.347C295.775 372.644 295.072 370.887 294.72 370.184C293.666 368.779 293.315 366.67 293.315 364.211Z" fill="#191919"/>
<path d="M335.485 352.264C335.485 363.859 328.457 377.212 319.671 382.132C310.885 387.051 303.857 381.78 303.857 370.184C303.857 358.589 310.885 345.236 319.671 340.316C328.457 335.397 335.485 340.668 335.485 352.264Z" fill="#333333"/>
<path d="M332.675 354.372C332.675 363.508 327.052 374.05 320.375 377.915C313.698 381.78 308.075 377.563 308.075 368.427C308.075 359.291 313.698 348.75 320.375 344.884C327.052 341.019 332.675 345.236 332.675 354.372Z" fill="#191919"/>
<path d="M328.106 356.831C328.106 362.805 324.592 369.833 320.024 372.293C315.455 374.752 311.941 372.293 311.941 366.319C311.941 360.345 315.455 353.318 320.024 350.858C324.241 348.047 328.106 350.858 328.106 356.831Z" fill="#F7F2EC"/>
<path d="M322.833 351.209C323.536 352.264 323.888 353.669 323.888 355.777C323.888 361.048 320.725 367.022 316.859 369.13C315.805 369.833 314.751 369.833 313.696 369.833C315.102 371.59 317.211 371.941 319.671 370.536C323.536 368.427 326.699 362.454 326.699 357.183C326.699 353.669 325.293 351.561 322.833 351.209Z" fill="#D1C5BA"/>
<path d="M322.833 351.209C321.778 351.209 320.724 351.209 319.67 351.912C316.156 354.02 312.993 359.291 312.641 364.211C313.344 363.859 313.696 364.211 313.696 364.913C313.696 365.616 313.344 366.319 312.641 366.67C312.993 367.725 313.344 368.779 313.696 369.482C314.75 369.482 315.804 369.482 316.858 368.779C320.724 366.67 323.887 360.697 323.887 355.426C324.238 354.02 323.536 352.264 322.833 351.209Z" fill="#B29EA1"/>
<path d="M314.049 365.265C314.049 364.562 313.697 364.211 312.995 364.562C312.995 364.913 312.995 365.265 312.995 365.616C312.995 366.319 312.995 366.67 312.995 367.373C313.346 366.67 314.049 365.968 314.049 365.265Z" fill="#191919"/>
<path d="M317.209 356.129C315.803 356.832 314.398 359.291 314.398 361.4C314.398 363.508 315.803 364.211 317.209 363.508C318.615 362.805 320.021 360.345 320.021 358.237C320.021 356.129 318.615 355.426 317.209 356.129Z" fill="#191919"/>
<path d="M321.427 352.966C320.724 353.318 320.373 354.021 320.373 355.075C320.373 355.777 320.724 356.129 321.427 355.777C322.13 355.426 322.481 354.723 322.481 353.669C322.481 352.966 322.13 352.966 321.427 352.966Z" fill="#191919"/>
<path d="M321.427 359.291C320.724 359.643 320.373 360.345 320.373 361.4C320.373 362.102 320.724 362.454 321.427 362.102C322.13 361.751 322.481 361.048 322.481 359.994C322.481 359.291 322.13 358.94 321.427 359.291Z" fill="#191919"/>
<path d="M317.563 364.562C316.86 364.913 316.509 365.616 316.509 366.67C316.509 367.373 316.86 367.725 317.563 367.373C318.266 367.022 318.617 366.319 318.617 365.265C318.617 364.562 318.266 364.211 317.563 364.562Z" fill="#191919"/>
<path d="M312.641 340.668C314.047 339.965 319.318 336.802 325.644 333.288C328.104 331.883 329.861 330.829 330.915 330.477C334.43 329.072 336.187 329.423 337.241 329.775L321.427 320.638C319.318 319.233 316.507 318.882 313.344 320.99L310.884 322.395L297.881 329.775L294.015 332.234L310.884 342.073C311.587 341.37 312.29 341.019 312.641 340.668Z" fill="#FFC97B"/>
<path d="M337.24 329.774C337.592 329.774 337.592 330.126 337.592 330.126L337.24 329.774Z" fill="#D1C5BA"/>
<path d="M314.751 338.559L329.511 330.126C335.837 326.612 340.757 330.477 340.757 338.559V353.317L339 354.372V339.613C339 332.586 334.783 329.423 329.511 332.234L314.751 340.668V338.559Z" fill="#F4AA40"/>
<path d="M309.83 341.37V343.479L320.724 337.505L327.05 333.991V331.531L309.83 341.37Z" fill="#F4AA40"/>
<path d="M309.833 341.37V343.479L299.29 337.505L294.019 334.694V332.234L309.833 341.37Z" fill="#F4AA40"/>
<path d="M254.305 219.439C251.142 243.333 248.33 264.768 247.979 267.579L249.736 268.633L253.25 264.416C253.602 261.957 256.062 241.928 259.225 219.439H254.305Z" fill="#444444"/>
<path d="M256.413 219.439C253.25 243.685 250.439 265.822 250.087 268.633L255.359 265.471C255.71 263.011 258.17 242.63 261.333 219.439H256.413Z" fill="#232323"/>
<path d="M236.385 81.3433L234.98 80.2891C233.925 79.5864 232.168 80.2891 229.357 82.0461C222.68 85.9114 220.571 86.9655 217.408 89.0738C213.191 91.5336 212.488 94.3447 212.488 103.832C212.488 105.94 213.191 107.346 213.894 107.697L215.3 108.752L216.354 107.697C218.462 106.995 220.922 104.886 224.085 101.724C230.06 95.0474 235.331 87.6683 235.682 83.4516L236.385 81.3433Z" fill="#191919"/>
<path d="M230.761 83.1002C224.083 86.9655 221.975 88.0197 218.812 90.128C214.595 92.5877 213.892 95.3988 213.892 104.886C213.892 111.563 219.163 109.806 225.489 102.778C231.815 95.7502 237.086 88.0197 237.086 84.1544C237.438 79.9378 234.978 80.6405 230.761 83.1002Z" fill="#232323"/>
<path d="M233.922 84.5057C233.57 84.1543 232.867 83.8029 232.165 84.5057C231.11 85.2085 230.056 86.9654 230.056 88.371C230.056 89.0738 230.407 89.7765 230.759 89.7765L291.908 124.915L295.422 119.996L233.922 84.5057Z" fill="#232323"/>
<path d="M397.336 136.863L395.579 135.808H395.227C393.822 135.106 392.065 135.809 389.604 137.214L328.104 172.704C324.941 174.461 323.887 176.57 322.481 186.408C321.076 194.842 307.721 295.69 307.019 301.312L308.776 302.366L312.29 298.15C312.993 292.879 326.347 190.976 327.05 185.003C327.753 178.678 329.159 177.272 331.97 175.515L386.793 143.89C390.307 141.782 391.362 141.431 391.362 144.242V233.143L393.119 234.197L396.282 229.98V140.377C397.336 140.025 397.336 136.863 397.336 136.863Z" fill="#444444"/>
<path d="M314.751 299.204C315.454 293.933 328.808 192.031 329.511 186.408C330.214 180.083 331.619 178.678 334.431 176.921L389.254 145.296C392.768 143.188 393.822 142.836 393.822 145.647V234.549L399.094 231.386V140.728C399.094 135.106 396.282 135.106 391.714 137.565L330.214 173.056C327.051 174.813 325.996 176.921 324.591 186.76C323.185 195.193 309.831 296.041 309.128 301.664L314.751 299.204Z" fill="#232323"/>
<path d="M307.371 311.502C307.371 310.448 306.668 309.394 305.965 309.043C305.614 308.691 305.262 309.043 305.262 309.043L280.311 323.45V328.018L307.02 312.557C307.02 312.557 307.371 312.205 307.371 311.502Z" fill="#F7F2EC"/>
<path d="M279.258 118.239L268.012 124.915V377.563L272.229 380.023L279.258 371.238V118.239Z" fill="#191919"/>
<path d="M283.476 121.05L272.23 127.375V380.023L283.476 373.698V121.05Z" fill="#333333"/>
<path d="M283.475 121.05L279.257 118.239L268.012 124.916L272.229 127.375L283.475 121.05Z" fill="#444444"/>
<path d="M248.682 277.769C248.682 276.715 247.979 275.661 247.276 275.31C246.925 274.958 246.574 275.31 246.574 275.31L221.622 289.716V294.284L248.331 278.823C248.682 278.472 248.682 278.472 248.682 277.769Z" fill="#F7F2EC"/>
<path d="M220.568 84.5057L209.322 91.1821V343.83L213.891 346.29L220.568 337.505V84.5057Z" fill="#191919"/>
<path d="M224.786 86.9655L213.891 93.6419V346.29L224.786 339.965V86.9655Z" fill="#333333"/>
<path d="M224.785 86.9655L220.568 84.5058L209.322 91.1822L213.89 93.6419L224.785 86.9655Z" fill="#444444"/>
<path d="M268.012 299.907V292.879L221.623 266.174C221.272 265.822 220.569 265.471 219.866 266.174C218.812 266.876 217.757 268.633 217.757 270.039C217.757 270.742 218.109 271.444 218.46 271.444L268.012 299.907Z" fill="#E0D7CE"/>
<path d="M285.231 315.016C283.473 316.422 280.662 318.53 278.202 321.693C273.633 327.315 273.633 335.748 277.851 336.803C280.662 337.505 283.825 336.1 285.582 335.397V315.016H285.231Z" fill="#191919"/>
<path d="M286.989 315.719L283.475 314.314V316.422L285.935 318.179L286.989 315.719Z" fill="#191919"/>
<path d="M286.988 315.719C285.231 317.125 282.42 319.233 279.96 322.396C275.391 328.018 275.391 336.451 279.608 337.505C282.42 338.208 285.583 336.802 287.34 336.1V315.719H286.988Z" fill="#232323"/>
<path d="M226.892 281.283C225.135 282.689 222.324 284.797 219.864 287.96C215.295 293.582 215.295 302.015 219.512 303.069C222.324 303.772 225.487 302.366 227.244 301.664V281.283H226.892Z" fill="#191919"/>
<path d="M228.3 281.634L225.137 280.229V282.337L227.246 284.446L228.3 281.634Z" fill="#191919"/>
<path d="M228.299 281.634C226.542 283.04 223.73 285.148 221.27 288.311C216.702 293.933 216.702 302.366 220.919 303.42C223.73 304.123 226.893 302.718 228.65 302.015V281.634H228.299Z" fill="#232323"/>
<path d="M298.588 117.185L297.182 116.131C296.128 115.428 294.371 116.131 291.559 117.888C284.882 121.753 282.773 122.807 279.611 124.916C275.393 127.375 274.691 130.186 274.691 139.674C274.691 141.782 275.393 143.188 276.096 143.539L277.502 144.593L278.556 143.539C280.665 142.836 283.125 140.728 286.288 137.565C292.262 130.889 297.534 123.51 297.885 119.293L298.588 117.185Z" fill="#191919"/>
<path d="M292.962 118.942C286.285 122.807 284.177 123.861 281.014 125.97C276.797 128.429 276.094 131.241 276.094 140.728C276.094 147.404 281.365 145.647 287.691 138.62C294.017 131.592 299.288 123.861 299.288 119.996C299.64 115.779 297.179 116.482 292.962 118.942Z" fill="#232323"/>
<path d="M294.37 120.347C293.316 121.05 292.261 122.807 292.261 124.213C292.261 125.618 293.316 126.321 294.37 125.618C295.424 124.915 296.479 123.158 296.479 121.753C296.479 120.347 295.424 119.645 294.37 120.347Z" fill="#191919"/>
<path d="M199.132 138.62L211.432 145.647V65.8823L199.132 58.8545V138.62Z" fill="#333333"/>
<path d="M202.998 56.7462L199.132 58.8545L211.432 65.8823L214.947 63.7739L202.998 56.7462Z" fill="#232323"/>
<path d="M211.432 145.647L214.947 143.89V63.7739L211.432 65.8822V145.647Z" fill="#191919"/>
<path d="M265.904 169.19L212.838 138.62V142.133L265.904 172.704V169.19Z" fill="#232323"/>
<path d="M265.904 167.785L214.244 137.565L212.838 138.62L265.904 169.19V167.785Z" fill="#232323"/>
<path d="M221.977 143.891L217.057 141.08V93.2907L221.977 96.4532V143.891Z" fill="#333333"/>
<path d="M221.978 96.453L223.383 95.3989V143.188L221.978 143.89V96.453Z" fill="#191919"/>
<path d="M218.462 92.5878L217.056 93.2905L221.976 96.4531L223.382 95.3989L218.462 92.5878Z" fill="#232323"/>
<path d="M231.815 149.864L226.544 146.702V99.2642L231.815 102.075V149.864Z" fill="#333333"/>
<path d="M231.816 102.075L233.222 101.021V148.81L231.816 149.864V102.075Z" fill="#191919"/>
<path d="M227.95 98.21L226.544 99.2642L231.816 102.075L233.221 101.021L227.95 98.21Z" fill="#232323"/>
<path d="M241.304 155.135L236.033 152.324V104.535L241.304 107.698V155.135Z" fill="#333333"/>
<path d="M241.305 107.697L242.711 106.643V154.432L241.305 155.135V107.697Z" fill="#191919"/>
<path d="M237.44 103.832L236.034 104.535L241.305 107.698L242.711 106.643L237.44 103.832Z" fill="#232323"/>
<path d="M251.144 160.757L245.873 157.946V110.157L251.144 113.32V160.757Z" fill="#333333"/>
<path d="M251.145 113.32L252.551 112.266V159.703L251.145 160.757V113.32Z" fill="#191919"/>
<path d="M247.279 109.103L245.873 110.157L251.145 113.32L252.55 112.266L247.279 109.103Z" fill="#232323"/>
<path d="M260.633 166.379L255.361 163.568V115.779L260.633 118.942V166.379Z" fill="#333333"/>
<path d="M260.634 118.942L262.04 117.888V165.325L260.634 166.379V118.942Z" fill="#191919"/>
<path d="M256.769 114.725L255.363 115.779L260.634 118.942L262.04 117.888L256.769 114.725Z" fill="#232323"/>
<path d="M265.904 118.239L212.838 87.317V91.1822L265.904 121.753V118.239Z" fill="#232323"/>
<path d="M265.903 116.834L213.892 86.9656L212.837 87.317L265.903 118.239V116.834Z" fill="#232323"/>
<path d="M263.093 175.164L275.393 182.192V102.426L263.093 95.3987V175.164Z" fill="#333333"/>
<path d="M266.959 93.2905L263.093 95.3988L275.393 102.427L278.907 100.318L266.959 93.2905Z" fill="#232323"/>
<path d="M275.393 182.192L278.907 180.083V100.318L275.393 102.427V182.192Z" fill="#191919"/>
<path d="M275.393 182.192L189.644 231.738L177.695 224.71L263.444 175.164L275.393 182.192Z" fill="#232323"/>
<path d="M275.393 178.678L189.644 228.223L177.695 221.196L263.444 172.001L275.393 178.678Z" fill="#232323"/>
<path d="M189.644 228.223V231.737L278.907 180.083L275.393 178.678L189.644 228.223Z" fill="#191919"/>
<path d="M177.694 221.196V224.71L189.643 231.737V228.223L177.694 221.196Z" fill="#333333"/>
<path d="M211.433 142.133L125.684 191.679L113.735 184.651L199.484 135.457L211.433 142.133Z" fill="#232323"/>
<path d="M125.684 191.679V195.193L214.947 143.89L211.432 142.133L125.684 191.679Z" fill="#191919"/>
<path d="M113.734 184.651V188.165L125.683 195.193V191.679L113.734 184.651Z" fill="#333333"/>
<path d="M265.2 198.356L163.988 140.025L176.288 132.646L277.5 190.976L265.2 198.356Z" fill="#EFB078"/>
<path d="M163.988 140.025V143.89L265.199 202.221V198.356L163.988 140.025Z" fill="#E5A46E"/>
<path d="M277.5 190.976L265.2 198.356V202.221L277.5 195.193V190.976Z" fill="#DB9865"/>
<path d="M163.988 140.025V154.432L265.199 212.763V198.356L163.988 140.025ZM210.728 178.678L173.476 157.243V148.459L210.728 169.893V178.678ZM255.008 203.626L217.756 182.192V173.407L255.008 194.842V203.626Z" fill="#E5A46E"/>
<path d="M277.5 190.976L265.2 198.356V212.763L277.5 205.383V190.976Z" fill="#DB9865"/>
<path d="M250.44 206.438L149.229 148.107L161.88 141.079L263.092 199.41L250.44 206.438Z" fill="#EFB078"/>
<path d="M149.229 148.107V152.324L250.441 210.654V206.438L149.229 148.107Z" fill="#E5A46E"/>
<path d="M263.092 199.41L250.44 206.438V210.654L263.092 203.275V199.41Z" fill="#DB9865"/>
<path d="M135.17 156.54V170.947L236.381 229.278V214.871L135.17 156.54ZM181.91 195.193L144.658 173.758V164.974L181.91 186.408V195.193ZM226.19 220.493L188.938 199.058V190.274L226.19 211.708V220.493Z" fill="#E5A46E"/>
<path d="M249.034 207.843L236.383 214.871V229.278L249.034 222.25V207.843Z" fill="#DB9865"/>
<path d="M236.03 214.871L134.818 156.541L147.469 149.513L248.681 207.843L236.03 214.871Z" fill="#EFB078"/>
<path d="M134.819 156.54V160.757L236.031 219.087V214.871L134.819 156.54Z" fill="#E5A46E"/>
<path d="M248.682 207.843L236.03 214.871V219.087L248.682 211.708V207.843Z" fill="#DB9865"/>
<path d="M221.622 222.953L120.41 164.622L133.062 157.595L234.273 215.925L221.622 222.953Z" fill="#EFB078"/>
<path d="M120.411 164.622V168.839L221.623 227.169V222.953L120.411 164.622Z" fill="#E5A46E"/>
<path d="M234.274 215.925L221.622 222.953V227.17L234.274 220.142V215.925Z" fill="#DB9865"/>
<path d="M207.212 231.386L106 173.056L118.652 166.028L219.863 224.358L207.212 231.386Z" fill="#EFB078"/>
<path d="M118.652 181.84L113.029 183.597V191.679L198.778 240.873V228.223L118.652 181.84Z" fill="#AD6B3E"/>
<path d="M106.002 173.056V187.462L207.214 245.793V231.386L106.002 173.056ZM152.742 211.708L115.491 190.274V181.489L152.742 202.924V211.708ZM197.022 237.008L159.771 215.574V206.789L197.022 228.223V237.008Z" fill="#E5A46E"/>
<path d="M219.864 224.358L207.212 231.386V246.144L219.864 238.765V224.358Z" fill="#DB9865"/>
<path d="M115.491 181.84V190.274L122.871 186.057L115.491 181.84Z" fill="#C17E52"/>
<path d="M159.769 206.789V215.574L167.149 211.357L159.769 206.789Z" fill="#C17E52"/>
<path d="M206.512 227.521L271.175 189.922V181.84L206.512 219.439V227.521Z" fill="#E0D7CE"/>
<path d="M236.382 202.221L242.356 198.707V204.329L236.382 207.843V202.221Z" fill="#D6A651"/>
<path d="M206.51 227.521L112.678 173.407V164.974L206.51 219.439V227.521Z" fill="#D1C5BA"/>
<path d="M112.68 164.974L177.343 127.375L271.175 181.84L206.512 219.439L112.68 164.974Z" fill="#F7F2EC"/>
<path d="M212.486 175.867L232.869 163.919L263.092 181.137L242.358 193.085L212.486 175.867Z" fill="white"/>
<path d="M120.411 164.974L130.251 159.351L137.631 163.217L127.791 169.19L120.411 164.974Z" fill="#232323"/>
<path d="M138.333 175.164L147.821 169.19L164.338 178.678L154.85 184.651L138.333 175.164Z" fill="#232323"/>
<path d="M129.549 170.245L131.306 169.19L138.334 173.407L136.929 174.11L129.549 170.245Z" fill="#232323"/>
<path d="M132.36 168.488L134.117 167.433L141.146 171.65L139.74 172.353L132.36 168.488Z" fill="#232323"/>
<path d="M135.17 166.731L139.388 164.271L146.768 168.136L142.55 170.596L135.17 166.731Z" fill="#232323"/>
<path d="M142.55 147.756L148.876 144.242L242.356 198.356L236.382 202.221L142.55 147.756Z" fill="#E5B961"/>
<path d="M206.512 217.331L271.175 180.083V171.65L206.512 209.249V217.331Z" fill="#E0D7CE"/>
<path d="M236.382 192.031L242.356 188.517V194.139L236.382 197.653V192.031Z" fill="#D6A651"/>
<path d="M206.51 217.331L112.678 163.217V155.135L206.51 209.249V217.331Z" fill="#D1C5BA"/>
<path d="M112.68 155.135L177.343 117.536L271.175 171.65L206.512 209.249L112.68 155.135Z" fill="#F7F2EC"/>
<path d="M212.486 166.028L232.869 153.729L263.092 171.299L242.358 183.246L212.486 166.028Z" fill="white"/>
<path d="M120.411 155.135L130.251 149.161L137.631 153.378L127.791 159L120.411 155.135Z" fill="#232323"/>
<path d="M138.333 164.974L147.821 159.352L164.338 168.839L154.85 174.461L138.333 164.974Z" fill="#232323"/>
<path d="M129.549 160.054L131.306 159.352L138.334 163.217L136.929 164.271L129.549 160.054Z" fill="#232323"/>
<path d="M132.36 158.297L134.117 157.595L141.146 161.46L139.74 162.514L132.36 158.297Z" fill="#232323"/>
<path d="M135.17 156.541L139.388 154.081L146.768 158.297L142.55 160.757L135.17 156.541Z" fill="#232323"/>
<path d="M142.55 137.917L148.876 134.403L242.356 188.517L236.382 192.031L142.55 137.917Z" fill="#E5B961"/>
<path d="M206.512 207.492L271.175 169.893V161.811L206.512 199.41V207.492Z" fill="#E0D7CE"/>
<path d="M236.382 182.192L242.356 178.678V184.3L236.382 187.814V182.192Z" fill="#D6A651"/>
<path d="M206.51 207.492L112.678 153.378V145.296L206.51 199.41V207.492Z" fill="#D1C5BA"/>
<path d="M112.68 145.296L177.343 107.697L271.175 161.811L206.512 199.41L112.68 145.296Z" fill="#F7F2EC"/>
<path d="M212.486 155.837L232.869 143.89L263.092 161.46L242.358 173.407L212.486 155.837Z" fill="#D1C5BA"/>
<path d="M200.887 190.625L202.644 189.571L208.97 193.085L207.213 194.139L200.887 190.625Z" fill="#232323"/>
<path d="M203.699 189.219L205.456 188.165L211.782 191.328L210.025 192.382L203.699 189.219Z" fill="#232323"/>
<path d="M192.101 185.706L207.213 176.921L213.539 180.435L198.427 189.219L192.101 185.706Z" fill="#232323"/>
<path d="M206.861 187.111L215.998 181.84L222.324 185.354L212.835 190.625L206.861 187.111Z" fill="#232323"/>
<path d="M120.411 145.296L130.251 139.322L137.631 143.188L127.791 149.161L120.411 145.296Z" fill="#232323"/>
<path d="M138.333 155.135L147.821 149.513L164.338 159L154.85 164.622L138.333 155.135Z" fill="white"/>
<path d="M129.549 150.215L131.306 149.513L138.334 153.378L136.929 154.432L129.549 150.215Z" fill="#232323"/>
<path d="M132.36 148.458L134.117 147.404L141.146 151.621L139.74 152.324L132.36 148.458Z" fill="#232323"/>
<path d="M135.17 146.702L139.388 144.242L146.768 148.107L142.55 150.567L135.17 146.702Z" fill="#232323"/>
<path d="M142.55 128.078L148.876 124.564L242.356 178.678L236.382 182.192L142.55 128.078Z" fill="#E5B961"/>
<path d="M206.512 197.301L271.175 159.703V151.621L206.512 189.219V197.301Z" fill="#E0D7CE"/>
<path d="M236.382 172.001L242.356 168.487V174.11L236.382 177.624V172.001Z" fill="#D6A651"/>
<path d="M206.51 197.301L112.678 143.188V135.106L206.51 189.219V197.301Z" fill="#D1C5BA"/>
<path d="M112.68 135.106L177.343 97.5072L271.175 151.621L206.512 189.219L112.68 135.106Z" fill="#F7F2EC"/>
<path d="M212.486 145.647L232.869 133.7L263.092 151.27L242.358 163.217L212.486 145.647Z" fill="#D1C5BA"/>
<path d="M200.887 180.435L202.644 179.381L208.97 182.895L207.213 183.949L200.887 180.435Z" fill="#232323"/>
<path d="M203.699 179.029L205.456 177.975L211.782 181.489L210.025 182.192L203.699 179.029Z" fill="#232323"/>
<path d="M192.101 175.515L207.213 166.731L213.539 170.244L198.427 179.029L192.101 175.515Z" fill="#232323"/>
<path d="M206.861 177.272L215.998 171.65L222.324 175.164L212.835 180.435L206.861 177.272Z" fill="#232323"/>
<path d="M120.411 135.106L130.251 129.132L137.631 133.349L127.791 138.971L120.411 135.106Z" fill="#232323"/>
<path d="M138.333 144.945L147.821 139.322L164.338 148.81L154.85 154.432L138.333 144.945Z" fill="white"/>
<path d="M129.549 140.025L131.306 139.322L138.334 143.188L136.929 144.242L129.549 140.025Z" fill="#232323"/>
<path d="M132.36 138.268L134.117 137.565L141.146 141.431L139.74 142.485L132.36 138.268Z" fill="#232323"/>
<path d="M135.17 136.511L139.388 134.052L146.768 138.268L142.55 140.728L135.17 136.511Z" fill="#232323"/>
<path d="M142.55 117.888L148.876 114.374L242.356 168.488L236.382 172.001L142.55 117.888Z" fill="#E5B961"/>
<path d="M206.512 187.463L271.175 149.864V141.782L206.512 179.381V187.463Z" fill="#E0D7CE"/>
<path d="M236.382 162.163L242.356 158.649V164.271L236.382 167.785V162.163Z" fill="#D6A651"/>
<path d="M206.51 187.463L112.678 133.349V124.916L206.51 179.381V187.463Z" fill="#D1C5BA"/>
<path d="M112.68 124.915L177.343 87.317L271.175 141.782L206.512 179.381L112.68 124.915Z" fill="#F7F2EC"/>
<path d="M212.486 135.808L232.869 123.861L263.092 141.079L242.358 153.027L212.486 135.808Z" fill="#D1C5BA"/>
<path d="M200.887 170.596L202.644 169.542L208.97 172.704L207.213 173.758L200.887 170.596Z" fill="#232323"/>
<path d="M203.699 168.839L205.456 167.785L211.782 171.299L210.025 172.353L203.699 168.839Z" fill="#232323"/>
<path d="M192.101 165.677L207.213 156.892L213.539 160.054L198.427 169.19L192.101 165.677Z" fill="#232323"/>
<path d="M206.861 167.082L215.998 161.811L222.324 165.325L212.835 170.596L206.861 167.082Z" fill="#232323"/>
<path d="M120.411 124.915L130.251 119.293L137.631 123.159L127.791 129.132L120.411 124.915Z" fill="#232323"/>
<path d="M138.333 135.106L147.821 129.132L164.338 138.62L154.85 144.593L138.333 135.106Z" fill="white"/>
<path d="M129.549 130.186L131.306 129.132L138.334 133.349L136.929 134.051L129.549 130.186Z" fill="#232323"/>
<path d="M132.36 128.429L134.117 127.375L141.146 131.592L139.74 132.295L132.36 128.429Z" fill="#232323"/>
<path d="M135.17 126.672L139.388 124.213L146.768 128.078L142.55 130.538L135.17 126.672Z" fill="#232323"/>
<path d="M142.55 107.697L148.876 104.184L242.356 158.297L236.382 162.163L142.55 107.697Z" fill="#E5B961"/>
<path d="M193.507 226.467L189.641 228.575L177.692 221.547L181.558 219.439L193.507 226.467Z" fill="#232323"/>
<path d="M189.643 228.575V232.089L196.671 228.223L193.508 226.467L189.643 228.575Z" fill="#191919"/>
<path d="M177.694 221.547V225.061L189.643 232.089V228.575L177.694 221.547Z" fill="#333333"/>
<path d="M129.55 189.922L125.684 192.031L113.735 185.354L117.25 183.246L129.55 189.922Z" fill="#232323"/>
<path d="M125.683 192.031V195.544L132.36 191.679L129.549 189.922L125.683 192.031Z" fill="#191919"/>
<path d="M113.734 185.354V188.517L125.682 195.544V192.031L113.734 185.354Z" fill="#333333"/>
<path d="M298.585 221.899C297.882 225.412 297.882 229.629 297.179 230.332C296.476 231.035 295.071 231.386 294.719 232.792C294.368 233.846 294.719 235.251 295.071 235.603C295.774 236.306 296.125 235.954 296.125 235.954C296.125 235.954 296.125 236.305 296.828 236.657C297.531 237.008 297.882 236.657 297.882 236.657C297.882 236.657 298.233 237.36 298.936 237.36C299.639 237.36 300.693 235.251 300.693 235.251L302.099 236.306C302.099 236.306 302.451 235.603 302.099 234.549C302.099 233.846 301.748 233.143 301.748 232.44C301.748 230.683 306.668 224.71 305.262 222.25C304.559 221.196 300.342 221.899 300.342 221.899C300.342 221.899 298.585 221.196 298.585 221.899Z" fill="#FFC9B6"/>
<defs>
<linearGradient id="paint0_linear_50:315" x1="371.129" y1="359.418" x2="253.591" y2="214.616" gradientUnits="userSpaceOnUse">
<stop stop-color="#F37753"/>
<stop offset="1" stop-color="white" stop-opacity="0"/>
</linearGradient>
<linearGradient id="paint1_linear_50:315" x1="185.385" y1="214.982" x2="168.912" y2="194.688" gradientUnits="userSpaceOnUse">
<stop stop-color="#F4A984"/>
<stop offset="1" stop-color="#EE4D47"/>
</linearGradient>
<linearGradient id="paint2_linear_50:315" x1="123.341" y1="277.467" x2="100.856" y2="249.767" gradientUnits="userSpaceOnUse">
<stop stop-color="#F4A984"/>
<stop offset="1" stop-color="#EE4D47"/>
</linearGradient>
</defs>
</svg>
