<svg width="19" height="25" viewBox="0 0 19 25" fill="none" xmlns="http://www.w3.org/2000/svg">
<path d="M11.379 15.2454L18.2328 5.3584V24.9984H16.6951V10.2191L12.9167 15.6696V24.9545H11.379V15.2454Z" fill="#0F264C"/>
<path d="M6.85378 15.2466L0 5.35966V24.9997H1.53771V10.2203L5.31607 15.6708V24.9557H6.85378V15.2466Z" fill="#0F264C"/>
<path d="M0.168945 0L8.1557 11.5559L8.15726 11.5548L9.10189 12.9038L10.0353 11.5708L18.0318 0H16.1626L9.1004 10.2182L2.03818 0H0.168945Z" fill="#F26641"/>
<path d="M7.41071 0H5.54148L8.16243 3.79219L8.16399 3.7911L9.10862 5.14016L10.042 3.80716L12.6728 0H10.8035L9.10712 2.45451L7.41071 0Z" fill="#F26641"/>
</svg>
