<svg width="121" height="25" viewBox="0 0 121 25" fill="none" xmlns="http://www.w3.org/2000/svg">
<path d="M38.1122 19.0538L34.2602 8.32584C34.1762 8.08584 34.0622 7.89984 33.9182 7.76784C33.7862 7.62384 33.6002 7.51584 33.3602 7.44384L32.9282 7.29984V7.11984H38.1122V7.29984L37.5542 7.46184C37.2782 7.53384 37.1222 7.65984 37.0862 7.83984C37.0622 8.01984 37.0922 8.24184 37.1762 8.50584L39.8402 16.4078L42.5222 8.48784C42.6182 8.21184 42.6602 7.98384 42.6482 7.80384C42.6482 7.62384 42.5102 7.49784 42.2342 7.42584L41.7662 7.29984V7.11984H44.2862V7.29984L43.8002 7.44384C43.5722 7.50384 43.4102 7.61184 43.3142 7.76784C43.2182 7.91184 43.1282 8.10384 43.0442 8.34384L39.4442 19.0538H38.1122Z" fill="#0F264C"/>
<path d="M47.2481 19.2698C46.4561 19.2698 45.7781 19.1258 45.2141 18.8378C44.6621 18.5378 44.2421 18.1478 43.9541 17.6678C43.6661 17.1878 43.5221 16.6538 43.5221 16.0658C43.5221 14.6138 44.4581 13.4978 46.3301 12.7178C45.9941 12.2618 45.6941 11.7998 45.4301 11.3318C45.1781 10.8638 45.0521 10.3178 45.0521 9.69384C45.0521 8.84184 45.3521 8.16384 45.9521 7.65984C46.5641 7.14384 47.3621 6.88584 48.3461 6.88584C49.3061 6.88584 50.0501 7.10184 50.5781 7.53384C51.1061 7.95384 51.3701 8.51184 51.3701 9.20784C51.3701 9.79584 51.1301 10.3118 50.6501 10.7558C50.1701 11.1998 49.4861 11.6078 48.5981 11.9798C48.8261 12.2318 49.0601 12.5018 49.3001 12.7898C49.5521 13.0658 49.8101 13.3418 50.0741 13.6178C50.3981 13.9778 50.7101 14.3198 51.0101 14.6438C51.3221 14.9678 51.6341 15.3038 51.9461 15.6518C52.2341 15.2558 52.5041 14.7758 52.7561 14.2118C53.0081 13.6478 53.2061 13.0538 53.3501 12.4298C53.4461 11.9738 53.2721 11.6798 52.8281 11.5478L52.7021 11.4938V11.3138H54.7361V11.4938L54.5741 11.5478C54.1781 11.6798 53.9201 11.9558 53.8001 12.3758C53.6201 13.0478 53.3981 13.6838 53.1341 14.2838C52.8701 14.8838 52.5641 15.4298 52.2161 15.9218L54.1421 17.9558C54.2981 18.1238 54.4541 18.2618 54.6101 18.3698C54.7661 18.4778 54.9401 18.5858 55.1321 18.6938L55.3841 18.8198V18.9998H51.7481L50.5421 17.7038C50.3141 17.9558 50.0561 18.2018 49.7681 18.4418C49.4801 18.6818 49.1321 18.8798 48.7241 19.0358C48.3161 19.1918 47.8241 19.2698 47.2481 19.2698ZM48.3821 11.7458C48.8501 11.3258 49.1861 10.9058 49.3901 10.4858C49.6061 10.0538 49.7141 9.57984 49.7141 9.06384C49.7141 8.59584 49.5941 8.21784 49.3541 7.92984C49.1141 7.62984 48.7841 7.47984 48.3641 7.47984C47.9681 7.47984 47.6381 7.62384 47.3741 7.91184C47.1101 8.19984 46.9781 8.56584 46.9781 9.00984C46.9781 9.28584 47.0261 9.57384 47.1221 9.87384C47.2301 10.1738 47.4161 10.5158 47.6801 10.8998C47.7521 10.9958 47.8481 11.1098 47.9681 11.2418C48.0881 11.3738 48.2261 11.5418 48.3821 11.7458ZM48.2921 18.0638C48.7121 18.0638 49.0901 18.0038 49.4261 17.8838C49.7621 17.7518 50.0501 17.5898 50.2901 17.3978C50.0021 17.0738 49.7021 16.7378 49.3901 16.3898C49.0781 16.0298 48.7841 15.6878 48.5081 15.3638C48.1721 14.9678 47.8421 14.5718 47.5181 14.1758C47.2061 13.7798 46.8941 13.3958 46.5821 13.0238C46.2701 13.3118 46.0421 13.6478 45.8981 14.0318C45.7541 14.4158 45.6821 14.8178 45.6821 15.2378C45.6821 16.0538 45.9221 16.7318 46.4021 17.2718C46.8941 17.7998 47.5241 18.0638 48.2921 18.0638Z" fill="#0F264C"/>
<path d="M56.4227 18.9998V18.8198L56.7827 18.6938C57.1907 18.5618 57.3947 18.2198 57.3947 17.6678V8.45184C57.3947 8.21184 57.3647 8.01984 57.3047 7.87584C57.2567 7.73184 57.1187 7.61184 56.8907 7.51584L56.4227 7.29984V7.11984H59.8967L63.2267 15.8318L66.3587 7.11984H69.9047V7.29984L69.6167 7.40784C69.3887 7.49184 69.2327 7.61184 69.1487 7.76784C69.0647 7.91184 69.0227 8.10384 69.0227 8.34384V17.7578C69.0227 17.9978 69.0527 18.1838 69.1127 18.3158C69.1727 18.4478 69.3167 18.5618 69.5447 18.6578L69.9047 18.8198V18.9998H65.4227V18.8198L65.8007 18.6578C66.0287 18.5618 66.1727 18.4478 66.2327 18.3158C66.2927 18.1838 66.3227 17.9978 66.3227 17.7578V13.7078L66.3587 8.55984L62.5967 18.9998H61.6967L57.7727 8.68584L57.8267 13.1678V17.7038C57.8267 17.9678 57.8627 18.1838 57.9347 18.3518C58.0187 18.5078 58.1747 18.6218 58.4027 18.6938L58.7987 18.8198V18.9998H56.4227Z" fill="#0F264C"/>
<path d="M80.8089 19.3238C79.6449 19.3238 78.5889 19.0898 77.6409 18.6218C76.7049 18.1418 75.9609 17.4338 75.4089 16.4978C74.8569 15.5618 74.5809 14.4158 74.5809 13.0598C74.5809 12.0278 74.7489 11.1218 75.0849 10.3418C75.4209 9.56184 75.8769 8.90784 76.4529 8.37984C77.0409 7.85184 77.7129 7.45584 78.4689 7.19184C79.2369 6.92784 80.0469 6.79584 80.8989 6.79584C81.5829 6.79584 82.2129 6.87384 82.7889 7.02984C83.3649 7.18584 83.9049 7.40184 84.4089 7.67784L84.4809 9.89184H84.3009L83.4009 8.45184C83.2809 8.22384 83.1489 8.01984 83.0049 7.83984C82.8609 7.64784 82.6809 7.50384 82.4649 7.40784C82.2849 7.32384 82.1049 7.26384 81.9249 7.22784C81.7569 7.17984 81.5409 7.15584 81.2769 7.15584C80.5809 7.15584 79.9449 7.34184 79.3689 7.71384C78.8049 8.08584 78.3489 8.70384 78.0009 9.56784C77.6649 10.4198 77.4969 11.5898 77.4969 13.0778C77.4969 14.5538 77.6589 15.7238 77.9829 16.5878C78.3069 17.4398 78.7449 18.0518 79.2969 18.4238C79.8609 18.7838 80.4909 18.9638 81.1869 18.9638C81.5709 18.9638 81.8769 18.9398 82.1049 18.8918C82.3329 18.8318 82.5609 18.7478 82.7889 18.6398C83.0169 18.5438 83.1909 18.4058 83.3109 18.2258C83.4309 18.0338 83.5389 17.8298 83.6349 17.6138L84.4269 15.8498H84.6069L84.5529 18.4238C84.0489 18.6878 83.4849 18.9038 82.8609 19.0718C82.2369 19.2398 81.5529 19.3238 80.8089 19.3238Z" fill="#0F264C"/>
<path d="M85.4806 18.9998V18.8198L85.6966 18.7478C86.1286 18.6038 86.3446 18.3038 86.3446 17.8478V8.23584C86.3446 7.98384 86.3026 7.79784 86.2186 7.67784C86.1346 7.55784 85.9726 7.46784 85.7326 7.40784L85.4626 7.33584V7.15584L88.6306 6.38184L88.9186 6.54384L88.8466 9.08184V11.3318C89.2666 10.9838 89.7166 10.6898 90.1966 10.4498C90.6886 10.1978 91.2286 10.0718 91.8166 10.0718C92.5966 10.0718 93.2146 10.2938 93.6706 10.7378C94.1386 11.1818 94.3726 11.8658 94.3726 12.7898V17.8658C94.3726 18.1058 94.4206 18.2978 94.5166 18.4418C94.6126 18.5858 94.7806 18.6938 95.0206 18.7658L95.1646 18.8198V18.9998H90.9526V18.8198L91.1686 18.7658C91.6006 18.6218 91.8166 18.3158 91.8166 17.8478V12.1958C91.8166 11.7158 91.7326 11.3858 91.5646 11.2058C91.4086 11.0258 91.1266 10.9358 90.7186 10.9358C90.4546 10.9358 90.1666 10.9898 89.8546 11.0978C89.5426 11.1938 89.2246 11.3678 88.9006 11.6198V17.8838C88.9006 18.3518 89.1166 18.6518 89.5486 18.7838L89.6926 18.8198V18.9998H85.4806Z" fill="#0F264C"/>
<path d="M98.028 9.13584C97.62 9.13584 97.272 9.00984 96.984 8.75784C96.708 8.49384 96.57 8.16384 96.57 7.76784C96.57 7.35984 96.708 7.02984 96.984 6.77784C97.272 6.52584 97.62 6.39984 98.028 6.39984C98.436 6.39984 98.778 6.52584 99.054 6.77784C99.33 7.02984 99.468 7.35984 99.468 7.76784C99.468 8.16384 99.33 8.49384 99.054 8.75784C98.778 9.00984 98.436 9.13584 98.028 9.13584ZM95.904 18.9998V18.8198L96.156 18.7478C96.396 18.6758 96.558 18.5678 96.642 18.4238C96.738 18.2798 96.786 18.0878 96.786 17.8478V12.2138C96.786 11.9618 96.738 11.7758 96.642 11.6558C96.558 11.5238 96.396 11.4338 96.156 11.3858L95.904 11.3318V11.1518L99.198 10.0898L99.378 10.2698L99.324 12.8258V17.8658C99.324 18.1058 99.366 18.2978 99.45 18.4418C99.546 18.5858 99.708 18.6938 99.936 18.7658L100.116 18.8198V18.9998H95.904Z" fill="#0F264C"/>
<path d="M100.913 18.9998V18.8198L101.165 18.7478C101.585 18.6278 101.795 18.3338 101.795 17.8658V12.2318C101.795 11.9678 101.753 11.7758 101.669 11.6558C101.585 11.5238 101.423 11.4338 101.183 11.3858L100.913 11.3138V11.1338L103.991 10.0898L104.171 10.2698L104.315 11.3498C104.735 10.9778 105.209 10.6718 105.737 10.4318C106.265 10.1918 106.787 10.0718 107.303 10.0718C108.095 10.0718 108.701 10.2878 109.121 10.7198C109.553 11.1518 109.769 11.8118 109.769 12.6998V17.8838C109.769 18.3518 109.997 18.6458 110.453 18.7658L110.615 18.8198V18.9998H106.367V18.8198L106.601 18.7478C107.021 18.6158 107.231 18.3218 107.231 17.8658V12.1238C107.231 11.3558 106.847 10.9718 106.079 10.9718C105.551 10.9718 104.975 11.2358 104.351 11.7638V17.8838C104.351 18.3518 104.561 18.6458 104.981 18.7658L105.143 18.8198V18.9998H100.913Z" fill="#0F264C"/>
<path d="M113.842 19.2698C113.146 19.2698 112.558 19.0718 112.078 18.6758C111.61 18.2798 111.376 17.7098 111.376 16.9658C111.376 16.4018 111.664 15.8858 112.24 15.4178C112.816 14.9378 113.722 14.5778 114.958 14.3378C115.15 14.3018 115.366 14.2658 115.606 14.2298C115.846 14.1818 116.098 14.1338 116.362 14.0858V12.6638C116.362 11.8478 116.26 11.2778 116.056 10.9538C115.864 10.6178 115.558 10.4498 115.138 10.4498C114.85 10.4498 114.622 10.5458 114.454 10.7378C114.286 10.9178 114.178 11.2358 114.13 11.6918L114.094 11.8898C114.07 12.4058 113.944 12.7838 113.716 13.0238C113.488 13.2638 113.206 13.3838 112.87 13.3838C112.558 13.3838 112.3 13.2878 112.096 13.0958C111.892 12.9038 111.79 12.6458 111.79 12.3218C111.79 11.8298 111.958 11.4158 112.294 11.0798C112.642 10.7438 113.098 10.4918 113.662 10.3238C114.226 10.1558 114.838 10.0718 115.498 10.0718C116.566 10.0718 117.388 10.3358 117.964 10.8638C118.552 11.3798 118.846 12.2258 118.846 13.4018V17.3798C118.846 17.9198 119.098 18.1898 119.602 18.1898H119.998L120.16 18.3338C119.932 18.6218 119.68 18.8438 119.404 18.9998C119.14 19.1558 118.762 19.2338 118.27 19.2338C117.742 19.2338 117.322 19.1138 117.01 18.8738C116.71 18.6218 116.512 18.2918 116.416 17.8838C116.056 18.2678 115.684 18.5978 115.3 18.8738C114.928 19.1378 114.442 19.2698 113.842 19.2698ZM114.94 18.1718C115.18 18.1718 115.402 18.1178 115.606 18.0098C115.822 17.8898 116.074 17.7098 116.362 17.4698V14.4458C116.242 14.4698 116.122 14.4938 116.002 14.5178C115.882 14.5418 115.744 14.5658 115.588 14.5898C115.036 14.7338 114.592 14.9798 114.256 15.3278C113.932 15.6638 113.77 16.1198 113.77 16.6958C113.77 17.1878 113.884 17.5598 114.112 17.8118C114.34 18.0518 114.616 18.1718 114.94 18.1718Z" fill="#0F264C"/>
<path d="M11.379 15.2454L18.2328 5.3584V24.9984H16.6951V10.2191L12.9167 15.6696V24.9545H11.379V15.2454Z" fill="#0F264C"/>
<path d="M6.85378 15.2466L0 5.35966V24.9997H1.53771V10.2203L5.31607 15.6708V24.9557H6.85378V15.2466Z" fill="#0F264C"/>
<path d="M0.168945 0L8.1557 11.5559L8.15726 11.5548L9.10189 12.9038L10.0353 11.5708L18.0318 0H16.1626L9.1004 10.2182L2.03818 0H0.168945Z" fill="#F26641"/>
<path d="M7.41071 0H5.54148L8.16243 3.79219L8.16399 3.7911L9.10862 5.14016L10.042 3.80716L12.6728 0H10.8035L9.10712 2.45451L7.41071 0Z" fill="#F26641"/>
</svg>
