<svg width="121" height="25" viewBox="0 0 121 25" fill="none" xmlns="http://www.w3.org/2000/svg">
<path d="M38.112 19.054L34.26 8.326C34.176 8.086 34.062 7.9 33.918 7.768C33.786 7.624 33.6 7.516 33.36 7.444L32.928 7.3V7.12H38.112V7.3L37.554 7.462C37.278 7.534 37.122 7.66 37.086 7.84C37.062 8.02 37.092 8.242 37.176 8.506L39.84 16.408L42.522 8.488C42.618 8.212 42.66 7.984 42.648 7.804C42.648 7.624 42.51 7.498 42.234 7.426L41.766 7.3V7.12H44.286V7.3L43.8 7.444C43.572 7.504 43.41 7.612 43.314 7.768C43.218 7.912 43.128 8.104 43.044 8.344L39.444 19.054H38.112ZM47.2478 19.27C46.4558 19.27 45.7778 19.126 45.2138 18.838C44.6618 18.538 44.2418 18.148 43.9538 17.668C43.6658 17.188 43.5218 16.654 43.5218 16.066C43.5218 14.614 44.4578 13.498 46.3298 12.718C45.9938 12.262 45.6938 11.8 45.4298 11.332C45.1778 10.864 45.0518 10.318 45.0518 9.694C45.0518 8.842 45.3518 8.164 45.9518 7.66C46.5638 7.144 47.3618 6.886 48.3458 6.886C49.3058 6.886 50.0498 7.102 50.5778 7.534C51.1058 7.954 51.3698 8.512 51.3698 9.208C51.3698 9.796 51.1298 10.312 50.6498 10.756C50.1698 11.2 49.4858 11.608 48.5978 11.98C48.8258 12.232 49.0598 12.502 49.2998 12.79C49.5518 13.066 49.8098 13.342 50.0738 13.618C50.3978 13.978 50.7098 14.32 51.0098 14.644C51.3218 14.968 51.6338 15.304 51.9458 15.652C52.2338 15.256 52.5038 14.776 52.7558 14.212C53.0078 13.648 53.2058 13.054 53.3498 12.43C53.4458 11.974 53.2718 11.68 52.8278 11.548L52.7018 11.494V11.314H54.7358V11.494L54.5738 11.548C54.1778 11.68 53.9198 11.956 53.7998 12.376C53.6198 13.048 53.3978 13.684 53.1338 14.284C52.8698 14.884 52.5638 15.43 52.2158 15.922L54.1418 17.956C54.2978 18.124 54.4538 18.262 54.6098 18.37C54.7658 18.478 54.9398 18.586 55.1318 18.694L55.3838 18.82V19H51.7478L50.5418 17.704C50.3138 17.956 50.0558 18.202 49.7678 18.442C49.4798 18.682 49.1318 18.88 48.7238 19.036C48.3158 19.192 47.8238 19.27 47.2478 19.27ZM48.3818 11.746C48.8498 11.326 49.1858 10.906 49.3898 10.486C49.6058 10.054 49.7138 9.58 49.7138 9.064C49.7138 8.596 49.5938 8.218 49.3538 7.93C49.1138 7.63 48.7838 7.48 48.3638 7.48C47.9678 7.48 47.6378 7.624 47.3738 7.912C47.1098 8.2 46.9778 8.566 46.9778 9.01C46.9778 9.286 47.0258 9.574 47.1218 9.874C47.2298 10.174 47.4158 10.516 47.6798 10.9C47.7518 10.996 47.8478 11.11 47.9678 11.242C48.0878 11.374 48.2258 11.542 48.3818 11.746ZM48.2918 18.064C48.7118 18.064 49.0898 18.004 49.4258 17.884C49.7618 17.752 50.0498 17.59 50.2898 17.398C50.0018 17.074 49.7018 16.738 49.3898 16.39C49.0778 16.03 48.7838 15.688 48.5078 15.364C48.1718 14.968 47.8418 14.572 47.5178 14.176C47.2058 13.78 46.8938 13.396 46.5818 13.024C46.2698 13.312 46.0418 13.648 45.8978 14.032C45.7538 14.416 45.6818 14.818 45.6818 15.238C45.6818 16.054 45.9218 16.732 46.4018 17.272C46.8938 17.8 47.5238 18.064 48.2918 18.064ZM56.4225 19V18.82L56.7825 18.694C57.1905 18.562 57.3945 18.22 57.3945 17.668V8.452C57.3945 8.212 57.3645 8.02 57.3045 7.876C57.2565 7.732 57.1185 7.612 56.8905 7.516L56.4225 7.3V7.12H59.8965L63.2265 15.832L66.3585 7.12H69.9045V7.3L69.6165 7.408C69.3885 7.492 69.2325 7.612 69.1485 7.768C69.0645 7.912 69.0225 8.104 69.0225 8.344V17.758C69.0225 17.998 69.0525 18.184 69.1125 18.316C69.1725 18.448 69.3165 18.562 69.5445 18.658L69.9045 18.82V19H65.4225V18.82L65.8005 18.658C66.0285 18.562 66.1725 18.448 66.2325 18.316C66.2925 18.184 66.3225 17.998 66.3225 17.758V13.708L66.3585 8.56L62.5965 19H61.6965L57.7725 8.686L57.8265 13.168V17.704C57.8265 17.968 57.8625 18.184 57.9345 18.352C58.0185 18.508 58.1745 18.622 58.4025 18.694L58.7985 18.82V19H56.4225ZM80.8087 19.324C79.6447 19.324 78.5887 19.09 77.6407 18.622C76.7047 18.142 75.9607 17.434 75.4087 16.498C74.8567 15.562 74.5807 14.416 74.5807 13.06C74.5807 12.028 74.7487 11.122 75.0847 10.342C75.4207 9.562 75.8767 8.908 76.4527 8.38C77.0407 7.852 77.7127 7.456 78.4687 7.192C79.2367 6.928 80.0467 6.796 80.8987 6.796C81.5827 6.796 82.2127 6.874 82.7887 7.03C83.3647 7.186 83.9047 7.402 84.4087 7.678L84.4807 9.892H84.3007L83.4007 8.452C83.2807 8.224 83.1487 8.02 83.0047 7.84C82.8607 7.648 82.6807 7.504 82.4647 7.408C82.2847 7.324 82.1047 7.264 81.9247 7.228C81.7567 7.18 81.5407 7.156 81.2767 7.156C80.5807 7.156 79.9447 7.342 79.3687 7.714C78.8047 8.086 78.3487 8.704 78.0007 9.568C77.6647 10.42 77.4967 11.59 77.4967 13.078C77.4967 14.554 77.6587 15.724 77.9827 16.588C78.3067 17.44 78.7447 18.052 79.2967 18.424C79.8607 18.784 80.4907 18.964 81.1867 18.964C81.5707 18.964 81.8767 18.94 82.1047 18.892C82.3327 18.832 82.5607 18.748 82.7887 18.64C83.0167 18.544 83.1907 18.406 83.3107 18.226C83.4307 18.034 83.5387 17.83 83.6347 17.614L84.4267 15.85H84.6067L84.5527 18.424C84.0487 18.688 83.4847 18.904 82.8607 19.072C82.2367 19.24 81.5527 19.324 80.8087 19.324ZM85.4804 19V18.82L85.6964 18.748C86.1284 18.604 86.3444 18.304 86.3444 17.848V8.236C86.3444 7.984 86.3024 7.798 86.2184 7.678C86.1344 7.558 85.9724 7.468 85.7324 7.408L85.4624 7.336V7.156L88.6304 6.382L88.9184 6.544L88.8464 9.082V11.332C89.2664 10.984 89.7164 10.69 90.1964 10.45C90.6884 10.198 91.2284 10.072 91.8164 10.072C92.5964 10.072 93.2144 10.294 93.6704 10.738C94.1384 11.182 94.3724 11.866 94.3724 12.79V17.866C94.3724 18.106 94.4204 18.298 94.5164 18.442C94.6124 18.586 94.7804 18.694 95.0204 18.766L95.1644 18.82V19H90.9524V18.82L91.1684 18.766C91.6004 18.622 91.8164 18.316 91.8164 17.848V12.196C91.8164 11.716 91.7324 11.386 91.5644 11.206C91.4084 11.026 91.1264 10.936 90.7184 10.936C90.4544 10.936 90.1664 10.99 89.8544 11.098C89.5424 11.194 89.2244 11.368 88.9004 11.62V17.884C88.9004 18.352 89.1164 18.652 89.5484 18.784L89.6924 18.82V19H85.4804ZM98.0278 9.136C97.6198 9.136 97.2718 9.01 96.9838 8.758C96.7078 8.494 96.5698 8.164 96.5698 7.768C96.5698 7.36 96.7078 7.03 96.9838 6.778C97.2718 6.526 97.6198 6.4 98.0278 6.4C98.4358 6.4 98.7778 6.526 99.0538 6.778C99.3298 7.03 99.4678 7.36 99.4678 7.768C99.4678 8.164 99.3298 8.494 99.0538 8.758C98.7778 9.01 98.4358 9.136 98.0278 9.136ZM95.9038 19V18.82L96.1558 18.748C96.3958 18.676 96.5578 18.568 96.6418 18.424C96.7378 18.28 96.7858 18.088 96.7858 17.848V12.214C96.7858 11.962 96.7378 11.776 96.6418 11.656C96.5578 11.524 96.3958 11.434 96.1558 11.386L95.9038 11.332V11.152L99.1978 10.09L99.3778 10.27L99.3238 12.826V17.866C99.3238 18.106 99.3658 18.298 99.4498 18.442C99.5458 18.586 99.7078 18.694 99.9358 18.766L100.116 18.82V19H95.9038ZM100.913 19V18.82L101.165 18.748C101.585 18.628 101.795 18.334 101.795 17.866V12.232C101.795 11.968 101.753 11.776 101.669 11.656C101.585 11.524 101.423 11.434 101.183 11.386L100.913 11.314V11.134L103.991 10.09L104.171 10.27L104.315 11.35C104.735 10.978 105.209 10.672 105.737 10.432C106.265 10.192 106.787 10.072 107.303 10.072C108.095 10.072 108.701 10.288 109.121 10.72C109.553 11.152 109.769 11.812 109.769 12.7V17.884C109.769 18.352 109.997 18.646 110.453 18.766L110.615 18.82V19H106.367V18.82L106.601 18.748C107.021 18.616 107.231 18.322 107.231 17.866V12.124C107.231 11.356 106.847 10.972 106.079 10.972C105.551 10.972 104.975 11.236 104.351 11.764V17.884C104.351 18.352 104.561 18.646 104.981 18.766L105.143 18.82V19H100.913ZM113.842 19.27C113.146 19.27 112.558 19.072 112.078 18.676C111.61 18.28 111.376 17.71 111.376 16.966C111.376 16.402 111.664 15.886 112.24 15.418C112.816 14.938 113.722 14.578 114.958 14.338C115.15 14.302 115.366 14.266 115.606 14.23C115.846 14.182 116.098 14.134 116.362 14.086V12.664C116.362 11.848 116.26 11.278 116.056 10.954C115.864 10.618 115.558 10.45 115.138 10.45C114.85 10.45 114.622 10.546 114.454 10.738C114.286 10.918 114.178 11.236 114.13 11.692L114.094 11.89C114.07 12.406 113.944 12.784 113.716 13.024C113.488 13.264 113.206 13.384 112.87 13.384C112.558 13.384 112.3 13.288 112.096 13.096C111.892 12.904 111.79 12.646 111.79 12.322C111.79 11.83 111.958 11.416 112.294 11.08C112.642 10.744 113.098 10.492 113.662 10.324C114.226 10.156 114.838 10.072 115.498 10.072C116.566 10.072 117.388 10.336 117.964 10.864C118.552 11.38 118.846 12.226 118.846 13.402V17.38C118.846 17.92 119.098 18.19 119.602 18.19H119.998L120.16 18.334C119.932 18.622 119.68 18.844 119.404 19C119.14 19.156 118.762 19.234 118.27 19.234C117.742 19.234 117.322 19.114 117.01 18.874C116.71 18.622 116.512 18.292 116.416 17.884C116.056 18.268 115.684 18.598 115.3 18.874C114.928 19.138 114.442 19.27 113.842 19.27ZM114.94 18.172C115.18 18.172 115.402 18.118 115.606 18.01C115.822 17.89 116.074 17.71 116.362 17.47V14.446C116.242 14.47 116.122 14.494 116.002 14.518C115.882 14.542 115.744 14.566 115.588 14.59C115.036 14.734 114.592 14.98 114.256 15.328C113.932 15.664 113.77 16.12 113.77 16.696C113.77 17.188 113.884 17.56 114.112 17.812C114.34 18.052 114.616 18.172 114.94 18.172Z" fill="#0F264C"/>
<path d="M11.379 15.2454L18.2328 5.3584V24.9984H16.6951V10.2191L12.9167 15.6696V24.9545H11.379V15.2454Z" fill="#0F264C"/>
<path d="M6.85378 15.2466L0 5.35966V24.9997H1.53771V10.2203L5.31607 15.6708V24.9557H6.85378V15.2466Z" fill="#0F264C"/>
<g opacity="0.4">
<path d="M0.168945 0L8.1557 11.5559L8.15726 11.5548L9.10189 12.9038L10.0353 11.5708L10.035 11.5705L18.0318 0H16.1626L9.1004 10.2182L2.03818 0H0.168945Z" fill="#0F264C"/>
<path d="M7.41071 0H5.54148L8.16243 3.79219L8.16399 3.7911L9.10862 5.14016L10.042 3.80716L10.0417 3.80678L12.6728 0H10.8035L9.10712 2.45451L7.41071 0Z" fill="#0F264C"/>
</g>
</svg>
