<svg width="66" height="101" viewBox="0 0 66 101" fill="none" xmlns="http://www.w3.org/2000/svg">
<path d="M32.9378 100.945C32.9378 100.963 32.9744 101 32.9744 101C32.9744 101 65.0879 51.501 65.0879 35.2344C65.0879 11.2946 48.8112 0.879576 32.9378 0.842773C17.0643 0.879576 0.787598 11.2946 0.787598 35.2344C0.787598 51.501 32.9194 101 32.9194 101L32.9378 100.945ZM21.8117 33.8728C21.8117 27.69 26.7973 22.6849 32.9561 22.6849C39.1148 22.6849 44.1005 27.69 44.1005 33.8728C44.1005 40.0555 39.0965 45.0606 32.9378 45.0606C26.7973 45.0606 21.8117 40.0555 21.8117 33.8728Z" fill="#0F264C"/>
<circle cx="32.994" cy="31.994" r="19.994" fill="#FAFAFA"/>
<path d="M35.379 35.2454L42.2328 25.3584V44.9984H40.6951V30.2191L36.9167 35.6696V44.9545H35.379V35.2454Z" fill="#0F264C"/>
<path d="M30.8538 35.2466L24 25.3597V44.9997H25.5377V30.2203L29.3161 35.6708V44.9557H30.8538V35.2466Z" fill="#0F264C"/>
<g opacity="0.4">
<path d="M24.1689 20L32.1557 31.5559L32.1573 31.5548L33.1019 32.9038L34.0353 31.5708L34.035 31.5705L42.0318 20H40.1626L33.1004 30.2182L26.0382 20H24.1689Z" fill="#0F264C"/>
<path d="M31.4107 20H29.5415L32.1624 23.7922L32.164 23.7911L33.1086 25.1402L34.042 23.8072L34.0417 23.8068L36.6728 20H34.8035L33.1071 22.4545L31.4107 20Z" fill="#0F264C"/>
</g>
</svg>
