<svg width="644" height="425" viewBox="0 0 644 425" fill="none" xmlns="http://www.w3.org/2000/svg">
<mask id="mask0_28:1160" style="mask-type:alpha" maskUnits="userSpaceOnUse" x="0" y="0" width="644" height="425">
<path d="M569.899 188.517C624.007 265.425 627.093 405.052 536.875 410.779C403.098 419.27 481.727 330.848 155.909 335.045C-45.9528 337.645 -2.95873 151.228 121.979 62.1848C246.917 -26.8582 502.263 92.3832 569.899 188.517Z" fill="#FCDDD4"/>
</mask>
<g mask="url(#mask0_28:1160)">
<path opacity="0.7" d="M-12.7532 133.608C13.1272 178.163 85.8099 268.346 169.497 272.638C274.107 278.003 105.9 62.1861 198.717 75.9767C291.534 89.7674 301.336 325.303 368.37 335.263C435.405 345.223 318.752 154.876 395.001 156.027C471.25 157.179 496.14 415.311 578.274 430.059C660.408 444.806 523.522 213.288 657.59 233.208" stroke="url(#paint0_linear_28:1160)" stroke-width="2"/>
</g>
<path d="M482.628 205.267C481.759 205.954 480.755 206.45 479.681 206.721C478.607 206.993 477.487 207.034 476.396 206.842C476.396 206.842 269.842 162.997 178.099 149.377C153.301 145.69 112.669 139.591 92.0121 145.639C78.8826 149.474 48.516 162.565 46.5801 176.039C45.4461 184 59.7836 205.777 88.2005 216.682C125.497 230.97 286.192 271.7 421.114 278.276C516.044 282.903 581.857 262.659 584.237 250.353C586.159 240.439 558.299 230.278 558.299 230.278L608.906 132.662C609.215 132.045 609.375 131.363 609.371 130.672C609.368 129.981 609.202 129.3 608.886 128.685C608.571 128.071 608.115 127.539 607.556 127.133C606.996 126.727 606.349 126.459 605.667 126.349L597.387 125.007C595.475 124.71 593.523 124.796 591.644 125.26C589.766 125.724 587.998 126.557 586.445 127.711L482.628 205.267Z" fill="#EBF8FF"/>
<path opacity="0.1" d="M213.061 200.169L274.757 261.093C274.757 261.093 316.101 268.204 335.427 270.321L334.432 226.278L213.061 200.169Z" fill="#020202"/>
<path d="M170.182 157.521L560.413 230.456C566.42 232.835 586.263 241.406 584.633 249.823C584.056 252.911 579.874 256.593 571.828 260.169L156.893 182.616L170.182 157.521Z" fill="#B3E3E8"/>
<path d="M68.626 177.283C69.2953 173.936 69.0538 170.47 67.9267 167.248C66.7996 164.026 64.8282 161.164 62.2182 158.963L62.9412 158.516C65.5948 160.826 67.5901 163.796 68.7246 167.126C69.8591 170.455 70.0925 174.025 69.4011 177.474C68.7746 181.271 67.036 184.798 64.4052 187.608C61.7743 190.418 58.3693 192.385 54.6202 193.261L54.0433 192.559C61.1839 191.257 67.119 185.346 68.626 177.283Z" fill="#DCE5EA"/>
<path opacity="0.1" d="M581.387 242.504C554.759 252.15 503.051 261.264 437.903 258.094C302.993 251.519 142.246 210.825 105.003 196.49C70.3595 182.55 58.049 172.167 56.3717 162.995C51.0408 167.079 47.212 171.557 46.6074 176.136C45.55 184.054 59.9979 206.035 88.4492 216.877C125.915 231.117 286.441 271.895 421.349 278.481C468.301 280.761 507.589 276.757 535.975 270.967C565.113 264.998 582.367 256.933 584.475 250.547C585.465 247.57 583.808 244.886 581.387 242.504Z" fill="#020202"/>
<path d="M450.593 248.856L416.059 241.534L386.583 239.05L420.516 250.129L450.593 248.856Z" fill="url(#paint1_linear_28:1160)"/>
<g style="mix-blend-mode:screen" opacity="0.5">
<path style="mix-blend-mode:screen" opacity="0.5" d="M427.126 256.251C423.16 253.033 412.874 246.236 393.761 243.166C385.85 241.87 376.351 242.469 368.691 242.886C367.122 242.97 365.689 243.672 365.425 245.084L364.203 251.625C364.467 250.213 365.9 249.511 367.469 249.427C375.186 249.009 384.683 248.421 392.541 249.696C411.643 252.821 421.94 259.619 425.906 262.781C426.513 263.283 426.973 263.94 427.237 264.683C427.5 265.426 427.557 266.226 427.401 266.998L428.621 260.469C428.78 259.696 428.724 258.895 428.461 258.152C428.197 257.409 427.736 256.751 427.126 256.251Z" fill="url(#paint2_linear_28:1160)"/>
</g>
<path d="M496.647 225.638L497.582 225.95L565.187 248.049L581.2 251.144C581.697 251.237 580.967 252.391 580.487 252.335C575.311 251.619 575.47 251.5 564.904 249.56C560.943 248.82 496.013 228.419 495.59 226.891C495.168 225.362 496.647 225.638 496.647 225.638Z" fill="#C5CFD1"/>
<path d="M559.169 238.454C559.788 238.568 560.38 238.795 560.917 239.123L581.201 251.019C581.26 251.049 581.305 251.099 581.33 251.161C581.354 251.222 581.354 251.29 581.331 251.352C581.309 251.414 581.264 251.465 581.206 251.497C581.147 251.528 581.08 251.536 581.015 251.521C581.015 251.521 570.792 249.462 567.475 248.636C554.641 245.45 517.196 232.995 517.196 232.995L497.59 225.906L559.169 238.454Z" fill="white"/>
<path d="M400.219 272.214C400.08 272.824 399.728 273.365 399.227 273.739C398.727 274.114 398.109 274.299 397.484 274.26L385.645 272.047L387.618 261.492L399.418 263.914C400.017 264.102 400.529 264.499 400.861 265.032C401.193 265.565 401.323 266.2 401.227 266.821L400.219 272.214Z" fill="#ABABAB"/>
<path d="M329.564 239.797L322.502 238.477L316.666 269.702L323.727 271.022L329.564 239.797Z" fill="url(#paint3_linear_28:1160)"/>
<path d="M307.931 265.912C307.836 266.535 307.954 267.172 308.266 267.719C308.579 268.267 309.067 268.693 309.652 268.928L315.209 271.268C315.451 271.377 315.714 271.432 315.98 271.428C316.245 271.425 316.507 271.364 316.746 271.248C316.985 271.133 317.197 270.967 317.365 270.761C317.533 270.556 317.654 270.316 317.719 270.059L323.751 237.786C323.783 237.522 323.756 237.254 323.674 237.002C323.592 236.749 323.455 236.517 323.274 236.323C323.093 236.128 322.872 235.975 322.626 235.875C322.38 235.774 322.115 235.728 321.849 235.741L315.82 235.926C315.191 235.932 314.582 236.151 314.094 236.547C313.605 236.943 313.265 237.492 313.128 238.106L307.931 265.912Z" fill="#E9EAEA"/>
<path d="M371.517 276.518L379.804 278.067C381.056 278.301 382.35 278.028 383.401 277.308C384.452 276.588 385.174 275.481 385.408 274.229L388.33 258.599C388.564 257.347 388.29 256.054 387.57 255.003C386.85 253.952 385.742 253.23 384.489 252.996L376.203 251.447L371.517 276.518Z" fill="#BCBCBC"/>
<path d="M373.567 245.145C370.642 243.298 367.393 242.02 363.993 241.38L332.106 235.42C330.665 235.151 329.176 235.464 327.966 236.291C326.756 237.118 325.924 238.391 325.652 239.83L320.11 269.479C319.844 270.919 320.161 272.407 320.99 273.615C321.82 274.823 323.095 275.653 324.536 275.922L356.423 281.882C359.826 282.515 363.318 282.494 366.712 281.819C368.224 281.518 369.611 280.775 370.698 279.683C371.785 278.591 372.522 277.2 372.814 275.688L377.032 253.121C377.317 251.597 377.139 250.024 376.521 248.602C375.903 247.181 374.875 245.977 373.567 245.145Z" fill="#CCCED0"/>
<path d="M454.248 284.344C454.088 285.057 453.677 285.689 453.091 286.126C452.504 286.563 451.781 286.776 451.051 286.726L437.226 284.142L439.531 271.811L453.309 274.648C454.007 274.868 454.605 275.33 454.993 275.951C455.382 276.572 455.536 277.311 455.428 278.035L454.248 284.344Z" fill="#ABABAB"/>
<path d="M371.72 246.477L363.478 244.937L356.66 281.412L364.902 282.953L371.72 246.477Z" fill="url(#paint4_linear_28:1160)"/>
<path d="M346.457 276.983C346.346 277.716 346.488 278.466 346.86 279.108C347.232 279.75 347.811 280.247 348.503 280.516L355.015 283.251C355.299 283.386 355.61 283.456 355.924 283.456C356.239 283.456 356.55 283.386 356.834 283.251C357.118 283.116 357.369 282.92 357.568 282.676C357.767 282.433 357.909 282.148 357.984 281.843L365.031 244.143C365.069 243.83 365.038 243.512 364.939 243.213C364.84 242.914 364.677 242.64 364.459 242.412C364.242 242.184 363.977 242.006 363.683 241.893C363.389 241.779 363.074 241.732 362.759 241.755L355.708 241.966C354.967 241.965 354.248 242.217 353.67 242.679C353.091 243.142 352.688 243.788 352.526 244.511L346.457 276.983Z" fill="#E9EAEA"/>
<path d="M420.697 289.363L430.374 291.171C431.837 291.445 433.349 291.126 434.577 290.285C435.805 289.444 436.648 288.15 436.921 286.688L440.333 268.433C440.606 266.971 440.287 265.459 439.446 264.232C438.605 263.004 437.31 262.161 435.847 261.887L426.17 260.079L420.697 289.363Z" fill="#BCBCBC"/>
<path d="M423.114 252.727C419.691 250.568 415.888 249.083 411.908 248.349L374.658 241.387C372.975 241.073 371.237 241.439 369.825 242.406C368.412 243.373 367.442 244.861 367.128 246.543L360.655 281.177C360.341 282.859 360.708 284.597 361.675 286.009C362.643 287.421 364.131 288.391 365.814 288.705L403.064 295.667C407.04 296.421 411.123 296.409 415.095 295.633C416.869 295.279 418.497 294.403 419.769 293.117C421.041 291.831 421.899 290.194 422.233 288.417L427.164 262.034C427.494 260.256 427.285 258.419 426.564 256.761C425.842 255.102 424.641 253.697 423.114 252.727Z" fill="#CCCED0"/>
<path opacity="0.1" d="M312.59 240.985C312.59 240.985 407.33 275.529 453.354 285.889C453.763 285.587 454.057 285.155 454.189 284.664L455.205 279.226L317.946 235.422C316.711 235.589 315.501 235.907 314.343 236.369C314.028 236.554 313.755 236.802 313.542 237.099C313.33 237.395 313.182 237.733 313.108 238.091C313.108 238.091 312.847 239.366 312.59 240.985Z" fill="#020202"/>
<path d="M217.23 195.092L220.942 196.311L491.221 284.908L556.018 297.532C555.969 298.345 555.578 300.372 555.278 300.328C537.684 298.42 495.404 292.892 490.003 291.484C475.847 287.799 215.434 205.92 212.991 200.053C210.548 194.186 217.23 195.092 217.23 195.092Z" fill="#C5CFD1"/>
<path d="M467.373 246.319C469.835 246.826 472.196 247.734 474.362 249.007L555.48 296.621C555.591 296.642 556.336 297.295 556.003 297.735C556.003 297.735 555.877 298.042 554.634 297.913C551.014 297.545 503.477 291.183 490.71 288.009C439.423 275.261 299.46 224.536 299.46 224.536L217.285 195.103L467.373 246.319Z" fill="white"/>
<path d="M168.029 176.25L169.956 165.937C170.153 164.901 170.753 163.986 171.624 163.391C172.495 162.796 173.566 162.571 174.603 162.765L179.017 163.59C180.051 163.786 180.966 164.384 181.561 165.252C182.156 166.121 182.383 167.189 182.193 168.224L180.265 178.537C180.082 179.57 179.498 180.488 178.641 181.093C177.784 181.698 176.723 181.941 175.688 181.768L171.274 180.943C170.75 180.854 170.248 180.662 169.8 180.376C169.351 180.091 168.964 179.718 168.662 179.281C168.359 178.843 168.147 178.35 168.039 177.829C167.93 177.309 167.927 176.772 168.029 176.25ZM174.492 163.36C173.614 163.196 172.707 163.388 171.97 163.892C171.233 164.397 170.727 165.173 170.563 166.051L168.636 176.364C168.472 177.241 168.663 178.148 169.168 178.885C169.673 179.621 170.45 180.127 171.327 180.291L175.741 181.116C176.619 181.28 177.526 181.089 178.263 180.584C178.999 180.08 179.505 179.303 179.669 178.426L181.597 168.113C181.761 167.235 181.57 166.329 181.065 165.592C180.56 164.855 179.783 164.349 178.905 164.185L174.492 163.36Z" fill="#E1F7FF"/>
<path d="M88.0217 152.142C88.4002 152.211 88.7613 152.354 89.0845 152.563C89.4076 152.772 89.6865 153.042 89.9052 153.359C90.1238 153.675 90.278 154.032 90.3589 154.408C90.4398 154.784 90.4458 155.172 90.3766 155.55L89.5334 160.061C89.3712 160.921 88.967 161.717 88.3684 162.355C87.7698 162.993 87.0015 163.448 86.1536 163.665L82.3749 164.636C81.5321 164.85 80.6616 164.933 79.7935 164.885L84.6585 151.502L88.0217 152.142Z" fill="#6D7485"/>
<path d="M78.7692 150.447L84.0764 151.439L79.2342 164.883C78.4055 164.793 77.5948 164.58 76.8288 164.251L65.2091 159.214C64.618 158.957 64.107 158.546 63.73 158.024C68.5572 155.145 73.5829 152.613 78.7692 150.447Z" fill="#6D7485"/>
<path d="M63.7954 157.979C66.5689 156.214 69.4833 154.796 72.4432 153.317L76.6555 164.138L65.2614 159.178C64.676 158.914 64.1704 158.5 63.7954 157.979Z" fill="#9096A3"/>
<path d="M403.392 216.748C403.253 217.477 402.83 218.121 402.217 218.539C401.604 218.957 400.85 219.115 400.12 218.979L397.858 218.556C397.129 218.42 396.485 218 396.066 217.388C395.647 216.777 395.488 216.024 395.624 215.296L396.29 211.733C396.426 211.005 396.846 210.36 397.458 209.942C398.069 209.523 398.822 209.364 399.551 209.5L401.813 209.923C402.542 210.059 403.188 210.479 403.609 211.091C404.03 211.702 404.191 212.455 404.058 213.185L403.392 216.748Z" fill="#6D7485"/>
<path d="M401.51 218.873C401.064 219.029 400.585 219.065 400.12 218.978L397.858 218.555C397.129 218.419 396.485 217.999 396.066 217.388C395.647 216.776 395.488 216.024 395.624 215.295L396.051 213.012L401.51 218.873Z" fill="#969DAA"/>
<path d="M392.535 214.718C392.396 215.447 391.973 216.091 391.36 216.509C390.747 216.927 389.993 217.086 389.263 216.949L387.001 216.527C386.274 216.388 385.631 215.967 385.213 215.356C384.794 214.746 384.634 213.995 384.767 213.267L385.433 209.704C385.572 208.977 385.992 208.334 386.603 207.916C387.214 207.498 387.965 207.338 388.694 207.471L390.956 207.894C391.685 208.03 392.331 208.45 392.752 209.061C393.173 209.673 393.334 210.426 393.201 211.156L392.535 214.718Z" fill="#6D7485"/>
<path d="M390.664 216.845C390.214 216.999 389.731 217.035 389.263 216.949L387.001 216.526C386.274 216.387 385.631 215.967 385.213 215.356C384.794 214.745 384.634 213.994 384.767 213.266L385.194 210.983L390.664 216.845Z" fill="#969DAA"/>
<path d="M380.109 205.867L377.836 205.442C376.318 205.158 374.859 206.158 374.575 207.675L373.909 211.237C373.626 212.754 374.626 214.214 376.143 214.497L378.416 214.922C379.934 215.206 381.393 214.206 381.677 212.689L382.343 209.126C382.626 207.61 381.626 206.15 380.109 205.867Z" fill="#6D7485"/>
<path d="M379.806 214.816C379.36 214.972 378.881 215.008 378.416 214.922L376.143 214.497C375.416 214.358 374.773 213.937 374.355 213.327C373.936 212.716 373.776 211.965 373.909 211.237L374.336 208.954L379.806 214.816Z" fill="#969DAA"/>
<path d="M369.263 203.839L366.99 203.414C365.473 203.131 364.013 204.13 363.729 205.647L363.063 209.21C362.78 210.727 363.78 212.186 365.298 212.47L367.571 212.895C369.088 213.178 370.548 212.179 370.831 210.662L371.497 207.099C371.781 205.582 370.78 204.123 369.263 203.839Z" fill="#6D7485"/>
<path d="M368.95 212.787C368.503 212.943 368.024 212.979 367.559 212.893L365.298 212.47C364.569 212.334 363.924 211.914 363.505 211.302C363.086 210.691 362.927 209.938 363.064 209.21L363.49 206.927L368.95 212.787Z" fill="#969DAA"/>
<path d="M359.974 208.632C359.835 209.361 359.412 210.005 358.799 210.423C358.186 210.841 357.432 211 356.702 210.863L354.495 210.451C353.767 210.315 353.122 209.895 352.703 209.283C352.284 208.672 352.125 207.919 352.261 207.191L352.927 203.628C353.063 202.9 353.483 202.255 354.095 201.837C354.706 201.418 355.459 201.259 356.188 201.395L358.395 201.808C359.124 201.944 359.77 202.364 360.191 202.975C360.612 203.587 360.773 204.34 360.64 205.07L359.974 208.632Z" fill="#6D7485"/>
<path d="M358.103 210.76C357.653 210.913 357.17 210.949 356.702 210.863L354.495 210.451C353.767 210.315 353.122 209.895 352.703 209.283C352.284 208.672 352.125 207.919 352.261 207.191L352.688 204.908L358.103 210.76Z" fill="#969DAA"/>
<path d="M349.117 206.603C348.978 207.33 348.557 207.973 347.947 208.391C347.336 208.809 346.585 208.969 345.856 208.836L343.583 208.411C342.856 208.272 342.213 207.852 341.795 207.241C341.376 206.631 341.216 205.879 341.349 205.151L342.015 201.589C342.154 200.862 342.575 200.219 343.185 199.801C343.796 199.383 344.547 199.223 345.276 199.356L347.549 199.781C348.276 199.92 348.919 200.34 349.337 200.951C349.756 201.561 349.916 202.312 349.783 203.041L349.117 206.603Z" fill="#6D7485"/>
<path d="M347.246 208.731C346.8 208.885 346.321 208.921 345.856 208.836L343.583 208.411C342.856 208.272 342.213 207.852 341.795 207.241C341.376 206.631 341.216 205.879 341.349 205.151L341.776 202.868L347.246 208.731Z" fill="#969DAA"/>
<path d="M338.27 204.576C338.131 205.305 337.708 205.949 337.095 206.367C336.482 206.785 335.728 206.944 334.998 206.807L332.737 206.384C332.376 206.317 332.032 206.179 331.724 205.979C331.417 205.779 331.152 205.52 330.944 205.217C330.737 204.914 330.591 204.574 330.515 204.215C330.439 203.856 330.435 203.485 330.502 203.124L331.168 199.562C331.236 199.201 331.374 198.857 331.574 198.55C331.774 198.243 332.033 197.978 332.336 197.77C332.639 197.563 332.979 197.417 333.339 197.341C333.698 197.266 334.068 197.261 334.429 197.329L336.691 197.752C337.421 197.888 338.067 198.308 338.487 198.919C338.908 199.531 339.069 200.284 338.936 201.014L338.27 204.576Z" fill="#6D7485"/>
<path d="M336.388 206.701C335.942 206.857 335.463 206.894 334.998 206.807L332.737 206.384C332.376 206.316 332.032 206.179 331.724 205.978C331.417 205.778 331.152 205.519 330.944 205.216C330.737 204.914 330.591 204.573 330.515 204.214C330.439 203.855 330.435 203.485 330.502 203.124L330.929 200.841L336.388 206.701Z" fill="#969DAA"/>
<path d="M327.413 202.547C327.274 203.276 326.852 203.92 326.238 204.338C325.625 204.756 324.871 204.914 324.142 204.778L321.88 204.355C321.151 204.219 320.506 203.799 320.087 203.188C319.668 202.576 319.509 201.824 319.646 201.095L320.311 197.533C320.448 196.804 320.868 196.16 321.479 195.741C322.091 195.322 322.843 195.163 323.572 195.3L325.834 195.722C326.564 195.859 327.21 196.279 327.63 196.89C328.051 197.501 328.213 198.254 328.079 198.984L327.413 202.547Z" fill="#6D7485"/>
<path d="M325.565 204.678C325.115 204.832 324.632 204.868 324.164 204.782L321.902 204.359C321.173 204.223 320.529 203.803 320.11 203.192C319.691 202.58 319.532 201.827 319.668 201.099L320.095 198.816L325.565 204.678Z" fill="#969DAA"/>
<path d="M314.988 193.695L312.715 193.27C311.197 192.987 309.737 193.986 309.454 195.503L308.788 199.066C308.505 200.583 309.505 202.042 311.022 202.326L313.295 202.751C314.812 203.034 316.272 202.035 316.556 200.518L317.222 196.955C317.505 195.438 316.505 193.979 314.988 193.695Z" fill="#6D7485"/>
<path d="M314.685 202.645C314.239 202.799 313.76 202.835 313.295 202.75L311.022 202.325C310.295 202.186 309.652 201.766 309.234 201.155C308.815 200.545 308.655 199.793 308.788 199.065L309.215 196.782L314.685 202.645Z" fill="#969DAA"/>
<path d="M304.142 191.668L301.869 191.243C300.352 190.959 298.892 191.959 298.608 193.476L297.942 197.039C297.659 198.555 298.659 200.015 300.176 200.298L302.449 200.723C303.967 201.007 305.427 200.007 305.71 198.49L306.376 194.928C306.66 193.411 305.659 191.951 304.142 191.668Z" fill="#6D7485"/>
<path d="M303.839 200.618C303.389 200.771 302.907 200.807 302.438 200.721L300.232 200.309C299.503 200.173 298.858 199.753 298.439 199.141C298.02 198.53 297.861 197.777 297.998 197.049L298.424 194.766L303.839 200.618Z" fill="#969DAA"/>
<path d="M294.853 196.461C294.714 197.188 294.293 197.831 293.682 198.249C293.072 198.667 292.32 198.827 291.592 198.694L289.319 198.269C288.59 198.133 287.946 197.713 287.527 197.102C287.108 196.49 286.949 195.738 287.085 195.009L287.751 191.447C287.887 190.718 288.307 190.074 288.919 189.655C289.53 189.236 290.283 189.078 291.012 189.214L293.285 189.639C294.012 189.777 294.655 190.198 295.073 190.809C295.492 191.419 295.652 192.17 295.519 192.898L294.853 196.461Z" fill="#6D7485"/>
<path d="M292.982 198.589C292.535 198.741 292.057 198.778 291.592 198.694L289.319 198.269C288.958 198.202 288.614 198.064 288.307 197.864C287.999 197.663 287.734 197.404 287.527 197.102C287.319 196.799 287.173 196.458 287.098 196.099C287.022 195.74 287.018 195.37 287.085 195.009L287.512 192.726L292.982 198.589Z" fill="#969DAA"/>
<path d="M283.996 194.432C283.857 195.159 283.436 195.802 282.826 196.22C282.215 196.638 281.463 196.798 280.735 196.665L278.462 196.24C277.735 196.101 277.092 195.681 276.674 195.07C276.255 194.46 276.095 193.708 276.228 192.98L276.894 189.418C277.033 188.691 277.453 188.048 278.064 187.63C278.675 187.212 279.426 187.052 280.155 187.185L282.428 187.61C283.155 187.749 283.798 188.169 284.216 188.78C284.635 189.39 284.795 190.142 284.662 190.87L283.996 194.432Z" fill="#6D7485"/>
<path d="M282.125 196.559C281.679 196.714 281.2 196.75 280.735 196.665L278.462 196.24C277.735 196.101 277.092 195.68 276.674 195.07C276.255 194.459 276.095 193.708 276.228 192.98L276.655 190.697L282.125 196.559Z" fill="#969DAA"/>
<path d="M269.308 185.157L271.581 185.582C272.31 185.718 272.954 186.138 273.373 186.75C273.792 187.361 273.951 188.114 273.815 188.842L273.149 192.405C273.013 193.133 272.593 193.778 271.981 194.196C271.37 194.615 270.617 194.774 269.888 194.638L267.682 194.225C266.95 194.089 266.303 193.667 265.882 193.053C265.461 192.439 265.302 191.684 265.439 190.952L266.102 187.401C266.237 186.682 266.648 186.044 267.247 185.625C267.846 185.205 268.586 185.038 269.308 185.157Z" fill="#6D7485"/>
<path d="M271.267 194.53C270.821 194.686 270.342 194.722 269.877 194.635L267.615 194.213C266.887 194.076 266.242 193.656 265.823 193.045C265.404 192.434 265.245 191.681 265.381 190.953L265.808 188.669L271.267 194.53Z" fill="#969DAA"/>
<path d="M260.724 183.553L258.451 183.128C256.934 182.845 255.474 183.844 255.19 185.361L254.524 188.924C254.241 190.441 255.241 191.9 256.759 192.184L259.031 192.609C260.549 192.892 262.009 191.892 262.292 190.376L262.958 186.813C263.242 185.296 262.241 183.837 260.724 183.553Z" fill="#6D7485"/>
<path d="M260.466 192.511C260.015 192.665 259.533 192.701 259.065 192.615L256.759 192.184C256.03 192.048 255.385 191.628 254.966 191.016C254.547 190.405 254.388 189.652 254.524 188.924L254.951 186.641L260.466 192.511Z" fill="#969DAA"/>
<path d="M238.215 179.346L235.942 178.921C234.425 178.638 232.965 179.637 232.682 181.154L232.016 184.717C231.732 186.234 232.732 187.693 234.25 187.977L236.523 188.402C238.04 188.685 239.5 187.685 239.783 186.169L240.449 182.606C240.733 181.089 239.733 179.63 238.215 179.346Z" fill="#6D7485"/>
<path d="M237.913 188.296C237.467 188.452 236.987 188.488 236.523 188.402L234.261 187.979C233.531 187.842 232.885 187.423 232.464 186.811C232.044 186.2 231.882 185.447 232.016 184.717L232.442 182.434L237.913 188.296Z" fill="#969DAA"/>
<path d="M228.915 184.137C228.776 184.866 228.353 185.51 227.74 185.928C227.127 186.346 226.373 186.505 225.643 186.368L223.382 185.945C223.021 185.878 222.677 185.74 222.369 185.54C222.062 185.34 221.797 185.081 221.589 184.778C221.382 184.475 221.236 184.135 221.16 183.776C221.084 183.417 221.08 183.046 221.147 182.686L221.813 179.123C221.881 178.762 222.019 178.418 222.219 178.111C222.419 177.804 222.678 177.539 222.981 177.331C223.284 177.124 223.624 176.978 223.984 176.903C224.343 176.827 224.713 176.823 225.074 176.89L227.336 177.313C228.066 177.449 228.712 177.869 229.132 178.48C229.553 179.092 229.714 179.845 229.581 180.575L228.915 184.137Z" fill="#6D7485"/>
<path d="M227.067 186.269C226.616 186.422 226.134 186.458 225.665 186.372L223.404 185.949C222.675 185.813 222.03 185.393 221.611 184.782C221.192 184.17 221.033 183.418 221.169 182.689L221.596 180.406L227.067 186.269Z" fill="#969DAA"/>
<path d="M216.512 175.29L214.239 174.865C212.722 174.581 211.262 175.581 210.978 177.098L210.313 180.661C210.029 182.177 211.029 183.637 212.547 183.921L214.82 184.345C216.337 184.629 217.797 183.629 218.08 182.112L218.746 178.55C219.03 177.033 218.029 175.573 216.512 175.29Z" fill="#6D7485"/>
<path d="M216.21 184.239C215.763 184.394 215.284 184.43 214.82 184.345L212.558 183.922C211.828 183.786 211.182 183.366 210.761 182.755C210.34 182.143 210.179 181.39 210.313 180.66L210.739 178.377L216.21 184.239Z" fill="#969DAA"/>
<path d="M207.223 180.083C207.086 180.811 206.666 181.456 206.055 181.875C205.443 182.293 204.691 182.452 203.962 182.316L201.755 181.903C201.026 181.767 200.382 181.347 199.963 180.736C199.544 180.125 199.385 179.372 199.521 178.644L200.187 175.081C200.323 174.352 200.743 173.708 201.355 173.289C201.966 172.871 202.719 172.712 203.448 172.848L205.654 173.26C206.383 173.397 207.028 173.817 207.447 174.428C207.866 175.039 208.025 175.792 207.888 176.52L207.223 180.083Z" fill="#6D7485"/>
<path d="M205.352 182.21C204.906 182.366 204.426 182.403 203.962 182.316L201.755 181.903C201.394 181.836 201.05 181.698 200.743 181.498C200.435 181.298 200.17 181.039 199.963 180.736C199.755 180.433 199.61 180.093 199.534 179.734C199.458 179.375 199.454 179.004 199.521 178.644L199.948 176.36L205.352 182.21Z" fill="#969DAA"/>
<path d="M196.377 178.056C196.237 178.785 195.815 179.429 195.202 179.847C194.589 180.265 193.835 180.423 193.105 180.287L190.898 179.874C190.17 179.738 189.525 179.318 189.106 178.707C188.687 178.095 188.528 177.343 188.664 176.614L189.33 173.052C189.466 172.323 189.886 171.679 190.498 171.26C191.109 170.841 191.862 170.682 192.591 170.819L194.797 171.231C195.527 171.367 196.173 171.787 196.594 172.399C197.015 173.01 197.176 173.763 197.043 174.493L196.377 178.056Z" fill="#6D7485"/>
<path d="M194.506 180.183C194.056 180.337 193.573 180.372 193.105 180.287L190.898 179.874C190.17 179.738 189.525 179.318 189.106 178.707C188.687 178.095 188.528 177.343 188.664 176.614L189.091 174.331L194.506 180.183Z" fill="#969DAA"/>
<path d="M482.628 205.268L586.422 127.707C587.979 126.552 589.75 125.718 591.633 125.254C593.515 124.791 595.471 124.707 597.387 125.008L605.71 126.301C606.399 126.408 607.052 126.678 607.617 127.088C608.181 127.498 608.64 128.036 608.955 128.658C609.271 129.28 609.434 129.968 609.431 130.666C609.428 131.363 609.259 132.05 608.939 132.669L562.576 222.117L479.945 206.673C480.92 206.38 481.831 205.903 482.628 205.268Z" fill="#FF9B8A"/>
<defs>
<linearGradient id="paint0_linear_28:1160" x1="302.331" y1="318.604" x2="344.903" y2="32.0791" gradientUnits="userSpaceOnUse">
<stop stop-color="#F37753"/>
<stop offset="1" stop-color="white" stop-opacity="0"/>
</linearGradient>
<linearGradient id="paint1_linear_28:1160" x1="386.428" y1="239.877" x2="450.049" y2="251.768" gradientUnits="userSpaceOnUse">
<stop stop-color="#F0F0F0"/>
<stop offset="0.13" stop-color="#E8E8E8"/>
<stop offset="0.68" stop-color="#CBCBCB"/>
<stop offset="1" stop-color="#C0C0C0"/>
</linearGradient>
<linearGradient id="paint2_linear_28:1160" x1="398.719" y1="241.079" x2="396.364" y2="256.061" gradientUnits="userSpaceOnUse">
<stop stop-color="white"/>
<stop offset="1"/>
</linearGradient>
<linearGradient id="paint3_linear_28:1160" x1="308.174" y1="251.963" x2="340.558" y2="258.016" gradientUnits="userSpaceOnUse">
<stop stop-color="white"/>
<stop offset="0.03" stop-color="#F3F3F3"/>
<stop offset="0.12" stop-color="#D5D5D5"/>
<stop offset="0.22" stop-color="#BDBDBD"/>
<stop offset="0.34" stop-color="#ABABAB"/>
<stop offset="0.47" stop-color="#9E9E9E"/>
<stop offset="0.64" stop-color="#969696"/>
<stop offset="1" stop-color="#949494"/>
</linearGradient>
<linearGradient id="paint4_linear_28:1160" x1="-1427.38" y1="5955.1" x2="-1145.08" y2="6007.87" gradientUnits="userSpaceOnUse">
<stop stop-color="white"/>
<stop offset="0.03" stop-color="#F3F3F3"/>
<stop offset="0.12" stop-color="#D5D5D5"/>
<stop offset="0.22" stop-color="#BDBDBD"/>
<stop offset="0.34" stop-color="#ABABAB"/>
<stop offset="0.47" stop-color="#9E9E9E"/>
<stop offset="0.64" stop-color="#969696"/>
<stop offset="1" stop-color="#949494"/>
</linearGradient>
</defs>
</svg>
