<svg width="679" height="573" viewBox="0 0 679 573" fill="none" xmlns="http://www.w3.org/2000/svg">
<mask id="mask0_28:729" style="mask-type:alpha" maskUnits="userSpaceOnUse" x="49" y="38" width="571" height="472">
<path d="M390.516 49.7702C461.729 10.3744 619.317 71.618 619.316 222.812C619.315 467.522 396.285 509.291 265.542 509.291C31.0832 509.291 -55.0158 244.383 223.243 222.812C471.269 203.585 238.479 133.879 390.516 49.7702Z" fill="#F6A182"/>
</mask>
<g mask="url(#mask0_28:729)">
<path opacity="0.7" d="M62.5645 201.751C87.8023 234.538 154.649 298.473 220.131 291.916C301.983 283.719 146.463 130.028 220.131 130.028C293.798 130.028 328.585 318.556 381.789 318.556C434.993 318.556 322.446 179.209 381.789 171.012C441.132 162.815 490.244 367.737 555.726 369.786C621.208 371.835 488.197 201.751 594.606 201.751" stroke="url(#paint0_linear_28:729)" stroke-width="2"/>
</g>
<path d="M60.2144 79.7952L62.6985 80.5904L62.2016 109.218L61.9035 108.92L71.0451 109.119H71.1445L76.3114 111.107H76.212L89.825 112.796L89.3282 113.194L90.3218 89.8347C90.3218 89.5365 90.5205 89.3377 90.8186 89.3377C90.918 89.3377 90.918 89.3377 91.0174 89.4371L91.6135 89.7353C91.8123 89.8347 91.9116 90.0335 91.9116 90.2323L90.7193 112.598L90.2224 112.101L105.127 111.802C105.226 111.802 105.326 111.802 105.326 111.902L107.413 113.095L107.214 112.995C116.951 113.89 126.789 114.784 136.526 115.679C136.626 115.679 136.626 115.679 136.725 115.778L138.613 117.468L138.414 117.369L141.594 117.568C141.693 117.568 141.793 117.667 141.892 117.767L145.767 128.502L145.568 128.402H159.579C159.579 128.402 159.678 128.402 159.678 128.502L161.566 136.752L159.48 128.601L159.579 128.701L145.568 128.999C145.469 128.999 145.37 128.899 145.37 128.899L141.296 118.264L141.594 118.462L138.414 118.264C138.315 118.264 138.315 118.264 138.216 118.164L136.328 116.474L136.526 116.574C126.789 115.778 116.951 114.983 107.214 114.089C107.114 114.089 107.114 114.089 107.015 113.989L104.928 112.796L105.127 112.896L90.2224 113.293C89.9243 113.293 89.7256 113.095 89.7256 112.796L90.918 90.3317L91.2161 90.8287L90.6199 90.5305L91.3155 90.1329L90.2224 113.492C90.2224 113.691 90.0237 113.89 89.825 113.89L76.3114 112.101H76.212L71.0451 109.914H71.1445L62.0029 109.616C61.8042 109.616 61.7048 109.516 61.7048 109.317L62.6985 80.6898L60.2144 79.7952Z" fill="#FFFFF8"/>
<path d="M399.048 90.0337L360.097 79.3977L359.699 112.995L400.936 113.89L399.048 90.0337Z" fill="url(#paint1_linear_28:729)"/>
<path d="M49.2847 126.017L53.7561 112.995L141.694 117.866L145.668 128.601L49.2847 126.017Z" fill="url(#paint2_linear_28:729)"/>
<path d="M53.7558 112.995L45.111 114.586L40.2422 126.017H49.2844L53.7558 112.995Z" fill="url(#paint3_linear_28:729)"/>
<path d="M247.914 113.989L292.926 118.562L292.132 134.963H245.629L247.914 113.989Z" fill="url(#paint4_linear_28:729)"/>
<path d="M546.604 138.044L545.909 108.125L511.33 100.172L509.342 99.8742L471.683 93.6119L471.286 90.9281L423.591 85.3616L424.485 102.061L485.793 134.565L508.647 137.846L546.604 138.044Z" fill="url(#paint5_linear_28:729)"/>
<path d="M25.7363 125.52L20.0725 126.613L18.3833 137.249H51.9685L48.9876 195.499L58.7253 193.312L63.4948 133.074L25.7363 125.52Z" fill="url(#paint6_linear_28:729)"/>
<path d="M58.7251 193.312L60.1162 137.448L24.2456 136.951L25.7361 125.52L159.68 128.403L161.567 136.553L136.726 137.945L138.714 182.576L58.7251 193.312Z" fill="url(#paint7_linear_28:729)"/>
<path d="M45.311 196.393L47.0002 173.034L91.2175 168.362L93.006 160.111L136.826 154.943V170.35L166.933 166.97V173.928L204.493 169.157L204.294 122.737L247.915 113.989L248.015 128.8L285.972 123.234L362.781 112.598V96.7927L423.592 85.3616L424.387 95.5999L465.424 93.4131V100.57L503.779 99.9736L502.09 137.448L286.866 189.435L45.311 196.393Z" fill="url(#paint8_linear_28:729)"/>
<path opacity="0.3" d="M546.606 129.396L502.488 128.601L466.518 133.074L465.425 100.57L464.431 132.379L424.785 133.77L424.586 98.582L420.512 134.963L362.483 139.138L361.788 112.796L358.906 140.132L311.907 146.394L308.628 120.45L309.423 147.786L249.208 157.925L248.81 168.362L207.574 170.25L204.494 152.855V169.157L166.934 173.928V166.97L164.45 177.606L138.714 182.576L136.827 170.35L136.926 179.197L94.0004 181.781L93.0068 160.111L90.5226 184.763L47.001 189.932V173.034L45.6099 193.312L546.208 142.319L546.606 129.396Z" fill="url(#paint9_linear_28:729)"/>
<path d="M26.6297 244.702C26.6297 244.702 4.27268 223.828 0 199.673C0 199.673 131.36 182.378 287.561 166.076C294.218 165.38 310.316 150.669 310.316 150.669C375.896 140.53 486.091 133.472 541.934 137.051C541.934 137.051 511.429 208.818 482.018 242.416L26.6297 244.702Z" fill="url(#paint10_linear_28:729)"/>
<path d="M492.948 247.187L488.079 235.06L23.2515 241.124L25.7356 245.597L492.948 247.187Z" fill="url(#paint11_linear_28:729)"/>
<path d="M37.9582 137.15L57.1356 160.31L56.7381 169.157L32.6919 137.15H37.9582Z" fill="url(#paint12_linear_28:729)"/>
<path d="M27.7241 137.249L54.3538 168.859L56.7386 169.157L32.6923 137.15L27.7241 137.249Z" fill="url(#paint13_linear_28:729)"/>
<path d="M152.822 137.05L137.818 163.889L138.116 169.654L158.387 136.653L152.822 137.05Z" fill="url(#paint14_linear_28:729)"/>
<path d="M150.836 137.15L137.62 157.527L137.819 163.889L152.823 137.051L150.836 137.15Z" fill="url(#paint15_linear_28:729)"/>
<path d="M136.826 154.943L183.13 159.515V164.286L201.313 164.386L201.909 169.754L166.933 173.928V166.97L136.826 170.35V154.943Z" fill="url(#paint16_linear_28:729)"/>
<path d="M488.079 235.06C488.079 235.06 505.567 208.818 507.753 135.957C507.753 135.957 540.841 136.653 555.547 138.045C555.547 138.045 513.715 205.439 488.079 235.06Z" fill="url(#paint17_linear_28:729)"/>
<path d="M316.476 118.959L317.072 89.6361L360.097 79.3977L359.699 112.995L316.476 118.959Z" fill="url(#paint18_linear_28:729)"/>
<path d="M166.933 173.928L169.317 142.915L204.294 137.746L204.492 169.654L166.933 173.928Z" fill="url(#paint19_linear_28:729)"/>
<path d="M465.424 93.4133L464.43 135.46V93.4133H465.424Z" fill="#8B141A"/>
<path d="M424.386 95.6L423.591 139.237L425.081 139.038L424.684 95.6H424.386Z" fill="#8B141A"/>
<path d="M362.78 112.598L363.376 143.909L362.581 144.108L361.786 112.797L362.78 112.598Z" fill="#8B141A"/>
<path d="M424.089 120.749L370.432 127.707L424.089 121.444V120.749Z" fill="#8B141A"/>
<path d="M308.627 120.45L309.422 151.066L310.316 150.668L309.024 120.053L308.627 120.45Z" fill="#8B141A"/>
<path d="M248.014 128.8V170.25H249.504L248.809 128.701L248.014 128.8Z" fill="#8B141A"/>
<path d="M204.492 152.855L248.809 145.997L204.492 151.861V152.855Z" fill="#8B141A"/>
<path d="M136.826 170.35V182.875L137.124 182.775V170.35H136.826Z" fill="#8B141A"/>
<path d="M91.2175 168.362L90.3232 188.342L90.8201 188.242L93.0061 160.112L91.2175 168.362Z" fill="#8B141A"/>
<path d="M362.582 128.104L370.431 127.707L362.582 128.999V128.104Z" fill="#8B141A"/>
<path d="M249.206 156.136L300.776 149.277L249.206 157.925V156.136Z" fill="#8B141A"/>
<path d="M248.81 128.701L249.207 156.136L309.422 147.786L308.627 120.45L248.81 128.701Z" fill="#F46859"/>
<path d="M424.386 95.6002L424.982 126.116L464.43 124.029V93.4133L424.386 95.6002Z" fill="#F46859"/>
<path d="M136.826 154.943L93.0058 160.112L90.8198 188.242L136.826 182.875V154.943Z" fill="#F46859"/>
<path d="M424.783 149.774L424.684 147.985L418.523 148.482L418.623 150.271L419.616 150.171C419.716 149.575 419.915 149.078 420.113 148.482L421.902 149.376C421.902 149.376 421.604 150.47 421.405 150.47C421.206 150.569 420.908 150.668 420.709 150.768L421.008 154.346L422.995 154.843L421.107 155.142L421.504 161.006L423.492 160.907L422.697 150.072L424.783 149.774Z" fill="#D6DBFF"/>
<path d="M430.248 147.587L428.957 147.687C428.857 147.885 428.857 148.084 428.758 148.283C428.659 148.482 428.559 148.681 428.46 148.78C428.261 148.979 428.062 149.078 427.864 149.178C427.566 149.277 427.268 149.376 426.87 149.376L426.969 150.768L428.46 150.669L429.155 160.311L431.143 160.211L430.248 147.587Z" fill="#D6DBFF"/>
<path d="M439.192 157.826L435.416 158.124C435.416 158.024 435.416 157.925 435.416 157.826C435.416 157.527 435.515 157.13 435.615 156.831C435.813 156.434 436.012 156.136 436.31 155.837C436.608 155.44 436.906 155.042 437.204 154.744C437.403 154.446 437.602 154.247 437.801 153.949C437.006 153.949 436.211 153.949 435.615 153.949C435.515 154.148 435.317 154.346 435.217 154.446C434.919 154.843 434.621 155.241 434.323 155.639C434.025 156.036 433.826 156.533 433.727 157.03C433.528 157.527 433.528 158.124 433.528 158.72L433.627 160.311L439.391 159.913L439.192 157.826ZM434.224 158.124C434.025 158.124 434.124 157.428 433.925 157.03C433.727 156.633 435.615 155.937 435.615 155.937L434.82 157.03C434.72 157.03 434.522 158.124 434.224 158.124ZM438.794 149.973C438.794 149.078 438.496 148.283 437.9 147.687C437.304 147.19 436.41 146.891 435.615 146.991L437.403 147.488V147.985L435.317 147.687L435.615 146.991C434.82 146.991 434.025 147.388 433.429 147.985C432.932 148.681 432.733 149.575 432.832 150.37L432.932 151.663L434.82 151.563L434.72 150.172C434.621 149.873 434.72 149.476 434.919 149.178C435.118 148.979 435.416 148.879 435.615 148.879C435.913 148.879 436.211 148.979 436.41 149.078C436.708 149.376 436.807 149.774 436.807 150.172C436.807 150.768 436.807 151.265 436.608 151.762C436.41 152.259 436.211 152.657 436.012 153.054C435.913 153.253 435.714 153.452 435.615 153.651H437.801C437.9 153.551 437.999 153.352 438.099 153.253C438.397 152.756 438.596 152.259 438.695 151.762C438.794 151.265 438.894 150.669 438.794 149.973Z" fill="#D6DBFF"/>
<path d="M446.842 156.831L446.743 155.042L445.749 155.142L445.65 154.247L443.663 154.148L443.762 155.241L441.775 155.34L442.272 154.048L440.483 153.949L439.986 155.44L440.086 157.229L443.961 156.931L444.16 159.217L446.147 159.118L445.948 156.831H446.842ZM445.451 150.867H444.06L445.253 150.47L445.451 150.37L445.153 146.494L442.967 146.692L442.371 148.482L443.365 148.879H442.172L440.583 153.651H442.371L443.464 150.47L443.663 153.651H445.65L445.451 150.867Z" fill="#D6DBFF"/>
<path d="M536.368 167.865L535.077 170.052C535.077 170.052 397.655 172.338 5.76172 216.273L6.15918 215.578C6.15918 215.578 473.669 157.726 536.368 167.865Z" fill="url(#paint20_linear_28:729)"/>
<path d="M537.163 166.374C537.163 166.374 470.688 158.223 6.15918 215.578L5.76172 216.273C5.76172 216.273 426.074 163.392 536.368 167.865L537.163 166.374Z" fill="url(#paint21_linear_28:729)"/>
<path d="M513.517 201.562L511.828 204.047C511.828 204.047 395.372 195.797 11.9246 227.307L11.229 227.605C11.229 227.605 396.565 189.932 513.517 201.562Z" fill="url(#paint22_linear_28:729)"/>
<path d="M515.107 199.375C515.107 199.375 413.159 188.839 11.9246 227.307L11.229 227.605C11.229 227.605 360.694 190.926 513.616 201.562L515.107 199.375Z" fill="url(#paint23_linear_28:729)"/>
<path d="M555.547 138.044L553.957 140.728C553.957 140.728 450.22 129.297 311.408 152.358C311.408 152.358 293.82 164.783 289.945 165.976C286.07 167.169 0.0986328 199.673 0.0986328 199.673C0.0986328 199.673 288.653 166.573 292.23 164.386C295.808 162.199 310.414 150.668 310.414 150.668C310.414 150.668 481.52 126.315 555.547 138.044Z" fill="url(#paint24_linear_28:729)"/>
<path opacity="0.49" d="M0 199.673C0 199.673 34.1814 234.961 73.1323 235.06C176.273 235.259 263.714 178.998 316.675 171.046C422.995 154.943 501.294 218.56 501.294 218.56L488.079 235.06L23.2513 241.223C23.2513 241.124 3.27903 222.138 0 199.673Z" fill="url(#paint25_linear_28:729)"/>
<path opacity="0.3" d="M407.891 148.283C380.864 145.003 350.956 153.054 350.956 153.054C354.235 184.962 370.53 231.184 370.53 231.184H410.574C404.911 207.625 407.891 148.283 407.891 148.283Z" fill="url(#paint26_linear_28:729)"/>
<path opacity="0.3" d="M365.165 230.985C365.165 230.985 350.757 203.053 338.635 156.632C328.201 156.235 317.768 157.428 307.633 160.112C307.633 160.112 321.743 201.065 350.558 231.283L365.165 230.985Z" fill="url(#paint27_linear_28:729)"/>
<path opacity="0.5" d="M27.8208 241.422L29.8081 245.299L31.2986 241.422L35.0744 244.802V241.422H112.38L118.342 245.895L178.159 245.498L181.339 241.422V244.802L182.531 241.422V244.106L189.984 241.025L196.144 239.832L197.337 244.702L200.516 241.124L209.757 239.534L217.508 239.832L218.7 243.708L219.892 241.025L222.575 245.299L221.085 239.832L372.119 238.341L387.719 239.534L395.668 244.404L400.935 246.79V241.124L406.996 245.299L431.837 242.714L429.85 237.546H461.249L467.509 247.088L465.422 238.341L472.974 247.088L471.98 241.422H27.8208Z" fill="url(#paint28_linear_28:729)"/>
<path d="M322.736 157.13C322.736 158.422 322.04 159.515 321.146 159.515C320.252 159.515 319.556 158.422 319.556 157.13C319.556 155.837 320.252 154.744 321.146 154.744C322.04 154.744 322.736 155.837 322.736 157.13Z" fill="url(#paint29_linear_28:729)"/>
<path d="M235.494 179.197C235.494 180.489 234.799 181.582 233.904 181.582C233.01 181.582 232.314 180.489 232.314 179.197C232.314 177.904 233.01 176.811 233.904 176.811C234.799 176.811 235.494 177.805 235.494 179.197Z" fill="url(#paint30_linear_28:729)"/>
<path d="M141.992 189.932C141.992 191.224 141.297 192.318 140.402 192.318C139.508 192.318 138.812 191.224 138.812 189.932C138.812 188.64 139.508 187.546 140.402 187.546C141.297 187.546 141.992 188.54 141.992 189.932Z" fill="url(#paint31_linear_28:729)"/>
<path d="M361.388 151.961C361.388 153.253 360.693 154.346 359.798 154.346C358.904 154.346 358.208 153.253 358.208 151.961C358.208 150.668 358.904 149.575 359.798 149.575C360.693 149.575 361.388 150.569 361.388 151.961Z" fill="url(#paint32_linear_28:729)"/>
<path d="M186.01 184.167C186.01 185.459 185.314 186.552 184.42 186.552C183.526 186.552 182.83 185.459 182.83 184.167C182.83 182.874 183.526 181.781 184.42 181.781C185.314 181.781 186.01 182.775 186.01 184.167Z" fill="url(#paint33_linear_28:729)"/>
<path d="M407.494 147.289C407.494 148.581 406.798 149.674 405.904 149.674C405.009 149.674 404.314 148.581 404.314 147.289C404.314 145.997 405.009 144.903 405.904 144.903C406.798 144.903 407.494 145.997 407.494 147.289Z" fill="url(#paint34_linear_28:729)"/>
<path d="M67.0708 141.325L66.8721 150.271H73.132V141.523L67.0708 141.325Z" fill="url(#paint35_linear_28:729)"/>
<path d="M119.833 141.325L119.635 150.271H125.895V141.523L119.833 141.325Z" fill="url(#paint36_linear_28:729)"/>
<path d="M58.0293 113.194L60.2153 79.7952L62.6994 80.5904L62.0039 109.218L71.1454 109.417L76.213 111.504L89.8259 113.194L90.8196 89.9341L91.4158 90.1329L90.2234 112.598L105.227 112.2L107.215 113.393L123.212 114.586L136.527 115.977L138.515 117.667L58.0293 113.194Z" fill="url(#paint37_linear_28:729)"/>
<path d="M60.2151 79.7952L59.3208 80.0934L56.7373 113.095L58.029 113.194L60.2151 79.7952Z" fill="url(#paint38_linear_28:729)"/>
<path d="M90.8201 89.9342L90.4226 90.133L89.1309 114.983H89.8264L90.8201 89.9342Z" fill="url(#paint39_linear_28:729)"/>
<path opacity="0.3" d="M391.198 92.4191L423.591 85.3616L420.809 120.053L390.602 124.725L391.198 92.4191Z" fill="url(#paint40_linear_28:729)"/>
<path opacity="0.3" d="M477.248 100.769L476.155 125.321L502.486 128.601L503.778 99.9738L477.248 100.769Z" fill="url(#paint41_linear_28:729)"/>
<path opacity="0.3" d="M503.779 99.9738L502.487 128.601L546.605 129.397L545.909 108.125L503.779 99.9738Z" fill="url(#paint42_linear_28:729)"/>
<path opacity="0.3" d="M223.372 118.959L219.597 149.774L204.493 152.855L204.294 122.737L223.372 118.959Z" fill="url(#paint43_linear_28:729)"/>
<path opacity="0.3" d="M117.35 157.229L112.878 180.588L136.925 179.197L136.825 154.943L117.35 157.229Z" fill="url(#paint44_linear_28:729)"/>
<path d="M169.317 142.915L204.294 137.547L204.194 137.647L204.095 122.637C204.095 122.538 204.194 122.438 204.294 122.438L247.915 113.691H248.014L293.026 118.164C293.225 118.164 293.324 118.363 293.324 118.562V121.941L292.927 121.544L316.576 118.363L316.178 118.761L316.675 89.6359C316.675 89.4371 316.874 89.2383 316.973 89.2383L359.899 79C359.998 79 360.097 79 360.097 79L399.148 89.6359H398.949L423.591 84.9641H423.691L471.386 90.63C471.485 90.63 471.584 90.7294 471.684 90.9282L472.081 93.5126L471.783 93.2144L509.045 99.4767C515.205 100.868 521.366 102.26 527.527 103.652L546.008 107.926L546.108 108.025L546.505 134.565L545.909 108.025L546.008 108.125L509.045 99.9737L471.684 93.9102C471.584 93.9102 471.485 93.8108 471.386 93.612L470.988 91.0276L471.286 91.3258L423.591 85.7593H423.691L399.148 90.4312C399.048 90.4312 399.048 90.4312 398.949 90.4312L359.998 79.8946H360.197L317.172 90.133L317.47 89.7353L316.774 119.059C316.774 119.258 316.576 119.456 316.377 119.456L292.728 122.438C292.529 122.438 292.331 122.339 292.331 122.14V118.661L292.629 119.059L247.716 114.486L204.095 123.134L204.294 122.935V137.945C204.294 138.044 204.194 138.044 204.194 138.044L169.317 142.915Z" fill="#FFFFF8"/>
<defs>
<linearGradient id="paint0_linear_28:729" x1="328.585" y1="313.041" x2="328.585" y2="77.1794" gradientUnits="userSpaceOnUse">
<stop stop-color="#F37753"/>
<stop offset="1" stop-color="white" stop-opacity="0"/>
</linearGradient>
<linearGradient id="paint1_linear_28:729" x1="359.671" y1="96.6284" x2="400.927" y2="96.6284" gradientUnits="userSpaceOnUse">
<stop stop-color="#FFBD2B"/>
<stop offset="1" stop-color="#FFD406"/>
</linearGradient>
<linearGradient id="paint2_linear_28:729" x1="97.4478" y1="128.556" x2="97.4478" y2="112.97" gradientUnits="userSpaceOnUse">
<stop stop-color="#F1BFBD"/>
<stop offset="1" stop-color="#F6D8BF"/>
</linearGradient>
<linearGradient id="paint3_linear_28:729" x1="46.9654" y1="126.061" x2="46.9654" y2="112.97" gradientUnits="userSpaceOnUse">
<stop stop-color="#DD8897"/>
<stop offset="1" stop-color="#EB937A"/>
</linearGradient>
<linearGradient id="paint4_linear_28:729" x1="269.229" y1="134.928" x2="269.229" y2="114.014" gradientUnits="userSpaceOnUse">
<stop stop-color="#E52C31"/>
<stop offset="1" stop-color="#F64B6F"/>
</linearGradient>
<linearGradient id="paint5_linear_28:729" x1="485.089" y1="137.999" x2="485.089" y2="85.3362" gradientUnits="userSpaceOnUse">
<stop stop-color="#E52C31"/>
<stop offset="1" stop-color="#F64B6F"/>
</linearGradient>
<linearGradient id="paint6_linear_28:729" x1="40.9253" y1="195.473" x2="40.9253" y2="125.485" gradientUnits="userSpaceOnUse">
<stop stop-color="#DD8897"/>
<stop offset="1" stop-color="#EB937A"/>
</linearGradient>
<linearGradient id="paint7_linear_28:729" x1="92.9077" y1="193.306" x2="92.9077" y2="125.485" gradientUnits="userSpaceOnUse">
<stop stop-color="#F1BFBD"/>
<stop offset="1" stop-color="#F6D8BF"/>
</linearGradient>
<linearGradient id="paint8_linear_28:729" x1="274.566" y1="196.378" x2="274.566" y2="85.3362" gradientUnits="userSpaceOnUse">
<stop stop-color="#9D1331"/>
<stop offset="1" stop-color="#C71F48"/>
</linearGradient>
<linearGradient id="paint9_linear_28:729" x1="45.6111" y1="145.941" x2="546.558" y2="145.941" gradientUnits="userSpaceOnUse">
<stop stop-color="#450F2B"/>
<stop offset="0.23" stop-color="#4F112E"/>
<stop offset="0.62" stop-color="#6B1637"/>
<stop offset="0.99" stop-color="#8B1B42"/>
</linearGradient>
<linearGradient id="paint10_linear_28:729" x1="270.983" y1="244.677" x2="270.983" y2="136.091" gradientUnits="userSpaceOnUse">
<stop stop-color="#000725"/>
<stop offset="1" stop-color="#283445"/>
</linearGradient>
<linearGradient id="paint11_linear_28:729" x1="23.2527" y1="241.094" x2="492.959" y2="241.094" gradientUnits="userSpaceOnUse">
<stop stop-color="#FF772B"/>
<stop offset="1" stop-color="#FF9D06"/>
</linearGradient>
<linearGradient id="paint12_linear_28:729" x1="32.6434" y1="153.188" x2="57.107" y2="153.188" gradientUnits="userSpaceOnUse">
<stop stop-color="#DDE5DB"/>
<stop offset="1" stop-color="#8196A5"/>
</linearGradient>
<linearGradient id="paint13_linear_28:729" x1="27.6756" y1="153.188" x2="56.6901" y2="153.188" gradientUnits="userSpaceOnUse">
<stop stop-color="#BFCCC9"/>
<stop offset="1" stop-color="#8196A5"/>
</linearGradient>
<linearGradient id="paint14_linear_28:729" x1="137.859" y1="153.128" x2="158.408" y2="153.128" gradientUnits="userSpaceOnUse">
<stop stop-color="#DDE5DB"/>
<stop offset="1" stop-color="#8196A5"/>
</linearGradient>
<linearGradient id="paint15_linear_28:729" x1="137.572" y1="150.474" x2="152.864" y2="150.474" gradientUnits="userSpaceOnUse">
<stop stop-color="#BFCCC9"/>
<stop offset="1" stop-color="#8196A5"/>
</linearGradient>
<linearGradient id="paint16_linear_28:729" x1="169.344" y1="173.893" x2="169.344" y2="154.898" gradientUnits="userSpaceOnUse">
<stop stop-color="#E52C31"/>
<stop offset="1" stop-color="#F64B6F"/>
</linearGradient>
<linearGradient id="paint17_linear_28:729" x1="521.839" y1="235.035" x2="521.839" y2="135.912" gradientUnits="userSpaceOnUse">
<stop stop-color="#000E18"/>
<stop offset="1" stop-color="#39546A"/>
</linearGradient>
<linearGradient id="paint18_linear_28:729" x1="338.287" y1="118.934" x2="338.287" y2="79.4122" gradientUnits="userSpaceOnUse">
<stop stop-color="#FF772B"/>
<stop offset="1" stop-color="#FF9D06"/>
</linearGradient>
<linearGradient id="paint19_linear_28:729" x1="185.699" y1="173.893" x2="185.699" y2="137.791" gradientUnits="userSpaceOnUse">
<stop stop-color="#FF772B"/>
<stop offset="1" stop-color="#FF9D06"/>
</linearGradient>
<linearGradient id="paint20_linear_28:729" x1="5.74304" y1="191.437" x2="536.32" y2="191.437" gradientUnits="userSpaceOnUse">
<stop stop-color="#004D75"/>
<stop offset="1" stop-color="#007CA1"/>
</linearGradient>
<linearGradient id="paint21_linear_28:729" x1="5.70329" y1="191.087" x2="537.155" y2="191.087" gradientUnits="userSpaceOnUse">
<stop stop-color="#334D75"/>
<stop offset="1" stop-color="#43486A"/>
</linearGradient>
<linearGradient id="paint22_linear_28:729" x1="11.1905" y1="213.498" x2="513.548" y2="213.498" gradientUnits="userSpaceOnUse">
<stop stop-color="#004D75"/>
<stop offset="1" stop-color="#007CA1"/>
</linearGradient>
<linearGradient id="paint23_linear_28:729" x1="11.1905" y1="212.838" x2="515.078" y2="212.838" gradientUnits="userSpaceOnUse">
<stop stop-color="#334D75"/>
<stop offset="1" stop-color="#43486A"/>
</linearGradient>
<linearGradient id="paint24_linear_28:729" x1="0.0700158" y1="167.223" x2="555.568" y2="167.223" gradientUnits="userSpaceOnUse">
<stop stop-color="#334D75"/>
<stop offset="1" stop-color="#43486A"/>
</linearGradient>
<linearGradient id="paint25_linear_28:729" x1="0.0210653" y1="204.761" x2="501.275" y2="204.761" gradientUnits="userSpaceOnUse">
<stop stop-color="#450F2B"/>
<stop offset="0.17" stop-color="#4A1934"/>
<stop offset="0.46" stop-color="#56354C"/>
<stop offset="0.83" stop-color="#6A6274"/>
<stop offset="0.99" stop-color="#747786"/>
</linearGradient>
<linearGradient id="paint26_linear_28:729" x1="380.731" y1="231.228" x2="380.731" y2="147.548" gradientUnits="userSpaceOnUse">
<stop stop-color="#D3C79C"/>
<stop offset="1"/>
</linearGradient>
<linearGradient id="paint27_linear_28:729" x1="336.41" y1="231.228" x2="336.41" y2="156.585" gradientUnits="userSpaceOnUse">
<stop stop-color="#D3C79C"/>
<stop offset="1"/>
</linearGradient>
<linearGradient id="paint28_linear_28:729" x1="250.423" y1="247.063" x2="250.423" y2="237.58" gradientUnits="userSpaceOnUse">
<stop stop-color="#9D1331"/>
<stop offset="1" stop-color="#C71F48"/>
</linearGradient>
<linearGradient id="paint29_linear_28:729" x1="319.528" y1="157.139" x2="322.687" y2="157.139" gradientUnits="userSpaceOnUse">
<stop stop-color="#004D75"/>
<stop offset="1" stop-color="#007CA1"/>
</linearGradient>
<linearGradient id="paint30_linear_28:729" x1="232.326" y1="179.156" x2="235.485" y2="179.156" gradientUnits="userSpaceOnUse">
<stop stop-color="#004D75"/>
<stop offset="1" stop-color="#007CA1"/>
</linearGradient>
<linearGradient id="paint31_linear_28:729" x1="138.784" y1="189.897" x2="141.944" y2="189.897" gradientUnits="userSpaceOnUse">
<stop stop-color="#004D75"/>
<stop offset="1" stop-color="#007CA1"/>
</linearGradient>
<linearGradient id="paint32_linear_28:729" x1="358.21" y1="151.921" x2="361.369" y2="151.921" gradientUnits="userSpaceOnUse">
<stop stop-color="#004D75"/>
<stop offset="1" stop-color="#007CA1"/>
</linearGradient>
<linearGradient id="paint33_linear_28:729" x1="182.851" y1="184.136" x2="186.001" y2="184.136" gradientUnits="userSpaceOnUse">
<stop stop-color="#004D75"/>
<stop offset="1" stop-color="#007CA1"/>
</linearGradient>
<linearGradient id="paint34_linear_28:729" x1="404.325" y1="147.308" x2="407.475" y2="147.308" gradientUnits="userSpaceOnUse">
<stop stop-color="#004D75"/>
<stop offset="1" stop-color="#007CA1"/>
</linearGradient>
<linearGradient id="paint35_linear_28:729" x1="69.9734" y1="150.275" x2="69.9734" y2="141.339" gradientUnits="userSpaceOnUse">
<stop stop-color="#DD8897"/>
<stop offset="1" stop-color="#EB937A"/>
</linearGradient>
<linearGradient id="paint36_linear_28:729" x1="122.736" y1="150.275" x2="122.736" y2="141.339" gradientUnits="userSpaceOnUse">
<stop stop-color="#DD8897"/>
<stop offset="1" stop-color="#EB937A"/>
</linearGradient>
<linearGradient id="paint37_linear_28:729" x1="98.2383" y1="117.672" x2="98.2383" y2="79.8296" gradientUnits="userSpaceOnUse">
<stop stop-color="#F1BFBD"/>
<stop offset="1" stop-color="#F6D8BF"/>
</linearGradient>
<linearGradient id="paint38_linear_28:729" x1="58.4376" y1="113.209" x2="58.4376" y2="79.8296" gradientUnits="userSpaceOnUse">
<stop stop-color="#DD8897"/>
<stop offset="1" stop-color="#EB937A"/>
</linearGradient>
<linearGradient id="paint39_linear_28:729" x1="89.9767" y1="114.978" x2="89.9767" y2="89.889" gradientUnits="userSpaceOnUse">
<stop stop-color="#DD8897"/>
<stop offset="1" stop-color="#EB937A"/>
</linearGradient>
<linearGradient id="paint40_linear_28:729" x1="407.103" y1="124.679" x2="407.103" y2="85.3362" gradientUnits="userSpaceOnUse">
<stop/>
<stop offset="1" stop-color="#C7A929"/>
</linearGradient>
<linearGradient id="paint41_linear_28:729" x1="489.978" y1="128.596" x2="489.978" y2="99.9484" gradientUnits="userSpaceOnUse">
<stop/>
<stop offset="1" stop-color="#C7A929"/>
</linearGradient>
<linearGradient id="paint42_linear_28:729" x1="524.507" y1="129.381" x2="524.507" y2="99.9484" gradientUnits="userSpaceOnUse">
<stop/>
<stop offset="1" stop-color="#C7A929"/>
</linearGradient>
<linearGradient id="paint43_linear_28:729" x1="213.81" y1="152.85" x2="213.81" y2="118.934" gradientUnits="userSpaceOnUse">
<stop/>
<stop offset="1" stop-color="#C7A929"/>
</linearGradient>
<linearGradient id="paint44_linear_28:729" x1="124.938" y1="180.623" x2="124.938" y2="154.898" gradientUnits="userSpaceOnUse">
<stop/>
<stop offset="1" stop-color="#C7A929"/>
</linearGradient>
</defs>
</svg>
