<svg xmlns="http://www.w3.org/2000/svg" xmlns:xlink="http://www.w3.org/1999/xlink"><symbol id="icon-arrow" viewBox="0 0 30 13"><path d="M23.887 12.355 29.5 6.177l-1-1.1v-.073h-.066L23.887 0l-1.48 1.346 3.323 3.658H-.001v2h26.046l-3.637 4.005 1.48 1.346Z"/></symbol><symbol id="icon-caret" viewBox="0 0 7 10"><path fill-rule="evenodd" clip-rule="evenodd" d="M.97.47a.75.75 0 0 1 1.06 0l4 4a.75.75 0 0 1 0 1.06l-4 4A.75.75 0 0 1 .97 8.47L4.44 5 .97 1.53a.75.75 0 0 1 0-1.06Z"/></symbol><symbol id="icon-close" viewBox="0 0 94.9 94.9"><path d="M55.931 47.463 94.306 9.09a2.118 2.118 0 0 0 0-2.994L88.833.62a2.123 2.123 0 0 0-2.996 0L47.463 38.994 9.089.62c-.795-.795-2.202-.794-2.995 0L.622 6.096a2.117 2.117 0 0 0 0 2.994l38.374 38.373L.622 85.836a2.117 2.117 0 0 0 0 2.994l5.473 5.476a2.123 2.123 0 0 0 2.995 0l38.374-38.374 38.374 38.374c.397.396.937.62 1.498.62s1.101-.224 1.498-.62l5.473-5.476a2.118 2.118 0 0 0 0-2.994L55.931 47.463z"/></symbol><symbol id="icon-fb" viewBox="0 0 13 20"><path fill-rule="evenodd" clip-rule="evenodd" d="M4.884 1.788A5.25 5.25 0 0 1 8.596.25h2.7a.75.75 0 0 1 .75.75v3.6a.75.75 0 0 1-.75.75h-2.7a.15.15 0 0 0-.15.15v1.95h2.85a.75.75 0 0 1 .728.932l-.9 3.6a.75.75 0 0 1-.728.568h-1.95V19a.75.75 0 0 1-.75.75h-3.6a.75.75 0 0 1-.75-.75v-6.45h-1.95a.75.75 0 0 1-.75-.75V8.2a.75.75 0 0 1 .75-.75h1.95V5.5a5.25 5.25 0 0 1 1.538-3.712Zm3.712-.038a3.75 3.75 0 0 0-3.75 3.75v2.7a.75.75 0 0 1-.75.75h-1.95v2.1h1.95a.75.75 0 0 1 .75.75v6.45h2.1V11.8a.75.75 0 0 1 .75-.75h2.115l.525-2.1h-2.64a.75.75 0 0 1-.75-.75V5.5a1.65 1.65 0 0 1 1.65-1.65h1.95v-2.1h-1.95Z"/></symbol><symbol id="icon-insta" viewBox="0 0 19 20"><path d="M13.558 5a1 1 0 1 1 2 0 1 1 0 0 1-2 0Z"/><path fill-rule="evenodd" clip-rule="evenodd" d="M9.558 5.25a4.75 4.75 0 1 0 0 9.5 4.75 4.75 0 0 0 0-9.5ZM6.308 10a3.25 3.25 0 1 1 6.5 0 3.25 3.25 0 0 1-6.5 0Z"/><path fill-rule="evenodd" clip-rule="evenodd" d="M14.816.833A47.72 47.72 0 0 0 4.3.833C2.288 1.057.664 2.643.427 4.665a45.921 45.921 0 0 0 0 10.67c.237 2.022 1.861 3.607 3.873 3.831 3.467.388 7.05.388 10.517 0 2.012-.224 3.636-1.81 3.872-3.832a45.925 45.925 0 0 0 0-10.669c-.236-2.023-1.86-3.608-3.873-3.832Zm-10.35 1.49a46.221 46.221 0 0 1 10.184 0c1.33.149 2.396 1.199 2.55 2.516a44.421 44.421 0 0 1 0 10.32c-.154 1.318-1.22 2.368-2.55 2.517a46.216 46.216 0 0 1-10.183 0c-1.33-.149-2.396-1.198-2.55-2.516a44.421 44.421 0 0 1 0-10.32c.154-1.318 1.22-2.368 2.55-2.517Z"/></symbol><symbol id="icon-mail" viewBox="0 0 20 16"><path fill-rule="evenodd" clip-rule="evenodd" d="M.804 4.353C.524 6.956.536 9.958.926 12.55a3.138 3.138 0 0 0 2.831 2.66l1.51.131c3.15.274 6.316.274 9.465 0l1.51-.131a3.138 3.138 0 0 0 2.832-2.66c.39-2.592.402-5.594.122-8.197a30.676 30.676 0 0 0-.122-.904A3.138 3.138 0 0 0 16.243.79l-1.51-.13a54.646 54.646 0 0 0-9.466 0l-1.51.13A3.138 3.138 0 0 0 .926 3.45c-.046.301-.086.602-.122.904Zm4.593-2.2a53.147 53.147 0 0 1 9.205 0l1.51.131a1.64 1.64 0 0 1 1.479 1.388l.034.234-5.561 3.09a4.25 4.25 0 0 1-4.128 0l-5.561-3.09.034-.234a1.638 1.638 0 0 1 1.478-1.388l1.51-.131ZM17.808 5.52a29.104 29.104 0 0 1-.217 6.807 1.638 1.638 0 0 1-1.478 1.389l-1.51.131a53.152 53.152 0 0 1-9.206 0l-1.51-.131a1.638 1.638 0 0 1-1.478-1.389 29.1 29.1 0 0 1-.218-6.807l5.016 2.786a5.75 5.75 0 0 0 5.585 0l5.016-2.786Z"/></symbol><symbol id="icon-marker" viewBox="0 0 18 21"><path fill-rule="evenodd" clip-rule="evenodd" d="M4.25 9a4.75 4.75 0 1 1 9.5 0 4.75 4.75 0 0 1-9.5 0ZM9 5.75a3.25 3.25 0 1 0 0 6.5 3.25 3.25 0 0 0 0-6.5Z"/><path fill-rule="evenodd" clip-rule="evenodd" d="M.524 7.857A8.288 8.288 0 0 1 8.784.25h.432a8.288 8.288 0 0 1 8.26 7.607 8.944 8.944 0 0 1-1.99 6.396l-4.793 5.861a2.187 2.187 0 0 1-3.386 0l-4.793-5.861a8.943 8.943 0 0 1-1.99-6.396Zm8.26-6.107A6.788 6.788 0 0 0 2.02 7.98a7.443 7.443 0 0 0 1.656 5.323l4.793 5.862a.687.687 0 0 0 1.064 0l4.793-5.862A7.443 7.443 0 0 0 15.98 7.98a6.788 6.788 0 0 0-6.765-6.23h-.432Z"/></symbol><symbol id="icon-phone" viewBox="0 0 18 18"><path fill-rule="evenodd" clip-rule="evenodd" d="M2.256 6.801a17.216 17.216 0 0 0 8.922 8.663l.012.005.764.34a2.25 2.25 0 0 0 2.74-.737l1.274-1.763a.25.25 0 0 0-.046-.341l-2.225-1.795a.25.25 0 0 0-.357.046l-.866 1.168a.75.75 0 0 1-.912.237 13.388 13.388 0 0 1-6.67-6.67.75.75 0 0 1 .236-.912l1.169-.866a.25.25 0 0 0 .046-.358L4.548 1.593a.25.25 0 0 0-.341-.046l-1.774 1.28a2.25 2.25 0 0 0-.73 2.756L2.254 6.8l.001.001Zm8.33 10.041A18.716 18.716 0 0 1 .892 7.426v-.002l-.555-1.22A3.75 3.75 0 0 1 1.555 1.61L3.33.331a1.75 1.75 0 0 1 2.386.32L7.51 2.876a1.75 1.75 0 0 1-.32 2.505l-.67.496a11.892 11.892 0 0 0 5.118 5.118l.496-.67a1.75 1.75 0 0 1 2.505-.32l2.225 1.795a1.75 1.75 0 0 1 .32 2.387l-1.275 1.764a3.75 3.75 0 0 1-4.566 1.229l-.757-.338Z"/></symbol><symbol id="icon-skype" viewBox="0 0 20 20"><path d="M11.204 9.273c.374.11.73.274 1.057.485.335.22.615.516.816.862.209.384.315.815.307 1.252a2.574 2.574 0 0 1-.478 1.576 3.035 3.035 0 0 1-1.362 1.042 4.67 4.67 0 0 1-1.845.331 4.6 4.6 0 0 1-2.146-.464 3.088 3.088 0 0 1-1.098-.971A2.406 2.406 0 0 1 6 12.044a.818.818 0 1 1 1.637 0c.016.15.073.292.165.412.13.187.303.34.504.447.435.204.913.3 1.393.282a3.1 3.1 0 0 0 1.217-.207c.26-.093.488-.26.656-.478a.942.942 0 0 0 .176-.6.983.983 0 0 0-.097-.478.923.923 0 0 0-.297-.301 2.474 2.474 0 0 0-.624-.282c-.18-.054-.375-.107-.578-.16l-.015-.002a.467.467 0 0 0-.044-.011 11.627 11.627 0 0 0-.407-.098c-.361-.078-.612-.14-.769-.188l-.01-.006a.038.038 0 0 0-.008-.004c-.363-.088-.72-.2-1.07-.334a2.864 2.864 0 0 1-1.176-.877 2.323 2.323 0 0 1-.475-1.467c0-.53.174-1.047.495-1.47.334-.426.781-.75 1.29-.934A4.88 4.88 0 0 1 9.718 5c.47-.005.939.06 1.39.193.39.114.756.3 1.079.548.28.212.512.478.685.784a.817.817 0 1 1-1.441.775 1 1 0 0 0-.266-.28 1.704 1.704 0 0 0-.543-.264 3.099 3.099 0 0 0-.905-.12 3.283 3.283 0 0 0-1.163.177c-.223.076-.42.21-.573.39a.791.791 0 0 0-.168.488.69.69 0 0 0 .131.463c.134.163.308.29.504.366.382.147.775.263 1.175.346.336.074.607.14.837.203.261.065.515.133.744.203Z"/><path fill-rule="evenodd" clip-rule="evenodd" d="M6 .75a5.25 5.25 0 0 0-4.696 7.6A8.85 8.85 0 0 0 11.65 18.696a5.25 5.25 0 0 0 7.045-7.045A8.85 8.85 0 0 0 8.35 1.304 5.231 5.231 0 0 0 6 .749ZM2.25 6a3.75 3.75 0 0 1 5.611-3.256.75.75 0 0 0 .536.081 7.35 7.35 0 0 1 8.778 8.778.75.75 0 0 0 .081.536 3.75 3.75 0 0 1-5.118 5.118.75.75 0 0 0-.535-.082 7.35 7.35 0 0 1-8.778-8.778.75.75 0 0 0-.081-.536A3.73 3.73 0 0 1 2.25 6Z"/></symbol><symbol id="icon-vk" viewBox="0 0 24 16"><path fill-rule="evenodd" clip-rule="evenodd" d="M23.201 12.674A11.392 11.392 0 0 0 21.08 9.71a15.56 15.56 0 0 0-.906-.94l-.037-.037a18.597 18.597 0 0 1-.347-.345 29.719 29.719 0 0 0 3.01-5.237l.034-.075.023-.078c.108-.363.233-1.053-.208-1.676C22.192.677 21.463.56 20.975.56h-2.248a2.232 2.232 0 0 0-2.19 1.443 17.517 17.517 0 0 1-1.806 3.27V2.642c0-.34-.032-.91-.396-1.39-.437-.576-1.068-.69-1.506-.69H9.263a1.813 1.813 0 0 0-1.85 1.683l-.003.045v.044c0 .486.192.844.346 1.069.069.1.143.193.189.25l.01.014c.05.062.083.103.117.148.087.12.213.302.248.776v1.473a19.785 19.785 0 0 1-1.75-3.791l-.008-.022-.009-.022c-.121-.318-.316-.782-.707-1.137-.457-.414-.997-.53-1.488-.53h-2.28C1.581.56.983.677.536 1.149c-.44.463-.49 1.019-.49 1.314v.133l.028.13a19.43 19.43 0 0 0 3.802 8.02 10.15 10.15 0 0 0 7.892 4.692l.042.003h.042c.726 0 1.482-.063 2.051-.442.768-.511.828-1.297.828-1.688v-1.138c.197.159.441.373.74.661.362.363.65.676.897.95l.132.147h.001c.192.214.38.424.552.597.217.217.483.457.818.633.363.192.743.279 1.147.279H21.3c.48 0 1.17-.114 1.655-.676.528-.612.487-1.363.321-1.902l-.03-.097-.045-.091Zm-5.719.105a26.137 26.137 0 0 0-.958-1.013l-.003-.004c-1.356-1.307-1.99-1.535-2.438-1.535-.238 0-.502.027-.673.24a.774.774 0 0 0-.147.349 2.452 2.452 0 0 0-.032.443v2.052c0 .255-.042.361-.16.44-.157.105-.492.19-1.21.19a8.65 8.65 0 0 1-6.753-4.053L5.1 9.876l-.009-.012a17.93 17.93 0 0 1-3.544-7.426c.003-.131.031-.209.077-.257.048-.05.162-.12.454-.12h2.28c.254 0 .385.055.48.14.107.098.2.263.312.558.56 1.646 1.317 3.185 2.033 4.317.359.566.711 1.037 1.029 1.37.158.166.314.303.462.401.144.095.307.17.474.17.088 0 .192-.01.291-.054a.524.524 0 0 0 .249-.232c.104-.187.132-.464.132-.828V4.532c-.052-.819-.3-1.279-.54-1.606a5.648 5.648 0 0 0-.15-.193l-.012-.016a2.7 2.7 0 0 1-.123-.16.39.39 0 0 1-.085-.215.313.313 0 0 1 .325-.281h3.594c.206 0 .275.05.31.096.05.065.092.2.092.484V7.17c0 .538.248.902.608.902.415 0 .713-.251 1.236-.774l.008-.009.008-.01a19.013 19.013 0 0 0 2.84-4.721l.005-.013a.732.732 0 0 1 .74-.485h2.298c.313 0 .416.08.449.127.035.05.06.158 0 .368a28.209 28.209 0 0 1-3.029 5.2l-.007.011c-.116.177-.243.373-.261.598-.02.241.085.46.267.696.134.197.408.466.687.739l.026.025c.292.286.609.596.863.896l.007.008.007.008a9.89 9.89 0 0 1 1.865 2.586c.077.26.03.394-.03.462-.069.08-.224.156-.518.156h-2.282a.91.91 0 0 1-.447-.105 1.96 1.96 0 0 1-.454-.365 14.649 14.649 0 0 1-.487-.527 80.276 80.276 0 0 0-.148-.164Z"/></symbol><symbol id="icon-yt" viewBox="0 0 22 16"><path fill-rule="evenodd" clip-rule="evenodd" d="M9.137 4.356A.75.75 0 0 0 8.001 5v6a.75.75 0 0 0 1.136.643l5-3a.75.75 0 0 0 0-1.287l-5-3ZM12.293 8 9.501 9.675v-3.35L12.293 8Z"/><path fill-rule="evenodd" clip-rule="evenodd" d="M15.782.64A64.498 64.498 0 0 0 5.72.64L3.48.817A2.975 2.975 0 0 0 .777 3.292a28.565 28.565 0 0 0 0 9.415 2.975 2.975 0 0 0 2.703 2.476l2.24.175c3.35.262 6.713.262 10.062 0l2.24-.175a2.975 2.975 0 0 0 2.703-2.476c.52-3.117.52-6.298 0-9.415A2.975 2.975 0 0 0 18.022.816l-2.24-.175ZM5.837 2.137a62.998 62.998 0 0 1 9.828 0l2.24.176a1.473 1.473 0 0 1 1.34 1.227 27.066 27.066 0 0 1 0 8.92 1.475 1.475 0 0 1-1.34 1.229l-2.24.175a62.98 62.98 0 0 1-9.828 0l-2.24-.175a1.475 1.475 0 0 1-1.34-1.228 27.065 27.065 0 0 1 0-8.92 1.475 1.475 0 0 1 1.34-1.228l2.24-.176Z"/></symbol></svg>