<svg width="69" height="91" fill="none" xmlns="http://www.w3.org/2000/svg"><path d="M7.964 1.336 2.898 67.933l50.32 3.916 5.066-66.596-50.32-3.917Z" fill="#CCB7A3"/><path opacity=".1" d="m52.66 14.112-16.08 2.065a19.094 19.094 0 0 1-7.766-.604l-15.579-4.528c-3.098-.782-5.188-3.836-4.932-7.21l.155-2.03 49.786 3.44-.123 2.583c-.256 3.373-2.28 5.99-5.462 6.284Z" fill="#272525"/><path d="m52.126 13.64-16.079 2.065a19.08 19.08 0 0 1-7.767-.604l-15.578-4.528c-3.1-.785-5.189-3.838-4.932-7.208l.154-2.032 50.32 3.913-.155 2.032c-.256 3.373-2.786 6.068-5.963 6.361Z" fill="#D3BFAF"/><path d="M31.558 27.589a3.979 3.979 0 0 1-2.72-1.398 4.072 4.072 0 0 1-.95-2.933l.732-9.64a4.07 4.07 0 0 1 .42-1.516c.237-.472.563-.893.961-1.238a3.946 3.946 0 0 1 4.4-.535c.467.24.883.57 1.224.973a4.049 4.049 0 0 1 .949 2.935l-.733 9.64a4.057 4.057 0 0 1-1.383 2.751 3.964 3.964 0 0 1-2.9.96Zm1.319-17.338a3.62 3.62 0 0 0-2.65.877 3.705 3.705 0 0 0-1.263 2.514l-.735 9.641a3.726 3.726 0 0 0 .866 2.681c.311.367.691.67 1.118.888a3.612 3.612 0 0 0 4.02-.489 3.717 3.717 0 0 0 1.261-2.516l.732-9.639a3.718 3.718 0 0 0-.867-2.679 3.634 3.634 0 0 0-2.483-1.278Z" fill="#F9DD82"/><path d="M35.399 15.302a3.892 3.892 0 0 0 0-5.46 3.785 3.785 0 0 0-5.397 0 3.892 3.892 0 0 0 0 5.46 3.785 3.785 0 0 0 5.397 0Z" fill="#AA7355"/><path d="M33.089 14.508a1.978 1.978 0 0 0 1.528-2.332 1.957 1.957 0 0 0-2.306-1.546 1.978 1.978 0 0 0-1.528 2.333 1.956 1.956 0 0 0 2.306 1.545Z" fill="#BDB39B"/><path d="M33.293 13.273a.928.928 0 0 0 .099-1.298.903.903 0 0 0-1.283-.1.928.928 0 0 0-.099 1.298.903.903 0 0 0 1.283.1Z" fill="#434244"/><path d="M35.566 25.185c.255-2.116-1.235-4.04-3.328-4.298-2.092-.257-3.994 1.25-4.248 3.367-.255 2.116 1.235 4.04 3.328 4.298 2.092.257 3.994-1.25 4.248-3.367Z" fill="#AA7355"/><path d="M33.05 26.22c.82-.71.915-1.96.212-2.79a1.94 1.94 0 0 0-2.758-.214 1.994 1.994 0 0 0-.212 2.79 1.94 1.94 0 0 0 2.758.214Z" fill="#BDB39B"/><path d="M32.684 24.784a.926.926 0 0 1-.624.805.9.9 0 0 1-.974-.276.926.926 0 0 1 .245-1.401.902.902 0 0 1 1.137.203.922.922 0 0 1 .216.669Z" fill="#434244"/><path d="M47.259 0H0v65.94h47.259V0Z" fill="#FFFFF5"/><path d="M14.524 13.122h26.5c.719 0 .719-1.13 0-1.13h-26.5c-.72 0-.72 1.13 0 1.13ZM6.15 19.82h34.873c.72 0 .72-1.13 0-1.13H6.15c-.72 0-.72 1.13 0 1.13Zm0 6.697h34.873c.72 0 .72-1.13 0-1.13H6.15c-.72 0-.72 1.13 0 1.13Zm0 6.698h34.873c.72 0 .72-1.131 0-1.131H6.15c-.72 0-.72 1.13 0 1.13Zm0 6.697h34.873c.72 0 .72-1.13 0-1.13H6.15c-.72 0-.72 1.13 0 1.13Z" fill="#BBBCBF"/><path d="M6.924 56.722h14.908c.406 0 .406-.636 0-.636H6.924c-.405 0-.405.636 0 .636Z" fill="#51927E"/><path d="M36.856 49.376c-1.749-.075-3.58-.066-5.086.634-1.508.7-2.553 2.302-1.914 3.737.244.547 4.07 1.544 4.514 1.994 3.395 3.445 3.414 6.354 6.808 9.798 1.464-.763 2.279-2.182 2.808-3.6.457-1.225.753-2.496 1.047-3.764.459-1.976.872-4.171-.381-5.944-1.547-2.188-4.895-2.732-7.796-2.855Z" fill="#E5CAB1"/><path d="m51.372 66.348-.993-4.619-.788-7.594-9.2-6.896-11.384 3.682s-1.266 1.568.521 2.17c1.787.603 10.524-.602 10.524-.602l2.978 7.23.397 11.854 2.78 7.833 9.533-4.424-4.368-8.634Z" fill="#EDD0B3"/><path d="m24.092 55.79-.65-.034c-.05 0-.06-.045-.018-.072l.637-.403 1.932-.667.23.77-2.131.405Z" fill="#D0D1D3"/><path d="m27.668 55.624-2.457.125c-.617.032-.8-.628-.25-.905l2.245-1.145 24.901-6.406.59 2.468-25.03 5.863Z" fill="#3B464C"/><path d="m52.38 49.94-.652-2.695 2.075-.512c.328-.082.67.16.761.538l.32 1.323c.088.38-.1.754-.429.835l-2.075.51Z" fill="#7E8587"/><path d="m53.964 48.731-.28-1.156 1.954-.484c.31-.076.592-.006.632.157l.137.566c.04.164-.177.36-.49.434l-1.953.483Zm-6.614 1.723-.066-.27c-.028-.117.069-.24.215-.278l4.804-1.188c.147-.036.289.03.317.148l.065.269c.028.118-.068.242-.214.278l-4.802 1.188c-.15.036-.291-.03-.32-.147Z" fill="#7E8587"/><path d="m39.474 50.42-.868.214.584 2.416.868-.214-.584-2.417Z" fill="#A36652"/><path d="M43.632 71.622c-.33-.107-.542-.672-.817-1.054-.318-.44-1.243-.988-1.629-1.37-1.456-1.45-2.45-2.655-4.066-3.92-1.257-.982-3.28-2.842-3.299-3.048-.05-.594-.29-1.154-.362-1.746l-.594-4.85c-.152-1.241-.39-3.86 1.165-4.386 1.618-.543 2.461 1.697 2.54 2.926.072 1.137-.07 2.334.394 3.372.572 1.282 1.906 1.991 3.025 2.827 2.777 2.077 3.975.524 4.695 8.956.052.619.034 1.511-.424 2.003-.255.279-.458.346-.628.29Z" fill="#EDD0B3"/><path d="m44.88 81.923-2.424-6.277 11.366-8.102 3.78 8.595-12.603 6.112-.118-.328Z" fill="#fff"/><path d="M57.499 70.648s-10.999 10.97-13.493 12.4L45.837 91H69L57.499 70.648Z" fill="#2E4661"/><path d="M45.607 78.094a.758.758 0 0 0 0-1.063.737.737 0 0 0-1.05 0 .758.758 0 0 0 0 1.063c.29.293.76.293 1.05 0Z" fill="#59595B"/><path d="M18.949 53.844a3.673 3.673 0 0 1-1.639.215l-.078-.227c-.059-.171-.337-.207-.377 0-.014.065-.146.643-.363.359-.126-.167-.055-.429-.033-.618.025-.207.021-.469-.117-.639-.161-.195-.602-.394-.806-.136-.32.4.16.943-.217 1.377-.222.255-.621.09-.823-.116.266-.46.212-.98-.025-1.444a.204.204 0 0 0-.28-.077.205.205 0 0 0-.075.077c-.192.41-.299.962-.13 1.399a.577.577 0 0 1-.62.04 2.37 2.37 0 0 0 .292-1.922.219.219 0 0 0-.178-.154.213.213 0 0 0-.213.102c-.316.45-.614.925-.578 1.5.01.17.058.335.143.481a1.896 1.896 0 0 1-1.252.643l-.024-.09a7.123 7.123 0 0 0-.113-.354c0-.276.005-.552.016-.828a3.84 3.84 0 0 1 .141-.21 8.789 8.789 0 0 0 1.425-5.81.213.213 0 0 0-.13-.19.207.207 0 0 0-.225.044c-.432.352-.63.86-.793 1.38a18.82 18.82 0 0 0-.808 4.622l-.05.071c-.233.33-.1.69.027 1.034 0 .18.004.36.011.539a.206.206 0 0 0 .2.202h.009a8.807 8.807 0 0 1-.08 4.448c-.402-.19-.457-2.33-.468-2.619-.015-.745.012-1.491.082-2.233a.18.18 0 0 0 .083-.192l-.057-.31c-.033-.187-.337-.188-.37 0-.16.898-.178 1.828-.149 2.735.013.475.054.948.108 1.42.044.382.07.793.219 1.15.173.416.772.766.949.172a9.105 9.105 0 0 0 .109-4.583 2.316 2.316 0 0 0 1.434-.729c.081.06.17.109.266.144.258.096.581.009.824-.161a.974.974 0 0 0 .143.121c.489.333 1.265.285 1.464-.374.1-.329.068-.656.008-.988a.132.132 0 0 1 .178.043c.119.095.052.427.037.559-.021.19-.035.407.06.583.126.234.314.408.589.394.166-.01.288-.132.374-.286a.25.25 0 0 0 .097.03 3.93 3.93 0 0 0 1.888-.206c.24-.084.135-.476-.105-.388Zm-7.22-2.853c.105-.605.247-1.202.41-1.796.125-.449.247-.92.512-1.297a8.52 8.52 0 0 1-1.124 4.643c.046-.518.113-1.034.202-1.55Zm1.592 1.796a1.967 1.967 0 0 1-.22.886c-.065-.273.06-.598.22-.883v-.003Zm6.641 1.901a.18.18 0 0 0 0 .35c.223.003.223-.35 0-.35Z" fill="#3B464C"/></svg>