<svg width="81" height="72" fill="none" xmlns="http://www.w3.org/2000/svg"><path fill-rule="evenodd" clip-rule="evenodd" d="M36.125 16.708c-.168-.844.338-.844.844-.506.676.506 1.013 1.18 1.688 1.687 1.689 1.519 3.546-.675 2.195-2.025-1.013-.844-1.857-1.688-1.857-2.869v-1.013h1.857v.17c0 .168 0 .337.169.674.506 1.013 1.35 1.35 2.026 1.688 2.87 2.025 1.519 5.907-1.857 6.582-1.52.337-2.87-.17-3.883-1.52-.338-.337-.506-1.012-.675-1.687-.169-.506-.338-.675-.507-1.181Z" fill="#808184"/><path fill-rule="evenodd" clip-rule="evenodd" d="M41.359 9.788v2.194H38.15V9.788h3.21Z" fill="#6E6F71"/><path fill-rule="evenodd" clip-rule="evenodd" d="M44.735 2.7 39.67 0l-4.895 2.7 2.7 7.088h4.56l2.7-7.088Z" fill="#E67C25"/><path fill-rule="evenodd" clip-rule="evenodd" d="M35.28 3.882 38.32.844 39.67 0l1.013.506-4.896 5.063-.506-1.687Zm1.183 3.206 5.74-5.738 1.35.844-6.584 6.582-.506-1.688Zm1.688 2.7 6.246-6.244-1.35 3.544-2.701 2.7H38.15Z" fill="#6E6F71"/><path fill-rule="evenodd" clip-rule="evenodd" d="M37.982 17.383c.338-.169.507-.169.845-.338.506-.168 1.181-.168 1.688.17l37.138 15.863h-3.377L40.008 18.564h-.506c-.338 0-.675-.169-1.013-.506a2.333 2.333 0 0 0-.507-.675ZM1.519 33.077l35.113-15.02c.168.506.168 1.013.506 1.35L5.064 33.077H1.52Z" fill="#A7A9AC"/><path fill-rule="evenodd" clip-rule="evenodd" d="M0 33.078h80.016v38.14H56.382v-1.181H51.15v1.18h-8.44v-1.18h-5.402v1.18h-8.44v-1.18h-5.234v1.18H0v-38.14Z" fill="#E67C25"/><path d="M4.558 34.09H2.701v34.934h1.857V34.09Zm3.713 0H6.415v34.934H8.27V34.09Zm3.546 0H9.96v34.934h1.857V34.09Zm3.713 0h-1.856v34.934h1.857V34.09Zm3.546 0h-1.857v34.934h1.857V34.09Zm3.713 0h-1.857v34.934h1.857V34.09Zm3.714 0h-1.857v34.934h1.857V34.09Zm3.545 0h-1.857v34.934h1.857V34.09Zm3.714 0h-1.857v34.934h1.857V34.09Zm3.545 0H35.45v34.934h1.857V34.09Zm3.714 0h-1.857v34.934h1.857V34.09Zm3.544 0H42.71v34.934h1.856V34.09Zm3.715 0h-1.857v34.934h1.857V34.09Zm3.545 0h-1.857v34.934h1.857V34.09Zm3.713 0h-1.857v34.934h1.857V34.09Zm3.546 0h-1.857v34.934h1.857V34.09Zm3.713 0H60.94v34.934h1.857V34.09Zm3.545 0h-1.857v34.934h1.857V34.09Zm3.714 0h-1.857v34.934h1.857V34.09Zm3.545 0h-1.857v34.934h1.857V34.09Zm3.714 0h-1.857v34.934h1.857V34.09Z" fill="#DC662B"/></svg>