<svg width="85" height="70" fill="none" xmlns="http://www.w3.org/2000/svg"><path fill-rule="evenodd" clip-rule="evenodd" d="M55.395 52.413v-38.85H9.75v38.85h45.645Z" fill="#EDCC88"/><path d="M55.396 13.563h-10.74v38.709h10.74v-38.71Z" fill="#D8B05C"/><path fill-rule="evenodd" clip-rule="evenodd" d="M27.698 38.992c2.12.141 3.957 1.554 4.522 3.532-.424-.424-.99-.565-1.554-.565-.566 0-1.13.282-1.555.565-.424-.282-.848-.565-1.413-.565v5.651c0 .141 0 .282.141.424.142.141.283.141.424.141.142 0 .283-.141.424-.141.141-.142.141-.283.141-.424h.425c0 .282-.142.565-.283.848a1.08 1.08 0 0 1-.707.282 1.08 1.08 0 0 1-.706-.282c-.142-.142-.283-.424-.283-.848v-5.651c-.565 0-.99.282-1.413.565-.424-.424-.99-.565-1.555-.565s-1.13.282-1.554.565c.707-1.978 2.402-3.532 4.522-3.532v-.847h.424v.847Zm6.642 8.618h7.63v1.13h-7.63v-1.13Zm6.359-.424v-6.357h.565l-1.13-2.12-1.131 2.12h.565v6.357h1.13Zm-4.099 0v-6.357h.566l-1.13-2.12-1.131 2.12h.565v6.357h1.13Zm-16.11-8.194c-.423 2.967-1.836 5.227-3.674 5.51v3.532h1.838v.847h-4.099v-.847h1.837v-3.532c-1.837-.283-3.25-2.543-3.674-5.51h5.794l.424 1.13h-.565l.565 1.978-.141-1.695h.424l-.142-1.413h1.414Z" fill="#59595B"/><path fill-rule="evenodd" clip-rule="evenodd" d="M24.447 13.563h4.946v7.487l-.848.141-.848-.565-1.271.707-.99-.707-.989.707v-7.77Zm24.307 0h2.544v7.487l-.424.141-.424-.565-.566.707-.565-.707-.565.707v-7.77Z" fill="#A5896B"/><path d="M80.974 52.413H0v9.748h80.974v-9.748Z" fill="#E67C25"/><path fill-rule="evenodd" clip-rule="evenodd" d="M5.936 69.366h8.479v-1.695H66.56v1.695h8.479v-7.205H5.936v7.205Z" fill="#414243"/><path d="M72.495 21.474h-3.25v30.939h3.25v-30.94Z" fill="#BDBDBE"/><path d="M74.897 21.474h-2.402v30.939h2.402v-30.94Z" fill="#808184"/><path d="M79.702 19.355H65.57v1.977h14.132v-1.977Z" fill="#DC662B"/><path fill-rule="evenodd" clip-rule="evenodd" d="M72.07 0a12.664 12.664 0 0 1 12.72 12.715c0 2.402-.707 4.662-1.837 6.64H61.048c-1.13-1.978-1.837-4.239-1.837-6.64C59.352 5.792 65.005 0 72.07 0Z" fill="#E67C25"/><path fill-rule="evenodd" clip-rule="evenodd" d="m72.07 12.573-9.326 3.391c-.424-1.13-.565-2.26-.565-3.39 0-5.51 4.38-9.89 9.892-9.89 5.511 0 9.892 4.38 9.892 9.89 0 1.13-.141 2.26-.566 3.39l-9.326-3.39Z" fill="#FDF9D7"/><path fill-rule="evenodd" clip-rule="evenodd" d="m65.853 5.51 5.087 7.063 1.414-1.13-6.501-5.933Z" fill="#EC2027"/></svg>