<svg width="71" height="94" fill="none" xmlns="http://www.w3.org/2000/svg"><path fill-rule="evenodd" clip-rule="evenodd" d="M23.323 0h46.94v93.853h-2.64V2.787H26.11v91.067h-2.787V0Z" fill="#BBBDBF"/><path d="M67.622 2.786H26.11v91.067h41.512V2.786Z" fill="#58595B"/><path fill-rule="evenodd" clip-rule="evenodd" d="M26.11 2.786c6.455.587 12.909 1.173 19.216 1.76 6.308.586 12.469 1.173 18.483 1.76V94H25.817V48.393c.293-15.251.293-30.502.293-45.607Z" fill="#E6E7E8"/><path fill-rule="evenodd" clip-rule="evenodd" d="M57.941 64.964v19.064l-25.523-.293v-19.65l25.523.88Z" fill="#D0D2D3"/><path fill-rule="evenodd" clip-rule="evenodd" d="M57.941 64.964v19.064h-1.32v-17.89l1.32-1.174Z" fill="#A6A8AB"/><path fill-rule="evenodd" clip-rule="evenodd" d="M57.941 38.861v18.917c-4.107-.146-8.36-.293-12.615-.44-4.254-.146-8.507-.293-12.908-.44V37.394c4.4.294 8.654.44 12.908.734 4.254.293 8.508.44 12.615.733Z" fill="#D0D2D3"/><path fill-rule="evenodd" clip-rule="evenodd" d="M57.941 38.86v18.918h-1.32V40.181l1.32-1.32Z" fill="#A6A8AB"/><path fill-rule="evenodd" clip-rule="evenodd" d="M32.418 10.852c4.4.44 8.654.733 12.908 1.026 4.254.293 8.362.733 12.615 1.027v18.77c-4.107-.293-8.36-.586-12.615-.88-4.254-.293-8.507-.586-12.908-.88V10.853Z" fill="#D0D2D3"/><path fill-rule="evenodd" clip-rule="evenodd" d="M57.941 12.905v18.77h-1.32V14.078l1.32-1.173Z" fill="#A6A8AB"/><path fill-rule="evenodd" clip-rule="evenodd" d="M0 93.853h51.047V50.447H0v43.407Z" fill="#EDCC88"/><path d="M51.194 50.446H39.166v43.407h12.028V50.446Z" fill="#D8B05C"/><path fill-rule="evenodd" clip-rule="evenodd" d="M20.242 78.895c2.348.147 4.401 1.76 5.135 3.96-.44-.44-1.174-.733-1.76-.733-.734 0-1.32.293-1.76.586-.44-.293-1.028-.586-1.468-.586v6.305c0 .147.147.44.147.587.147.147.293.147.44.147.147 0 .44-.147.44-.147.147-.147.147-.293.147-.587h.44c0 .294-.147.734-.294.88-.146.294-.586.44-.88.44-.293 0-.586-.146-.88-.44-.147-.293-.293-.586-.293-.88v-6.305c-.587 0-1.174.293-1.467.586-.44-.44-1.174-.586-1.76-.586a2.43 2.43 0 0 0-1.76.733c.733-2.2 2.787-3.96 5.133-3.96v-.88h.44v.88Zm7.335 9.532h8.508v1.32h-8.508v-1.32Zm7.187-.44v-7.04h.587l-1.173-2.345-1.174 2.346h.587v7.039h1.173Zm-4.694 0v-7.04h.587l-1.173-2.345-1.174 2.346h.587v7.039h1.173Zm-18.042-9.238c-.44 3.372-2.053 5.865-4.107 6.159v3.96h1.907v.879H5.281v-.88h1.907v-3.96c-2.054-.293-3.667-2.786-4.107-6.158h6.454l.586 1.173h-.586l.586 2.2-.146-1.907h.44l-.147-1.466h1.76Z" fill="#59595B"/><path fill-rule="evenodd" clip-rule="evenodd" d="M16.43 50.446h5.573v8.359l-.88.146-1.027-.586-1.32.733-1.173-.733-1.174.733v-8.652Zm27.283 0H46.5v8.359l-.44.146-.44-.586-.734.733-.586-.733-.587.733v-8.652Z" fill="#A5896B"/><path fill-rule="evenodd" clip-rule="evenodd" d="M61.315 49.86c.733 0 1.32-.734 1.32-1.614 0-.88-.587-1.613-1.32-1.613-.734 0-1.32.733-1.32 1.613.146.88.586 1.614 1.32 1.614Z" fill="#788084"/><path fill-rule="evenodd" clip-rule="evenodd" d="M62.782 50.446c1.027 0 1.907-1.026 1.907-2.346s-.88-2.347-1.907-2.347c-1.027 0-1.907 1.027-1.907 2.347s.88 2.346 1.907 2.346Z" fill="#fff"/></svg>