<svg width="62" height="92" fill="none" xmlns="http://www.w3.org/2000/svg"><path d="M44.026 7.526c.982.164 1.8.491 2.619.818.818.328 1.636.819 2.291 1.31 3.6 2.454 5.728 6.708 5.728 11.126v3.6h-1.473v-3.6c0-4.09-1.8-7.69-5.073-9.981-.655-.491-1.31-.818-1.964-1.146-.655-.327-1.473-.654-2.292-.818l.164-1.309Zm-26.513 0c-.982.164-1.8.491-2.619.818-.818.328-1.636.819-2.291 1.31-3.6 2.454-5.728 6.708-5.728 11.126v3.6h1.473v-3.6c0-4.09 1.8-7.69 5.073-9.981.655-.491 1.31-.818 1.964-1.146.655-.327 1.473-.654 2.292-.818l-.164-1.309Z" fill="#414243"/><path fill-rule="evenodd" clip-rule="evenodd" d="M30.933 0c11.62 0 19.312 9.163 19.64 20.453.327 11.453 2.291 31.251 7.528 42.54-6.874-3.435-12.766-6.544-17.84-10.47l-9.328-.819-9.33.818c-4.255 3.109-8.837 5.89-14.238 8.672 5.073-12.272 4.091-27.815 4.091-40.741C11.293 9.163 19.312 0 30.933 0Z" fill="#A5896B"/><path fill-rule="evenodd" clip-rule="evenodd" d="M2.128 63.812c7.692-3.6 13.911-7.036 19.312-11.126l9.33-.818v39.596C21.44 91.627 0 81.319 0 66.43c0-.982.982-2.127 2.128-2.618Z" fill="#C4CDD3"/><path fill-rule="evenodd" clip-rule="evenodd" d="M59.575 63.812c-7.693-3.6-13.912-7.036-19.313-11.126l-9.329-.818v39.596c9.33.163 30.77-10.145 30.77-25.034-.164-.982-1.146-2.127-2.128-2.618Z" fill="#9CA4AB"/><path fill-rule="evenodd" clip-rule="evenodd" d="M54.01 67.902 40.098 53.995l-9.329.654v31.906l15.057-15.544-2.455-5.236 10.639 2.127Z" fill="#fff"/><path fill-rule="evenodd" clip-rule="evenodd" d="M7.692 67.902 21.44 53.995l9.33.654v31.906L15.711 71.011l2.619-5.236-10.639 2.127Z" fill="#fff"/><path fill-rule="evenodd" clip-rule="evenodd" d="M30.77 48.922V85.41c-5.239-7.69-10.64-17.508-10.149-23.89.818-4.909.982-11.944.982-17.834 2.782 2.617 6.22 5.072 9.165 5.235Z" fill="#FFE5CA"/><path fill-rule="evenodd" clip-rule="evenodd" d="M30.77 43.36v42.05c5.237-7.69 10.638-17.508 10.147-23.889-.818-4.908-.982-11.944-.982-17.834-2.946 2.617-6.22 5.072-9.329 5.236v-5.564h.164Z" fill="#FDCF9D"/><path fill-rule="evenodd" clip-rule="evenodd" d="M30.77 52.522c-3.438 0-7.857-4.909-9.33-7.363v-1.472c2.946 2.617 6.22 5.072 9.33 5.235v3.6Z" fill="#E5BD90"/><path fill-rule="evenodd" clip-rule="evenodd" d="M30.769 52.522c3.437 0 7.856-4.908 9.329-7.363v-1.472c-2.946 2.618-6.22 5.072-9.329 5.236v-5.564 9.163Z" fill="#E5BD90"/><path fill-rule="evenodd" clip-rule="evenodd" d="M30.77 16.035v32.887c-4.092-.163-8.675-4.418-11.948-7.854-5.238-5.235-7.202-12.926-1.8-26.833 1.636-.491 2.782-1.8 4.91-2.455 5.4-1.963 6.71 1.473 7.692 2.946.327.49.654.818 1.145 1.309Z" fill="#FFE5CA"/><path fill-rule="evenodd" clip-rule="evenodd" d="M30.769 16.035v32.887c4.092-.163 8.674-4.417 11.948-7.853 4.419-4.418 6.383-10.472 3.928-20.29-.982-.817-1.8-1.963-2.292-3.926-5.892 2.29-10.965.981-13.584-.818Z" fill="#FDCF9D"/><path fill-rule="evenodd" clip-rule="evenodd" d="M12.766 19.471h.818c.655 0 1.31.655 1.31 1.31V33.87c0 .654-.655 1.309-1.31 1.309h-.818c-1.146 0-2.128-.982-2.128-2.127V21.598c0-1.145.982-2.127 2.128-2.127Zm36.498 0h-.818c-.655 0-1.31.655-1.31 1.31V33.87c0 .654.655 1.309 1.31 1.309h.818c1.146 0 2.128-.982 2.128-2.127V21.598c0-1.145-.982-2.127-2.128-2.127Z" fill="#6E6F71"/><path fill-rule="evenodd" clip-rule="evenodd" d="M9.82 33.215c-2.291-.982-3.928-3.272-3.928-5.89s1.637-4.909 3.928-5.89v11.78Zm42.39 0c2.29-.982 3.928-3.272 3.928-5.89s-1.637-4.909-3.928-5.89v11.78Z" fill="#DC662B"/><path fill-rule="evenodd" clip-rule="evenodd" d="M20.95 59.067v3.436c.49 4.745 5.237 14.235 9.82 20.616v2.29c-5.238-7.69-10.639-17.507-10.148-23.888.164-.818.164-1.636.327-2.454Z" fill="#E5BD90"/><path d="M54.828 28.633v3.927c0 .818-.164 1.636-.328 2.455-.163.818-.49 1.472-.818 2.29-1.8 3.6-5.565 5.89-9.984 6.382l-6.219.654-.164-1.473 6.22-.654c3.928-.327 7.201-2.454 8.838-5.563.327-.655.49-1.31.654-1.964.164-.654.164-1.472.164-2.127v-3.927c.164-.654 1.637-.654 1.637 0Z" fill="#414243"/><path fill-rule="evenodd" clip-rule="evenodd" d="M36.007 46.632a2.933 2.933 0 0 0 2.946-2.945 2.933 2.933 0 0 0-2.946-2.945 2.933 2.933 0 0 0-2.946 2.945 2.933 2.933 0 0 0 2.946 2.945Z" fill="#6E6F71"/></svg>