<svg width="115" height="61" fill="none" xmlns="http://www.w3.org/2000/svg"><path fill-rule="evenodd" clip-rule="evenodd" d="M34.859 0h-7.347l-6.253 12.19h8.754V7.657h4.846V0Z" fill="#E67C25"/><path fill-rule="evenodd" clip-rule="evenodd" d="m26.575 2.032-1.72 3.125h10.004V2.032h-8.285Z" fill="#414243"/><path fill-rule="evenodd" clip-rule="evenodd" d="M44.708 18.284h41.737v19.847h-12.35v-.625h-2.813v.625h-4.377v-.625h-2.658v.625h-4.533v-.625h-2.657v.625h-12.35V18.284Z" fill="#E67C25"/><path d="M47.052 18.753h-.938V36.88h.938V18.753Zm1.876 0h-.938V36.88h.938V18.753Zm1.876 0h-.938V36.88h.938V18.753Zm2.032 0h-.938V36.88h.938V18.753Zm1.875 0h-.938V36.88h.938V18.753Zm1.877 0h-.938V36.88h.938V18.753Zm1.875 0h-.938V36.88h.938V18.753Zm1.877 0h-.94V36.88h.938V18.753Zm1.875 0h-.938V36.88h.938V18.753Zm1.875 0h-.937V36.88h.938V18.753Zm1.877 0h-.938V36.88h.938V18.753Zm1.875 0h-.938V36.88h.938V18.753Zm1.876 0h-.938V36.88h.938V18.753Zm2.032 0h-.938V36.88h.938V18.753Zm1.876 0h-.938V36.88h.938V18.753Zm1.876 0h-.938V36.88h.938V18.753Zm1.876 0h-.938V36.88h.938V18.753Zm1.876 0h-.938V36.88h.938V18.753Zm1.876 0h-.939V36.88h.938V18.753Zm1.875 0h-.938V36.88h.938V18.753Zm1.876 0h-.938V36.88h.938V18.753Z" fill="#DC662B"/><path fill-rule="evenodd" clip-rule="evenodd" d="M71.282 34.85h43.456l-1.876 3.75c-8.128 2.97-20.165 12.502-26.105 22.035h-74.72L0 41.257V38.13h68.78c1.251 0 2.345-1.094 2.345-2.344v-.937h.157Z" fill="#414243"/><path fill-rule="evenodd" clip-rule="evenodd" d="M91.76 54.071c-1.877 2.188-3.596 4.376-5.003 6.564h-74.72L7.972 54.07H91.76Zm4.376-15.002c.626 0 1.095.625.782 1.563-.156.781-.938 1.562-1.563 1.562-.626 0-1.095-.625-.782-1.562.157-.782.782-1.563 1.563-1.563Z" fill="#E67C25"/><path d="M30.013 12.19H10.786v26.097h19.227V12.19Z" fill="#D8B05C"/><path fill-rule="evenodd" clip-rule="evenodd" d="M42.206 38.131h-20.79v-20.16h8.598V7.659h12.192V38.13Z" fill="#D1D3D2"/><path d="M42.206 11.096h-9.692v3.281h9.692v-3.281Z" fill="#A4C3D1"/><path d="M26.262 20.628h-1.25v1.876h1.25v-1.876Zm0 4.063h-1.25v1.876h1.25V24.69Zm0 3.907h-1.25v1.875h1.25v-1.875Zm3.595-7.97h-1.25v1.876h1.25v-1.876Zm0 4.063h-1.25v1.876h1.25V24.69Zm0 3.907h-1.25v1.875h1.25v-1.875Zm3.595-7.97h-1.25v1.876h1.25v-1.876Zm0 4.063h-1.25v1.876h1.25V24.69Zm0 3.907h-1.25v1.875h1.25v-1.875Zm3.752-7.97h-1.25v1.876h1.25v-1.876Zm0 4.063h-1.25v1.876h1.25V24.69Zm0 3.907h-1.25v1.875h1.25v-1.875Z" fill="#939597"/><path fill-rule="evenodd" clip-rule="evenodd" d="M23.917 46.883c1.094 0 2.032-.938 2.032-2.032s-.938-2.032-2.032-2.032-2.032.938-2.032 2.032.938 2.032 2.032 2.032Zm8.753 0c1.095 0 2.033-.938 2.033-2.032s-.938-2.032-2.032-2.032c-1.095 0-2.032.938-2.032 2.032-.157 1.094.937 2.032 2.032 2.032Zm8.754 0c1.094 0 2.032-.938 2.032-2.032s-.938-2.032-2.032-2.032-2.032.938-2.032 2.032c-.156 1.094.782 2.032 2.032 2.032Zm8.755 0c1.094 0 2.032-.938 2.032-2.032s-.938-2.032-2.032-2.032c-1.095 0-2.033.938-2.033 2.032-.156 1.094.782 2.032 2.033 2.032Zm8.753 0c1.095 0 2.033-.938 2.033-2.032s-.938-2.032-2.033-2.032c-1.094 0-2.032.938-2.032 2.032-.156 1.094.782 2.032 2.032 2.032Zm8.754 0c1.095 0 2.033-.938 2.033-2.032s-.938-2.032-2.033-2.032c-1.094 0-2.032.938-2.032 2.032-.156 1.094.782 2.032 2.032 2.032Zm8.754 0c1.094 0 2.032-.938 2.032-2.032s-.938-2.032-2.032-2.032-2.032.938-2.032 2.032c-.157 1.094.781 2.032 2.032 2.032Z" fill="#A4C3D1"/></svg>