<svg width="120" height="41" viewBox="0 0 120 41" fill="none" xmlns="http://www.w3.org/2000/svg">
<path d="M75.4717 31.5317H87.6851V30.0638H75.4717V31.5317Z" fill="#494949"/>
<path d="M42.7662 31.5317H54.9795V30.0638H42.7662V31.5317Z" fill="#494949"/>
<path d="M10.0801 31.5317H22.2935V30.0638H10.0801V31.5317Z" fill="#494949"/>
<path d="M119.726 35.8572H119.452V31.7273H119.726C119.804 31.7273 119.878 31.7583 119.934 31.8133C119.989 31.8684 120.02 31.9431 120.02 32.0209V35.5832C120.015 35.6576 119.981 35.7273 119.927 35.7782C119.872 35.8291 119.801 35.8573 119.726 35.8572Z" fill="#FFCE00"/>
<path d="M99.8204 15.0906H97.0215V32.3341H99.8204V15.0906Z" fill="#355100"/>
<path d="M99.3311 20.4143H96.5322V32.3341H99.3311V20.4143Z" fill="#355100"/>
<path d="M112.034 19.1423L115.948 15.8345C115.996 15.81 116.05 15.8024 116.102 15.813C116.155 15.8236 116.202 15.8518 116.236 15.8929C116.271 15.9339 116.29 15.9854 116.291 16.0389C116.292 16.0923 116.274 16.1445 116.242 16.1868L115.028 17.185L115.146 17.4003L117.573 16.089L118.042 18.2811L116.614 20.3362L113.091 18.79L112.229 19.4946C112.185 19.5095 112.137 19.5095 112.092 19.4946C112.065 19.5084 112.035 19.5155 112.004 19.5155C111.974 19.5155 111.943 19.5084 111.916 19.4946C111.896 19.4648 111.883 19.4309 111.879 19.3953C111.874 19.3598 111.877 19.3237 111.889 19.2897C111.9 19.2557 111.919 19.2247 111.944 19.1991C111.969 19.1736 112 19.1542 112.034 19.1423Z" fill="#355100"/>
<path d="M118.806 36.6792H118.14V26.4818H118.806C118.993 26.4818 119.172 26.5561 119.304 26.6882C119.436 26.8204 119.51 26.9996 119.51 27.1865V35.955C119.513 36.0492 119.497 36.1429 119.463 36.2307C119.428 36.3184 119.377 36.3984 119.311 36.466C119.245 36.5335 119.167 36.5871 119.08 36.6238C118.993 36.6604 118.9 36.6792 118.806 36.6792Z" fill="#355100"/>
<path d="M98.4111 7.55511V31.5316H119.041V27.8324C119.041 20.9624 118.414 12.0568 113.678 7.24194H98.7439C98.6589 7.2418 98.5771 7.27415 98.5153 7.33238C98.4534 7.39061 98.4161 7.4703 98.4111 7.55511ZM103.578 9.9234H115.107C116.44 12.5393 117.308 15.3674 117.671 18.2809H114.637C114.364 18.2789 114.097 18.1985 113.868 18.0493C113.639 17.9001 113.457 17.6884 113.345 17.4393C113.241 17.1866 113.065 16.9701 112.839 16.8169C112.613 16.6637 112.346 16.5807 112.073 16.5781H103.578V9.9234Z" fill="#628421"/>
<path d="M1.50687 36.5618L98.4111 36.5618V30.69L1.50687 30.69V36.5618Z" fill="black"/>
<path d="M99.0374 10.6476H102.835C102.875 10.6433 102.912 10.6255 102.941 10.597C102.969 10.5685 102.987 10.5311 102.991 10.491C102.986 10.453 102.968 10.418 102.939 10.3927C102.91 10.3675 102.873 10.3537 102.835 10.354H99.0374C98.9991 10.3537 98.962 10.3675 98.9331 10.3927C98.9042 10.418 98.8857 10.453 98.8809 10.491C98.8851 10.5311 98.903 10.5685 98.9315 10.597C98.96 10.6255 98.9974 10.6433 99.0374 10.6476Z" fill="#355100"/>
<path d="M99.0374 11.3717H102.835C102.875 11.3675 102.912 11.3496 102.941 11.3211C102.969 11.2926 102.987 11.2552 102.991 11.2151C102.986 11.1771 102.968 11.1421 102.939 11.1169C102.91 11.0916 102.873 11.0778 102.835 11.0781H99.0374C98.9991 11.0778 98.962 11.0916 98.9331 11.1169C98.9042 11.1421 98.8857 11.1771 98.8809 11.2151C98.8851 11.2552 98.903 11.2926 98.9315 11.3211C98.96 11.3496 98.9974 11.3675 99.0374 11.3717Z" fill="#355100"/>
<path d="M99.0376 12.096H102.835C102.875 12.0918 102.912 12.0739 102.941 12.0454C102.969 12.0169 102.987 11.9795 102.991 11.9395C102.997 11.9159 102.998 11.8913 102.993 11.8675C102.988 11.8437 102.977 11.8214 102.962 11.8024C102.947 11.7834 102.927 11.7682 102.905 11.758C102.883 11.7479 102.859 11.743 102.835 11.7437H99.0376C98.9992 11.7434 98.9621 11.7572 98.9333 11.7825C98.9044 11.8077 98.8858 11.8427 98.881 11.8807C98.8753 11.9053 98.875 11.9309 98.88 11.9556C98.885 11.9803 98.8953 12.0037 98.9102 12.0241C98.925 12.0446 98.9441 12.0615 98.9661 12.0739C98.988 12.0864 99.0124 12.0939 99.0376 12.096Z" fill="#355100"/>
<path d="M99.0374 12.8202H102.835C102.875 12.816 102.912 12.7981 102.941 12.7696C102.969 12.7411 102.987 12.7037 102.991 12.6636C102.986 12.6256 102.968 12.5906 102.939 12.5654C102.91 12.5401 102.873 12.5263 102.835 12.5266H99.0374C98.9991 12.5263 98.962 12.5401 98.9331 12.5654C98.9042 12.5906 98.8857 12.6256 98.8809 12.6636C98.8851 12.7037 98.903 12.7411 98.9315 12.7696C98.96 12.7981 98.9974 12.816 99.0374 12.8202Z" fill="#355100"/>
<path d="M99.0374 13.5443H102.835C102.875 13.5401 102.912 13.5222 102.941 13.4937C102.969 13.4652 102.987 13.4278 102.991 13.3877C102.986 13.3497 102.968 13.3147 102.939 13.2895C102.91 13.2642 102.873 13.2504 102.835 13.2507H99.0374C98.9991 13.2504 98.962 13.2642 98.9331 13.2895C98.9042 13.3147 98.8857 13.3497 98.8809 13.3877C98.8851 13.4278 98.903 13.4652 98.9315 13.4937C98.96 13.5222 98.9974 13.5401 99.0374 13.5443Z" fill="#355100"/>
<path d="M99.0374 14.2684H102.835C102.875 14.2642 102.912 14.2463 102.941 14.2178C102.969 14.1893 102.987 14.1519 102.991 14.1119C102.986 14.0738 102.968 14.0389 102.939 14.0136C102.91 13.9883 102.873 13.9746 102.835 13.9749H99.0374C98.9991 13.9746 98.962 13.9883 98.9331 14.0136C98.9042 14.0389 98.8857 14.0738 98.8809 14.1119C98.8851 14.1519 98.903 14.1893 98.9315 14.2178C98.96 14.2463 98.9974 14.2642 99.0374 14.2684Z" fill="#355100"/>
<path d="M99.0374 14.9928H102.835C102.875 14.9886 102.912 14.9707 102.941 14.9422C102.969 14.9137 102.987 14.8763 102.991 14.8362C102.986 14.7982 102.968 14.7632 102.939 14.738C102.91 14.7127 102.873 14.6989 102.835 14.6992H99.0374C98.9991 14.6989 98.962 14.7127 98.9331 14.738C98.9042 14.7632 98.8857 14.7982 98.8809 14.8362C98.8851 14.8763 98.903 14.9137 98.9315 14.9422C98.96 14.9707 98.9974 14.9886 99.0374 14.9928Z" fill="#355100"/>
<path d="M99.0374 15.6583H102.835C102.859 15.6703 102.886 15.6766 102.913 15.6766C102.94 15.6766 102.967 15.6703 102.991 15.6583C102.986 15.6202 102.968 15.5852 102.939 15.56C102.91 15.5347 102.873 15.5209 102.835 15.5212H99.0374C98.9991 15.5209 98.962 15.5347 98.9331 15.56C98.9042 15.5852 98.8857 15.6202 98.8809 15.6583C98.9052 15.6703 98.932 15.6766 98.9592 15.6766C98.9863 15.6766 99.0131 15.6703 99.0374 15.6583Z" fill="#355100"/>
<path d="M109.352 22.9197H107.904C107.764 22.9197 107.629 22.864 107.53 22.7649C107.431 22.6658 107.376 22.5314 107.376 22.3912V22.2738H109.881V22.3912C109.881 22.5314 109.825 22.6658 109.726 22.7649C109.627 22.864 109.493 22.9197 109.352 22.9197Z" fill="#006E8E"/>
<path d="M107.826 21.9019H109.411C109.488 21.9019 109.565 21.917 109.636 21.9466C109.707 21.9761 109.772 22.0193 109.827 22.0738C109.881 22.1284 109.924 22.1931 109.954 22.2643C109.983 22.3356 109.999 22.4119 109.999 22.489V22.626H107.239V22.489C107.239 22.4119 107.254 22.3356 107.283 22.2643C107.313 22.1931 107.356 22.1284 107.411 22.0738C107.465 22.0193 107.53 21.9761 107.601 21.9466C107.672 21.917 107.749 21.9019 107.826 21.9019Z" fill="black"/>
<path d="M3.54259 29.1438L94.1836 29.1438V0.000102997L3.54259 0.000102997V29.1438Z" fill="#FE6259"/>
<path d="M4.73657 28.3218L93.0093 28.3218V0.822184L4.73657 0.822184V28.3218Z" fill="#AA0908"/>
<path d="M3.54259 30.1614L94.1836 30.1614V29.124L3.54259 29.124V30.1614Z" fill="#303030"/>
<path d="M0.684743 33.9197H1.52637L1.52637 30.6706H0.684743L0.684743 33.9197Z" fill="black"/>
<path d="M1.5378e-05 33.9197H0.685059L0.685059 30.6706H1.5378e-05L1.5378e-05 33.9197Z" fill="#FF0000"/>
<path d="M118.356 37.3251L71.5188 37.3251V31.4533L119.041 31.4533V36.6401C119.044 36.7308 119.028 36.8211 118.995 36.9054C118.961 36.9898 118.911 37.0664 118.847 37.1305C118.782 37.1947 118.706 37.2451 118.621 37.2785C118.537 37.312 118.447 37.3279 118.356 37.3251Z" fill="#355100"/>
<path d="M102.6 37.3252C102.379 36.6964 102.266 36.0345 102.267 35.368C102.267 33.956 102.828 32.6019 103.826 31.6035C104.825 30.6051 106.179 30.0442 107.591 30.0442C109.003 30.0442 110.357 30.6051 111.355 31.6035C112.354 32.6019 112.915 33.956 112.915 35.368C112.916 36.0345 112.803 36.6964 112.582 37.3252H102.6Z" fill="black"/>
<path d="M102.756 35.4854C102.756 36.4391 103.039 37.3714 103.567 38.1651C104.096 38.9588 104.847 39.5784 105.727 39.946C106.607 40.3136 107.576 40.4127 108.513 40.2308C109.449 40.049 110.31 39.5944 110.989 38.9241C111.667 38.2539 112.132 37.398 112.325 36.4641C112.518 35.5302 112.431 34.56 112.074 33.6757C111.717 32.7914 111.106 32.0323 110.319 31.4941C109.532 30.9559 108.603 30.6626 107.65 30.651C107.01 30.6432 106.375 30.7625 105.781 31.002C105.188 31.2415 104.648 31.5963 104.193 32.046C103.738 32.4957 103.377 33.0313 103.13 33.6217C102.883 34.2121 102.756 34.8456 102.756 35.4854Z" fill="black"/>
<path d="M102.756 35.4854C102.756 36.4391 103.039 37.3714 103.567 38.1651C104.096 38.9588 104.847 39.5784 105.727 39.946C106.607 40.3136 107.576 40.4127 108.513 40.2308C109.449 40.049 110.31 39.5944 110.989 38.9241C111.667 38.2539 112.132 37.398 112.325 36.4641C112.518 35.5302 112.431 34.56 112.074 33.6757C111.717 32.7914 111.106 32.0323 110.319 31.4941C109.532 30.9559 108.603 30.6626 107.65 30.651C107.01 30.6432 106.375 30.7625 105.781 31.002C105.188 31.2415 104.648 31.5963 104.193 32.046C103.738 32.4957 103.377 33.0313 103.13 33.6217C102.883 34.2121 102.756 34.8456 102.756 35.4854Z" fill="#262626"/>
<path d="M102.756 35.4854C102.756 36.4391 103.039 37.3714 103.567 38.1651C104.096 38.9588 104.847 39.5784 105.727 39.946C106.607 40.3136 107.576 40.4127 108.513 40.2308C109.449 40.049 110.31 39.5944 110.989 38.9241C111.667 38.2539 112.132 37.398 112.325 36.4641C112.518 35.5302 112.431 34.56 112.074 33.6757C111.717 32.7914 111.106 32.0323 110.319 31.4941C109.532 30.9559 108.603 30.6626 107.65 30.651C107.01 30.6432 106.375 30.7625 105.781 31.002C105.188 31.2415 104.648 31.5963 104.193 32.046C103.738 32.4957 103.377 33.0313 103.13 33.6217C102.883 34.2121 102.756 34.8456 102.756 35.4854Z" fill="#262626"/>
<path d="M107.65 31.7666C107.699 32.0713 107.699 32.3818 107.65 32.6865C107.601 32.3818 107.601 32.0713 107.65 31.7666C107.601 31.4619 107.601 31.1514 107.65 30.8467C107.699 31.1514 107.699 31.4619 107.65 31.7666Z" fill="black"/>
<path d="M107.65 39.1455C107.699 39.4502 107.699 39.7607 107.65 40.0654C107.601 39.7607 107.601 39.4502 107.65 39.1455C107.601 38.8408 107.601 38.5303 107.65 38.2256C107.699 38.5303 107.699 38.8408 107.65 39.1455Z" fill="black"/>
<path d="M104.812 35.4853C104.5 35.5351 104.183 35.5351 103.872 35.4853C103.567 35.5343 103.257 35.5343 102.952 35.4853C103.248 35.3865 103.562 35.3531 103.872 35.3875C104.189 35.3521 104.509 35.3855 104.812 35.4853Z" fill="black"/>
<path d="M111.31 35.5638C111.818 35.5638 112.229 35.5288 112.229 35.4855C112.229 35.4423 111.818 35.4072 111.31 35.4072C110.802 35.4072 110.39 35.4423 110.39 35.4855C110.39 35.5288 110.802 35.5638 111.31 35.5638Z" fill="black"/>
<path d="M105.692 33.5084C105.427 33.3435 105.19 33.1389 104.987 32.9016C104.635 32.5493 104.361 32.2362 104.4 32.197C104.666 32.36 104.904 32.5649 105.105 32.8038C105.379 33.1561 105.692 33.4692 105.692 33.5084Z" fill="black"/>
<path d="M109.607 37.4424C109.872 37.6072 110.109 37.8119 110.312 38.0491C110.664 38.4014 110.938 38.7146 110.899 38.7538C110.633 38.5908 110.395 38.3859 110.194 38.147C109.803 37.7947 109.607 37.4815 109.607 37.4424Z" fill="black"/>
<path d="M105.692 37.4424C105.692 37.4424 105.457 37.7947 105.105 38.147C104.904 38.3859 104.666 38.5908 104.4 38.7538C104.4 38.7538 104.635 38.4014 104.988 38.0491C105.19 37.8119 105.428 37.6072 105.692 37.4424Z" fill="black"/>
<path d="M109.607 33.5084C109.607 33.5084 109.842 33.1561 110.194 32.8038C110.395 32.5649 110.633 32.36 110.899 32.197C110.899 32.197 110.664 32.5493 110.312 32.9016C110.109 33.1389 109.872 33.3435 109.607 33.5084Z" fill="black"/>
<path d="M106.064 32.0993C105.924 31.823 105.832 31.5253 105.79 31.2185C105.982 31.4569 106.128 31.7291 106.221 32.021C106.361 32.2988 106.46 32.5955 106.514 32.9018C106.514 32.9018 106.26 32.569 106.064 32.0993Z" fill="black"/>
<path d="M109.118 38.8518C109.261 39.1334 109.354 39.4382 109.392 39.7521C109.207 39.5015 109.062 39.2243 108.961 38.9301C108.765 38.4603 108.628 38.0493 108.687 38.0493C108.879 38.2878 109.025 38.5599 109.118 38.8518Z" fill="black"/>
<path d="M104.146 36.8554C104.418 36.7022 104.717 36.6025 105.027 36.5618C104.78 36.7513 104.502 36.897 104.205 36.9924C103.928 37.1351 103.631 37.2342 103.324 37.286C103.572 37.0964 103.85 36.9508 104.146 36.8554Z" fill="black"/>
<path d="M111.036 34.0956C110.763 34.2488 110.464 34.3485 110.155 34.3892C110.402 34.1997 110.68 34.054 110.977 33.9586C111.254 33.8159 111.551 33.7168 111.858 33.665C111.61 33.8546 111.332 34.0002 111.036 34.0956Z" fill="black"/>
<path d="M105.007 34.4285C104.7 34.3895 104.402 34.2967 104.126 34.1544C103.833 34.0608 103.555 33.9222 103.304 33.7434C103.611 33.7851 103.909 33.8777 104.185 34.0174C104.482 34.1017 104.761 34.2411 105.007 34.4285Z" fill="black"/>
<path d="M110.174 36.5227C110.482 36.5617 110.78 36.6544 111.055 36.7967C111.349 36.8903 111.626 37.029 111.877 37.2077C111.877 37.2077 111.466 37.2077 110.996 36.9533C110.7 36.8579 110.422 36.7123 110.174 36.5227Z" fill="black"/>
<path d="M106.554 38.0493C106.505 38.3608 106.413 38.6639 106.28 38.9497C106.184 39.2463 106.039 39.5244 105.849 39.7717C105.888 39.4643 105.981 39.1662 106.123 38.8909C106.212 38.5858 106.358 38.3002 106.554 38.0493Z" fill="black"/>
<path d="M109.333 31.1792C109.294 31.4866 109.201 31.7847 109.059 32.06C108.97 32.3651 108.824 32.6507 108.628 32.9016C108.677 32.5901 108.769 32.287 108.902 32.0013C108.998 31.7046 109.143 31.4265 109.333 31.1792Z" fill="black"/>
<path d="M106.808 31.845C106.758 31.5404 106.758 31.2296 106.808 30.925C106.95 31.2062 107.036 31.5118 107.062 31.8254C107.146 32.1245 107.179 32.4354 107.16 32.7453C106.995 32.4663 106.876 32.1622 106.808 31.845Z" fill="black"/>
<path d="M108.374 39.1455C108.456 39.4448 108.489 39.7555 108.471 40.0654C108.33 39.7842 108.244 39.4786 108.217 39.165C108.167 38.8605 108.167 38.5497 108.217 38.2451C108.315 38.5355 108.368 38.8391 108.374 39.1455Z" fill="black"/>
<path d="M103.931 36.092C104.23 36.01 104.541 35.977 104.85 35.9942C104.85 35.9942 104.459 36.1508 103.97 36.2486C103.67 36.3306 103.36 36.3637 103.05 36.3465C103.326 36.2094 103.624 36.1233 103.931 36.092Z" fill="black"/>
<path d="M111.251 34.859C110.952 34.9411 110.641 34.9741 110.331 34.9569C110.331 34.9569 110.723 34.8003 111.212 34.7025C111.518 34.6197 111.835 34.5866 112.151 34.6046C111.866 34.7361 111.563 34.8219 111.251 34.859Z" fill="black"/>
<path d="M105.281 33.9197C104.991 33.813 104.721 33.6611 104.479 33.4695C104.206 33.315 103.962 33.1166 103.754 32.8823C104.048 32.9794 104.321 33.1322 104.557 33.3325C104.987 33.6065 105.32 33.8805 105.281 33.9197Z" fill="black"/>
<path d="M109.9 37.0315C110.188 37.1502 110.458 37.3083 110.703 37.5012C110.972 37.6525 111.216 37.8439 111.427 38.0688C111.133 37.9718 110.861 37.8189 110.625 37.6187C110.348 37.4716 110.102 37.2722 109.9 37.0315Z" fill="black"/>
<path d="M106.025 37.7754C105.931 38.0765 105.778 38.3559 105.575 38.5974C105.281 39.0085 105.027 39.3412 104.988 39.3021C105.099 39.0146 105.251 38.7444 105.438 38.4996C105.592 38.2275 105.791 37.9828 106.025 37.7754Z" fill="black"/>
<path d="M109.157 33.2737C109.251 32.9726 109.404 32.6932 109.607 32.4516C109.9 32.0406 110.155 31.7079 110.194 31.747C110.083 32.0345 109.931 32.3047 109.744 32.5495C109.589 32.8216 109.391 33.0663 109.157 33.2737Z" fill="black"/>
<path d="M106.045 33.1561C106.045 33.1561 105.751 32.8625 105.457 32.4319C105.266 32.1899 105.114 31.919 105.007 31.6294C105.248 31.8306 105.447 32.0765 105.595 32.3536C105.795 32.5896 105.948 32.8621 106.045 33.1561Z" fill="black"/>
<path d="M109.137 37.7949C109.371 38.0023 109.569 38.247 109.724 38.5191C109.915 38.7611 110.067 39.032 110.174 39.3216C110.174 39.3216 109.88 39.028 109.587 38.5974C109.387 38.3613 109.234 38.0889 109.137 37.7949Z" fill="black"/>
<path d="M104.459 37.4817C104.701 37.2788 104.98 37.1258 105.281 37.0315C105.071 37.2571 104.826 37.4486 104.557 37.5991C104.315 37.802 104.036 37.955 103.735 38.0493C103.945 37.8237 104.19 37.6322 104.459 37.4817Z" fill="black"/>
<path d="M110.722 33.489C110.477 33.6817 110.198 33.8277 109.9 33.9196C110.111 33.694 110.355 33.5025 110.625 33.352C110.866 33.1491 111.146 32.9961 111.447 32.9019C111.234 33.1306 110.99 33.3283 110.722 33.489Z" fill="black"/>
<path d="M104.85 34.9372C104.541 34.9545 104.23 34.9214 103.931 34.8394C103.625 34.8043 103.327 34.7183 103.05 34.5849C103.353 34.5238 103.666 34.5238 103.97 34.5849C104.281 34.6507 104.579 34.7698 104.85 34.9372Z" fill="black"/>
<path d="M110.331 36.0137C110.641 35.9965 110.952 36.0295 111.251 36.1116C111.74 36.2094 112.151 36.3269 112.132 36.3856C111.821 36.3898 111.511 36.3503 111.212 36.2682C110.906 36.233 110.608 36.147 110.331 36.0137Z" fill="black"/>
<path d="M107.043 38.2061C107.105 38.5096 107.105 38.8224 107.043 39.126C107.006 39.4376 106.92 39.7414 106.789 40.0263C106.77 39.7164 106.803 39.4055 106.886 39.1064C106.892 38.8 106.945 38.4964 107.043 38.2061Z" fill="black"/>
<path d="M108.139 32.7453C108.077 32.4418 108.077 32.1289 108.139 31.8254C108.176 31.5138 108.262 31.21 108.393 30.925C108.444 31.2296 108.444 31.5404 108.393 31.845C108.356 32.1566 108.27 32.4604 108.139 32.7453Z" fill="black"/>
<path d="M104.538 35.4853C104.542 36.0859 104.723 36.6719 105.058 37.1701C105.393 37.6683 105.868 38.0565 106.423 38.2863C106.978 38.516 107.588 38.577 108.177 38.4617C108.767 38.3464 109.309 38.0598 109.736 37.6379C110.164 37.2159 110.457 36.6773 110.58 36.0895C110.703 35.5016 110.649 34.8906 110.427 34.3329C110.204 33.7752 109.822 33.2955 109.328 32.9539C108.834 32.6124 108.25 32.424 107.65 32.4124C107.242 32.4046 106.837 32.4784 106.459 32.6296C106.08 32.7807 105.736 33.0062 105.446 33.2925C105.156 33.5789 104.926 33.9205 104.77 34.2971C104.614 34.6737 104.535 35.0777 104.538 35.4853Z" fill="#6C6D6D"/>
<path d="M105.027 35.4851C105.031 35.9889 105.183 36.4803 105.465 36.898C105.746 37.3157 106.145 37.6412 106.61 37.8339C107.076 38.0266 107.587 38.0779 108.082 37.9815C108.576 37.885 109.031 37.645 109.39 37.2915C109.749 36.938 109.996 36.4866 110.1 35.9937C110.204 35.5008 110.16 34.9882 109.974 34.5199C109.789 34.0516 109.469 33.6484 109.056 33.3606C108.642 33.0728 108.153 32.9131 107.65 32.9016C107.306 32.8937 106.965 32.9548 106.646 33.0814C106.327 33.2079 106.036 33.3973 105.792 33.6383C105.547 33.8792 105.353 34.1669 105.222 34.4841C105.091 34.8014 105.024 35.1418 105.027 35.4851Z" fill="#9E9E9E"/>
<path d="M105.535 35.4855C105.54 35.8952 105.666 36.2942 105.899 36.6313C106.132 36.9684 106.46 37.2283 106.842 37.3775C107.223 37.5268 107.641 37.5585 108.04 37.4688C108.44 37.379 108.804 37.1719 109.085 36.8739C109.366 36.5758 109.552 36.2006 109.618 35.7963C109.685 35.392 109.629 34.9771 109.457 34.6049C109.286 34.2327 109.008 33.9201 108.658 33.7073C108.307 33.4946 107.902 33.3913 107.493 33.4108C107.225 33.4103 106.961 33.4645 106.715 33.5702C106.47 33.6758 106.249 33.8305 106.065 34.0249C105.882 34.2193 105.74 34.4492 105.649 34.7004C105.558 34.9515 105.519 35.2187 105.535 35.4855Z" fill="#494949"/>
<path d="M105.692 35.4853C105.693 35.8393 105.798 36.1853 105.992 36.4809C106.187 36.7766 106.463 37.0091 106.788 37.15C107.113 37.2909 107.472 37.3341 107.82 37.2742C108.169 37.2144 108.493 37.0541 108.752 36.8131C109.011 36.572 109.195 36.2607 109.28 35.917C109.365 35.5734 109.348 35.2125 109.231 34.8785C109.114 34.5444 108.902 34.2517 108.621 34.0362C108.34 33.8207 108.003 33.6917 107.65 33.6651C107.399 33.6462 107.148 33.6793 106.911 33.7622C106.674 33.8452 106.457 33.9763 106.273 34.1472C106.089 34.3182 105.943 34.5253 105.843 34.7556C105.743 34.9859 105.692 35.2343 105.692 35.4853Z" fill="#6C6D6D"/>
<path d="M106.201 35.4852C106.205 35.7591 106.289 36.0259 106.444 36.2518C106.6 36.4777 106.818 36.6528 107.072 36.755C107.326 36.8572 107.605 36.8819 107.873 36.8261C108.142 36.7703 108.387 36.6364 108.58 36.4413C108.772 36.2462 108.903 35.9986 108.955 35.7296C109.007 35.4606 108.978 35.1822 108.872 34.9294C108.767 34.6766 108.589 34.4607 108.36 34.3088C108.132 34.157 107.864 34.076 107.59 34.0759C107.406 34.0759 107.224 34.1125 107.054 34.1836C106.884 34.2546 106.73 34.3587 106.601 34.4898C106.472 34.621 106.37 34.7765 106.301 34.9473C106.232 35.1182 106.198 35.301 106.201 35.4852Z" fill="#9E9E9E"/>
<path d="M65.6465 35.4854C65.6465 36.4424 65.9305 37.3778 66.4626 38.1733C66.9947 38.9687 67.7509 39.5883 68.6354 39.9537C69.5199 40.319 70.493 40.4136 71.4313 40.2254C72.3696 40.0373 73.231 39.5749 73.9063 38.8969C74.5817 38.2188 75.0405 37.3555 75.2249 36.4165C75.4092 35.4774 75.3106 34.5047 74.9417 33.6217C74.5728 32.7387 73.9501 31.985 73.1525 31.4561C72.355 30.9273 71.4183 30.647 70.4614 30.6509C69.1826 30.6561 67.9579 31.1677 67.0555 32.0738C66.1531 32.9799 65.6465 34.2066 65.6465 35.4854Z" fill="black"/>
<path d="M65.6465 35.4854C65.6465 36.4424 65.9305 37.3778 66.4626 38.1733C66.9947 38.9687 67.7509 39.5883 68.6354 39.9537C69.5199 40.319 70.493 40.4136 71.4313 40.2254C72.3696 40.0373 73.231 39.5749 73.9063 38.8969C74.5817 38.2188 75.0405 37.3555 75.2249 36.4165C75.4092 35.4774 75.3106 34.5047 74.9417 33.6217C74.5728 32.7387 73.9501 31.985 73.1525 31.4561C72.355 30.9273 71.4183 30.647 70.4614 30.6509C69.1826 30.6561 67.9579 31.1677 67.0555 32.0738C66.1531 32.9799 65.6465 34.2066 65.6465 35.4854Z" fill="#262626"/>
<path d="M65.6465 35.4854C65.6465 36.4424 65.9305 37.3778 66.4626 38.1733C66.9947 38.9687 67.7509 39.5883 68.6354 39.9537C69.5199 40.319 70.493 40.4136 71.4313 40.2254C72.3696 40.0373 73.231 39.5749 73.9063 38.8969C74.5817 38.2188 75.0405 37.3555 75.2249 36.4165C75.4092 35.4774 75.3106 34.5047 74.9417 33.6217C74.5728 32.7387 73.9501 31.985 73.1525 31.4561C72.355 30.9273 71.4183 30.647 70.4614 30.6509C69.1826 30.6561 67.9579 31.1677 67.0555 32.0738C66.1531 32.9799 65.6465 34.2066 65.6465 35.4854Z" fill="#262626"/>
<path d="M70.4811 32.6865C70.5244 32.6865 70.5594 32.2746 70.5594 31.7666C70.5594 31.2585 70.5244 30.8467 70.4811 30.8467C70.4379 30.8467 70.4028 31.2585 70.4028 31.7666C70.4028 32.2746 70.4379 32.6865 70.4811 32.6865Z" fill="black"/>
<path d="M70.5594 39.1455C70.6201 39.4491 70.6201 39.7618 70.5594 40.0654C70.4777 39.766 70.4447 39.4554 70.4616 39.1455C70.4126 38.8408 70.4126 38.5303 70.4616 38.2256C70.5548 38.5227 70.5881 38.8354 70.5594 39.1455Z" fill="black"/>
<path d="M66.7817 35.5638C67.2898 35.5638 67.7016 35.5288 67.7016 35.4855C67.7016 35.4423 67.2898 35.4072 66.7817 35.4072C66.2737 35.4072 65.8618 35.4423 65.8618 35.4855C65.8618 35.5288 66.2737 35.5638 66.7817 35.5638Z" fill="black"/>
<path d="M74.1997 35.5638C74.7078 35.5638 75.1196 35.5288 75.1196 35.4855C75.1196 35.4423 74.7078 35.4072 74.1997 35.4072C73.6916 35.4072 73.2798 35.4423 73.2798 35.4855C73.2798 35.5288 73.6916 35.5638 74.1997 35.5638Z" fill="black"/>
<path d="M68.5041 33.5084C68.2313 33.3468 67.9867 33.1419 67.7799 32.9016C67.4276 32.5493 67.1535 32.2362 67.1927 32.197C67.4628 32.3543 67.7017 32.56 67.8973 32.8038C68.1393 33.0012 68.3447 33.2397 68.5041 33.5084Z" fill="black"/>
<path d="M72.4189 37.4424C72.6836 37.6072 72.9213 37.8119 73.1236 38.0491C73.3656 38.2466 73.571 38.4851 73.7303 38.7538C73.7303 38.7538 73.378 38.5189 73.0061 38.147C72.6342 37.7751 72.4189 37.4815 72.4189 37.4424Z" fill="black"/>
<path d="M68.5042 37.4424C68.3449 37.711 68.1395 37.9495 67.8975 38.147C67.7019 38.3908 67.463 38.5965 67.1929 38.7538C67.1929 38.7538 67.4277 38.4014 67.78 38.0491C67.9869 37.8089 68.2315 37.6039 68.5042 37.4424Z" fill="black"/>
<path d="M72.4189 33.5085C72.4189 33.5085 72.6538 33.1562 73.0061 32.8039C73.3584 32.4516 73.6912 32.158 73.7303 32.1971C73.571 32.4658 73.3656 32.7043 73.1236 32.9017C72.9213 33.139 72.6836 33.3436 72.4189 33.5085Z" fill="black"/>
<path d="M68.9738 32.0993C68.8231 31.826 68.7236 31.5275 68.6802 31.2185C68.8723 31.4569 69.0183 31.7291 69.1108 32.021C69.2508 32.2988 69.3497 32.5955 69.4044 32.9018C69.2123 32.6633 69.0662 32.3912 68.9738 32.0993Z" fill="black"/>
<path d="M72.0077 38.8518C72.1521 39.1347 72.2512 39.4385 72.3013 39.7521C72.1068 39.505 71.9546 39.2272 71.8512 38.9301C71.7114 38.6538 71.6188 38.3561 71.5771 38.0493C71.7693 38.2878 71.9153 38.5599 72.0077 38.8518Z" fill="black"/>
<path d="M67.0364 36.8554C67.3086 36.7022 67.6075 36.6025 67.9172 36.5618C67.6698 36.7513 67.3918 36.897 67.0951 36.9924C66.8185 37.1351 66.5213 37.2342 66.2144 37.286C66.4617 37.0964 66.7398 36.9508 67.0364 36.8554Z" fill="black"/>
<path d="M73.9257 34.0956C73.6535 34.2488 73.3546 34.3485 73.0449 34.3892C73.2923 34.1997 73.5703 34.054 73.867 33.9586C74.1436 33.8159 74.4408 33.7168 74.7477 33.665C74.5004 33.8546 74.2223 34.0002 73.9257 34.0956Z" fill="black"/>
<path d="M67.8972 34.4285C67.5898 34.3895 67.2916 34.2967 67.0164 34.1544C66.7227 34.0608 66.4454 33.9222 66.1943 33.7434C66.5017 33.7824 66.7999 33.8752 67.0751 34.0174C67.3725 34.1017 67.6513 34.2411 67.8972 34.4285Z" fill="black"/>
<path d="M73.0649 36.5227C73.3723 36.5617 73.6705 36.6544 73.9457 36.7967C74.2464 36.8878 74.5306 37.0266 74.7873 37.2077C74.7873 37.2077 74.3763 37.2077 73.887 36.9533C73.5903 36.8579 73.3123 36.7123 73.0649 36.5227Z" fill="black"/>
<path d="M69.4439 38.0493C69.4063 38.3632 69.3136 38.668 69.1699 38.9497C69.0745 39.2463 68.9288 39.5244 68.7393 39.7717C68.7782 39.4643 68.871 39.1662 69.0133 38.8909C69.1116 38.5895 69.257 38.3055 69.4439 38.0493Z" fill="black"/>
<path d="M72.2226 31.1792C72.1837 31.4866 72.0909 31.7847 71.9486 32.06C71.8522 32.3586 71.7138 32.642 71.5376 32.9016C71.5751 32.5877 71.6679 32.2829 71.8116 32.0013C71.8959 31.7039 72.0353 31.425 72.2226 31.1792Z" fill="black"/>
<path d="M69.698 31.845C69.6417 31.5409 69.6417 31.2291 69.698 30.925C69.8295 31.21 69.9153 31.5138 69.9525 31.8254C70.0206 32.1282 70.0206 32.4425 69.9525 32.7453C69.821 32.4604 69.7351 32.1566 69.698 31.845Z" fill="black"/>
<path d="M71.2637 39.1455C71.3457 39.4448 71.3788 39.7555 71.3616 40.0654C71.2301 39.7804 71.1442 39.4766 71.1071 39.165C71.0567 38.8605 71.0567 38.5497 71.1071 38.2451C71.2051 38.5355 71.2579 38.8391 71.2637 39.1455Z" fill="black"/>
<path d="M66.8207 36.092C67.1201 36.01 67.4307 35.977 67.7406 35.9942C67.7406 35.9942 67.3492 36.1508 66.8599 36.2486C66.5605 36.3306 66.2499 36.3637 65.9399 36.3465C66.2173 36.2132 66.515 36.1272 66.8207 36.092Z" fill="black"/>
<path d="M74.1411 34.8589C73.8419 34.9417 73.5311 34.9747 73.2212 34.9568C73.5023 34.8153 73.8079 34.7289 74.1215 34.7024C74.4207 34.6193 74.7315 34.5862 75.0415 34.6045C74.7565 34.736 74.4527 34.8218 74.1411 34.8589Z" fill="black"/>
<path d="M68.1712 33.9197C67.8837 33.8084 67.6135 33.6569 67.3687 33.4695C67.0966 33.315 66.8519 33.1166 66.6445 32.8823C66.9456 32.9766 67.225 33.1296 67.4666 33.3325C67.8776 33.6065 68.2104 33.8805 68.1712 33.9197Z" fill="black"/>
<path d="M72.7905 37.0315C73.0785 37.1502 73.3485 37.3083 73.593 37.5012C73.8619 37.6525 74.1061 37.8439 74.3172 38.0688C74.0233 37.9718 73.7508 37.8189 73.5147 37.6187C73.2376 37.4716 72.9917 37.2722 72.7905 37.0315Z" fill="black"/>
<path d="M68.9153 37.7754C68.821 38.0765 68.668 38.3559 68.4651 38.5974C68.1911 39.0085 67.9171 39.3412 67.8779 39.3021C67.9892 39.0146 68.1407 38.7444 68.3281 38.4996C68.4826 38.2275 68.681 37.9828 68.9153 37.7754Z" fill="black"/>
<path d="M72.0469 33.2737C72.151 32.9769 72.3031 32.6992 72.497 32.4516C72.7906 32.0406 73.0451 31.7079 73.0842 31.747C72.9826 32.039 72.8302 32.3106 72.6341 32.5495C72.4796 32.8216 72.2812 33.0663 72.0469 33.2737Z" fill="black"/>
<path d="M68.9348 33.1561C68.9348 33.1561 68.6412 32.8625 68.3476 32.4319C68.1573 32.1922 68.0115 31.9204 67.917 31.6294C68.1419 31.8405 68.3333 32.0847 68.4846 32.3536C68.6849 32.5896 68.8377 32.8621 68.9348 33.1561Z" fill="black"/>
<path d="M72.0273 37.7949C72.268 37.9961 72.4674 38.242 72.6145 38.5191C72.8148 38.7552 72.9676 39.0276 73.0647 39.3216C73.0647 39.3216 72.7711 39.028 72.4775 38.5974C72.2946 38.3497 72.1434 38.0801 72.0273 37.7949Z" fill="black"/>
<path d="M67.3491 37.4817C67.5934 37.2827 67.872 37.1302 68.1712 37.0315C67.966 37.2628 67.7207 37.4551 67.447 37.5991C67.2081 37.7953 66.9365 37.9477 66.6445 38.0493C66.6445 38.0493 66.9381 37.7557 67.3491 37.4817Z" fill="black"/>
<path d="M73.6126 33.489C73.3673 33.6817 73.0886 33.8277 72.7905 33.9196C73.001 33.694 73.2454 33.5025 73.5147 33.352C73.759 33.1531 74.0376 33.0005 74.3368 32.9019C74.1294 33.1362 73.8847 33.3346 73.6126 33.489Z" fill="black"/>
<path d="M67.7602 34.9374C67.4503 34.9557 67.1394 34.9226 66.8403 34.8395C66.5287 34.8024 66.2249 34.7165 65.9399 34.5851C66.2435 34.5234 66.5563 34.5234 66.8599 34.5851C67.1771 34.653 67.4811 34.772 67.7602 34.9374Z" fill="black"/>
<path d="M73.2212 36.0137C73.5311 35.9965 73.8418 36.0295 74.1411 36.1116C74.65 36.2094 75.0415 36.3269 75.0219 36.3856C74.7113 36.3898 74.4016 36.3503 74.102 36.2682C73.7962 36.233 73.4985 36.147 73.2212 36.0137Z" fill="black"/>
<path d="M69.9527 38.2061C69.9702 38.5173 69.9304 38.8291 69.8352 39.126C69.7981 39.4376 69.7122 39.7414 69.5808 40.0263C69.5667 39.7294 69.5998 39.4321 69.6786 39.1455C69.7006 38.8162 69.7941 38.4956 69.9527 38.2061Z" fill="black"/>
<path d="M71.0293 32.7453C71.011 32.4354 71.0441 32.1245 71.1272 31.8254C71.1643 31.5138 71.2501 31.21 71.3816 30.925C71.432 31.2296 71.432 31.5404 71.3816 31.845C71.3137 32.1622 71.1947 32.4663 71.0293 32.7453Z" fill="black"/>
<path d="M67.4278 35.4853C67.4278 36.0947 67.6091 36.6903 67.9485 37.1965C68.2879 37.7026 68.7702 38.0964 69.334 38.3278C69.8978 38.5592 70.5176 38.6177 71.1147 38.496C71.7119 38.3742 72.2593 38.0776 72.6875 37.6439C73.1156 37.2102 73.4052 36.659 73.5193 36.0604C73.6334 35.4618 73.5669 34.8427 73.3283 34.2819C73.0897 33.7212 72.6898 33.244 72.1793 32.9111C71.6689 32.5782 71.0709 32.4046 70.4616 32.4124C70.0606 32.4149 69.664 32.4964 69.2946 32.6523C68.9251 32.8081 68.59 33.0351 68.3082 33.3205C68.0265 33.6058 67.8038 33.9439 67.6527 34.3153C67.5016 34.6867 67.4252 35.0843 67.4278 35.4853Z" fill="#6C6D6D"/>
<path d="M67.9171 35.4855C67.921 35.9926 68.0751 36.4872 68.3601 36.9066C68.645 37.3261 69.048 37.6517 69.5179 37.8422C69.9879 38.0326 70.5038 38.0795 71.0004 37.9767C71.497 37.874 71.952 37.6263 72.3078 37.265C72.6637 36.9037 72.9044 36.445 72.9995 35.9469C73.0946 35.4488 73.0399 34.9337 72.8423 34.4666C72.6447 33.9996 72.313 33.6017 71.8892 33.3232C71.4654 33.0447 70.9686 32.8981 70.4615 32.9019C70.1248 32.9045 69.7919 32.9733 69.4818 33.1046C69.1717 33.2358 68.8905 33.4268 68.6542 33.6667C68.4179 33.9066 68.2312 34.1907 68.1047 34.5028C67.9783 34.8149 67.9145 35.1488 67.9171 35.4855Z" fill="#9E9E9E"/>
<path d="M68.5044 35.4854C68.5544 35.9984 68.7936 36.4744 69.1753 36.8207C69.557 37.167 70.0539 37.3589 70.5693 37.3589C71.0847 37.3589 71.5817 37.167 71.9634 36.8207C72.3451 36.4744 72.5843 35.9984 72.6343 35.4854C72.6623 35.1974 72.6298 34.9066 72.5388 34.6319C72.4478 34.3571 72.3004 34.1045 72.1059 33.8901C71.9114 33.6758 71.6742 33.5045 71.4096 33.3873C71.145 33.27 70.8588 33.2095 70.5693 33.2095C70.2799 33.2095 69.9937 33.27 69.7291 33.3873C69.4644 33.5045 69.2273 33.6758 69.0328 33.8901C68.8383 34.1045 68.6908 34.3571 68.5998 34.6319C68.5088 34.9066 68.4763 35.1974 68.5044 35.4854Z" fill="#494949"/>
<path d="M68.6802 35.4853C68.7268 35.933 68.9377 36.3476 69.272 36.6489C69.6064 36.9503 70.0405 37.1171 70.4907 37.1171C70.9408 37.1171 71.375 36.9503 71.7093 36.6489C72.0437 36.3476 72.2545 35.933 72.3011 35.4853C72.3275 35.2317 72.3004 34.9755 72.2214 34.7331C72.1425 34.4907 72.0135 34.2675 71.8428 34.0782C71.6721 33.8888 71.4636 33.7374 71.2306 33.6338C70.9977 33.5301 70.7456 33.4766 70.4907 33.4766C70.2357 33.4766 69.9836 33.5301 69.7507 33.6338C69.5178 33.7374 69.3092 33.8888 69.1386 34.0782C68.9679 34.2675 68.8389 34.4907 68.7599 34.7331C68.681 34.9755 68.6538 35.2317 68.6802 35.4853Z" fill="#6C6D6D"/>
<path d="M69.0914 35.4852C69.0953 35.7591 69.1801 36.0259 69.3351 36.2518C69.4901 36.4777 69.7085 36.6528 69.9627 36.755C70.217 36.8572 70.4957 36.8819 70.764 36.8261C71.0323 36.7703 71.2781 36.6364 71.4704 36.4413C71.6628 36.2462 71.7933 35.9986 71.8453 35.7296C71.8974 35.4606 71.8687 35.1822 71.763 34.9294C71.6573 34.6766 71.4792 34.4607 71.2511 34.3088C71.023 34.157 70.7551 34.076 70.4811 34.0759C70.2969 34.0759 70.1146 34.1125 69.9447 34.1836C69.7749 34.2546 69.6208 34.3587 69.4915 34.4898C69.3622 34.621 69.2602 34.7765 69.1916 34.9473C69.1229 35.1182 69.0889 35.301 69.0914 35.4852Z" fill="#9E9E9E"/>
<path d="M76.1573 35.4854C76.1573 36.4424 76.4413 37.3778 76.9734 38.1733C77.5055 38.9687 78.2617 39.5883 79.1462 39.9537C80.0307 40.319 81.0038 40.4136 81.9421 40.2254C82.8804 40.0373 83.7418 39.5749 84.4171 38.8969C85.0924 38.2188 85.5513 37.3555 85.7356 36.4165C85.92 35.4774 85.8214 34.5047 85.4525 33.6217C85.0836 32.7387 84.4609 31.985 83.6633 31.4561C82.8657 30.9273 81.9291 30.647 80.9721 30.6509C80.3382 30.6509 79.7105 30.7761 79.125 31.0193C78.5396 31.2625 78.0079 31.6189 77.5606 32.0681C77.1132 32.5173 76.759 33.0504 76.5181 33.6368C76.2773 34.2232 76.1547 34.8514 76.1573 35.4854Z" fill="black"/>
<path d="M76.1573 35.4854C76.1573 36.4424 76.4413 37.3778 76.9734 38.1733C77.5055 38.9687 78.2617 39.5883 79.1462 39.9537C80.0307 40.319 81.0038 40.4136 81.9421 40.2254C82.8804 40.0373 83.7418 39.5749 84.4171 38.8969C85.0924 38.2188 85.5513 37.3555 85.7356 36.4165C85.92 35.4774 85.8214 34.5047 85.4525 33.6217C85.0836 32.7387 84.4609 31.985 83.6633 31.4561C82.8657 30.9273 81.9291 30.647 80.9721 30.6509C80.3382 30.6509 79.7105 30.7761 79.125 31.0193C78.5396 31.2625 78.0079 31.6189 77.5606 32.0681C77.1132 32.5173 76.759 33.0504 76.5181 33.6368C76.2773 34.2232 76.1547 34.8514 76.1573 35.4854Z" fill="#262626"/>
<path d="M76.1573 35.4854C76.1573 36.4424 76.4413 37.3778 76.9734 38.1733C77.5055 38.9687 78.2617 39.5883 79.1462 39.9537C80.0307 40.319 81.0038 40.4136 81.9421 40.2254C82.8804 40.0373 83.7418 39.5749 84.4171 38.8969C85.0924 38.2188 85.5513 37.3555 85.7356 36.4165C85.92 35.4774 85.8214 34.5047 85.4525 33.6217C85.0836 32.7387 84.4609 31.985 83.6633 31.4561C82.8657 30.9273 81.9291 30.647 80.9721 30.6509C80.3382 30.6509 79.7105 30.7761 79.125 31.0193C78.5396 31.2625 78.0079 31.6189 77.5606 32.0681C77.1132 32.5173 76.759 33.0504 76.5181 33.6368C76.2773 34.2232 76.1547 34.8514 76.1573 35.4854Z" fill="#262626"/>
<path d="M81.0504 31.7666C81.1111 32.0702 81.1111 32.3829 81.0504 32.6865C81.0014 32.3818 81.0014 32.0713 81.0504 31.7666C81.0014 31.4619 81.0014 31.1514 81.0504 30.8467C81.1111 31.1503 81.1111 31.463 81.0504 31.7666Z" fill="black"/>
<path d="M81.0504 39.1455C81.1111 39.4491 81.1111 39.7618 81.0504 40.0654C81.0014 39.7607 81.0014 39.4502 81.0504 39.1455C81.0014 38.8408 81.0014 38.5303 81.0504 38.2256C81.1111 38.5292 81.1111 38.8419 81.0504 39.1455Z" fill="black"/>
<path d="M77.2725 35.5638C77.7805 35.5638 78.1924 35.5288 78.1924 35.4855C78.1924 35.4423 77.7805 35.4072 77.2725 35.4072C76.7644 35.4072 76.3525 35.4423 76.3525 35.4855C76.3525 35.5288 76.7644 35.5638 77.2725 35.5638Z" fill="black"/>
<path d="M84.6904 35.5638C85.1985 35.5638 85.6103 35.5288 85.6103 35.4855C85.6103 35.4423 85.1985 35.4072 84.6904 35.4072C84.1824 35.4072 83.7705 35.4423 83.7705 35.4855C83.7705 35.5288 84.1824 35.5638 84.6904 35.5638Z" fill="black"/>
<path d="M79.0148 33.5085C78.742 33.3469 78.4974 33.142 78.2906 32.9017C77.9383 32.5494 77.6643 32.2362 77.7034 32.1971C77.7426 32.1579 78.0557 32.432 78.408 32.8038C78.6501 33.0013 78.8555 33.2398 79.0148 33.5085Z" fill="black"/>
<path d="M82.9488 37.4424C83.4488 37.8118 83.8908 38.2538 84.2602 38.7538C84.2602 38.7538 83.9079 38.5189 83.536 38.147C83.1641 37.7751 82.9096 37.4815 82.9488 37.4424Z" fill="black"/>
<path d="M79.0148 37.4424C78.8555 37.711 78.6501 37.9495 78.408 38.147C78.0557 38.5189 77.7426 38.7929 77.7034 38.7538C77.6643 38.7146 77.9383 38.4014 78.2906 38.0491C78.4974 37.8089 78.742 37.6039 79.0148 37.4424Z" fill="black"/>
<path d="M82.9487 33.5085C82.9487 33.5085 83.1836 33.1562 83.5359 32.8039C83.8882 32.4516 84.2209 32.158 84.2601 32.1971C84.1007 32.4658 83.8954 32.7043 83.6533 32.9017C83.4559 33.1438 83.2174 33.3491 82.9487 33.5085Z" fill="black"/>
<path d="M79.465 32.0993C79.3143 31.826 79.2148 31.5275 79.1714 31.2185C79.3635 31.4569 79.5095 31.7291 79.602 32.021C79.742 32.2988 79.8409 32.5955 79.8956 32.9018C79.7035 32.6633 79.5574 32.3912 79.465 32.0993Z" fill="black"/>
<path d="M82.499 38.8518C82.6433 39.1347 82.7424 39.4385 82.7925 39.7521C82.6061 39.4996 82.4547 39.2231 82.3424 38.9301C82.2026 38.6538 82.11 38.3561 82.0684 38.0493C82.2605 38.2878 82.4065 38.5599 82.499 38.8518Z" fill="black"/>
<path d="M77.5271 36.8554C77.7993 36.7022 78.0983 36.6025 78.4079 36.5618C78.1606 36.7513 77.8825 36.897 77.5858 36.9924C77.3092 37.1351 77.0121 37.2342 76.7051 37.286C76.9524 37.0964 77.2305 36.9508 77.5271 36.8554Z" fill="black"/>
<path d="M84.4169 34.0956C84.1447 34.2488 83.8458 34.3485 83.5361 34.3892C83.7835 34.1997 84.0615 34.054 84.3582 33.9586C84.6348 33.8159 84.932 33.7168 85.239 33.665C84.9916 33.8546 84.7136 34.0002 84.4169 34.0956Z" fill="black"/>
<path d="M78.3884 34.4285C78.0816 34.3868 77.7839 34.2942 77.5076 34.1544C77.2139 34.0608 76.9366 33.9222 76.6855 33.7434C76.9929 33.7824 77.2911 33.8752 77.5663 34.0174C77.8637 34.1017 78.1425 34.2411 78.3884 34.4285Z" fill="black"/>
<path d="M83.5557 36.5227C83.869 36.5629 84.1734 36.6556 84.456 36.7967C84.7497 36.8903 85.027 37.029 85.2781 37.2077C85.2781 37.2077 84.867 37.2077 84.3777 36.9533C84.0811 36.8579 83.803 36.7123 83.5557 36.5227Z" fill="black"/>
<path d="M79.9346 38.0493C79.8971 38.3632 79.8043 38.668 79.6606 38.9497C79.4649 39.4194 79.2887 39.7913 79.23 39.7717C79.28 39.4668 79.3722 39.1704 79.504 38.8909C79.6024 38.5895 79.7477 38.3055 79.9346 38.0493Z" fill="black"/>
<path d="M82.7143 31.1792C82.6753 31.4866 82.5826 31.7847 82.4403 32.06C82.3534 32.3623 82.2143 32.6471 82.0293 32.9016C82.0668 32.5877 82.1596 32.2829 82.3033 32.0013C82.3876 31.7039 82.527 31.425 82.7143 31.1792Z" fill="black"/>
<path d="M80.248 31.845C80.1979 31.5404 80.1979 31.2296 80.248 30.925C80.3794 31.21 80.4653 31.5138 80.5024 31.8254C80.5528 32.13 80.5528 32.4407 80.5024 32.7453C80.3508 32.4682 80.2638 32.1604 80.248 31.845Z" fill="black"/>
<path d="M81.7546 39.1455C81.804 39.4501 81.804 39.7607 81.7546 40.0654C81.6232 39.7804 81.5373 39.4766 81.5002 39.165C81.4498 38.8605 81.4498 38.5497 81.5002 38.2451C81.6317 38.53 81.7175 38.8339 81.7546 39.1455Z" fill="black"/>
<path d="M77.3119 36.0921C77.6178 36.0093 77.935 35.9763 78.2514 35.9943C77.9703 36.1357 77.6647 36.2221 77.3511 36.2487C77.0517 36.3307 76.7411 36.3638 76.4312 36.3466C76.7085 36.2132 77.0062 36.1272 77.3119 36.0921Z" fill="black"/>
<path d="M84.6323 34.8589C84.3332 34.942 84.0223 34.9751 83.7124 34.9568C83.9935 34.8153 84.2991 34.7289 84.6127 34.7024C84.9119 34.6193 85.2227 34.5862 85.5327 34.6045C85.2477 34.736 84.9439 34.8218 84.6323 34.8589Z" fill="black"/>
<path d="M78.682 33.9197C78.3852 33.8156 78.1075 33.6635 77.8599 33.4695C77.5922 33.3087 77.3484 33.1111 77.1357 32.8823C77.4368 32.9766 77.7162 33.1296 77.9578 33.3325C78.2303 33.4864 78.4751 33.6848 78.682 33.9197Z" fill="black"/>
<path d="M83.2812 37.0315C83.5743 37.1522 83.8505 37.3101 84.1033 37.5012C84.3686 37.6492 84.6069 37.8411 84.8079 38.0688C84.514 37.9718 84.2415 37.8189 84.0054 37.6187C83.7284 37.4716 83.4824 37.2722 83.2812 37.0315Z" fill="black"/>
<path d="M79.406 37.7754C79.3117 38.0765 79.1587 38.3559 78.9558 38.5974C78.6818 39.0085 78.4078 39.3412 78.3687 39.3021C78.4928 39.0169 78.6505 38.7475 78.8384 38.4996C78.9897 38.2307 79.1811 37.9865 79.406 37.7754Z" fill="black"/>
<path d="M82.5376 33.2737C82.6417 32.9769 82.7938 32.6992 82.9878 32.4516C83.2814 32.0406 83.5358 31.7079 83.575 31.747C83.4734 32.039 83.321 32.3106 83.1248 32.5495C82.9777 32.8266 82.7783 33.0725 82.5376 33.2737Z" fill="black"/>
<path d="M79.426 33.1561C79.426 33.1561 79.1324 32.8625 78.8388 32.4319C78.6485 32.1922 78.5027 31.9204 78.4082 31.6294C78.6395 31.8346 78.8318 32.0799 78.9758 32.3536C79.1761 32.5896 79.3289 32.8621 79.426 33.1561Z" fill="black"/>
<path d="M82.5376 37.7949C82.7625 38.0061 82.9539 38.2503 83.1052 38.5191C83.3055 38.7552 83.4583 39.0276 83.5554 39.3216C83.5554 39.3216 83.2618 39.028 82.9682 38.5974C82.7779 38.3577 82.6321 38.086 82.5376 37.7949Z" fill="black"/>
<path d="M77.8599 37.4817C78.096 37.2814 78.3685 37.1286 78.6624 37.0315C78.4572 37.2628 78.2119 37.4551 77.9382 37.5991C77.6993 37.7953 77.4277 37.9477 77.1357 38.0493C77.1357 38.0493 77.4293 37.7557 77.8599 37.4817Z" fill="black"/>
<path d="M84.1623 33.489C83.92 33.6751 83.6489 33.8206 83.3599 33.9196C83.3599 33.9196 83.6535 33.626 84.0841 33.352C84.3201 33.1518 84.5926 32.9989 84.8865 32.9019C84.6792 33.1362 84.4345 33.3346 84.1623 33.489Z" fill="black"/>
<path d="M78.2905 34.9374C77.9805 34.9557 77.6697 34.9226 77.3706 34.8395C77.059 34.8024 76.7551 34.7165 76.4702 34.5851C76.7738 34.5234 77.0866 34.5234 77.3901 34.5851C77.7074 34.653 78.0114 34.772 78.2905 34.9374Z" fill="black"/>
<path d="M83.7124 36.0137C84.0223 35.9965 84.333 36.0295 84.6323 36.1116C84.9483 36.139 85.255 36.2324 85.5327 36.3856C85.2155 36.3909 84.8992 36.3514 84.5932 36.2682C84.2875 36.233 83.9898 36.147 83.7124 36.0137Z" fill="black"/>
<path d="M80.4437 38.2061C80.4619 38.516 80.4289 38.8268 80.3458 39.126C80.3183 39.4419 80.225 39.7486 80.0718 40.0263C80.083 39.7252 80.1425 39.4278 80.2479 39.1455C80.257 38.8233 80.3233 38.5051 80.4437 38.2061Z" fill="black"/>
<path d="M81.52 32.7453C81.5018 32.4354 81.5348 32.1245 81.6179 31.8254C81.655 31.5138 81.7409 31.21 81.8723 30.925C81.934 31.2286 81.934 31.5414 81.8723 31.845C81.8044 32.1622 81.6854 32.4663 81.52 32.7453Z" fill="black"/>
<path d="M77.919 35.4853C77.919 36.0939 78.0997 36.6888 78.4383 37.1946C78.7768 37.7003 79.2579 38.0942 79.8205 38.3261C80.3832 38.5581 81.002 38.6178 81.5986 38.4977C82.1953 38.3775 82.7428 38.0829 83.1717 37.6512C83.6007 37.2195 83.8918 36.6701 84.0081 36.0727C84.1245 35.4754 84.0608 34.8569 83.8253 34.2958C83.5897 33.7346 83.1928 33.256 82.6849 32.9208C82.177 32.5855 81.5809 32.4085 80.9723 32.4124C80.5697 32.4124 80.1711 32.492 79.7993 32.6467C79.4276 32.8014 79.0901 33.028 78.8064 33.3136C78.5226 33.5992 78.2981 33.9381 78.1458 34.3109C77.9935 34.6836 77.9164 35.0827 77.919 35.4853Z" fill="#6C6D6D"/>
<path d="M78.4083 35.4854C78.4121 35.9917 78.5658 36.4855 78.8499 36.9046C79.1339 37.3236 79.5357 37.6492 80.0046 37.8403C80.4734 38.0314 80.9883 38.0793 81.4844 37.9782C81.9805 37.8771 82.4355 37.6314 82.7921 37.272C83.1488 36.9127 83.391 36.4558 83.4884 35.9589C83.5857 35.4621 83.5338 34.9476 83.3392 34.4802C83.1446 34.0128 82.8159 33.6135 82.3947 33.3327C81.9735 33.0518 81.4786 32.9019 80.9723 32.9019C80.6339 32.9018 80.2989 32.9688 79.9865 33.0989C79.6742 33.229 79.3907 33.4196 79.1523 33.6597C78.914 33.8999 78.7255 34.1849 78.5978 34.4982C78.4701 34.8116 78.4057 35.1471 78.4083 35.4854Z" fill="#9E9E9E"/>
<path d="M78.9171 35.4855C78.9178 35.9007 79.043 36.3061 79.2766 36.6494C79.5102 36.9927 79.8414 37.2579 80.2274 37.4109C80.6134 37.5639 81.0364 37.5975 81.4417 37.5075C81.847 37.4175 82.216 37.2079 82.5009 36.9059C82.7858 36.6039 82.9736 36.2233 83.0399 35.8134C83.1062 35.4036 83.048 34.9832 82.8728 34.6068C82.6976 34.2304 82.4135 33.9151 82.0572 33.7019C81.701 33.4887 81.2889 33.3873 80.8744 33.4108C80.6071 33.4103 80.3427 33.4646 80.0972 33.5702C79.8517 33.6758 79.6305 33.8306 79.4471 34.0249C79.2638 34.2193 79.1221 34.4492 79.031 34.7004C78.9398 34.9516 78.9011 35.2188 78.9171 35.4855Z" fill="#494949"/>
<path d="M79.171 35.4854C79.171 35.8462 79.2783 36.1989 79.4792 36.4987C79.6801 36.7984 79.9655 37.0317 80.2993 37.1689C80.633 37.3061 81 37.341 81.3536 37.2691C81.7072 37.1973 82.0315 37.022 82.2853 36.7654C82.5391 36.5089 82.7109 36.1827 82.7789 35.8284C82.8469 35.474 82.808 35.1074 82.6673 34.7751C82.5265 34.4429 82.2901 34.16 81.9882 33.9624C81.6863 33.7647 81.3325 33.6613 80.9717 33.6651C80.7336 33.6651 80.4978 33.7123 80.278 33.8041C80.0583 33.8958 79.8589 34.0302 79.6914 34.1995C79.524 34.3687 79.3917 34.5696 79.3024 34.7903C79.2131 35.011 79.1684 35.2473 79.171 35.4854Z" fill="#6C6D6D"/>
<path d="M79.5827 35.4852C79.5865 35.7591 79.6713 36.0259 79.8263 36.2518C79.9813 36.4777 80.1997 36.6528 80.4539 36.755C80.7082 36.8572 80.987 36.8819 81.2552 36.8261C81.5235 36.7703 81.7693 36.6364 81.9617 36.4413C82.1541 36.2462 82.2845 35.9986 82.3365 35.7296C82.3886 35.4606 82.36 35.1822 82.2542 34.9294C82.1485 34.6766 81.9704 34.4607 81.7423 34.3088C81.5142 34.157 81.2463 34.076 80.9723 34.0759C80.7882 34.0759 80.6059 34.1125 80.436 34.1836C80.2661 34.2546 80.112 34.3587 79.9827 34.4898C79.8534 34.621 79.7514 34.7765 79.6828 34.9473C79.6141 35.1182 79.5801 35.301 79.5827 35.4852Z" fill="#9E9E9E"/>
<path d="M28.165 35.4853C28.165 36.4415 28.4486 37.3762 28.9798 38.1712C29.511 38.9662 30.266 39.5859 31.1494 39.9518C32.0328 40.3177 33.0048 40.4134 33.9426 40.2269C34.8804 40.0403 35.7418 39.5799 36.418 38.9038C37.0941 38.2277 37.5545 37.3663 37.741 36.4285C37.9276 35.4907 37.8318 34.5186 37.4659 33.6353C37.1 32.7519 36.4804 31.9968 35.6854 31.4656C34.8903 30.9344 33.9557 30.6509 32.9995 30.6509C31.7173 30.6509 30.4876 31.1602 29.581 32.0669C28.6744 32.9735 28.165 34.2032 28.165 35.4853Z" fill="black"/>
<path d="M28.165 35.4853C28.165 36.4415 28.4486 37.3762 28.9798 38.1712C29.511 38.9662 30.266 39.5859 31.1494 39.9518C32.0328 40.3177 33.0048 40.4134 33.9426 40.2269C34.8804 40.0403 35.7418 39.5799 36.418 38.9038C37.0941 38.2277 37.5545 37.3663 37.741 36.4285C37.9276 35.4907 37.8318 34.5186 37.4659 33.6353C37.1 32.7519 36.4804 31.9968 35.6854 31.4656C34.8903 30.9344 33.9557 30.6509 32.9995 30.6509C31.7173 30.6509 30.4876 31.1602 29.581 32.0669C28.6744 32.9735 28.165 34.2032 28.165 35.4853Z" fill="#262626"/>
<path d="M28.165 35.4853C28.165 36.4415 28.4486 37.3762 28.9798 38.1712C29.511 38.9662 30.266 39.5859 31.1494 39.9518C32.0328 40.3177 33.0048 40.4134 33.9426 40.2269C34.8804 40.0403 35.7418 39.5799 36.418 38.9038C37.0941 38.2277 37.5545 37.3663 37.741 36.4285C37.9276 35.4907 37.8318 34.5186 37.4659 33.6353C37.1 32.7519 36.4804 31.9968 35.6854 31.4656C34.8903 30.9344 33.9557 30.6509 32.9995 30.6509C31.7173 30.6509 30.4876 31.1602 29.581 32.0669C28.6744 32.9735 28.165 34.2032 28.165 35.4853Z" fill="#262626"/>
<path d="M33.0778 31.7666C33.1384 32.0702 33.1384 32.3829 33.0778 32.6865C33.0288 32.3818 33.0288 32.0713 33.0778 31.7666C33.0288 31.4619 33.0288 31.1514 33.0778 30.8467C33.1384 31.1503 33.1384 31.463 33.0778 31.7666Z" fill="black"/>
<path d="M33.0778 39.1455C33.1384 39.4491 33.1384 39.7618 33.0778 40.0654C33.0288 39.7607 33.0288 39.4502 33.0778 39.1455C33.0288 38.8408 33.0288 38.5303 33.0778 38.2256C33.1384 38.5292 33.1384 38.8419 33.0778 39.1455Z" fill="black"/>
<path d="M29.3003 35.5638C29.8083 35.5638 30.2202 35.5288 30.2202 35.4855C30.2202 35.4423 29.8083 35.4072 29.3003 35.4072C28.7922 35.4072 28.3804 35.4423 28.3804 35.4855C28.3804 35.5288 28.7922 35.5638 29.3003 35.5638Z" fill="black"/>
<path d="M36.7183 35.5638C37.2263 35.5638 37.6382 35.5288 37.6382 35.4855C37.6382 35.4423 37.2263 35.4072 36.7183 35.4072C36.2102 35.4072 35.7983 35.4423 35.7983 35.4855C35.7983 35.5288 36.2102 35.5638 36.7183 35.5638Z" fill="black"/>
<path d="M31.0421 33.5084C30.7694 33.3468 30.5248 33.1419 30.318 32.9016C29.9657 32.5493 29.6916 32.2362 29.7308 32.197C30.0009 32.3543 30.2398 32.56 30.4354 32.8038C30.6774 33.0012 30.8828 33.2397 31.0421 33.5084Z" fill="black"/>
<path d="M34.9766 37.4424C35.2413 37.6072 35.4789 37.8119 35.6812 38.0491C35.9233 38.2466 36.1287 38.4851 36.288 38.7538C36.288 38.7538 35.9357 38.5189 35.5638 38.147C35.1919 37.7751 34.9375 37.4815 34.9766 37.4424Z" fill="black"/>
<path d="M31.0423 37.4424C30.883 37.711 30.6776 37.9495 30.4356 38.147C30.24 38.3908 30.0011 38.5965 29.731 38.7538C29.731 38.7538 29.9658 38.4014 30.3181 38.0491C30.5249 37.8089 30.7696 37.6039 31.0423 37.4424Z" fill="black"/>
<path d="M34.9766 33.5085C34.9766 33.5085 35.2114 33.1562 35.5637 32.8039C35.916 32.4516 36.2488 32.158 36.2879 32.1971C36.1286 32.4658 35.9232 32.7043 35.6812 32.9017C35.4789 33.139 35.2412 33.3436 34.9766 33.5085Z" fill="black"/>
<path d="M31.4923 32.0993C31.3417 31.826 31.2422 31.5275 31.1987 31.2185C31.3908 31.4569 31.5369 31.7291 31.6293 32.021C31.7694 32.2988 31.8683 32.5955 31.9229 32.9018C31.7308 32.6633 31.5848 32.3912 31.4923 32.0993Z" fill="black"/>
<path d="M34.5258 38.8518C34.6702 39.1347 34.7693 39.4385 34.8194 39.7521C34.6165 39.5105 34.4635 39.2311 34.3692 38.9301C34.2295 38.6538 34.1369 38.3561 34.0952 38.0493C34.2873 38.2878 34.4333 38.5599 34.5258 38.8518Z" fill="black"/>
<path d="M29.555 36.8554C29.8271 36.7022 30.1261 36.6025 30.4357 36.5618C30.1884 36.7513 29.9103 36.897 29.6137 36.9924C29.337 37.1351 29.0399 37.2342 28.7329 37.286C28.9802 37.0964 29.2583 36.9508 29.555 36.8554Z" fill="black"/>
<path d="M36.4442 34.0956C36.1721 34.2488 35.8731 34.3485 35.5635 34.3892C35.8108 34.1997 36.0889 34.054 36.3855 33.9586C36.6377 33.8232 36.9079 33.7243 37.188 33.665C36.9645 33.8471 36.7134 33.9924 36.4442 34.0956Z" fill="black"/>
<path d="M30.4157 34.4285C30.1083 34.3895 29.8102 34.2967 29.5349 34.1544C29.2413 34.0608 28.964 33.9222 28.7129 33.7434C29.0203 33.7824 29.3184 33.8752 29.5937 34.0174C29.891 34.1017 30.1699 34.2411 30.4157 34.4285Z" fill="black"/>
<path d="M35.583 36.5227C35.8904 36.5617 36.1885 36.6544 36.4638 36.7967C36.7645 36.8878 37.0487 37.0266 37.3054 37.2077C37.3054 37.2077 36.8944 37.2077 36.4051 36.9533C36.1084 36.8579 35.8303 36.7123 35.583 36.5227Z" fill="black"/>
<path d="M31.9624 38.0493C31.9249 38.3632 31.8321 38.668 31.6884 38.9497C31.593 39.2463 31.4474 39.5244 31.2578 39.7717C31.2968 39.4643 31.3896 39.1662 31.5318 38.8909C31.6302 38.5895 31.7755 38.3055 31.9624 38.0493Z" fill="black"/>
<path d="M34.7412 31.1792C34.7022 31.4866 34.6095 31.7847 34.4672 32.06C34.3708 32.3586 34.2324 32.642 34.0562 32.9016C34.0937 32.5877 34.1865 32.2829 34.3302 32.0013C34.4145 31.7039 34.5539 31.425 34.7412 31.1792Z" fill="black"/>
<path d="M32.2166 31.845C32.1602 31.5409 32.1602 31.2291 32.2166 30.925C32.348 31.21 32.4339 31.5138 32.471 31.8254C32.5392 32.1282 32.5392 32.4425 32.471 32.7453C32.3396 32.4604 32.2537 32.1566 32.2166 31.845Z" fill="black"/>
<path d="M33.7825 39.1455C33.8318 39.4501 33.8318 39.7607 33.7825 40.0654C33.651 39.7804 33.5652 39.4766 33.528 39.165C33.445 38.8659 33.4119 38.5551 33.4302 38.2451C33.5956 38.5242 33.7146 38.8282 33.7825 39.1455Z" fill="black"/>
<path d="M29.3588 36.092C29.6581 36.01 29.9688 35.977 30.2787 35.9942C30.2787 35.9942 29.8873 36.1508 29.3979 36.2486C29.0986 36.3306 28.7879 36.3637 28.478 36.3465C28.7554 36.2132 29.0531 36.1272 29.3588 36.092Z" fill="black"/>
<path d="M36.6592 34.8589C36.3599 34.9417 36.0492 34.9747 35.7393 34.9568C36.0204 34.8153 36.326 34.7289 36.6396 34.7024C36.9388 34.6193 37.2496 34.5862 37.5595 34.6045C37.2746 34.736 36.9708 34.8218 36.6592 34.8589Z" fill="black"/>
<path d="M30.6898 33.9197C30.4023 33.8084 30.1321 33.6569 29.8873 33.4695C29.6152 33.315 29.3705 33.1166 29.1631 32.8823C29.4642 32.9766 29.7435 33.1296 29.9851 33.3325C30.3962 33.6065 30.7289 33.8805 30.6898 33.9197Z" fill="black"/>
<path d="M35.2305 37.0315C35.5184 37.1502 35.7885 37.3083 36.0329 37.5012C36.3018 37.6525 36.546 37.8439 36.7571 38.0688C36.4632 37.9718 36.1907 37.8189 35.9547 37.6187C35.6776 37.4716 35.4316 37.2722 35.2305 37.0315Z" fill="black"/>
<path d="M31.4333 37.7754C31.3391 38.0765 31.1861 38.3559 30.9832 38.5974C30.7092 39.0085 30.4351 39.3412 30.396 39.3021C30.5072 39.0146 30.6588 38.7444 30.8462 38.4996C31.0006 38.2275 31.199 37.9828 31.4333 37.7754Z" fill="black"/>
<path d="M34.5654 33.2737C34.6695 32.9769 34.8216 32.6992 35.0156 32.4516C35.3092 32.0406 35.5636 31.7079 35.6028 31.747C35.5012 32.039 35.3488 32.3106 35.1526 32.5495C34.9981 32.8216 34.7997 33.0663 34.5654 33.2737Z" fill="black"/>
<path d="M31.4528 33.1561C31.4528 33.1561 31.1592 32.8625 30.8657 32.4319C30.6754 32.1922 30.5296 31.9204 30.4351 31.6294C30.66 31.8405 30.8514 32.0847 31.0027 32.3536C31.2029 32.5896 31.3558 32.8621 31.4528 33.1561Z" fill="black"/>
<path d="M34.5454 37.7949C34.7861 37.9961 34.9855 38.242 35.1326 38.5191C35.3328 38.7552 35.4857 39.0276 35.5828 39.3216C35.5828 39.3216 35.2892 39.028 34.9956 38.5974C34.8127 38.3497 34.6615 38.0801 34.5454 37.7949Z" fill="black"/>
<path d="M29.8677 37.4817C30.112 37.2827 30.3906 37.1302 30.6898 37.0315C30.4846 37.2628 30.2392 37.4551 29.9656 37.5991C29.7267 37.7953 29.455 37.9477 29.1631 38.0493C29.1631 38.0493 29.4567 37.7557 29.8677 37.4817Z" fill="black"/>
<path d="M36.1311 33.489C35.8858 33.6817 35.6072 33.8277 35.3091 33.9196C35.5196 33.694 35.7639 33.5025 36.0333 33.352C36.2775 33.1531 36.5561 33.0005 36.8553 32.9019C36.6479 33.1362 36.4032 33.3346 36.1311 33.489Z" fill="black"/>
<path d="M30.2788 34.9374C29.9688 34.9557 29.658 34.9226 29.3588 34.8395C29.0472 34.8024 28.7434 34.7165 28.4585 34.5851C28.762 34.5234 29.0749 34.5234 29.3784 34.5851C29.6956 34.653 29.9997 34.772 30.2788 34.9374Z" fill="black"/>
<path d="M35.7393 36.0137C36.0492 35.9965 36.3598 36.0295 36.6592 36.1116C37.1681 36.2094 37.5595 36.3269 37.5399 36.3856C37.2293 36.3898 36.9196 36.3503 36.62 36.2682C36.3143 36.233 36.0166 36.147 35.7393 36.0137Z" fill="black"/>
<path d="M32.471 38.2061C32.4885 38.5173 32.4487 38.8291 32.3536 39.126C32.327 39.4396 32.2406 39.7452 32.0991 40.0263C32.0809 39.7164 32.1139 39.4055 32.197 39.1064C32.2244 38.7904 32.3178 38.4837 32.471 38.2061Z" fill="black"/>
<path d="M33.5479 32.7453C33.5296 32.4354 33.5627 32.1245 33.6457 31.8254C33.6828 31.5138 33.7687 31.21 33.9002 30.925C33.9184 31.235 33.8854 31.5458 33.8023 31.845C33.7652 32.1566 33.6793 32.4604 33.5479 32.7453Z" fill="black"/>
<path d="M32.9991 38.5388C34.6854 38.5388 36.0525 37.1718 36.0525 35.4855C36.0525 33.7992 34.6854 32.4321 32.9991 32.4321C31.3128 32.4321 29.9458 33.7992 29.9458 35.4855C29.9458 37.1718 31.3128 38.5388 32.9991 38.5388Z" fill="#6C6D6D"/>
<path d="M30.4351 35.4854C30.439 35.9917 30.5927 36.4855 30.8767 36.9046C31.1608 37.3236 31.5626 37.6492 32.0314 37.8403C32.5003 38.0314 33.0152 38.0793 33.5113 37.9782C34.0073 37.8771 34.4624 37.6314 34.819 37.272C35.1756 36.9127 35.4179 36.4558 35.5152 35.9589C35.6126 35.4621 35.5607 34.9476 35.3661 34.4802C35.1714 34.0128 34.8428 33.6135 34.4216 33.3327C34.0004 33.0518 33.5054 32.9019 32.9992 32.9019C32.6608 32.9018 32.3258 32.9688 32.0134 33.0989C31.701 33.229 31.4175 33.4196 31.1792 33.6597C30.9408 33.8999 30.7524 34.1849 30.6247 34.4982C30.497 34.8116 30.4326 35.1471 30.4351 35.4854Z" fill="#9E9E9E"/>
<path d="M30.9444 35.4854C30.9944 35.9984 31.2335 36.4744 31.6152 36.8207C31.9969 37.167 32.4939 37.3589 33.0093 37.3589C33.5247 37.3589 34.0216 37.167 34.4033 36.8207C34.785 36.4744 35.0242 35.9984 35.0742 35.4854C35.1023 35.1974 35.0698 34.9066 34.9788 34.6319C34.8878 34.3571 34.7403 34.1045 34.5458 33.8901C34.3513 33.6758 34.1142 33.5045 33.8495 33.3873C33.5849 33.27 33.2987 33.2095 33.0093 33.2095C32.7198 33.2095 32.4336 33.27 32.169 33.3873C31.9044 33.5045 31.6672 33.6758 31.4727 33.8901C31.2782 34.1045 31.1308 34.3571 31.0398 34.6319C30.9488 34.9066 30.9163 35.1974 30.9444 35.4854Z" fill="#494949"/>
<path d="M31.1988 35.4853C31.2454 35.933 31.4562 36.3476 31.7906 36.6489C32.1249 36.9503 32.5591 37.1171 33.0092 37.1171C33.4593 37.1171 33.8935 36.9503 34.2279 36.6489C34.5622 36.3476 34.7731 35.933 34.8197 35.4853C34.8461 35.2317 34.8189 34.9755 34.74 34.7331C34.661 34.4907 34.532 34.2675 34.3613 34.0782C34.1907 33.8888 33.9821 33.7374 33.7492 33.6338C33.5163 33.5301 33.2642 33.4766 33.0092 33.4766C32.7543 33.4766 32.5022 33.5301 32.2693 33.6338C32.0363 33.7374 31.8278 33.8888 31.6571 34.0782C31.4864 34.2675 31.3574 34.4907 31.2785 34.7331C31.1995 34.9755 31.1724 35.2317 31.1988 35.4853Z" fill="#6C6D6D"/>
<path d="M31.6095 35.4852C31.6134 35.7591 31.6981 36.0259 31.8532 36.2518C32.0082 36.4777 32.2266 36.6528 32.4808 36.755C32.735 36.8572 33.0138 36.8819 33.2821 36.8261C33.5504 36.7703 33.7961 36.6364 33.9885 36.4413C34.1809 36.2462 34.3113 35.9986 34.3634 35.7296C34.4154 35.4606 34.3868 35.1822 34.2811 34.9294C34.1753 34.6766 33.9972 34.4607 33.7692 34.3088C33.5411 34.157 33.2732 34.076 32.9992 34.0759C32.815 34.0759 32.6327 34.1125 32.4628 34.1836C32.2929 34.2546 32.1389 34.3587 32.0096 34.4898C31.8802 34.621 31.7783 34.7765 31.7096 34.9473C31.641 35.1182 31.6069 35.301 31.6095 35.4852Z" fill="#9E9E9E"/>
<path d="M17.4585 35.4854C17.4585 36.4415 17.7421 37.3762 18.2733 38.1712C18.8045 38.9663 19.5595 39.5859 20.4429 39.9518C21.3263 40.3177 22.2983 40.4135 23.2361 40.2269C24.1739 40.0404 25.0353 39.58 25.7115 38.9038C26.3876 38.2277 26.848 37.3663 27.0345 36.4285C27.2211 35.4907 27.1253 34.5187 26.7594 33.6353C26.3935 32.7519 25.7739 31.9969 24.9789 31.4657C24.1838 30.9345 23.2491 30.6509 22.293 30.6509C21.6574 30.6483 21.0276 30.7716 20.4399 31.0136C19.8521 31.2557 19.3182 31.6117 18.8687 32.0611C18.4193 32.5106 18.0633 33.0445 17.8213 33.6322C17.5792 34.22 17.4559 34.8498 17.4585 35.4854Z" fill="black"/>
<path d="M17.4585 35.4854C17.4585 36.4415 17.7421 37.3762 18.2733 38.1712C18.8045 38.9663 19.5595 39.5859 20.4429 39.9518C21.3263 40.3177 22.2983 40.4135 23.2361 40.2269C24.1739 40.0404 25.0353 39.58 25.7115 38.9038C26.3876 38.2277 26.848 37.3663 27.0345 36.4285C27.2211 35.4907 27.1253 34.5187 26.7594 33.6353C26.3935 32.7519 25.7739 31.9969 24.9789 31.4657C24.1838 30.9345 23.2491 30.6509 22.293 30.6509C21.6574 30.6483 21.0276 30.7716 20.4399 31.0136C19.8521 31.2557 19.3182 31.6117 18.8687 32.0611C18.4193 32.5106 18.0633 33.0445 17.8213 33.6322C17.5792 34.22 17.4559 34.8498 17.4585 35.4854Z" fill="#262626"/>
<path d="M17.4585 35.4854C17.4585 36.4415 17.7421 37.3762 18.2733 38.1712C18.8045 38.9663 19.5595 39.5859 20.4429 39.9518C21.3263 40.3177 22.2983 40.4135 23.2361 40.2269C24.1739 40.0404 25.0353 39.58 25.7115 38.9038C26.3876 38.2277 26.848 37.3663 27.0345 36.4285C27.2211 35.4907 27.1253 34.5187 26.7594 33.6353C26.3935 32.7519 25.7739 31.9969 24.9789 31.4657C24.1838 30.9345 23.2491 30.6509 22.293 30.6509C21.6574 30.6483 21.0276 30.7716 20.4399 31.0136C19.8521 31.2557 19.3182 31.6117 18.8687 32.0611C18.4193 32.5106 18.0633 33.0445 17.8213 33.6322C17.5792 34.22 17.4559 34.8498 17.4585 35.4854Z" fill="#262626"/>
<path d="M22.3716 31.7666C22.4206 32.0713 22.4206 32.3818 22.3716 32.6865C22.311 32.3829 22.311 32.0702 22.3716 31.7666C22.311 31.463 22.311 31.1503 22.3716 30.8467C22.4206 31.1514 22.4206 31.4619 22.3716 31.7666Z" fill="black"/>
<path d="M22.3716 39.1455C22.4206 39.4502 22.4206 39.7607 22.3716 40.0654C22.311 39.7618 22.311 39.4491 22.3716 39.1455C22.311 38.8419 22.311 38.5292 22.3716 38.2256C22.4206 38.5303 22.4206 38.8408 22.3716 39.1455Z" fill="black"/>
<path d="M18.5742 35.5638C19.0823 35.5638 19.4941 35.5288 19.4941 35.4855C19.4941 35.4423 19.0823 35.4072 18.5742 35.4072C18.0662 35.4072 17.6543 35.4423 17.6543 35.4855C17.6543 35.5288 18.0662 35.5638 18.5742 35.5638Z" fill="black"/>
<path d="M25.9927 35.5638C26.5007 35.5638 26.9126 35.5288 26.9126 35.4855C26.9126 35.4423 26.5007 35.4072 25.9927 35.4072C25.4846 35.4072 25.0728 35.4423 25.0728 35.4855C25.0728 35.5288 25.4846 35.5638 25.9927 35.5638Z" fill="black"/>
<path d="M20.3162 33.5084C20.0476 33.349 19.8091 33.1437 19.6116 32.9016C19.3696 32.7042 19.1642 32.4657 19.0049 32.197C19.0049 32.197 19.3572 32.4319 19.7291 32.8038C20.1009 33.1757 20.3554 33.4692 20.3162 33.5084Z" fill="black"/>
<path d="M24.2505 37.4424C24.5233 37.6039 24.7679 37.8089 24.9747 38.0491C25.327 38.4014 25.601 38.7146 25.5619 38.7538C25.5227 38.7929 25.2095 38.5189 24.8572 38.147C24.6152 37.9495 24.4098 37.711 24.2505 37.4424Z" fill="black"/>
<path d="M20.3162 37.4424C20.3162 37.4424 20.0814 37.7947 19.7291 38.147C19.3768 38.4993 19.044 38.7929 19.0049 38.7538C19.1642 38.4851 19.3696 38.2466 19.6116 38.0491C19.8091 37.8071 20.0476 37.6017 20.3162 37.4424Z" fill="black"/>
<path d="M24.2505 33.5085C24.4098 33.2398 24.6152 33.0013 24.8572 32.8038C25.2095 32.432 25.5227 32.1579 25.5619 32.1971C25.601 32.2362 25.327 32.5494 24.9747 32.9017C24.7679 33.142 24.5233 33.3469 24.2505 33.5085Z" fill="black"/>
<path d="M20.7662 32.0993C20.6262 31.8215 20.5273 31.5248 20.4727 31.2185C20.6669 31.4587 20.8191 31.73 20.9228 32.021C21.0626 32.2973 21.1552 32.5949 21.1968 32.9018C21.0047 32.6633 20.8587 32.3912 20.7662 32.0993Z" fill="black"/>
<path d="M23.8002 38.8518C23.9549 39.1303 24.0546 39.436 24.0938 39.7521C23.9095 39.5015 23.7643 39.2243 23.6632 38.9301C23.5232 38.6523 23.4243 38.3556 23.3696 38.0493C23.5617 38.2878 23.7078 38.5599 23.8002 38.8518Z" fill="black"/>
<path d="M18.8484 36.8554C19.1206 36.7022 19.4195 36.6025 19.7292 36.5618C19.4819 36.7513 19.2038 36.897 18.9071 36.9924C18.6305 37.1351 18.3334 37.2342 18.0264 37.286C18.2737 37.0964 18.5518 36.9508 18.8484 36.8554Z" fill="black"/>
<path d="M25.7382 34.0956C25.466 34.2488 25.1671 34.3485 24.8574 34.3892C25.1048 34.1997 25.3828 34.054 25.6795 33.9586C25.9561 33.8159 26.2533 33.7168 26.5602 33.665C26.3129 33.8546 26.0348 34.0002 25.7382 34.0956Z" fill="black"/>
<path d="M19.7097 34.4285C19.3963 34.3882 19.092 34.2956 18.8094 34.1544C18.5157 34.0608 18.2384 33.9222 17.9873 33.7434C18.3007 33.7836 18.605 33.8763 18.8876 34.0174C19.185 34.1017 19.4639 34.2411 19.7097 34.4285Z" fill="black"/>
<path d="M24.877 36.5227C25.1838 36.5643 25.4814 36.657 25.7577 36.7967C26.0514 36.8903 26.3287 37.029 26.5798 37.2077C26.5798 37.2077 26.1687 37.2077 25.699 36.9533C25.4023 36.8579 25.1243 36.7123 24.877 36.5227Z" fill="black"/>
<path d="M21.2363 38.0493C21.1988 38.3632 21.106 38.668 20.9623 38.9497C20.878 39.247 20.7386 39.5259 20.5513 39.7717C20.5903 39.4643 20.683 39.1662 20.8253 38.8909C20.9122 38.5886 21.0513 38.3038 21.2363 38.0493Z" fill="black"/>
<path d="M24.0352 31.1794C23.9852 31.4843 23.893 31.7808 23.7612 32.0602C23.6628 32.3617 23.5175 32.6457 23.3306 32.9018C23.3681 32.5879 23.4609 32.2831 23.6046 32.0015C23.8003 31.5318 23.9765 31.1599 24.0352 31.1794Z" fill="black"/>
<path d="M21.5298 31.845C21.4471 31.5457 21.4141 31.235 21.432 30.925C21.5634 31.21 21.6493 31.5138 21.6864 31.8254C21.7368 32.13 21.7368 32.4407 21.6864 32.7453C21.5885 32.455 21.5357 32.1513 21.5298 31.845Z" fill="black"/>
<path d="M23.0567 39.1455C23.1387 39.4449 23.1717 39.7555 23.1545 40.0654C23.0211 39.7744 22.9352 39.4638 22.9001 39.1455C22.8497 38.8409 22.8497 38.5302 22.9001 38.2256C23.0208 38.5165 23.0743 38.831 23.0567 39.1455Z" fill="black"/>
<path d="M18.6333 36.092C18.9324 36.0089 19.2432 35.9759 19.5532 35.9941C19.272 36.1356 18.9664 36.222 18.6528 36.2486C18.3537 36.3317 18.0428 36.3647 17.7329 36.3464C18.0178 36.215 18.3217 36.1291 18.6333 36.092Z" fill="black"/>
<path d="M25.9532 34.859C25.6473 34.9417 25.3301 34.9748 25.0137 34.9568C25.2948 34.8153 25.6004 34.729 25.914 34.7024C26.2134 34.6204 26.524 34.5873 26.8339 34.6045C26.5566 34.7379 26.2589 34.8239 25.9532 34.859Z" fill="black"/>
<path d="M19.9834 33.9197C19.6938 33.813 19.4229 33.6611 19.1809 33.4695C18.7503 33.1759 18.4176 32.9215 18.4567 32.8823C18.7507 32.9794 19.0232 33.1322 19.2592 33.3325C19.5363 33.4796 19.7822 33.679 19.9834 33.9197Z" fill="black"/>
<path d="M24.583 37.0315C24.8784 37.1473 25.1553 37.3056 25.4051 37.5012C25.6696 37.6589 25.913 37.8496 26.1292 38.0688C25.8282 37.9746 25.5488 37.8216 25.3072 37.6187C25.0347 37.4648 24.7899 37.2663 24.583 37.0315Z" fill="black"/>
<path d="M20.7273 37.7754C20.6232 38.0722 20.4711 38.3499 20.2771 38.5974C19.9835 39.0085 19.7291 39.3412 19.6899 39.3021C19.7915 39.0101 19.9439 38.7385 20.1401 38.4996C20.2872 38.2225 20.4866 37.9766 20.7273 37.7754Z" fill="black"/>
<path d="M23.8589 33.2737C23.9532 32.9726 24.1062 32.6932 24.3091 32.4516C24.5831 32.0406 24.8571 31.7079 24.8962 31.747C24.7721 32.0322 24.6144 32.3016 24.4265 32.5495C24.2752 32.8184 24.0838 33.0626 23.8589 33.2737Z" fill="black"/>
<path d="M20.7273 33.1561C20.4965 32.9503 20.3043 32.7051 20.1596 32.4319C19.9594 32.1958 19.8065 31.9233 19.7095 31.6294C19.9438 31.8368 20.1422 32.0815 20.2967 32.3536C20.4869 32.5932 20.6328 32.865 20.7273 33.1561Z" fill="black"/>
<path d="M23.8394 37.7949C24.0737 38.0023 24.2721 38.247 24.4265 38.5191C24.6168 38.7588 24.7626 39.0305 24.8571 39.3216C24.8571 39.3216 24.5635 39.028 24.2895 38.5974C24.0893 38.3613 23.9364 38.0889 23.8394 37.7949Z" fill="black"/>
<path d="M19.1617 37.4817C19.4006 37.2855 19.6722 37.1331 19.9642 37.0315C19.9642 37.0315 19.6706 37.3251 19.24 37.5991C19.0039 37.7994 18.7314 37.9522 18.4375 38.0493C18.6427 37.818 18.888 37.6257 19.1617 37.4817Z" fill="black"/>
<path d="M25.4441 33.489C25.2044 33.6793 24.9326 33.8251 24.6416 33.9196C24.8468 33.6883 25.0921 33.496 25.3658 33.352C25.6047 33.1559 25.8763 33.0035 26.1683 32.9019C26.1683 32.9019 25.8355 33.2737 25.4441 33.489Z" fill="black"/>
<path d="M19.5722 34.9372C19.2623 34.9544 18.9516 34.9213 18.6523 34.8393C18.3407 34.8022 18.0369 34.7163 17.752 34.5848C18.0621 34.5231 18.3813 34.5231 18.6914 34.5848C19.0032 34.6506 19.3012 34.7698 19.5722 34.9372Z" fill="black"/>
<path d="M25.0137 36.0137C25.3236 35.9954 25.6344 36.0285 25.9336 36.1115C26.2495 36.139 26.5562 36.2323 26.8339 36.3856C26.5232 36.3914 26.2133 36.3519 25.914 36.2681C25.6024 36.231 25.2986 36.1451 25.0137 36.0137Z" fill="black"/>
<path d="M21.7454 38.2061C21.7958 38.5106 21.7958 38.8214 21.7454 39.126C21.7083 39.4376 21.6224 39.7414 21.4909 40.0263C21.4473 39.7329 21.4606 39.4339 21.5301 39.1455C21.5507 38.8228 21.6234 38.5055 21.7454 38.2061Z" fill="black"/>
<path d="M22.8218 32.7453C22.8035 32.4354 22.8366 32.1245 22.9196 31.8254C22.9471 31.5094 23.0404 31.2027 23.1937 30.925C23.244 31.2296 23.244 31.5404 23.1937 31.845C23.1249 32.165 22.9989 32.47 22.8218 32.7453Z" fill="black"/>
<path d="M19.2203 35.4853C19.2203 36.0931 19.4005 36.6872 19.7382 37.1925C20.0758 37.6979 20.5557 38.0917 21.1172 38.3243C21.6787 38.5569 22.2966 38.6178 22.8927 38.4992C23.4888 38.3806 24.0363 38.088 24.4661 37.6582C24.8958 37.2284 25.1885 36.6809 25.307 36.0848C25.4256 35.4887 25.3648 34.8709 25.1322 34.3094C24.8996 33.7479 24.5057 33.268 24.0004 32.9303C23.4951 32.5926 22.901 32.4124 22.2932 32.4124C21.8889 32.4098 21.4882 32.4875 21.1142 32.641C20.7402 32.7945 20.4004 33.0208 20.1145 33.3067C19.8287 33.5925 19.6024 33.9323 19.4489 34.3063C19.2954 34.6803 19.2177 35.0811 19.2203 35.4853Z" fill="#6C6D6D"/>
<path d="M19.7291 35.4854C19.7329 35.9917 19.8866 36.4855 20.1707 36.9046C20.4548 37.3236 20.8565 37.6492 21.3254 37.8403C21.7942 38.0314 22.3091 38.0793 22.8052 37.9782C23.3013 37.8771 23.7563 37.6314 24.1129 37.272C24.4696 36.9127 24.7118 36.4558 24.8092 35.9589C24.9065 35.4621 24.8546 34.9476 24.66 34.4802C24.4654 34.0128 24.1368 33.6135 23.7155 33.3327C23.2943 33.0518 22.7994 32.9019 22.2931 32.9019C21.9547 32.9018 21.6197 32.9688 21.3073 33.0989C20.995 33.229 20.7115 33.4196 20.4731 33.6597C20.2348 33.8999 20.0463 34.1849 19.9186 34.4982C19.7909 34.8116 19.7265 35.1471 19.7291 35.4854Z" fill="#9E9E9E"/>
<path d="M20.2184 35.4854C20.2184 35.8958 20.34 36.2969 20.568 36.6381C20.796 36.9793 21.12 37.2452 21.4991 37.4022C21.8782 37.5592 22.2954 37.6003 22.6978 37.5203C23.1003 37.4402 23.4699 37.2426 23.7601 36.9525C24.0502 36.6623 24.2478 36.2926 24.3279 35.8902C24.4079 35.4877 24.3669 35.0706 24.2098 34.6915C24.0528 34.3124 23.7869 33.9884 23.4457 33.7604C23.1045 33.5324 22.7034 33.4107 22.2931 33.4107C22.0199 33.4081 21.7489 33.46 21.496 33.5633C21.2431 33.6667 21.0134 33.8194 20.8202 34.0126C20.627 34.2058 20.4743 34.4355 20.371 34.6884C20.2676 34.9413 20.2157 35.2123 20.2184 35.4854Z" fill="#494949"/>
<path d="M20.4728 35.4854C20.4728 35.8454 20.5795 36.1973 20.7795 36.4967C20.9795 36.796 21.2638 37.0293 21.5964 37.1671C21.929 37.3049 22.295 37.3409 22.6481 37.2707C23.0012 37.2004 23.3256 37.0271 23.5801 36.7725C23.8347 36.518 24.0081 36.1936 24.0783 35.8405C24.1485 35.4874 24.1125 35.1214 23.9747 34.7888C23.8369 34.4562 23.6036 34.1719 23.3043 33.9719C23.005 33.7719 22.653 33.6651 22.293 33.6651C22.0533 33.6625 21.8154 33.7078 21.5933 33.7984C21.3713 33.8889 21.1696 34.0229 21.0001 34.1924C20.8305 34.362 20.6965 34.5637 20.606 34.7857C20.5154 35.0078 20.4701 35.2456 20.4728 35.4854Z" fill="#6C6D6D"/>
<path d="M20.9038 35.4854C20.9038 35.8539 21.0502 36.2074 21.3108 36.468C21.5714 36.7286 21.9249 36.875 22.2935 36.875C22.662 36.875 23.0155 36.7286 23.2761 36.468C23.5367 36.2074 23.6831 35.8539 23.6831 35.4854C23.6831 35.3029 23.6472 35.1222 23.5773 34.9536C23.5075 34.785 23.4051 34.6318 23.2761 34.5027C23.1471 34.3737 22.9939 34.2713 22.8253 34.2015C22.6567 34.1316 22.476 34.0957 22.2935 34.0957C22.111 34.0957 21.9303 34.1316 21.7617 34.2015C21.5931 34.2713 21.4399 34.3737 21.3108 34.5027C21.1818 34.6318 21.0794 34.785 21.0096 34.9536C20.9398 35.1222 20.9038 35.3029 20.9038 35.4854Z" fill="#9E9E9E"/>
<path d="M16.0297 38.4019H16.519V33.587H16.0297V38.4019Z" fill="black"/>
<path d="M111.681 4.79541H98.4111V8.96439H115.479C115.577 8.96699 115.674 8.93972 115.757 8.88614C115.84 8.83257 115.905 8.7552 115.943 8.66418C115.981 8.57317 115.991 8.47277 115.971 8.37614C115.951 8.27952 115.902 8.1912 115.831 8.12276C115.831 8.12276 114.089 4.79541 111.681 4.79541Z" fill="#99CC33"/>
<path d="M113.619 34.2524H113.834C113.486 32.4721 112.55 30.8603 111.177 29.675C109.803 28.4898 108.072 27.7996 106.26 27.7151V9.92358H106.025V27.8717C107.828 27.9129 109.563 28.5675 110.943 29.7275C112.324 30.8875 113.268 32.4837 113.619 34.2524Z" fill="#355100"/>
<path d="M113.6 35.916H117.495V32.0211H113.6V35.916Z" fill="#628421"/>
<path d="M97.0214 36.3662H99.8203V35.7399H97.0214V36.3662Z" fill="#FF0000"/>
<path d="M100.936 7.82912C100.952 7.91111 100.949 7.99549 100.928 8.07626C100.907 8.15704 100.869 8.2322 100.816 8.29642C100.762 8.36064 100.696 8.41233 100.62 8.4478C100.544 8.48328 100.462 8.50167 100.379 8.50167C100.295 8.50167 100.213 8.48328 100.137 8.4478C100.062 8.41233 99.995 8.36064 99.9418 8.29642C99.8885 8.2322 99.85 8.15704 99.8291 8.07626C99.8082 7.99549 99.8054 7.91111 99.8208 7.82912C99.8453 7.69907 99.9144 7.58165 100.016 7.49717C100.118 7.41269 100.246 7.36646 100.379 7.36646C100.511 7.36646 100.639 7.41269 100.741 7.49717C100.843 7.58165 100.912 7.69907 100.936 7.82912Z" fill="#FFCE00"/>
<path d="M102.561 7.82912C102.576 7.91111 102.574 7.99549 102.553 8.07626C102.532 8.15704 102.493 8.2322 102.44 8.29642C102.387 8.36064 102.32 8.41233 102.244 8.4478C102.169 8.48328 102.087 8.50167 102.003 8.50167C101.92 8.50167 101.837 8.48328 101.762 8.4478C101.686 8.41233 101.62 8.36064 101.566 8.29642C101.513 8.2322 101.475 8.15704 101.454 8.07626C101.433 7.99549 101.43 7.91111 101.445 7.82912C101.47 7.69907 101.539 7.58165 101.641 7.49717C101.743 7.41269 101.871 7.36646 102.003 7.36646C102.135 7.36646 102.264 7.41269 102.366 7.49717C102.467 7.58165 102.537 7.69907 102.561 7.82912Z" fill="#FFCE00"/>
<path d="M104.185 7.82912C104.2 7.91111 104.198 7.99549 104.177 8.07626C104.156 8.15704 104.117 8.2322 104.064 8.29642C104.011 8.36064 103.944 8.41233 103.869 8.4478C103.793 8.48328 103.711 8.50167 103.627 8.50167C103.544 8.50167 103.461 8.48328 103.386 8.4478C103.31 8.41233 103.244 8.36064 103.19 8.29642C103.137 8.2322 103.099 8.15704 103.078 8.07626C103.057 7.99549 103.054 7.91111 103.069 7.82912C103.094 7.69907 103.163 7.58165 103.265 7.49717C103.367 7.41269 103.495 7.36646 103.627 7.36646C103.76 7.36646 103.888 7.41269 103.99 7.49717C104.091 7.58165 104.161 7.69907 104.185 7.82912Z" fill="#FFCE00"/>
<path d="M105.79 16.5781H106.495V9.92342H105.79V16.5781Z" fill="#0091BC"/>
<path d="M90.1122 29.8679H91.5605V29.4373H90.1122V29.8679Z" fill="#FFCE00"/>
<path d="M64.5116 29.8679H65.96V29.4373H64.5116V29.8679Z" fill="#FFCE00"/>
<path d="M38.9301 29.8679H40.3589V29.4373H38.9301V29.8679Z" fill="#FFCE00"/>
<path d="M13.3094 29.8679H14.7578V29.4373H13.3094V29.8679Z" fill="#FFCE00"/>
<path d="M91.5219 28.6936H92.2656V0.606834H91.5219V28.6936Z" fill="#FE6259"/>
<path d="M89.9559 28.6936H90.6997V0.606834H89.9559V28.6936Z" fill="#FE6259"/>
<path d="M88.39 28.6936H89.1338V0.606834H88.39V28.6936Z" fill="#FE6259"/>
<path d="M86.8246 28.6936H87.5684V0.606834H86.8246V28.6936Z" fill="#FE6259"/>
<path d="M85.2782 28.6936H86.022V0.606834H85.2782V28.6936Z" fill="#FE6259"/>
<path d="M83.7123 28.6936H84.4561V0.606834H83.7123V28.6936Z" fill="#FE6259"/>
<path d="M82.1268 28.6936H82.8706V0.606834H82.1268V28.6936Z" fill="#FE6259"/>
<path d="M80.5609 28.6936H81.3047V0.606834H80.5609V28.6936Z" fill="#FE6259"/>
<path d="M78.9955 28.6936H79.7393V0.606834H78.9955V28.6936Z" fill="#FE6259"/>
<path d="M77.4291 28.6936H78.1729V0.606834H77.4291V28.6936Z" fill="#FE6259"/>
<path d="M75.8832 28.6936H76.627V0.606834H75.8832V28.6936Z" fill="#FE6259"/>
<path d="M74.3173 28.6936H75.061V0.606834H74.3173V28.6936Z" fill="#FE6259"/>
<path d="M72.7514 28.6936H73.4951V0.606834H72.7514V28.6936Z" fill="#FE6259"/>
<path d="M71.1859 28.6936H71.9297V0.606834H71.1859V28.6936Z" fill="#FE6259"/>
<path d="M69.62 28.6936H70.3638V0.606834H69.62V28.6936Z" fill="#FE6259"/>
<path d="M68.0541 28.6936H68.7979V0.606834H68.0541V28.6936Z" fill="#FE6259"/>
<path d="M66.5077 28.6936H67.2515V0.606834H66.5077V28.6936Z" fill="#FE6259"/>
<path d="M64.9423 28.6936H65.686V0.606834H64.9423V28.6936Z" fill="#FE6259"/>
<path d="M63.3759 28.6936H64.1196V0.606834H63.3759V28.6936Z" fill="#FE6259"/>
<path d="M61.7909 28.6936H62.5347V0.606834H61.7909V28.6936Z" fill="#FE6259"/>
<path d="M60.225 28.6936H60.9688V0.606834H60.225V28.6936Z" fill="#FE6259"/>
<path d="M58.6591 28.6936H59.4028V0.606834H58.6591V28.6936Z" fill="#FE6259"/>
<path d="M57.0932 28.6936H57.8369V0.606834H57.0932V28.6936Z" fill="#FE6259"/>
<path d="M55.5468 28.6936H56.2905V0.606834H55.5468V28.6936Z" fill="#FE6259"/>
<path d="M53.9813 28.6936H54.7251V0.606834H53.9813V28.6936Z" fill="#FE6259"/>
<path d="M52.4154 28.6936H53.1592V0.606834H52.4154V28.6936Z" fill="#FE6259"/>
<path d="M50.8495 28.6936H51.5933V0.606834H50.8495V28.6936Z" fill="#FE6259"/>
<path d="M49.2841 28.6936H50.0278V0.606834H49.2841V28.6936Z" fill="#FE6259"/>
<path d="M47.7177 28.6936H48.4614V0.606834H47.7177V28.6936Z" fill="#FE6259"/>
<path d="M46.1723 28.6936H46.916V0.606834H46.1723V28.6936Z" fill="#FE6259"/>
<path d="M44.6059 28.6936H45.3496V0.606834H44.6059V28.6936Z" fill="#FE6259"/>
<path d="M43.0204 28.6936H43.7642V0.606834H43.0204V28.6936Z" fill="#FE6259"/>
<path d="M41.455 28.6936H42.1987V0.606834H41.455V28.6936Z" fill="#FE6259"/>
<path d="M39.8886 28.6936H40.6323V0.606834H39.8886V28.6936Z" fill="#FE6259"/>
<path d="M38.3231 28.6936H39.0669V0.606834H38.3231V28.6936Z" fill="#FE6259"/>
<path d="M36.7767 28.6936H37.5205V0.606834H36.7767V28.6936Z" fill="#FE6259"/>
<path d="M35.2113 28.6936H35.9551V0.606834H35.2113V28.6936Z" fill="#FE6259"/>
<path d="M33.6449 28.6936H34.3887V0.606834H33.6449V28.6936Z" fill="#FE6259"/>
<path d="M32.0795 28.6936H32.8232V0.606834H32.0795V28.6936Z" fill="#FE6259"/>
<path d="M30.5141 28.6936H31.2578L31.2578 0.606834H30.5141L30.5141 28.6936Z" fill="#FE6259"/>
<path d="M28.9476 28.6936H29.6914L29.6914 0.606834H28.9476L28.9476 28.6936Z" fill="#FE6259"/>
<path d="M27.4017 28.6936H28.1455L28.1455 0.606834H27.4017L27.4017 28.6936Z" fill="#FE6259"/>
<path d="M25.8358 28.6936H26.5796L26.5796 0.606834H25.8358L25.8358 28.6936Z" fill="#FE6259"/>
<path d="M24.2504 28.6936H24.9941L24.9941 0.606834H24.2504L24.2504 28.6936Z" fill="#FE6259"/>
<path d="M22.6849 28.6936H23.4287L23.4287 0.606834H22.6849L22.6849 28.6936Z" fill="#FE6259"/>
<path d="M21.1185 28.6936H21.8623L21.8623 0.606834H21.1185L21.1185 28.6936Z" fill="#FE6259"/>
<path d="M19.5531 28.6936H20.2969L20.2969 0.606834H19.5531L19.5531 28.6936Z" fill="#FE6259"/>
<path d="M18.0067 28.6936H18.7505L18.7505 0.606834H18.0067L18.0067 28.6936Z" fill="#FE6259"/>
<path d="M16.4408 28.6936H17.1846L17.1846 0.606834H16.4408L16.4408 28.6936Z" fill="#FE6259"/>
<path d="M14.8749 28.6936H15.6187L15.6187 0.606834H14.8749L14.8749 28.6936Z" fill="#FE6259"/>
<path d="M13.3095 28.6936H14.0532L14.0532 0.606834H13.3095L13.3095 28.6936Z" fill="#FE6259"/>
<path d="M11.7435 28.6936H12.4873L12.4873 0.606834H11.7435L11.7435 28.6936Z" fill="#FE6259"/>
<path d="M10.1776 28.6936H10.9214L10.9214 0.606834H10.1776L10.1776 28.6936Z" fill="#FE6259"/>
<path d="M8.63173 28.6936H9.37549L9.37549 0.606834H8.63173L8.63173 28.6936Z" fill="#FE6259"/>
<path d="M7.06581 28.6936H7.80957L7.80957 0.606834H7.06581L7.06581 28.6936Z" fill="#FE6259"/>
<path d="M5.49989 28.6936H6.24365L6.24365 0.606834H5.49989L5.49989 28.6936Z" fill="#FE6259"/>
</svg>
