<svg width="102" height="42" viewBox="0 0 102 42" fill="none" xmlns="http://www.w3.org/2000/svg">
<g clip-path="url(#clip0_50:316)">
<path d="M81.5912 38.0837H87.189V37.4281H81.5912V38.0837Z" fill="#494949"/>
<path d="M66.601 38.0837H72.1987V37.4281H66.601V38.0837Z" fill="#494949"/>
<path d="M51.62 38.0837H57.2178V37.4281H51.62V38.0837Z" fill="#494949"/>
<path d="M101.874 40.0156H101.749V38.171H101.874C101.91 38.171 101.944 38.1849 101.969 38.2094C101.995 38.234 102.009 38.2674 102.009 38.3022V39.8932C102.007 39.9265 101.991 39.9576 101.966 39.9804C101.941 40.0031 101.908 40.0157 101.874 40.0156Z" fill="#FFCE00"/>
<path d="M92.7511 30.7402H91.4683V38.442H92.7511V30.7402Z" fill="#355100"/>
<path d="M92.5265 33.1182H91.2437V38.4421H92.5265V33.1182Z" fill="#355100"/>
<path d="M98.3489 32.5499L100.143 31.0725C100.165 31.0615 100.19 31.0581 100.214 31.0629C100.238 31.0676 100.259 31.0802 100.275 31.0985C100.291 31.1169 100.3 31.1399 100.3 31.1638C100.301 31.1876 100.293 31.2109 100.278 31.2298L99.7214 31.6757L99.7752 31.7718L100.888 31.1861L101.103 32.1652L100.448 33.0832L98.8333 32.3925L98.4386 32.7073C98.4182 32.7139 98.3962 32.7139 98.3758 32.7073C98.3633 32.7134 98.3494 32.7166 98.3354 32.7166C98.3214 32.7166 98.3076 32.7134 98.2951 32.7073C98.2859 32.6939 98.28 32.6788 98.2778 32.6629C98.2756 32.647 98.2772 32.6309 98.2824 32.6157C98.2876 32.6005 98.2963 32.5867 98.3078 32.5753C98.3193 32.5639 98.3334 32.5552 98.3489 32.5499Z" fill="#355100"/>
<path d="M101.453 40.3828H101.148V35.8282H101.453C101.538 35.8282 101.621 35.8613 101.681 35.9204C101.742 35.9794 101.776 36.0594 101.776 36.1429V40.0594C101.777 40.1014 101.769 40.1433 101.754 40.1825C101.738 40.2217 101.715 40.2574 101.684 40.2876C101.654 40.3177 101.618 40.3417 101.579 40.358C101.539 40.3744 101.496 40.3828 101.453 40.3828Z" fill="#355100"/>
<path d="M92.105 27.3745V38.0836H101.56V36.4313C101.56 33.3628 101.273 29.3852 99.1022 27.2346H92.2575C92.2185 27.2346 92.1811 27.249 92.1527 27.275C92.1243 27.301 92.1073 27.3366 92.105 27.3745ZM94.4733 28.4323H99.7571C100.368 29.6007 100.766 30.8638 100.932 32.1652H99.5418C99.4165 32.1642 99.2942 32.1283 99.1892 32.0617C99.0843 31.9951 99.0012 31.9005 98.9497 31.7893C98.9021 31.6764 98.8214 31.5797 98.7177 31.5113C98.6139 31.4429 98.4918 31.4058 98.3666 31.4046H94.4733V28.4323Z" fill="#628421"/>
<path d="M47.6905 40.3303L92.105 40.3303V37.7077L47.6905 37.7077V40.3303Z" fill="black"/>
<path d="M92.3926 28.7559H94.1329C94.1513 28.754 94.1684 28.746 94.1815 28.7333C94.1945 28.7206 94.2027 28.7039 94.2047 28.686C94.2025 28.669 94.194 28.6533 94.1807 28.6421C94.1675 28.6308 94.1505 28.6246 94.1329 28.6248H92.3926C92.375 28.6246 92.358 28.6308 92.3447 28.6421C92.3315 28.6533 92.323 28.669 92.3208 28.686C92.3227 28.7039 92.3309 28.7206 92.344 28.7333C92.3571 28.746 92.3742 28.754 92.3926 28.7559Z" fill="#355100"/>
<path d="M92.3926 29.0791H94.1329C94.1513 29.0772 94.1684 29.0693 94.1815 29.0565C94.1945 29.0438 94.2027 29.0271 94.2047 29.0092C94.2025 28.9922 94.194 28.9766 94.1807 28.9653C94.1675 28.954 94.1505 28.9479 94.1329 28.948H92.3926C92.375 28.9479 92.358 28.954 92.3447 28.9653C92.3315 28.9766 92.323 28.9922 92.3208 29.0092C92.3227 29.0271 92.3309 29.0438 92.344 29.0565C92.3571 29.0693 92.3742 29.0772 92.3926 29.0791Z" fill="#355100"/>
<path d="M92.3922 29.4028H94.1326C94.1509 29.4009 94.1681 29.3929 94.1811 29.3801C94.1942 29.3674 94.2024 29.3507 94.2043 29.3328C94.2071 29.3223 94.2073 29.3113 94.205 29.3007C94.2027 29.29 94.1978 29.2801 94.1909 29.2716C94.1839 29.2631 94.175 29.2563 94.1649 29.2518C94.1548 29.2472 94.1437 29.2451 94.1326 29.2454H92.3922C92.3746 29.2453 92.3576 29.2514 92.3444 29.2627C92.3312 29.274 92.3226 29.2896 92.3204 29.3066C92.3178 29.3176 92.3177 29.329 92.32 29.34C92.3223 29.3511 92.327 29.3615 92.3338 29.3706C92.3406 29.3798 92.3493 29.3873 92.3594 29.3929C92.3695 29.3984 92.3807 29.4018 92.3922 29.4028Z" fill="#355100"/>
<path d="M92.3926 29.7261H94.1329C94.1513 29.7242 94.1684 29.7162 94.1815 29.7035C94.1945 29.6908 94.2027 29.6741 94.2047 29.6562C94.2025 29.6392 94.194 29.6236 94.1807 29.6123C94.1675 29.601 94.1505 29.5948 94.1329 29.595H92.3926C92.375 29.5948 92.358 29.601 92.3447 29.6123C92.3315 29.6236 92.323 29.6392 92.3208 29.6562C92.3227 29.6741 92.3309 29.6908 92.344 29.7035C92.3571 29.7162 92.3742 29.7242 92.3926 29.7261Z" fill="#355100"/>
<path d="M92.3926 30.0496H94.1329C94.1513 30.0477 94.1684 30.0397 94.1815 30.027C94.1945 30.0143 94.2027 29.9976 94.2047 29.9797C94.2025 29.9627 94.194 29.947 94.1807 29.9358C94.1675 29.9245 94.1505 29.9183 94.1329 29.9185H92.3926C92.375 29.9183 92.358 29.9245 92.3447 29.9358C92.3315 29.947 92.323 29.9627 92.3208 29.9797C92.3227 29.9976 92.3309 30.0143 92.344 30.027C92.3571 30.0397 92.3742 30.0477 92.3926 30.0496Z" fill="#355100"/>
<path d="M92.3926 30.3731H94.1329C94.1513 30.3712 94.1684 30.3632 94.1815 30.3505C94.1945 30.3377 94.2027 30.321 94.2047 30.3031C94.2025 30.2861 94.194 30.2705 94.1807 30.2592C94.1675 30.248 94.1505 30.2418 94.1329 30.2419H92.3926C92.375 30.2418 92.358 30.248 92.3447 30.2592C92.3315 30.2705 92.323 30.2861 92.3208 30.3031C92.3227 30.321 92.3309 30.3377 92.344 30.3505C92.3571 30.3632 92.3742 30.3712 92.3926 30.3731Z" fill="#355100"/>
<path d="M92.3926 30.6966H94.1329C94.1513 30.6947 94.1684 30.6867 94.1815 30.674C94.1945 30.6612 94.2027 30.6445 94.2047 30.6266C94.2025 30.6096 94.194 30.594 94.1807 30.5827C94.1675 30.5715 94.1505 30.5653 94.1329 30.5654H92.3926C92.375 30.5653 92.358 30.5715 92.3447 30.5827C92.3315 30.594 92.323 30.6096 92.3208 30.6266C92.3227 30.6445 92.3309 30.6612 92.344 30.674C92.3571 30.6867 92.3742 30.6947 92.3926 30.6966Z" fill="#355100"/>
<path d="M92.3926 30.9936H94.1329C94.1441 30.999 94.1563 31.0018 94.1688 31.0018C94.1812 31.0018 94.1935 30.999 94.2047 30.9936C94.2025 30.9766 94.194 30.961 94.1807 30.9497C94.1675 30.9384 94.1505 30.9322 94.1329 30.9324H92.3926C92.375 30.9322 92.358 30.9384 92.3447 30.9497C92.3315 30.961 92.323 30.9766 92.3208 30.9936C92.332 30.999 92.3442 31.0018 92.3567 31.0018C92.3691 31.0018 92.3814 30.999 92.3926 30.9936Z" fill="#355100"/>
<path d="M97.1201 34.2371H96.4563C96.392 34.2371 96.3304 34.2122 96.285 34.1679C96.2396 34.1237 96.214 34.0636 96.214 34.001V33.9486H97.3623V34.001C97.3623 34.0636 97.3368 34.1237 97.2914 34.1679C97.2459 34.2122 97.1843 34.2371 97.1201 34.2371Z" fill="#006E8E"/>
<path d="M96.42 33.7825H97.1466C97.182 33.7825 97.217 33.7893 97.2496 33.8024C97.2823 33.8156 97.3119 33.8349 97.3369 33.8593C97.3619 33.8836 97.3817 33.9126 97.3953 33.9444C97.4088 33.9762 97.4158 34.0103 97.4158 34.0447V34.1059H96.1509V34.0447C96.1509 34.0103 96.1578 33.9762 96.1714 33.9444C96.1849 33.9126 96.2047 33.8836 96.2297 33.8593C96.2547 33.8349 96.2844 33.8156 96.317 33.8024C96.3497 33.7893 96.3847 33.7825 96.42 33.7825Z" fill="black"/>
<path d="M48.6237 37.0168L90.1675 37.0168V23.9998L48.6237 23.9998V37.0168Z" fill="#FE6259"/>
<path d="M49.1711 36.6499L89.6294 36.6499V24.3672L49.1711 24.3672V36.6499Z" fill="#AA0908"/>
<path d="M48.6237 37.4717L90.1675 37.4717V37.0083L48.6237 37.0083V37.4717Z" fill="#303030"/>
<path d="M47.314 39.1501H47.6997V37.699H47.314V39.1501Z" fill="black"/>
<path d="M47 39.1501H47.314V37.699H47V39.1501Z" fill="#FF0000"/>
<path d="M101.246 40.6713H79.7793V38.0486H101.56V40.3653C101.562 40.4058 101.554 40.4461 101.539 40.4838C101.524 40.5215 101.501 40.5557 101.471 40.5843C101.442 40.613 101.407 40.6355 101.368 40.6504C101.329 40.6654 101.288 40.6725 101.246 40.6713Z" fill="#355100"/>
<path d="M94.0251 40.6713C93.9237 40.3904 93.8721 40.0948 93.8726 39.797C93.8726 39.1664 94.1296 38.5616 94.5872 38.1156C95.0448 37.6697 95.6655 37.4192 96.3126 37.4192C96.9598 37.4192 97.5804 37.6697 98.038 38.1156C98.4956 38.5616 98.7527 39.1664 98.7527 39.797C98.7531 40.0948 98.7016 40.3904 98.6002 40.6713H94.0251Z" fill="black"/>
<path d="M94.0967 39.8494C94.0967 40.2753 94.226 40.6918 94.4683 41.0463C94.7106 41.4008 95.0551 41.6775 95.4584 41.8417C95.8617 42.0059 96.3059 42.0501 96.7349 41.9689C97.164 41.8877 97.5589 41.6847 97.8698 41.3853C98.1807 41.0859 98.3938 40.7036 98.4824 40.2865C98.5709 39.8694 98.5308 39.4361 98.3672 39.0411C98.2036 38.6461 97.9238 38.3071 97.563 38.0667C97.2022 37.8263 96.7764 37.6953 96.3394 37.6901C96.0461 37.6866 95.7551 37.7399 95.4832 37.8469C95.2112 37.9538 94.9638 38.1123 94.7552 38.3132C94.5465 38.5141 94.3809 38.7533 94.2679 39.017C94.1549 39.2807 94.0967 39.5636 94.0967 39.8494Z" fill="black"/>
<path d="M94.0967 39.8494C94.0967 40.2753 94.226 40.6918 94.4683 41.0463C94.7106 41.4008 95.0551 41.6775 95.4584 41.8417C95.8617 42.0059 96.3059 42.0501 96.7349 41.9689C97.164 41.8877 97.5589 41.6847 97.8698 41.3853C98.1807 41.0859 98.3938 40.7036 98.4824 40.2865C98.5709 39.8694 98.5308 39.4361 98.3672 39.0411C98.2036 38.6461 97.9238 38.3071 97.563 38.0667C97.2022 37.8263 96.7764 37.6953 96.3394 37.6901C96.0461 37.6866 95.7551 37.7399 95.4832 37.8469C95.2112 37.9538 94.9638 38.1123 94.7552 38.3132C94.5465 38.5141 94.3809 38.7533 94.2679 39.017C94.1549 39.2807 94.0967 39.5636 94.0967 39.8494Z" fill="#262626"/>
<path d="M94.0967 39.8494C94.0967 40.2753 94.226 40.6918 94.4683 41.0463C94.7106 41.4008 95.0551 41.6775 95.4584 41.8417C95.8617 42.0059 96.3059 42.0501 96.7349 41.9689C97.164 41.8877 97.5589 41.6847 97.8698 41.3853C98.1807 41.0859 98.3938 40.7036 98.4824 40.2865C98.5709 39.8694 98.5308 39.4361 98.3672 39.0411C98.2036 38.6461 97.9238 38.3071 97.563 38.0667C97.2022 37.8263 96.7764 37.6953 96.3394 37.6901C96.0461 37.6866 95.7551 37.7399 95.4832 37.8469C95.2112 37.9538 94.9638 38.1123 94.7552 38.3132C94.5465 38.5141 94.3809 38.7533 94.2679 39.017C94.1549 39.2807 94.0967 39.5636 94.0967 39.8494Z" fill="#262626"/>
<path d="M96.3393 38.1885C96.3613 38.3246 96.3613 38.4633 96.3393 38.5993C96.3172 38.4633 96.3172 38.3246 96.3393 38.1885C96.3172 38.0524 96.3172 37.9137 96.3393 37.7776C96.3613 37.9137 96.3613 38.0524 96.3393 38.1885Z" fill="black"/>
<path d="M96.3393 41.4844C96.3613 41.6205 96.3613 41.7592 96.3393 41.8952C96.3172 41.7592 96.3172 41.6205 96.3393 41.4844C96.3172 41.3483 96.3172 41.2096 96.3393 41.0735C96.3613 41.2096 96.3613 41.3483 96.3393 41.4844Z" fill="black"/>
<path d="M95.0387 39.8494C94.8961 39.8716 94.7508 39.8716 94.6082 39.8494C94.4685 39.8713 94.3262 39.8713 94.1865 39.8494C94.3222 39.8052 94.466 39.7903 94.6082 39.8057C94.7532 39.7899 94.9001 39.8048 95.0387 39.8494Z" fill="black"/>
<path d="M98.0168 39.8844C98.2497 39.8844 98.4385 39.8687 98.4385 39.8494C98.4385 39.8301 98.2497 39.8145 98.0168 39.8145C97.784 39.8145 97.5952 39.8301 97.5952 39.8494C97.5952 39.8687 97.784 39.8844 98.0168 39.8844Z" fill="black"/>
<path d="M95.4424 38.9666C95.3211 38.893 95.2122 38.8015 95.1195 38.6956C94.958 38.5382 94.8324 38.3983 94.8503 38.3809C94.9723 38.4537 95.0813 38.5452 95.1733 38.6519C95.2989 38.8092 95.4424 38.9491 95.4424 38.9666Z" fill="black"/>
<path d="M97.2363 40.7236C97.3576 40.7973 97.4666 40.8887 97.5593 40.9946C97.7208 41.152 97.8463 41.2919 97.8284 41.3094C97.7065 41.2366 97.5974 41.145 97.5055 41.0383C97.326 40.881 97.2363 40.7411 97.2363 40.7236Z" fill="black"/>
<path d="M95.4422 40.7236C95.4422 40.7236 95.3345 40.881 95.173 41.0383C95.0811 41.145 94.972 41.2366 94.8501 41.3094C94.8501 41.3094 94.9577 41.152 95.1192 40.9946C95.2119 40.8887 95.3209 40.7973 95.4422 40.7236Z" fill="black"/>
<path d="M97.2363 38.9666C97.2363 38.9666 97.344 38.8092 97.5055 38.6519C97.5974 38.5452 97.7065 38.4537 97.8284 38.3809C97.8284 38.3809 97.7208 38.5382 97.5593 38.6956C97.4666 38.8015 97.3576 38.893 97.2363 38.9666Z" fill="black"/>
<path d="M95.6124 38.337C95.5483 38.2136 95.5059 38.0806 95.4868 37.9436C95.5749 38.0501 95.6418 38.1717 95.6842 38.302C95.7484 38.4261 95.7937 38.5586 95.8187 38.6954C95.8187 38.6954 95.7021 38.5468 95.6124 38.337Z" fill="black"/>
<path d="M97.0122 41.3531C97.0781 41.4788 97.1206 41.615 97.1378 41.7552C97.0533 41.6432 96.9868 41.5194 96.9405 41.388C96.8508 41.1782 96.788 40.9946 96.8149 40.9946C96.9029 41.1011 96.9699 41.2227 97.0122 41.3531Z" fill="black"/>
<path d="M94.7337 40.4615C94.8584 40.393 94.9955 40.3485 95.1374 40.3303C95.024 40.415 94.8966 40.48 94.7606 40.5226C94.6338 40.5864 94.4976 40.6306 94.3569 40.6538C94.4703 40.5691 94.5977 40.5041 94.7337 40.4615Z" fill="black"/>
<path d="M97.891 39.2287C97.7663 39.2971 97.6292 39.3416 97.4873 39.3598C97.6007 39.2752 97.7281 39.2101 97.8641 39.1675C97.9909 39.1037 98.1271 39.0595 98.2678 39.0364C98.1544 39.121 98.027 39.1861 97.891 39.2287Z" fill="black"/>
<path d="M95.1281 39.3775C94.9872 39.3601 94.8506 39.3187 94.7244 39.2551C94.5898 39.2133 94.4627 39.1514 94.3477 39.0715C94.4883 39.0901 94.6247 39.1315 94.7513 39.1939C94.8876 39.2316 95.0154 39.2938 95.1281 39.3775Z" fill="black"/>
<path d="M97.4966 40.3127C97.6375 40.3302 97.7741 40.3716 97.9003 40.4351C98.0349 40.4769 98.162 40.5389 98.277 40.6187C98.277 40.6187 98.0887 40.6187 97.8734 40.5051C97.7374 40.4625 97.6099 40.3974 97.4966 40.3127Z" fill="black"/>
<path d="M95.8371 40.9946C95.8149 41.1338 95.7726 41.2692 95.7115 41.3968C95.6678 41.5293 95.601 41.6535 95.5142 41.7639C95.532 41.6266 95.5745 41.4935 95.6398 41.3705C95.6807 41.2342 95.7476 41.1067 95.8371 40.9946Z" fill="black"/>
<path d="M97.1105 37.9263C97.0927 38.0636 97.0502 38.1967 96.985 38.3197C96.944 38.456 96.8771 38.5835 96.7876 38.6956C96.8098 38.5564 96.8521 38.4211 96.9132 38.2934C96.9569 38.1609 97.0237 38.0367 97.1105 37.9263Z" fill="black"/>
<path d="M95.9537 38.2234C95.9308 38.0873 95.9308 37.9485 95.9537 37.8125C96.0186 37.9381 96.0582 38.0746 96.0703 38.2146C96.1084 38.3483 96.1236 38.4871 96.1152 38.6255C96.0394 38.5009 95.9848 38.3651 95.9537 38.2234Z" fill="black"/>
<path d="M96.6711 41.4842C96.7087 41.6179 96.7239 41.7566 96.716 41.895C96.6511 41.7695 96.6115 41.633 96.5993 41.4929C96.5763 41.3569 96.5763 41.2181 96.5993 41.082C96.6442 41.2117 96.6684 41.3473 96.6711 41.4842Z" fill="black"/>
<path d="M94.6351 40.1204C94.7723 40.0838 94.9147 40.069 95.0568 40.0767C95.0568 40.0767 94.8773 40.1466 94.6531 40.1903C94.5159 40.227 94.3735 40.2417 94.2314 40.234C94.3579 40.1728 94.4947 40.1343 94.6351 40.1204Z" fill="black"/>
<path d="M97.99 39.5696C97.8528 39.6063 97.7104 39.621 97.5684 39.6133C97.5684 39.6133 97.7478 39.5434 97.972 39.4997C98.1122 39.4627 98.2576 39.448 98.4026 39.456C98.2721 39.5147 98.1328 39.553 97.99 39.5696Z" fill="black"/>
<path d="M95.2539 39.1501C95.1212 39.1025 94.997 39.0346 94.8861 38.949C94.7614 38.88 94.6492 38.7914 94.5542 38.6868C94.6889 38.7301 94.8138 38.7984 94.922 38.8878C95.1194 39.0102 95.2719 39.1326 95.2539 39.1501Z" fill="black"/>
<path d="M97.3711 40.54C97.5031 40.5931 97.6268 40.6637 97.7389 40.7498C97.8621 40.8174 97.9741 40.9029 98.0708 41.0034C97.9361 40.96 97.8112 40.8917 97.703 40.8023C97.576 40.7366 97.4633 40.6475 97.3711 40.54Z" fill="black"/>
<path d="M95.5951 40.8723C95.5519 41.0068 95.4817 41.1316 95.3888 41.2395C95.2542 41.4231 95.1376 41.5717 95.1196 41.5542C95.1706 41.4258 95.2401 41.3051 95.326 41.1958C95.3968 41.0742 95.4877 40.9649 95.5951 40.8723Z" fill="black"/>
<path d="M97.0303 38.8618C97.0735 38.7273 97.1436 38.6025 97.2366 38.4946C97.3712 38.311 97.4878 38.1624 97.5057 38.1799C97.4547 38.3083 97.3853 38.429 97.2994 38.5383C97.2286 38.6598 97.1377 38.7691 97.0303 38.8618Z" fill="black"/>
<path d="M95.6039 38.8091C95.6039 38.8091 95.4693 38.678 95.3347 38.4856C95.2469 38.3775 95.1773 38.2566 95.1284 38.1272C95.2387 38.2171 95.3301 38.3269 95.3975 38.4507C95.4893 38.5561 95.5594 38.6778 95.6039 38.8091Z" fill="black"/>
<path d="M97.021 40.8811C97.1284 40.9737 97.2193 41.083 97.2901 41.2046C97.3779 41.3126 97.4476 41.4336 97.4965 41.563C97.4965 41.563 97.3619 41.4319 97.2273 41.2395C97.1355 41.1341 97.0655 41.0124 97.021 40.8811Z" fill="black"/>
<path d="M94.8773 40.7411C94.9881 40.6505 95.1161 40.5821 95.2541 40.54C95.1576 40.6408 95.0456 40.7263 94.9222 40.7936C94.8115 40.8842 94.6834 40.9525 94.5454 40.9946C94.6419 40.8939 94.7539 40.8083 94.8773 40.7411Z" fill="black"/>
<path d="M97.7479 38.9578C97.6354 39.0439 97.5077 39.1091 97.3711 39.1501C97.4676 39.0494 97.5796 38.9638 97.703 38.8966C97.8137 38.806 97.9418 38.7377 98.0798 38.6956C97.9823 38.7977 97.8706 38.886 97.7479 38.9578Z" fill="black"/>
<path d="M95.0568 39.6046C94.9147 39.6123 94.7723 39.5975 94.6351 39.5609C94.495 39.5452 94.3586 39.5068 94.2314 39.4472C94.3706 39.4199 94.5139 39.4199 94.6531 39.4472C94.7959 39.4766 94.9325 39.5298 95.0568 39.6046Z" fill="black"/>
<path d="M97.5684 40.0855C97.7104 40.0778 97.8528 40.0925 97.99 40.1292C98.2143 40.1729 98.4027 40.2253 98.3937 40.2516C98.2513 40.2535 98.1094 40.2358 97.972 40.1991C97.8319 40.1834 97.6955 40.145 97.5684 40.0855Z" fill="black"/>
<path d="M96.0612 41.0647C96.0895 41.2003 96.0895 41.34 96.0612 41.4756C96.0442 41.6147 96.0049 41.7504 95.9446 41.8777C95.9362 41.7393 95.9514 41.6004 95.9895 41.4668C95.9921 41.33 96.0163 41.1944 96.0612 41.0647Z" fill="black"/>
<path d="M96.5637 38.6255C96.5354 38.4899 96.5354 38.3502 96.5637 38.2146C96.5807 38.0755 96.6201 37.9398 96.6803 37.8125C96.7034 37.9485 96.7034 38.0873 96.6803 38.2234C96.6633 38.3626 96.6239 38.4983 96.5637 38.6255Z" fill="black"/>
<path d="M94.9131 39.8496C94.9149 40.1178 94.9979 40.3795 95.1516 40.6021C95.3052 40.8246 95.5229 40.998 95.7772 41.1006C96.0315 41.2032 96.3112 41.2305 96.5813 41.179C96.8514 41.1274 97.1 40.9995 97.2958 40.811C97.4917 40.6225 97.6261 40.382 97.6824 40.1194C97.7387 39.8568 97.7143 39.5839 97.6122 39.3348C97.5101 39.0857 97.3349 38.8715 97.1086 38.7189C96.8822 38.5664 96.6147 38.4822 96.3395 38.4771C96.1527 38.4736 95.9671 38.5065 95.7936 38.574C95.6201 38.6416 95.4622 38.7422 95.3293 38.8702C95.1963 38.9981 95.091 39.1506 95.0195 39.3189C94.9481 39.4871 94.9119 39.6675 94.9131 39.8496Z" fill="#6C6D6D"/>
<path d="M95.1372 39.8496C95.1391 40.0746 95.2089 40.294 95.3379 40.4806C95.467 40.6672 95.6495 40.8126 95.8629 40.8987C96.0762 40.9847 96.3108 41.0076 96.5374 40.9646C96.764 40.9215 96.9726 40.8143 97.1371 40.6564C97.3016 40.4985 97.4147 40.2969 97.4623 40.0767C97.5099 39.8565 97.4899 39.6276 97.4048 39.4184C97.3197 39.2093 97.1733 39.0292 96.9838 38.9006C96.7943 38.7721 96.5702 38.7008 96.3393 38.6956C96.182 38.6921 96.0255 38.7194 95.8792 38.7759C95.7329 38.8325 95.5998 38.917 95.4877 39.0247C95.3756 39.1323 95.2868 39.2608 95.2266 39.4025C95.1664 39.5442 95.136 39.6962 95.1372 39.8496Z" fill="#9E9E9E"/>
<path d="M95.3708 39.8493C95.3728 40.0323 95.4308 40.2105 95.5375 40.3611C95.6442 40.5117 95.7947 40.6278 95.9696 40.6944C96.1444 40.7611 96.3358 40.7753 96.519 40.7352C96.7022 40.6951 96.8689 40.6026 96.9978 40.4695C97.1267 40.3363 97.2117 40.1687 97.2422 39.9882C97.2726 39.8076 97.2469 39.6223 97.1684 39.456C97.09 39.2898 96.9623 39.1502 96.8018 39.0551C96.6414 38.9601 96.4554 38.914 96.2678 38.9227C96.1454 38.9225 96.0241 38.9467 95.9116 38.9939C95.7991 39.041 95.6977 39.1102 95.6137 39.197C95.5296 39.2838 95.4647 39.3865 95.423 39.4987C95.3812 39.6109 95.3634 39.7302 95.3708 39.8493Z" fill="#494949"/>
<path d="M95.4424 39.8495C95.4428 40.0076 95.4906 40.1621 95.5798 40.2942C95.669 40.4262 95.7957 40.5301 95.9446 40.593C96.0934 40.6559 96.2578 40.6752 96.4177 40.6485C96.5776 40.6218 96.726 40.5502 96.8448 40.4425C96.9636 40.3349 97.0476 40.1958 97.0866 40.0423C97.1255 39.8889 97.1177 39.7276 97.0641 39.5784C97.0104 39.4292 96.9133 39.2985 96.7846 39.2022C96.6559 39.106 96.5012 39.0484 96.3395 39.0365C96.2247 39.028 96.1095 39.0428 96.0009 39.0799C95.8923 39.1169 95.7928 39.1755 95.7085 39.2518C95.6243 39.3282 95.5571 39.4207 95.5113 39.5236C95.4655 39.6264 95.4421 39.7374 95.4424 39.8495Z" fill="#6C6D6D"/>
<path d="M95.6754 39.8494C95.6771 39.9718 95.716 40.0909 95.787 40.1918C95.8581 40.2927 95.9582 40.3709 96.0747 40.4166C96.1912 40.4622 96.319 40.4733 96.442 40.4483C96.5649 40.4234 96.6776 40.3636 96.7657 40.2765C96.8539 40.1893 96.9137 40.0787 96.9376 39.9586C96.9614 39.8384 96.9483 39.7141 96.8998 39.6012C96.8514 39.4882 96.7697 39.3918 96.6652 39.324C96.5607 39.2562 96.4379 39.22 96.3123 39.22C96.2279 39.22 96.1443 39.2363 96.0665 39.268C95.9886 39.2998 95.918 39.3463 95.8587 39.4048C95.7994 39.4634 95.7527 39.5329 95.7212 39.6092C95.6898 39.6855 95.6742 39.7672 95.6754 39.8494Z" fill="#9E9E9E"/>
<path d="M77.0884 39.8495C77.0884 40.2769 77.2186 40.6948 77.4624 41.0501C77.7063 41.4053 78.0529 41.6821 78.4583 41.8453C78.8637 42.0084 79.3097 42.0507 79.7398 41.9667C80.1698 41.8826 80.5646 41.6761 80.8741 41.3732C81.1837 41.0704 81.394 40.6848 81.4785 40.2654C81.563 39.8459 81.5178 39.4115 81.3487 39.0171C81.1796 38.6227 80.8942 38.2861 80.5287 38.0499C80.1631 37.8136 79.7338 37.6885 79.2952 37.6902C78.7091 37.6925 78.1478 37.921 77.7342 38.3257C77.3206 38.7304 77.0884 39.2783 77.0884 39.8495Z" fill="black"/>
<path d="M77.0884 39.8495C77.0884 40.2769 77.2186 40.6948 77.4624 41.0501C77.7063 41.4053 78.0529 41.6821 78.4583 41.8453C78.8637 42.0084 79.3097 42.0507 79.7398 41.9667C80.1698 41.8826 80.5646 41.6761 80.8741 41.3732C81.1837 41.0704 81.394 40.6848 81.4785 40.2654C81.563 39.8459 81.5178 39.4115 81.3487 39.0171C81.1796 38.6227 80.8942 38.2861 80.5287 38.0499C80.1631 37.8136 79.7338 37.6885 79.2952 37.6902C78.7091 37.6925 78.1478 37.921 77.7342 38.3257C77.3206 38.7304 77.0884 39.2783 77.0884 39.8495Z" fill="#262626"/>
<path d="M77.0884 39.8495C77.0884 40.2769 77.2186 40.6948 77.4624 41.0501C77.7063 41.4053 78.0529 41.6821 78.4583 41.8453C78.8637 42.0084 79.3097 42.0507 79.7398 41.9667C80.1698 41.8826 80.5646 41.6761 80.8741 41.3732C81.1837 41.0704 81.394 40.6848 81.4785 40.2654C81.563 39.8459 81.5178 39.4115 81.3487 39.0171C81.1796 38.6227 80.8942 38.2861 80.5287 38.0499C80.1631 37.8136 79.7338 37.6885 79.2952 37.6902C78.7091 37.6925 78.1478 37.921 77.7342 38.3257C77.3206 38.7304 77.0884 39.2783 77.0884 39.8495Z" fill="#262626"/>
<path d="M79.3039 38.5993C79.3238 38.5993 79.3398 38.4154 79.3398 38.1885C79.3398 37.9615 79.3238 37.7776 79.3039 37.7776C79.2841 37.7776 79.2681 37.9615 79.2681 38.1885C79.2681 38.4154 79.2841 38.5993 79.3039 38.5993Z" fill="black"/>
<path d="M79.34 41.4844C79.3678 41.62 79.3678 41.7596 79.34 41.8952C79.3026 41.7615 79.2874 41.6228 79.2952 41.4844C79.2727 41.3483 79.2727 41.2096 79.2952 41.0735C79.3379 41.2062 79.3532 41.3459 79.34 41.4844Z" fill="black"/>
<path d="M77.6081 39.8844C77.841 39.8844 78.0298 39.8687 78.0298 39.8494C78.0298 39.8301 77.841 39.8145 77.6081 39.8145C77.3753 39.8145 77.1865 39.8301 77.1865 39.8494C77.1865 39.8687 77.3753 39.8844 77.6081 39.8844Z" fill="black"/>
<path d="M81.0085 39.8844C81.2414 39.8844 81.4302 39.8687 81.4302 39.8494C81.4302 39.8301 81.2414 39.8145 81.0085 39.8145C80.7757 39.8145 80.5869 39.8301 80.5869 39.8494C80.5869 39.8687 80.7757 39.8844 81.0085 39.8844Z" fill="black"/>
<path d="M78.3977 38.9666C78.2727 38.8944 78.1605 38.8029 78.0658 38.6956C77.9043 38.5382 77.7787 38.3983 77.7966 38.3809C77.9204 38.4511 78.0299 38.543 78.1196 38.6519C78.2305 38.7401 78.3246 38.8466 78.3977 38.9666Z" fill="black"/>
<path d="M80.1919 40.7236C80.3132 40.7973 80.4221 40.8887 80.5148 40.9946C80.6258 41.0828 80.7199 41.1894 80.7929 41.3094C80.7929 41.3094 80.6315 41.2044 80.461 41.0383C80.2906 40.8722 80.1919 40.7411 80.1919 40.7236Z" fill="black"/>
<path d="M78.3979 40.7236C78.3249 40.8436 78.2307 40.9502 78.1198 41.0383C78.0302 41.1472 77.9207 41.2391 77.7969 41.3094C77.7969 41.3094 77.9045 41.152 78.066 40.9946C78.1608 40.8873 78.2729 40.7958 78.3979 40.7236Z" fill="black"/>
<path d="M80.1919 38.9667C80.1919 38.9667 80.2995 38.8093 80.461 38.652C80.6225 38.4946 80.775 38.3635 80.7929 38.381C80.7199 38.501 80.6258 38.6075 80.5148 38.6957C80.4221 38.8016 80.3132 38.8931 80.1919 38.9667Z" fill="black"/>
<path d="M78.6131 38.337C78.544 38.2149 78.4984 38.0816 78.4785 37.9436C78.5666 38.0501 78.6335 38.1717 78.6759 38.302C78.7401 38.4261 78.7854 38.5586 78.8104 38.6954C78.7224 38.5889 78.6555 38.4674 78.6131 38.337Z" fill="black"/>
<path d="M80.0035 41.3531C80.0697 41.4794 80.1151 41.6151 80.1381 41.7552C80.0489 41.6448 79.9792 41.5207 79.9317 41.388C79.8677 41.2646 79.8252 41.1317 79.8062 40.9946C79.8942 41.1011 79.9611 41.2227 80.0035 41.3531Z" fill="black"/>
<path d="M77.7249 40.4615C77.8497 40.393 77.9867 40.3485 78.1286 40.3303C78.0152 40.415 77.8878 40.48 77.7518 40.5226C77.625 40.5864 77.4888 40.6306 77.3481 40.6538C77.4615 40.5691 77.589 40.5041 77.7249 40.4615Z" fill="black"/>
<path d="M80.8827 39.2287C80.758 39.2971 80.6209 39.3416 80.479 39.3598C80.5924 39.2752 80.7198 39.2101 80.8558 39.1675C80.9826 39.1037 81.1188 39.0595 81.2595 39.0364C81.1461 39.121 81.0187 39.1861 80.8827 39.2287Z" fill="black"/>
<path d="M78.1198 39.3775C77.9789 39.3601 77.8423 39.3187 77.7161 39.2551C77.5815 39.2133 77.4544 39.1514 77.3394 39.0715C77.4802 39.0889 77.6169 39.1304 77.743 39.1939C77.8793 39.2316 78.0071 39.2938 78.1198 39.3775Z" fill="black"/>
<path d="M80.4878 40.3127C80.6287 40.3302 80.7653 40.3716 80.8915 40.4351C81.0293 40.4758 81.1595 40.5378 81.2772 40.6187C81.2772 40.6187 81.0888 40.6187 80.8646 40.5051C80.7286 40.4625 80.6012 40.3974 80.4878 40.3127Z" fill="black"/>
<path d="M78.8283 40.9946C78.8111 41.1348 78.7686 41.271 78.7027 41.3968C78.659 41.5293 78.5922 41.6535 78.5054 41.7639C78.5232 41.6266 78.5658 41.4935 78.631 41.3705C78.676 41.2359 78.7427 41.109 78.8283 40.9946Z" fill="black"/>
<path d="M80.1021 37.9263C80.0842 38.0636 80.0417 38.1967 79.9765 38.3197C79.9323 38.453 79.8689 38.5796 79.7881 38.6956C79.8053 38.5554 79.8478 38.4192 79.9137 38.2934C79.9523 38.1606 80.0162 38.0361 80.1021 37.9263Z" fill="black"/>
<path d="M78.9451 38.2234C78.9193 38.0876 78.9193 37.9483 78.9451 37.8125C79.0054 37.9398 79.0448 38.0755 79.0618 38.2146C79.093 38.3499 79.093 38.4902 79.0618 38.6255C79.0015 38.4983 78.9622 38.3626 78.9451 38.2234Z" fill="black"/>
<path d="M79.6628 41.4842C79.7004 41.6179 79.7156 41.7566 79.7077 41.895C79.6474 41.7678 79.6081 41.6321 79.591 41.4929C79.568 41.3569 79.568 41.2181 79.591 41.082C79.6359 41.2117 79.6601 41.3473 79.6628 41.4842Z" fill="black"/>
<path d="M77.6263 40.1204C77.7635 40.0838 77.9059 40.069 78.048 40.0767C78.048 40.0767 77.8686 40.1466 77.6443 40.1903C77.5071 40.227 77.3647 40.2417 77.2227 40.234C77.3498 40.1745 77.4862 40.1361 77.6263 40.1204Z" fill="black"/>
<path d="M80.9817 39.5697C80.8445 39.6066 80.7021 39.6214 80.5601 39.6134C80.6889 39.5502 80.829 39.5116 80.9727 39.4997C81.1098 39.4626 81.2523 39.4479 81.3943 39.456C81.2638 39.5148 81.1245 39.5531 80.9817 39.5697Z" fill="black"/>
<path d="M78.2451 39.1501C78.1134 39.1004 77.9895 39.0327 77.8773 38.949C77.7526 38.88 77.6405 38.7914 77.5454 38.6868C77.6834 38.7289 77.8115 38.7972 77.9222 38.8878C78.1106 39.0102 78.2631 39.1326 78.2451 39.1501Z" fill="black"/>
<path d="M80.3623 40.54C80.4943 40.5931 80.6181 40.6637 80.7301 40.7498C80.8533 40.8174 80.9653 40.9029 81.062 41.0034C80.9273 40.96 80.8024 40.8917 80.6942 40.8023C80.5672 40.7366 80.4545 40.6475 80.3623 40.54Z" fill="black"/>
<path d="M78.5863 40.8723C78.5431 41.0068 78.473 41.1316 78.38 41.2395C78.2544 41.4231 78.1288 41.5717 78.1108 41.5542C78.1618 41.4258 78.2313 41.3051 78.3172 41.1958C78.388 41.0742 78.4789 40.9649 78.5863 40.8723Z" fill="black"/>
<path d="M80.0215 38.8618C80.0692 38.7292 80.1389 38.6052 80.2278 38.4946C80.3624 38.311 80.479 38.1624 80.4969 38.1799C80.4504 38.3103 80.3805 38.4316 80.2906 38.5383C80.2198 38.6598 80.1289 38.7691 80.0215 38.8618Z" fill="black"/>
<path d="M78.5954 38.8091C78.5954 38.8091 78.4608 38.678 78.3263 38.4856C78.2391 38.3786 78.1722 38.2572 78.1289 38.1272C78.232 38.2215 78.3197 38.3306 78.3891 38.4507C78.4808 38.5561 78.5509 38.6778 78.5954 38.8091Z" fill="black"/>
<path d="M80.0122 40.8811C80.1225 40.971 80.2139 41.0808 80.2813 41.2046C80.3731 41.31 80.4432 41.4317 80.4877 41.563C80.4877 41.563 80.3531 41.4319 80.2185 41.2395C80.1347 41.1289 80.0654 41.0085 80.0122 40.8811Z" fill="black"/>
<path d="M77.8684 40.7411C77.9803 40.6523 78.108 40.5841 78.2451 40.54C78.1511 40.6434 78.0386 40.7292 77.9132 40.7936C77.8037 40.8812 77.6792 40.9493 77.5454 40.9946C77.5454 40.9946 77.68 40.8635 77.8684 40.7411Z" fill="black"/>
<path d="M80.7391 38.9578C80.6266 39.0439 80.4989 39.1091 80.3623 39.1501C80.4588 39.0494 80.5708 38.9638 80.6942 38.8966C80.8062 38.8078 80.9339 38.7396 81.071 38.6956C80.976 38.8002 80.8638 38.8888 80.7391 38.9578Z" fill="black"/>
<path d="M78.0569 39.6048C77.9149 39.6129 77.7724 39.5982 77.6353 39.5611C77.4925 39.5445 77.3532 39.5061 77.2227 39.4474C77.3618 39.4199 77.5052 39.4199 77.6443 39.4474C77.7897 39.4777 77.929 39.5309 78.0569 39.6048Z" fill="black"/>
<path d="M80.5601 40.0855C80.7021 40.0778 80.8445 40.0925 80.9817 40.1292C81.2149 40.1729 81.3943 40.2253 81.3854 40.2516C81.243 40.2535 81.1011 40.2358 80.9637 40.1991C80.8236 40.1834 80.6872 40.145 80.5601 40.0855Z" fill="black"/>
<path d="M79.0615 41.0647C79.0696 41.2037 79.0513 41.343 79.0077 41.4756C78.9907 41.6147 78.9513 41.7504 78.8911 41.8777C78.8847 41.7451 78.8998 41.6123 78.9359 41.4843C78.946 41.3372 78.9889 41.194 79.0615 41.0647Z" fill="black"/>
<path d="M79.555 38.6255C79.5466 38.4871 79.5618 38.3483 79.5998 38.2146C79.6168 38.0755 79.6562 37.9398 79.7165 37.8125C79.7395 37.9485 79.7395 38.0873 79.7165 38.2234C79.6853 38.3651 79.6308 38.5009 79.555 38.6255Z" fill="black"/>
<path d="M77.9043 39.8494C77.9043 40.1216 77.9874 40.3877 78.143 40.6137C78.2986 40.8398 78.5196 41.0157 78.778 41.119C79.0364 41.2224 79.3205 41.2485 79.5942 41.1941C79.8679 41.1398 80.1188 41.0073 80.315 40.8136C80.5112 40.6199 80.6439 40.3737 80.6962 40.1063C80.7486 39.8389 80.7181 39.5624 80.6087 39.312C80.4994 39.0615 80.3161 38.8484 80.0821 38.6997C79.8481 38.551 79.5741 38.4735 79.2948 38.4769C79.111 38.4781 78.9293 38.5145 78.7599 38.5841C78.5906 38.6537 78.437 38.7551 78.3079 38.8825C78.1787 39.01 78.0766 39.161 78.0074 39.3269C77.9382 39.4928 77.9031 39.6703 77.9043 39.8494Z" fill="#6C6D6D"/>
<path d="M78.1289 39.8495C78.1307 40.076 78.2014 40.2969 78.332 40.4843C78.4626 40.6716 78.6473 40.8171 78.8627 40.9021C79.0781 40.9872 79.3145 41.0081 79.5421 40.9622C79.7697 40.9164 79.9783 40.8057 80.1414 40.6444C80.3045 40.483 80.4148 40.2781 80.4584 40.0556C80.502 39.8331 80.4769 39.6031 80.3863 39.3945C80.2958 39.1859 80.1437 39.0081 79.9495 38.8837C79.7553 38.7593 79.5276 38.6939 79.2951 38.6956C79.1408 38.6967 78.9882 38.7275 78.8461 38.7861C78.704 38.8447 78.5751 38.93 78.4668 39.0372C78.3585 39.1443 78.2729 39.2712 78.215 39.4106C78.157 39.55 78.1278 39.6992 78.1289 39.8495Z" fill="#9E9E9E"/>
<path d="M78.3976 39.8496C78.4205 40.0787 78.5301 40.2913 78.705 40.446C78.88 40.6007 79.1077 40.6863 79.344 40.6863C79.5802 40.6863 79.808 40.6007 79.9829 40.446C80.1579 40.2913 80.2675 40.0787 80.2904 39.8496C80.3033 39.7209 80.2884 39.591 80.2467 39.4683C80.205 39.3456 80.1374 39.2328 80.0482 39.137C79.9591 39.0413 79.8504 38.9648 79.7291 38.9124C79.6078 38.8601 79.4766 38.833 79.344 38.833C79.2113 38.833 79.0801 38.8601 78.9588 38.9124C78.8376 38.9648 78.7289 39.0413 78.6397 39.137C78.5506 39.2328 78.483 39.3456 78.4413 39.4683C78.3996 39.591 78.3847 39.7209 78.3976 39.8496Z" fill="#494949"/>
<path d="M78.4786 39.8496C78.5 40.0496 78.5966 40.2347 78.7499 40.3693C78.9031 40.5039 79.1021 40.5784 79.3084 40.5784C79.5147 40.5784 79.7137 40.5039 79.867 40.3693C80.0202 40.2347 80.1168 40.0496 80.1382 39.8496C80.1503 39.7363 80.1379 39.6219 80.1017 39.5136C80.0655 39.4053 80.0064 39.3057 79.9281 39.2211C79.8499 39.1365 79.7543 39.0689 79.6476 39.0226C79.5408 38.9763 79.4253 38.9524 79.3084 38.9524C79.1916 38.9524 79.076 38.9763 78.9693 39.0226C78.8625 39.0689 78.7669 39.1365 78.6887 39.2211C78.6105 39.3057 78.5513 39.4053 78.5151 39.5136C78.479 39.6219 78.4665 39.7363 78.4786 39.8496Z" fill="#6C6D6D"/>
<path d="M78.6666 39.8494C78.6683 39.9718 78.7072 40.0909 78.7782 40.1918C78.8493 40.2927 78.9494 40.3709 79.0659 40.4166C79.1824 40.4622 79.3102 40.4733 79.4332 40.4483C79.5561 40.4234 79.6688 40.3636 79.7569 40.2765C79.8451 40.1893 79.9049 40.0787 79.9288 39.9586C79.9526 39.8384 79.9395 39.7141 79.891 39.6012C79.8426 39.4882 79.7609 39.3918 79.6564 39.324C79.5519 39.2562 79.4291 39.22 79.3035 39.22C79.2191 39.22 79.1355 39.2363 79.0577 39.268C78.9798 39.2998 78.9092 39.3463 78.8499 39.4048C78.7907 39.4634 78.7439 39.5329 78.7125 39.6092C78.681 39.6855 78.6654 39.7672 78.6666 39.8494Z" fill="#9E9E9E"/>
<path d="M81.9053 39.8495C81.9053 40.2769 82.0355 40.6948 82.2793 41.0501C82.5232 41.4053 82.8698 41.6821 83.2752 41.8453C83.6806 42.0084 84.1266 42.0507 84.5567 41.9667C84.9867 41.8826 85.3815 41.6761 85.6911 41.3732C86.0006 41.0704 86.2109 40.6848 86.2954 40.2654C86.3799 39.8459 86.3347 39.4115 86.1656 39.0171C85.9965 38.6227 85.7111 38.2861 85.3456 38.0499C84.98 37.8136 84.5507 37.6885 84.1121 37.6902C83.8215 37.6902 83.5339 37.7461 83.2655 37.8547C82.9972 37.9634 82.7535 38.1225 82.5485 38.3232C82.3434 38.5238 82.1811 38.7619 82.0707 39.0238C81.9603 39.2858 81.9041 39.5664 81.9053 39.8495Z" fill="black"/>
<path d="M81.9053 39.8495C81.9053 40.2769 82.0355 40.6948 82.2793 41.0501C82.5232 41.4053 82.8698 41.6821 83.2752 41.8453C83.6806 42.0084 84.1266 42.0507 84.5567 41.9667C84.9867 41.8826 85.3815 41.6761 85.6911 41.3732C86.0006 41.0704 86.2109 40.6848 86.2954 40.2654C86.3799 39.8459 86.3347 39.4115 86.1656 39.0171C85.9965 38.6227 85.7111 38.2861 85.3456 38.0499C84.98 37.8136 84.5507 37.6885 84.1121 37.6902C83.8215 37.6902 83.5339 37.7461 83.2655 37.8547C82.9972 37.9634 82.7535 38.1225 82.5485 38.3232C82.3434 38.5238 82.1811 38.7619 82.0707 39.0238C81.9603 39.2858 81.9041 39.5664 81.9053 39.8495Z" fill="#262626"/>
<path d="M81.9053 39.8495C81.9053 40.2769 82.0355 40.6948 82.2793 41.0501C82.5232 41.4053 82.8698 41.6821 83.2752 41.8453C83.6806 42.0084 84.1266 42.0507 84.5567 41.9667C84.9867 41.8826 85.3815 41.6761 85.6911 41.3732C86.0006 41.0704 86.2109 40.6848 86.2954 40.2654C86.3799 39.8459 86.3347 39.4115 86.1656 39.0171C85.9965 38.6227 85.7111 38.2861 85.3456 38.0499C84.98 37.8136 84.5507 37.6885 84.1121 37.6902C83.8215 37.6902 83.5339 37.7461 83.2655 37.8547C82.9972 37.9634 82.7535 38.1225 82.5485 38.3232C82.3434 38.5238 82.1811 38.7619 82.0707 39.0238C81.9603 39.2858 81.9041 39.5664 81.9053 39.8495Z" fill="#262626"/>
<path d="M84.1474 38.1885C84.1747 38.3241 84.1747 38.4637 84.1474 38.5993C84.1253 38.4633 84.1253 38.3246 84.1474 38.1885C84.1253 38.0524 84.1253 37.9137 84.1474 37.7776C84.1747 37.9132 84.1747 38.0528 84.1474 38.1885Z" fill="black"/>
<path d="M84.1474 41.4844C84.1747 41.62 84.1747 41.7596 84.1474 41.8952C84.1253 41.7592 84.1253 41.6205 84.1474 41.4844C84.1253 41.3483 84.1253 41.2096 84.1474 41.0735C84.1747 41.2091 84.1747 41.3487 84.1474 41.4844Z" fill="black"/>
<path d="M82.4167 39.8844C82.6496 39.8844 82.8384 39.8687 82.8384 39.8494C82.8384 39.8301 82.6496 39.8145 82.4167 39.8145C82.1839 39.8145 81.9951 39.8301 81.9951 39.8494C81.9951 39.8687 82.1839 39.8844 82.4167 39.8844Z" fill="black"/>
<path d="M85.8166 39.8844C86.0495 39.8844 86.2383 39.8687 86.2383 39.8494C86.2383 39.8301 86.0495 39.8145 85.8166 39.8145C85.5838 39.8145 85.395 39.8301 85.395 39.8494C85.395 39.8687 85.5838 39.8844 85.8166 39.8844Z" fill="black"/>
<path d="M83.2151 38.9665C83.09 38.8944 82.9779 38.8028 82.8831 38.6955C82.7217 38.5382 82.5961 38.3983 82.614 38.3808C82.632 38.3633 82.7755 38.4857 82.937 38.6518C83.0479 38.74 83.142 38.8465 83.2151 38.9665Z" fill="black"/>
<path d="M85.0184 40.7236C85.2476 40.8886 85.4502 41.086 85.6195 41.3094C85.6195 41.3094 85.458 41.2044 85.2875 41.0383C85.1171 40.8722 85.0005 40.7411 85.0184 40.7236Z" fill="black"/>
<path d="M83.2151 40.7236C83.142 40.8436 83.0479 40.9502 82.937 41.0383C82.7755 41.2044 82.632 41.3268 82.614 41.3094C82.5961 41.2919 82.7217 41.152 82.8831 40.9946C82.9779 40.8873 83.09 40.7958 83.2151 40.7236Z" fill="black"/>
<path d="M85.0181 38.9667C85.0181 38.9667 85.1257 38.8093 85.2872 38.652C85.4487 38.4946 85.6012 38.3635 85.6191 38.381C85.5461 38.501 85.4519 38.6075 85.341 38.6957C85.2505 38.8038 85.1412 38.8955 85.0181 38.9667Z" fill="black"/>
<path d="M83.4217 38.337C83.3526 38.2149 83.307 38.0816 83.2871 37.9436C83.3752 38.0501 83.4421 38.1717 83.4845 38.302C83.5486 38.4261 83.594 38.5586 83.619 38.6954C83.531 38.5889 83.4641 38.4674 83.4217 38.337Z" fill="black"/>
<path d="M84.8121 41.3531C84.8783 41.4794 84.9237 41.6151 84.9467 41.7552C84.8612 41.6424 84.7918 41.5189 84.7403 41.388C84.6763 41.2646 84.6338 41.1317 84.6147 40.9946C84.7028 41.1011 84.7697 41.2227 84.8121 41.3531Z" fill="black"/>
<path d="M82.5335 40.4615C82.6583 40.393 82.7953 40.3485 82.9372 40.3303C82.8238 40.415 82.6964 40.48 82.5604 40.5226C82.4336 40.5864 82.2974 40.6306 82.1567 40.6538C82.2701 40.5691 82.3975 40.5041 82.5335 40.4615Z" fill="black"/>
<path d="M85.6913 39.2287C85.5665 39.2971 85.4295 39.3416 85.2876 39.3598C85.401 39.2752 85.5284 39.2101 85.6644 39.1675C85.7912 39.1037 85.9274 39.0595 86.0681 39.0364C85.9547 39.121 85.8272 39.1861 85.6913 39.2287Z" fill="black"/>
<path d="M82.9284 39.3775C82.7878 39.3589 82.6514 39.3175 82.5247 39.2551C82.3901 39.2133 82.263 39.1514 82.1479 39.0715C82.2888 39.0889 82.4255 39.1304 82.5516 39.1939C82.6879 39.2316 82.8157 39.2938 82.9284 39.3775Z" fill="black"/>
<path d="M85.2964 40.3127C85.44 40.3307 85.5795 40.3721 85.709 40.4351C85.8436 40.4769 85.9707 40.5389 86.0858 40.6187C86.0858 40.6187 85.8974 40.6187 85.6732 40.5051C85.5372 40.4625 85.4097 40.3974 85.2964 40.3127Z" fill="black"/>
<path d="M83.6369 40.9946C83.6197 41.1348 83.5772 41.271 83.5113 41.3968C83.4216 41.6066 83.3409 41.7727 83.314 41.7639C83.3369 41.6278 83.3792 41.4954 83.4396 41.3705C83.4846 41.2359 83.5513 41.109 83.6369 40.9946Z" fill="black"/>
<path d="M84.9107 37.9263C84.8928 38.0636 84.8503 38.1967 84.7851 38.3197C84.7452 38.4547 84.6815 38.5819 84.5967 38.6956C84.6139 38.5554 84.6564 38.4192 84.7223 38.2934C84.7609 38.1606 84.8248 38.0361 84.9107 37.9263Z" fill="black"/>
<path d="M83.7804 38.2234C83.7575 38.0873 83.7575 37.9485 83.7804 37.8125C83.8406 37.9398 83.88 38.0755 83.897 38.2146C83.9201 38.3507 83.9201 38.4895 83.897 38.6255C83.8275 38.5018 83.7876 38.3643 83.7804 38.2234Z" fill="black"/>
<path d="M84.4709 41.4842C84.4935 41.6202 84.4935 41.759 84.4709 41.895C84.4106 41.7678 84.3712 41.6321 84.3542 41.4929C84.3311 41.3569 84.3311 41.2181 84.3542 41.082C84.4145 41.2093 84.4538 41.345 84.4709 41.4842Z" fill="black"/>
<path d="M82.4344 40.1205C82.5746 40.0836 82.72 40.0688 82.865 40.0768C82.7362 40.14 82.5961 40.1786 82.4524 40.1905C82.3152 40.2271 82.1728 40.2419 82.0308 40.2342C82.1579 40.1746 82.2943 40.1362 82.4344 40.1205Z" fill="black"/>
<path d="M85.7898 39.5697C85.6527 39.6068 85.5102 39.6216 85.3682 39.6134C85.497 39.5502 85.6371 39.5116 85.7808 39.4997C85.9179 39.4626 86.0604 39.4479 86.2025 39.456C86.0719 39.5148 85.9326 39.5531 85.7898 39.5697Z" fill="black"/>
<path d="M83.0627 39.1501C82.9267 39.1036 82.7994 39.0357 82.6859 38.949C82.5632 38.8772 82.4515 38.7889 82.354 38.6868C82.492 38.7289 82.6201 38.7972 82.7308 38.8878C82.8557 38.9566 82.9679 39.0452 83.0627 39.1501Z" fill="black"/>
<path d="M85.1709 40.54C85.3052 40.594 85.4318 40.6645 85.5477 40.7498C85.6693 40.8159 85.7785 40.9016 85.8706 41.0034C85.7359 40.96 85.611 40.8917 85.5028 40.8023C85.3758 40.7366 85.2631 40.6475 85.1709 40.54Z" fill="black"/>
<path d="M83.3949 40.8723C83.3517 41.0068 83.2815 41.1316 83.1886 41.2395C83.063 41.4231 82.9374 41.5717 82.9194 41.5542C82.9763 41.4268 83.0486 41.3065 83.1347 41.1958C83.2041 41.0757 83.2918 40.9666 83.3949 40.8723Z" fill="black"/>
<path d="M84.8301 38.8618C84.8778 38.7292 84.9475 38.6052 85.0364 38.4946C85.171 38.311 85.2876 38.1624 85.3055 38.1799C85.259 38.3103 85.1891 38.4316 85.0992 38.5383C85.0318 38.662 84.9404 38.7719 84.8301 38.8618Z" fill="black"/>
<path d="M83.4035 38.8091C83.4035 38.8091 83.2689 38.678 83.1344 38.4856C83.0472 38.3786 82.9803 38.2572 82.937 38.1272C83.043 38.2188 83.1312 38.3284 83.1972 38.4507C83.2889 38.5561 83.359 38.6778 83.4035 38.8091Z" fill="black"/>
<path d="M84.8301 40.8811C84.9332 40.9754 85.0209 41.0845 85.0902 41.2046C85.182 41.31 85.2521 41.4317 85.2966 41.563C85.2966 41.563 85.162 41.4319 85.0274 41.2395C84.9402 41.1325 84.8734 41.0111 84.8301 40.8811Z" fill="black"/>
<path d="M82.6859 40.7411C82.7941 40.6517 82.919 40.5834 83.0537 40.54C82.9597 40.6434 82.8472 40.7292 82.7218 40.7936C82.6123 40.8812 82.4878 40.9493 82.354 40.9946C82.354 40.9946 82.4886 40.8635 82.6859 40.7411Z" fill="black"/>
<path d="M85.5744 38.9578C85.4633 39.0409 85.339 39.1059 85.2065 39.1501C85.2065 39.1501 85.3411 39.019 85.5385 38.8966C85.6467 38.8072 85.7715 38.7389 85.9063 38.6956C85.8112 38.8002 85.6991 38.8888 85.5744 38.9578Z" fill="black"/>
<path d="M82.8831 39.6048C82.7411 39.6129 82.5986 39.5982 82.4615 39.5611C82.3187 39.5445 82.1794 39.5061 82.0488 39.4474C82.1879 39.4199 82.3313 39.4199 82.4705 39.4474C82.6159 39.4777 82.7552 39.5309 82.8831 39.6048Z" fill="black"/>
<path d="M85.3682 40.0855C85.5102 40.0778 85.6526 40.0925 85.7898 40.1292C85.9346 40.1414 86.0752 40.1831 86.2025 40.2516C86.0571 40.2539 85.9121 40.2363 85.7719 40.1991C85.6317 40.1834 85.4953 40.145 85.3682 40.0855Z" fill="black"/>
<path d="M83.8701 41.0647C83.8785 41.2031 83.8634 41.342 83.8253 41.4756C83.8127 41.6167 83.7699 41.7537 83.6997 41.8777C83.7049 41.7432 83.7321 41.6104 83.7804 41.4843C83.7846 41.3404 83.815 41.1983 83.8701 41.0647Z" fill="black"/>
<path d="M84.3636 38.6255C84.3552 38.4871 84.3703 38.3483 84.4084 38.2146C84.4254 38.0755 84.4648 37.9398 84.525 37.8125C84.5533 37.9481 84.5533 38.0878 84.525 38.2234C84.4939 38.3651 84.4394 38.5009 84.3636 38.6255Z" fill="black"/>
<path d="M82.7124 39.8496C82.7124 40.1214 82.7953 40.3871 82.9504 40.613C83.1056 40.8389 83.3261 41.0148 83.584 41.1184C83.8418 41.2221 84.1255 41.2487 84.3989 41.1951C84.6724 41.1414 84.9233 41.0098 85.1199 40.817C85.3165 40.6241 85.45 40.3788 85.5033 40.112C85.5566 39.8451 85.5274 39.5689 85.4195 39.3183C85.3115 39.0676 85.1296 38.8539 84.8968 38.7041C84.664 38.5544 84.3908 38.4753 84.1119 38.4771C83.9273 38.4771 83.7446 38.5126 83.5743 38.5817C83.4039 38.6508 83.2492 38.752 83.1191 38.8796C82.9891 39.0072 82.8862 39.1585 82.8164 39.325C82.7466 39.4915 82.7112 39.6698 82.7124 39.8496Z" fill="#6C6D6D"/>
<path d="M82.937 39.8495C82.9388 40.0756 83.0092 40.2962 83.1394 40.4834C83.2696 40.6705 83.4538 40.816 83.6687 40.9013C83.8836 40.9866 84.1196 41.0081 84.3469 40.9629C84.5743 40.9177 84.7829 40.808 84.9463 40.6475C85.1098 40.487 85.2208 40.2829 85.2654 40.061C85.31 39.8391 85.2863 39.6093 85.1971 39.4005C85.1079 39.1918 84.9572 39.0134 84.7642 38.888C84.5711 38.7625 84.3443 38.6956 84.1122 38.6956C83.9571 38.6956 83.8036 38.7255 83.6604 38.7836C83.5173 38.8417 83.3873 38.9268 83.2781 39.0341C83.1688 39.1413 83.0824 39.2686 83.0239 39.4086C82.9654 39.5485 82.9359 39.6984 82.937 39.8495Z" fill="#9E9E9E"/>
<path d="M83.1701 39.8495C83.1704 40.035 83.2278 40.2161 83.3348 40.3694C83.4419 40.5227 83.5937 40.6412 83.7706 40.7095C83.9475 40.7779 84.1414 40.7929 84.3272 40.7527C84.513 40.7124 84.6821 40.6188 84.8127 40.4839C84.9432 40.3491 85.0293 40.1791 85.0597 39.996C85.0901 39.8129 85.0634 39.6252 84.9831 39.4571C84.9028 39.2889 84.7726 39.1481 84.6093 39.0529C84.446 38.9577 84.2571 38.9124 84.0672 38.9229C83.9447 38.9227 83.8235 38.9469 83.711 38.9941C83.5984 39.0412 83.4971 39.1104 83.413 39.1972C83.329 39.284 83.264 39.3867 83.2223 39.4989C83.1805 39.6111 83.1627 39.7304 83.1701 39.8495Z" fill="#494949"/>
<path d="M83.2867 39.8494C83.2867 40.0106 83.3358 40.1681 83.4279 40.302C83.52 40.4359 83.6508 40.5401 83.8038 40.6014C83.9568 40.6626 84.125 40.6782 84.287 40.6461C84.4491 40.614 84.5977 40.5357 84.7141 40.4212C84.8304 40.3066 84.9091 40.1609 84.9403 40.0026C84.9714 39.8443 84.9536 39.6806 84.8891 39.5322C84.8246 39.3838 84.7163 39.2574 84.5779 39.1692C84.4395 39.0809 84.2774 39.0347 84.112 39.0364C84.0028 39.0364 83.8948 39.0575 83.7941 39.0985C83.6933 39.1394 83.602 39.1995 83.5252 39.2751C83.4484 39.3507 83.3878 39.4404 83.3469 39.539C83.306 39.6376 83.2855 39.7431 83.2867 39.8494Z" fill="#6C6D6D"/>
<path d="M83.4752 39.8494C83.4769 39.9718 83.5158 40.0909 83.5868 40.1918C83.6579 40.2927 83.758 40.3709 83.8745 40.4166C83.991 40.4622 84.1188 40.4733 84.2418 40.4483C84.3647 40.4234 84.4774 40.3636 84.5655 40.2765C84.6537 40.1893 84.7135 40.0787 84.7374 39.9586C84.7612 39.8384 84.7481 39.7141 84.6996 39.6012C84.6512 39.4882 84.5695 39.3918 84.465 39.324C84.3605 39.2562 84.2377 39.22 84.1121 39.22C84.0277 39.22 83.9441 39.2363 83.8663 39.268C83.7884 39.2998 83.7178 39.3463 83.6585 39.4048C83.5992 39.4634 83.5525 39.5329 83.521 39.6092C83.4896 39.6855 83.474 39.7672 83.4752 39.8494Z" fill="#9E9E9E"/>
<path d="M59.9092 39.8495C59.9092 40.2766 60.0391 40.694 60.2826 41.0491C60.5261 41.4042 60.8721 41.681 61.277 41.8444C61.6819 42.0079 62.1274 42.0506 62.5572 41.9673C62.9871 41.884 63.3819 41.6783 63.6918 41.3763C64.0017 41.0744 64.2127 40.6896 64.2982 40.2707C64.3837 39.8519 64.3398 39.4177 64.1721 39.0232C64.0044 38.6286 63.7204 38.2914 63.356 38.0541C62.9916 37.8168 62.5632 37.6902 62.125 37.6902C61.5373 37.6902 60.9737 37.9177 60.5582 38.3226C60.1426 38.7276 59.9092 39.2768 59.9092 39.8495Z" fill="black"/>
<path d="M59.9092 39.8495C59.9092 40.2766 60.0391 40.694 60.2826 41.0491C60.5261 41.4042 60.8721 41.681 61.277 41.8444C61.6819 42.0079 62.1274 42.0506 62.5572 41.9673C62.9871 41.884 63.3819 41.6783 63.6918 41.3763C64.0017 41.0744 64.2127 40.6896 64.2982 40.2707C64.3837 39.8519 64.3398 39.4177 64.1721 39.0232C64.0044 38.6286 63.7204 38.2914 63.356 38.0541C62.9916 37.8168 62.5632 37.6902 62.125 37.6902C61.5373 37.6902 60.9737 37.9177 60.5582 38.3226C60.1426 38.7276 59.9092 39.2768 59.9092 39.8495Z" fill="#262626"/>
<path d="M59.9092 39.8495C59.9092 40.2766 60.0391 40.694 60.2826 41.0491C60.5261 41.4042 60.8721 41.681 61.277 41.8444C61.6819 42.0079 62.1274 42.0506 62.5572 41.9673C62.9871 41.884 63.3819 41.6783 63.6918 41.3763C64.0017 41.0744 64.2127 40.6896 64.2982 40.2707C64.3837 39.8519 64.3398 39.4177 64.1721 39.0232C64.0044 38.6286 63.7204 38.2914 63.356 38.0541C62.9916 37.8168 62.5632 37.6902 62.125 37.6902C61.5373 37.6902 60.9737 37.9177 60.5582 38.3226C60.1426 38.7276 59.9092 39.2768 59.9092 39.8495Z" fill="#262626"/>
<path d="M62.1606 38.1885C62.1879 38.3241 62.1879 38.4637 62.1606 38.5993C62.1385 38.4633 62.1385 38.3246 62.1606 38.1885C62.1385 38.0524 62.1385 37.9137 62.1606 37.7776C62.1879 37.9132 62.1879 38.0528 62.1606 38.1885Z" fill="black"/>
<path d="M62.1606 41.4844C62.1879 41.62 62.1879 41.7596 62.1606 41.8952C62.1385 41.7592 62.1385 41.6205 62.1606 41.4844C62.1385 41.3483 62.1385 41.2096 62.1606 41.0735C62.1879 41.2091 62.1879 41.3487 62.1606 41.4844Z" fill="black"/>
<path d="M60.429 39.8844C60.6618 39.8844 60.8506 39.8687 60.8506 39.8494C60.8506 39.8301 60.6618 39.8145 60.429 39.8145C60.1961 39.8145 60.0073 39.8301 60.0073 39.8494C60.0073 39.8687 60.1961 39.8844 60.429 39.8844Z" fill="black"/>
<path d="M63.8293 39.8844C64.0622 39.8844 64.251 39.8687 64.251 39.8494C64.251 39.8301 64.0622 39.8145 63.8293 39.8145C63.5965 39.8145 63.4077 39.8301 63.4077 39.8494C63.4077 39.8687 63.5965 39.8844 63.8293 39.8844Z" fill="black"/>
<path d="M61.2278 38.9666C61.1027 38.8944 60.9906 38.8029 60.8958 38.6956C60.7344 38.5382 60.6088 38.3983 60.6267 38.3809C60.7505 38.4511 60.86 38.543 60.9497 38.6519C61.0606 38.7401 61.1547 38.8466 61.2278 38.9666Z" fill="black"/>
<path d="M63.0306 40.7236C63.1519 40.7973 63.2609 40.8887 63.3536 40.9946C63.4645 41.0828 63.5586 41.1894 63.6317 41.3094C63.6317 41.3094 63.4702 41.2044 63.2998 41.0383C63.1293 40.8722 63.0127 40.7411 63.0306 40.7236Z" fill="black"/>
<path d="M61.2275 40.7236C61.1545 40.8436 61.0603 40.9502 60.9494 41.0383C60.8598 41.1472 60.7503 41.2391 60.6265 41.3094C60.6265 41.3094 60.7341 41.152 60.8956 40.9946C60.9904 40.8873 61.1025 40.7958 61.2275 40.7236Z" fill="black"/>
<path d="M63.0308 38.9667C63.0308 38.9667 63.1384 38.8093 63.2999 38.652C63.4614 38.4946 63.6139 38.3635 63.6318 38.381C63.5588 38.501 63.4646 38.6075 63.3537 38.6957C63.261 38.8016 63.1521 38.8931 63.0308 38.9667Z" fill="black"/>
<path d="M61.4339 38.337C61.3648 38.2149 61.3192 38.0816 61.2993 37.9436C61.3874 38.0501 61.4543 38.1717 61.4967 38.302C61.5609 38.4261 61.6062 38.5586 61.6312 38.6954C61.5432 38.5889 61.4763 38.4674 61.4339 38.337Z" fill="black"/>
<path d="M62.8243 41.3531C62.8905 41.4794 62.9359 41.6151 62.9589 41.7552C62.8659 41.6473 62.7958 41.5225 62.7525 41.388C62.6885 41.2646 62.646 41.1317 62.627 40.9946C62.715 41.1011 62.7819 41.2227 62.8243 41.3531Z" fill="black"/>
<path d="M60.5457 40.4615C60.6705 40.393 60.8075 40.3485 60.9494 40.3303C60.836 40.415 60.7086 40.48 60.5726 40.5226C60.4458 40.5864 60.3096 40.6306 60.1689 40.6538C60.2823 40.5691 60.4098 40.5041 60.5457 40.4615Z" fill="black"/>
<path d="M63.7035 39.2287C63.5788 39.2971 63.4417 39.3416 63.2998 39.3598C63.4132 39.2752 63.5406 39.2101 63.6766 39.1675C63.7922 39.107 63.916 39.0628 64.0444 39.0364C63.9419 39.1177 63.8269 39.1826 63.7035 39.2287Z" fill="black"/>
<path d="M60.9406 39.3775C60.7997 39.3601 60.6631 39.3187 60.5369 39.2551C60.4023 39.2133 60.2752 39.1514 60.1602 39.0715C60.301 39.0889 60.4377 39.1304 60.5638 39.1939C60.7001 39.2316 60.8279 39.2938 60.9406 39.3775Z" fill="black"/>
<path d="M63.3091 40.3127C63.45 40.3302 63.5866 40.3716 63.7128 40.4351C63.8506 40.4758 63.9808 40.5378 64.0985 40.6187C64.0985 40.6187 63.9101 40.6187 63.6859 40.5051C63.5499 40.4625 63.4224 40.3974 63.3091 40.3127Z" fill="black"/>
<path d="M61.6491 40.9946C61.6319 41.1348 61.5894 41.271 61.5235 41.3968C61.4798 41.5293 61.413 41.6535 61.3262 41.7639C61.344 41.6266 61.3866 41.4935 61.4518 41.3705C61.4968 41.2359 61.5635 41.109 61.6491 40.9946Z" fill="black"/>
<path d="M62.9234 37.9263C62.9055 38.0636 62.863 38.1967 62.7978 38.3197C62.7536 38.453 62.6901 38.5796 62.6094 38.6956C62.6266 38.5554 62.6691 38.4192 62.735 38.2934C62.7736 38.1606 62.8375 38.0361 62.9234 37.9263Z" fill="black"/>
<path d="M61.7659 38.2234C61.7401 38.0876 61.7401 37.9483 61.7659 37.8125C61.8262 37.9398 61.8656 38.0755 61.8826 38.2146C61.9138 38.3499 61.9138 38.4902 61.8826 38.6255C61.8223 38.4983 61.783 38.3626 61.7659 38.2234Z" fill="black"/>
<path d="M62.4835 41.4842C62.5062 41.6202 62.5062 41.759 62.4835 41.895C62.4233 41.7678 62.3839 41.6321 62.3669 41.4929C62.3288 41.3593 62.3137 41.2205 62.3221 41.082C62.3979 41.2067 62.4524 41.3425 62.4835 41.4842Z" fill="black"/>
<path d="M60.4559 40.1204C60.5931 40.0838 60.7355 40.069 60.8776 40.0767C60.8776 40.0767 60.6981 40.1466 60.4739 40.1903C60.3367 40.227 60.1943 40.2417 60.0522 40.234C60.1794 40.1745 60.3158 40.1361 60.4559 40.1204Z" fill="black"/>
<path d="M63.802 39.5697C63.6649 39.6066 63.5224 39.6214 63.3804 39.6134C63.5092 39.5502 63.6493 39.5116 63.793 39.4997C63.9301 39.4626 64.0726 39.4479 64.2147 39.456C64.0841 39.5148 63.9448 39.5531 63.802 39.5697Z" fill="black"/>
<path d="M61.0659 39.1501C60.9342 39.1004 60.8103 39.0327 60.6981 38.949C60.5734 38.88 60.4613 38.7914 60.3662 38.6868C60.5042 38.7289 60.6323 38.7972 60.743 38.8878C60.9314 39.0102 61.0839 39.1326 61.0659 39.1501Z" fill="black"/>
<path d="M63.1475 40.54C63.2794 40.5931 63.4032 40.6637 63.5153 40.7498C63.6385 40.8174 63.7504 40.9029 63.8472 41.0034C63.7125 40.96 63.5876 40.8917 63.4794 40.8023C63.3524 40.7366 63.2397 40.6475 63.1475 40.54Z" fill="black"/>
<path d="M61.4071 40.8723C61.3639 41.0068 61.2938 41.1316 61.2008 41.2395C61.0752 41.4231 60.9496 41.5717 60.9316 41.5542C60.9826 41.4258 61.0521 41.3051 61.138 41.1958C61.2088 41.0742 61.2997 40.9649 61.4071 40.8723Z" fill="black"/>
<path d="M62.8423 38.8618C62.89 38.7292 62.9597 38.6052 63.0486 38.4946C63.1832 38.311 63.2998 38.1624 63.3177 38.1799C63.2712 38.3103 63.2013 38.4316 63.1114 38.5383C63.0406 38.6598 62.9497 38.7691 62.8423 38.8618Z" fill="black"/>
<path d="M61.4162 38.8091C61.4162 38.8091 61.2816 38.678 61.1471 38.4856C61.0599 38.3786 60.993 38.2572 60.9497 38.1272C61.0528 38.2215 61.1405 38.3306 61.2099 38.4507C61.3016 38.5561 61.3717 38.6778 61.4162 38.8091Z" fill="black"/>
<path d="M62.8335 40.8811C62.9438 40.971 63.0352 41.0808 63.1026 41.2046C63.1944 41.31 63.2645 41.4317 63.309 41.563C63.309 41.563 63.1744 41.4319 63.0398 41.2395C62.956 41.1289 62.8867 41.0085 62.8335 40.8811Z" fill="black"/>
<path d="M60.6892 40.7411C60.8011 40.6523 60.9288 40.5841 61.0659 40.54C60.9719 40.6434 60.8594 40.7292 60.734 40.7936C60.6245 40.8812 60.5 40.9493 60.3662 40.9946C60.3662 40.9946 60.5008 40.8635 60.6892 40.7411Z" fill="black"/>
<path d="M63.5599 38.9578C63.4474 39.0439 63.3197 39.1091 63.1831 39.1501C63.2796 39.0494 63.3916 38.9638 63.515 38.8966C63.627 38.8078 63.7547 38.7396 63.8918 38.6956C63.7968 38.8002 63.6846 38.8888 63.5599 38.9578Z" fill="black"/>
<path d="M60.8777 39.6048C60.7357 39.6129 60.5932 39.5982 60.4561 39.5611C60.3133 39.5445 60.174 39.5061 60.0435 39.4474C60.1826 39.4199 60.326 39.4199 60.4651 39.4474C60.6105 39.4777 60.7498 39.5309 60.8777 39.6048Z" fill="black"/>
<path d="M63.3804 40.0855C63.5224 40.0778 63.6648 40.0925 63.802 40.1292C64.0352 40.1729 64.2147 40.2253 64.2057 40.2516C64.0633 40.2535 63.9214 40.2358 63.7841 40.1991C63.6439 40.1834 63.5075 40.145 63.3804 40.0855Z" fill="black"/>
<path d="M61.8826 41.0647C61.8907 41.2037 61.8724 41.343 61.8288 41.4756C61.8166 41.6156 61.777 41.7521 61.7122 41.8777C61.7038 41.7393 61.719 41.6004 61.7571 41.4668C61.7696 41.3257 61.8124 41.1887 61.8826 41.0647Z" fill="black"/>
<path d="M62.3758 38.6255C62.3674 38.4871 62.3826 38.3483 62.4206 38.2146C62.4376 38.0755 62.477 37.9398 62.5372 37.8125C62.5456 37.9509 62.5305 38.0898 62.4924 38.2234C62.4754 38.3626 62.436 38.4983 62.3758 38.6255Z" fill="black"/>
<path d="M62.1245 41.2131C62.8974 41.2131 63.524 40.6026 63.524 39.8494C63.524 39.0962 62.8974 38.4856 62.1245 38.4856C61.3517 38.4856 60.7251 39.0962 60.7251 39.8494C60.7251 40.6026 61.3517 41.2131 62.1245 41.2131Z" fill="#6C6D6D"/>
<path d="M60.9497 39.8495C60.9515 40.0756 61.0219 40.2962 61.1521 40.4834C61.2823 40.6705 61.4665 40.816 61.6814 40.9013C61.8963 40.9866 62.1323 41.0081 62.3596 40.9629C62.587 40.9177 62.7956 40.808 62.959 40.6475C63.1225 40.487 63.2335 40.2829 63.2781 40.061C63.3227 39.8391 63.299 39.6093 63.2098 39.4005C63.1205 39.1918 62.9699 39.0134 62.7769 38.888C62.5838 38.7625 62.357 38.6956 62.1249 38.6956C61.9698 38.6956 61.8163 38.7255 61.6731 38.7836C61.5299 38.8417 61.4 38.9268 61.2908 39.0341C61.1815 39.1413 61.0951 39.2686 61.0366 39.4086C60.9781 39.5485 60.9486 39.6984 60.9497 39.8495Z" fill="#9E9E9E"/>
<path d="M61.1827 39.8496C61.2056 40.0787 61.3152 40.2913 61.4902 40.446C61.6651 40.6007 61.8929 40.6863 62.1291 40.6863C62.3654 40.6863 62.5931 40.6007 62.7681 40.446C62.943 40.2913 63.0526 40.0787 63.0755 39.8496C63.0884 39.7209 63.0735 39.591 63.0318 39.4683C62.9901 39.3456 62.9225 39.2328 62.8334 39.137C62.7442 39.0413 62.6355 38.9648 62.5143 38.9124C62.393 38.8601 62.2618 38.833 62.1291 38.833C61.9965 38.833 61.8653 38.8601 61.744 38.9124C61.6227 38.9648 61.514 39.0413 61.4249 39.137C61.3357 39.2328 61.2681 39.3456 61.2264 39.4683C61.1847 39.591 61.1698 39.7209 61.1827 39.8496Z" fill="#494949"/>
<path d="M61.2994 39.8496C61.3208 40.0496 61.4174 40.2347 61.5707 40.3693C61.7239 40.5039 61.9229 40.5784 62.1292 40.5784C62.3355 40.5784 62.5345 40.5039 62.6878 40.3693C62.841 40.2347 62.9376 40.0496 62.959 39.8496C62.9711 39.7363 62.9587 39.6219 62.9225 39.5136C62.8863 39.4053 62.8272 39.3057 62.7489 39.2211C62.6707 39.1365 62.5751 39.0689 62.4684 39.0226C62.3616 38.9763 62.2461 38.9524 62.1292 38.9524C62.0124 38.9524 61.8968 38.9763 61.7901 39.0226C61.6833 39.0689 61.5877 39.1365 61.5095 39.2211C61.4313 39.3057 61.3721 39.4053 61.3359 39.5136C61.2998 39.6219 61.2873 39.7363 61.2994 39.8496Z" fill="#6C6D6D"/>
<path d="M61.4879 39.8494C61.4896 39.9718 61.5285 40.0909 61.5995 40.1918C61.6706 40.2927 61.7707 40.3709 61.8872 40.4166C62.0037 40.4622 62.1315 40.4733 62.2545 40.4483C62.3774 40.4234 62.4901 40.3636 62.5782 40.2765C62.6664 40.1893 62.7262 40.0787 62.7501 39.9586C62.7739 39.8384 62.7608 39.7141 62.7123 39.6012C62.6639 39.4882 62.5822 39.3918 62.4777 39.324C62.3732 39.2562 62.2504 39.22 62.1248 39.22C62.0404 39.22 61.9568 39.2363 61.879 39.268C61.8011 39.2998 61.7305 39.3463 61.6712 39.4048C61.6119 39.4634 61.5652 39.5329 61.5337 39.6092C61.5023 39.6855 61.4867 39.7672 61.4879 39.8494Z" fill="#9E9E9E"/>
<path d="M55.002 39.8495C55.002 40.2766 55.1319 40.6941 55.3754 41.0491C55.6189 41.4042 55.9649 41.681 56.3698 41.8444C56.7747 42.0079 57.2202 42.0506 57.65 41.9673C58.0799 41.884 58.4747 41.6783 58.7846 41.3764C59.0944 41.0744 59.3055 40.6896 59.391 40.2708C59.4765 39.8519 59.4326 39.4177 59.2649 39.0232C59.0972 38.6286 58.8132 38.2914 58.4488 38.0541C58.0844 37.8168 57.656 37.6902 57.2178 37.6902C56.9264 37.689 56.6378 37.7441 56.3684 37.8522C56.099 37.9603 55.8543 38.1193 55.6483 38.3201C55.4423 38.5208 55.2792 38.7593 55.1682 39.0218C55.0573 39.2843 55.0008 39.5656 55.002 39.8495Z" fill="black"/>
<path d="M55.002 39.8495C55.002 40.2766 55.1319 40.6941 55.3754 41.0491C55.6189 41.4042 55.9649 41.681 56.3698 41.8444C56.7747 42.0079 57.2202 42.0506 57.65 41.9673C58.0799 41.884 58.4747 41.6783 58.7846 41.3764C59.0944 41.0744 59.3055 40.6896 59.391 40.2708C59.4765 39.8519 59.4326 39.4177 59.2649 39.0232C59.0972 38.6286 58.8132 38.2914 58.4488 38.0541C58.0844 37.8168 57.656 37.6902 57.2178 37.6902C56.9264 37.689 56.6378 37.7441 56.3684 37.8522C56.099 37.9603 55.8543 38.1193 55.6483 38.3201C55.4423 38.5208 55.2792 38.7593 55.1682 39.0218C55.0573 39.2843 55.0008 39.5656 55.002 39.8495Z" fill="#262626"/>
<path d="M55.002 39.8495C55.002 40.2766 55.1319 40.6941 55.3754 41.0491C55.6189 41.4042 55.9649 41.681 56.3698 41.8444C56.7747 42.0079 57.2202 42.0506 57.65 41.9673C58.0799 41.884 58.4747 41.6783 58.7846 41.3764C59.0944 41.0744 59.3055 40.6896 59.391 40.2708C59.4765 39.8519 59.4326 39.4177 59.2649 39.0232C59.0972 38.6286 58.8132 38.2914 58.4488 38.0541C58.0844 37.8168 57.656 37.6902 57.2178 37.6902C56.9264 37.689 56.6378 37.7441 56.3684 37.8522C56.099 37.9603 55.8543 38.1193 55.6483 38.3201C55.4423 38.5208 55.2792 38.7593 55.1682 39.0218C55.0573 39.2843 55.0008 39.5656 55.002 39.8495Z" fill="#262626"/>
<path d="M57.2529 38.1885C57.2749 38.3246 57.2749 38.4633 57.2529 38.5993C57.2256 38.4637 57.2256 38.3241 57.2529 38.1885C57.2256 38.0528 57.2256 37.9132 57.2529 37.7776C57.2749 37.9137 57.2749 38.0524 57.2529 38.1885Z" fill="black"/>
<path d="M57.2529 41.4844C57.2749 41.6205 57.2749 41.7592 57.2529 41.8952C57.2256 41.7596 57.2256 41.62 57.2529 41.4844C57.2256 41.3487 57.2256 41.2091 57.2529 41.0735C57.2749 41.2096 57.2749 41.3483 57.2529 41.4844Z" fill="black"/>
<path d="M55.5134 39.8844C55.7463 39.8844 55.9351 39.8687 55.9351 39.8494C55.9351 39.8301 55.7463 39.8145 55.5134 39.8145C55.2806 39.8145 55.0918 39.8301 55.0918 39.8494C55.0918 39.8687 55.2806 39.8844 55.5134 39.8844Z" fill="black"/>
<path d="M58.9133 39.8844C59.1462 39.8844 59.335 39.8687 59.335 39.8494C59.335 39.8301 59.1462 39.8145 58.9133 39.8145C58.6805 39.8145 58.4917 39.8301 58.4917 39.8494C58.4917 39.8687 58.6805 39.8844 58.9133 39.8844Z" fill="black"/>
<path d="M56.3115 38.9666C56.1884 38.8954 56.079 38.8037 55.9885 38.6956C55.8776 38.6074 55.7835 38.5009 55.7104 38.3809C55.7104 38.3809 55.8719 38.4858 56.0424 38.6519C56.2128 38.818 56.3294 38.9491 56.3115 38.9666Z" fill="black"/>
<path d="M58.1147 40.7236C58.2398 40.7958 58.3519 40.8873 58.4467 40.9946C58.6081 41.152 58.7337 41.2919 58.7158 41.3094C58.6978 41.3268 58.5543 41.2044 58.3928 41.0383C58.2819 40.9502 58.1878 40.8436 58.1147 40.7236Z" fill="black"/>
<path d="M56.3115 40.7236C56.3115 40.7236 56.2038 40.881 56.0424 41.0383C55.8809 41.1957 55.7284 41.3268 55.7104 41.3094C55.7835 41.1894 55.8776 41.0828 55.9885 40.9946C56.079 40.8865 56.1884 40.7948 56.3115 40.7236Z" fill="black"/>
<path d="M58.1147 38.9665C58.1878 38.8465 58.2819 38.74 58.3928 38.6518C58.5543 38.4857 58.6978 38.3633 58.7158 38.3808C58.7337 38.3983 58.6081 38.5382 58.4467 38.6955C58.3519 38.8028 58.2398 38.8944 58.1147 38.9665Z" fill="black"/>
<path d="M56.5179 38.337C56.4537 38.2129 56.4084 38.0804 56.3833 37.9436C56.4723 38.0509 56.5421 38.1721 56.5896 38.302C56.6537 38.4254 56.6961 38.5584 56.7152 38.6954C56.6272 38.5889 56.5602 38.4674 56.5179 38.337Z" fill="black"/>
<path d="M57.9083 41.3531C57.9792 41.4775 58.0249 41.614 58.0429 41.7552C57.9584 41.6432 57.8918 41.5194 57.8455 41.388C57.7813 41.2639 57.736 41.1314 57.7109 40.9946C57.799 41.1011 57.8659 41.2227 57.9083 41.3531Z" fill="black"/>
<path d="M55.639 40.4615C55.7637 40.393 55.9007 40.3485 56.0427 40.3303C55.9293 40.415 55.8019 40.48 55.6659 40.5226C55.5391 40.5864 55.4029 40.6306 55.2622 40.6538C55.3756 40.5691 55.503 40.5041 55.639 40.4615Z" fill="black"/>
<path d="M58.7968 39.2287C58.672 39.2971 58.535 39.3416 58.3931 39.3598C58.5064 39.2752 58.6339 39.2101 58.7698 39.1675C58.8966 39.1037 59.0328 39.0595 59.1735 39.0364C59.0602 39.121 58.9327 39.1861 58.7968 39.2287Z" fill="black"/>
<path d="M56.0336 39.3775C55.89 39.3595 55.7505 39.3182 55.6209 39.2551C55.4863 39.2133 55.3592 39.1514 55.2441 39.0715C55.3878 39.0895 55.5273 39.1309 55.6568 39.1939C55.7931 39.2316 55.9209 39.2938 56.0336 39.3775Z" fill="black"/>
<path d="M58.4019 40.3127C58.5425 40.3313 58.6789 40.3727 58.8055 40.4351C58.9401 40.4769 59.0672 40.5389 59.1823 40.6187C59.1823 40.6187 58.9939 40.6187 58.7786 40.5051C58.6427 40.4625 58.5152 40.3974 58.4019 40.3127Z" fill="black"/>
<path d="M56.7334 40.9946C56.7162 41.1348 56.6737 41.271 56.6078 41.3968C56.5692 41.5296 56.5053 41.6541 56.4194 41.7639C56.4373 41.6266 56.4798 41.4935 56.545 41.3705C56.5849 41.2355 56.6486 41.1083 56.7334 40.9946Z" fill="black"/>
<path d="M58.0158 37.9264C57.9929 38.0625 57.9506 38.1949 57.8902 38.3197C57.8451 38.4544 57.7785 38.5813 57.6929 38.6957C57.7101 38.5554 57.7526 38.4193 57.8185 38.2935C57.9082 38.0837 57.9889 37.9176 58.0158 37.9264Z" fill="black"/>
<path d="M56.8678 38.2234C56.8299 38.0897 56.8148 37.9509 56.823 37.8125C56.8832 37.9398 56.9226 38.0755 56.9396 38.2146C56.9627 38.3507 56.9627 38.4895 56.9396 38.6255C56.8947 38.4958 56.8705 38.3602 56.8678 38.2234Z" fill="black"/>
<path d="M57.5676 41.4844C57.6052 41.6181 57.6203 41.7568 57.6125 41.8952C57.5513 41.7652 57.5119 41.6265 57.4958 41.4844C57.4727 41.3483 57.4727 41.2095 57.4958 41.0735C57.5512 41.2034 57.5757 41.3439 57.5676 41.4844Z" fill="black"/>
<path d="M55.5401 40.1206C55.6772 40.0835 55.8197 40.0687 55.9617 40.0769C55.8329 40.1401 55.6928 40.1787 55.5491 40.1905C55.412 40.2276 55.2695 40.2424 55.1274 40.2342C55.258 40.1755 55.3973 40.1372 55.5401 40.1206Z" fill="black"/>
<path d="M58.895 39.5697C58.7548 39.6067 58.6094 39.6215 58.4644 39.6134C58.5932 39.5502 58.7333 39.5117 58.877 39.4998C59.0142 39.4632 59.1566 39.4484 59.2986 39.4561C59.1715 39.5156 59.0351 39.554 58.895 39.5697Z" fill="black"/>
<path d="M56.1592 39.1501C56.0264 39.1025 55.9023 39.0346 55.7914 38.949C55.594 38.8179 55.4415 38.7043 55.4594 38.6868C55.5942 38.7301 55.7191 38.7984 55.8272 38.8878C55.9542 38.9535 56.067 39.0426 56.1592 39.1501Z" fill="black"/>
<path d="M58.2676 40.54C58.403 40.5918 58.5299 40.6625 58.6444 40.7498C58.7656 40.8203 58.8771 40.9055 58.9763 41.0034C58.8383 40.9613 58.7102 40.8929 58.5995 40.8023C58.4746 40.7336 58.3624 40.6449 58.2676 40.54Z" fill="black"/>
<path d="M56.5004 40.8723C56.4526 41.0049 56.3829 41.1289 56.294 41.2395C56.1595 41.4231 56.0428 41.5717 56.0249 41.5542C56.0715 41.4238 56.1413 41.3025 56.2312 41.1958C56.2986 41.072 56.39 40.9622 56.5004 40.8723Z" fill="black"/>
<path d="M57.9355 38.8618C57.9788 38.7273 58.0489 38.6025 58.1419 38.4946C58.2675 38.311 58.3931 38.1624 58.411 38.1799C58.3541 38.3073 58.2818 38.4276 58.1957 38.5383C58.1264 38.6584 58.0386 38.7674 57.9355 38.8618Z" fill="black"/>
<path d="M56.4997 38.8091C56.3939 38.7172 56.3059 38.6076 56.2395 38.4856C56.1477 38.3802 56.0777 38.2585 56.0332 38.1272C56.1406 38.2198 56.2315 38.3291 56.3023 38.4507C56.3895 38.5577 56.4564 38.6791 56.4997 38.8091Z" fill="black"/>
<path d="M57.9268 40.8811C58.0341 40.9737 58.1251 41.083 58.1959 41.2046C58.2831 41.3116 58.3499 41.433 58.3932 41.563C58.3932 41.563 58.2587 41.4319 58.1331 41.2395C58.0413 41.1341 57.9712 41.0124 57.9268 40.8811Z" fill="black"/>
<path d="M55.7821 40.7411C55.8916 40.6535 56.0161 40.5854 56.1499 40.54C56.1499 40.54 56.0154 40.6712 55.818 40.7936C55.7098 40.883 55.5849 40.9513 55.4502 40.9946C55.5442 40.8913 55.6567 40.8054 55.7821 40.7411Z" fill="black"/>
<path d="M58.6622 38.9578C58.5524 39.0428 58.4278 39.1079 58.2944 39.1501C58.3885 39.0468 58.5009 38.9609 58.6264 38.8966C58.7358 38.809 58.8604 38.7409 58.9942 38.6956C58.9942 38.6956 58.8417 38.8617 58.6622 38.9578Z" fill="black"/>
<path d="M55.971 39.6048C55.829 39.6125 55.6866 39.5977 55.5494 39.5611C55.4066 39.5445 55.2673 39.5061 55.1367 39.4474C55.2789 39.4199 55.4252 39.4199 55.5673 39.4474C55.7102 39.4768 55.8468 39.53 55.971 39.6048Z" fill="black"/>
<path d="M58.4644 40.0854C58.6064 40.0773 58.7489 40.092 58.886 40.1291C59.0308 40.1414 59.1714 40.1831 59.2986 40.2515C59.1562 40.2542 59.0142 40.2365 58.877 40.1991C58.7342 40.1825 58.5949 40.1442 58.4644 40.0854Z" fill="black"/>
<path d="M56.9665 41.0647C56.9896 41.2007 56.9896 41.3395 56.9665 41.4756C56.9495 41.6147 56.9101 41.7504 56.8499 41.8777C56.8299 41.7467 56.836 41.6131 56.8678 41.4843C56.8773 41.3402 56.9106 41.1985 56.9665 41.0647Z" fill="black"/>
<path d="M57.4602 38.6255C57.4519 38.4871 57.467 38.3483 57.5051 38.2146C57.5177 38.0735 57.5605 37.9365 57.6307 37.8125C57.6538 37.9485 57.6538 38.0873 57.6307 38.2234C57.5992 38.3663 57.5414 38.5026 57.4602 38.6255Z" fill="black"/>
<path d="M55.8091 39.8496C55.8091 40.121 55.8917 40.3864 56.0465 40.6121C56.2012 40.8378 56.4212 41.0137 56.6786 41.1176C56.9359 41.2215 57.2191 41.2487 57.4923 41.1957C57.7655 41.1428 58.0165 41.0121 58.2134 40.8201C58.4104 40.6282 58.5445 40.3836 58.5989 40.1174C58.6532 39.8511 58.6253 39.5751 58.5187 39.3244C58.4121 39.0736 58.2316 38.8592 58 38.7084C57.7684 38.5576 57.4961 38.4771 57.2175 38.4771C57.0322 38.4759 56.8486 38.5106 56.6771 38.5792C56.5057 38.6478 56.35 38.7488 56.219 38.8765C56.0879 39.0042 55.9843 39.1559 55.9139 39.323C55.8435 39.49 55.8079 39.669 55.8091 39.8496Z" fill="#6C6D6D"/>
<path d="M56.0425 39.8495C56.0443 40.0756 56.1147 40.2962 56.2449 40.4834C56.3751 40.6705 56.5593 40.816 56.7742 40.9013C56.989 40.9866 57.225 41.0081 57.4524 40.9629C57.6798 40.9177 57.8883 40.808 58.0518 40.6475C58.2152 40.487 58.3263 40.2829 58.3709 40.061C58.4155 39.8391 58.3917 39.6093 58.3025 39.4005C58.2133 39.1918 58.0627 39.0134 57.8696 38.888C57.6766 38.7625 57.4497 38.6956 57.2177 38.6956C57.0626 38.6956 56.9091 38.7255 56.7659 38.7836C56.6227 38.8417 56.4928 38.9268 56.3835 39.0341C56.2743 39.1413 56.1879 39.2686 56.1294 39.4086C56.0709 39.5485 56.0413 39.6984 56.0425 39.8495Z" fill="#9E9E9E"/>
<path d="M56.2671 39.8496C56.2671 40.0328 56.3229 40.212 56.4274 40.3644C56.5319 40.5168 56.6804 40.6355 56.8541 40.7057C57.0279 40.7758 57.2191 40.7942 57.4036 40.7584C57.588 40.7227 57.7574 40.6344 57.8904 40.5048C58.0234 40.3752 58.114 40.2101 58.1507 40.0303C58.1874 39.8506 58.1685 39.6643 58.0966 39.4949C58.0246 39.3256 57.9027 39.1809 57.7463 39.0791C57.59 38.9772 57.4061 38.9229 57.218 38.9229C57.0928 38.9217 56.9686 38.9449 56.8527 38.9911C56.7368 39.0372 56.6315 39.1054 56.543 39.1917C56.4544 39.278 56.3844 39.3806 56.3371 39.4936C56.2897 39.6065 56.2659 39.7275 56.2671 39.8496Z" fill="#494949"/>
<path d="M56.3834 39.8494C56.3834 40.0102 56.4323 40.1674 56.524 40.3011C56.6156 40.4348 56.7459 40.539 56.8984 40.6006C57.0508 40.6621 57.2186 40.6782 57.3804 40.6468C57.5422 40.6155 57.6909 40.538 57.8076 40.4243C57.9242 40.3106 58.0037 40.1658 58.0359 40.0081C58.0681 39.8503 58.0516 39.6869 57.9884 39.5383C57.9253 39.3898 57.8183 39.2628 57.6811 39.1734C57.5439 39.0841 57.3826 39.0364 57.2176 39.0364C57.1077 39.0353 56.9987 39.0555 56.897 39.0959C56.7952 39.1364 56.7027 39.1962 56.625 39.2719C56.5473 39.3477 56.4859 39.4378 56.4444 39.5369C56.4029 39.6361 56.3821 39.7423 56.3834 39.8494Z" fill="#6C6D6D"/>
<path d="M56.5806 39.8494C56.5806 40.0141 56.6477 40.1719 56.7671 40.2883C56.8866 40.4047 57.0486 40.4701 57.2175 40.4701C57.3864 40.4701 57.5484 40.4047 57.6679 40.2883C57.7873 40.1719 57.8544 40.0141 57.8544 39.8494C57.8544 39.7679 57.8379 39.6872 57.8059 39.6119C57.7739 39.5366 57.727 39.4682 57.6679 39.4106C57.6087 39.3529 57.5385 39.3072 57.4612 39.276C57.384 39.2448 57.3011 39.2288 57.2175 39.2288C57.1339 39.2288 57.051 39.2448 56.9738 39.276C56.8965 39.3072 56.8263 39.3529 56.7671 39.4106C56.708 39.4682 56.6611 39.5366 56.629 39.6119C56.597 39.6872 56.5806 39.7679 56.5806 39.8494Z" fill="#9E9E9E"/>
<path d="M54.347 41.1521H54.5713V39.0015H54.347V41.1521Z" fill="black"/>
<path d="M98.1872 26.1418H92.105V28.0039H99.9275C99.9727 28.0051 100.017 27.9929 100.055 27.969C100.093 27.945 100.123 27.9105 100.14 27.8698C100.158 27.8292 100.162 27.7843 100.153 27.7412C100.144 27.698 100.122 27.6586 100.089 27.628C100.089 27.628 99.2906 26.1418 98.1872 26.1418Z" fill="#99CC33"/>
<path d="M99.0754 39.2988H99.1741C99.0143 38.5037 98.5854 37.7837 97.9559 37.2543C97.3265 36.7249 96.5329 36.4167 95.7024 36.3789V28.4324H95.5947V36.4489C96.421 36.4673 97.2162 36.7596 97.849 37.2778C98.4818 37.7959 98.9144 38.5088 99.0754 39.2988Z" fill="#355100"/>
<path d="M99.0664 40.0417H100.852V38.3021H99.0664V40.0417Z" fill="#628421"/>
<path d="M91.4682 40.2429H92.751V39.9632H91.4682V40.2429Z" fill="#FF0000"/>
<path d="M93.2624 27.4969C93.2695 27.5336 93.2682 27.5712 93.2586 27.6073C93.249 27.6434 93.2314 27.677 93.207 27.7057C93.1826 27.7343 93.152 27.7574 93.1174 27.7733C93.0827 27.7891 93.045 27.7973 93.0067 27.7973C92.9685 27.7973 92.9307 27.7891 92.8961 27.7733C92.8615 27.7574 92.8309 27.7343 92.8065 27.7057C92.7821 27.677 92.7645 27.6434 92.7549 27.6073C92.7453 27.5712 92.744 27.5336 92.7511 27.4969C92.7623 27.4388 92.794 27.3864 92.8407 27.3487C92.8873 27.3109 92.9461 27.2903 93.0067 27.2903C93.0674 27.2903 93.1261 27.3109 93.1728 27.3487C93.2195 27.3864 93.2512 27.4388 93.2624 27.4969Z" fill="#FFCE00"/>
<path d="M94.007 27.4969C94.0141 27.5336 94.0128 27.5712 94.0032 27.6073C93.9936 27.6434 93.976 27.677 93.9516 27.7057C93.9272 27.7343 93.8966 27.7574 93.862 27.7733C93.8274 27.7891 93.7896 27.7973 93.7514 27.7973C93.7131 27.7973 93.6754 27.7891 93.6407 27.7733C93.6061 27.7574 93.5755 27.7343 93.5511 27.7057C93.5267 27.677 93.5091 27.6434 93.4995 27.6073C93.4899 27.5712 93.4886 27.5336 93.4957 27.4969C93.5069 27.4388 93.5386 27.3864 93.5853 27.3487C93.632 27.3109 93.6907 27.2903 93.7514 27.2903C93.812 27.2903 93.8708 27.3109 93.9174 27.3487C93.9641 27.3864 93.9958 27.4388 94.007 27.4969Z" fill="#FFCE00"/>
<path d="M94.7517 27.4969C94.7587 27.5336 94.7574 27.5712 94.7479 27.6073C94.7383 27.6434 94.7206 27.677 94.6962 27.7057C94.6718 27.7343 94.6412 27.7574 94.6066 27.7733C94.572 27.7891 94.5342 27.7973 94.496 27.7973C94.4578 27.7973 94.42 27.7891 94.3854 27.7733C94.3508 27.7574 94.3202 27.7343 94.2958 27.7057C94.2713 27.677 94.2537 27.6434 94.2441 27.6073C94.2346 27.5712 94.2333 27.5336 94.2403 27.4969C94.2515 27.4388 94.2832 27.3864 94.3299 27.3487C94.3766 27.3109 94.4353 27.2903 94.496 27.2903C94.5566 27.2903 94.6154 27.3109 94.6621 27.3487C94.7088 27.3864 94.7405 27.4388 94.7517 27.4969Z" fill="#FFCE00"/>
<path d="M95.4871 31.4045H95.8101V28.4322H95.4871V31.4045Z" fill="#0091BC"/>
<path d="M88.3015 37.3406H88.9653V37.1483H88.3015V37.3406Z" fill="#FFCE00"/>
<path d="M76.5676 37.3406H77.2314V37.1483H76.5676V37.3406Z" fill="#FFCE00"/>
<path d="M64.8427 37.3406H65.4976V37.1483H64.8427V37.3406Z" fill="#FFCE00"/>
<path d="M53.1003 37.3406H53.7642V37.1483H53.1003V37.3406Z" fill="#FFCE00"/>
<path d="M88.9477 36.8159H89.2886V24.271H88.9477V36.8159Z" fill="#FE6259"/>
<path d="M88.2294 36.8159H88.5703V24.271H88.2294V36.8159Z" fill="#FE6259"/>
<path d="M87.5121 36.8159H87.853V24.271H87.5121V36.8159Z" fill="#FE6259"/>
<path d="M86.7944 36.8159H87.1353V24.271H86.7944V36.8159Z" fill="#FE6259"/>
<path d="M86.0859 36.8159H86.4268V24.271H86.0859V36.8159Z" fill="#FE6259"/>
<path d="M85.3681 36.8159H85.709V24.271H85.3681V36.8159Z" fill="#FE6259"/>
<path d="M84.6415 36.8159H84.9824V24.271H84.6415V36.8159Z" fill="#FE6259"/>
<path d="M83.9238 36.8159H84.2646V24.271H83.9238V36.8159Z" fill="#FE6259"/>
<path d="M83.206 36.8159H83.5469V24.271H83.206V36.8159Z" fill="#FE6259"/>
<path d="M82.4887 36.8159H82.8296V24.271H82.4887V36.8159Z" fill="#FE6259"/>
<path d="M81.7797 36.8159H82.1206V24.271H81.7797V36.8159Z" fill="#FE6259"/>
<path d="M81.0624 36.8159H81.4033V24.271H81.0624V36.8159Z" fill="#FE6259"/>
<path d="M80.3442 36.8159H80.6851V24.271H80.3442V36.8159Z" fill="#FE6259"/>
<path d="M79.6264 36.8159H79.9673V24.271H79.6264V36.8159Z" fill="#FE6259"/>
<path d="M78.9091 36.8159H79.25V24.271H78.9091V36.8159Z" fill="#FE6259"/>
<path d="M78.1913 36.8159H78.5322V24.271H78.1913V36.8159Z" fill="#FE6259"/>
<path d="M77.4828 36.8159H77.8237V24.271H77.4828V36.8159Z" fill="#FE6259"/>
<path d="M76.7651 36.8159H77.106V24.271H76.7651V36.8159Z" fill="#FE6259"/>
<path d="M76.0473 36.8159H76.3882V24.271H76.0473V36.8159Z" fill="#FE6259"/>
<path d="M75.3207 36.8159H75.6616V24.271H75.3207V36.8159Z" fill="#FE6259"/>
<path d="M74.603 36.8159H74.9438V24.271H74.603V36.8159Z" fill="#FE6259"/>
<path d="M73.8857 36.8159H74.2266V24.271H73.8857V36.8159Z" fill="#FE6259"/>
<path d="M73.1679 36.8159H73.5088V24.271H73.1679V36.8159Z" fill="#FE6259"/>
<path d="M72.4589 36.8159H72.7998V24.271H72.4589V36.8159Z" fill="#FE6259"/>
<path d="M71.7411 36.8159H72.082V24.271H71.7411V36.8159Z" fill="#FE6259"/>
<path d="M71.0239 36.8159H71.3647V24.271H71.0239V36.8159Z" fill="#FE6259"/>
<path d="M70.3061 36.8159H70.647V24.271H70.3061V36.8159Z" fill="#FE6259"/>
<path d="M69.5883 36.8159H69.9292V24.271H69.5883V36.8159Z" fill="#FE6259"/>
<path d="M68.8705 36.8159H69.2114V24.271H68.8705V36.8159Z" fill="#FE6259"/>
<path d="M68.162 36.8159H68.5029V24.271H68.162V36.8159Z" fill="#FE6259"/>
<path d="M67.4443 36.8159H67.7852V24.271H67.4443V36.8159Z" fill="#FE6259"/>
<path d="M66.7177 36.8159H67.0586V24.271H66.7177V36.8159Z" fill="#FE6259"/>
<path d="M65.9999 36.8159H66.3408V24.271H65.9999V36.8159Z" fill="#FE6259"/>
<path d="M65.2826 36.8159H65.6235V24.271H65.2826V36.8159Z" fill="#FE6259"/>
<path d="M64.5649 36.8159H64.9058V24.271H64.5649V36.8159Z" fill="#FE6259"/>
<path d="M63.8559 36.8159H64.1968V24.271H63.8559V36.8159Z" fill="#FE6259"/>
<path d="M63.1386 36.8159H63.4795V24.271H63.1386V36.8159Z" fill="#FE6259"/>
<path d="M62.4208 36.8159H62.7617V24.271H62.4208V36.8159Z" fill="#FE6259"/>
<path d="M61.7031 36.8159H62.0439V24.271H61.7031V36.8159Z" fill="#FE6259"/>
<path d="M60.9853 36.8159H61.3262V24.271H60.9853V36.8159Z" fill="#FE6259"/>
<path d="M60.268 36.8159H60.6089V24.271H60.268V36.8159Z" fill="#FE6259"/>
<path d="M59.559 36.8159H59.8999V24.271H59.559V36.8159Z" fill="#FE6259"/>
<path d="M58.8417 36.8159H59.1826V24.271H58.8417V36.8159Z" fill="#FE6259"/>
<path d="M58.1147 36.8159H58.4556V24.271H58.1147V36.8159Z" fill="#FE6259"/>
<path d="M57.3974 36.8159H57.7383V24.271H57.3974V36.8159Z" fill="#FE6259"/>
<path d="M56.6796 36.8159H57.0205V24.271H56.6796V36.8159Z" fill="#FE6259"/>
<path d="M55.9618 36.8159H56.3027V24.271H55.9618V36.8159Z" fill="#FE6259"/>
<path d="M55.2533 36.8159H55.5942V24.271H55.2533V36.8159Z" fill="#FE6259"/>
<path d="M54.5351 36.8159H54.876V24.271H54.5351V36.8159Z" fill="#FE6259"/>
<path d="M53.8178 36.8159H54.1587V24.271H53.8178V36.8159Z" fill="#FE6259"/>
<path d="M53.1 36.8159H53.4409V24.271H53.1V36.8159Z" fill="#FE6259"/>
<path d="M52.3823 36.8159H52.7231V24.271H52.3823V36.8159Z" fill="#FE6259"/>
<path d="M51.665 36.8159H52.0059V24.271H51.665V36.8159Z" fill="#FE6259"/>
<path d="M50.956 36.8159H51.2969V24.271H50.956V36.8159Z" fill="#FE6259"/>
<path d="M50.2387 36.8159H50.5796V24.271H50.2387V36.8159Z" fill="#FE6259"/>
<path d="M49.5204 36.8159H49.8613V24.271H49.5204V36.8159Z" fill="#FE6259"/>
</g>
<g clip-path="url(#clip1_50:316)">
<path d="M18.0113 9.55005L6.19569 11.7849L4.73475 12.892C4.64014 12.9707 4.5642 13.0683 4.51213 13.1781C4.46006 13.288 4.43311 13.4074 4.43311 13.5283C4.43311 13.6492 4.46006 13.7687 4.51213 13.8785C4.5642 13.9884 4.64014 14.086 4.73475 14.1646C8.87232 16.5547 20.2613 19.1724 24.7828 19.1724H63.9832C66.1239 19.2907 68.239 18.6714 69.9549 17.4238C71.2239 16.3892 71.2559 15.6028 70.4241 14.6923C69.8833 14.1294 69.2443 13.6636 68.5366 13.3162C68.0568 11.102 66.02 9.55005 62.6928 9.55005H18.0113Z" fill="#EFEFEF"/>
<path d="M24.7829 19.1722H63.9833C66.1241 19.2905 68.2391 18.6712 69.955 17.4236C71.2134 16.389 71.256 15.6233 70.4456 14.7231H5.86523C10.6 16.927 20.6027 19.1722 24.7829 19.1722Z" fill="#C9C9C9"/>
<path d="M18.0111 9.55003L6.19556 11.7849L0.511719 0.000104772H2.8791C3.37261 -0.00439732 3.85594 0.136289 4.2654 0.403623L18.0111 9.55003Z" fill="#17A8CC"/>
<path d="M66.2866 12.3435V12.9229C66.2745 13.0148 66.3001 13.1075 66.358 13.1811C66.4159 13.2547 66.5014 13.3032 66.5959 13.3161H68.5474C68.441 12.8377 68.2536 12.3797 67.9929 11.9607H66.5959C66.5495 11.9658 66.5047 11.9798 66.464 12.0019C66.4233 12.024 66.3875 12.0537 66.3587 12.0893C66.3299 12.1249 66.3087 12.1658 66.2964 12.2094C66.284 12.253 66.2807 12.2986 66.2866 12.3435Z" fill="#3A3A3A"/>
<path d="M15.4093 12.4988L1.52493 10.533L0 10.6364V10.7709L16.1558 13.0368L15.4093 12.4988Z" fill="#025772"/>
<path d="M16.1558 13.0366L1.52493 10.6362L0 10.7707L6.12106 13.0366H16.1558Z" fill="#17A8CC"/>
<path d="M63.9832 13.9682H63.194C63.095 13.9682 63.0001 13.93 62.9301 13.8621C62.8601 13.7942 62.8208 13.7021 62.8208 13.606V11.8885C62.8208 11.7925 62.8601 11.7003 62.9301 11.6324C63.0001 11.5645 63.095 11.5264 63.194 11.5264H63.9832C64.0803 11.5291 64.1725 11.5684 64.2402 11.636C64.3079 11.7036 64.3458 11.7942 64.3457 11.8885V13.606C64.3458 13.7003 64.3079 13.7909 64.2402 13.8585C64.1725 13.9261 64.0803 13.9655 63.9832 13.9682ZM63.194 11.6195C63.1205 11.6195 63.05 11.6478 62.998 11.6983C62.946 11.7487 62.9168 11.8172 62.9168 11.8885V13.606C62.9168 13.6774 62.946 13.7458 62.998 13.7963C63.05 13.8467 63.1205 13.8751 63.194 13.8751H63.9832C64.0548 13.8724 64.1226 13.8429 64.1724 13.7927C64.2221 13.7425 64.2498 13.6756 64.2498 13.606V11.8885C64.2498 11.8189 64.2221 11.752 64.1724 11.7018C64.1226 11.6517 64.0548 11.6222 63.9832 11.6195H63.194Z" fill="#17A8CC"/>
<path d="M63.8126 12.4161V12.1884C63.8126 12.1884 63.8126 12.085 63.7379 12.085H63.3754C63.3509 12.0898 63.329 12.1028 63.3134 12.1217C63.2978 12.1406 63.2896 12.1642 63.2901 12.1884V12.4161C63.2896 12.4403 63.2978 12.4639 63.3134 12.4828C63.329 12.5017 63.3509 12.5147 63.3754 12.5195H63.7379L63.8126 12.4161Z" fill="#3A3A3A"/>
<path d="M47.5394 13.8128V13.5127L24.0362 11.0295H21.3916V11.7021L47.5394 13.8128Z" fill="#025772"/>
<path d="M47.5396 13.8129C46.6971 14.6095 45.7267 15.1579 43.274 15.1579H29.8589L21.4131 11.7021H25.3374L47.5396 13.8129Z" fill="#17A8CC"/>
<path d="M37.1638 18.7172L35.4043 18.4999V16.7306L37.1638 16.4927V18.7172Z" fill="#3A3A3A"/>
<path d="M39.8827 19.4414C38.7108 19.3315 37.5488 19.1378 36.4062 18.8619V16.3891C37.5476 16.0989 38.7096 15.8914 39.8827 15.7683V19.4414Z" fill="#B6B7B3"/>
<path d="M46.4729 19.9381C43.7916 20.1059 41.0991 19.932 38.4644 19.4208V15.8201C41.0982 15.3022 43.792 15.1317 46.4729 15.3132V19.9381Z" fill="#EFEFEF"/>
<path d="M46.4731 15.52C46.6032 15.52 46.728 15.5702 46.82 15.6594C46.912 15.7487 46.9637 15.8697 46.9637 15.996V19.1724C46.9637 19.2986 46.912 19.4197 46.82 19.5089C46.728 19.5982 46.6032 19.6483 46.4731 19.6483V15.52Z" fill="#B6B7B3"/>
<path d="M69.9657 17.4238C71.2347 16.3891 71.2667 15.6028 70.4349 14.6923C69.8941 14.1294 69.2551 13.6635 68.5474 13.3162V18.3032C69.0555 18.0675 69.5318 17.7722 69.9657 17.4238Z" fill="#025772"/>
</g>
<defs>
<clipPath id="clip0_50:316">
<rect width="55" height="18" fill="white" transform="translate(47 24)"/>
</clipPath>
<clipPath id="clip1_50:316">
<rect width="71" height="20" fill="white"/>
</clipPath>
</defs>
</svg>
