<svg width="120" height="35" viewBox="0 0 120 35" fill="none" xmlns="http://www.w3.org/2000/svg">
<path d="M30.4417 16.3713L10.4717 20.2025L8.00249 22.1004C7.84259 22.2353 7.71424 22.4026 7.62624 22.5909C7.53824 22.7792 7.49268 22.984 7.49268 23.1912C7.49268 23.3985 7.53824 23.6033 7.62624 23.7916C7.71424 23.9799 7.84259 24.1472 8.00249 24.2821C14.9956 28.3793 34.2446 32.8668 41.8865 32.8668H108.141C111.759 33.0696 115.334 32.0079 118.234 29.8692C120.379 28.0955 120.433 26.7475 119.027 25.1867C118.113 24.2217 117.033 23.4231 115.837 22.8276C115.026 19.0319 111.583 16.3713 105.96 16.3713H30.4417Z" fill="#EFEFEF"/>
<path d="M41.8866 32.8669H108.141C111.759 33.0697 115.334 32.008 118.234 29.8694C120.361 28.0957 120.433 26.7831 119.063 25.24H9.91309C17.9155 29.018 34.8215 32.8669 41.8866 32.8669Z" fill="#C9C9C9"/>
<path d="M30.4417 16.3715L10.4717 20.2027L0.865234 0.000179609H4.86644C5.70054 -0.00753826 6.51744 0.233638 7.20948 0.691924L30.4417 16.3715Z" fill="#17A8CC"/>
<path d="M112.034 21.1604V22.1537C112.013 22.3111 112.057 22.4702 112.154 22.5963C112.252 22.7225 112.397 22.8056 112.556 22.8277H115.855C115.675 22.0075 115.358 21.2224 114.918 20.5042H112.556C112.478 20.5129 112.402 20.5369 112.334 20.5748C112.265 20.6126 112.204 20.6636 112.156 20.7246C112.107 20.7857 112.071 20.8557 112.05 20.9305C112.029 21.0053 112.024 21.0835 112.034 21.1604Z" fill="#3A3A3A"/>
<path d="M26.0439 21.4267L2.57735 18.0566L0 18.234V18.4646L27.3055 22.349L26.0439 21.4267Z" fill="#025772"/>
<path d="M27.3055 22.3489L2.57735 18.2339L0 18.4645L10.3454 22.3489H27.3055Z" fill="#17A8CC"/>
<path d="M108.141 23.9452H106.807C106.64 23.9452 106.479 23.8798 106.361 23.7634C106.243 23.647 106.176 23.4891 106.176 23.3244V20.3801C106.176 20.2154 106.243 20.0575 106.361 19.9411C106.479 19.8247 106.64 19.7593 106.807 19.7593H108.141C108.305 19.7639 108.461 19.8313 108.575 19.9473C108.69 20.0632 108.754 20.2185 108.754 20.3801V23.3244C108.754 23.486 108.69 23.6413 108.575 23.7572C108.461 23.8732 108.305 23.9406 108.141 23.9452ZM106.807 19.9189C106.683 19.9189 106.564 19.9675 106.476 20.054C106.388 20.1405 106.338 20.2578 106.338 20.3801V23.3244C106.338 23.4467 106.388 23.564 106.476 23.6505C106.564 23.737 106.683 23.7856 106.807 23.7856H108.141C108.262 23.781 108.377 23.7304 108.461 23.6444C108.545 23.5584 108.592 23.4437 108.591 23.3244V20.3801C108.592 20.2608 108.545 20.1461 108.461 20.0601C108.377 19.9741 108.262 19.9235 108.141 19.9189H106.807Z" fill="#17A8CC"/>
<path d="M107.852 21.2846V20.8944C107.852 20.8944 107.852 20.717 107.726 20.717H107.113C107.072 20.7253 107.035 20.7476 107.009 20.78C106.982 20.8124 106.968 20.8529 106.969 20.8944V21.2846C106.968 21.3261 106.982 21.3666 107.009 21.399C107.035 21.4314 107.072 21.4537 107.113 21.462H107.726L107.852 21.2846Z" fill="#3A3A3A"/>
<path d="M80.3487 23.6792V23.1649L40.6251 18.908H36.1553V20.0609L80.3487 23.6792Z" fill="#025772"/>
<path d="M80.3483 23.6791C78.9245 25.0449 77.2843 25.985 73.139 25.985H50.4655L36.1909 20.0608H42.8235L80.3483 23.6791Z" fill="#17A8CC"/>
<path d="M62.8118 32.0867L59.8379 31.7142V28.6811L62.8118 28.2732V32.0867Z" fill="#3A3A3A"/>
<path d="M67.4079 33.3279C65.4272 33.1395 63.4633 32.8075 61.5322 32.3346V28.0955C63.4613 27.598 65.4252 27.2423 67.4079 27.0312V33.3279Z" fill="#B6B7B3"/>
<path d="M78.5458 34.1795C74.014 34.4672 69.4633 34.1691 65.0103 33.2926V27.1201C69.4618 26.2323 74.0148 25.94 78.5458 26.251V34.1795Z" fill="#EFEFEF"/>
<path d="M78.5464 26.6057C78.7663 26.6057 78.9772 26.6917 79.1326 26.8447C79.2881 26.9977 79.3755 27.2052 79.3755 27.4216V32.8669C79.3755 33.0833 79.2881 33.2908 79.1326 33.4438C78.9772 33.5968 78.7663 33.6828 78.5464 33.6828V26.6057Z" fill="#B6B7B3"/>
<path d="M118.252 29.8695C120.396 28.0958 120.45 26.7478 119.045 25.1869C118.131 24.222 117.051 23.4234 115.854 22.8279V31.3771C116.713 30.9731 117.518 30.4667 118.252 29.8695Z" fill="#025772"/>
</svg>
