<svg width="57" height="50" viewBox="0 0 57 50" fill="none" xmlns="http://www.w3.org/2000/svg">
<path d="M12.7527 36.8428C12.7527 36.8428 3.22227 33.2679 1.18171 42.5413L3.19562 42.1401C3.19562 42.1401 0.836912 44.853 0 49.9952C5.11707 48.9984 7.75632 46.5551 7.75632 46.5551L7.4178 48.5847C16.6238 46.2573 12.7527 36.8428 12.7527 36.8428Z" fill="url(#paint0_linear_32:956)"/>
<path d="M12.7528 36.8429C12.7528 36.8429 6.80825 34.6127 5.53564 40.3974L6.78944 40.1467C6.78944 40.1467 5.31623 41.8393 4.7959 45.049C7.98682 44.4221 9.63243 42.905 9.63243 42.905L9.42242 44.1682C15.168 42.7154 12.7528 36.8429 12.7528 36.8429Z" fill="url(#paint1_linear_32:956)"/>
<path d="M19.4904 36.3695L12.9863 29.9344L14.7777 28.1321L21.2818 34.5672L19.4904 36.3695Z" fill="url(#paint2_linear_32:956)"/>
<path d="M17.9217 19.5906C17.9217 19.5906 11.8815 19.144 9.40366 21.6375C6.72836 24.3269 4.51384 27.6181 2.7256 32.3214C1.77115 34.829 4.29285 32.2368 5.96354 30.7087C8.8896 28.0334 10.333 28.0883 13.118 28.7262C13.118 28.7262 14.621 25.6512 17.9217 19.5906Z" fill="url(#paint3_linear_32:956)"/>
<g style="mix-blend-mode:soft-light" opacity="0.33">
<path d="M17.9215 19.5906C17.9215 19.5906 11.8814 19.144 9.40354 21.6375C6.72824 24.3269 4.51372 27.6181 2.72548 32.3214C2.54682 32.7916 2.49039 33.0831 2.52644 33.2351C2.52644 33.2351 5.0983 27.2796 7.91465 24.3614C10.731 21.4431 12.6164 20.3555 17.9215 19.5906Z" fill="white"/>
</g>
<path d="M29.8515 31.3936C29.8515 31.3936 30.3498 37.4165 27.872 39.91C25.1999 42.601 21.9165 44.839 17.2147 46.6617C14.7071 47.635 17.2852 45.0945 18.8023 43.4191C21.4667 40.4758 21.393 39.0308 20.7301 36.263C20.7363 36.263 23.805 34.7381 29.8515 31.3936Z" fill="url(#paint4_linear_32:956)"/>
<path d="M48.8734 8.66834C49.8765 2.15955 48.5976 0.628348 48.5976 0.628348C48.5976 0.628348 47.0523 -0.62702 40.5372 0.421471C33.6554 1.53735 29.2875 5.76736 26.3128 8.70909C22.4652 12.5144 16.1257 21.2722 13.1182 28.726L16.947 32.4749L20.7366 36.2629C28.181 33.2068 36.9043 26.8014 40.6861 22.9303C43.609 19.9369 47.8124 15.5439 48.8734 8.66834Z" fill="url(#paint5_linear_32:956)"/>
<path d="M14.0894 29.6774L16.9465 32.475L20.7361 36.263C28.1805 33.2069 36.9038 26.8015 40.6856 22.9304C43.6085 19.9369 47.8119 15.5439 48.8729 8.66841C49.876 2.15962 48.5971 0.628418 48.5971 0.628418" fill="url(#paint6_linear_32:956)"/>
<g style="mix-blend-mode:soft-light" opacity="0.09">
<path d="M13.6602 29.2559L20.1784 35.7067" stroke="black" stroke-width="1.89" stroke-miterlimit="10"/>
</g>
<path d="M13.1182 28.726L16.947 32.4749L20.7366 36.2629C22.3138 35.6054 23.8555 34.8657 25.3553 34.0468L15.3013 24.0979C14.4924 25.6009 13.7636 27.1458 13.1182 28.726Z" fill="url(#paint7_linear_32:956)"/>
<path style="mix-blend-mode:soft-light" d="M23.3285 26.4646L20.7362 36.263L19.9965 35.7772L19.4903 36.3696L16.9639 33.8714L23.3285 26.4646Z" fill="url(#paint8_linear_32:956)"/>
<g style="mix-blend-mode:soft-light">
<path d="M34.8823 2.2019L47.1367 14.3262" stroke="black" stroke-width="1.89" stroke-miterlimit="10"/>
</g>
<path d="M48.5973 0.626865C48.5973 0.626865 47.052 -0.626936 40.537 0.421555C38.5759 0.738635 36.6713 1.33834 34.8823 2.20195L47.1367 14.3262C47.9852 12.5338 48.5701 10.6282 48.8732 8.66843C49.8762 2.15964 48.5973 0.626865 48.5973 0.626865Z" fill="url(#paint9_linear_32:956)"/>
<path d="M33.0575 1.85627L32.4346 2.49219L47.1871 16.944L47.8101 16.3081L33.0575 1.85627Z" fill="url(#paint10_linear_32:956)"/>
<path d="M31.9453 3.24258L31.5308 3.66577L46.2833 18.1176L46.6978 17.6944L31.9453 3.24258Z" fill="url(#paint11_linear_32:956)"/>
<g style="mix-blend-mode:soft-light" opacity="0.09">
<path d="M15.2993 24.0979L25.3548 34.0468" stroke="black" stroke-width="1.89" stroke-miterlimit="10"/>
</g>
<path d="M23.2768 26.1057C23.2768 26.1057 22.7157 25.2359 17.2899 30.6962C11.864 36.1565 7.23752 41.3848 7.66851 41.8111C8.0995 42.2374 13.3012 37.5796 18.727 32.1177C24.1528 26.6558 23.2768 26.1057 23.2768 26.1057Z" fill="url(#paint12_linear_32:956)"/>
<g style="mix-blend-mode:soft-light" opacity="0.33">
<path d="M23.2768 26.1057C23.2768 26.1057 22.7157 25.2359 17.2899 30.6962C11.864 36.1565 7.23752 41.3848 7.66851 41.8111C7.66851 41.8111 9.18561 39.6311 13.2573 35.2945C17.329 30.9579 21.9979 26.2186 23.2768 26.1057Z" fill="white"/>
</g>
<path style="mix-blend-mode:soft-light" d="M38.0141 19.0116C38.515 15.3165 35.9256 11.915 32.2305 11.4141C28.5355 10.9132 25.134 13.5026 24.633 17.1977C24.1321 20.8927 26.7215 24.2942 30.4166 24.7952C34.1117 25.2961 37.5132 22.7067 38.0141 19.0116Z" fill="url(#paint13_linear_32:956)"/>
<path d="M31.2891 24.6179C34.9972 24.6069 37.9942 21.592 37.9832 17.8839C37.9722 14.1759 34.9573 11.1788 31.2492 11.1898C27.5411 11.2008 24.5441 14.2157 24.5551 17.9238C24.5661 21.6319 27.581 24.6289 31.2891 24.6179Z" fill="#D4D4D4"/>
<path d="M31.3735 24.6183C35.0365 24.6068 37.9967 21.628 37.9852 17.9649C37.9737 14.3019 34.9949 11.3417 31.3318 11.3532C27.6687 11.3647 24.7085 14.3435 24.7201 18.0066C24.7316 21.6697 27.7104 24.6298 31.3735 24.6183Z" fill="url(#paint14_linear_32:956)"/>
<path d="M31.2668 23.0817C34.1292 23.0647 36.4358 20.7305 36.4188 17.8681C36.4019 15.0057 34.0677 12.6991 31.2053 12.7161C28.3429 12.7331 26.0362 15.0672 26.0532 17.9296C26.0702 20.792 28.4044 23.0987 31.2668 23.0817Z" fill="#76C9F0"/>
<path d="M31.2968 22.9748C34.0432 22.9614 36.2588 20.7241 36.2453 17.9777C36.2319 15.2313 33.9946 13.0157 31.2482 13.0292C28.5018 13.0426 26.2863 15.2799 26.2997 18.0263C26.3131 20.7727 28.5504 22.9882 31.2968 22.9748Z" fill="url(#paint15_linear_32:956)"/>
<path d="M35.8543 14.0687L24.8325 18.9368L25.6228 20.7259L36.6446 15.8579L35.8543 14.0687Z" fill="url(#paint16_linear_32:956)"/>
<path d="M36.953 16.8355L25.9312 21.7036L26.3288 22.6039L37.3506 17.7358L36.953 16.8355Z" fill="url(#paint17_linear_32:956)"/>
<path d="M27.0378 14.1662C27.0494 14.1113 27.0444 14.0542 27.0234 14.0021C27.0025 13.95 26.9666 13.9053 26.9202 13.8736C26.8739 13.842 26.8192 13.8248 26.7631 13.8242C26.7069 13.8237 26.6519 13.8398 26.6049 13.8705C26.558 13.9012 26.5212 13.9452 26.4992 13.9969C26.4772 14.0485 26.4711 14.1055 26.4815 14.1607C26.492 14.2158 26.5185 14.2666 26.5579 14.3067C26.5972 14.3467 26.6475 14.3742 26.7025 14.3856C26.776 14.4009 26.8527 14.3864 26.9155 14.3453C26.9784 14.3041 27.0224 14.2397 27.0378 14.1662Z" fill="#A3A3A3"/>
<path d="M26.054 15.7163C26.0655 15.6613 26.0605 15.6042 26.0395 15.5521C26.0186 15.5 25.9827 15.4554 25.9363 15.4237C25.89 15.392 25.8353 15.3748 25.7792 15.3743C25.723 15.3737 25.668 15.3898 25.621 15.4206C25.5741 15.4513 25.5373 15.4953 25.5153 15.5469C25.4933 15.5986 25.4872 15.6556 25.4976 15.7107C25.5081 15.7659 25.5346 15.8167 25.574 15.8567C25.6133 15.8968 25.6636 15.9242 25.7186 15.9357C25.7921 15.9505 25.8685 15.9359 25.9313 15.8948C25.9941 15.8537 26.0381 15.7896 26.054 15.7163Z" fill="#A3A3A3"/>
<path d="M28.1543 13.0957C28.1646 13.0408 28.1584 12.984 28.1366 12.9325C28.1147 12.8811 28.0781 12.8372 28.0314 12.8065C27.9847 12.7757 27.9299 12.7595 27.874 12.7598C27.8181 12.7601 27.7635 12.7769 27.7171 12.8081C27.6707 12.8393 27.6346 12.8835 27.6132 12.9352C27.5919 12.9869 27.5863 13.0438 27.5972 13.0986C27.6081 13.1535 27.6349 13.2039 27.6744 13.2435C27.7138 13.2832 27.7641 13.3103 27.8189 13.3214C27.8558 13.3289 27.8937 13.329 27.9306 13.3217C27.9675 13.3144 28.0026 13.2998 28.0338 13.2788C28.065 13.2578 28.0918 13.2308 28.1124 13.1994C28.1331 13.1679 28.1473 13.1327 28.1543 13.0957Z" fill="#A3A3A3"/>
<path d="M25.7999 19.0765C25.7641 19.0333 25.7163 19.0017 25.6626 18.9857C25.6088 18.9697 25.5515 18.9699 25.4979 18.9865C25.4443 19.003 25.3968 19.0351 25.3614 19.0786C25.326 19.1221 25.3044 19.1751 25.2991 19.231C25.2938 19.2868 25.3053 19.343 25.3319 19.3923C25.3586 19.4417 25.3992 19.482 25.4488 19.5083C25.4984 19.5345 25.5546 19.5455 25.6104 19.5397C25.6662 19.534 25.7191 19.5119 25.7623 19.4762C25.82 19.4279 25.8563 19.3589 25.8633 19.2841C25.8704 19.2092 25.8476 19.1346 25.7999 19.0765Z" fill="#A3A3A3"/>
<path d="M26.405 20.8115C26.3692 20.7682 26.3213 20.7366 26.2675 20.7205C26.2136 20.7045 26.1562 20.7048 26.1025 20.7215C26.0488 20.7381 26.0013 20.7703 25.966 20.814C25.9306 20.8577 25.9091 20.9109 25.904 20.9668C25.8989 21.0228 25.9106 21.079 25.9375 21.1283C25.9644 21.1777 26.0054 21.2179 26.0552 21.2439C26.105 21.2699 26.1614 21.2805 26.2173 21.2744C26.2732 21.2683 26.326 21.2458 26.369 21.2096C26.3975 21.1859 26.4211 21.1567 26.4384 21.1239C26.4557 21.091 26.4663 21.055 26.4697 21.0181C26.473 20.9811 26.469 20.9438 26.4579 20.9083C26.4468 20.8729 26.4289 20.84 26.405 20.8115Z" fill="#A3A3A3"/>
<path d="M25.684 17.2618C25.6481 17.2187 25.6002 17.1873 25.5464 17.1714C25.4925 17.1556 25.4352 17.1561 25.3817 17.1728C25.3281 17.1896 25.2808 17.2218 25.2455 17.2654C25.2103 17.3091 25.1888 17.3622 25.1838 17.4181C25.1787 17.474 25.1904 17.5301 25.2172 17.5793C25.2441 17.6286 25.2849 17.6688 25.3346 17.6948C25.3843 17.7209 25.4406 17.7316 25.4964 17.7257C25.5521 17.7197 25.6049 17.6974 25.648 17.6614C25.6766 17.6376 25.7002 17.6083 25.7175 17.5753C25.7348 17.5423 25.7455 17.5062 25.7488 17.4691C25.7522 17.432 25.7482 17.3945 25.7371 17.359C25.7259 17.3234 25.7079 17.2904 25.684 17.2618Z" fill="#A3A3A3"/>
<path d="M28.7731 23.1092C28.717 23.1111 28.6627 23.1296 28.6171 23.1624C28.5715 23.1952 28.5366 23.2407 28.517 23.2933C28.4973 23.3459 28.4937 23.4032 28.5066 23.4579C28.5195 23.5125 28.5483 23.5621 28.5895 23.6004C28.6306 23.6386 28.6821 23.6638 28.7375 23.6727C28.793 23.6817 28.8498 23.674 28.9009 23.6506C28.9519 23.6272 28.9949 23.5891 29.0243 23.5413C29.0537 23.4935 29.0683 23.438 29.0661 23.3819C29.0651 23.3446 29.0567 23.3079 29.0414 23.274C29.0261 23.24 29.0041 23.2094 28.9768 23.184C28.9495 23.1587 28.9175 23.139 28.8825 23.1261C28.8475 23.1132 28.8103 23.1075 28.7731 23.1092Z" fill="#A3A3A3"/>
<path d="M30.5129 23.6969C30.4568 23.6988 30.4026 23.7173 30.357 23.75C30.3115 23.7827 30.2766 23.8282 30.2569 23.8807C30.2372 23.9332 30.2334 23.9904 30.2462 24.045C30.259 24.0996 30.2877 24.1492 30.3286 24.1876C30.3696 24.2259 30.421 24.2512 30.4763 24.2603C30.5317 24.2695 30.5885 24.262 30.6395 24.2388C30.6906 24.2157 30.7337 24.1779 30.7633 24.1303C30.793 24.0826 30.8078 24.0273 30.806 23.9712C30.8047 23.9339 30.7962 23.8973 30.7808 23.8633C30.7654 23.8294 30.7435 23.7988 30.7163 23.7733C30.6891 23.7479 30.6571 23.728 30.6222 23.7149C30.5873 23.7018 30.5501 23.6957 30.5129 23.6969Z" fill="#A3A3A3"/>
<path d="M27.2703 22.0823C27.2142 22.0839 27.1598 22.1021 27.114 22.1347C27.0682 22.1672 27.0331 22.2126 27.0132 22.2651C26.9932 22.3176 26.9893 22.3748 27.0019 22.4295C27.0145 22.4843 27.043 22.534 27.0839 22.5725C27.1248 22.611 27.1762 22.6365 27.2316 22.6457C27.287 22.655 27.3439 22.6476 27.3951 22.6244C27.4463 22.6013 27.4894 22.5635 27.5191 22.5158C27.5488 22.4682 27.5637 22.4127 27.5618 22.3566C27.559 22.2818 27.5268 22.2111 27.4722 22.1598C27.4177 22.1085 27.3452 22.0806 27.2703 22.0823Z" fill="#A3A3A3"/>
<path d="M33.8183 23.2078C33.7801 23.2683 33.7661 23.341 33.7792 23.4114C33.7924 23.4818 33.8316 23.5446 33.8891 23.5873C33.9467 23.6299 34.0182 23.6492 34.0893 23.6413C34.1605 23.6334 34.226 23.5989 34.2728 23.5447C34.3175 23.4842 34.3363 23.4085 34.3251 23.3342C34.3139 23.2598 34.2737 23.1929 34.2133 23.1482C34.1835 23.126 34.1496 23.1098 34.1136 23.1008C34.0776 23.0917 34.0401 23.0899 34.0033 23.0954C33.9666 23.101 33.9313 23.1137 33.8996 23.133C33.8678 23.1523 33.8402 23.1777 33.8183 23.2078Z" fill="#A3A3A3"/>
<path d="M35.2631 22.2218C35.2298 22.2669 35.2105 22.3209 35.2078 22.377C35.2052 22.433 35.2192 22.4886 35.2481 22.5367C35.277 22.5848 35.3196 22.6232 35.3703 22.6471C35.4211 22.6711 35.4778 22.6794 35.5333 22.671C35.5888 22.6627 35.6406 22.6381 35.6821 22.6003C35.7236 22.5625 35.753 22.5133 35.7665 22.4589C35.78 22.4044 35.7771 22.3471 35.7581 22.2943C35.739 22.2416 35.7048 22.1956 35.6596 22.1623C35.6298 22.14 35.5958 22.1238 35.5596 22.1147C35.5234 22.1056 35.4858 22.1038 35.449 22.1093C35.4121 22.1149 35.3767 22.1277 35.3448 22.147C35.3129 22.1663 35.2851 22.1917 35.2631 22.2218Z" fill="#A3A3A3"/>
<path d="M32.1018 23.6889C32.0682 23.7339 32.0487 23.7878 32.0458 23.8439C32.0429 23.8999 32.0567 23.9556 32.0854 24.0038C32.1141 24.052 32.1565 24.0907 32.2072 24.1148C32.2579 24.1389 32.3146 24.1474 32.3701 24.1393C32.4257 24.1312 32.4776 24.1068 32.5192 24.0691C32.5609 24.0315 32.5904 23.9824 32.6041 23.928C32.6179 23.8735 32.6151 23.8163 32.5963 23.7634C32.5774 23.7105 32.5433 23.6644 32.4983 23.6309C32.438 23.5861 32.3624 23.5671 32.288 23.5779C32.2137 23.5888 32.1467 23.6287 32.1018 23.6889Z" fill="#A3A3A3"/>
<path d="M36.7773 19.3883C36.7908 19.4427 36.8201 19.492 36.8615 19.5299C36.903 19.5677 36.9548 19.5924 37.0103 19.6008C37.0658 19.6092 37.1225 19.6009 37.1733 19.5771C37.2241 19.5532 37.2667 19.5148 37.2957 19.4667C37.3246 19.4187 37.3387 19.3631 37.3361 19.307C37.3334 19.2509 37.3142 19.1969 37.2809 19.1518C37.2475 19.1066 37.2016 19.0724 37.1487 19.0534C37.0959 19.0344 37.0386 19.0315 36.9842 19.045C36.9113 19.0632 36.8485 19.1095 36.8098 19.1739C36.771 19.2382 36.7593 19.3153 36.7773 19.3883Z" fill="#A3A3A3"/>
<path d="M36.9681 17.7099C36.9817 17.7638 37.011 17.8126 37.0523 17.8499C37.0936 17.8873 37.145 17.9116 37.2001 17.9198C37.2552 17.928 37.3115 17.9197 37.3619 17.8959C37.4122 17.8722 37.4544 17.8341 37.4832 17.7864C37.5119 17.7387 37.5259 17.6836 37.5234 17.6279C37.5209 17.5723 37.5019 17.5187 37.469 17.4738C37.436 17.4289 37.3905 17.3948 37.3382 17.3757C37.2858 17.3566 37.2291 17.3535 37.1749 17.3666C37.1387 17.3754 37.1046 17.3913 37.0746 17.4134C37.0446 17.4354 37.0192 17.4632 37 17.4951C36.9807 17.527 36.968 17.5624 36.9625 17.5993C36.9571 17.6362 36.9589 17.6737 36.9681 17.7099Z" fill="#A3A3A3"/>
<path d="M36.2036 21.0701C36.217 21.1246 36.2463 21.1739 36.2878 21.2117C36.3293 21.2496 36.381 21.2743 36.4365 21.2827C36.492 21.2911 36.5488 21.2828 36.5996 21.2589C36.6504 21.2351 36.693 21.1967 36.7219 21.1486C36.7509 21.1005 36.765 21.045 36.7624 20.9889C36.7597 20.9328 36.7405 20.8788 36.7072 20.8336C36.6738 20.7885 36.6278 20.7542 36.575 20.7353C36.5222 20.7163 36.4649 20.7133 36.4105 20.7269C36.3375 20.7451 36.2748 20.7914 36.236 20.8557C36.1972 20.9201 36.1856 20.9972 36.2036 21.0701Z" fill="#A3A3A3"/>
<path d="M35.9917 14.6051C36.0605 14.6353 36.1385 14.6371 36.2086 14.6101C36.2787 14.5831 36.3354 14.5295 36.3662 14.4609C36.389 14.4097 36.396 14.3528 36.3864 14.2975C36.3769 14.2423 36.3511 14.1911 36.3125 14.1504C36.2738 14.1098 36.224 14.0815 36.1692 14.0692C36.1145 14.0569 36.0574 14.061 36.005 14.0812C35.9527 14.1013 35.9075 14.1366 35.8751 14.1824C35.8428 14.2282 35.8248 14.2826 35.8233 14.3387C35.8219 14.3948 35.8371 14.45 35.8671 14.4974C35.8971 14.5449 35.9404 14.5823 35.9917 14.6051Z" fill="#A3A3A3"/>
<path d="M34.7069 13.3217C34.7581 13.3447 34.815 13.352 34.8703 13.3427C34.9257 13.3334 34.977 13.3079 35.0178 13.2694C35.0587 13.2308 35.0872 13.1811 35.0997 13.1264C35.1123 13.0717 35.1083 13.0145 35.0883 12.962C35.0684 12.9096 35.0333 12.8642 34.9875 12.8317C34.9418 12.7992 34.8874 12.781 34.8313 12.7794C34.7752 12.7778 34.7199 12.7929 34.6723 12.8228C34.6248 12.8526 34.5872 12.8959 34.5643 12.9471C34.5336 13.0157 34.5314 13.0937 34.5581 13.1639C34.5849 13.2341 34.6384 13.2909 34.7069 13.3217Z" fill="#A3A3A3"/>
<path d="M36.7445 16.1833C36.7957 16.2063 36.8526 16.2136 36.9079 16.2043C36.9633 16.195 37.0146 16.1694 37.0554 16.1309C37.0963 16.0924 37.1248 16.0427 37.1373 15.988C37.1499 15.9333 37.1459 15.8761 37.1259 15.8236C37.106 15.7711 37.0709 15.7258 37.0251 15.6933C36.9794 15.6608 36.925 15.6426 36.8689 15.641C36.8128 15.6394 36.7575 15.6545 36.7099 15.6843C36.6624 15.7142 36.6248 15.7575 36.6019 15.8087C36.5712 15.8773 36.569 15.9553 36.5957 16.0255C36.6225 16.0957 36.676 16.1525 36.7445 16.1833Z" fill="#A3A3A3"/>
<path d="M31.5307 12.0993C31.5719 11.9481 31.4828 11.7922 31.3317 11.751C31.1805 11.7097 31.0246 11.7988 30.9834 11.95C30.9421 12.1011 31.0312 12.2571 31.1824 12.2983C31.3335 12.3395 31.4895 12.2504 31.5307 12.0993Z" fill="#A3A3A3"/>
<path d="M29.6319 12.5819C29.6817 12.5559 29.7226 12.5157 29.7495 12.4664C29.7764 12.4171 29.788 12.361 29.783 12.3051C29.7779 12.2491 29.7564 12.196 29.7211 12.1523C29.6859 12.1086 29.6384 12.0764 29.5848 12.0597C29.5312 12.043 29.4739 12.0426 29.42 12.0585C29.3662 12.0744 29.3183 12.106 29.2824 12.1491C29.2465 12.1923 29.2242 12.2451 29.2183 12.301C29.2125 12.3568 29.2233 12.4131 29.2495 12.4628C29.2845 12.5292 29.3444 12.5791 29.4161 12.6014C29.4878 12.6237 29.5654 12.6167 29.6319 12.5819Z" fill="#A3A3A3"/>
<path d="M33.3488 12.3972C33.4116 12.2537 33.3462 12.0864 33.2026 12.0236C33.0591 11.9608 32.8918 12.0263 32.829 12.1698C32.7662 12.3133 32.8317 12.4806 32.9752 12.5434C33.1188 12.6062 33.286 12.5407 33.3488 12.3972Z" fill="#A3A3A3"/>
<path d="M26.9788 14.1052C26.9903 14.0502 26.9853 13.9931 26.9644 13.941C26.9434 13.889 26.9075 13.8443 26.8612 13.8126C26.8148 13.781 26.7601 13.7638 26.704 13.7632C26.6479 13.7626 26.5928 13.7787 26.5459 13.8095C26.4989 13.8402 26.4621 13.8842 26.4401 13.9358C26.4181 13.9875 26.412 14.0445 26.4224 14.0996C26.4329 14.1548 26.4594 14.2056 26.4988 14.2456C26.5381 14.2857 26.5884 14.3132 26.6434 14.3246C26.7169 14.3399 26.7936 14.3254 26.8565 14.2842C26.9193 14.2431 26.9633 14.1787 26.9788 14.1052Z" fill="#D4D4D4"/>
<path d="M25.9944 15.6567C26.0059 15.6018 26.0009 15.5446 25.98 15.4926C25.959 15.4405 25.9231 15.3958 25.8768 15.3641C25.8304 15.3325 25.7757 15.3153 25.7196 15.3147C25.6635 15.3142 25.6084 15.3303 25.5615 15.361C25.5145 15.3917 25.4777 15.4357 25.4557 15.4873C25.4338 15.539 25.4276 15.596 25.4381 15.6511C25.4485 15.7063 25.4751 15.7571 25.5144 15.7971C25.5537 15.8372 25.604 15.8647 25.659 15.8761C25.7325 15.891 25.809 15.8763 25.8717 15.8352C25.9345 15.7942 25.9786 15.73 25.9944 15.6567Z" fill="#D4D4D4"/>
<path d="M28.0947 13.0364C28.1065 12.9814 28.1018 12.9242 28.0811 12.872C28.0604 12.8198 28.0246 12.7749 27.9784 12.743C27.9321 12.7111 27.8774 12.6937 27.8213 12.6929C27.7651 12.6921 27.71 12.708 27.6628 12.7386C27.6157 12.7693 27.5788 12.8132 27.5566 12.8648C27.5345 12.9164 27.5282 12.9735 27.5385 13.0287C27.5489 13.0839 27.5753 13.1348 27.6146 13.175C27.6539 13.2151 27.7043 13.2427 27.7593 13.2542C27.8326 13.2695 27.909 13.2553 27.9719 13.2144C28.0347 13.1736 28.0789 13.1096 28.0947 13.0364Z" fill="#D4D4D4"/>
<path d="M25.7408 19.0169C25.705 18.9738 25.6572 18.9422 25.6035 18.9261C25.5497 18.9101 25.4924 18.9104 25.4388 18.9269C25.3852 18.9434 25.3377 18.9755 25.3024 19.019C25.267 19.0625 25.2453 19.1156 25.24 19.1714C25.2348 19.2272 25.2462 19.2834 25.2728 19.3327C25.2995 19.3821 25.3402 19.4225 25.3897 19.4487C25.4393 19.4749 25.4955 19.4859 25.5513 19.4802C25.6071 19.4745 25.66 19.4523 25.7032 19.4166C25.7609 19.3684 25.7972 19.2993 25.8042 19.2245C25.8113 19.1497 25.7885 19.0751 25.7408 19.0169Z" fill="#D4D4D4"/>
<path d="M26.3455 20.752C26.3096 20.7087 26.2617 20.677 26.2079 20.661C26.154 20.6449 26.0966 20.6453 26.0429 20.6619C25.9893 20.6785 25.9418 20.7107 25.9064 20.7544C25.8711 20.7981 25.8495 20.8513 25.8444 20.9073C25.8394 20.9632 25.851 21.0194 25.8779 21.0688C25.9049 21.1181 25.9458 21.1583 25.9956 21.1843C26.0455 21.2103 26.1019 21.2209 26.1577 21.2148C26.2136 21.2087 26.2664 21.1862 26.3094 21.15C26.338 21.1263 26.3616 21.0972 26.3788 21.0643C26.3961 21.0314 26.4067 20.9955 26.4101 20.9585C26.4134 20.9215 26.4095 20.8842 26.3984 20.8488C26.3873 20.8133 26.3693 20.7804 26.3455 20.752Z" fill="#D4D4D4"/>
<path d="M25.6245 17.2022C25.5885 17.1591 25.5406 17.1277 25.4868 17.1119C25.433 17.096 25.3757 17.0965 25.3221 17.1133C25.2686 17.13 25.2212 17.1622 25.186 17.2059C25.1507 17.2495 25.1292 17.3027 25.1242 17.3585C25.1192 17.4144 25.1308 17.4705 25.1576 17.5198C25.1845 17.569 25.2253 17.6092 25.275 17.6353C25.3247 17.6613 25.381 17.672 25.4368 17.6661C25.4926 17.6601 25.5453 17.6378 25.5884 17.6019C25.617 17.578 25.6407 17.5487 25.658 17.5157C25.6753 17.4827 25.6859 17.4466 25.6892 17.4095C25.6926 17.3724 25.6886 17.335 25.6775 17.2994C25.6664 17.2638 25.6484 17.2308 25.6245 17.2022Z" fill="#D4D4D4"/>
<path d="M28.7135 23.0496C28.6574 23.0515 28.6031 23.07 28.5575 23.1028C28.5119 23.1356 28.4771 23.1812 28.4574 23.2338C28.4377 23.2864 28.4341 23.3436 28.447 23.3983C28.4599 23.4529 28.4888 23.5025 28.5299 23.5408C28.571 23.579 28.6225 23.6042 28.678 23.6132C28.7334 23.6221 28.7903 23.6144 28.8413 23.591C28.8924 23.5676 28.9353 23.5296 28.9647 23.4817C28.9942 23.4339 29.0087 23.3784 29.0066 23.3223C29.0056 23.285 28.9972 23.2484 28.9818 23.2144C28.9665 23.1804 28.9445 23.1499 28.9173 23.1245C28.89 23.0991 28.8579 23.0794 28.8229 23.0665C28.7879 23.0537 28.7508 23.0479 28.7135 23.0496Z" fill="#D4D4D4"/>
<path d="M30.4533 23.6374C30.3973 23.6393 30.343 23.6577 30.2974 23.6904C30.2519 23.7231 30.217 23.7686 30.1973 23.8211C30.1776 23.8736 30.1739 23.9308 30.1866 23.9854C30.1994 24.0401 30.2281 24.0897 30.269 24.128C30.31 24.1663 30.3614 24.1917 30.4167 24.2008C30.4721 24.2099 30.5289 24.2024 30.58 24.1792C30.6311 24.1561 30.6741 24.1183 30.7038 24.0707C30.7334 24.023 30.7482 23.9677 30.7464 23.9116C30.7452 23.8744 30.7366 23.8377 30.7212 23.8038C30.7058 23.7698 30.6839 23.7392 30.6567 23.7138C30.6295 23.6883 30.5975 23.6684 30.5626 23.6553C30.5277 23.6422 30.4906 23.6361 30.4533 23.6374Z" fill="#D4D4D4"/>
<path d="M27.2122 22.023C27.1561 22.0246 27.1017 22.0428 27.0559 22.0753C27.0101 22.1079 26.975 22.1533 26.955 22.2058C26.9351 22.2582 26.9312 22.3155 26.9438 22.3702C26.9563 22.4249 26.9849 22.4747 27.0258 22.5132C27.0667 22.5517 27.1181 22.5771 27.1735 22.5864C27.2289 22.5956 27.2858 22.5882 27.337 22.5651C27.3882 22.542 27.4313 22.5042 27.461 22.4565C27.4907 22.4088 27.5056 22.3534 27.5037 22.2973C27.5009 22.2225 27.4687 22.1518 27.4141 22.1004C27.3596 22.0491 27.2871 22.0213 27.2122 22.023Z" fill="#D4D4D4"/>
<path d="M33.7588 23.1482C33.7205 23.2087 33.7065 23.2815 33.7197 23.3518C33.7328 23.4222 33.7721 23.485 33.8296 23.5277C33.8871 23.5703 33.9586 23.5896 34.0298 23.5818C34.1009 23.5739 34.1665 23.5394 34.2133 23.4852C34.2579 23.4247 34.2767 23.3489 34.2655 23.2746C34.2544 23.2002 34.2141 23.1334 34.1537 23.0887C34.1239 23.0664 34.0901 23.0503 34.054 23.0412C34.018 23.0321 33.9805 23.0303 33.9438 23.0359C33.907 23.0414 33.8718 23.0542 33.84 23.0735C33.8082 23.0928 33.7806 23.1182 33.7588 23.1482Z" fill="#D4D4D4"/>
<path d="M35.2099 22.1625C35.1765 22.2076 35.1573 22.2616 35.1546 22.3177C35.1519 22.3737 35.166 22.4293 35.1949 22.4774C35.2238 22.5255 35.2663 22.5639 35.3171 22.5878C35.3679 22.6117 35.4246 22.62 35.4801 22.6117C35.5356 22.6034 35.5874 22.5788 35.6289 22.541C35.6704 22.5032 35.6998 22.454 35.7133 22.3995C35.7268 22.3451 35.7239 22.2878 35.7048 22.235C35.6858 22.1822 35.6516 22.1363 35.6064 22.1029C35.5765 22.0806 35.5425 22.0645 35.5064 22.0554C35.4702 22.0463 35.4326 22.0445 35.3957 22.05C35.3589 22.0555 35.3235 22.0683 35.2916 22.0876C35.2597 22.107 35.2319 22.1324 35.2099 22.1625Z" fill="#D4D4D4"/>
<path d="M32.0427 23.6294C32.0091 23.6743 31.9896 23.7283 31.9867 23.7843C31.9838 23.8404 31.9976 23.896 32.0263 23.9443C32.055 23.9925 32.0974 24.0311 32.1481 24.0552C32.1988 24.0793 32.2555 24.0879 32.311 24.0797C32.3666 24.0716 32.4185 24.0472 32.4601 24.0096C32.5018 23.972 32.5313 23.9228 32.5451 23.8684C32.5588 23.814 32.556 23.7567 32.5372 23.7038C32.5184 23.6509 32.4842 23.6048 32.4392 23.5714C32.3789 23.5266 32.3033 23.5075 32.2289 23.5184C32.1546 23.5292 32.0876 23.5692 32.0427 23.6294Z" fill="#D4D4D4"/>
<path d="M36.7177 19.3289C36.7312 19.3834 36.7605 19.4327 36.802 19.4705C36.8434 19.5084 36.8952 19.533 36.9507 19.5414C37.0062 19.5498 37.0629 19.5416 37.1137 19.5177C37.1645 19.4939 37.2071 19.4555 37.2361 19.4074C37.2651 19.3593 37.2791 19.3037 37.2765 19.2477C37.2739 19.1916 37.2547 19.1376 37.2213 19.0924C37.188 19.0473 37.142 19.013 37.0892 18.994C37.0363 18.975 36.9791 18.9721 36.9246 18.9857C36.8517 19.0039 36.789 19.0502 36.7502 19.1145C36.7114 19.1789 36.6997 19.256 36.7177 19.3289Z" fill="#D4D4D4"/>
<path d="M36.9085 17.6471C36.9221 17.7011 36.9515 17.7498 36.9927 17.7872C37.034 17.8246 37.0855 17.8489 37.1406 17.857C37.1956 17.8652 37.2519 17.8569 37.3023 17.8332C37.3527 17.8094 37.3949 17.7713 37.4236 17.7236C37.4524 17.6759 37.4664 17.6208 37.4638 17.5652C37.4613 17.5095 37.4424 17.4559 37.4094 17.411C37.3764 17.3661 37.3309 17.332 37.2786 17.313C37.2263 17.2939 37.1695 17.2907 37.1154 17.3039C37.0792 17.3127 37.0451 17.3286 37.015 17.3506C36.985 17.3727 36.9596 17.4005 36.9404 17.4324C36.9212 17.4643 36.9084 17.4997 36.903 17.5366C36.8975 17.5734 36.8994 17.611 36.9085 17.6471Z" fill="#D4D4D4"/>
<path d="M36.1411 21.0106C36.1545 21.0651 36.1838 21.1143 36.2253 21.1522C36.2668 21.19 36.3185 21.2147 36.374 21.2231C36.4295 21.2315 36.4863 21.2232 36.5371 21.1994C36.5879 21.1755 36.6305 21.1371 36.6594 21.089C36.6884 21.041 36.7025 20.9854 36.6998 20.9293C36.6972 20.8732 36.678 20.8192 36.6447 20.7741C36.6113 20.7289 36.5653 20.6947 36.5125 20.6757C36.4597 20.6567 36.4024 20.6538 36.348 20.6673C36.275 20.6855 36.2123 20.7318 36.1735 20.7962C36.1347 20.8605 36.1231 20.9376 36.1411 21.0106Z" fill="#D4D4D4"/>
<path d="M35.9326 14.5458C36.0014 14.576 36.0794 14.5777 36.1495 14.5507C36.2196 14.5237 36.2763 14.4701 36.3071 14.4016C36.3299 14.3503 36.3369 14.2935 36.3273 14.2382C36.3178 14.1829 36.292 14.1317 36.2534 14.0911C36.2147 14.0504 36.1649 14.0222 36.1101 14.0099C36.0554 13.9975 35.9983 14.0017 35.9459 14.0219C35.8936 14.042 35.8484 14.0772 35.816 14.1231C35.7837 14.1689 35.7657 14.2233 35.7643 14.2794C35.7628 14.3354 35.7781 14.3907 35.808 14.4381C35.838 14.4855 35.8813 14.523 35.9326 14.5458Z" fill="#D4D4D4"/>
<path d="M35.0166 13.1329C35.0859 12.9924 35.0282 12.8223 34.8877 12.7529C34.7472 12.6836 34.5771 12.7413 34.5078 12.8818C34.4385 13.0223 34.4962 13.1924 34.6367 13.2617C34.7772 13.3311 34.9473 13.2734 35.0166 13.1329Z" fill="#D4D4D4"/>
<path d="M36.6844 16.1239C36.7356 16.147 36.7925 16.1543 36.8478 16.145C36.9032 16.1356 36.9545 16.1101 36.9954 16.0716C37.0362 16.0331 37.0647 15.9833 37.0773 15.9286C37.0898 15.8739 37.0858 15.8167 37.0659 15.7643C37.0459 15.7118 37.0108 15.6665 36.9651 15.634C36.9193 15.6015 36.8649 15.5833 36.8088 15.5817C36.7527 15.5801 36.6974 15.5951 36.6499 15.625C36.6023 15.6549 36.5647 15.6981 36.5418 15.7494C36.5111 15.818 36.5089 15.8959 36.5357 15.9662C36.5624 16.0364 36.6159 16.0931 36.6844 16.1239Z" fill="#D4D4D4"/>
<path d="M31.4697 12.0378C31.5109 11.8866 31.4218 11.7307 31.2707 11.6894C31.1195 11.6482 30.9636 11.7373 30.9223 11.8884C30.8811 12.0396 30.9702 12.1955 31.1213 12.2368C31.2725 12.278 31.4284 12.1889 31.4697 12.0378Z" fill="#D4D4D4"/>
<path d="M29.5728 12.5224C29.6226 12.4963 29.6635 12.4561 29.6904 12.4069C29.7173 12.3576 29.729 12.3014 29.7239 12.2455C29.7189 12.1896 29.6973 12.1364 29.6621 12.0927C29.6268 12.0491 29.5794 12.0168 29.5257 12.0001C29.4721 11.9834 29.4148 11.983 29.361 11.9989C29.3071 12.0149 29.2592 12.0464 29.2233 12.0896C29.1874 12.1327 29.1651 12.1856 29.1593 12.2414C29.1534 12.2973 29.1643 12.3536 29.1904 12.4032C29.2254 12.4697 29.2853 12.5195 29.357 12.5418C29.4287 12.5641 29.5063 12.5571 29.5728 12.5224Z" fill="#D4D4D4"/>
<path d="M33.2922 12.3386C33.355 12.1951 33.2895 12.0278 33.146 11.965C33.0025 11.9022 32.8352 11.9677 32.7724 12.1112C32.7096 12.2547 32.775 12.422 32.9186 12.4848C33.0621 12.5476 33.2294 12.4821 33.2922 12.3386Z" fill="#D4D4D4"/>
<path d="M26.8686 13.8419L26.4951 14.2153L26.535 14.2552L26.9085 13.8818L26.8686 13.8419Z" fill="#B9B9B9"/>
<path d="M25.8827 15.3924L25.5093 15.7659L25.5492 15.8058L25.9226 15.4323L25.8827 15.3924Z" fill="#B9B9B9"/>
<path d="M27.9833 12.7725L27.6099 13.146L27.6498 13.1859L28.0232 12.8124L27.9833 12.7725Z" fill="#B9B9B9"/>
<path d="M25.6894 18.9923L25.3159 19.3657L25.3558 19.4056L25.7293 19.0321L25.6894 18.9923Z" fill="#B9B9B9"/>
<path d="M26.2924 20.7261L25.9189 21.0996L25.9588 21.1395L26.3323 20.766L26.2924 20.7261Z" fill="#B9B9B9"/>
<path d="M25.5746 17.1773L25.2012 17.5508L25.2411 17.5907L25.6145 17.2172L25.5746 17.1773Z" fill="#B9B9B9"/>
<path d="M28.8891 23.1263L28.5156 23.4998L28.5555 23.5397L28.929 23.1662L28.8891 23.1263Z" fill="#B9B9B9"/>
<path d="M30.6293 23.7144L30.2559 24.0879L30.2958 24.1278L30.6692 23.7543L30.6293 23.7144Z" fill="#B9B9B9"/>
<path d="M27.3876 22.0999L27.0142 22.4734L27.0541 22.5133L27.4275 22.1398L27.3876 22.0999Z" fill="#B9B9B9"/>
<path d="M34.1523 23.1099L33.7788 23.4834L33.8187 23.5233L34.1922 23.1498L34.1523 23.1099Z" fill="#B9B9B9"/>
<path d="M35.6044 22.1238L35.231 22.4973L35.2709 22.5372L35.6443 22.1637L35.6044 22.1238Z" fill="#B9B9B9"/>
<path d="M32.4365 23.5916L32.063 23.9651L32.1029 24.005L32.4764 23.6315L32.4365 23.5916Z" fill="#B9B9B9"/>
<path d="M37.1596 19.055L36.7861 19.4285L36.826 19.4684L37.1995 19.0949L37.1596 19.055Z" fill="#B9B9B9"/>
<path d="M37.3491 17.3719L36.9756 17.7454L37.0155 17.7853L37.389 17.4118L37.3491 17.3719Z" fill="#B9B9B9"/>
<path d="M36.5834 20.7364L36.21 21.1099L36.2499 21.1498L36.6233 20.7763L36.5834 20.7364Z" fill="#B9B9B9"/>
<path d="M36.2148 14.0806L35.8413 14.4541L35.8812 14.494L36.2547 14.1205L36.2148 14.0806Z" fill="#B9B9B9"/>
<path d="M34.9301 12.8013L34.5566 13.1748L34.5965 13.2147L34.97 12.8412L34.9301 12.8013Z" fill="#B9B9B9"/>
<path d="M36.9662 15.6583L36.5928 16.0317L36.6327 16.0716L37.0061 15.6982L36.9662 15.6583Z" fill="#B9B9B9"/>
<path d="M31.3632 11.7571L30.9897 12.1306L31.0296 12.1705L31.4031 11.797L31.3632 11.7571Z" fill="#B9B9B9"/>
<path d="M29.6069 12.065L29.2334 12.4385L29.2733 12.4784L29.6468 12.1049L29.6069 12.065Z" fill="#B9B9B9"/>
<path d="M33.1957 12.0174L32.8223 12.3909L32.8622 12.4308L33.2356 12.0573L33.1957 12.0174Z" fill="#B9B9B9"/>
<g style="mix-blend-mode:soft-light" opacity="0.33">
<path d="M48.5976 0.626865C48.5976 0.626865 47.0523 -0.626936 40.5372 0.421555C33.6554 1.53744 29.2875 5.76745 26.3128 8.70918C22.4652 12.5145 16.1257 21.2723 13.1182 28.7261C13.1182 28.7261 26.9648 -0.322889 48.5976 0.626865Z" fill="white"/>
</g>
<g style="mix-blend-mode:soft-light" opacity="0.33">
<path d="M13.911 29.4972L13.2261 30.1696L12.9863 29.9345L13.6602 29.2559L13.911 29.4972Z" fill="white"/>
</g>
<g opacity="0.48">
<g opacity="0.48">
<path style="mix-blend-mode:soft-light" opacity="0.48" d="M20.7363 36.2629C20.7363 36.2629 48.3623 22.2548 48.5973 0.626709L56.3929 4.04802L30.5928 43.7825C30.5928 43.7825 25.3895 41.8297 20.7363 36.2629Z" fill="url(#paint18_linear_32:956)"/>
</g>
</g>
<path style="mix-blend-mode:soft-light" d="M20.7363 36.2629L21.2817 38.2408C21.2817 38.2408 26.5947 35.6219 29.8515 31.3872C29.8515 31.3872 23.979 34.9198 20.7363 36.2629Z" fill="url(#paint19_linear_32:956)"/>
<g style="mix-blend-mode:soft-light" opacity="0.33">
<path d="M18.3371 44.2262C19.9702 42.6277 20.583 41.0808 20.688 40.7861C20.6326 40.92 20.566 41.049 20.489 41.1717C20.0176 41.9817 19.4532 42.7339 18.8073 43.4128C17.8278 44.499 16.4047 45.9408 16.1978 46.563C16.1586 46.6962 16.1774 46.7809 16.237 46.8342C16.237 46.8342 16.5175 46.0019 18.3371 44.2262Z" fill="white"/>
</g>
<defs>
<linearGradient id="paint0_linear_32:956" x1="-3.60624" y1="52.7238" x2="12.5741" y2="37.4838" gradientUnits="userSpaceOnUse">
<stop stop-color="#FF8533"/>
<stop offset="1" stop-color="#FFD052"/>
</linearGradient>
<linearGradient id="paint1_linear_32:956" x1="3.78816" y1="45.8201" x2="13.7621" y2="36.0075" gradientUnits="userSpaceOnUse">
<stop stop-color="#FFD052"/>
<stop offset="1" stop-color="#FFE9AE"/>
</linearGradient>
<linearGradient id="paint2_linear_32:956" x1="22.4133" y1="40.8801" x2="13.0772" y2="25.6182" gradientUnits="userSpaceOnUse">
<stop stop-color="#767B7F"/>
<stop offset="1" stop-color="#A3A3A3"/>
</linearGradient>
<linearGradient id="paint3_linear_32:956" x1="8.48525" y1="24.4444" x2="23.4462" y2="41.5431" gradientUnits="userSpaceOnUse">
<stop stop-color="#F02E54"/>
<stop offset="1" stop-color="#8F1931"/>
</linearGradient>
<linearGradient id="paint4_linear_32:956" x1="2146.52" y1="4543.06" x2="1616.17" y2="2173.87" gradientUnits="userSpaceOnUse">
<stop stop-color="#F02E54"/>
<stop offset="1" stop-color="#8F1931"/>
</linearGradient>
<linearGradient id="paint5_linear_32:956" x1="28.7092" y1="9.55541" x2="39.7771" y2="35.6971" gradientUnits="userSpaceOnUse">
<stop stop-color="#EEF4FA"/>
<stop offset="1" stop-color="#CDDEED"/>
</linearGradient>
<linearGradient id="paint6_linear_32:956" x1="6795.46" y1="2832.15" x2="8949.92" y2="7854.39" gradientUnits="userSpaceOnUse">
<stop stop-color="#EEF4FA"/>
<stop offset="1" stop-color="#CDDEED"/>
</linearGradient>
<linearGradient id="paint7_linear_32:956" x1="12.5618" y1="23.1513" x2="22.553" y2="35.4761" gradientUnits="userSpaceOnUse">
<stop stop-color="#C7C7C7"/>
<stop offset="1" stop-color="#A3A3A3"/>
</linearGradient>
<linearGradient id="paint8_linear_32:956" x1="19.8288" y1="29.1885" x2="21.8741" y2="35.492" gradientUnits="userSpaceOnUse">
<stop stop-color="#1D262D"/>
<stop offset="1" stop-color="#1D262D" stop-opacity="0"/>
</linearGradient>
<linearGradient id="paint9_linear_32:956" x1="3880.59" y1="248.217" x2="5769.81" y2="1768.83" gradientUnits="userSpaceOnUse">
<stop stop-color="#F02E54"/>
<stop offset="1" stop-color="#8F1931"/>
</linearGradient>
<linearGradient id="paint10_linear_32:956" x1="68.3063" y1="38.6218" x2="30.0654" y2="-1.02961" gradientUnits="userSpaceOnUse">
<stop stop-color="#8F1931"/>
<stop offset="1" stop-color="#F02E54"/>
</linearGradient>
<linearGradient id="paint11_linear_32:956" x1="292.619" y1="5237.2" x2="-7.07757" y2="5228.29" gradientUnits="userSpaceOnUse">
<stop stop-color="#8F1931"/>
<stop offset="1" stop-color="#F02E54"/>
</linearGradient>
<linearGradient id="paint12_linear_32:956" x1="1238.39" y1="2987.95" x2="2420.31" y2="4668.33" gradientUnits="userSpaceOnUse">
<stop stop-color="#F02E54"/>
<stop offset="1" stop-color="#8F1931"/>
</linearGradient>
<linearGradient id="paint13_linear_32:956" x1="32.6208" y1="20.8154" x2="36.8493" y2="29.6704" gradientUnits="userSpaceOnUse">
<stop stop-color="#1D262D"/>
<stop offset="0.68" stop-color="#1D262D" stop-opacity="0.32"/>
<stop offset="1" stop-color="#1D262D" stop-opacity="0"/>
</linearGradient>
<linearGradient id="paint14_linear_32:956" x1="2418.3" y1="924.528" x2="3121.35" y2="2569.28" gradientUnits="userSpaceOnUse">
<stop stop-color="#C7C7C7"/>
<stop offset="1" stop-color="#A3A3A3"/>
</linearGradient>
<linearGradient id="paint15_linear_32:956" x1="27.2911" y1="11.9154" x2="37.1068" y2="26.9187" gradientUnits="userSpaceOnUse">
<stop stop-color="#ADE5FF"/>
<stop offset="1" stop-color="#76C9F0"/>
</linearGradient>
<linearGradient id="paint16_linear_32:956" x1="36.0676" y1="13.8696" x2="25.5733" y2="20.8188" gradientUnits="userSpaceOnUse">
<stop stop-color="#F9FBFC"/>
<stop offset="1" stop-color="#F9FBFC" stop-opacity="0"/>
</linearGradient>
<linearGradient id="paint17_linear_32:956" x1="2901.96" y1="119.079" x2="2884.56" y2="260.099" gradientUnits="userSpaceOnUse">
<stop stop-color="#F9FBFC"/>
<stop offset="1" stop-color="#F9FBFC" stop-opacity="0"/>
</linearGradient>
<linearGradient id="paint18_linear_32:956" x1="12841.4" y1="8840.66" x2="7188.64" y2="5924.29" gradientUnits="userSpaceOnUse">
<stop stop-color="#1D262D"/>
<stop offset="1" stop-color="#1D262D" stop-opacity="0"/>
</linearGradient>
<linearGradient id="paint19_linear_32:956" x1="1414.71" y1="1397.51" x2="1497.75" y2="1644.84" gradientUnits="userSpaceOnUse">
<stop stop-color="#1D262D"/>
<stop offset="1" stop-color="#1D262D" stop-opacity="0"/>
</linearGradient>
</defs>
</svg>
