<svg width="120" height="43" viewBox="0 0 120 43" fill="none" xmlns="http://www.w3.org/2000/svg">
<path d="M7.96134 1.99951H6.19824V20.3212H7.96134V1.99951Z" fill="#D1D1D1"/>
<path d="M12.1781 0H10.415V18.3217H12.1781V0Z" fill="#AAAAAA"/>
<path d="M9.47013 4.4895H7.70703V22.8112H9.47013V4.4895Z" fill="#EAEAEA"/>
<path d="M12.6868 1.99951H9.8877V2.34486H12.6868V1.99951Z" fill="#AAAAAA"/>
<path d="M12.6868 3.08984H9.8877V3.43519H12.6868V3.08984Z" fill="#AAAAAA"/>
<path d="M20.3939 7.48877H13.7959V21.5572H20.3939V7.48877Z" fill="#EAEAEA"/>
<path d="M23.0109 17.522H3.03516V30.6089H23.0109V17.522Z" fill="#D1D1D1"/>
<path d="M7.87034 19.4668H5.65283V21.5571H7.87034V19.4668Z" fill="#17A8CC"/>
<path d="M12.051 19.4668H9.8335V21.5571H12.051V19.4668Z" fill="#17A8CC"/>
<path d="M16.2136 19.4668H13.9961V21.5571H16.2136V19.4668Z" fill="#17A8CC"/>
<path d="M20.3938 19.4668H18.1763V21.5571H20.3938V19.4668Z" fill="#17A8CC"/>
<path d="M7.87034 22.3569H5.65283V24.4472H7.87034V22.3569Z" fill="#17A8CC"/>
<path d="M12.051 22.3569H9.8335V24.4472H12.051V22.3569Z" fill="#17A8CC"/>
<path d="M16.2136 22.3569H13.9961V24.4472H16.2136V22.3569Z" fill="#17A8CC"/>
<path d="M20.3938 22.3569H18.1763V24.4472H20.3938V22.3569Z" fill="#17A8CC"/>
<path d="M7.87034 25.2468H5.65283V27.3371H7.87034V25.2468Z" fill="#17A8CC"/>
<path d="M12.051 25.2468H9.8335V27.3371H12.051V25.2468Z" fill="#17A8CC"/>
<path d="M16.2136 25.2468H13.9961V27.3371H16.2136V25.2468Z" fill="#17A8CC"/>
<path d="M20.3938 25.2468H18.1763V27.3371H20.3938V25.2468Z" fill="#17A8CC"/>
<path d="M101.279 39.1883H3.99903C0.600062 36.1165 0.545533 32.4994 0.36377 28.2825H118.692C116.547 32.2631 112.312 36.0074 101.279 39.1883Z" fill="black"/>
<path d="M20.3939 8.54272H13.7959V12.0871H20.3939V8.54272Z" fill="#E02214"/>
<path d="M37.1889 21.7751H27.0283V28.1005H37.1889V21.7751Z" fill="#FE6259"/>
<path d="M36.7524 22.175H27.4644V27.6643H36.7524V22.175Z" fill="#AA0908"/>
<path d="M28.1915 21.939H27.8462V27.9008H28.1915V21.939Z" fill="#FE6259"/>
<path d="M28.9367 21.939H28.5913V27.9008H28.9367V21.939Z" fill="#FE6259"/>
<path d="M29.6823 21.939H29.3369V27.9008H29.6823V21.939Z" fill="#FE6259"/>
<path d="M30.4269 21.939H30.0815V27.9008H30.4269V21.939Z" fill="#FE6259"/>
<path d="M31.1725 21.939H30.8271V27.9008H31.1725V21.939Z" fill="#FE6259"/>
<path d="M31.9176 21.939H31.5723V27.9008H31.9176V21.939Z" fill="#FE6259"/>
<path d="M32.6627 21.939H32.3174V27.9008H32.6627V21.939Z" fill="#FE6259"/>
<path d="M33.4079 21.939H33.0625V27.9008H33.4079V21.939Z" fill="#FE6259"/>
<path d="M34.1535 21.939H33.8081V27.9008H34.1535V21.939Z" fill="#FE6259"/>
<path d="M34.8981 21.939H34.5527V27.9008H34.8981V21.939Z" fill="#FE6259"/>
<path d="M35.6437 21.939H35.2983V27.9008H35.6437V21.939Z" fill="#FE6259"/>
<path d="M36.3888 21.939H36.0435V27.9008H36.3888V21.939Z" fill="#FE6259"/>
<path d="M47.3676 21.7751H37.207V28.1005H47.3676V21.7751Z" fill="#FFCE00"/>
<path d="M46.9312 22.175H37.6431V27.6643H46.9312V22.175Z" fill="#C19D02"/>
<path d="M38.3522 21.939H38.0068V27.9008H38.3522V21.939Z" fill="#FFCE00"/>
<path d="M39.0973 21.939H38.752V27.9008H39.0973V21.939Z" fill="#FFCE00"/>
<path d="M39.8424 21.939H39.4971V27.9008H39.8424V21.939Z" fill="#FFCE00"/>
<path d="M40.588 21.939H40.2427V27.9008H40.588V21.939Z" fill="#FFCE00"/>
<path d="M41.3327 21.939H40.9873V27.9008H41.3327V21.939Z" fill="#FFCE00"/>
<path d="M42.0783 21.939H41.7329V27.9008H42.0783V21.939Z" fill="#FFCE00"/>
<path d="M42.8234 21.939H42.478V27.9008H42.8234V21.939Z" fill="#FFCE00"/>
<path d="M43.587 21.939H43.2417V27.9008H43.587V21.939Z" fill="#FFCE00"/>
<path d="M44.3322 21.939H43.9868V27.9008H44.3322V21.939Z" fill="#FFCE00"/>
<path d="M45.0773 21.939H44.7319V27.9008H45.0773V21.939Z" fill="#FFCE00"/>
<path d="M45.8224 21.939H45.4771V27.9008H45.8224V21.939Z" fill="#FFCE00"/>
<path d="M46.568 21.939H46.2227V27.9008H46.568V21.939Z" fill="#FFCE00"/>
<path d="M88.0645 9.12451H77.8857V15.4499H88.0645V9.12451Z" fill="#FFCE00"/>
<path d="M87.6094 9.54248H78.3213V15.0317H87.6094V9.54248Z" fill="#C19D02"/>
<path d="M79.0309 9.3064H78.6855V15.2682H79.0309V9.3064Z" fill="#FFCE00"/>
<path d="M79.776 9.3064H79.4307V15.2682H79.776V9.3064Z" fill="#FFCE00"/>
<path d="M80.5211 9.3064H80.1758V15.2682H80.5211V9.3064Z" fill="#FFCE00"/>
<path d="M81.2662 9.3064H80.9209V15.2682H81.2662V9.3064Z" fill="#FFCE00"/>
<path d="M82.0114 9.3064H81.666V15.2682H82.0114V9.3064Z" fill="#FFCE00"/>
<path d="M82.7565 9.3064H82.4111V15.2682H82.7565V9.3064Z" fill="#FFCE00"/>
<path d="M83.5016 9.3064H83.1562V15.2682H83.5016V9.3064Z" fill="#FFCE00"/>
<path d="M84.2653 9.3064H83.9199V15.2682H84.2653V9.3064Z" fill="#FFCE00"/>
<path d="M85.0104 9.3064H84.665V15.2682H85.0104V9.3064Z" fill="#FFCE00"/>
<path d="M85.7565 9.3064H85.4111V15.2682H85.7565V9.3064Z" fill="#FFCE00"/>
<path d="M86.5006 9.3064H86.1553V15.2682H86.5006V9.3064Z" fill="#FFCE00"/>
<path d="M87.2467 9.3064H86.9014V15.2682H87.2467V9.3064Z" fill="#FFCE00"/>
<path d="M57.5464 21.7751H47.3677V28.1005H57.5464V21.7751Z" fill="#C6A07A"/>
<path d="M57.0918 22.175H47.8037V27.6643H57.0918V22.175Z" fill="#756B5D"/>
<path d="M48.5304 21.939H48.1851V27.9008H48.5304V21.939Z" fill="#C6A07A"/>
<path d="M49.276 21.939H48.9307V27.9008H49.276V21.939Z" fill="#C6A07A"/>
<path d="M50.0211 21.939H49.6758V27.9008H50.0211V21.939Z" fill="#C6A07A"/>
<path d="M50.7667 21.939H50.4214V27.9008H50.7667V21.939Z" fill="#C6A07A"/>
<path d="M51.5114 21.939H51.166V27.9008H51.5114V21.939Z" fill="#C6A07A"/>
<path d="M52.257 21.939H51.9116V27.9008H52.257V21.939Z" fill="#C6A07A"/>
<path d="M53.0021 21.939H52.6567V27.9008H53.0021V21.939Z" fill="#C6A07A"/>
<path d="M53.7472 21.939H53.4019V27.9008H53.7472V21.939Z" fill="#C6A07A"/>
<path d="M54.4928 21.939H54.1475V27.9008H54.4928V21.939Z" fill="#C6A07A"/>
<path d="M55.2379 21.939H54.8926V27.9008H55.2379V21.939Z" fill="#C6A07A"/>
<path d="M55.983 21.939H55.6377V27.9008H55.983V21.939Z" fill="#C6A07A"/>
<path d="M56.7282 21.939H56.3828V27.9008H56.7282V21.939Z" fill="#C6A07A"/>
<path d="M77.8676 21.7751H67.707V28.1005H77.8676V21.7751Z" fill="#C6A07A"/>
<path d="M77.4316 22.175H68.1436V27.6643H77.4316V22.175Z" fill="#756B5D"/>
<path d="M68.8698 21.939H68.5244V27.9008H68.8698V21.939Z" fill="#C6A07A"/>
<path d="M69.6149 21.939H69.2695V27.9008H69.6149V21.939Z" fill="#C6A07A"/>
<path d="M70.361 21.939H70.0156V27.9008H70.361V21.939Z" fill="#C6A07A"/>
<path d="M71.1061 21.939H70.7607V27.9008H71.1061V21.939Z" fill="#C6A07A"/>
<path d="M71.8512 21.939H71.5059V27.9008H71.8512V21.939Z" fill="#C6A07A"/>
<path d="M72.5963 21.939H72.251V27.9008H72.5963V21.939Z" fill="#C6A07A"/>
<path d="M73.3414 21.939H72.9961V27.9008H73.3414V21.939Z" fill="#C6A07A"/>
<path d="M74.0866 21.939H73.7412V27.9008H74.0866V21.939Z" fill="#C6A07A"/>
<path d="M74.8317 21.939H74.4863V27.9008H74.8317V21.939Z" fill="#C6A07A"/>
<path d="M75.5768 21.939H75.2314V27.9008H75.5768V21.939Z" fill="#C6A07A"/>
<path d="M76.3219 21.939H75.9766V27.9008H76.3219V21.939Z" fill="#C6A07A"/>
<path d="M77.068 21.939H76.7227V27.9008H77.068V21.939Z" fill="#C6A07A"/>
<path d="M88.0277 21.7751H77.8672V28.1005H88.0277V21.7751Z" fill="#1CA7E0"/>
<path d="M87.5918 22.175H78.3037V27.6643H87.5918V22.175Z" fill="#025772"/>
<path d="M79.0309 21.939H78.6855V27.9008H79.0309V21.939Z" fill="#1CA7E0"/>
<path d="M79.776 21.939H79.4307V27.9008H79.776V21.939Z" fill="#1CA7E0"/>
<path d="M80.5211 21.939H80.1758V27.9008H80.5211V21.939Z" fill="#1CA7E0"/>
<path d="M81.2662 21.939H80.9209V27.9008H81.2662V21.939Z" fill="#1CA7E0"/>
<path d="M82.0114 21.939H81.666V27.9008H82.0114V21.939Z" fill="#1CA7E0"/>
<path d="M82.7565 21.939H82.4111V27.9008H82.7565V21.939Z" fill="#1CA7E0"/>
<path d="M83.5016 21.939H83.1562V27.9008H83.5016V21.939Z" fill="#1CA7E0"/>
<path d="M84.2477 21.939H83.9023V27.9008H84.2477V21.939Z" fill="#1CA7E0"/>
<path d="M84.9918 21.939H84.6465V27.9008H84.9918V21.939Z" fill="#1CA7E0"/>
<path d="M85.7379 21.939H85.3926V27.9008H85.7379V21.939Z" fill="#1CA7E0"/>
<path d="M86.5006 21.939H86.1553V27.9008H86.5006V21.939Z" fill="#1CA7E0"/>
<path d="M87.2467 21.939H86.9014V27.9008H87.2467V21.939Z" fill="#1CA7E0"/>
<path d="M108.367 21.7751H98.2061V28.1005H108.367V21.7751Z" fill="#A37E7A"/>
<path d="M107.931 22.175H98.6426V27.6643H107.931V22.175Z" fill="#6D423F"/>
<path d="M99.3698 21.939H99.0244V27.9008H99.3698V21.939Z" fill="#A37E7A"/>
<path d="M100.115 21.939H99.7695V27.9008H100.115V21.939Z" fill="#A37E7A"/>
<path d="M100.86 21.939H100.515V27.9008H100.86V21.939Z" fill="#A37E7A"/>
<path d="M101.605 21.939H101.26V27.9008H101.605V21.939Z" fill="#A37E7A"/>
<path d="M102.351 21.939H102.006V27.9008H102.351V21.939Z" fill="#A37E7A"/>
<path d="M103.096 21.939H102.751V27.9008H103.096V21.939Z" fill="#A37E7A"/>
<path d="M103.841 21.939H103.496V27.9008H103.841V21.939Z" fill="#A37E7A"/>
<path d="M104.587 21.939H104.241V27.9008H104.587V21.939Z" fill="#A37E7A"/>
<path d="M105.332 21.939H104.986V27.9008H105.332V21.939Z" fill="#A37E7A"/>
<path d="M106.077 21.939H105.731V27.9008H106.077V21.939Z" fill="#A37E7A"/>
<path d="M106.822 21.939H106.477V27.9008H106.822V21.939Z" fill="#A37E7A"/>
<path d="M107.568 21.939H107.223V27.9008H107.568V21.939Z" fill="#A37E7A"/>
<path d="M67.707 21.7751H57.5464V28.1005H67.707V21.7751Z" fill="#A37E7A"/>
<path d="M67.2705 22.175H57.9824V27.6643H67.2705V22.175Z" fill="#6D423F"/>
<path d="M58.6915 21.939H58.3462V27.9008H58.6915V21.939Z" fill="#A37E7A"/>
<path d="M59.4362 21.939H59.0908V27.9008H59.4362V21.939Z" fill="#A37E7A"/>
<path d="M60.1818 21.939H59.8364V27.9008H60.1818V21.939Z" fill="#A37E7A"/>
<path d="M60.9269 21.939H60.5815V27.9008H60.9269V21.939Z" fill="#A37E7A"/>
<path d="M61.6725 21.939H61.3271V27.9008H61.6725V21.939Z" fill="#A37E7A"/>
<path d="M62.4176 21.939H62.0723V27.9008H62.4176V21.939Z" fill="#A37E7A"/>
<path d="M63.1627 21.939H62.8174V27.9008H63.1627V21.939Z" fill="#A37E7A"/>
<path d="M63.9078 21.939H63.5625V27.9008H63.9078V21.939Z" fill="#A37E7A"/>
<path d="M64.653 21.939H64.3076V27.9008H64.653V21.939Z" fill="#A37E7A"/>
<path d="M65.4167 21.939H65.0713V27.9008H65.4167V21.939Z" fill="#A37E7A"/>
<path d="M66.1618 21.939H65.8164V27.9008H66.1618V21.939Z" fill="#A37E7A"/>
<path d="M66.9069 21.939H66.5615V27.9008H66.9069V21.939Z" fill="#A37E7A"/>
<path d="M77.8676 9.12451H67.707V15.4499H77.8676V9.12451Z" fill="#A37E7A"/>
<path d="M77.4316 9.54248H68.1436V15.0317H77.4316V9.54248Z" fill="#6D423F"/>
<path d="M68.8698 9.3064H68.5244V15.2682H68.8698V9.3064Z" fill="#A37E7A"/>
<path d="M69.6149 9.3064H69.2695V15.2682H69.6149V9.3064Z" fill="#A37E7A"/>
<path d="M70.361 9.3064H70.0156V15.2682H70.361V9.3064Z" fill="#A37E7A"/>
<path d="M71.1061 9.3064H70.7607V15.2682H71.1061V9.3064Z" fill="#A37E7A"/>
<path d="M71.8512 9.3064H71.5059V15.2682H71.8512V9.3064Z" fill="#A37E7A"/>
<path d="M72.5963 9.3064H72.251V15.2682H72.5963V9.3064Z" fill="#A37E7A"/>
<path d="M73.3414 9.3064H72.9961V15.2682H73.3414V9.3064Z" fill="#A37E7A"/>
<path d="M74.0866 9.3064H73.7412V15.2682H74.0866V9.3064Z" fill="#A37E7A"/>
<path d="M74.8317 9.3064H74.4863V15.2682H74.8317V9.3064Z" fill="#A37E7A"/>
<path d="M75.5768 9.3064H75.2314V15.2682H75.5768V9.3064Z" fill="#A37E7A"/>
<path d="M76.3219 9.3064H75.9766V15.2682H76.3219V9.3064Z" fill="#A37E7A"/>
<path d="M77.068 9.3064H76.7227V15.2682H77.068V9.3064Z" fill="#A37E7A"/>
<path d="M98.2065 21.7751H88.0459V28.1005H98.2065V21.7751Z" fill="#99CC33"/>
<path d="M97.7705 22.175H88.4824V27.6643H97.7705V22.175Z" fill="#628421"/>
<path d="M89.2096 21.939H88.8643V27.9008H89.2096V21.939Z" fill="#99CC33"/>
<path d="M89.9547 21.939H89.6094V27.9008H89.9547V21.939Z" fill="#99CC33"/>
<path d="M90.6999 21.939H90.3545V27.9008H90.6999V21.939Z" fill="#99CC33"/>
<path d="M91.445 21.939H91.0996V27.9008H91.445V21.939Z" fill="#99CC33"/>
<path d="M92.1901 21.939H91.8447V27.9008H92.1901V21.939Z" fill="#99CC33"/>
<path d="M92.9352 21.939H92.5898V27.9008H92.9352V21.939Z" fill="#99CC33"/>
<path d="M93.6803 21.939H93.335V27.9008H93.6803V21.939Z" fill="#99CC33"/>
<path d="M94.4254 21.939H94.0801V27.9008H94.4254V21.939Z" fill="#99CC33"/>
<path d="M95.1715 21.939H94.8262V27.9008H95.1715V21.939Z" fill="#99CC33"/>
<path d="M95.9166 21.939H95.5713V27.9008H95.9166V21.939Z" fill="#99CC33"/>
<path d="M96.6618 21.939H96.3164V27.9008H96.6618V21.939Z" fill="#99CC33"/>
<path d="M97.4069 21.939H97.0615V27.9008H97.4069V21.939Z" fill="#99CC33"/>
<path d="M67.707 9.12451H57.5464V15.4499H67.707V9.12451Z" fill="#99CC33"/>
<path d="M67.2705 9.54248H57.9824V15.0317H67.2705V9.54248Z" fill="#628421"/>
<path d="M58.6915 9.3064H58.3462V15.2682H58.6915V9.3064Z" fill="#99CC33"/>
<path d="M59.4362 9.3064H59.0908V15.2682H59.4362V9.3064Z" fill="#99CC33"/>
<path d="M60.1818 9.3064H59.8364V15.2682H60.1818V9.3064Z" fill="#99CC33"/>
<path d="M60.9269 9.3064H60.5815V15.2682H60.9269V9.3064Z" fill="#99CC33"/>
<path d="M61.6725 9.3064H61.3271V15.2682H61.6725V9.3064Z" fill="#99CC33"/>
<path d="M62.4176 9.3064H62.0723V15.2682H62.4176V9.3064Z" fill="#99CC33"/>
<path d="M63.1627 9.3064H62.8174V15.2682H63.1627V9.3064Z" fill="#99CC33"/>
<path d="M63.9259 9.3064H63.5806V15.2682H63.9259V9.3064Z" fill="#99CC33"/>
<path d="M64.6715 9.3064H64.3262V15.2682H64.6715V9.3064Z" fill="#99CC33"/>
<path d="M65.4167 9.3064H65.0713V15.2682H65.4167V9.3064Z" fill="#99CC33"/>
<path d="M66.1618 9.3064H65.8164V15.2682H66.1618V9.3064Z" fill="#99CC33"/>
<path d="M66.9069 9.3064H66.5615V15.2682H66.9069V9.3064Z" fill="#99CC33"/>
<path d="M88.0645 15.45H77.8857V21.7753H88.0645V15.45Z" fill="#FE6259"/>
<path d="M87.6094 15.8679H78.3213V21.3572H87.6094V15.8679Z" fill="#AA0908"/>
<path d="M79.0309 15.6316H78.6855V21.5934H79.0309V15.6316Z" fill="#FE6259"/>
<path d="M79.776 15.6316H79.4307V21.5934H79.776V15.6316Z" fill="#FE6259"/>
<path d="M80.5211 15.6316H80.1758V21.5934H80.5211V15.6316Z" fill="#FE6259"/>
<path d="M81.2662 15.6316H80.9209V21.5934H81.2662V15.6316Z" fill="#FE6259"/>
<path d="M82.0114 15.6316H81.666V21.5934H82.0114V15.6316Z" fill="#FE6259"/>
<path d="M82.7565 15.6316H82.4111V21.5934H82.7565V15.6316Z" fill="#FE6259"/>
<path d="M83.5016 15.6316H83.1562V21.5934H83.5016V15.6316Z" fill="#FE6259"/>
<path d="M84.2653 15.6316H83.9199V21.5934H84.2653V15.6316Z" fill="#FE6259"/>
<path d="M85.0104 15.6316H84.665V21.5934H85.0104V15.6316Z" fill="#FE6259"/>
<path d="M85.7565 15.6316H85.4111V21.5934H85.7565V15.6316Z" fill="#FE6259"/>
<path d="M86.5006 15.6316H86.1553V21.5934H86.5006V15.6316Z" fill="#FE6259"/>
<path d="M87.2467 15.6316H86.9014V21.5934H87.2467V15.6316Z" fill="#FE6259"/>
<path d="M98.2065 15.45H88.0459V21.7753H98.2065V15.45Z" fill="#C6A07A"/>
<path d="M97.7705 15.8679H88.4824V21.3572H97.7705V15.8679Z" fill="#756B5D"/>
<path d="M89.2096 15.6316H88.8643V21.5934H89.2096V15.6316Z" fill="#C6A07A"/>
<path d="M89.9547 15.6316H89.6094V21.5934H89.9547V15.6316Z" fill="#C6A07A"/>
<path d="M90.6999 15.6316H90.3545V21.5934H90.6999V15.6316Z" fill="#C6A07A"/>
<path d="M91.445 15.6316H91.0996V21.5934H91.445V15.6316Z" fill="#C6A07A"/>
<path d="M92.1901 15.6316H91.8447V21.5934H92.1901V15.6316Z" fill="#C6A07A"/>
<path d="M92.9352 15.6316H92.5898V21.5934H92.9352V15.6316Z" fill="#C6A07A"/>
<path d="M93.6803 15.6316H93.335V21.5934H93.6803V15.6316Z" fill="#C6A07A"/>
<path d="M94.4254 15.6316H94.0801V21.5934H94.4254V15.6316Z" fill="#C6A07A"/>
<path d="M95.1715 15.6316H94.8262V21.5934H95.1715V15.6316Z" fill="#C6A07A"/>
<path d="M95.9166 15.6316H95.5713V21.5934H95.9166V15.6316Z" fill="#C6A07A"/>
<path d="M96.6618 15.6316H96.3164V21.5934H96.6618V15.6316Z" fill="#C6A07A"/>
<path d="M97.4069 15.6316H97.0615V21.5934H97.4069V15.6316Z" fill="#C6A07A"/>
<path d="M67.707 15.45H57.5464V21.7753H67.707V15.45Z" fill="#C6A07A"/>
<path d="M67.2705 15.8679H57.9824V21.3572H67.2705V15.8679Z" fill="#756B5D"/>
<path d="M58.6915 15.6316H58.3462V21.5934H58.6915V15.6316Z" fill="#C6A07A"/>
<path d="M59.4362 15.6316H59.0908V21.5934H59.4362V15.6316Z" fill="#C6A07A"/>
<path d="M60.1818 15.6316H59.8364V21.5934H60.1818V15.6316Z" fill="#C6A07A"/>
<path d="M60.9269 15.6316H60.5815V21.5934H60.9269V15.6316Z" fill="#C6A07A"/>
<path d="M61.6725 15.6316H61.3271V21.5934H61.6725V15.6316Z" fill="#C6A07A"/>
<path d="M62.4176 15.6316H62.0723V21.5934H62.4176V15.6316Z" fill="#C6A07A"/>
<path d="M63.1627 15.6316H62.8174V21.5934H63.1627V15.6316Z" fill="#C6A07A"/>
<path d="M63.9259 15.6316H63.5806V21.5934H63.9259V15.6316Z" fill="#C6A07A"/>
<path d="M64.6715 15.6316H64.3262V21.5934H64.6715V15.6316Z" fill="#C6A07A"/>
<path d="M65.4167 15.6316H65.0713V21.5934H65.4167V15.6316Z" fill="#C6A07A"/>
<path d="M66.1618 15.6316H65.8164V21.5934H66.1618V15.6316Z" fill="#C6A07A"/>
<path d="M66.9069 15.6316H66.5615V21.5934H66.9069V15.6316Z" fill="#C6A07A"/>
<path d="M77.8676 15.45H67.707V21.7753H77.8676V15.45Z" fill="#C6A07A"/>
<path d="M77.4316 15.8679H68.1436V21.3572H77.4316V15.8679Z" fill="#756B5D"/>
<path d="M68.8698 15.6316H68.5244V21.5934H68.8698V15.6316Z" fill="#C6A07A"/>
<path d="M69.6149 15.6316H69.2695V21.5934H69.6149V15.6316Z" fill="#C6A07A"/>
<path d="M70.361 15.6316H70.0156V21.5934H70.361V15.6316Z" fill="#C6A07A"/>
<path d="M71.1061 15.6316H70.7607V21.5934H71.1061V15.6316Z" fill="#C6A07A"/>
<path d="M71.8512 15.6316H71.5059V21.5934H71.8512V15.6316Z" fill="#C6A07A"/>
<path d="M72.5963 15.6316H72.251V21.5934H72.5963V15.6316Z" fill="#C6A07A"/>
<path d="M73.3414 15.6316H72.9961V21.5934H73.3414V15.6316Z" fill="#C6A07A"/>
<path d="M74.0866 15.6316H73.7412V21.5934H74.0866V15.6316Z" fill="#C6A07A"/>
<path d="M74.8317 15.6316H74.4863V21.5934H74.8317V15.6316Z" fill="#C6A07A"/>
<path d="M75.5768 15.6316H75.2314V21.5934H75.5768V15.6316Z" fill="#C6A07A"/>
<path d="M76.3219 15.6316H75.9766V21.5934H76.3219V15.6316Z" fill="#C6A07A"/>
<path d="M77.068 15.6316H76.7227V21.5934H77.068V15.6316Z" fill="#C6A07A"/>
<path d="M57.5282 9.12451H47.3677V15.4499H57.5282V9.12451Z" fill="#C6A07A"/>
<path d="M57.0918 9.54248H47.8037V15.0317H57.0918V9.54248Z" fill="#756B5D"/>
<path d="M48.5304 9.3064H48.1851V15.2682H48.5304V9.3064Z" fill="#C6A07A"/>
<path d="M49.276 9.3064H48.9307V15.2682H49.276V9.3064Z" fill="#C6A07A"/>
<path d="M50.0211 9.3064H49.6758V15.2682H50.0211V9.3064Z" fill="#C6A07A"/>
<path d="M50.7667 9.3064H50.4214V15.2682H50.7667V9.3064Z" fill="#C6A07A"/>
<path d="M51.5114 9.3064H51.166V15.2682H51.5114V9.3064Z" fill="#C6A07A"/>
<path d="M52.257 9.3064H51.9116V15.2682H52.257V9.3064Z" fill="#C6A07A"/>
<path d="M53.0021 9.3064H52.6567V15.2682H53.0021V9.3064Z" fill="#C6A07A"/>
<path d="M53.7472 9.3064H53.4019V15.2682H53.7472V9.3064Z" fill="#C6A07A"/>
<path d="M54.4928 9.3064H54.1475V15.2682H54.4928V9.3064Z" fill="#C6A07A"/>
<path d="M55.2379 9.3064H54.8926V15.2682H55.2379V9.3064Z" fill="#C6A07A"/>
<path d="M55.983 9.3064H55.6377V15.2682H55.983V9.3064Z" fill="#C6A07A"/>
<path d="M56.7282 9.3064H56.3828V15.2682H56.7282V9.3064Z" fill="#C6A07A"/>
<path d="M47.3676 9.12451H37.207V15.4499H47.3676V9.12451Z" fill="#C6A07A"/>
<path d="M46.9312 9.54248H37.6431V15.0317H46.9312V9.54248Z" fill="#756B5D"/>
<path d="M38.3522 9.3064H38.0068V15.2682H38.3522V9.3064Z" fill="#C6A07A"/>
<path d="M39.0973 9.3064H38.752V15.2682H39.0973V9.3064Z" fill="#C6A07A"/>
<path d="M39.8424 9.3064H39.4971V15.2682H39.8424V9.3064Z" fill="#C6A07A"/>
<path d="M40.588 9.3064H40.2427V15.2682H40.588V9.3064Z" fill="#C6A07A"/>
<path d="M41.3327 9.3064H40.9873V15.2682H41.3327V9.3064Z" fill="#C6A07A"/>
<path d="M42.0783 9.3064H41.7329V15.2682H42.0783V9.3064Z" fill="#C6A07A"/>
<path d="M42.8414 9.3064H42.4961V15.2682H42.8414V9.3064Z" fill="#C6A07A"/>
<path d="M43.587 9.3064H43.2417V15.2682H43.587V9.3064Z" fill="#C6A07A"/>
<path d="M44.3322 9.3064H43.9868V15.2682H44.3322V9.3064Z" fill="#C6A07A"/>
<path d="M45.0773 9.3064H44.7319V15.2682H45.0773V9.3064Z" fill="#C6A07A"/>
<path d="M45.8224 9.3064H45.4771V15.2682H45.8224V9.3064Z" fill="#C6A07A"/>
<path d="M46.568 9.3064H46.2227V15.2682H46.568V9.3064Z" fill="#C6A07A"/>
<path d="M47.3676 15.45H37.207V21.7753H47.3676V15.45Z" fill="#C6A07A"/>
<path d="M46.9312 15.8679H37.6431V21.3572H46.9312V15.8679Z" fill="#756B5D"/>
<path d="M38.3522 15.6316H38.0068V21.5934H38.3522V15.6316Z" fill="#C6A07A"/>
<path d="M39.0973 15.6316H38.752V21.5934H39.0973V15.6316Z" fill="#C6A07A"/>
<path d="M39.8424 15.6316H39.4971V21.5934H39.8424V15.6316Z" fill="#C6A07A"/>
<path d="M40.588 15.6316H40.2427V21.5934H40.588V15.6316Z" fill="#C6A07A"/>
<path d="M41.3327 15.6316H40.9873V21.5934H41.3327V15.6316Z" fill="#C6A07A"/>
<path d="M42.0783 15.6316H41.7329V21.5934H42.0783V15.6316Z" fill="#C6A07A"/>
<path d="M42.8414 15.6316H42.4961V21.5934H42.8414V15.6316Z" fill="#C6A07A"/>
<path d="M43.587 15.6316H43.2417V21.5934H43.587V15.6316Z" fill="#C6A07A"/>
<path d="M44.3322 15.6316H43.9868V21.5934H44.3322V15.6316Z" fill="#C6A07A"/>
<path d="M45.0773 15.6316H44.7319V21.5934H45.0773V15.6316Z" fill="#C6A07A"/>
<path d="M45.8224 15.6316H45.4771V21.5934H45.8224V15.6316Z" fill="#C6A07A"/>
<path d="M46.568 15.6316H46.2227V21.5934H46.568V15.6316Z" fill="#C6A07A"/>
<path d="M37.1889 15.45H27.0283V21.7753H37.1889V15.45Z" fill="#C6A07A"/>
<path d="M36.7524 15.8679H27.4644V21.3572H36.7524V15.8679Z" fill="#756B5D"/>
<path d="M28.1915 15.6316H27.8462V21.5934H28.1915V15.6316Z" fill="#C6A07A"/>
<path d="M28.9367 15.6316H28.5913V21.5934H28.9367V15.6316Z" fill="#C6A07A"/>
<path d="M29.6823 15.6316H29.3369V21.5934H29.6823V15.6316Z" fill="#C6A07A"/>
<path d="M30.4269 15.6316H30.0815V21.5934H30.4269V15.6316Z" fill="#C6A07A"/>
<path d="M31.1725 15.6316H30.8271V21.5934H31.1725V15.6316Z" fill="#C6A07A"/>
<path d="M31.9176 15.6316H31.5723V21.5934H31.9176V15.6316Z" fill="#C6A07A"/>
<path d="M32.6627 15.6316H32.3174V21.5934H32.6627V15.6316Z" fill="#C6A07A"/>
<path d="M33.4079 15.6316H33.0625V21.5934H33.4079V15.6316Z" fill="#C6A07A"/>
<path d="M34.1535 15.6316H33.8081V21.5934H34.1535V15.6316Z" fill="#C6A07A"/>
<path d="M34.8981 15.6316H34.5527V21.5934H34.8981V15.6316Z" fill="#C6A07A"/>
<path d="M35.6437 15.6316H35.2983V21.5934H35.6437V15.6316Z" fill="#C6A07A"/>
<path d="M36.3888 15.6316H36.0435V21.5934H36.3888V15.6316Z" fill="#C6A07A"/>
<path d="M57.5282 15.45H47.3677V21.7753H57.5282V15.45Z" fill="#99CC33"/>
<path d="M57.0918 15.8679H47.8037V21.3572H57.0918V15.8679Z" fill="#628421"/>
<path d="M48.5304 15.6316H48.1851V21.5934H48.5304V15.6316Z" fill="#99CC33"/>
<path d="M49.276 15.6316H48.9307V21.5934H49.276V15.6316Z" fill="#99CC33"/>
<path d="M50.0211 15.6316H49.6758V21.5934H50.0211V15.6316Z" fill="#99CC33"/>
<path d="M50.7667 15.6316H50.4214V21.5934H50.7667V15.6316Z" fill="#99CC33"/>
<path d="M51.5114 15.6316H51.166V21.5934H51.5114V15.6316Z" fill="#99CC33"/>
<path d="M52.257 15.6316H51.9116V21.5934H52.257V15.6316Z" fill="#99CC33"/>
<path d="M53.0021 15.6316H52.6567V21.5934H53.0021V15.6316Z" fill="#99CC33"/>
<path d="M53.7472 15.6316H53.4019V21.5934H53.7472V15.6316Z" fill="#99CC33"/>
<path d="M54.4928 15.6316H54.1475V21.5934H54.4928V15.6316Z" fill="#99CC33"/>
<path d="M55.2379 15.6316H54.8926V21.5934H55.2379V15.6316Z" fill="#99CC33"/>
<path d="M55.983 15.6316H55.6377V21.5934H55.983V15.6316Z" fill="#99CC33"/>
<path d="M56.7282 15.6316H56.3828V21.5934H56.7282V15.6316Z" fill="#99CC33"/>
<path d="M25.3378 40.5695C25.3379 40.452 25.2925 40.3391 25.2112 40.2544C25.1299 40.1697 25.0189 40.1197 24.9016 40.115H6.19815C6.13216 40.1016 6.06401 40.1031 5.99863 40.1192C5.93326 40.1354 5.8723 40.1659 5.82016 40.2085C5.76801 40.2511 5.726 40.3048 5.69714 40.3657C5.66829 40.4265 5.65332 40.493 5.65332 40.5604C5.65332 40.6277 5.66829 40.6942 5.69714 40.7551C5.726 40.8159 5.76801 40.8696 5.82016 40.9122C5.8723 40.9548 5.93326 40.9853 5.99863 41.0015C6.06401 41.0176 6.13216 41.0191 6.19815 41.0057H24.9016C25.0173 41.0057 25.1282 40.9597 25.21 40.8779C25.2919 40.7961 25.3378 40.6851 25.3378 40.5695Z" fill="#A2DBF4"/>
<path d="M75.3046 41.0057H94.008C94.1108 40.9848 94.2031 40.9291 94.2694 40.8479C94.3358 40.7668 94.372 40.6652 94.372 40.5604C94.372 40.4555 94.3358 40.354 94.2694 40.2728C94.2031 40.1916 94.1108 40.1359 94.008 40.115H75.3046C75.2386 40.1016 75.1705 40.1031 75.1051 40.1192C75.0397 40.1354 74.9787 40.1659 74.9266 40.2085C74.8745 40.2511 74.8324 40.3048 74.8036 40.3657C74.7747 40.4265 74.7598 40.493 74.7598 40.5604C74.7598 40.6277 74.7747 40.6942 74.8036 40.7551C74.8324 40.8159 74.8745 40.8696 74.9266 40.9122C74.9787 40.9548 75.0397 40.9853 75.1051 41.0015C75.1705 41.0176 75.2386 41.0191 75.3046 41.0057Z" fill="#A2DBF4"/>
<path d="M27.1552 41.0057H33.5351C33.6011 41.0191 33.6692 41.0176 33.7346 41.0015C33.8 40.9853 33.8609 40.9548 33.9131 40.9122C33.9652 40.8696 34.0072 40.8159 34.0361 40.7551C34.0649 40.6942 34.0799 40.6277 34.0799 40.5604C34.0799 40.493 34.0649 40.4265 34.0361 40.3657C34.0072 40.3048 33.9652 40.2511 33.9131 40.2085C33.8609 40.1659 33.8 40.1354 33.7346 40.1192C33.6692 40.1031 33.6011 40.1016 33.5351 40.115H27.1552C27.0892 40.1016 27.021 40.1031 26.9557 40.1192C26.8903 40.1354 26.8293 40.1659 26.7772 40.2085C26.725 40.2511 26.683 40.3048 26.6542 40.3657C26.6253 40.4265 26.6104 40.493 26.6104 40.5604C26.6104 40.6277 26.6253 40.6942 26.6542 40.7551C26.683 40.8159 26.725 40.8696 26.7772 40.9122C26.8293 40.9548 26.8903 40.9853 26.9557 41.0015C27.021 41.0176 27.0892 41.0191 27.1552 41.0057Z" fill="#A2DBF4"/>
<path d="M105.55 40.1152H99.1521C99.0493 40.1361 98.957 40.1918 98.8907 40.273C98.8243 40.3541 98.7881 40.4557 98.7881 40.5606C98.7881 40.6654 98.8243 40.767 98.8907 40.8481C98.957 40.9293 99.0493 40.985 99.1521 41.0059H105.55C105.653 40.985 105.745 40.9293 105.812 40.8481C105.878 40.767 105.914 40.6654 105.914 40.5606C105.914 40.4557 105.878 40.3541 105.812 40.273C105.745 40.1918 105.653 40.1361 105.55 40.1152Z" fill="#A2DBF4"/>
<path d="M37.0614 41.0057H72.7961C72.8988 40.9848 72.9911 40.9291 73.0575 40.8479C73.1238 40.7668 73.16 40.6652 73.16 40.5604C73.16 40.4555 73.1238 40.354 73.0575 40.2728C72.9911 40.1916 72.8988 40.1359 72.7961 40.115H37.0614C36.9954 40.1016 36.9273 40.1031 36.8619 40.1192C36.7965 40.1354 36.7356 40.1659 36.6834 40.2085C36.6313 40.2511 36.5893 40.3048 36.5604 40.3657C36.5316 40.4265 36.5166 40.493 36.5166 40.5604C36.5166 40.6277 36.5316 40.6942 36.5604 40.7551C36.5893 40.8159 36.6313 40.8696 36.6834 40.9122C36.7356 40.9548 36.7965 40.9853 36.8619 41.0015C36.9273 41.0176 36.9954 41.0191 37.0614 41.0057Z" fill="#A2DBF4"/>
<path d="M98.3703 41.6782H81.1028C80.9823 41.6782 80.8667 41.7261 80.7815 41.8113C80.6963 41.8965 80.6484 42.0121 80.6484 42.1326C80.6484 42.2531 80.6963 42.3687 80.7815 42.4539C80.8667 42.5392 80.9823 42.587 81.1028 42.587H98.3703C98.4909 42.587 98.6064 42.5392 98.6917 42.4539C98.7769 42.3687 98.8248 42.2531 98.8248 42.1326C98.8248 42.0121 98.7769 41.8965 98.6917 41.8113C98.6064 41.7261 98.4909 41.6782 98.3703 41.6782Z" fill="#A2DBF4"/>
<path d="M34.5351 41.6782H17.3221C17.2016 41.6782 17.086 41.7261 17.0008 41.8113C16.9156 41.8965 16.8677 42.0121 16.8677 42.1326C16.8677 42.2531 16.9156 42.3687 17.0008 42.4539C17.086 42.5392 17.2016 42.587 17.3221 42.587H34.5351C34.6556 42.587 34.7711 42.5392 34.8564 42.4539C34.9416 42.3687 34.9895 42.2531 34.9895 42.1326C34.9895 42.0121 34.9416 41.8965 34.8564 41.8113C34.7711 41.7261 34.6556 41.6782 34.5351 41.6782Z" fill="#A2DBF4"/>
<path d="M79.0307 41.6782H73.1234C73.0028 41.6782 72.8873 41.7261 72.802 41.8113C72.7168 41.8965 72.6689 42.0121 72.6689 42.1326C72.6689 42.2531 72.7168 42.3687 72.802 42.4539C72.8873 42.5392 73.0028 42.587 73.1234 42.587H79.0307C79.1512 42.587 79.2668 42.5392 79.352 42.4539C79.4372 42.3687 79.4851 42.2531 79.4851 42.1326C79.4851 42.0121 79.4372 41.8965 79.352 41.8113C79.2668 41.7261 79.1512 41.6782 79.0307 41.6782Z" fill="#A2DBF4"/>
<path d="M69.8878 41.6782H36.8978C36.7773 41.6782 36.6617 41.7261 36.5765 41.8113C36.4912 41.8965 36.4434 42.0121 36.4434 42.1326C36.4434 42.2531 36.4912 42.3687 36.5765 42.4539C36.6617 42.5392 36.7773 42.587 36.8978 42.587H69.8878C70.0083 42.587 70.1239 42.5392 70.2091 42.4539C70.2943 42.3687 70.3422 42.2531 70.3422 42.1326C70.3422 42.0121 70.2943 41.8965 70.2091 41.8113C70.1239 41.7261 70.0083 41.6782 69.8878 41.6782Z" fill="#A2DBF4"/>
<path d="M116.692 32.5719H0V27.9006H120L116.692 32.5719Z" fill="#EAEAEA"/>
<path d="M25.4465 30.2454C25.4238 30.3662 25.3596 30.4752 25.265 30.5537C25.1704 30.6321 25.0514 30.6751 24.9285 30.6751C24.8056 30.6751 24.6866 30.6321 24.592 30.5537C24.4974 30.4752 24.4332 30.3662 24.4105 30.2454C24.3961 30.1693 24.3988 30.0909 24.4182 30.0159C24.4376 29.9409 24.4733 29.8711 24.5228 29.8115C24.5722 29.7518 24.6342 29.7038 24.7043 29.6709C24.7745 29.6379 24.851 29.6208 24.9285 29.6208C25.006 29.6208 25.0825 29.6379 25.1526 29.6709C25.2227 29.7038 25.2847 29.7518 25.3342 29.8115C25.3837 29.8711 25.4194 29.9409 25.4388 30.0159C25.4582 30.0909 25.4608 30.1693 25.4465 30.2454Z" fill="#5E5E5E"/>
<path d="M29.5001 30.2454C29.5001 30.3804 29.4465 30.5098 29.351 30.6052C29.2556 30.7007 29.1262 30.7543 28.9912 30.7543C28.8704 30.7316 28.7614 30.6674 28.6829 30.5728C28.6045 30.4782 28.5615 30.3592 28.5615 30.2363C28.5615 30.1134 28.6045 29.9944 28.6829 29.8998C28.7614 29.8052 28.8704 29.741 28.9912 29.7183C29.0596 29.7182 29.1273 29.732 29.1902 29.7587C29.2532 29.7854 29.3101 29.8245 29.3576 29.8737C29.4051 29.9229 29.4422 29.9812 29.4667 30.045C29.4912 30.1089 29.5026 30.177 29.5001 30.2454Z" fill="#5E5E5E"/>
<path d="M33.608 30.2454C33.6035 30.3789 33.5484 30.5057 33.4539 30.6002C33.3595 30.6947 33.2326 30.7498 33.0991 30.7543C32.9783 30.7316 32.8693 30.6674 32.7908 30.5728C32.7124 30.4782 32.6694 30.3592 32.6694 30.2363C32.6694 30.1134 32.7124 29.9944 32.7908 29.8998C32.8693 29.8052 32.9783 29.741 33.0991 29.7183C33.2357 29.723 33.3652 29.7806 33.4601 29.8789C33.5551 29.9773 33.6081 30.1087 33.608 30.2454Z" fill="#5E5E5E"/>
<path d="M37.7155 30.2454C37.6928 30.3662 37.6286 30.4752 37.534 30.5537C37.4394 30.6321 37.3204 30.6751 37.1975 30.6751C37.0746 30.6751 36.9556 30.6321 36.861 30.5537C36.7664 30.4752 36.7022 30.3662 36.6795 30.2454C36.6652 30.1693 36.6678 30.0909 36.6872 30.0159C36.7066 29.9409 36.7423 29.8711 36.7918 29.8115C36.8413 29.7518 36.9033 29.7038 36.9734 29.6709C37.0435 29.6379 37.12 29.6208 37.1975 29.6208C37.275 29.6208 37.3515 29.6379 37.4217 29.6709C37.4918 29.7038 37.5538 29.7518 37.6032 29.8115C37.6527 29.8711 37.6884 29.9409 37.7078 30.0159C37.7272 30.0909 37.7299 30.1693 37.7155 30.2454Z" fill="#5E5E5E"/>
<path d="M41.8053 30.2454C41.8053 30.3122 41.7921 30.3784 41.7665 30.4401C41.741 30.5019 41.7035 30.558 41.6562 30.6052C41.609 30.6525 41.5529 30.69 41.4911 30.7156C41.4294 30.7411 41.3632 30.7543 41.2964 30.7543C41.1756 30.7316 41.0665 30.6674 40.9881 30.5728C40.9096 30.4782 40.8667 30.3592 40.8667 30.2363C40.8667 30.1134 40.9096 29.9944 40.9881 29.8998C41.0665 29.8052 41.1756 29.741 41.2964 29.7183C41.3647 29.7182 41.4324 29.732 41.4954 29.7587C41.5584 29.7854 41.6153 29.8245 41.6628 29.8737C41.7103 29.9229 41.7474 29.9812 41.7719 30.045C41.7964 30.1089 41.8077 30.177 41.8053 30.2454Z" fill="#5E5E5E"/>
<path d="M45.9132 30.2454C45.9087 30.3789 45.8536 30.5057 45.7591 30.6002C45.6646 30.6947 45.5378 30.7498 45.4043 30.7543C45.2835 30.7316 45.1745 30.6674 45.096 30.5728C45.0175 30.4782 44.9746 30.3592 44.9746 30.2363C44.9746 30.1134 45.0175 29.9944 45.096 29.8998C45.1745 29.8052 45.2835 29.741 45.4043 29.7183C45.5409 29.723 45.6703 29.7806 45.7653 29.8789C45.8602 29.9773 45.9133 30.1087 45.9132 30.2454Z" fill="#5E5E5E"/>
<path d="M50.0212 30.2454C49.9985 30.3662 49.9343 30.4752 49.8397 30.5537C49.7451 30.6321 49.6261 30.6751 49.5032 30.6751C49.3803 30.6751 49.2613 30.6321 49.1667 30.5537C49.0721 30.4752 49.0079 30.3662 48.9852 30.2454C48.9708 30.1693 48.9735 30.0909 48.9929 30.0159C49.0123 29.9409 49.048 29.8711 49.0975 29.8115C49.1469 29.7518 49.2089 29.7038 49.2791 29.6709C49.3492 29.6379 49.4257 29.6208 49.5032 29.6208C49.5807 29.6208 49.6572 29.6379 49.7273 29.6709C49.7974 29.7038 49.8594 29.7518 49.9089 29.8115C49.9584 29.8711 49.9941 29.9409 50.0135 30.0159C50.0329 30.0909 50.0355 30.1693 50.0212 30.2454Z" fill="#5E5E5E"/>
<path d="M54.1105 30.2454C54.1105 30.3122 54.0973 30.3784 54.0717 30.4401C54.0462 30.5019 54.0087 30.558 53.9614 30.6052C53.9141 30.6525 53.858 30.69 53.7963 30.7156C53.7345 30.7411 53.6684 30.7543 53.6015 30.7543C53.4808 30.7316 53.3717 30.6674 53.2933 30.5728C53.2148 30.4782 53.1719 30.3592 53.1719 30.2363C53.1719 30.1134 53.2148 29.9944 53.2933 29.8998C53.3717 29.8052 53.4808 29.741 53.6015 29.7183C53.6699 29.7182 53.7376 29.732 53.8006 29.7587C53.8635 29.7854 53.9205 29.8245 53.968 29.8737C54.0155 29.9229 54.0526 29.9812 54.0771 30.045C54.1016 30.1089 54.1129 30.177 54.1105 30.2454Z" fill="#5E5E5E"/>
<path d="M58.1642 30.2454C58.1596 30.3789 58.1046 30.5057 58.0101 30.6002C57.9156 30.6947 57.7888 30.7498 57.6552 30.7543C57.5345 30.7316 57.4254 30.6674 57.347 30.5728C57.2685 30.4782 57.2256 30.3592 57.2256 30.2363C57.2256 30.1134 57.2685 29.9944 57.347 29.8998C57.4254 29.8052 57.5345 29.741 57.6552 29.7183C57.7919 29.723 57.9213 29.7806 58.0163 29.8789C58.1112 29.9773 58.1643 30.1087 58.1642 30.2454Z" fill="#5E5E5E"/>
<path d="M62.3263 30.2454C62.3218 30.3789 62.2667 30.5057 62.1722 30.6002C62.0777 30.6947 61.9509 30.7498 61.8173 30.7543C61.6966 30.7316 61.5875 30.6674 61.5091 30.5728C61.4306 30.4782 61.3877 30.3592 61.3877 30.2363C61.3877 30.1134 61.4306 29.9944 61.5091 29.8998C61.5875 29.8052 61.6966 29.741 61.8173 29.7183C61.954 29.723 62.0834 29.7806 62.1784 29.8789C62.2733 29.9773 62.3264 30.1087 62.3263 30.2454Z" fill="#5E5E5E"/>
</svg>
