<svg viewBox="0 0 13 20" xmlns="http://www.w3.org/2000/svg">
<path fill-rule="evenodd" clip-rule="evenodd" d="M4.88417 1.78769C5.86874 0.803123 7.2041 0.25 8.59648 0.25H11.2965C11.7107 0.25 12.0465 0.585786 12.0465 1V4.6C12.0465 5.01421 11.7107 5.35 11.2965 5.35H8.59648C8.5567 5.35 8.51855 5.3658 8.49042 5.39393C8.46229 5.42206 8.44648 5.46022 8.44648 5.5V7.45H11.2965C11.5274 7.45 11.7455 7.5564 11.8876 7.73844C12.0298 7.92048 12.0801 8.15785 12.0241 8.3819L11.1241 11.9819C11.0406 12.3158 10.7406 12.55 10.3965 12.55H8.44648V19C8.44648 19.4142 8.1107 19.75 7.69648 19.75H4.09648C3.68227 19.75 3.34648 19.4142 3.34648 19V12.55H1.39648C0.982271 12.55 0.646484 12.2142 0.646484 11.8V8.2C0.646484 7.78579 0.982271 7.45 1.39648 7.45H3.34648V5.5C3.34648 4.10761 3.89961 2.77226 4.88417 1.78769ZM8.59648 1.75C7.60192 1.75 6.6481 2.14509 5.94483 2.84835C5.24157 3.55161 4.84648 4.50544 4.84648 5.5V8.2C4.84648 8.61421 4.5107 8.95 4.09648 8.95H2.14648V11.05H4.09648C4.5107 11.05 4.84648 11.3858 4.84648 11.8V18.25H6.94648V11.8C6.94648 11.3858 7.28227 11.05 7.69648 11.05H9.8109L10.3359 8.95H7.69648C7.28227 8.95 6.94648 8.61421 6.94648 8.2V5.5C6.94648 5.06239 7.12032 4.64271 7.42976 4.33327C7.73919 4.02384 8.15888 3.85 8.59648 3.85H10.5465V1.75H8.59648Z"/>
</svg>