<svg viewBox="0 0 19 20" xmlns="http://www.w3.org/2000/svg">
<path d="M13.5583 4.99956C13.5583 4.44727 14.006 3.99956 14.5583 3.99956C15.1106 3.99956 15.5583 4.44727 15.5583 4.99956C15.5583 5.55184 15.1106 5.99956 14.5583 5.99956C14.006 5.99956 13.5583 5.55184 13.5583 4.99956Z"/>
<path fill-rule="evenodd" clip-rule="evenodd" d="M9.55829 5.24956C6.93494 5.24956 4.80829 7.3762 4.80829 9.99956C4.80829 12.6229 6.93494 14.7496 9.55829 14.7496C12.1816 14.7496 14.3083 12.6229 14.3083 9.99956C14.3083 7.3762 12.1816 5.24956 9.55829 5.24956ZM6.30829 9.99956C6.30829 8.20463 7.76336 6.74956 9.55829 6.74956C11.3532 6.74956 12.8083 8.20463 12.8083 9.99956C12.8083 11.7945 11.3532 13.2496 9.55829 13.2496C7.76336 13.2496 6.30829 11.7945 6.30829 9.99956Z"/>
<path fill-rule="evenodd" clip-rule="evenodd" d="M14.8165 0.832573C11.35 0.445132 7.76663 0.445132 4.30006 0.832573C2.288 1.05745 0.663667 2.64246 0.427114 4.66499C0.0125765 8.20929 0.0125764 11.7898 0.427114 15.3341C0.663667 17.3567 2.288 18.9417 4.30006 19.1665C7.76663 19.554 11.35 19.554 14.8165 19.1665C16.8286 18.9417 18.4529 17.3567 18.6895 15.3341C19.104 11.7898 19.104 8.20929 18.6895 4.66499C18.4529 2.64246 16.8286 1.05745 14.8165 0.832573ZM4.46667 2.32329C7.82251 1.94823 11.2941 1.94823 14.6499 2.32329C15.98 2.47195 17.0455 3.52156 17.1996 4.83924C17.6006 8.26777 17.6006 11.7313 17.1996 15.1599C17.0455 16.4775 15.98 17.5272 14.6499 17.6758C11.2941 18.0509 7.82252 18.0509 4.46667 17.6758C3.13656 17.5272 2.07107 16.4775 1.91696 15.1599C1.51596 11.7313 1.51596 8.26777 1.91696 4.83924C2.07107 3.52156 3.13656 2.47195 4.46667 2.32329Z"/>
</svg>