<svg viewBox="0 0 20 20" xmlns="http://www.w3.org/2000/svg">
<path d="M11.2042 9.27251C11.5776 9.38386 11.9335 9.54721 12.2614 9.75774C12.5964 9.97795 12.8756 10.2737 13.0772 10.6202C13.286 11.004 13.3917 11.4353 13.3841 11.8722C13.4017 12.4356 13.2338 12.9893 12.9062 13.4481C12.5616 13.9191 12.0886 14.2808 11.5438 14.4898C10.9577 14.7237 10.3303 14.8365 9.69941 14.8212C8.957 14.8421 8.22057 14.6829 7.55308 14.3572C7.11438 14.1263 6.73773 13.7932 6.45496 13.386C6.17202 12.9945 6.01349 12.5268 6 12.044C6 11.827 6.08621 11.6188 6.23967 11.4654C6.39312 11.3119 6.60125 11.2257 6.81827 11.2257C7.03529 11.2257 7.24342 11.3119 7.39688 11.4654C7.55033 11.6188 7.63654 11.827 7.63654 12.044C7.65335 12.1936 7.71048 12.3359 7.80183 12.4556C7.93198 12.6426 8.10476 12.7961 8.30589 12.9032C8.74136 13.1066 9.21912 13.2031 9.69941 13.1847C10.1147 13.1982 10.5285 13.1281 10.9162 12.9785C11.1763 12.885 11.404 12.7189 11.5724 12.4998C11.6971 12.3258 11.7589 12.1145 11.7475 11.9008C11.7561 11.7357 11.7229 11.571 11.651 11.4221C11.5766 11.3001 11.475 11.197 11.354 11.121C11.1599 10.9987 10.9498 10.9039 10.7296 10.8395C10.5504 10.7847 10.3548 10.7315 10.1519 10.6791L10.1372 10.6775C10.1281 10.6745 10.1154 10.6714 10.1042 10.6687C10.1002 10.6678 10.0964 10.6669 10.093 10.666C9.96043 10.6325 9.82788 10.5989 9.68631 10.5678C9.32464 10.4901 9.07425 10.4271 8.91714 10.3796C8.91359 10.3787 8.91052 10.3766 8.9074 10.3745C8.90478 10.3727 8.90213 10.3709 8.89914 10.3698C8.53581 10.2817 8.17857 10.1702 7.82966 10.036C7.3679 9.85073 6.96236 9.54841 6.65298 9.15877C6.33253 8.73824 6.16511 8.22097 6.17838 7.69243C6.17849 7.16152 6.35204 6.64518 6.67262 6.22199C7.00732 5.79639 7.45425 5.47274 7.96303 5.28752C8.52561 5.08534 9.12056 4.98827 9.71823 5.00113C10.1884 4.99593 10.6567 5.06102 11.1077 5.19424C11.4983 5.30815 11.8643 5.49379 12.187 5.74167C12.4662 5.95362 12.6993 6.22037 12.8718 6.52557C12.9236 6.62025 12.9562 6.72423 12.9676 6.83154C12.979 6.93884 12.9691 7.04735 12.9384 7.15081C12.9078 7.25427 12.8569 7.35064 12.7888 7.43437C12.7208 7.51811 12.6368 7.58755 12.5418 7.6387C12.4468 7.68985 12.3426 7.7217 12.2352 7.73242C12.1278 7.74314 12.0194 7.73251 11.9161 7.70115C11.8129 7.66979 11.7168 7.61832 11.6336 7.54969C11.5503 7.48107 11.4814 7.39665 11.4309 7.30129C11.3611 7.19149 11.2708 7.09619 11.1649 7.02062C11.0012 6.90125 10.8175 6.81202 10.6224 6.75714C10.3283 6.67286 10.0233 6.6326 9.71741 6.63767C9.32207 6.62602 8.92787 6.68589 8.55383 6.81442C8.33145 6.89017 8.13358 7.02444 7.98104 7.2031C7.87205 7.34259 7.81299 7.51459 7.81329 7.69161C7.79991 7.8567 7.84638 8.02109 7.94421 8.15475C8.07789 8.31809 8.25153 8.44409 8.44827 8.52052C8.83 8.66751 9.22295 8.78353 9.62331 8.86746C9.9588 8.94111 10.2305 9.00657 10.4596 9.07039C10.7214 9.13504 10.9751 9.20296 11.2042 9.27251Z" />
<path fill-rule="evenodd" clip-rule="evenodd" d="M6 0.75C3.1005 0.75 0.75 3.1005 0.75 6C0.75 6.84325 0.949338 7.64173 1.30383 8.34921C1.20277 8.88454 1.15 9.43643 1.15 10C1.15 14.8877 5.11228 18.85 10 18.85C10.5636 18.85 11.1155 18.7972 11.6508 18.6962C12.3583 19.0507 13.1568 19.25 14 19.25C16.8995 19.25 19.25 16.8995 19.25 14C19.25 13.1568 19.0507 12.3583 18.6962 11.6508C18.7972 11.1155 18.85 10.5636 18.85 10C18.85 5.11228 14.8877 1.15 10 1.15C9.43643 1.15 8.88454 1.20277 8.34921 1.30383C7.64173 0.949338 6.84325 0.75 6 0.75ZM2.25 6C2.25 3.92893 3.92893 2.25 6 2.25C6.67891 2.25 7.31357 2.42974 7.86141 2.74371C8.02359 2.83666 8.21463 2.86569 8.3971 2.82513C8.91239 2.71057 9.44868 2.65 10 2.65C14.0593 2.65 17.35 5.94071 17.35 10C17.35 10.5513 17.2894 11.0876 17.1749 11.6029C17.1343 11.7854 17.1633 11.9764 17.2563 12.1386C17.5703 12.6864 17.75 13.3211 17.75 14C17.75 16.0711 16.0711 17.75 14 17.75C13.3211 17.75 12.6864 17.5703 12.1386 17.2563C11.9764 17.1633 11.7854 17.1343 11.6029 17.1749C11.0876 17.2894 10.5513 17.35 10 17.35C5.94071 17.35 2.65 14.0593 2.65 10C2.65 9.44868 2.71057 8.91239 2.82513 8.3971C2.86569 8.21463 2.83666 8.02359 2.74371 7.86141C2.42974 7.31357 2.25 6.67891 2.25 6Z" />
</svg>