<svg viewBox="0 0 24 16" xmlns="http://www.w3.org/2000/svg">
<path fill-rule="evenodd" clip-rule="evenodd" d="M23.2013 12.6736C22.6575 11.5781 21.9408 10.5774 21.0789 9.70987C20.7856 9.36892 20.4417 9.03242 20.1732 8.76976L20.1357 8.73306C19.9972 8.59754 19.8828 8.48503 19.7891 8.3881C20.9677 6.74934 21.9763 4.99454 22.7994 3.15082L22.8326 3.07643L22.8559 2.99836C22.964 2.63546 23.0886 1.94539 22.6479 1.32176C22.1924 0.677183 21.463 0.560936 20.9746 0.560936H18.7275C18.259 0.539459 17.7952 0.6661 17.4022 0.923573C17.0062 1.18299 16.7033 1.56137 16.5366 2.00369C16.0526 3.15639 15.4471 4.25279 14.7311 5.27458V2.64129C14.7311 2.30089 14.6991 1.73149 14.3346 1.25089C13.8982 0.675448 13.2671 0.560936 12.829 0.560936H9.26347C8.8041 0.550312 8.35733 0.714568 8.01399 1.02118C7.66238 1.33519 7.4469 1.7738 7.41326 2.24402L7.41007 2.28857V2.33323C7.41007 2.8187 7.60245 3.17682 7.75613 3.40203C7.82494 3.50287 7.89854 3.59465 7.94503 3.65263L7.95576 3.66601C8.00534 3.72782 8.03843 3.76908 8.07164 3.81426C8.15899 3.93307 8.28463 4.11627 8.32018 4.59033V6.06329C7.70549 5.05282 7.05705 3.70816 6.56915 2.27203L6.56166 2.24999L6.55336 2.22825C6.4317 1.90963 6.23658 1.44603 5.8458 1.09126C5.38927 0.676806 4.84928 0.560936 4.3582 0.560936H2.07826C1.58145 0.560936 0.982521 0.67716 0.535623 1.14859C0.0961597 1.61217 0.0463867 2.16766 0.0463867 2.46302V2.59615L0.0744256 2.72629C0.70593 5.6574 2.00715 8.40227 3.87585 10.7462C4.72306 12.0823 5.87107 13.2022 7.22852 14.0161C8.60763 14.8431 10.1635 15.3305 11.7679 15.4383L11.8097 15.4411H11.8517C12.5775 15.4411 13.3342 15.3785 13.9032 14.9993C14.6708 14.4878 14.7311 13.7022 14.7311 13.3107V12.1728C14.9281 12.332 15.1725 12.5464 15.4717 12.8344C15.8334 13.1965 16.1213 13.5102 16.3684 13.784L16.5002 13.9306L16.501 13.9314C16.6928 14.145 16.8816 14.3553 17.0535 14.5281C17.2696 14.7453 17.536 14.9847 17.8709 15.1615C18.2335 15.353 18.6141 15.4396 19.0183 15.4396H21.2998C21.7805 15.4396 22.4699 15.3259 22.9546 14.764C23.4828 14.1516 23.4424 13.401 23.2764 12.8616L23.2465 12.7646L23.2013 12.6736ZM17.4821 12.7792C17.2253 12.4945 16.9156 12.157 16.5242 11.7657L16.521 11.7625C15.1649 10.455 14.5312 10.2272 14.0831 10.2272C13.8449 10.2272 13.5812 10.254 13.4101 10.4671C13.3293 10.5677 13.2869 10.6891 13.2631 10.8156C13.2393 10.9419 13.2311 11.0902 13.2311 11.2591V13.3107C13.2311 13.5655 13.1892 13.6725 13.0714 13.7511C12.9144 13.8557 12.5789 13.9405 11.8601 13.9411C10.4957 13.8481 9.1728 13.433 7.99988 12.7297C6.82456 12.025 5.83347 11.0511 5.10826 9.88831L5.10037 9.87566L5.09102 9.86403C3.34976 7.69673 2.13641 5.15431 1.54669 2.43769C1.54988 2.30673 1.57826 2.22904 1.62423 2.18055C1.6716 2.13058 1.78637 2.06094 2.07826 2.06094H4.3582C4.61183 2.06094 4.74309 2.11611 4.83755 2.20187C4.94465 2.29909 5.03754 2.4642 5.15039 2.75902C5.71001 4.40499 6.46677 5.94427 7.18339 7.07611C7.54157 7.64183 7.89408 8.11268 8.21168 8.44544C8.37022 8.61154 8.5257 8.74923 8.67409 8.84707C8.81771 8.94178 8.98052 9.01648 9.14796 9.01648C9.23632 9.01648 9.33967 9.0074 9.43917 8.96334C9.54622 8.91594 9.6293 8.83696 9.68797 8.73112C9.79175 8.54389 9.82018 8.26657 9.82018 7.9033V4.53959L9.81968 4.53169C9.76785 3.71335 9.52077 3.25303 9.28019 2.92578C9.22747 2.85406 9.17548 2.78928 9.12998 2.73259L9.11751 2.71705C9.06756 2.65476 9.02781 2.60441 8.99514 2.55654C8.93529 2.46884 8.9121 2.40768 8.9102 2.34216C8.918 2.26437 8.95467 2.1922 9.01313 2.13998C9.07383 2.08578 9.15324 2.05756 9.23455 2.06094H12.829C13.0351 2.06094 13.1045 2.11122 13.1394 2.15727C13.1887 2.2223 13.2311 2.35752 13.2311 2.64129V7.1699C13.2311 7.70783 13.479 8.07198 13.8392 8.07198C14.2536 8.07198 14.5523 7.82055 15.0746 7.2982L15.0834 7.28948L15.0912 7.27994C16.262 5.85215 17.2189 4.26158 17.9311 2.55803L17.9356 2.54525C17.9892 2.39472 18.0905 2.26585 18.2242 2.1783C18.3578 2.09074 18.5164 2.04932 18.6758 2.06034L18.6844 2.06094H20.9746C21.2869 2.06094 21.3897 2.14042 21.4229 2.18743C21.4582 2.23745 21.4828 2.34464 21.4227 2.55485C20.6017 4.39125 19.5863 6.13439 18.3944 7.75496L18.3869 7.76644C18.2712 7.94337 18.1443 8.13915 18.1259 8.36398C18.1062 8.6054 18.2106 8.82485 18.3934 9.06009C18.5266 9.25704 18.8013 9.52593 19.08 9.79871L19.1063 9.82443C19.3985 10.1104 19.715 10.4202 19.9691 10.7202L19.9759 10.7281L19.9833 10.7355C20.7408 11.4911 21.3707 12.3645 21.8484 13.3218C21.9246 13.5824 21.878 13.7156 21.8187 13.7843C21.7493 13.8647 21.594 13.9396 21.2998 13.9396H19.0183C18.8402 13.9396 18.7027 13.9045 18.5713 13.8351C18.4344 13.7628 18.2936 13.6477 18.117 13.4702C17.9748 13.3273 17.8194 13.1543 17.6298 12.9434C17.5828 12.891 17.5336 12.8363 17.4821 12.7792Z"/>
</svg>