<svg viewBox="0 0 22 16"  xmlns="http://www.w3.org/2000/svg">
<path fill-rule="evenodd" clip-rule="evenodd" d="M9.13697 4.35642C8.90527 4.2174 8.61671 4.21376 8.38157 4.34689C8.14644 4.48002 8.0011 4.72934 8.0011 4.99954V10.9995C8.0011 11.2697 8.14644 11.5191 8.38157 11.6522C8.61671 11.7853 8.90527 11.7817 9.13697 11.6427L14.137 8.64266C14.3629 8.50712 14.5011 8.26299 14.5011 7.99954C14.5011 7.7361 14.3629 7.49197 14.137 7.35642L9.13697 4.35642ZM12.2934 7.99954L9.5011 9.6749V6.32419L12.2934 7.99954Z" />
<path fill-rule="evenodd" clip-rule="evenodd" d="M15.7818 0.640823C12.4331 0.37884 9.06913 0.37884 5.72048 0.640823L3.47978 0.816125C2.11721 0.922726 1.00253 1.94393 0.777292 3.29197C0.256528 6.40875 0.256528 9.59033 0.777292 12.7071C1.00253 14.0552 2.11721 15.0764 3.47978 15.183L5.72048 15.3583C9.06913 15.6202 12.4331 15.6202 15.7818 15.3583L18.0225 15.183C19.385 15.0764 20.4997 14.0552 20.725 12.7071C21.2457 9.59033 21.2457 6.40875 20.725 3.29197C20.4997 1.94393 19.385 0.922726 18.0225 0.816125L15.7818 0.640823ZM5.83748 2.13625C9.10825 1.88036 12.394 1.88036 15.6648 2.13625L17.9055 2.31156C18.5811 2.36441 19.1338 2.87076 19.2455 3.53917C19.7389 6.49228 19.7389 9.5068 19.2455 12.4599C19.1338 13.1283 18.5811 13.6347 17.9055 13.6875L15.6648 13.8628C12.394 14.1187 9.10825 14.1187 5.83748 13.8628L3.59678 13.6875C2.92117 13.6347 2.36846 13.1283 2.25678 12.4599C1.76336 9.5068 1.76336 6.49228 2.25678 3.53917C2.36846 2.87076 2.92117 2.36441 3.59678 2.31156L5.83748 2.13625Z" />
</svg>