<svg width="511" height="468" fill="none" xmlns="http://www.w3.org/2000/svg"><path opacity=".7" d="M.999 279.131c19.865-25.807 72.479-76.13 124.019-70.969 64.426 6.452-57.983 127.421 0 127.421s85.364-148.389 127.241-148.389c41.877 0-46.709 109.679 0 116.131 46.708 6.451 85.364-154.841 136.904-156.454 51.541-1.613-53.151 132.26 30.602 132.26" stroke="url(#a)" stroke-width="2"/><path d="m289.778 437.504-20.203-1.713 1.027-25.009 20.375 1.884-1.199 24.838Z" fill="#D88D6C"/><path d="M252.11 434.078s13.354-6.167 15.58-10.62c0 0 3.938-14.389 9.931-6.852 0 0 6.164 4.967 14.896 1.028l1.027 27.235-60.439-.171c1.54-4.111 2.91-8.736 19.005-10.62Z" fill="url(#b)"/><path d="m293.544 445.041.342 4.282-60.953-.171c0-1.713-.513-2.569.343-4.282l60.268.171Z" fill="#C73E39"/><path d="m378.295 434.078-20.204 3.425-5.307-24.323 20.032-3.426 5.479 24.324Z" fill="#D88D6C"/><path d="M339.429 434.078s13.355-6.166 15.581-10.62c0 0-3.082-11.305 4.109-5.653 0 0 12.328 4.625 17.464-1.027l4.109 28.263-60.439-.171c1.884-4.283 3.253-8.908 19.176-10.792Z" fill="url(#c)"/><path d="m380.864 445.04.342 4.283-60.953-.172c0-1.712-.514-2.569.343-4.282l60.268.171Z" fill="#C73E39"/><path d="M266.149 201.807s-3.595 102.946-.342 219.938c0 0 9.759 9.25 28.25 3.083 0 0-.171-130.181 4.795-181.911 0 0 23.285 98.321 52.734 183.453 0 0 19.69 3.768 26.71-7.366 0 0-39.722-137.889-45.544-217.197h-66.603Z" fill="url(#d)"/><path d="M266.149 201.807h66.603c.514 5.995 1.028 12.333 1.884 18.842-39.722.171-60.782-9.935-68.658-14.56 0-2.912.171-4.282.171-4.282Z" fill="#402B2B" fill-opacity=".5" style="mix-blend-mode:multiply"/><path d="M510.36 388.846H408.552v78.615H510.36v-78.615Z" fill="#8C5E5E"/><path d="M510.525 388.846h-37.066v78.614h37.066v-78.614Z" fill="#694646"/><path d="M497.84 388.846h-9.555v10.877h9.555v-10.877Zm-54.692 0h-9.555v10.877h9.555v-10.877Z" fill="#A3774A"/><path d="M443.597 388.846H341.789v78.615h101.808v-78.615Z" fill="#F7A58D"/><path d="M443.761 388.846h-37.066v78.614h37.066v-78.614Z" fill="#F58A6B"/><path d="M431.076 388.846h-9.555v10.877h9.555v-10.877Zm-54.694 0h-9.555v10.877h9.555v-10.877Z" fill="#fff"/><path d="M469.561 312.534H367.753v78.615h101.808v-78.615Z" fill="#F7A58D"/><path d="M469.725 312.534h-37.066v78.615h37.066v-78.615Z" fill="#F58A6B"/><path d="M457.041 312.534h-9.555v10.878h9.555v-10.878Zm-54.694 0h-9.555v10.878h9.555v-10.878Z" fill="#fff"/><path d="M272.827 29.317h16.436l2.226-9.935s-6.506 3.769-8.047 1.2c-1.541-2.57-1.198-1.542-2.739-1.2-1.541.343-1.541-1.713-3.425-.514-2.054 1.37-5.136 7.88-4.451 10.45Z" fill="#6B1912"/><path d="m236.684 158.34 16.268-24.592 23.457 6.81c-.908 7.264-16.017 29.006-23.457 38.968l-16.268-21.186Z" fill="url(#e)"/><path d="M238.953 149.441c7.987-36.33 23.689-61.228 23.689-61.228 8.837 1.94 12.078 32.843 12.078 32.843-1.873 10.792-7.561 38.842-12.078 49.194l-23.689-20.809Z" fill="url(#f)"/><path d="M262.554 87.81s.856 19.699 3.424 114.423c0 0 23.285 11.819 69.685 3.597 0 0 .171-28.435 6.506-53.614 0 0 11.814-47.448 5.822-61.323 0 0-37.839-23.467-85.437-3.083Z" fill="url(#g)"/><path d="m298.508 69.036-.342 12.265s2.911 4.282 9.931 4.796c7.019.343 10.444-3.597 10.444-3.597l.685-18.26c-8.732 3.769-17.293 5.31-20.718 4.796Z" fill="url(#h)"/><path d="m299.194 64-.685 13.532c3.424.514 11.985-1.028 20.546-4.796l.513-8.736h-20.374Z" fill="url(#i)" style="mix-blend-mode:multiply"/><path d="M345.594 117.614s-10.102 22.782-13.698 33.059c-3.595 10.107-3.595 50.36-22.429 58.068 0 0 20.032-1.199 26.367-2.912 0 0 .343-30.318 6.506-53.614 0 0 4.281-24.495 5.993-35.629l-2.739 1.028Z" fill="#EE4D47" fill-opacity=".3" style="mix-blend-mode:multiply"/><path d="M332.238 34.196c-.342.171-.685 5.652-.685 5.652l-1.369 11.477-6.335 4.967-3.596 1.542s-5.308-2.227-4.623-4.282c.685-1.885 4.109-28.948 4.794-28.948.685 0 6.164 3.94 6.164 3.94l5.65 5.652Zm-50.167-10.278c-1.541 0 .856 18.842.856 18.842l2.74-7.537 1.883-9.078-5.479-2.227Z" fill="#402B2B"/><path d="m284.641 27.687-2.911 24.152s-1.027 20.383 15.752 21.582c16.779 1.028 28.251-15.587 28.251-15.587s2.054 2.398 4.28-1.713c2.055-4.11.685-9.592-2.226-10.106-3.082-.343-4.451 1.37-4.794 3.94a104.78 104.78 0 0 1-.685 4.453l-2.568-.342 1.884-19.87s-3.938-7.708-8.39-9.25c-4.452-1.542-8.39 4.625-8.39 4.625s-4.109.856-8.047 0c-3.938-.857-6.506-1.884-6.506-1.884s-2.397.685-5.65 0Z" fill="url(#j)"/><path d="M296.797 64.172c5.65.342 6.506-6.167 6.506-6.167s-13.012-1.541-13.355-1.713c0 0-1.027 7.366 6.849 7.88Z" fill="#893D43"/><path d="M302.79 60.06c.513-1.198.685-2.055.685-2.055s-13.013-1.541-13.355-1.713c0 0-.171.857 0 2.227l12.67 1.542Z" fill="#FFFEFF"/><path d="M302.275 21.52V4.048c10.444.514 21.231 2.57 26.539 9.079 6.335 7.708 2.739 25.522 2.739 25.522s-7.705-.856-9.074-3.426c-1.37-2.569-14.383-6.166-24.313-5.652-9.931.514-14.725-.514-19.69-4.796-1.027-.857-1.883-2.056-2.568-3.426h26.367v.171Z" fill="#402B2B"/><path d="M332.753 32.14s-7.363-2.398-19.69-3.426c-20.717-8.735-29.621-7.194-29.621-7.194s.172-6.68 2.055-11.305C287.38 5.59 300.05-.919 310.666.109c10.615 1.028 21.573 8.907 23.285 16.444 1.37 5.824-1.198 15.587-1.198 15.587Z" fill="url(#k)"/><path d="M320.255 29.57c-2.226-10.62-18.149-15.93-29.449-15.758-11.129.171-19.005 9.421-20.204 15.759-.513 2.57 1.541 2.912 2.226.685.514-1.542 1.541-8.907 11.814-8.05 10.273.856 9.759 10.106 14.896 10.962 4.794.857 10.273-2.57 20.717-3.597Z" fill="url(#l)"/><path d="M285.839 31.969v-1.2c.514 0 4.452-.513 9.246.514l-.171 1.885c-3.938-1.2-9.075-1.2-9.075-1.2Zm28.935 4.283c-3.082-1.713-8.903-2.57-8.903-2.74l.685-1.714c.171 0 5.479 1.028 8.903 3.255l-.685 1.199Z" fill="#402B2B"/><path d="M297.654 42.075s-.514 3.597-1.884 4.625c-1.369 1.028-3.766 1.884-4.109 2.74-.342.686.343 2.056 1.884 2.57 1.541.514 1.712 1.028 1.712 1.028s-3.082.342-4.623-1.542c-1.541-1.884.171-3.426 1.712-4.282 1.541-.856 2.226-1.2 2.911-1.713.856-.514 2.397-3.426 2.397-3.426Z" fill="#D87C60"/><path d="M305.016 43.96c0 1.712 1.199 3.254 2.74 3.254 1.541 0 2.739-1.37 2.739-3.255 0-1.713-1.198-3.254-2.739-3.254s-2.74 1.37-2.74 3.254Zm-18.834-2.227c0 1.713 1.199 3.254 2.74 3.254 1.541 0 2.739-1.37 2.739-3.255 0-1.712-1.198-3.254-2.739-3.254-1.541.171-2.74 1.542-2.74 3.255Z" fill="#402B2B"/><path d="M203.167 116.974a2.731 2.731 0 0 1 4.815-2.58l9.03 16.85-4.815 2.58-9.03-16.85Z" fill="#fff"/><path d="m204.91 120.148 4.772-2.557 10.32 19.257-4.772 2.557-10.32-19.257Z" fill="#822626"/><path d="M274.896 169.115c-2.118-4.237-1.639-7.566-1.135-8.701 2.144 1.261 6.583 4.464 7.189 7.188.605 2.724-.757 6.179-1.514 7.567-.63-.253-2.421-1.816-4.54-6.054Z" fill="url(#m)"/><path d="M184.122 139.951c-.944-3.203 1.457-6.413 4.796-6.413h56.918a5 5 0 0 1 4.796 3.587l21.254 72.14c.943 3.202-1.457 6.413-4.796 6.413h-56.919a5.001 5.001 0 0 1-4.796-3.587l-21.253-72.14Z" fill="#fff"/><path d="M182.935 136.234c-.838-3.172 1.553-6.278 4.834-6.278h57a5 5 0 0 1 4.834 3.722l21.555 81.528c.839 3.172-1.553 6.278-4.834 6.278h-56.999a5 5 0 0 1-4.834-3.721l-21.556-81.529Z" fill="url(#n)"/><path fill-rule="evenodd" clip-rule="evenodd" d="M336.521 167.46c12.498-18.157 14.21-73.141 14.21-73.141-11.5 1.496-16.993 12.88-20.521 20.193-1.725 3.574-2.98 6.176-4.239 6.176l-5.296 33.672-52.967 9.458-.13.182c-2.608.068-11.664.579-17.578 4.345 0 0-3.064 2.296-1.303 3.906.842.919.574 1.915.306 2.91-.268.996-.537 1.992.305 2.911.711.776.822 1.579.931 2.369.15 1.082.296 2.14 1.978 3.071 0 0-.307 2.451 1.914 3.448l.318.144c2.345 1.056 6.921 3.116 7.798 2.312.33-.302 1.153-.899 2.076-1.57 1.649-1.198 3.619-2.629 3.669-3.022.076-.613-.077-1.685-2.068-1.84 0 0 1.915-.381 3.906-1.759 2.068-1.224 4.29-4.44 4.29-4.44l2.014-4.602c49.074 4.183 60.387-4.723 60.387-4.723Z" fill="url(#o)"/><path d="m322.138 119.499-4.794 25.179-1.21 6.338-42.373 9.397c2.018 1.766 5.978 7.113 5.675 14.377 13.115 1.892 42.6 3.859 55.615-3.405 2.373-1.851 7.701-8.516 10.03-20.369 15.238-52.415 2.911-60.123 2.911-60.123-17.122 2.227-25.854 28.606-25.854 28.606Z" fill="url(#p)"/><path d="M301.465 348.097c-10.3 0-14.162-9.016-14.162-21.574 0-12.558-3.54-22.862-17.38-23.506-18.024-.644-16.414 16.744-16.414 37.996 0 27.047-9.656 9.66-23.174 24.793-11.587 12.88 3.219 35.742 7.725 42.504h58.255c1.931-3.542 6.759-12.236 12.23-22.862 12.231-22.54 3.219-37.351-7.08-37.351Z" fill="#F37753"/><path opacity=".2" fill-rule="evenodd" clip-rule="evenodd" d="M273.786 352.283h-2.897v40.381l-12.168-16.231-2.317 1.739 14.485 19.322v10.816h2.897V377.8l12.274-15.23-2.255-1.819-10.019 12.432v-20.9Z" fill="#fff"/><path fill="#FCDDD4" d="M226 408.2h84.5v46.9H226z"/><defs><linearGradient id="a" x1="210.4" y1="191.5" x2="210.4" y2="377.2" gradientUnits="userSpaceOnUse"><stop stop-color="#F37753"/><stop offset="1" stop-color="#fff" stop-opacity="0"/></linearGradient><linearGradient id="b" x1="263.3" y1="419.7" x2="263.3" y2="445.7" gradientUnits="userSpaceOnUse"><stop stop-color="#F4A984"/><stop offset="1" stop-color="#EE4D47"/></linearGradient><linearGradient id="c" x1="350.5" y1="410.3" x2="350.5" y2="445.8" gradientUnits="userSpaceOnUse"><stop stop-color="#F4A984"/><stop offset="1" stop-color="#EE4D47"/></linearGradient><linearGradient id="d" x1="321.4" y1="138.1" x2="321.4" y2="427" gradientUnits="userSpaceOnUse"><stop stop-color="#822626"/><stop offset=".9" stop-color="#402B2B"/></linearGradient><linearGradient id="e" x1="255.3" y1="133.7" x2="255.3" y2="178.8" gradientUnits="userSpaceOnUse"><stop stop-color="#FFB3B6"/><stop offset="1" stop-color="#FFC8C1"/></linearGradient><linearGradient id="f" x1="245.4" y1="176.7" x2="271.1" y2="96.5" gradientUnits="userSpaceOnUse"><stop stop-color="#F4A984"/><stop offset="1" stop-color="#EE4D47"/></linearGradient><linearGradient id="g" x1="306.1" y1="30.3" x2="306.1" y2="204.3" gradientUnits="userSpaceOnUse"><stop stop-color="#F4A984"/><stop offset="1" stop-color="#EE4D47"/></linearGradient><linearGradient id="h" x1="315.7" y1="80.4" x2="298.4" y2="87.9" gradientUnits="userSpaceOnUse"><stop stop-color="#FFB3B6"/><stop offset="1" stop-color="#FFC8C1"/></linearGradient><linearGradient id="i" x1="316.1" y1="71.8" x2="298.6" y2="79.2" gradientUnits="userSpaceOnUse"><stop stop-color="#FFB3B6" stop-opacity=".3"/><stop offset="1" stop-color="#FFC8C1"/></linearGradient><linearGradient id="j" x1="279.5" y1="67.6" x2="283.2" y2="34.4" gradientUnits="userSpaceOnUse"><stop stop-color="#FFB3B6"/><stop offset="1" stop-color="#FFC8C1"/></linearGradient><linearGradient id="k" x1="308.9" y1="-17.3" x2="308.9" y2="32.5" gradientUnits="userSpaceOnUse"><stop stop-color="#F4A984"/><stop offset="1" stop-color="#EE4D47"/></linearGradient><linearGradient id="l" x1="310.2" y1="8.9" x2="310.2" y2="60.7" gradientUnits="userSpaceOnUse"><stop stop-color="#F4A984"/><stop offset="1" stop-color="#EE4D47"/></linearGradient><linearGradient id="m" x1="280.6" y1="161.2" x2="262.9" y2="168.2" gradientUnits="userSpaceOnUse"><stop stop-color="#F4A984"/><stop offset="1" stop-color="#EE4D47"/></linearGradient><linearGradient id="n" x1="272.4" y1="176" x2="105.2" y2="207.9" gradientUnits="userSpaceOnUse"><stop stop-color="#F58A6B"/><stop offset="1" stop-color="#F7A58D"/></linearGradient><linearGradient id="o" x1="333.9" y1="142" x2="245.1" y2="171.6" gradientUnits="userSpaceOnUse"><stop stop-color="#FFB3B6"/><stop offset="1" stop-color="#FFC8C1"/></linearGradient><linearGradient id="p" x1="303.3" y1="129.4" x2="355" y2="164.3" gradientUnits="userSpaceOnUse"><stop stop-color="#F4A984"/><stop offset="1" stop-color="#EE4D47"/></linearGradient></defs></svg>