<svg width="642" height="515" fill="none" xmlns="http://www.w3.org/2000/svg"><mask id="a" style="mask-type:alpha" maskUnits="userSpaceOnUse" x="116" y="199" width="527" height="316"><path d="M591.378 412.629c56.854-63.141 77.529-190.738 0-208.278-114.963-26.008-58.147 65.772-340.266 17.54-174.788-29.883-161.518 146.89-64.607 245.548 96.911 98.659 333.805 24.117 404.873-54.81Z" fill="#FCDDD4"/></mask><g mask="url(#a)"><path opacity=".7" d="M78.826 383.601c28.196-37.324 102.875-110.107 176.031-102.642 91.444 9.331-82.3 184.289 0 184.289S376.02 250.633 435.459 250.633c59.439 0-66.297 158.629 0 167.96 66.298 9.331 121.164-223.946 194.32-226.279 73.155-2.333-75.442 191.287 43.436 191.287" stroke="url(#b)" stroke-width="2"/><path d="M707.185 470.113c0 24.343-13.763 44.011-30.689 44.011h-30.689c-16.926 0-30.531-19.829-30.531-44.011 0-24.343 13.763-44.01 30.689-44.01h30.531c17.084 0 30.689 19.828 30.689 44.01Z" fill="#402B2B"/><path d="M466.738 469.629c0 24.343-13.762 44.011-30.689 44.011h-30.688c-16.927 0-30.531-19.829-30.531-44.011 0-24.343 13.762-44.01 30.689-44.01h30.53c17.085 0 30.689 19.667 30.689 44.01Z" fill="#F48767"/><path d="m709.24 465.922-123.546-.323 14.237-8.544 93.49.161 15.819 8.706Z" fill="#402B2B"/><path d="m825.827 394.183-.158 80.767-100.292-.161-31.955-17.572-93.49-.162-28.79 17.411-204.065-.483c-3.322 0-6.012-2.741-6.012-6.126l.159-74.641 464.603.967Z" fill="#F36F49"/><path d="m607.207 412.561-160.088-.323.316-147.83c0-5.965 4.746-10.801 10.757-10.801l149.49.322-.475 158.632Z" fill="#F48767"/><path d="m856.831 413.206-249.465-.484.316-158.631 238.867.483c5.853 0 10.598 4.837 10.598 10.963l-.316 147.669Z" fill="#F06A5B"/><path d="M486.985 469.629c0 24.343 13.605 44.011 30.531 44.011h30.531v-14.832c11.231 0 20.406-13.058 20.406-29.179s-9.017-29.179-20.248-29.179v-14.831h-30.531c-16.926.161-30.53 19.829-30.689 44.01Z" fill="#F48767"/><path d="M573.355 469.952c0 19.99-11.231 36.112-25.152 35.95-13.92 0-24.994-16.121-24.994-36.111s11.232-36.111 25.152-35.95c13.763 0 24.994 16.121 24.994 36.111Z" fill="#F48767"/><path d="M548.205 493.649c-9.175 0-16.451-10.64-16.451-23.859 0-13.219 7.435-23.698 16.61-23.698s16.451 10.64 16.451 23.859c0 13.219-7.434 23.698-16.61 23.698Zm0-37.885c-5.378 0-9.807 6.288-9.807 14.026 0 7.738 4.429 14.186 9.807 14.186 5.379 0 9.808-6.287 9.808-14.025 0-7.899-4.271-14.187-9.808-14.187Z" fill="#F7A58D"/><path d="M548.205 513.801c-16.927 0-30.531-19.829-30.531-44.011 0-24.181 13.763-44.01 30.689-44.01 16.926 0 30.531 19.829 30.531 44.01 0 24.182-13.921 44.172-30.689 44.011Zm.158-79.961c-13.921 0-25.152 16.121-25.152 35.95 0 19.991 11.073 36.112 24.994 36.112 13.92 0 25.152-16.122 25.152-35.95 0-19.991-11.232-36.112-24.994-36.112Z" fill="#F7A58D"/><path d="M552.476 469.791c0-3.386-1.899-5.965-4.113-5.965-2.215 0-4.113 2.74-4.271 5.965 0 3.385 1.898 5.964 4.112 5.964 2.373.162 4.272-2.579 4.272-5.964Z" fill="#5B2929"/><path d="M341.134 349.206c0 .645-.474 1.128-.949 1.29-1.265.322-6.011.322-7.435-.162-.632-.161-1.265-.645-1.265-1.451-.475-12.896-.475-25.471 0-37.401 0-.806.633-1.289 1.265-1.45 1.582-.484 7.119-.806 8.859-.162.633.162 1.107.806 1.107 1.451a281.184 281.184 0 0 1-1.582 37.885Z" fill="#F69276"/><path d="M348.884 360.651c-.158 0-.316 0-.632-.161l-10.757-5.481c-2.531-1.29-4.113-3.869-4.113-6.771l.158-40.464c0-1.612 1.265-2.902 2.847-2.902h29.582c.791 0 1.265.645 1.265 1.29 0 .806-.632 1.289-1.265 1.289h-29.582c-.158 0-.158.162-.158.162l-.158 40.464c0 1.934 1.107 3.546 2.689 4.352l10.757 5.481c.633.323.949 1.129.633 1.774-.316.806-.791.967-1.266.967Z" fill="#F69276"/><path d="M585.694 412.238h-35.593c-18.824 0-23.253 9.511-34.801 32.887l-36.542-.161v-7.416l-139.524-.322c-.632-11.769-1.898-35.628-1.898-58.198v-2.257c0-6.448 1.107-13.541 3.006-20.635 7.435-27.728 26.259-57.229 34.011-68.031 2.531-3.546 4.745-6.609 6.644-9.35 5.378-7.254 9.016-10.962 15.819-10.962l169.104.484c3.481 0 6.644 2.418 7.594 5.803 14.553 54.489 12.338 95.921 12.18 138.158ZM443.165 287.461c.158-.806-.474-1.451-1.265-1.451l-51.412-.161c-3.006 0-6.011 1.612-7.91 4.352-20.09 27.89-28.157 53.361-31.163 68.031l-3.164 15.476c-.474 2.257.949 4.031 3.164 4.031h12.497c2.056 0 4.271-.968 5.853-2.58l25.627-24.987c2.847-2.741 6.644-4.353 10.282-4.353h30.689l6.802-58.358Z" fill="#F36F49"/><path d="M469.743 356.621c-1.107 5.159-2.373 10.479-3.48 16.121-.791 3.869-4.113 6.61-7.91 6.771-49.987 1.774-91.433 1.935-121.015-.322v-2.257c0-6.449 1.108-13.542 3.006-20.635l129.399.322Z" fill="#F6977C"/><path d="m562.126 286.171-51.412-.161c-3.006 0-5.695 1.612-7.119 4.353-14.395 27.889-17.401 53.361-17.401 68.031v15.476c0 2.257 1.741 4.031 3.955 4.031h12.497c2.057 0 4.113-.968 5.379-2.58l20.564-24.988c2.373-2.74 5.695-4.513 9.333-4.352h30.689l-4.904-58.359c0-.806-.632-1.451-1.581-1.451Z" fill="#F36F49"/><path d="M585.694 412.238h-35.593c-18.824 0-23.253 9.511-34.801 32.887l-36.542-.161v-7.416l-139.524-.322c-.632-11.769-1.898-35.628-1.898-58.198 29.582 2.257 71.186 2.257 121.015.323 3.797-.161 7.119-2.902 7.91-6.771 1.107-5.642 2.373-11.124 3.48-16.121 6.802-29.502 14.237-50.62 24.045-73.512.791-1.774-.475-3.869-2.373-3.869l-110.416-.323c5.378-7.254 9.016-10.962 15.819-10.962l169.104.484c3.481 0 6.644 2.418 7.594 5.803 14.553 54.489 12.338 95.921 12.18 138.158Zm-16.926-66.258-4.904-58.358c0-.806-.791-1.451-1.582-1.451l-51.412-.161c-3.005 0-5.694 1.612-7.118 4.352-14.395 27.89-17.401 53.361-17.401 68.031v15.477c0 2.257 1.74 4.03 3.955 4.03h12.497c2.056 0 4.113-.967 5.378-2.579l20.565-24.988c2.373-2.741 5.695-4.514 9.333-4.353h30.689Z" fill="#F7A58D"/><path d="M579.526 408.047c0 2.418-1.898 4.192-4.271 4.192h-25.152c-18.825 0-23.254 9.511-34.802 32.887l-36.542-.161v-7.416l.158-65.291c0-32.403 5.695-52.877 20.723-85.28 2.215-4.836 7.119-7.899 12.339-7.899l54.417.161c1.266 0 2.215.806 2.531 1.934 10.757 41.593 10.757 109.301 10.599 126.873Zm-10.757-62.066-4.904-58.358c0-.806-.791-1.451-1.581-1.451l-51.412-.161c-3.006 0-5.695 1.612-7.119 4.352-14.395 27.89-17.401 53.361-17.401 68.031v15.477c0 2.257 1.74 4.03 3.955 4.03h12.497c2.057 0 4.113-.967 5.379-2.58l20.564-24.987c2.373-2.741 5.695-4.514 9.333-4.353h30.689Z" fill="#F58A6B"/><path d="m561.809 288.106-51.095-.161c-2.215 0-4.271 1.289-5.379 3.224-14.869 28.857-17.242 54.489-17.242 67.064v15.476c0 1.129.949 2.096 2.056 2.096h12.497c1.582 0 3.006-.645 3.955-1.774l20.565-24.987c2.689-3.224 6.644-5.159 10.915-5.159h28.474l-4.746-55.779Zm.317-1.935c.79 0 1.581.645 1.581 1.451l4.904 58.359h-30.689c-3.638 0-6.96 1.612-9.333 4.352l-20.564 24.988c-1.266 1.612-3.322 2.58-5.379 2.58h-12.497c-2.214 0-3.955-1.774-3.955-4.031v-15.476c0-14.67 3.006-40.142 17.401-68.031 1.424-2.741 4.113-4.353 7.119-4.353l51.412.161Z" fill="#F7A58D"/><path d="M478.915 406.757v30.791l-55.208-.161c.633-8.061 2.056-15.799 4.429-23.053.949-2.902 3.322-4.998 6.328-5.481 12.18-1.451 27.683-2.096 44.451-2.096Zm-111.682 30.63h-27.367c-.474-6.771-.949-17.733-1.424-30.147 6.644.323 12.814.968 18.35 1.774 3.006.483 5.379 2.579 6.328 5.481 2.215 7.093 3.48 14.831 4.113 22.892Zm111.525 31.114-127.976-.322c-8.7 0-15.819-7.255-15.819-16.121v-2.741c0-2.579 2.057-4.514 4.43-4.514l139.207.323.158 23.375Z" fill="#F6977C"/><path d="M502.328 468.501h-23.57v-23.376h36.225l-3.954 16.283c-.949 4.191-4.588 7.093-8.701 7.093Z" fill="#F7A58D"/><path d="M558.645 383.221c-5.378.161-15.819 1.289-15.819 5.158 0 3.87 9.175 5.159 16.61 5.159 7.435 0 8.226-4.191 8.859-5.965.474-1.773.949-4.514-9.65-4.352Z" fill="#F6977C"/><path d="M558.17 387.412c2.532 0 5.221-.806 6.486-2.096-.949-.483-2.373-.967-4.587-.967-4.113 0-10.757.484-14.237 2.096.474.322 1.74.967 3.796.967h8.542Zm-10.598 3.063c-.95 0-1.424.161-1.582.323 2.847 1.289 8.067 1.773 10.598 1.773 3.639 0 6.17 0 6.961-.806-.633-.484-2.057-1.29-3.48-1.29-1.899.161-11.232 0-12.497 0Z" fill="#F47B58"/><path d="M478.758 437.71v7.415l-139.049-.322s-.158-2.741-.474-7.416l139.523.323Z" fill="#F58A6B"/><path d="M418.803 405.145v30.791l-46.666-.161v-30.791c0-3.708 3.322-6.61 7.435-6.61h31.954c3.955.161 7.277 3.224 7.277 6.771Z" fill="#F16036" opacity=".2"/><path d="M356.477 434.808h-9.808c-2.531 0-4.746-2.096-4.746-4.836v-4.998c0-2.579 2.057-4.836 4.746-4.836h9.808c2.531 0 4.746 2.095 4.746 4.836v4.998c0 2.74-2.215 4.836-4.746 4.836Zm92.86.323h-9.807c-2.532 0-4.746-2.096-4.746-4.837v-4.997c0-2.58 2.056-4.837 4.746-4.837h9.807c2.531 0 4.746 2.096 4.746 4.837v4.997c0 2.58-2.056 4.837-4.746 4.837Z" fill="#fff"/><path d="M512.612 349.528c0 .645-.475 1.129-.949 1.29a86.046 86.046 0 0 1-19.299-.161c-.791-.162-1.266-.645-1.266-1.451-.475-12.897-.475-25.471 0-37.401 0-.806.633-1.29 1.266-1.451 6.802-.806 13.604-.806 20.723 0 .632.161 1.107.806 1.107 1.451.474 12.091-.158 24.665-1.582 37.723Z" fill="#F7A58D"/><path d="M488.093 360.974a1.19 1.19 0 0 1-1.107-.806c-.317-.645 0-1.451.633-1.773l10.756-5.32c1.582-.806 2.69-2.58 2.69-4.353l.158-40.464c0-.161-.158-.161-.158-.161h-6.644c-.791 0-1.266-.645-1.266-1.29 0-.806.633-1.289 1.266-1.289h6.644c1.582 0 2.847 1.289 2.847 2.901l-.158 40.464c0 2.902-1.582 5.482-4.113 6.771l-10.757 5.32h-.791Z" fill="#F69276"/><path d="m415.541 470.41-44.768-.099.03-13.703 44.767.099-.029 13.703Z" fill="#F8B4A0"/><path opacity=".6" d="M494.092 283.435c-9.808 22.892-17.085 44.01-24.045 73.512l-129.4-.323c7.435-27.728 26.26-57.23 34.011-68.031 2.531-3.546 4.746-6.609 6.644-9.35l110.417.323c1.898.161 3.164 2.095 2.373 3.869Z" fill="url(#c)"/><path d="M284.492 299.174s-3.653 115.705-.1 245.78c0 0 10.659 10.284 30.854 3.428 0 0-.187-144.74 5.236-202.255 0 0 25.431 109.317 57.593 203.969 0 0 21.504 4.19 29.171-8.189 0 0-43.382-153.31-49.74-241.487l-73.014-1.246Z" fill="url(#d)"/><path d="M284.766 300.42h72.74c.561 6.666 1.122 13.712 2.056 20.949-43.382.191-66.382-11.046-74.983-16.188 0-3.237.187-4.761.187-4.761Z" fill="#402B2B" fill-opacity=".5" style="mix-blend-mode:multiply"/></g><path d="M292.063 108.638h17.951l2.431-11.046s-7.106 4.19-8.789 1.333c-1.683-2.857-1.309-1.714-2.992-1.333-1.683.38-1.683-1.905-3.74-.572-2.243 1.524-5.609 8.761-4.861 11.618Z" fill="#6B1912"/><path d="m256.983 246.554 10.229-25.213 28.765 10.976c-.992 8.076-18.535 23.555-28.765 34.517l-10.229-20.28Z" fill="url(#e)"/><path d="M280.94 173.077s-15.75 29.082-24.982 71.834c-2.84 13.155-2.153 19.951 2.154 23.021 5.384 3.836 15.074.548 19.919-9.866 4.934-11.509 14.055-36.474 16.101-48.473 0 0-3.54-34.36-13.192-36.516Z" fill="url(#f)"/><path d="M280.844 172.628s.935 21.901 3.74 127.218c0 0 25.431 13.141 76.106 4 0 0 .187-31.615 7.105-59.61 0 0 12.903-52.754 6.358-68.18 0 0-41.325-26.092-93.309-3.428Z" fill="url(#g)"/><path d="m320.111 151.754-.374 13.637s3.179 4.761 10.846 5.332c7.667.381 11.406-3.999 11.406-3.999l.748-20.302c-9.536 4.19-18.886 5.904-22.626 5.332Z" fill="url(#h)"/><path d="m320.86 146.156-.748 15.045c3.74.571 13.09-1.143 22.439-5.332l.561-9.713H320.86Z" fill="url(#i)" style="mix-blend-mode:multiply"/><path d="M371.535 205.765s-11.033 25.329-14.959 36.756c-3.927 11.236-3.927 55.991-24.496 64.561 0 0 21.878-1.333 28.796-3.237 0 0 .374-33.709 7.106-59.61 0 0 4.675-27.234 6.545-39.613l-2.992 1.143Z" fill="#EE4D47" fill-opacity=".3" style="mix-blend-mode:multiply"/><path d="M356.95 113.019c-.374.19-.748 6.284-.748 6.284l-1.496 12.76-6.918 5.523-3.927 1.714s-5.797-2.476-5.049-4.761c.748-2.095 4.488-32.185 5.236-32.185.748 0 6.731 4.38 6.731 4.38l6.171 6.285Zm-54.788-11.428c-1.683 0 .935 20.949.935 20.949l2.992-8.379 2.057-10.094-5.984-2.476Z" fill="#402B2B"/><path d="m304.966 105.78-3.179 26.853s-1.122 22.663 17.203 23.996c18.325 1.143 30.854-17.331 30.854-17.331s2.244 2.667 4.675-1.904c2.244-4.571.748-10.665-2.431-11.236-3.366-.381-4.862 1.523-5.236 4.38a119.355 119.355 0 0 1-.748 4.951l-2.805-.38 2.057-22.092s-4.301-8.57-9.163-10.284c-4.861-1.714-9.162 5.142-9.162 5.142s-4.488.952-8.789 0c-4.301-.953-7.105-2.095-7.105-2.095s-2.618.762-6.171 0Z" fill="url(#j)"/><path d="M318.95 261.353s-28.535-4.384-28.535-8.769 5.922-14.799 10.229-26.857c4.307-12.058 8.076-31.242 9.691-35.079 1.616-3.837-4.845 7.125-4.845 7.125-10.589 14.068-32.196 43.191-33.919 47.137-1.723 3.947-2.513 13.337-2.692 17.54l7.537 4.384 22.075-2.74 20.459-2.741Z" fill="#EE4D47" fill-opacity=".3" style="mix-blend-mode:multiply"/><path d="M309.745 145.156c0-2.193 2.195-5.47 5.922-4.385 3.769 1.096 4.667 4.385 4.846 6.577" stroke="#893D43"/><path d="M304.362 176.946s-46.84 61.404-47.916 71.253c-1.077 9.849-1.861 19.563 7.928 20.763 9.789 1.199 19.089-14.493 22.515-22.489l7.782-20.198 16.152-40.011-6.461-9.318Z" fill="url(#k)"/><path d="M310.874 190.1c0-5.481-6.461-7.674-11.845-7.674l-33.38 47.137c-6.82 9.683-18.521 32.009-6.461 39.463 12.06 7.455 25.484-11.51 30.15-21.376 2.584-6.138 15.434-40.925 21.536-57.55Z" fill="url(#l)"/><path d="M304.413 178.042s-3.29-13.018.205-21.488c0 0 1.908-3.788 3.965-2.159 2.29 1.501 4.089-1.923 6.38-.422 2.29 1.501 4.122-.719 6.391 2.168 0 0 2.582-.796 4.064 1.451 1.483 2.246 4.876 7.27 4.139 8.435-.738 1.165-3.241 6.957-3.886 7.156-.646.199-1.829.232-2.361-1.921 0 0-.059 2.17-1.175 4.61-.937 2.496-3.99 5.533-3.99 5.533l-7.809 5.406-5.923-8.769Z" fill="url(#m)"/><path d="M324.225 98.925V79.499c11.407.571 23.187 2.857 28.984 10.094 6.918 8.57 2.992 28.376 2.992 28.376s-8.415-.952-9.911-3.809c-1.496-2.856-15.707-6.856-26.553-6.284-10.845.571-16.081-.572-21.504-5.333-1.122-.952-2.057-2.285-2.805-3.809h28.797v.19Z" fill="#402B2B"/><path d="M357.51 110.733s-8.041-2.667-21.505-3.809c-22.626-9.713-32.349-8-32.349-8s.187-7.427 2.244-12.569c2.057-5.142 15.894-12.379 27.488-11.236 11.593 1.143 23.561 9.903 25.431 18.283 1.496 6.475-1.309 17.331-1.309 17.331Z" fill="url(#n)"/><path d="M343.859 107.879c-2.431-11.808-19.821-17.712-32.162-17.522-12.155.19-20.756 10.475-22.065 17.522-.561 2.856 1.683 3.237 2.43.761.561-1.714 1.683-9.903 12.903-8.95 11.219.952 10.659 11.236 16.268 12.188 5.236.952 11.22-2.857 22.626-3.999Z" fill="url(#o)"/><path d="m305.545 114.876-.583-1.194c.502-.254 4.104-2.714 9.293-4.062l.748 1.961c-4.435.754-9.458 3.295-9.458 3.295Zm31.831 5.011c-2.24-3.188-7.586-6.819-7.506-6.991l1.477-1.395c.169.081 4.927 3.64 7.266 7.508l-1.237.878Z" fill="#402B2B"/><path d="M319.178 121.779s-.561 4-2.057 5.142c-1.496 1.143-4.114 2.095-4.488 3.048-.374.761.374 2.285 2.057 2.856 1.683.572 1.87 1.143 1.87 1.143s-3.366.381-5.049-1.714c-1.682-2.095.187-3.809 1.87-4.761 1.683-.953 2.431-1.333 3.179-1.905.935-.571 2.618-3.809 2.618-3.809Z" fill="#D87C60"/><path d="M327.217 123.872c0 1.904 1.309 3.618 2.992 3.618s2.992-1.523 2.992-3.618c0-1.905-1.309-3.619-2.992-3.619s-2.992 1.524-2.992 3.619Zm-20.569-2.476c0 1.905 1.309 3.619 2.992 3.619s2.992-1.524 2.992-3.619c0-1.904-1.309-3.618-2.992-3.618-1.683.19-2.992 1.714-2.992 3.618Z" fill="#402B2B"/><path d="M296.505 270.124c-1.436-2.375-4.092-8.989-3.23-16.443 1.794 2.557 4.953 9.427 3.23 16.443Z" fill="#644545"/><path fill-rule="evenodd" clip-rule="evenodd" d="M361.624 261.186c13.65-20.188 15.52-81.321 15.52-81.321-12.56 1.663-18.559 14.32-22.413 22.451-1.883 3.974-3.254 6.867-4.628 6.867l-5.785 37.437-57.847 10.516-.143.203c-2.85.076-12.738.644-19.196 4.831 0 0-3.346 2.553-1.423 4.342.92 1.023.627 2.13.334 3.237-.293 1.107-.586 2.214.334 3.236.775.863.897 1.755 1.016 2.633.163 1.204.323 2.381 2.16 3.416 0 0-.335 2.725 2.09 3.833l.348.16c2.561 1.174 7.558 3.465 8.516 2.571.361-.336 1.259-1 2.267-1.746 1.802-1.332 3.953-2.923 4.007-3.36.084-.681-.083-1.874-2.258-2.045 0 0 2.091-.425 4.266-1.957 2.259-1.361 4.685-4.936 4.685-4.936l2.2-5.117c53.595 4.65 65.95-5.251 65.95-5.251Z" fill="url(#p)"/><path d="m345.917 207.861-5.236 27.996-2.349 7.046-45.225 10.778c1.256 2.375 3.661 8.988 3.23 16.443 10.05 1.096 38.011 1.206 56.532-2.741 4.975-.973 10.768-6.029 18.105-24.48 16.642-58.276 3.179-66.846 3.179-66.846-18.699 2.475-28.236 31.804-28.236 31.804Z" fill="url(#q)"/><path d="M199.745 143.602s21.454 22.473 3.769 27.406c-17.685 4.932-34.417-9.581-57.03-5.647-38.764 6.743-102.417 15.512-136.875-50.26C-33.462 32.885 78.942-.001 135.594 0c67.96 0 94.758 29.597 101.218 70.157 5.169 32.447-23.069 63.58-37.067 73.445Z" fill="url(#r)"/><path d="m118.048 98.25 1.037-22.616c4.151-1.096 7.618-3.108 10.398-6.036 2.781-2.927 4.39-6.641 4.828-11.141.514-5.294-.02-9.536-1.604-12.725-1.575-3.277-3.769-5.058-6.581-5.341-2.472-.25-4.476.44-6.011 2.067-1.45 1.636-2.705 3.916-3.764 6.839l-2.279 6.185c-1.059 2.923-2.59 4.952-4.594 6.086-1.91 1.055-3.875 1.347-5.895.877-1.935-.463-3.55-1.56-4.844-3.295-1.286-1.823-1.792-4.146-1.518-6.97.343-3.529 1.875-6.449 4.596-8.758 2.806-2.302 6.238-3.96 10.296-4.977 4.058-1.017 8.218-1.31 12.48-.882 8.609.868 15.158 3.443 19.648 7.727 4.575 4.292 6.493 10.233 5.756 17.821-.506 5.206-2.171 9.494-4.995 12.862-2.823 3.369-6.307 6.003-10.451 7.902a55.846 55.846 0 0 1-12.52 3.951l-1.682 10.657-2.301-.232Zm-2.96 31.779c-3.069-.309-5.604-1.678-7.606-4.107-1.916-2.421-2.72-5.22-2.411-8.396.3-3.088 1.623-5.628 3.968-7.619 2.439-2.071 5.193-2.952 8.262-2.643 3.154.318 5.642 1.727 7.465 4.227 1.916 2.421 2.724 5.175 2.424 8.263-.309 3.177-1.636 5.761-3.981 7.752-2.26 2-4.967 2.841-8.121 2.523Z" fill="#fff"/><defs><linearGradient id="b" x1="376" y1="256.9" x2="376" y2="525.4" gradientUnits="userSpaceOnUse"><stop stop-color="#F37753"/><stop offset="1" stop-color="#fff" stop-opacity="0"/></linearGradient><linearGradient id="c" x1="433.7" y1="254.6" x2="369.8" y2="404.9" gradientUnits="userSpaceOnUse"><stop stop-color="#F7A58D"/><stop offset=".9" stop-color="#fff"/></linearGradient><linearGradient id="d" x1="345.1" y1="229.6" x2="345.1" y2="550.8" gradientUnits="userSpaceOnUse"><stop stop-color="#822626"/><stop offset=".9" stop-color="#402B2B"/></linearGradient><linearGradient id="e" x1="272.9" y1="224.7" x2="272.9" y2="274.8" gradientUnits="userSpaceOnUse"><stop stop-color="#FFB3B6"/><stop offset="1" stop-color="#FFC8C1"/></linearGradient><linearGradient id="f" x1="294.2" y1="177.5" x2="294.2" y2="276.2" gradientUnits="userSpaceOnUse"><stop stop-color="#F4A984"/><stop offset="1" stop-color="#EE4D47"/></linearGradient><linearGradient id="g" x1="328.4" y1="108.7" x2="328.4" y2="302.1" gradientUnits="userSpaceOnUse"><stop stop-color="#F4A984"/><stop offset="1" stop-color="#EE4D47"/></linearGradient><linearGradient id="h" x1="338.9" y1="164.4" x2="319.9" y2="172.5" gradientUnits="userSpaceOnUse"><stop stop-color="#FFB3B6"/><stop offset="1" stop-color="#FFC8C1"/></linearGradient><linearGradient id="i" x1="339.3" y1="154.9" x2="320.1" y2="162.8" gradientUnits="userSpaceOnUse"><stop stop-color="#FFB3B6" stop-opacity=".3"/><stop offset="1" stop-color="#FFC8C1"/></linearGradient><linearGradient id="j" x1="299.4" y1="150.1" x2="303.5" y2="113.3" gradientUnits="userSpaceOnUse"><stop stop-color="#FFB3B6"/><stop offset="1" stop-color="#FFC8C1"/></linearGradient><linearGradient id="k" x1="290" y1="155" x2="290" y2="267.2" gradientUnits="userSpaceOnUse"><stop stop-color="#FFB3B6"/><stop offset="1" stop-color="#FFC8C1"/></linearGradient><linearGradient id="l" x1="266.7" y1="205.4" x2="308.1" y2="265.1" gradientUnits="userSpaceOnUse"><stop stop-color="#F4A984"/><stop offset=".9" stop-color="#EE4D47"/></linearGradient><linearGradient id="m" x1="313.3" y1="175.8" x2="328.9" y2="149.5" gradientUnits="userSpaceOnUse"><stop stop-color="#FFB3B6"/><stop offset="1" stop-color="#FFC8C1"/></linearGradient><linearGradient id="n" x1="331.5" y1="55.8" x2="331.5" y2="111.2" gradientUnits="userSpaceOnUse"><stop stop-color="#F4A984"/><stop offset="1" stop-color="#EE4D47"/></linearGradient><linearGradient id="o" x1="332.9" y1="84.9" x2="332.9" y2="142.4" gradientUnits="userSpaceOnUse"><stop stop-color="#F4A984"/><stop offset="1" stop-color="#EE4D47"/></linearGradient><linearGradient id="p" x1="358.7" y1="232.9" x2="261.4" y2="264.7" gradientUnits="userSpaceOnUse"><stop stop-color="#FFB3B6"/><stop offset="1" stop-color="#FFC8C1"/></linearGradient><linearGradient id="q" x1="330.3" y1="210.4" x2="372.2" y2="272.7" gradientUnits="userSpaceOnUse"><stop stop-color="#F4A984"/><stop offset="1" stop-color="#EE4D47"/></linearGradient><linearGradient id="r" x1="34.5" y1="-108.5" x2="237.9" y2="182.9" gradientUnits="userSpaceOnUse"><stop stop-color="#F4A984"/><stop offset="1" stop-color="#EE4D47"/></linearGradient></defs></svg>