<svg width="488" height="336" fill="none" xmlns="http://www.w3.org/2000/svg"><path opacity=".7" d="M202.447 84.789c18.983-8.335 63.761-20.345 91.008-1.71 34.059 23.294-71.305 53.409-38.88 71.132C287 171.934 347.59 97.467 371.008 110.267c23.418 12.8-59.587 46.95-35.435 64.829 24.151 17.878 94.983-60.346 124.298-45.493 29.314 14.854-70.08 57.587-23.244 83.187" stroke="url(#a)" stroke-width="2"/><path fill-rule="evenodd" clip-rule="evenodd" d="M66.112 139.485a25.585 25.585 0 0 1 3.99 4.403l2.396-3.474c-1.268-1.395-2.5-2.668-3.96-3.886l-2.426 2.957Z" fill="#3E1A0B"/><path fill-rule="evenodd" clip-rule="evenodd" d="M74.253 145.897c-1.567-2.794-4.843-3.847-7.35-2.306l-3.32 2.136c-2.508 1.54-3.17 5.144-1.717 7.966 1.568 2.794 4.843 3.847 7.35 2.307l3.32-2.136c2.508-1.541 3.322-5.05 1.717-7.967Z" fill="#F69E9F"/><path fill-rule="evenodd" clip-rule="evenodd" d="m207.536 34.945-59.172 7.981-4.052-20.325c-.39-1.735-1.992-3.043-3.765-2.87l-46.906 6.28c-1.624.267-2.738 1.849-2.425 3.734l4.052 20.325-55.776 7.54c-1.396.212-2.433 1.643-2.115 3.135L86.54 308.964c.318 1.491 1.77 2.704 3.167 2.492l168.08-22.542c1.396-.212 2.433-1.644 2.115-3.135L210.626 37.588c-.128-1.67-1.658-2.733-3.09-2.643Z" fill="url(#b)"/><path fill-rule="evenodd" clip-rule="evenodd" d="M199.903 65.316 51.82 85.243c-1.287.185-2.135 1.44-1.852 2.812l42.687 215.127c.284 1.372 1.554 2.37 2.84 2.186l148.084-19.927c1.286-.185 2.135-1.441 1.851-2.812L202.743 67.502c-.283-1.372-1.553-2.37-2.84-2.186Z" fill="#F36F49"/><path fill-rule="evenodd" clip-rule="evenodd" d="M199.613 57.85 55.126 77.156c-1.287.184-2.021 1.412-1.738 2.784L95.05 289.948c.283 1.372 1.517 2.248 2.804 2.064l144.565-19.458c1.286-.184 2.021-1.412 1.738-2.784L202.495 59.763c-.361-1.222-1.595-2.098-2.882-1.914Z" fill="#FAFBFC"/><path opacity=".8" d="M194.626 66.684 63.237 84.361a1.971 1.971 0 0 0-1.637 1.056c-.31.6-.471 1.294-.369 2.055L99.668 281.19c.103.76.547 1.437 1.145 1.814.599.377 1.276.605 1.994.56l131.424-17.555a1.97 1.97 0 0 0 1.638-1.056c.31-.6.471-1.294.368-2.055l-38.473-193.84a2.572 2.572 0 0 0-1.145-1.815c-.599-.377-1.275-.604-1.993-.559Zm40.552 196.343c.145.488.026.91-.243 1.238a1.792 1.792 0 0 1-1.028.645l-131.275 17.649c-.455.111-.868-.05-1.203-.36a2.371 2.371 0 0 1-.702-1.138L62.254 87.221a1.297 1.297 0 0 1 .244-1.238 1.793 1.793 0 0 1 1.028-.645L194.915 67.66c.454-.111.867.05 1.203.36.335.31.557.65.701 1.138l38.359 193.868Z" fill="#F58A6B"/><path fill-rule="evenodd" clip-rule="evenodd" d="M122.929 31.181c-2.823.427-4.611 3.104-3.967 6.11.643 3.005 3.354 5.108 6.177 4.681 2.822-.427 4.61-3.104 3.967-6.11-.607-2.881-3.355-5.108-6.177-4.681Z" fill="#FAFBFC"/><path fill-rule="evenodd" clip-rule="evenodd" d="M163.121 39.961 87.158 50.167c-1.673.278-2.822 1.916-2.499 3.87l4.544 22.729c.403 1.797 2.053 3.152 3.88 2.972l75.963-10.207c1.674-.277 2.822-1.915 2.499-3.868l-4.464-22.885c-.519-1.769-2.287-3.094-3.96-2.817Z" fill="#F58A6B"/><path opacity=".8" fill-rule="evenodd" clip-rule="evenodd" d="m122.026 49.72-28.658 3.82c-1.31.188-2.173 1.465-1.885 2.86l3.491 17.262c.288 1.395 1.582 2.41 2.891 2.223l28.658-3.82c1.31-.187 2.173-1.464 1.885-2.86l-3.491-17.262c-.288-1.395-1.582-2.41-2.891-2.223Z" fill="#F36F49"/><path opacity=".2" d="m118.728 103.47.441 2.564 80.522-12.756-.441-2.564-80.522 12.756Zm.849 5.231.442 2.564 80.522-12.756-.442-2.564-80.522 12.756Zm41.061-1.479.44 2.496 40.273-6.207-.44-2.496-40.273 6.207Zm-40.213 6.646.439 2.488 37.719-5.795-.44-2.488-37.718 5.795Zm3.864 23.787.441 2.564 80.522-12.755-.441-2.564-80.522 12.755Zm.849 5.232.442 2.564 80.522-12.756-.442-2.564-80.522 12.756Zm41.184-1.499.44 2.496 40.273-6.207-.44-2.496-40.273 6.207Zm-40.335 6.666.44 2.488 37.719-5.795-.44-2.488-37.719 5.795Zm3.358 20.261.442 2.564 80.522-12.755-.442-2.564-80.522 12.755Zm.85 5.231.441 2.564 80.522-12.756-.441-2.563-80.522 12.755Zm41.183-1.499.44 2.496 40.272-6.207-.44-2.496-40.272 6.207Zm-40.336 6.666.439 2.489 37.719-5.795-.439-2.489-37.719 5.795Zm3.473 21.182.441 2.564 80.522-12.755-.441-2.564-80.522 12.755Zm.871 5.353.441 2.564 80.522-12.755-.441-2.564-80.522 12.755Zm41.181-1.499.44 2.496 40.273-6.206-.44-2.497-40.273 6.207Zm-40.335 6.667.44 2.488 37.719-5.795-.44-2.488-37.719 5.795Zm3.375 20.857.441 2.563 80.522-12.755-.441-2.563-80.522 12.755Zm.849 5.232.441 2.564 80.522-12.757-.441-2.563-80.522 12.756Zm41.183-1.501.44 2.496 40.273-6.206-.44-2.496-40.273 6.206Zm-40.214 6.648.44 2.488 37.719-5.795-.44-2.488-37.719 5.795Zm-60.84-137.981-.954.101.176 1.013 3.778 19.001.176 1.013.955-.102 19.171-2.578.955-.102-.177-1.012-3.777-19.002-.177-1.012-.954.101-19.172 2.579Zm22.031 16.647-17.414 2.281-3.46-17.1 17.299-2.252 3.575 17.071Zm-16.39 18.193-.954.101.291.985 3.778 19.001.176 1.013.955-.102 19.171-2.578.954-.102-.176-1.012-3.778-19.002-.176-1.012-.955.101-19.286 2.607Zm22.031 16.647-17.299 2.253-3.46-17.1 17.298-2.252 3.461 17.099Zm-16.543 16.709-.955.101.177 1.013 3.777 19.001.177 1.012.954-.101 19.172-2.579.954-.101-.177-1.013-3.777-19.001-.177-1.012-.954.101-19.171 2.579Zm22.031 16.647-17.3 2.252-3.46-17.099 17.299-2.252 3.461 17.099ZM97.27 205.457l-.955.101.177 1.012 3.813 19.122.176 1.012.955-.101 19.168-2.578.954-.102-.176-1.012-3.777-18.999-.177-1.012-.954.102-19.205 2.455Zm22.027 16.645L102 224.354l-3.46-17.097 17.297-2.252 3.46 17.097Zm-16.672 15.723-.954.102.176 1.012 3.778 19.002.176 1.012.955-.101 19.171-2.579.955-.101-.177-1.013-3.777-19.001-.177-1.013-.954.102-19.172 2.578Zm21.995 16.525-17.299 2.252-3.461-17.1 17.299-2.252 3.461 17.1Z" fill="#EE4D47"/><path d="m93.423 113.298-10.442-6.769-1.063 1.859 11.472 7.317.915.575.474-.916 12.735-22.837-1.83-1.15-12.26 21.921Z" fill="#EE4D47"/><path d="m99.32 149.1-10.441-6.77-1.064 1.86 11.472 7.316.878.451.511-.791 12.698-22.961-1.829-1.151L99.32 149.1Zm11.278 68.279-10.556-6.74-.948 1.831 11.355 7.343.915.576.473-.916 12.849-22.861-1.866-1.275-12.222 22.042Z" fill="#F58A6B"/><path d="M382.146 78c0-11.046-8.954-20-20-20h-75.479c-11.046 0-20 8.954-20 20v10.402c0 11.046 8.954 20 20 20h95.479V77.999Z" fill="#fff"/><circle r="3.8" transform="matrix(-1 0 0 1 355.988 83.52)" fill="#F4A984"/><circle r="3.8" transform="matrix(-1 0 0 1 340.037 83.52)" fill="#F4A984"/><circle r="3.8" transform="matrix(-1 0 0 1 324.087 83.52)" fill="#F4A984"/><circle r="3.8" transform="matrix(-1 0 0 1 308.136 83.52)" fill="#F4A984"/><circle r="3.8" transform="matrix(-1 0 0 1 292.186 83.52)" fill="#F4A984"/><path d="M232.667 245.5c-43.6 0-21.5-63-5-94.501 8.833-6.666 30.5-20.099 46.5-20.499 16-.4 26 19.5 29 29.5-1.833.166-3.7 7.8 3.5 37s3.667 44.5 1 48.5h-75Z" fill="#402B2B"/><path d="M278.266 230.54c-4.112-7.189-1.028-18.315-1.028-18.315l-12.68 2.568-12.68-2.568s1.542 5.306 1.028 11.126c4.455 5.135 14.737 14.721 25.36 7.189Z" fill="url(#c)"/><path d="M276.465 216.233c-2.775 1.672-6.282 3.219-10.207 4.406-4.924 1.489-9.615 2.14-13.298 2 .337-5.533-1.081-10.414-1.081-10.414l12.68 2.568 12.68-2.568s-.447 1.613-.774 4.008Z" fill="url(#d)" style="mix-blend-mode:multiply"/><path d="M233.543 240.639c7.369 6.504 21.934 20.711 31.187 20.711s25.703-13.522 33.071-20.026c-3.598-1.37-14.565-5.649-17.135-7.874-.857-.856-1.714-1.883-2.228-2.91-10.624 7.531-20.905-2.054-25.36-7.36-.343 3.765-1.371 7.531-4.284 10.099-2.913 2.396-11.823 5.991-15.251 7.36Z" fill="url(#e)"/><path d="M299.443 173.37c-1.2-2.225-3.084-2.568-4.284-2.225 0 0-3.427-10.955-5.826-19-8.054-3.766-15.593-7.018-24.675-7.703v-.171h-5.141c-5.654.171-11.309.342-16.792 1.369-1.371.343-2.742.685-4.113.685-1.713 9.072-4.626 24.991-5.826 24.82h-.171c-.172 0-.172 0-.343-.172-1.199-.342-2.57 0-3.77 2.054-2.056 3.766 0 11.298 2.742 13.523 1.371 1.027 2.57 1.883 3.427 2.396 1.371 6.847 3.77 13.351 7.368 17.288 9.425 10.099 18.164 12.325 20.563 12.667h1.028c1.713-.171 11.138-1.883 21.248-12.838 3.598-3.766 6.169-6.504 7.711-16.603 1.028-.514 2.056-1.37 3.77-2.739 3.084-2.054 5.14-9.585 3.084-13.351Z" fill="url(#f)"/><path d="M264.403 183s.132 3.856-.911 5.125c-1.043 1.268-3.022 2.497-3.185 3.445-.191.768.637 2.117 2.082 2.448 1.446.33 1.68.847 1.68.847s-2.667.782-4.335-.991c-1.668-1.772-.406-3.629.816-4.741 1.222-1.112 1.771-1.566 2.293-2.2.673-.658 1.56-3.933 1.56-3.933Zm10.33 17h-20.702c-.675 0-1.152.655-.881 1.274 1.46 3.335 5.041 8.226 11.017 8.226 5.951 0 9.784-4.852 11.429-8.185.308-.624-.167-1.315-.863-1.315Z" fill="#D87C60"/><path fill-rule="evenodd" clip-rule="evenodd" d="M274.643 203h-20.609a16.192 16.192 0 0 1-.883-1.726c-.271-.619.205-1.274.881-1.274h20.701c.696 0 1.172.691.864 1.315a17.94 17.94 0 0 1-.954 1.685Z" fill="#fff"/><path d="M284.265 131.947c25.531 3.252 19.534 34.405 14.565 39.882L295.167 178c-1.833-3.167-5.6-11.9-6-21.5-3.833 2.5-15.3 7.5-30.5 7.5-19 0-24.208 3.145-26 12-4.455-9.928-7.519-30.017 3.447-41.314 15.079-15.748 37.869-19.514 48.151-2.739Z" fill="#402B2B"/><path d="m232.686 175.937.857 7.361s-2.57-1.37-3.084-4.793c-.172-2.054.685-3.424 2.227-2.568Zm62.201 0-.857 7.361s2.57-1.37 3.084-4.793c.172-2.054-.514-3.424-2.227-2.568Z" fill="#ED8A40"/><path d="M281.352 184.26c0 1.541-1.199 2.91-2.913 2.91-1.542 0-2.913-1.198-2.913-2.91 0-1.541 1.2-2.91 2.913-2.91 1.714 0 2.913 1.369 2.913 2.91Zm-30.501 2.91a2.912 2.912 0 0 0 2.913-2.91 2.912 2.912 0 0 0-2.913-2.91 2.911 2.911 0 0 0-2.913 2.91 2.911 2.911 0 0 0 2.913 2.91Z" fill="#402B2B"/><path d="M243.208 178.86c1.249-1.362 4.905-4.087 9.537-4.087m23.502.117c1.847-.081 6.359.578 9.635 3.853" stroke="#402B2B" stroke-width="2"/><path d="M325.732 279.495c.685-18.487-4.97-29.442-13.537-34.063-8.568-4.622-28.788-10.441-29.473-10.613l-18.335 14.55-17.478-14.55c-.686.172-21.42 5.991-29.816 10.613-8.568 4.621-14.222 15.576-13.537 34.063.514 14.891-.514 38.342-.343 55.458h123.033c0-17.116-1.029-40.567-.514-55.458Z" fill="url(#g)"/><path d="m274.496 241.153-4.798-2.225-5.483 10.099-5.484-10.099-4.969 2.225 7.197 11.639v82.162h6.683v-82.675l6.854-11.126Z" fill="#EE4D47" fill-opacity=".3" style="mix-blend-mode:multiply"/><path d="M252.906 223.18c-.171 4.964 6.854 17.802 6.854 17.802l-12.166 11.81-3.941-17.116s3.941-10.442 9.253-12.496Zm23.303 0c.172 4.964-7.71 17.973-7.71 17.973l12.851 11.639 3.941-17.288s-3.77-10.27-9.082-12.324Zm-9.935 32.522a1.9 1.9 0 0 1-1.885 1.883 1.9 1.9 0 0 1-1.885-1.883 1.9 1.9 0 0 1 1.885-1.883 1.9 1.9 0 0 1 1.885 1.883Zm-.001 17.459a1.9 1.9 0 0 1-1.885 1.883 1.9 1.9 0 0 1-1.885-1.883 1.9 1.9 0 0 1 1.885-1.883c1.028 0 1.885.685 1.885 1.883Zm0 17.117a1.9 1.9 0 0 1-1.885 1.883 1.9 1.9 0 0 1-1.885-1.883 1.9 1.9 0 0 1 1.885-1.882 1.9 1.9 0 0 1 1.885 1.882Zm0 19a1.9 1.9 0 0 1-1.885 1.883 1.9 1.9 0 0 1-1.885-1.883 1.9 1.9 0 0 1 1.885-1.882 1.9 1.9 0 0 1 1.885 1.882Z" fill="#fff"/><path d="M206.298 250.567s-18.164 48.783-19.534 56.828c-1.2 8.045 9.081 26.703 13.879 27.387 7.026 1.027 12.68-1.027 19.706-13.009 6.854-11.981 5.655-63.161 5.655-63.161l-19.706-8.045Z" fill="url(#h)"/><path d="M226.175 253.82s-1.199 58.882-3.77 66.242c-4.112 11.811-14.565 15.063-14.565 15.063h11.652s9.082-5.991 9.939-23.964c.514-10.783-1.371-45.188-2.399-56.657-.343-3.081-.857-.684-.857-.684Z" fill="#EE4D47" fill-opacity=".3" style="mix-blend-mode:multiply"/><path d="m230.202 248.263-19.701-7.951-4.108 10.157 19.701 7.951 4.108-10.157Z" fill="#fff"/><path d="M304.655 262.207s-7.025 33.378-7.539 47.071c-.514 13.694 0 25.504 0 25.504l4.969.343s1.199-59.91 2.57-72.918Z" fill="#EE4D47" fill-opacity=".3" style="mix-blend-mode:multiply"/><path d="M245.023 215.991c-9.424 0-12.508-4.621-14.393-11.639-.857-3.766-1.2-13.865-1.2-14.207h2.742c0 .171.343 10.27 1.199 13.693 1.714 6.676 4.284 10.099 13.537 9.414l.172 2.739h-2.057Zm19.364-93.116c-7.54-.685-24.847-.171-32.729 14.891 0 0 2.056 3.595 4.455 1.199 8.568-7.703 20.563-7.874 27.931-7.874 7.54 0 20.049 0 28.445 7.874 2.57 2.225 4.455-1.199 4.455-1.199-7.711-15.062-25.018-15.576-32.557-14.891Z" fill="#fff"/><path d="M304.998 174.568s-.343-10.441-.514-13.351c-.343-5.649-1.2-14.892-3.085-19.856-6.168-16.946-26.217-20.198-36.669-20.198-10.624 0-31.016 3.252-37.184 20.027-1.714 4.793-2.571 13.351-3.085 19.171-.171 3.423-.342 14.036-.342 14.036h2.913s0-10.613.342-14.036c.343-4.451 1.2-10.955 3.427-17.117 5.141-14.549 24.161-16.09 33.415-16.09 9.424 0 28.787 1.541 33.928 16.09 2.399 6.847 3.255 13.865 3.598 18.315.171 2.91.343 13.009.343 13.009h2.913Z" fill="url(#i)"/><path d="M227.718 172.514h-3.77v16.09h3.77v-16.09Z" fill="#fff"/><path d="M234.4 191.685h-4.284c-2.056 0-3.769-1.712-3.769-3.766v-14.721c0-2.054 1.713-3.765 3.769-3.765h4.284c.514 0 .857.342.857.855v20.37c0 .513-.343 1.027-.857 1.027Z" fill="url(#j)"/><path d="M222.405 189.973h-.171a1.536 1.536 0 0 1-1.543-1.541v-16.09c0-.856.686-1.54 1.543-1.54h.171c.857 0 1.542.684 1.542 1.54v16.09c0 .856-.685 1.541-1.542 1.541Z" fill="url(#k)"/><path d="M300.844 188.882h3.77v-16.09h-3.77v16.09Z" fill="#fff"/><path d="M294.374 192.027h4.284c2.056 0 3.77-1.712 3.77-3.766v-14.72c0-2.054-1.714-3.766-3.77-3.766h-4.284c-.514 0-.857.342-.857.856V191c-.171.513.343 1.027.857 1.027Z" fill="url(#l)"/><path d="M306.197 190.315h.172c.857 0 1.542-.685 1.542-1.541v-16.089c0-.856-.685-1.541-1.542-1.541h-.172c-.856 0-1.542.685-1.542 1.541v16.089c0 .856.686 1.541 1.542 1.541Z" fill="url(#m)"/><path d="M255.134 214.279c0 1.712-2.056 3.252-4.798 3.252-2.57 0-4.797-1.369-4.797-3.252 0-1.883 2.056-3.252 4.797-3.252 2.571 0 4.798 1.369 4.798 3.252Z" fill="url(#n)"/><path fill-rule="evenodd" clip-rule="evenodd" d="m219.321 203.325.001-.001c1.594-1.492 3.419-2.522 5.173-3.392 3.153-2.039 6.829-4.359 8.192-4.995 2.742-1.369 4.455 1.027.514 4.451a58.278 58.278 0 0 1-2.877 2.317c2.14-.819 4.034-1.523 4.933-1.804 2.913-.856 4.284 1.883-.343 4.451-1.882 1.044-4.245 2.173-6.387 3.145l.733 2.332s2.057-1.883 2.742-2.396c4.284-2.91 6.511-.514 4.626 2.054-2.056 2.567-5.14 9.927-4.112 15.062.685 3.424.171 8.217-.685 11.982-.857 3.595-6.169 14.207-6.169 14.207l-13.708-4.792s3.084-3.253 2.57-11.126c-.152-2.581-1.18-5.297-2.203-7.998-1.283-3.389-2.558-6.756-2.081-9.804.857-4.793 7.882-12.495 9.082-13.693h-.001Z" fill="url(#o)"/><path opacity=".3" d="M231.658 223.865c.343-4.279 0-5.135-.342-7.189-.343-2.397.171-5.478-.857-7.703-1.2-2.396-3.084-3.766-6.34-3.081-4.284 1.027-5.998 3.252-5.998 3.252s3.427-1.369 5.141-1.883c2.57-.684 5.141-.513 6.169 2.568.514 1.883.857 4.45 1.199 6.333.172 1.37 1.2 7.361.343 7.532-.857 0-2.742-.514-3.598-3.595-.172.685-.343 5.306-.857 5.306-3.085-.342-3.427-2.738-3.599-5.306 0-1.198-.171-2.91-.514-5.135-1.199 1.883-4.112 3.595-5.312 4.45 1.371 1.199 3.941 4.109 4.97 5.307 1.884 2.225 3.598 5.648 3.941 9.243 4.626-4.451 2.056-9.072 1.885-10.613 1.199 1.37 3.598 2.397 3.769.514Z" fill="#EB5046"/><path d="M425.976 223.865c0-2.568-2.057-4.45-4.798-4.45H294.547c-2.57 0-4.798 2.054-4.798 4.45v78.738h136.055v-78.738h.172Z" fill="url(#p)"/><path d="M294.718 317.494h126.631c2.57 0 4.798-2.054 4.798-4.45v-10.27H290.091v10.27c-.171 2.396 2.057 4.45 4.627 4.45Z" fill="#CA3F3A"/><path d="M377.826 315.611h-33.929v16.09h33.929v-16.09Z" fill="#CA3F3A"/><path d="M381.937 315.611h-33.928v16.09h33.928v-16.09Z" fill="url(#q)"/><path d="M376.282 330.161H334.3v4.621h41.982v-4.621Z" fill="url(#r)"/><path d="M389.991 330.161h-41.982v4.621h41.982v-4.621Z" fill="url(#s)"/><path d="M433.001 223.864c0-2.567-2.056-4.45-4.797-4.45h-126.46c-2.57 0-4.798 2.054-4.798 4.45v78.738h136.055v-78.738Z" fill="url(#t)"/><path d="M301.744 317.494h126.631c2.57 0 4.798-2.054 4.798-4.45v-10.27H297.117v10.27c-.171 2.396 1.885 4.45 4.627 4.45Z" fill="url(#u)"/><path opacity=".2" d="M377.311 253.819a12.28 12.28 0 0 1-12.338 12.325 12.28 12.28 0 0 1-12.337-12.325 12.28 12.28 0 0 1 12.337-12.324 12.28 12.28 0 0 1 12.338 12.324Z" fill="#fff"/><path d="M262.331 330.161h-29.302v4.45h29.302v-4.45Z" fill="url(#v)"/><path d="M310.996 330.161h-61.517v4.45h61.517v-4.45Z" fill="url(#w)"/><path d="M334.667 139c0-11.046 8.954-20 20-20h112.619c11.045 0 20 8.954 20 20v26.612c0 11.046-8.955 20-20 20H334.667V139Z" fill="#F69477"/><circle opacity=".5" cx="369.2" cy="152.7" r="5.1" fill="#fff"/><circle opacity=".5" cx="390.3" cy="152.7" r="5.1" fill="#fff"/><circle opacity=".5" cx="411.4" cy="152.7" r="5.1" fill="#fff"/><circle opacity=".5" cx="432.5" cy="152.7" r="5.1" fill="#fff"/><circle opacity=".5" cx="453.6" cy="152.7" r="5.1" fill="#fff"/><defs><linearGradient id="a" x1="346.3" y1="99.9" x2="289.6" y2="203.5" gradientUnits="userSpaceOnUse"><stop stop-color="#F37753"/><stop offset="1" stop-color="#fff" stop-opacity="0"/></linearGradient><linearGradient id="b" x1="123.8" y1="-19.2" x2="162.3" y2="315.8" gradientUnits="userSpaceOnUse"><stop stop-color="#F7A58D"/><stop offset="1" stop-color="#F58A6B"/></linearGradient><linearGradient id="c" x1="279.5" y1="222.5" x2="276.4" y2="188.7" gradientUnits="userSpaceOnUse"><stop stop-color="#FFB3B6"/><stop offset="1" stop-color="#FFC8C1"/></linearGradient><linearGradient id="d" x1="252" y1="218.5" x2="280.8" y2="228.9" gradientUnits="userSpaceOnUse"><stop stop-color="#FFB3B6" stop-opacity=".3"/><stop offset="1" stop-color="#FFC8C1"/></linearGradient><linearGradient id="e" x1="305" y1="276.4" x2="298.9" y2="213.2" gradientUnits="userSpaceOnUse"><stop stop-color="#FFB3B6"/><stop offset="1" stop-color="#fff"/></linearGradient><linearGradient id="f" x1="303.5" y1="209.9" x2="297.7" y2="159.2" gradientUnits="userSpaceOnUse"><stop stop-color="#FFB3B6"/><stop offset="1" stop-color="#FFC8C1"/></linearGradient><linearGradient id="g" x1="264.7" y1="211.6" x2="264.7" y2="337.7" gradientUnits="userSpaceOnUse"><stop stop-color="#F4A984"/><stop offset="1" stop-color="#EE4D47"/></linearGradient><linearGradient id="h" x1="206.4" y1="231" x2="206.4" y2="337.3" gradientUnits="userSpaceOnUse"><stop stop-color="#F4A984"/><stop offset="1" stop-color="#EE4D47"/></linearGradient><linearGradient id="i" x1="264.6" y1="108.8" x2="264.6" y2="176" gradientUnits="userSpaceOnUse"><stop stop-color="#F4A984"/><stop offset="1" stop-color="#EE4D47"/></linearGradient><linearGradient id="j" x1="230.8" y1="164.3" x2="230.8" y2="192.3" gradientUnits="userSpaceOnUse"><stop stop-color="#F4A984"/><stop offset="1" stop-color="#EE4D47"/></linearGradient><linearGradient id="k" x1="222.3" y1="166.4" x2="222.3" y2="190.5" gradientUnits="userSpaceOnUse"><stop stop-color="#F4A984"/><stop offset="1" stop-color="#EE4D47"/></linearGradient><linearGradient id="l" x1="298" y1="164.6" x2="298" y2="192.6" gradientUnits="userSpaceOnUse"><stop stop-color="#F4A984"/><stop offset="1" stop-color="#EE4D47"/></linearGradient><linearGradient id="m" x1="306.3" y1="166.7" x2="306.3" y2="190.8" gradientUnits="userSpaceOnUse"><stop stop-color="#F4A984"/><stop offset="1" stop-color="#EE4D47"/></linearGradient><linearGradient id="n" x1="250.3" y1="209.5" x2="250.3" y2="217.7" gradientUnits="userSpaceOnUse"><stop stop-color="#F4A984"/><stop offset="1" stop-color="#EE4D47"/></linearGradient><linearGradient id="o" x1="223.7" y1="248.5" x2="246.2" y2="164.5" gradientUnits="userSpaceOnUse"><stop stop-color="#FFB3B6"/><stop offset=".2" stop-color="#FFC5C7"/><stop offset="1" stop-color="#fff"/></linearGradient><linearGradient id="p" x1="338.8" y1="470.3" x2="338.8" y2="-14.8" gradientUnits="userSpaceOnUse"><stop stop-color="#FFEDBA"/><stop offset=".4" stop-color="#F16D5E"/><stop offset=".7" stop-color="#EE4D47"/></linearGradient><linearGradient id="q" x1="360.2" y1="364.1" x2="360.2" y2="270.3" gradientUnits="userSpaceOnUse"><stop stop-color="#FFEDBA"/><stop offset="1" stop-color="#EE4D47"/></linearGradient><linearGradient id="r" x1="349.4" y1="352.3" x2="349.4" y2="325.8" gradientUnits="userSpaceOnUse"><stop stop-color="#FFEDBA"/><stop offset="1" stop-color="#EE4D47"/></linearGradient><linearGradient id="s" x1="363.1" y1="344.1" x2="363.1" y2="317.1" gradientUnits="userSpaceOnUse"><stop stop-color="#FFEDBA"/><stop offset="1" stop-color="#EE4D47"/></linearGradient><linearGradient id="t" x1="345.9" y1="357" x2="345.9" y2="140.4" gradientUnits="userSpaceOnUse"><stop stop-color="#FFEDBA"/><stop offset="1" stop-color="#EE4D47"/></linearGradient><linearGradient id="u" x1="346.1" y1="347.2" x2="346.1" y2="261.3" gradientUnits="userSpaceOnUse"><stop stop-color="#FFEDBA"/><stop offset="1" stop-color="#EE4D47"/></linearGradient><linearGradient id="v" x1="243.6" y1="351.5" x2="243.6" y2="325.9" gradientUnits="userSpaceOnUse"><stop stop-color="#FFEDBA"/><stop offset="1" stop-color="#EE4D47"/></linearGradient><linearGradient id="w" x1="271.6" y1="330.1" x2="271.6" y2="310.7" gradientUnits="userSpaceOnUse"><stop stop-color="#FFEDBA"/><stop offset="1" stop-color="#EE4D47"/></linearGradient></defs></svg>