<svg width="498" height="694" fill="none" xmlns="http://www.w3.org/2000/svg"><mask id="a" style="mask-type:alpha" maskUnits="userSpaceOnUse" x="114" y="212" width="468" height="321"><path d="M201.911 228.651c-63.352 11.302-129.58 127.432-54.234 220.254 121.948 150.234 279.687 64.733 359.953-.42 143.941-116.839 64.787-322.379-116.793-196.956-161.852 111.796-53.673-47.006-188.926-22.878Z" fill="#F6A182"/></mask><g mask="url(#a)"><path opacity=".7" d="M478.986 158.527c.845 32.706-8.332 105.269-51.801 133.875-54.337 35.758-35.448-136.098-80.675-99.387-45.226 36.711 27.367 169.789-5.297 196.302-32.663 26.514-33.008-115.121-73.525-90.581-40.518 24.541 31.451 174.821-7.729 208.711-39.18 33.89-42.281-136.813-107.608-83.786" stroke="url(#b)" stroke-width="2"/><path d="m153.47 217.832 16.843-11.455 15.032 20.157-17.085 11.43-14.79-20.132Z" fill="#D88D6C"/><path d="M185.019 196.655s-6.512 13.265-5.429 18.148c0 0 6.039 13.716-3.407 11.632 0 0-7.953.028-12.27 8.629l-18.044-20.593 47.25-38.132c1.401 4.182 3.261 8.657-8.1 20.316Z" fill="url(#c)"/><path d="m145.761 214.338-2.979-3.124 47.652-38.457c1.084 1.336 2.027 1.679 2.444 3.557l-47.117 38.024Z" fill="#C73E39"/><path d="m86.595 276.548 13.59-15.464 19.54 15.612-13.456 15.355-19.674-15.503Z" fill="#D88D6C"/><path d="M116.91 251.941s-6.512 13.265-5.429 18.148c0 0 9.562 6.867.374 7.011 0 0-12.543 4.197-12.971 11.859l-21.1-19.444 47.251-38.132c1.242 4.532 3.102 9.007-8.125 20.558Z" fill="url(#d)"/><path d="m77.651 269.623-2.978-3.123 47.651-38.458c1.085 1.337 2.028 1.679 2.444 3.557l-47.117 38.024Z" fill="#C73E39"/></g><path d="m412.801 298.853-18.274-10.894 4.217-10.541c.352 0 7.38-4.217 10.543-2.811 3.163 1.405 4.569 5.271 4.92 9.487 0 4.217-1.406 14.759-1.406 14.759Z" fill="#E0932D"/><path d="M363.6 316.422c0-13.704 8.434-29.868 18.626-35.842 2.46-1.405 8.083-2.459 10.543-2.459 2.108 0 7.38 1.757 14.057 6.676 5.623 4.217 6.325 11.245 6.325 11.245l-21.085 43.22s-3.866 2.811-10.192.352c-2.811-1.054-6.677-3.514-8.786-4.92-4.217-2.811-5.974-4.919-7.38-7.027-.351-1.055-1.405-2.812-1.405-3.514-.352-2.109-.703-4.92-.703-7.731Z" fill="#191919"/><path d="M413.854 302.015c0 13.704-8.434 29.868-18.625 35.842-10.543 5.973-18.626-.352-18.626-14.056 0-13.704 8.434-29.868 18.626-35.841 10.191-6.325 18.625 0 18.625 14.055Z" fill="#333"/><path d="M410.34 304.475c0 10.893-6.677 23.543-14.76 28.111-8.083 4.568-14.76-.351-14.76-11.245 0-10.893 6.677-23.542 14.76-28.111 8.434-4.568 14.76.352 14.76 11.245Z" fill="#191919"/><path d="M404.718 307.286c0 7.028-4.217 15.461-9.489 18.624-5.271 3.162-9.488-.352-9.488-7.38 0-7.027 4.217-15.461 9.488-18.623 5.272-2.811 9.489.351 9.489 7.379Z" fill="#F7F2EC"/><path d="M398.742 300.961c1.054 1.405 1.406 3.162 1.406 5.271 0 6.325-3.866 13.353-8.434 16.164-1.406.702-2.46 1.054-3.515 1.054 1.406 2.108 4.217 2.46 7.029 1.054 4.568-2.811 8.434-9.839 8.434-16.164 0-4.568-2.108-7.379-4.92-7.379Z" fill="#D1C5BA"/><path d="M398.742 300.961c-1.055 0-2.46.351-3.515 1.054-4.217 2.46-7.731 8.785-8.434 14.758.703-.351 1.054 0 1.054 1.055 0 .702-.351 1.757-1.054 2.108.352 1.405.703 2.46 1.406 3.514 1.054 0 2.46-.352 3.514-1.054 4.569-2.811 8.434-9.839 8.434-16.164 0-2.109-.351-4.217-1.405-5.271Z" fill="#B29EA1"/><path d="M388.198 317.476c0-.703-.351-1.405-1.054-1.054v3.163c.351-.352 1.054-1.055 1.054-2.109Zm3.868-10.893c-1.758 1.054-3.163 3.865-3.163 6.325s1.405 3.514 3.163 2.46c1.757-1.054 3.163-3.865 3.163-6.325s-1.406-3.514-3.163-2.46Zm4.919-3.514c-.703.352-1.054 1.406-1.054 2.46s.703 1.406 1.054 1.054c.703-.351 1.054-1.405 1.054-2.46.352-1.054-.351-1.405-1.054-1.054Zm0 7.379c-.703.352-1.054 1.406-1.054 2.46s.703 1.406 1.054 1.054c.703-.351 1.054-1.405 1.054-2.46.352-1.054-.351-1.405-1.054-1.054Zm-4.568 6.325c-.702.352-1.405 1.406-1.405 2.46s.703 1.406 1.405 1.054c.703-.351 1.055-1.405 1.055-2.459 0-1.055-.352-1.406-1.055-1.055Z" fill="#191919"/><path d="M345.678 195.545c-1.757-1.055-3.866-1.055-6.326.351l-31.98 18.623c-13.354 7.731-16.165 23.543-20.734 38.653-4.569 15.11-8.786 23.895-20.383 30.922-1.757 1.054-3.163 1.757-4.92 2.811v21.084l83.64-48.14c2.46-1.406 4.569-5.271 4.569-8.785l4.92-51.303c-.703.352-8.434-3.865-8.786-4.216Z" fill="#FABF5B"/><path d="m363.952 251.415-55.877-32.328 39.009-22.488 58.337 33.733-41.469 21.083Z" fill="#FABF5B"/><path d="M413.151 234.9s-8.434-4.92-9.137-5.271c-1.757-.703-3.865-.703-5.974.703l-31.98 18.623c-13.354 7.731-16.166 23.543-20.734 38.653-4.569 15.11-8.786 23.894-20.383 30.922-11.598 6.677-27.412 15.813-27.412 15.813v21.083l70.286-40.761 3.866-33.733 41.468-46.032Z" fill="#FABF5B"/><path d="m406.826 235.251-31.98 18.624c-13.355 7.73-16.166 23.543-20.735 38.653-4.568 15.109-8.785 23.894-20.382 30.922a24673.992 24673.992 0 0 0-27.412 15.812v21.083l65.717-37.949v-11.948c0-8.433 5.272-18.272 11.246-21.786l18.274-10.541c6.326-3.514 11.246.351 11.246 8.433v5.271s.703 3.162 1.054 5.622c1.406-1.757 2.46-4.568 2.46-7.028v-48.14c0-6.676-4.217-9.839-9.488-7.028Z" fill="#F4AA40"/><path d="m316.86 325.909-70.286-40.761 21.437-11.947 70.286 40.41-21.437 12.298Z" fill="#FABF5B"/><path d="m341.813 231.386-24.248-13.353-.703.352c-13.355 7.73-16.166 23.543-20.735 38.652-3.865 12.65-7.38 20.732-15.111 27.057l18.977 12.299 28.466 18.623c9.489-6.676 13.354-15.109 17.571-28.813 4.569-15.11 7.732-30.923 20.735-38.653l2.811-1.406-27.763-14.758Z" fill="#191919"/><path d="m312.643 299.907 2.46-1.406.351 26.354-2.46 1.406-.351-26.354Z" fill="#191919"/><path d="m262.386 310.448-18.626-11.244 4.569-9.839c.351 0 7.38-4.217 10.543-2.811 3.163 1.405 4.569 5.271 4.92 9.487 0 4.217-1.406 14.407-1.406 14.407Z" fill="#E0932D"/><path d="M217.051 319.936c0-11.596 7.029-24.949 15.814-29.868 2.109-1.406 6.678-2.109 8.786-2.109 1.757 0 6.326 1.406 11.949 5.623 4.568 3.514 5.271 9.136 5.271 9.136L241.3 338.911s-3.163 2.459-8.435.351c-2.108-.703-5.623-2.811-7.028-4.217-3.515-2.459-4.92-3.865-5.975-5.973-.351-.703-1.054-2.46-1.405-3.163-1.055-1.054-1.406-3.514-1.406-5.973Z" fill="#191919"/><path d="M259.222 307.988c0 11.596-7.029 24.949-15.815 29.868-8.785 4.92-15.814-.351-15.814-11.947s7.029-24.948 15.814-29.868c8.786-4.919 15.815.352 15.815 11.947Z" fill="#333"/><path d="M256.058 310.097c0 9.136-5.623 19.678-12.3 23.543-6.678 3.865-12.3-.352-12.3-9.488s5.622-19.677 12.3-23.543c7.028-3.865 12.3.352 12.3 9.488Z" fill="#191919"/><path d="M251.49 312.557c0 5.973-3.515 13.001-8.083 15.461-4.569 2.459-8.083 0-8.083-5.974s3.514-13.001 8.083-15.461c4.568-2.46 8.083 0 8.083 5.974Z" fill="#F7F2EC"/><path d="M246.57 307.286c.703 1.054 1.055 2.459 1.055 4.568 0 5.271-3.163 11.244-7.029 13.353-1.054.702-2.109.702-3.163.702 1.406 1.757 3.514 2.109 5.974.703 3.866-2.108 7.029-8.082 7.029-13.353 0-3.865-1.757-5.973-3.866-5.973Z" fill="#D1C5BA"/><path d="M246.571 307.286c-1.055 0-2.109 0-3.163.703-3.514 2.108-6.677 7.379-7.029 12.298.703-.351 1.055 0 1.055.703s-.352 1.405-1.055 1.757c.352 1.054.703 2.108 1.055 2.811 1.054 0 2.108 0 3.162-.703 3.866-2.108 7.029-8.082 7.029-13.353 0-1.757-.351-3.162-1.054-4.216Z" fill="#B29EA1"/><path d="M237.433 320.99c0-.703-.352-1.054-1.055-.703v2.811c.703-.703 1.055-1.405 1.055-2.108Zm3.163-8.785c-1.406.703-2.812 3.163-2.812 5.271s1.406 2.811 2.812 2.108c1.405-.703 2.811-3.162 2.811-5.271 0-2.108-1.054-3.162-2.811-2.108Zm4.568-3.162c-.703.351-1.054 1.054-1.054 2.108 0 .703.351 1.054 1.054.703.703-.352 1.054-1.054 1.054-2.109 0-.702-.703-1.054-1.054-.702Zm0 5.973c-.703.352-1.054 1.054-1.054 2.109 0 .702.351 1.054 1.054.702.703-.351 1.054-1.054 1.054-2.108 0-.703-.703-1.054-1.054-.703Zm-3.865 5.622c-.703.352-1.054 1.055-1.054 2.109s.351 1.054 1.054.703c.703-.352 1.055-1.055 1.055-2.109-.352-.703-.703-1.054-1.055-.703Z" fill="#191919"/><path d="M236.378 296.744c1.406-.703 6.678-3.865 13.003-7.379 2.46-1.406 4.217-2.46 5.272-2.811 3.514-1.406 5.271-1.054 6.326-.703l-15.815-9.136c-2.108-1.406-4.92-1.757-8.083.351l-2.46 1.406-13.003 7.379-3.865 2.46 16.868 9.838c.352-.702 1.055-1.054 1.757-1.405Z" fill="#FFC97B"/><path d="M260.627 285.851c.351 0 .352.351.352.351l-.352-.351Z" fill="#D1C5BA"/><path d="m238.137 294.636 14.76-8.434c6.326-3.514 11.246.352 11.246 8.434v14.758l-1.758 1.054V295.69c0-7.028-4.217-10.19-9.488-7.379l-14.76 8.433v-2.108Z" fill="#F4AA40"/><path d="M233.567 297.095v2.46l10.543-6.325 6.326-3.514v-2.459l-16.869 9.838Zm0 0v2.46l-10.542-6.325-5.623-2.811v-2.46l16.165 9.136Z" fill="#F4AA40"/><path d="m305.963 346.29 9.138-14.758-70.286-40.41-9.138 14.758 70.286 40.41Z" fill="#FABF5B"/><path d="m305.965 367.373-70.286-40.761V305.88l70.286 40.41v21.083Z" fill="#F4AA40"/><path d="m316.507 315.016-49.903-29.165 23.897-13.353 49.903 28.814-23.897 13.704Z" fill="#232323"/><path d="M310.533 325.558s13.003-7.379 17.923-10.19c2.46-1.406 4.92-3.866 7.731-7.38 2.46-2.811 4.217-6.676 4.217-6.676l-29.871 16.515v7.731Zm-18.273-80.116c0-.352 5.272-8.785 5.272-8.785l11.597 7.379-15.112 40.41-12.651-7.028 10.894-31.976Z" fill="#191919"/><path d="m297.529 236.657-10.543 5.974c-3.162 1.756-5.622 6.676-5.622 10.893v23.894l16.165-9.136v-31.625Z" fill="#191919"/><path d="m321.426 232.089-22.843 13.001c-2.109 1.406-3.866 4.568-3.866 7.379l-.351 31.977 32.331 18.623s10.543-32.679 13.003-36.896c2.811-3.865 14.76-15.812 14.76-15.812l-33.034-18.272Z" fill="#232323"/><path d="M326.698 272.147v31.273l8.434-4.919c2.109-4.217 3.515-8.785 5.272-14.056 3.514-12.298 6.325-24.948 14.057-33.381l-24.249 14.055c-1.757 1.054-3.514 4.217-3.514 7.028Z" fill="#333"/><path d="M295.422 240.171c-3.515 1.757-6.326 3.162-8.435 5.27-2.108 2.109-3.865 7.028-.703 8.082 2.812 1.055 2.109-2.108 5.272-5.27 2.46-2.46 7.38-4.92 8.786-5.623 2.108-1.054-1.758-3.865-4.92-2.459Z" fill="#232323"/><path d="m289.8 246.144-5.623-14.407c-.352-.703-.703-.703-1.406-.703-.703.352-.703.703-.703 1.406l5.623 14.758s0 .352.352.352c.351 1.054 1.757-1.054 1.757-1.406Zm3.864-2.459-2.46-16.516c0-.702-.703-1.054-1.406-1.054-.702 0-1.054.703-1.054 1.406l2.812 17.218c.702-.352 1.405-.352 2.108-1.054Zm2.813-1.406v-17.921c0-.703.352-1.054 1.054-1.054.703 0 1.055.351 1.055 1.054v17.218c.351.703-2.109 1.406-2.109.703Z" fill="#E0D7CE"/><path d="M286.286 232.791a3.15 3.15 0 0 1-3.163 3.163 3.15 3.15 0 0 1-3.163-3.163 3.15 3.15 0 0 1 3.163-3.162 3.15 3.15 0 0 1 3.163 3.162Z" fill="#232323"/><path d="M284.175 231.737c0 1.055-.703 1.757-1.757 1.757-1.055 0-1.758-.702-1.758-1.757 0-1.054.703-1.757 1.758-1.757 1.054.352 1.757 1.055 1.757 1.757Z" fill="#444"/><path d="M292.961 226.115a3.15 3.15 0 0 1-3.163 3.163 3.15 3.15 0 0 1-3.163-3.163 3.15 3.15 0 0 1 3.163-3.162 3.15 3.15 0 0 1 3.163 3.162Z" fill="#232323"/><path d="M290.5 225.061c0 1.054-.703 1.757-1.757 1.757-1.054 0-1.757-.703-1.757-1.757 0-1.054.703-1.757 1.757-1.757 1.054.351 1.757 1.054 1.757 1.757Z" fill="#444"/><path d="M297.53 224.358a3.163 3.163 0 1 1 0-6.325 3.163 3.163 0 0 1 0 6.325Z" fill="#232323"/><path d="M298.586 220.493c0 1.054-.703 1.757-1.757 1.757-1.054 0-1.757-.703-1.757-1.757 0-1.054.703-1.757 1.757-1.757 1.054 0 1.757.703 1.757 1.757Z" fill="#444"/><path d="M289.448 247.55c-.351.703-1.054.703-1.405.703-.352-.352-.352-.703.351-1.406.351-.703 1.054-.703 1.406-.703 0 0 0 .703-.352 1.406Zm3.162-2.811c-.702.351-1.054.351-1.405 0 0-.352.351-.703.703-1.055.702-.351 1.054-.351 1.405 0 .352.352 0 1.055-.703 1.055Zm5.271-2.109c-.703 0-1.054 0-1.405-.351 0-.351.351-.703 1.054-1.054.703-.352 1.054 0 1.406.351 0 .352-.352.703-1.055 1.054Z" fill="#E0D7CE"/><path d="m337.943 103.129-1.757-1.054h-.351c-1.406-.703-3.163 0-5.623 1.406l-61.5 35.49c-3.163 1.757-4.217 3.865-5.623 13.704-1.406 8.433-14.76 109.282-15.463 114.904l1.757 1.054 3.514-4.217c.703-5.27 14.058-107.173 14.76-113.147.703-6.325 2.109-7.73 4.92-9.487l54.823-31.625c3.515-2.108 4.569-2.46 4.569.351v89.604l1.757 1.055 3.163-4.217v-90.658c1.054 0 1.054-3.163 1.054-3.163Z" fill="#444"/><path d="M255.358 265.471c.703-5.271 14.057-107.174 14.76-112.796.703-6.325 2.109-7.73 4.92-9.487l54.823-31.625c3.514-2.109 4.569-2.46 4.569.351v88.901l5.271-3.162v-90.658c0-5.623-2.811-5.623-7.38-3.163l-61.5 35.49c-3.163 1.757-4.217 3.866-5.623 13.705-1.406 8.433-14.408 109.281-15.463 114.903l5.623-2.459Z" fill="#232323"/><path d="M308.777 201.518s-2.812 3.163-4.569 6.676c-2.108 3.866-3.514 5.271-3.865 8.082 0 1.055-3.515 8.785-1.758 11.948 1.758 3.513 3.515.702 4.92-1.757 1.055-1.757 3.866-5.974 4.218-8.082 0 0 1.054-2.109 3.865-5.623 2.812-3.513 3.866-5.973 3.866-5.973l-6.677-5.271Z" fill="#FFC9B6"/><path d="M317.21 211.708c-5.271-1.054-9.137-4.919-12.3-8.784.703-1.055 2.812-3.163 3.515-3.866 2.108-8.433 7.38-9.487 10.191-8.082 4.92 2.46 5.623 7.731 3.514 12.299-.703 2.108-3.163 6.325-4.92 8.433Z" fill="#F4AA40"/><path d="M281.366 298.853c.351-3.163 3.163-4.569 5.623-6.325 1.406-1.055 2.811-2.109 2.46-4.569v-1.054c3.163 2.109 5.623-1.054 9.137-1.757.351 1.757 1.054 5.623 1.054 7.38.703 2.811-.703 3.513-2.46 4.216 0 1.054-3.514 4.568-5.623 6.325-2.108 1.406-3.865 2.46-5.974 1.406-3.163-2.109-4.568-2.811-4.217-5.622Zm28.113 1.405v-.703c3.162 1.055 6.325.703 9.84-.351v.703c0 1.757 1.405 3.865 0 5.973-.703.703-1.055.703-2.46 2.109-1.055 2.108-2.109 5.27-5.272 7.73-2.811 2.108-7.028 1.054-8.434-.351-2.109-2.109-.703-4.92 1.054-7.379 1.757-2.811 4.569-5.623 5.272-7.731Z" fill="#33212A"/><path d="M293.666 262.308c-2.109-.351-4.217-8.785-6.677-5.973-2.109 2.459 1.757 25.299 1.405 32.327 2.109 3.866 10.543 3.866 11.949 1.757 1.757-8.082 3.514-22.489 2.46-27.057-2.812.352-5.975-.351-9.137-1.054Z" fill="#00665C"/><path d="M327.403 241.576c.352-.351 0-1.054-.351-1.405-2.46-2.109-10.192-8.785-10.192-8.785-3.514 0-3.514-1.757-6.325.351-1.055.703-2.812 1.757-2.812 4.217-8.434 4.568-19.328 17.921-20.734 20.029 1.406 1.757 4.217 5.622 5.974 7.028 2.109 2.108 1.757 2.811 4.569 3.865 1.757-.351 4.92-1.405 6.677-2.459 10.543-4.217 18.626-12.65 23.194-22.841Z" fill="#00665C"/><path d="M315.805 278.121a91.79 91.79 0 0 0 2.811 1.757c2.46 0 3.515-7.38 4.92-8.434 4.218-3.162 8.435-10.893 10.543-15.461 4.217-3.514 8.786-4.919 7.38-17.569-3.514-2.811-10.894-8.082-15.814-6.677-5.623 5.974-7.731 10.191-6.677 14.407-3.514 5.974-6.326 12.299-9.489 18.624-1.406 2.46-1.054 5.271-1.405 8.082 3.162 2.108 4.568 3.514 7.731 5.271Z" fill="#007D75"/><path d="M321.78 266.876c-4.217.352-8.435.352-12.652-.351-1.405 8.433-1.405 22.137.703 28.111-2.811 3.162-1.757 6.325.352 7.379 4.217 1.757 7.38 1.054 9.84 0 2.108-3.865 5.271-27.408 4.217-35.139h-2.46Z" fill="#007D75"/><path d="m341.109 236.657.703 1.757s-4.569 4.568-10.543 5.622c-6.326.703-11.949-.352-14.409-1.054-2.46-.703-3.514-3.866-3.514-3.866s14.408 2.46 17.923 1.406c3.865-1.406 9.84-3.865 9.84-3.865Z" fill="#00665C"/><path d="M340.055 233.846c-.352-2.811-4.217-2.811-4.217-2.811l-1.406 5.27c0-.351 6.326 1.757 5.623-2.459Z" fill="#00665C"/><path d="M311.94 233.846c-1.406-2.46-.703-12.299.351-16.164-1.757-7.028-2.46-11.947-1.054-17.57 1.054-3.514 4.217-7.379 8.434-7.73 2.109 0 9.137 2.811 10.543 3.514 5.623 1.405 8.786 4.216 12.3 8.082.351.351-1.406 16.515-2.46 19.677-1.054 3.514-.352 8.785-1.406 12.299.352 3.162-9.488 5.271-12.3 5.271-9.84 0-12.3-2.811-14.408-7.379Z" fill="#FABF5B"/><path d="M335.837 231.035s-2.46 1.405-5.272.351c-3.162-.703-4.92-2.46-4.92-2.46s3.866 1.406 5.623 1.406c1.758.351 4.569.703 4.569.703Zm-2.461-34.085s-.351 3.162-4.217 4.568c-5.974 2.108-9.84-.703-10.895-3.865-1.054-3.163 2.461-5.622 2.461-5.622s7.38 1.054 12.651 4.919Z" fill="#F4AA40"/><path d="m340.054 233.846 1.054 2.811s-2.46 2.108-8.785 4.568c-6.326 2.459-13.706 1.054-16.869-1.757-3.163-2.811-5.271-4.568-5.271-7.028-.352-2.811 0-7.028.351-10.893.352-3.865 1.406-14.758 1.406-14.758s3.163 2.108 7.028 3.162c5.272 1.406 8.083 1.406 8.083 1.406s-.351 9.839 1.055 14.407c.702 3.162 2.108 6.325 5.622 8.082 3.866 1.405 6.326 0 6.326 0Z" fill="#007D75"/><path d="M324.591 214.168s-2.812 0-6.677-1.054c-2.46-.703-4.217-1.757-4.217-1.757s-.703 3.162-1.055 6.676c0 2.109 2.109 3.865 4.92 4.568 2.46.703 5.975 0 6.326-2.459.703-4.217.703-5.974.703-5.974Z" fill="#00665C"/><path d="M335.134 198.004s-2.811 1.406-5.271 6.325c-2.109 4.217-2.46 10.542-2.46 10.542l-2.46-.703s0-6.325 2.811-10.893c3.163-5.271 4.217-6.325 6.677-6.676 1.055 0 .703 1.405.703 1.405Zm-12.652-5.271s-2.812 1.406-5.272 6.325c-2.108 4.217-2.46 10.542-2.46 10.542l-2.46-.703s0-6.325 2.812-10.893c3.163-5.271 4.217-6.325 6.677-6.676 1.054 0 .703 1.405.703 1.405Z" fill="#007D75"/><path d="M320.724 190.625c1.054.351 3.163.703 4.568.351 1.758-.351 3.515-1.054 4.92-2.459 0 1.757.703 5.973 1.406 7.73 1.054 2.109-3.514 3.866-7.028 3.514-2.46-.351-4.92-2.46-4.92-3.514.702-2.459.702-4.568 1.054-5.622Z" fill="#FFB9A4"/><path d="M316.859 182.192c.352-2.46 1.055-5.271 3.163-6.677 2.109-1.405 4.92-1.405 7.38-.702 3.515.702 5.623 4.919 4.569 9.487-1.054 4.217-4.569 10.542-9.489 10.893-2.46.352-4.217-1.757-4.92-4.217-1.406-3.513-1.054-7.027-.703-8.784Z" fill="#FFC9B6"/><path d="M334.079 234.9s-2.811 1.757-5.271 2.46c-2.46.702-4.569 0-4.569 0s1.406 0 4.569-1.055c3.163-1.054 5.271-1.405 5.271-1.405Zm-13.707 33.03c.703 2.109.703 3.514.703 3.514s-2.108-1.054-2.108-3.865.702-1.757 1.405.351Zm-4.568 5.623s1.405-1.406 2.811-1.055c1.406.352 2.46.703 2.46.703s-.703 1.054-2.811.703c-1.757 0-2.46-.351-2.46-.351Z" fill="#00665C"/><path d="M330.917 178.326c-.703-5.973-8.435-8.433-11.246-2.811-2.812-1.054-5.974 1.757-6.677 4.92.351.351 4.568 3.514 7.731 1.757.352 3.162 4.92 2.459 6.326 1.405 0 1.406 1.406 1.406 2.811 1.406-.703 1.405-1.054 3.865-.351 5.622.351-1.757 3.163-2.811 3.514-4.568 0-.703 0-1.406-.703-2.108 2.46-1.757 1.406-6.325-1.405-5.623Z" fill="#191919"/><path d="M316.508 176.218s-4.569 2.46-5.271 5.622v.703c0 1.054.351 1.757 1.405 2.811 2.46 2.46 7.38 3.163 12.652 2.109 4.92-1.055 7.38-4.92 7.38-4.92l-16.166-6.325Z" fill="#007D75"/><path d="M312.292 184.651c2.46 2.46 7.38 3.163 12.651 2.109 4.92-1.054 7.38-4.92 7.38-4.92l-15.814-6.325s-8.434 4.568-4.217 9.136Z" fill="#089688"/><path d="M330.214 169.893c.702 2.108 0 4.568-1.758 5.974-2.46 2.811-6.325 4.216-9.84 4.216-2.811 0-4.92-1.405-5.271-3.865 0 .703-.351 1.406-.351 2.108v1.055c.351 3.162 4.92 5.27 10.894 5.27s10.543-2.459 10.894-5.27v-1.055c0-3.162-1.757-6.325-4.568-8.433Z" fill="#007065"/><path d="M318.617 180.435c3.514 0 7.38-1.406 9.84-4.217 1.406-1.757 2.109-3.865 1.757-5.973-1.757-1.406-3.866-2.109-6.326-2.109-5.271 0-9.488 3.865-10.542 8.785.351 2.108 2.811 3.514 5.271 3.514Z" fill="#007D75"/><path d="M330.564 171.65c-3.162-.703-6.325.703-8.434 2.811-2.108 2.108-4.217 5.974-3.866 9.136.352-1.405.352-2.811 1.055-4.217.703-1.756 1.405-3.162 2.811-4.568 2.109-1.757 4.92-3.162 8.434-3.162 0 .351 0 .351 0 0Z" fill="#00665C"/><path d="M323.184 168.839c-.703-.351-1.406-.352-2.46.351-1.757.703-3.514 2.109-4.217 3.514-.703.703-1.406 2.108-1.406 3.163 0 .702.351 1.054 1.054.702 1.055-.702 1.406-2.108 1.758-2.811a6.895 6.895 0 0 1 3.162-3.162c.352-.352 2.812-1.054 2.109-1.757Z" fill="#089688"/><path d="M317.212 172.704c-.351-.351-1.757 1.757-1.757 2.46 0 .703.351 1.054 1.054.351.351-.351.352-.703.703-1.054 0-.351.351-1.757 0-1.757Z" fill="#11AA97"/><path d="M324.942 174.461c-.703 0-1.406.352-1.757.703-1.406 1.054-2.109 2.46-2.109 3.163 0 .351 0 .702.703.702s1.406-1.054 2.108-1.405c0-.352 2.812-2.811 1.055-3.163Z" fill="#089688"/><path d="M323.537 175.867c-.703-.703-2.109 1.405-2.109 1.757 0 .351 0 .351.352.351.351 0 .702-.351 1.054-.703 0 .352 1.054-.703.703-1.405Z" fill="#11AA97"/><path d="m275.04 140.025 56.932 33.031 2.811-1.757-56.931-32.679-2.812 1.405Z" fill="#444"/><path d="M275.04 140.025v1.757l56.932 33.031v-1.757l-56.932-33.031Z" fill="#232323"/><path d="m283.824 134.754 57.283 33.031 2.811-1.406-57.283-33.03-2.811 1.405Z" fill="#444"/><path d="M283.824 134.754v1.757l57.282 33.031v-1.757l-57.282-33.031Z" fill="#232323"/><path d="m292.961 129.835 56.932 32.679 2.811-1.406-56.931-33.03-2.812 1.757Z" fill="#444"/><path d="M292.962 129.835v1.405l56.932 33.031v-1.757l-56.932-32.679Z" fill="#232323"/><path d="m301.749 124.564 57.283 32.679 2.812-1.405-57.283-33.031-2.812 1.757Z" fill="#444"/><path d="M301.749 124.564v1.405L359.032 159v-1.757l-57.283-32.679Z" fill="#232323"/><path d="m310.887 119.293 56.931 33.031 2.812-1.757-56.932-32.679-2.811 1.405Z" fill="#444"/><path d="M310.887 119.293v1.757l56.931 33.031v-1.757l-56.931-33.031Z" fill="#232323"/><path d="m319.67 114.022 57.283 33.031 2.812-1.406-57.283-33.03-2.812 1.405Z" fill="#444"/><path d="M319.671 114.022v1.757l57.283 33.031v-1.757l-57.283-33.031Z" fill="#232323"/><path d="m328.808 109.103 56.931 32.679 2.812-1.406-56.932-33.03-2.811 1.757Z" fill="#444"/><path d="M328.809 109.103v1.405l56.931 33.031v-1.757l-56.931-32.679Z" fill="#232323"/><path d="M307.371 259.848c-1.406 0-2.811-.351-4.568-1.405-2.812-1.406-5.975-4.217-8.435-7.379-2.46-3.163-4.217-7.028-4.568-10.191-.703-3.513 0-5.973 1.757-7.379 1.757-1.405 4.568-1.405 7.731.352 2.812 1.405 5.975 4.216 8.435 7.379 2.46 3.162 4.217 7.028 4.568 10.19.703 3.514 0 5.974-1.757 7.379-1.054.703-2.108 1.054-3.163 1.054Zm-12.651-25.3c-.703 0-1.406.352-2.109.703-1.406 1.054-1.757 3.163-1.054 5.622.703 2.812 2.108 6.325 4.217 9.137 2.109 3.162 4.92 5.622 7.731 7.027 2.46 1.406 4.569 1.406 5.623.352 1.406-1.054 1.758-3.163 1.055-5.623-.703-2.811-2.109-6.324-4.218-9.136-2.108-3.162-4.92-5.622-7.731-7.027-1.054-.703-2.46-1.055-3.514-1.055Z" fill="#F7F2EC"/><path d="M334.08 212.411s-4.569 8.082-7.029 14.056c-5.622 2.459-8.434 11.595-13.002 14.055-3.515 1.757-5.975 0-7.029.351.351.703.703 1.055 1.406 2.109.351.703-.352.351-1.406 3.162-.351.703-.351 1.406.703 1.757 0 1.054.351 1.406 1.054 1.757.352.703 0 2.108 2.812.703 1.405-.703 3.162-4.568 4.217-5.271 2.108-1.405 15.814-9.839 18.625-13.001 3.163-3.163 7.381-16.164 7.381-16.164l-7.732-3.514Z" fill="#FFC9B6"/><path d="M335.834 200.464c-4.217 3.514-4.217 13.353-4.217 13.353s-1.757 1.405-2.811 3.865c.703 3.162 8.434 6.325 11.246 6.676 2.108-3.162 2.46-5.271 2.46-5.271s3.865-7.73 2.108-13.001c-2.108-4.568-6.677-7.379-8.786-5.622Z" fill="#F4AA40"/><path d="M304.558 251.064c.351-.352.703-1.406.351-2.46-.351-1.054-.703-2.46-1.757-3.514-.703-1.054-1.757-2.108-2.811-2.46-1.055-.702-2.109-.702-2.812 0l-.703.703v1.757c.352 1.054.703 2.46 1.757 3.514.703 1.054 1.758 2.108 2.812 2.46.703.351 2.108.702 2.108.702l1.055-.702c-.352.351-.352.351 0 0Z" fill="#E0D7CE"/><path d="M302.45 252.469c-.352 0-1.055 0-1.757-.351-1.055-.351-2.109-1.406-2.812-2.46-.703-1.054-1.406-2.46-1.757-3.514-.351-1.054 0-2.108.703-2.459.703-.352 1.757-.352 2.811 0 1.055.351 2.109 1.405 2.812 2.459.703 1.054 1.405 2.46 1.757 3.514.351 1.054 0 2.109-.703 2.46 0 0-.351.351-1.054.351Z" fill="#F7F2EC"/><path d="M303.153 249.658s0-.351 0 0c0-1.054-.703-2.108-1.054-2.811-.703-.703-1.406-1.405-2.109-1.757-.702-.351-1.405-.351-2.108 0 0 0-4.92 1.406-10.192 12.65-4.568 9.488-7.731 21.786-7.731 21.786l4.569 3.514s5.271-9.839 9.84-17.921c3.514-6.325 7.731-13.704 7.731-16.164 0-.351.703 0 1.054.703Z" fill="#232323"/><path d="M303.154 249.658c0-1.757-1.757-3.514-1.757-3.514s-1.757 1.406-3.163 2.811c-1.405 1.757-3.865 5.271-7.028 11.245-1.406 2.811-2.46 6.325-3.866 9.136-2.46 6.676-3.866 12.65-3.866 12.65l3.163 2.46s3.866-5.271 7.732-11.245c1.054-1.757 2.46-3.865 3.514-5.973 3.514-5.974 4.568-15.11 4.568-17.921.703.703.703.703.703.351Z" fill="#191919"/><path d="m249.736 288.662 68.88 39.356v-26.354l-69.231-39.356.351 26.354Z" fill="#333"/><path d="m242.003 295.339 68.88 39.355V305.88l-68.88-39.355v28.814Zm76.262 6.325-68.88-39.356-7.38 4.217 68.88 39.355 7.38-4.216Z" fill="#232323"/><path d="m339.001 354.372-18.626-11.245 4.568-9.839s7.38-4.216 10.543-2.811c3.163 1.406 4.569 5.271 4.92 9.488 0 4.216-1.405 14.407-1.405 14.407Z" fill="#E0932D"/><path d="M293.315 364.211c0-11.596 7.028-24.949 15.814-29.868 2.109-1.406 6.677-2.109 8.786-2.109 1.757 0 6.325 1.406 11.948 5.623 4.569 3.513 5.272 9.136 5.272 9.136l-17.572 36.193s-3.163 2.459-8.434.351c-2.109-.703-5.623-2.811-7.029-4.217-3.514-2.459-4.92-3.865-5.974-5.973-.351-.703-1.054-2.46-1.406-3.163-1.054-1.405-1.405-3.514-1.405-5.973Z" fill="#191919"/><path d="M335.485 352.264c0 11.595-7.028 24.948-15.814 29.868-8.786 4.919-15.814-.352-15.814-11.948 0-11.595 7.028-24.948 15.814-29.868 8.786-4.919 15.814.352 15.814 11.948Z" fill="#333"/><path d="M332.675 354.372c0 9.136-5.623 19.678-12.3 23.543-6.677 3.865-12.3-.352-12.3-9.488s5.623-19.677 12.3-23.543c6.677-3.865 12.3.352 12.3 9.488Z" fill="#191919"/><path d="M328.106 356.831c0 5.974-3.514 13.002-8.082 15.462-4.569 2.459-8.083 0-8.083-5.974s3.514-13.001 8.083-15.461c4.217-2.811 8.082 0 8.082 5.973Z" fill="#F7F2EC"/><path d="M322.833 351.209c.703 1.055 1.055 2.46 1.055 4.568 0 5.271-3.163 11.245-7.029 13.353-1.054.703-2.108.703-3.163.703 1.406 1.757 3.515 2.108 5.975.703 3.865-2.109 7.028-8.082 7.028-13.353 0-3.514-1.406-5.622-3.866-5.974Z" fill="#D1C5BA"/><path d="M322.833 351.209c-1.055 0-2.109 0-3.163.703-3.514 2.108-6.677 7.379-7.029 12.299.703-.352 1.055 0 1.055.702 0 .703-.352 1.406-1.055 1.757.352 1.055.703 2.109 1.055 2.812 1.054 0 2.108 0 3.162-.703 3.866-2.109 7.029-8.082 7.029-13.353.351-1.406-.351-3.162-1.054-4.217Z" fill="#B29EA1"/><path d="M314.049 365.265c0-.703-.352-1.054-1.054-.703v2.811c.351-.703 1.054-1.405 1.054-2.108Zm3.16-9.136c-1.406.703-2.811 3.162-2.811 5.271 0 2.108 1.405 2.811 2.811 2.108 1.406-.703 2.812-3.163 2.812-5.271s-1.406-2.811-2.812-2.108Zm4.218-3.163c-.703.352-1.054 1.055-1.054 2.109 0 .702.351 1.054 1.054.702.703-.351 1.054-1.054 1.054-2.108 0-.703-.351-.703-1.054-.703Zm0 6.325c-.703.352-1.054 1.054-1.054 2.109 0 .702.351 1.054 1.054.702.703-.351 1.054-1.054 1.054-2.108 0-.703-.351-1.054-1.054-.703Zm-3.864 5.271c-.703.351-1.054 1.054-1.054 2.108 0 .703.351 1.055 1.054.703.703-.351 1.054-1.054 1.054-2.108 0-.703-.351-1.054-1.054-.703Z" fill="#191919"/><path d="M312.641 340.668c1.406-.703 6.677-3.866 13.003-7.38 2.46-1.405 4.217-2.459 5.271-2.811 3.515-1.405 5.272-1.054 6.326-.702l-15.814-9.137c-2.109-1.405-4.92-1.756-8.083.352l-2.46 1.405-13.003 7.38-3.866 2.459 16.869 9.839c.703-.703 1.406-1.054 1.757-1.405Z" fill="#FFC97B"/><path d="M337.24 329.774c.352 0 .352.352.352.352l-.352-.352Z" fill="#D1C5BA"/><path d="m314.751 338.559 14.76-8.433c6.326-3.514 11.246.351 11.246 8.433v14.758L339 354.372v-14.759c0-7.027-4.217-10.19-9.489-7.379l-14.76 8.434v-2.109Z" fill="#F4AA40"/><path d="M309.83 341.37v2.109l10.894-5.974 6.326-3.514v-2.46l-17.22 9.839Z" fill="#F4AA40"/><path d="M309.833 341.37v2.109l-10.543-5.974-5.271-2.811v-2.46l15.814 9.136Z" fill="#F4AA40"/><path d="M254.305 219.439c-3.163 23.894-5.975 45.329-6.326 48.14l1.757 1.054 3.514-4.217c.352-2.459 2.812-22.488 5.975-44.977h-4.92Z" fill="#444"/><path d="M256.413 219.439a13521.58 13521.58 0 0 0-6.326 49.194l5.272-3.162c.351-2.46 2.811-22.841 5.974-46.032h-4.92Z" fill="#232323"/><path d="m236.385 81.343-1.405-1.054c-1.055-.703-2.812 0-5.623 1.757-6.677 3.865-8.786 4.92-11.949 7.028-4.217 2.46-4.92 5.27-4.92 14.758 0 2.108.703 3.514 1.406 3.865l1.406 1.055 1.054-1.055c2.108-.702 4.568-2.811 7.731-5.973 5.975-6.677 11.246-14.056 11.597-18.272l.703-2.109Z" fill="#191919"/><path d="M230.761 83.1c-6.678 3.866-8.786 4.92-11.949 7.028-4.217 2.46-4.92 5.27-4.92 14.758 0 6.677 5.271 4.92 11.597-2.108 6.326-7.028 11.597-14.758 11.597-18.624.352-4.216-2.108-3.513-6.325-1.054Z" fill="#232323"/><path d="M233.922 84.506c-.352-.352-1.055-.703-1.757 0-1.055.703-2.109 2.46-2.109 3.865 0 .703.351 1.406.703 1.406l61.149 35.138 3.514-4.919-61.5-35.49Z" fill="#232323"/><path d="m397.336 136.863-1.757-1.055h-.352c-1.405-.702-3.162.001-5.623 1.406l-61.5 35.49c-3.163 1.757-4.217 3.866-5.623 13.704-1.405 8.434-14.76 109.282-15.462 114.904l1.757 1.054 3.514-4.216c.703-5.271 14.057-107.174 14.76-113.147.703-6.325 2.109-7.731 4.92-9.488l54.823-31.625c3.514-2.108 4.569-2.459 4.569.352v88.901l1.757 1.054 3.163-4.217v-89.603c1.054-.352 1.054-3.514 1.054-3.514Z" fill="#444"/><path d="M314.751 299.204c.703-5.271 14.057-107.173 14.76-112.796.703-6.325 2.108-7.73 4.92-9.487l54.823-31.625c3.514-2.108 4.568-2.46 4.568.351v88.902l5.272-3.163v-90.658c0-5.622-2.812-5.622-7.38-3.163l-61.5 35.491c-3.163 1.757-4.218 3.865-5.623 13.704-1.406 8.433-14.76 109.281-15.463 114.904l5.623-2.46Z" fill="#232323"/><path d="M307.371 311.502c0-1.054-.703-2.108-1.406-2.459-.351-.352-.703 0-.703 0l-24.951 14.407v4.568l26.709-15.461s.351-.352.351-1.055Z" fill="#F7F2EC"/><path d="m279.258 118.239-11.246 6.676v252.648l4.217 2.46 7.029-8.785V118.239Z" fill="#191919"/><path d="m283.476 121.05-11.246 6.325v252.648l11.246-6.325V121.05Z" fill="#333"/><path d="m283.475 121.05-4.218-2.811-11.245 6.677 4.217 2.459 11.246-6.325Z" fill="#444"/><path d="M248.682 277.769c0-1.054-.703-2.108-1.406-2.459-.351-.352-.702 0-.702 0l-24.952 14.406v4.568l26.709-15.461c.351-.351.351-.351.351-1.054Z" fill="#F7F2EC"/><path d="m220.568 84.506-11.246 6.676V343.83l4.569 2.46 6.677-8.785v-253Z" fill="#191919"/><path d="m224.786 86.966-10.895 6.676V346.29l10.895-6.325v-253Z" fill="#333"/><path d="m224.785 86.966-4.217-2.46-11.246 6.676 4.568 2.46 10.895-6.676Z" fill="#444"/><path d="M268.012 299.907v-7.028l-46.389-26.705c-.351-.352-1.054-.703-1.757 0-1.054.702-2.109 2.459-2.109 3.865 0 .703.352 1.405.703 1.405l49.552 28.463Z" fill="#E0D7CE"/><path d="M285.231 315.016c-1.758 1.406-4.569 3.514-7.029 6.677-4.569 5.622-4.569 14.055-.351 15.11 2.811.702 5.974-.703 7.731-1.406v-20.381h-.351Z" fill="#191919"/><path d="m286.989 315.719-3.514-1.405v2.108l2.46 1.757 1.054-2.46Z" fill="#191919"/><path d="M286.988 315.719c-1.757 1.406-4.568 3.514-7.028 6.677-4.569 5.622-4.569 14.055-.352 15.109 2.812.703 5.975-.703 7.732-1.405v-20.381h-.352Z" fill="#232323"/><path d="M226.892 281.283c-1.757 1.406-4.568 3.514-7.028 6.677-4.569 5.622-4.569 14.055-.352 15.109 2.812.703 5.975-.703 7.732-1.405v-20.381h-.352Z" fill="#191919"/><path d="m228.3 281.634-3.163-1.405v2.108l2.109 2.109 1.054-2.812Z" fill="#191919"/><path d="M228.299 281.634c-1.757 1.406-4.569 3.514-7.029 6.677-4.568 5.622-4.568 14.055-.351 15.109 2.811.703 5.974-.702 7.731-1.405v-20.381h-.351Z" fill="#232323"/><path d="m298.588 117.185-1.406-1.054c-1.054-.703-2.811 0-5.623 1.757-6.677 3.865-8.786 4.919-11.948 7.028-4.218 2.459-4.92 5.27-4.92 14.758 0 2.108.702 3.514 1.405 3.865l1.406 1.054 1.054-1.054c2.109-.703 4.569-2.811 7.732-5.974 5.974-6.676 11.246-14.055 11.597-18.272l.703-2.108Z" fill="#191919"/><path d="M292.962 118.942c-6.677 3.865-8.785 4.919-11.948 7.028-4.217 2.459-4.92 5.271-4.92 14.758 0 6.676 5.271 4.919 11.597-2.108 6.326-7.028 11.597-14.759 11.597-18.624.352-4.217-2.109-3.514-6.326-1.054Z" fill="#232323"/><path d="M294.37 120.347c-1.054.703-2.109 2.46-2.109 3.866 0 1.405 1.055 2.108 2.109 1.405 1.054-.703 2.109-2.46 2.109-3.865 0-1.406-1.055-2.108-2.109-1.406Z" fill="#191919"/><path d="m199.132 138.62 12.3 7.027V65.882l-12.3-7.028v79.766Z" fill="#333"/><path d="m202.998 56.746-3.866 2.108 12.3 7.028 3.515-2.108-11.949-7.028Z" fill="#232323"/><path d="m211.432 145.647 3.515-1.757V63.774l-3.515 2.108v79.765Z" fill="#191919"/><path d="m265.904 169.19-53.066-30.57v3.513l53.066 30.571v-3.514Z" fill="#232323"/><path d="m265.904 167.785-51.66-30.22-1.406 1.055 53.066 30.57v-1.405Z" fill="#232323"/><path d="m221.977 143.891-4.92-2.811V93.29l4.92 3.163v47.438Z" fill="#333"/><path d="m221.978 96.453 1.405-1.054v47.789l-1.405.702V96.453Z" fill="#191919"/><path d="m218.462 92.588-1.406.703 4.92 3.162 1.406-1.054-4.92-2.811Z" fill="#232323"/><path d="m231.815 149.864-5.271-3.162V99.264l5.271 2.811v47.789Z" fill="#333"/><path d="m231.816 102.075 1.406-1.054v47.789l-1.406 1.054v-47.789Z" fill="#191919"/><path d="m227.95 98.21-1.406 1.054 5.272 2.811 1.405-1.054-5.271-2.811Z" fill="#232323"/><path d="m241.304 155.135-5.271-2.811v-47.789l5.271 3.163v47.437Z" fill="#333"/><path d="m241.305 107.697 1.406-1.054v47.789l-1.406.703v-47.438Z" fill="#191919"/><path d="m237.44 103.832-1.406.703 5.271 3.163 1.406-1.055-5.271-2.811Z" fill="#232323"/><path d="m251.144 160.757-5.271-2.811v-47.789l5.271 3.163v47.437Z" fill="#333"/><path d="m251.145 113.32 1.406-1.054v47.437l-1.406 1.054V113.32Z" fill="#191919"/><path d="m247.279 109.103-1.406 1.054 5.272 3.163 1.405-1.054-5.271-3.163Z" fill="#232323"/><path d="m260.633 166.379-5.272-2.811v-47.789l5.272 3.163v47.437Z" fill="#333"/><path d="m260.634 118.942 1.406-1.054v47.437l-1.406 1.054v-47.437Z" fill="#191919"/><path d="m256.769 114.725-1.406 1.054 5.271 3.163 1.406-1.054-5.271-3.163Z" fill="#232323"/><path d="m265.904 118.239-53.066-30.922v3.865l53.066 30.571v-3.514Z" fill="#232323"/><path d="m265.903 116.834-52.011-29.868-1.055.351 53.066 30.922v-1.405Z" fill="#232323"/><path d="m263.093 175.164 12.3 7.028v-79.766l-12.3-7.027v79.765Z" fill="#333"/><path d="m266.959 93.29-3.866 2.109 12.3 7.028 3.514-2.109-11.948-7.028Z" fill="#232323"/><path d="m275.393 182.192 3.514-2.109v-79.765l-3.514 2.109v79.765Z" fill="#191919"/><path d="m275.393 182.192-85.749 49.546-11.949-7.028 85.749-49.546 11.949 7.028Z" fill="#232323"/><path d="m275.393 178.678-85.749 49.545-11.949-7.027 85.749-49.195 11.949 6.677Z" fill="#232323"/><path d="M189.644 228.223v3.514l89.263-51.654-3.514-1.405-85.749 49.545Z" fill="#191919"/><path d="M177.694 221.196v3.514l11.949 7.027v-3.514l-11.949-7.027Z" fill="#333"/><path d="m211.433 142.133-85.749 49.546-11.949-7.028 85.749-49.194 11.949 6.676Z" fill="#232323"/><path d="M125.684 191.679v3.514l89.263-51.303-3.515-1.757-85.748 49.546Z" fill="#191919"/><path d="M113.734 184.651v3.514l11.949 7.028v-3.514l-11.949-7.028Z" fill="#333"/><path d="m265.2 198.356-101.212-58.331 12.3-7.379 101.212 58.33-12.3 7.38Z" fill="#EFB078"/><path d="M163.988 140.025v3.865l101.211 58.331v-3.865l-101.211-58.331Z" fill="#E5A46E"/><path d="m277.5 190.976-12.3 7.38v3.865l12.3-7.028v-4.217Z" fill="#DB9865"/><path d="M163.988 140.025v14.407l101.211 58.331v-14.407l-101.211-58.331Zm46.74 38.653-37.252-21.435v-8.784l37.252 21.434v8.785Zm44.28 24.948-37.252-21.434v-8.785l37.252 21.435v8.784Z" fill="#E5A46E"/><path d="m277.5 190.976-12.3 7.38v14.407l12.3-7.38v-14.407Z" fill="#DB9865"/><path d="m250.44 206.438-101.211-58.331 12.651-7.028 101.212 58.331-12.652 7.028Z" fill="#EFB078"/><path d="M149.229 148.107v4.217l101.212 58.33v-4.216l-101.212-58.331Z" fill="#E5A46E"/><path d="m263.092 199.41-12.652 7.028v4.216l12.652-7.379v-3.865Z" fill="#DB9865"/><path d="M135.17 156.54v14.407l101.211 58.331v-14.407L135.17 156.54Zm46.74 38.653-37.252-21.435v-8.784l37.252 21.434v8.785Zm44.28 25.3-37.252-21.435v-8.784l37.252 21.434v8.785Z" fill="#E5A46E"/><path d="m249.034 207.843-12.651 7.028v14.407l12.651-7.028v-14.407Z" fill="#DB9865"/><path d="m236.03 214.871-101.212-58.33 12.651-7.028 101.212 58.33-12.651 7.028Z" fill="#EFB078"/><path d="M134.819 156.54v4.217l101.212 58.33v-4.216L134.819 156.54Z" fill="#E5A46E"/><path d="m248.682 207.843-12.652 7.028v4.216l12.652-7.379v-3.865Z" fill="#DB9865"/><path d="M221.622 222.953 120.41 164.622l12.652-7.027 101.211 58.33-12.651 7.028Z" fill="#EFB078"/><path d="M120.411 164.622v4.217l101.212 58.33v-4.216l-101.212-58.331Z" fill="#E5A46E"/><path d="m234.274 215.925-12.652 7.028v4.217l12.652-7.028v-4.217Z" fill="#DB9865"/><path d="M207.212 231.386 106 173.056l12.652-7.028 101.211 58.33-12.651 7.028Z" fill="#EFB078"/><path d="m118.652 181.84-5.623 1.757v8.082l85.749 49.194v-12.65l-80.126-46.383Z" fill="#AD6B3E"/><path d="M106.002 173.056v14.406l101.212 58.331v-14.407l-101.212-58.33Zm46.74 38.652-37.251-21.434v-8.785l37.251 21.435v8.784Zm44.28 25.3-37.251-21.434v-8.785l37.251 21.434v8.785Z" fill="#E5A46E"/><path d="m219.864 224.358-12.652 7.028v14.758l12.652-7.379v-14.407Z" fill="#DB9865"/><path d="M115.491 181.84v8.434l7.38-4.217-7.38-4.217Zm44.278 24.949v8.785l7.38-4.217-7.38-4.568Z" fill="#C17E52"/><path d="m206.512 227.521 64.663-37.599v-8.082l-64.663 37.599v8.082Z" fill="#E0D7CE"/><path d="m236.382 202.221 5.974-3.514v5.622l-5.974 3.514v-5.622Z" fill="#D6A651"/><path d="m206.51 227.521-93.832-54.114v-8.433l93.832 54.465v8.082Z" fill="#D1C5BA"/><path d="m112.68 164.974 64.663-37.599 93.832 54.465-64.663 37.599-93.832-54.465Z" fill="#F7F2EC"/><path d="m212.486 175.867 20.383-11.948 30.223 17.218-20.734 11.948-29.872-17.218Z" fill="#fff"/><path d="m120.411 164.974 9.84-5.623 7.38 3.866-9.84 5.973-7.38-4.216Zm17.922 10.19 9.488-5.974 16.517 9.488-9.488 5.973-16.517-9.487Zm-8.784-4.919 1.757-1.055 7.028 4.217-1.405.703-7.38-3.865Zm2.811-1.757 1.757-1.055 7.029 4.217-1.406.703-7.38-3.865Zm2.81-1.757 4.218-2.46 7.38 3.865-4.218 2.46-7.38-3.865Z" fill="#232323"/><path d="m142.55 147.756 6.326-3.514 93.48 54.114-5.974 3.865-93.832-54.465Z" fill="#E5B961"/><path d="m206.512 217.331 64.663-37.248v-8.433l-64.663 37.599v8.082Z" fill="#E0D7CE"/><path d="m236.382 192.031 5.974-3.514v5.622l-5.974 3.514v-5.622Z" fill="#D6A651"/><path d="m206.51 217.331-93.832-54.114v-8.082l93.832 54.114v8.082Z" fill="#D1C5BA"/><path d="m112.68 155.135 64.663-37.599 93.832 54.114-64.663 37.599-93.832-54.114Z" fill="#F7F2EC"/><path d="m212.486 166.028 20.383-12.299 30.223 17.57-20.734 11.947-29.872-17.218Z" fill="#fff"/><path d="m120.411 155.135 9.84-5.974 7.38 4.217-9.84 5.622-7.38-3.865Zm17.922 9.839 9.488-5.622 16.517 9.487-9.488 5.622-16.517-9.487Zm-8.784-4.92 1.757-.702 7.028 3.865-1.405 1.054-7.38-4.217Zm2.811-1.757 1.757-.702 7.029 3.865-1.406 1.054-7.38-4.217Zm2.81-1.756 4.218-2.46 7.38 4.216-4.218 2.46-7.38-4.216Z" fill="#232323"/><path d="m142.55 137.917 6.326-3.514 93.48 54.114-5.974 3.514-93.832-54.114Z" fill="#E5B961"/><path d="m206.512 207.492 64.663-37.599v-8.082l-64.663 37.599v8.082Z" fill="#E0D7CE"/><path d="m236.382 182.192 5.974-3.514v5.622l-5.974 3.514v-5.622Z" fill="#D6A651"/><path d="m206.51 207.492-93.832-54.114v-8.082l93.832 54.114v8.082Z" fill="#D1C5BA"/><path d="m112.68 145.296 64.663-37.599 93.832 54.114-64.663 37.599-93.832-54.114Z" fill="#F7F2EC"/><path d="m212.486 155.837 20.383-11.947 30.223 17.57-20.734 11.947-29.872-17.57Z" fill="#D1C5BA"/><path d="m200.887 190.625 1.757-1.054 6.326 3.514-1.757 1.054-6.326-3.514Zm2.812-1.406 1.757-1.054 6.326 3.163-1.757 1.054-6.326-3.163Zm-11.598-3.513 15.112-8.785 6.326 3.514-15.112 8.784-6.326-3.513Zm14.76 1.405 9.137-5.271 6.326 3.514-9.489 5.271-5.974-3.514Zm-86.45-41.815 9.84-5.974 7.38 3.866-9.84 5.973-7.38-3.865Z" fill="#232323"/><path d="m138.333 155.135 9.488-5.622L164.338 159l-9.488 5.622-16.517-9.487Z" fill="#fff"/><path d="m129.549 150.215 1.757-.702 7.028 3.865-1.405 1.054-7.38-4.217Zm2.811-1.757 1.757-1.054 7.029 4.217-1.406.703-7.38-3.866Zm2.81-1.756 4.218-2.46 7.38 3.865-4.218 2.46-7.38-3.865Z" fill="#232323"/><path d="m142.55 128.078 6.326-3.514 93.48 54.114-5.974 3.514-93.832-54.114Z" fill="#E5B961"/><path d="m206.512 197.301 64.663-37.598v-8.082l-64.663 37.598v8.082Z" fill="#E0D7CE"/><path d="m236.382 172.001 5.974-3.514v5.623l-5.974 3.514v-5.623Z" fill="#D6A651"/><path d="m206.51 197.301-93.832-54.113v-8.082l93.832 54.113v8.082Z" fill="#D1C5BA"/><path d="m112.68 135.106 64.663-37.599 93.832 54.114-64.663 37.598-93.832-54.113Z" fill="#F7F2EC"/><path d="m212.486 145.647 20.383-11.947 30.223 17.57-20.734 11.947-29.872-17.57Z" fill="#D1C5BA"/><path d="m200.887 180.435 1.757-1.054 6.326 3.514-1.757 1.054-6.326-3.514Zm2.812-1.406 1.757-1.054 6.326 3.514-1.757.703-6.326-3.163Zm-11.598-3.514 15.112-8.784 6.326 3.513-15.112 8.785-6.326-3.514Zm14.76 1.757 9.137-5.622 6.326 3.514-9.489 5.271-5.974-3.163Zm-86.45-42.166 9.84-5.974 7.38 4.217-9.84 5.622-7.38-3.865Z" fill="#232323"/><path d="m138.333 144.945 9.488-5.623 16.517 9.488-9.488 5.622-16.517-9.487Z" fill="#fff"/><path d="m129.549 140.025 1.757-.703 7.028 3.866-1.405 1.054-7.38-4.217Zm2.811-1.757 1.757-.703 7.029 3.866-1.406 1.054-7.38-4.217Zm2.81-1.757 4.218-2.459 7.38 4.216-4.218 2.46-7.38-4.217Z" fill="#232323"/><path d="m142.55 117.888 6.326-3.514 93.48 54.114-5.974 3.513-93.832-54.113Z" fill="#E5B961"/><path d="m206.512 187.463 64.663-37.599v-8.082l-64.663 37.599v8.082Z" fill="#E0D7CE"/><path d="m236.382 162.163 5.974-3.514v5.622l-5.974 3.514v-5.622Z" fill="#D6A651"/><path d="m206.51 187.463-93.832-54.114v-8.433l93.832 54.465v8.082Z" fill="#D1C5BA"/><path d="m112.68 124.915 64.663-37.598 93.832 54.465-64.663 37.599-93.832-54.466Z" fill="#F7F2EC"/><path d="m212.486 135.808 20.383-11.947 30.223 17.218-20.734 11.948-29.872-17.219Z" fill="#D1C5BA"/><path d="m200.887 170.596 1.757-1.054 6.326 3.162-1.757 1.054-6.326-3.162Zm2.812-1.757 1.757-1.054 6.326 3.514-1.757 1.054-6.326-3.514Zm-11.598-3.162 15.112-8.785 6.326 3.162-15.112 9.136-6.326-3.513Zm14.76 1.405 9.137-5.271 6.326 3.514-9.489 5.271-5.974-3.514Zm-86.45-42.167 9.84-5.622 7.38 3.866-9.84 5.973-7.38-4.217Z" fill="#232323"/><path d="m138.333 135.106 9.488-5.974 16.517 9.488-9.488 5.973-16.517-9.487Z" fill="#fff"/><path d="m129.549 130.186 1.757-1.054 7.028 4.217-1.405.702-7.38-3.865Zm2.811-1.757 1.757-1.054 7.029 4.217-1.406.703-7.38-3.866Zm2.81-1.757 4.218-2.459 7.38 3.865-4.218 2.46-7.38-3.866Z" fill="#232323"/><path d="m142.55 107.697 6.326-3.513 93.48 54.113-5.974 3.866-93.832-54.466Z" fill="#E5B961"/><path d="m193.507 226.467-3.866 2.108-11.949-7.028 3.866-2.108 11.949 7.028Z" fill="#232323"/><path d="M189.643 228.575v3.514l7.028-3.866-3.163-1.756-3.865 2.108Z" fill="#191919"/><path d="M177.694 221.547v3.514l11.949 7.028v-3.514l-11.949-7.028Z" fill="#333"/><path d="m129.55 189.922-3.866 2.109-11.949-6.677 3.515-2.108 12.3 6.676Z" fill="#232323"/><path d="M125.683 192.031v3.513l6.677-3.865-2.811-1.757-3.866 2.109Z" fill="#191919"/><path d="M113.734 185.354v3.163l11.948 7.027v-3.513l-11.948-6.677Z" fill="#333"/><path d="M298.585 221.899c-.703 3.513-.703 7.73-1.406 8.433-.703.703-2.108 1.054-2.46 2.46-.351 1.054 0 2.459.352 2.811.703.703 1.054.351 1.054.351s0 .351.703.703c.703.351 1.054 0 1.054 0s.351.703 1.054.703c.703 0 1.757-2.109 1.757-2.109l1.406 1.055s.352-.703 0-1.757c0-.703-.351-1.406-.351-2.109 0-1.757 4.92-7.73 3.514-10.19-.703-1.054-4.92-.351-4.92-.351s-1.757-.703-1.757 0Z" fill="#FFC9B6"/><defs><linearGradient id="b" x1="371.1" y1="359.4" x2="253.6" y2="214.6" gradientUnits="userSpaceOnUse"><stop stop-color="#F37753"/><stop offset="1" stop-color="#fff" stop-opacity="0"/></linearGradient><linearGradient id="c" x1="185.4" y1="215" x2="168.9" y2="194.7" gradientUnits="userSpaceOnUse"><stop stop-color="#F4A984"/><stop offset="1" stop-color="#EE4D47"/></linearGradient><linearGradient id="d" x1="123.3" y1="277.5" x2="100.9" y2="249.8" gradientUnits="userSpaceOnUse"><stop stop-color="#F4A984"/><stop offset="1" stop-color="#EE4D47"/></linearGradient></defs></svg>