<svg width="121" height="25" fill="none" xmlns="http://www.w3.org/2000/svg"><path d="M38.112 19.054 34.26 8.326a1.34 1.34 0 0 0-.342-.558 1.208 1.208 0 0 0-.558-.324l-.432-.144v-.18h5.184v.18l-.558.162c-.276.072-.432.198-.468.378-.024.18.006.402.09.666l2.664 7.902 2.682-7.92c.096-.276.138-.504.126-.684 0-.18-.138-.306-.414-.378l-.468-.126v-.18h2.52v.18l-.486.144c-.228.06-.39.168-.486.324a2.6 2.6 0 0 0-.27.576l-3.6 10.71h-1.332Zm9.136.216c-.792 0-1.47-.144-2.034-.432-.552-.3-.972-.69-1.26-1.17a3.054 3.054 0 0 1-.432-1.602c0-1.452.936-2.568 2.808-3.348a13.613 13.613 0 0 1-.9-1.386c-.252-.468-.378-1.014-.378-1.638 0-.852.3-1.53.9-2.034.612-.516 1.41-.774 2.394-.774.96 0 1.704.216 2.232.648.528.42.792.978.792 1.674 0 .588-.24 1.104-.72 1.548-.48.444-1.164.852-2.052 1.224.228.252.462.522.702.81.252.276.51.552.774.828.324.36.636.702.936 1.026.312.324.624.66.936 1.008.288-.396.558-.876.81-1.44s.45-1.158.594-1.782c.096-.456-.078-.75-.522-.882l-.126-.054v-.18h2.034v.18l-.162.054c-.396.132-.654.408-.774.828-.18.672-.402 1.308-.666 1.908-.264.6-.57 1.146-.918 1.638l1.926 2.034c.156.168.312.306.468.414.156.108.33.216.522.324l.252.126V19h-3.636l-1.206-1.296a7.616 7.616 0 0 1-.774.738c-.288.24-.636.438-1.044.594-.408.156-.9.234-1.476.234Zm1.134-7.524c.468-.42.804-.84 1.008-1.26.216-.432.324-.906.324-1.422 0-.468-.12-.846-.36-1.134-.24-.3-.57-.45-.99-.45-.396 0-.726.144-.99.432-.264.288-.396.654-.396 1.098 0 .276.048.564.144.864.108.3.294.642.558 1.026.072.096.168.21.288.342.12.132.258.3.414.504Zm-.09 6.318c.42 0 .798-.06 1.134-.18a3.31 3.31 0 0 0 .864-.486l-.9-1.008a86.472 86.472 0 0 1-1.872-2.214c-.312-.396-.624-.78-.936-1.152a2.6 2.6 0 0 0-.684 1.008 3.406 3.406 0 0 0-.216 1.206c0 .816.24 1.494.72 2.034.492.528 1.122.792 1.89.792Zm8.131.936v-.18l.36-.126c.408-.132.612-.474.612-1.026V8.452c0-.24-.03-.432-.09-.576-.048-.144-.186-.264-.414-.36l-.468-.216v-.18h3.474l3.33 8.712 3.132-8.712h3.546v.18l-.288.108c-.228.084-.384.204-.468.36-.084.144-.126.336-.126.576v9.414c0 .24.03.426.09.558.06.132.204.246.432.342l.36.162V19h-4.482v-.18l.378-.162c.228-.096.372-.21.432-.342.06-.132.09-.318.09-.558v-4.05l.036-5.148L62.597 19h-.9L57.773 8.686l.054 4.482v4.536c0 .264.036.48.108.648.084.156.24.27.468.342l.396.126V19h-2.376Zm24.386.324c-1.164 0-2.22-.234-3.168-.702a5.43 5.43 0 0 1-2.232-2.124c-.552-.936-.828-2.082-.828-3.438 0-1.032.168-1.938.504-2.718a5.654 5.654 0 0 1 1.368-1.962 5.895 5.895 0 0 1 2.016-1.188 7.423 7.423 0 0 1 2.43-.396c.684 0 1.314.078 1.89.234a7.37 7.37 0 0 1 1.62.648l.072 2.214h-.18l-.9-1.44a3.837 3.837 0 0 0-.396-.612 1.352 1.352 0 0 0-.54-.432 2.38 2.38 0 0 0-.54-.18 2.415 2.415 0 0 0-.648-.072c-.696 0-1.332.186-1.908.558-.564.372-1.02.99-1.368 1.854-.336.852-.504 2.022-.504 3.51 0 1.476.162 2.646.486 3.51.324.852.762 1.464 1.314 1.836a3.44 3.44 0 0 0 1.89.54c.384 0 .69-.024.918-.072a3.94 3.94 0 0 0 .684-.252c.228-.096.402-.234.522-.414.12-.192.228-.396.324-.612l.792-1.764h.18l-.054 2.574a8.27 8.27 0 0 1-1.692.648 7.88 7.88 0 0 1-2.052.252ZM85.48 19v-.18l.217-.072c.432-.144.648-.444.648-.9V8.236c0-.252-.042-.438-.126-.558-.084-.12-.246-.21-.486-.27l-.27-.072v-.18l3.168-.774.288.162-.072 2.538v2.25c.42-.348.87-.642 1.35-.882a3.501 3.501 0 0 1 1.62-.378c.78 0 1.398.222 1.854.666.468.444.702 1.128.702 2.052v5.076c0 .24.048.432.144.576.096.144.264.252.504.324l.144.054V19h-4.212v-.18l.216-.054c.432-.144.648-.45.648-.918v-5.652c0-.48-.084-.81-.252-.99-.156-.18-.438-.27-.846-.27-.264 0-.552.054-.864.162-.312.096-.63.27-.954.522v6.264c0 .468.216.768.648.9l.144.036V19H85.48Zm12.548-9.864a1.53 1.53 0 0 1-1.044-.378 1.313 1.313 0 0 1-.414-.99c0-.408.138-.738.414-.99a1.53 1.53 0 0 1 1.044-.378c.408 0 .75.126 1.026.378s.414.582.414.99c0 .396-.138.726-.414.99-.276.252-.618.378-1.026.378ZM95.904 19v-.18l.252-.072c.24-.072.402-.18.486-.324.096-.144.144-.336.144-.576v-5.634c0-.252-.048-.438-.144-.558-.084-.132-.246-.222-.486-.27l-.252-.054v-.18l3.294-1.062.18.18-.054 2.556v5.04c0 .24.042.432.126.576.096.144.258.252.486.324l.18.054V19h-4.212Zm5.009 0v-.18l.252-.072c.42-.12.63-.414.63-.882v-5.634c0-.264-.042-.456-.126-.576-.084-.132-.246-.222-.486-.27l-.27-.072v-.18l3.078-1.044.18.18.144 1.08c.42-.372.894-.678 1.422-.918.528-.24 1.05-.36 1.566-.36.792 0 1.398.216 1.818.648.432.432.648 1.092.648 1.98v5.184c0 .468.228.762.684.882l.162.054V19h-4.248v-.18l.234-.072c.42-.132.63-.426.63-.882v-5.742c0-.768-.384-1.152-1.152-1.152-.528 0-1.104.264-1.728.792v6.12c0 .468.21.762.63.882l.162.054V19h-4.23Zm12.929.27c-.696 0-1.284-.198-1.764-.594-.468-.396-.702-.966-.702-1.71 0-.564.288-1.08.864-1.548.576-.48 1.482-.84 2.718-1.08.192-.036.408-.072.648-.108.24-.048.492-.096.756-.144v-1.422c0-.816-.102-1.386-.306-1.71-.192-.336-.498-.504-.918-.504-.288 0-.516.096-.684.288-.168.18-.276.498-.324.954l-.036.198c-.024.516-.15.894-.378 1.134-.228.24-.51.36-.846.36-.312 0-.57-.096-.774-.288-.204-.192-.306-.45-.306-.774 0-.492.168-.906.504-1.242.348-.336.804-.588 1.368-.756a6.406 6.406 0 0 1 1.836-.252c1.068 0 1.89.264 2.466.792.588.516.882 1.362.882 2.538v3.978c0 .54.252.81.756.81h.396l.162.144c-.228.288-.48.51-.756.666-.264.156-.642.234-1.134.234-.528 0-.948-.12-1.26-.36a1.788 1.788 0 0 1-.594-.99c-.36.384-.732.714-1.116.99-.372.264-.858.396-1.458.396Zm1.098-1.098c.24 0 .462-.054.666-.162.216-.12.468-.3.756-.54v-3.024l-.36.072c-.12.024-.258.048-.414.072-.552.144-.996.39-1.332.738-.324.336-.486.792-.486 1.368 0 .492.114.864.342 1.116.228.24.504.36.828.36ZM11.379 15.245l6.854-9.887v19.64h-1.538V10.22l-3.778 5.45v9.285h-1.538v-9.709Zm-4.525.002L0 5.36V25h1.538V10.22l3.778 5.45v9.286h1.538v-9.71Z" fill="#0F264C"/><path d="m.169 0 7.987 11.556.001-.001.945 1.349.933-1.333L18.032 0h-1.87L9.1 10.218 2.038 0H.168Z" fill="#F26641"/><path d="M7.41 0H5.542l2.621 3.792h.002L9.11 5.14l.933-1.333L12.672 0h-1.869L9.107 2.455 7.411 0Z" fill="#F26641"/></svg>