<svg width="66" height="101" fill="none" xmlns="http://www.w3.org/2000/svg"><path d="M32.938 100.945c0 .018.036.055.036.055s32.114-49.499 32.114-65.766C65.088 11.294 48.81.88 32.938.843 17.064.88.788 11.295.788 35.234.788 51.501 32.919 101 32.919 101l.019-.055ZM21.812 33.873c0-6.183 4.985-11.188 11.144-11.188S44.1 27.69 44.1 33.873c0 6.183-5.004 11.188-11.162 11.188-6.14 0-11.126-5.005-11.126-11.188Z" fill="#0F264C"/><circle cx="33" cy="32" r="20" fill="#FAFAFA"/><path d="m35.379 35.245 6.854-9.887v19.64h-1.538V30.22l-3.778 5.45v9.286h-1.538v-9.71Zm-4.525.002L24 25.36V45h1.538V30.22l3.778 5.45v9.286h1.538v-9.71Z" fill="#0F264C"/><g opacity=".4" fill="#0F264C"><path d="m24.169 20 7.987 11.556.001-.001.945 1.349.933-1.333L42.032 20h-1.87L33.1 30.218 26.038 20h-1.87Z"/><path d="M31.41 20h-1.869l2.621 3.792h.002l.945 1.348.933-1.333L36.672 20h-1.868l-1.697 2.454L31.411 20Z"/></g></svg>