<svg width="644" height="425" fill="none" xmlns="http://www.w3.org/2000/svg"><mask id="a" style="mask-type:alpha" maskUnits="userSpaceOnUse" x="0" y="0" width="644" height="425"><path d="M569.899 188.517c54.108 76.908 57.194 216.535-33.024 222.262-133.777 8.491-55.148-79.931-380.966-75.734-201.862 2.6-158.868-183.817-33.93-272.86 124.938-89.043 380.284 30.198 447.92 126.332Z" fill="#FCDDD4"/></mask><g mask="url(#a)"><path opacity=".7" d="M-12.753 133.608c25.88 44.555 98.563 134.738 182.25 139.03 104.61 5.365-63.597-210.452 29.22-196.661 92.817 13.79 102.619 249.326 169.653 259.286 67.035 9.96-49.618-180.387 26.631-179.236 76.249 1.152 101.139 259.284 183.273 274.032 82.134 14.747-54.752-216.771 79.316-196.851" stroke="url(#b)" stroke-width="2"/></g><path d="M482.628 205.267a7.849 7.849 0 0 1-6.232 1.575s-206.554-43.845-298.297-57.465c-24.798-3.687-65.43-9.786-86.087-3.738-13.13 3.835-43.496 16.926-45.432 30.4-1.134 7.961 13.204 29.738 41.62 40.643 37.297 14.288 197.992 55.018 332.914 61.594 94.93 4.627 160.743-15.617 163.123-27.923 1.922-9.914-25.938-20.075-25.938-20.075l50.607-97.616a4.389 4.389 0 0 0-.02-3.977 4.403 4.403 0 0 0-3.219-2.336l-8.28-1.342a14.604 14.604 0 0 0-10.942 2.704l-103.817 77.556Z" fill="#EBF8FF"/><path opacity=".1" d="m213.061 200.169 61.696 60.924s41.344 7.111 60.67 9.228l-.995-44.043-121.371-26.109Z" fill="#020202"/><path d="m170.182 157.521 390.231 72.935c6.007 2.379 25.85 10.95 24.22 19.367-.577 3.088-4.759 6.77-12.805 10.346l-414.935-77.553 13.289-25.095Z" fill="#B3E3E8"/><path d="M68.626 177.283a19.069 19.069 0 0 0-6.408-18.32l.723-.447a19.941 19.941 0 0 1 6.46 18.958 19.465 19.465 0 0 1-14.78 15.787l-.578-.702c7.14-1.302 13.076-7.213 14.583-15.276Z" fill="#DCE5EA"/><path opacity=".1" d="M581.387 242.504c-26.628 9.646-78.336 18.76-143.484 15.59-134.91-6.575-295.657-47.269-332.9-61.604-34.644-13.94-46.954-24.323-48.631-33.495-5.331 4.084-9.16 8.562-9.765 13.141-1.057 7.918 13.39 29.899 41.842 40.741 37.466 14.24 197.992 55.018 332.9 61.604 46.952 2.28 86.24-1.724 114.626-7.514 29.138-5.969 46.392-14.034 48.5-20.42.99-2.977-.667-5.661-3.088-8.043Z" fill="#020202"/><path d="m450.593 248.856-34.534-7.322-29.476-2.484 33.933 11.079 30.077-1.273Z" fill="url(#c)"/><path style="mix-blend-mode:screen" opacity=".5" d="M427.126 256.251c-3.966-3.218-14.252-10.015-33.365-13.085-7.911-1.296-17.41-.697-25.07-.28-1.569.084-3.002.786-3.266 2.198l-1.222 6.541c.264-1.412 1.697-2.114 3.266-2.198 7.717-.418 17.214-1.006 25.072.269 19.102 3.125 29.399 9.923 33.365 13.085a4.353 4.353 0 0 1 1.495 4.217l1.22-6.529a4.33 4.33 0 0 0-1.495-4.218Z" fill="url(#d)"/><path d="m496.647 225.638.935.312 67.605 22.099 16.013 3.095c.497.093-.233 1.247-.713 1.191-5.176-.716-5.017-.835-15.583-2.775-3.961-.74-68.891-21.141-69.314-22.669-.422-1.529 1.057-1.253 1.057-1.253Z" fill="#C5CFD1"/><path d="M559.169 238.454a5.138 5.138 0 0 1 1.748.669l20.284 11.896a.268.268 0 0 1 .13.333.27.27 0 0 1-.316.169s-10.223-2.059-13.54-2.885c-12.834-3.186-50.279-15.641-50.279-15.641l-19.606-7.089 61.579 12.548Z" fill="#fff"/><path d="M400.219 272.214a2.634 2.634 0 0 1-.992 1.525c-.5.375-1.118.56-1.743.521l-11.839-2.213 1.973-10.555 11.8 2.422a2.628 2.628 0 0 1 1.809 2.907l-1.008 5.393Z" fill="#ABABAB"/><path d="m329.564 239.797-7.062-1.32-5.836 31.225 7.061 1.32 5.837-31.225Z" fill="url(#e)"/><path d="M307.931 265.912a2.797 2.797 0 0 0 1.721 3.016l5.557 2.34a1.81 1.81 0 0 0 1.537-.02 1.813 1.813 0 0 0 .973-1.189l6.032-32.273a1.826 1.826 0 0 0-1.125-1.911 1.812 1.812 0 0 0-.777-.134l-6.029.185a2.782 2.782 0 0 0-2.692 2.18l-5.197 27.806Z" fill="#E9EAEA"/><path d="m371.517 276.518 8.287 1.549a4.803 4.803 0 0 0 5.604-3.838l2.922-15.63a4.801 4.801 0 0 0-3.841-5.603l-8.286-1.549-4.686 25.071Z" fill="#BCBCBC"/><path d="M373.567 245.145a27.441 27.441 0 0 0-9.574-3.765l-31.887-5.96a5.536 5.536 0 0 0-6.454 4.41l-5.542 29.649a5.535 5.535 0 0 0 4.426 6.443l31.887 5.96c3.403.633 6.895.612 10.289-.063a7.76 7.76 0 0 0 6.102-6.131l4.218-22.567a7.757 7.757 0 0 0-3.465-7.976Z" fill="#CCCED0"/><path d="M454.248 284.344a3.06 3.06 0 0 1-3.197 2.382l-13.825-2.584 2.305-12.331 13.778 2.837a3.077 3.077 0 0 1 2.119 3.387l-1.18 6.309Z" fill="#ABABAB"/><path d="m371.72 246.477-8.242-1.54-6.818 36.475 8.242 1.541 6.818-36.476Z" fill="url(#f)"/><path d="M346.457 276.983a3.265 3.265 0 0 0 2.046 3.533l6.512 2.735a2.119 2.119 0 0 0 2.969-1.408l7.047-37.7a2.14 2.14 0 0 0-.572-1.731 2.125 2.125 0 0 0-1.7-.657l-7.051.211a3.258 3.258 0 0 0-3.182 2.545l-6.069 32.472Z" fill="#E9EAEA"/><path d="m420.697 289.363 9.677 1.808a5.61 5.61 0 0 0 6.547-4.483l3.412-18.255a5.61 5.61 0 0 0-4.486-6.546l-9.677-1.808-5.473 29.284Z" fill="#BCBCBC"/><path d="M423.114 252.727a31.821 31.821 0 0 0-11.206-4.378l-37.25-6.962a6.456 6.456 0 0 0-7.53 5.156l-6.473 34.634a6.455 6.455 0 0 0 5.159 7.528l37.25 6.962c3.976.754 8.059.742 12.031-.034a9.07 9.07 0 0 0 7.138-7.216l4.931-26.383a9.062 9.062 0 0 0-4.05-9.307Z" fill="#CCCED0"/><path opacity=".1" d="M312.59 240.985s94.74 34.544 140.764 44.904c.409-.302.703-.734.835-1.225l1.016-5.438-137.259-43.804a15.23 15.23 0 0 0-3.603.947 2.613 2.613 0 0 0-1.235 1.722s-.261 1.275-.518 2.894Z" fill="#020202"/><path d="m217.23 195.092 3.712 1.219 270.279 88.597 64.797 12.624c-.049.813-.44 2.84-.74 2.796-17.594-1.908-59.874-7.436-65.275-8.844-14.156-3.685-274.569-85.564-277.012-91.431-2.443-5.867 4.239-4.961 4.239-4.961Z" fill="#C5CFD1"/><path d="M467.373 246.319a22.914 22.914 0 0 1 6.989 2.688l81.118 47.614c.111.021.856.674.523 1.114 0 0-.126.307-1.369.178-3.62-.368-51.157-6.73-63.924-9.904-51.287-12.748-191.25-63.473-191.25-63.473l-82.175-29.433 250.088 51.216Z" fill="#fff"/><path d="m168.029 176.25 1.927-10.313a3.985 3.985 0 0 1 4.647-3.172l4.414.825a3.985 3.985 0 0 1 3.176 4.634l-1.928 10.313a3.982 3.982 0 0 1-4.577 3.231l-4.414-.825a3.977 3.977 0 0 1-2.612-1.662 3.978 3.978 0 0 1-.633-3.031Zm6.463-12.89a3.372 3.372 0 0 0-3.929 2.691l-1.927 10.313a3.366 3.366 0 0 0 2.691 3.927l4.414.825a3.367 3.367 0 0 0 3.928-2.69l1.928-10.313a3.365 3.365 0 0 0-2.692-3.928l-4.413-.825Z" fill="#E1F7FF"/><path d="M88.022 152.142a2.922 2.922 0 0 1 1.883 1.217 2.927 2.927 0 0 1 .472 2.191l-.844 4.511a4.598 4.598 0 0 1-3.38 3.604l-3.778.971a8.567 8.567 0 0 1-2.582.249l4.865-13.383 3.364.64Zm-9.252-1.695 5.306.992-4.842 13.444a8.39 8.39 0 0 1-2.405-.632l-11.62-5.037a3.59 3.59 0 0 1-1.479-1.19 118.56 118.56 0 0 1 15.04-7.577Z" fill="#6D7485"/><path d="M63.795 157.979c2.774-1.765 5.688-3.183 8.648-4.662l4.213 10.821-11.395-4.96a3.662 3.662 0 0 1-1.466-1.199Z" fill="#9096A3"/><path d="M403.392 216.748a2.804 2.804 0 0 1-3.272 2.231l-2.262-.423a2.793 2.793 0 0 1-2.234-3.26l.666-3.563a2.795 2.795 0 0 1 3.261-2.233l2.262.423a2.805 2.805 0 0 1 2.245 3.262l-.666 3.563Z" fill="#6D7485"/><path d="M401.51 218.873a2.703 2.703 0 0 1-1.39.105l-2.262-.423a2.794 2.794 0 0 1-2.234-3.26l.427-2.283 5.459 5.861Z" fill="#969DAA"/><path d="M392.535 214.718a2.804 2.804 0 0 1-3.272 2.231l-2.262-.422a2.805 2.805 0 0 1-2.234-3.26l.666-3.563a2.804 2.804 0 0 1 3.261-2.233l2.262.423a2.807 2.807 0 0 1 2.245 3.262l-.666 3.562Z" fill="#6D7485"/><path d="M390.664 216.845c-.45.154-.933.19-1.401.104l-2.262-.423a2.804 2.804 0 0 1-2.234-3.26l.427-2.283 5.47 5.862Z" fill="#969DAA"/><path d="m380.109 205.867-2.273-.425a2.794 2.794 0 0 0-3.261 2.233l-.666 3.562a2.795 2.795 0 0 0 2.234 3.26l2.273.425a2.794 2.794 0 0 0 3.261-2.233l.666-3.563a2.794 2.794 0 0 0-2.234-3.259Z" fill="#6D7485"/><path d="M379.806 214.816a2.714 2.714 0 0 1-1.39.106l-2.273-.425a2.807 2.807 0 0 1-2.234-3.26l.427-2.283 5.47 5.862Z" fill="#969DAA"/><path d="m369.263 203.839-2.273-.425a2.796 2.796 0 0 0-3.261 2.233l-.666 3.563a2.795 2.795 0 0 0 2.235 3.26l2.273.425a2.794 2.794 0 0 0 3.26-2.233l.666-3.563a2.794 2.794 0 0 0-2.234-3.26Z" fill="#6D7485"/><path d="M368.95 212.787a2.719 2.719 0 0 1-1.391.106l-2.261-.423a2.794 2.794 0 0 1-2.234-3.26l.426-2.283 5.46 5.86Z" fill="#969DAA"/><path d="M359.974 208.632a2.804 2.804 0 0 1-3.272 2.231l-2.207-.412a2.794 2.794 0 0 1-2.234-3.26l.666-3.563a2.795 2.795 0 0 1 3.261-2.233l2.207.413a2.807 2.807 0 0 1 2.245 3.262l-.666 3.562Z" fill="#6D7485"/><path d="M358.103 210.76a2.79 2.79 0 0 1-1.401.103l-2.207-.412a2.794 2.794 0 0 1-2.234-3.26l.427-2.283 5.415 5.852Z" fill="#969DAA"/><path d="M349.117 206.603a2.807 2.807 0 0 1-3.261 2.233l-2.273-.425a2.804 2.804 0 0 1-2.234-3.26l.666-3.562a2.807 2.807 0 0 1 3.261-2.233l2.273.425a2.804 2.804 0 0 1 2.234 3.26l-.666 3.562Z" fill="#6D7485"/><path d="M347.246 208.731c-.446.154-.925.19-1.39.105l-2.273-.425a2.804 2.804 0 0 1-2.234-3.26l.427-2.283 5.47 5.863Z" fill="#969DAA"/><path d="M338.27 204.576a2.804 2.804 0 0 1-3.272 2.231l-2.261-.423a2.798 2.798 0 0 1-2.222-2.169 2.801 2.801 0 0 1-.013-1.091l.666-3.562a2.806 2.806 0 0 1 1.168-1.792 2.803 2.803 0 0 1 2.093-.441l2.262.423a2.802 2.802 0 0 1 2.245 3.262l-.666 3.562Z" fill="#6D7485"/><path d="M336.388 206.701a2.703 2.703 0 0 1-1.39.106l-2.261-.423a2.8 2.8 0 0 1-2.222-2.17 2.796 2.796 0 0 1-.013-1.09l.427-2.283 5.459 5.86Z" fill="#969DAA"/><path d="M327.413 202.547a2.807 2.807 0 0 1-3.271 2.231l-2.262-.423a2.796 2.796 0 0 1-2.234-3.26l.665-3.562a2.79 2.79 0 0 1 3.261-2.233l2.262.422a2.808 2.808 0 0 1 2.245 3.262l-.666 3.563Z" fill="#6D7485"/><path d="M325.565 204.678c-.45.154-.933.19-1.401.104l-2.262-.423a2.794 2.794 0 0 1-2.234-3.26l.427-2.283 5.47 5.862Z" fill="#969DAA"/><path d="m314.988 193.695-2.273-.425a2.795 2.795 0 0 0-3.261 2.233l-.666 3.563a2.795 2.795 0 0 0 2.234 3.26l2.273.425a2.796 2.796 0 0 0 3.261-2.233l.666-3.563a2.795 2.795 0 0 0-2.234-3.26Z" fill="#6D7485"/><path d="M314.685 202.645c-.446.154-.925.19-1.39.105l-2.273-.425a2.804 2.804 0 0 1-2.234-3.26l.427-2.283 5.47 5.863Z" fill="#969DAA"/><path d="m304.142 191.668-2.273-.425a2.795 2.795 0 0 0-3.261 2.233l-.666 3.563a2.794 2.794 0 0 0 2.234 3.259l2.273.425a2.794 2.794 0 0 0 3.261-2.233l.666-3.562a2.794 2.794 0 0 0-2.234-3.26Z" fill="#6D7485"/><path d="M303.839 200.618c-.45.153-.932.189-1.401.103l-2.206-.412a2.794 2.794 0 0 1-2.234-3.26l.426-2.283 5.415 5.852Z" fill="#969DAA"/><path d="M294.853 196.461a2.805 2.805 0 0 1-3.261 2.233l-2.273-.425a2.794 2.794 0 0 1-2.234-3.26l.666-3.562a2.791 2.791 0 0 1 3.261-2.233l2.273.425a2.8 2.8 0 0 1 1.788 1.17 2.8 2.8 0 0 1 .446 2.089l-.666 3.563Z" fill="#6D7485"/><path d="M292.982 198.589a2.781 2.781 0 0 1-1.39.105l-2.273-.425a2.786 2.786 0 0 1-1.792-1.167 2.796 2.796 0 0 1-.442-2.093l.427-2.283 5.47 5.863Z" fill="#969DAA"/><path d="M283.996 194.432a2.807 2.807 0 0 1-3.261 2.233l-2.273-.425a2.804 2.804 0 0 1-2.234-3.26l.666-3.562a2.804 2.804 0 0 1 3.261-2.233l2.273.425a2.804 2.804 0 0 1 2.234 3.26l-.666 3.562Z" fill="#6D7485"/><path d="M282.125 196.559a2.736 2.736 0 0 1-1.39.106l-2.273-.425a2.807 2.807 0 0 1-2.234-3.26l.427-2.283 5.47 5.862Z" fill="#969DAA"/><path d="m269.308 185.157 2.273.425a2.793 2.793 0 0 1 2.234 3.26l-.666 3.563a2.795 2.795 0 0 1-3.261 2.233l-2.206-.413a2.804 2.804 0 0 1-2.243-3.273l.663-3.551a2.797 2.797 0 0 1 3.206-2.244Z" fill="#6D7485"/><path d="M271.267 194.53a2.703 2.703 0 0 1-1.39.105l-2.262-.422a2.793 2.793 0 0 1-2.234-3.26l.427-2.284 5.459 5.861Z" fill="#969DAA"/><path d="m260.724 183.553-2.273-.425a2.796 2.796 0 0 0-3.261 2.233l-.666 3.563a2.795 2.795 0 0 0 2.235 3.26l2.272.425a2.795 2.795 0 0 0 3.261-2.233l.666-3.563a2.794 2.794 0 0 0-2.234-3.26Z" fill="#6D7485"/><path d="M260.466 192.511a2.78 2.78 0 0 1-1.401.104l-2.306-.431a2.794 2.794 0 0 1-2.235-3.26l.427-2.283 5.515 5.87Z" fill="#969DAA"/><path d="m238.215 179.346-2.273-.425a2.794 2.794 0 0 0-3.26 2.233l-.666 3.563a2.794 2.794 0 0 0 2.234 3.26l2.273.425a2.795 2.795 0 0 0 3.26-2.233l.666-3.563a2.794 2.794 0 0 0-2.234-3.26Z" fill="#6D7485"/><path d="M237.913 188.296a2.715 2.715 0 0 1-1.39.106l-2.262-.423a2.808 2.808 0 0 1-2.245-3.262l.426-2.283 5.471 5.862Z" fill="#969DAA"/><path d="M228.915 184.137a2.804 2.804 0 0 1-3.272 2.231l-2.261-.423a2.798 2.798 0 0 1-2.222-2.169 2.797 2.797 0 0 1-.013-1.09l.666-3.563a2.806 2.806 0 0 1 1.168-1.792 2.796 2.796 0 0 1 2.093-.441l2.262.423a2.802 2.802 0 0 1 2.245 3.262l-.666 3.562Z" fill="#6D7485"/><path d="M227.067 186.269a2.793 2.793 0 0 1-1.402.103l-2.261-.423a2.796 2.796 0 0 1-2.235-3.26l.427-2.283 5.471 5.863Z" fill="#969DAA"/><path d="m216.512 175.29-2.273-.425a2.795 2.795 0 0 0-3.261 2.233l-.665 3.563a2.794 2.794 0 0 0 2.234 3.26l2.273.424a2.793 2.793 0 0 0 3.26-2.233l.666-3.562a2.794 2.794 0 0 0-2.234-3.26Z" fill="#6D7485"/><path d="M216.21 184.239a2.737 2.737 0 0 1-1.39.106l-2.262-.423a2.807 2.807 0 0 1-2.245-3.262l.426-2.283 5.471 5.862Z" fill="#969DAA"/><path d="M207.223 180.083a2.802 2.802 0 0 1-1.168 1.792 2.8 2.8 0 0 1-2.093.441l-2.207-.413a2.794 2.794 0 0 1-2.234-3.259l.666-3.563a2.791 2.791 0 0 1 3.261-2.233l2.206.412a2.801 2.801 0 0 1 1.793 1.168c.419.611.578 1.364.441 2.092l-.665 3.563Z" fill="#6D7485"/><path d="M205.352 182.21a2.704 2.704 0 0 1-1.39.106l-2.207-.413a2.786 2.786 0 0 1-1.792-1.167 2.789 2.789 0 0 1-.442-2.092l.427-2.284 5.404 5.85Z" fill="#969DAA"/><path d="M196.377 178.056a2.808 2.808 0 0 1-3.272 2.231l-2.207-.413a2.796 2.796 0 0 1-2.234-3.26l.666-3.562a2.791 2.791 0 0 1 3.261-2.233l2.206.412a2.804 2.804 0 0 1 2.246 3.262l-.666 3.563Z" fill="#6D7485"/><path d="M194.506 180.183a2.79 2.79 0 0 1-1.401.104l-2.207-.413a2.796 2.796 0 0 1-2.234-3.26l.427-2.283 5.415 5.852Z" fill="#969DAA"/><path d="m482.628 205.268 103.794-77.561a14.6 14.6 0 0 1 10.965-2.699l8.323 1.293a4.395 4.395 0 0 1 3.245 2.357 4.39 4.39 0 0 1-.016 4.011l-46.363 89.448-82.631-15.444a8.003 8.003 0 0 0 2.683-1.405Z" fill="#FF9B8A"/><defs><linearGradient id="b" x1="302.3" y1="318.6" x2="344.9" y2="32.1" gradientUnits="userSpaceOnUse"><stop stop-color="#F37753"/><stop offset="1" stop-color="#fff" stop-opacity="0"/></linearGradient><linearGradient id="c" x1="386.4" y1="239.9" x2="450" y2="251.8" gradientUnits="userSpaceOnUse"><stop stop-color="#F0F0F0"/><stop offset=".1" stop-color="#E8E8E8"/><stop offset=".7" stop-color="#CBCBCB"/><stop offset="1" stop-color="silver"/></linearGradient><linearGradient id="d" x1="398.7" y1="241.1" x2="396.4" y2="256.1" gradientUnits="userSpaceOnUse"><stop stop-color="#fff"/><stop offset="1"/></linearGradient><linearGradient id="e" x1="308.2" y1="252" x2="340.6" y2="258" gradientUnits="userSpaceOnUse"><stop stop-color="#fff"/><stop offset="0" stop-color="#F3F3F3"/><stop offset=".1" stop-color="#D5D5D5"/><stop offset=".2" stop-color="#BDBDBD"/><stop offset=".3" stop-color="#ABABAB"/><stop offset=".5" stop-color="#9E9E9E"/><stop offset=".6" stop-color="#969696"/><stop offset="1" stop-color="#949494"/></linearGradient><linearGradient id="f" x1="-1427.4" y1="5955.1" x2="-1145.1" y2="6007.9" gradientUnits="userSpaceOnUse"><stop stop-color="#fff"/><stop offset="0" stop-color="#F3F3F3"/><stop offset=".1" stop-color="#D5D5D5"/><stop offset=".2" stop-color="#BDBDBD"/><stop offset=".3" stop-color="#ABABAB"/><stop offset=".5" stop-color="#9E9E9E"/><stop offset=".6" stop-color="#969696"/><stop offset="1" stop-color="#949494"/></linearGradient></defs></svg>