<svg width="750" height="500" fill="none" xmlns="http://www.w3.org/2000/svg"><path d="M161 244.7c.8-5.5-7-10-12.8-10.4-2.8-.2-5.6.2-8.3-.7-5.7-2-7.9-9.3-13.5-11.7-4.1-1.7-8.9-.2-12.9 1.8s-8 4.6-12.5 4.9c-3.9.2-8.1-1.2-11.6.7-2.5 1.4-3.9 4.4-6.2 6.1-2.3 1.7-5.3 2.1-8.1 2.2-2.8.2-5.8.2-8.4 1.4-2.6 1.2-4.7 3.9-4.2 6.7l98.5-1ZM655.5 54.2c.5-3.9-5-7.1-9.1-7.5-2-.2-4 .1-5.9-.5-4.1-1.4-5.7-6.7-9.7-8.3-3-1.3-6.4-.1-9.3 1.3-2.9 1.4-5.7 3.3-8.9 3.5-2.8.2-5.8-.9-8.3.5-1.8 1-2.8 3.1-4.5 4.4-1.6 1.2-3.8 1.5-5.8 1.6-2 .1-4.1.1-6 1-1.9.8-3.4 2.8-3 4.8l70.5-.8Z" fill="#EBEBEB"/><path d="M358.7 170.1c-.5 0-1-.4-1-1V110l-47.6 58.3c-.3.4-1 .5-1.4.1-.4-.3-.5-1-.1-1.4l49.3-60.5c.3-.3.7-.4 1.1-.3.4.1.7.5.7.9v61.8c-.1.8-.5 1.2-1 1.2Z" fill="#E0E0E0"/><path d="M150.3 185.7c-.4 0-.8-.2-.9-.6-.2-.5.1-1.1.6-1.3l208.3-77.4c.4-.1.8 0 1.1.3l53 61.8c.4.4.3 1-.1 1.4-.4.4-1 .3-1.4-.1l-52.6-61.3-207.7 77.2h-.3Z" fill="#E0E0E0"/><path d="m124.6 180.6 13.9 8.3h330.8v-8.3H124.6Z" fill="#E0E0E0"/><path d="M309.3 167.8h-5.5v158.7h5.5V167.8Zm57.4 0h-5.5v158.7h5.5V167.8Z" fill="#E0E0E0"/><path d="M416.1 325.2H298v6.4h118.1v-6.4Zm-49.1-68h-60.4v6.4H367v-6.4Z" fill="#E0E0E0"/><path d="M353.3 167.8h-5.5v158.7h5.5V167.8Zm58.4 1.3h-5.5v158.7h5.5V169.1Z" fill="#E0E0E0"/><path d="M310.1 259.8c-.1 0-.3 0-.4-.1-.5-.2-.7-.8-.5-1.3l41.6-87.3c.2-.5.8-.7 1.3-.5.5.2.7.8.5 1.3L311 259.2c-.1.4-.5.6-.9.6Zm55.5-1.6c-.1 0-.3 0-.4-.1-.5-.2-.7-.8-.4-1.3 1.7-3.4 40.6-82.2 41.1-83.3.3-.5.8-.7 1.3-.4.5.3.7.8.4 1.3-.5 1-40.7 82.4-41.1 83.2-.2.4-.5.6-.9.6Z" fill="#EBEBEB"/><path d="M317.3 331.6h-23.7v5.7h23.7v-5.7Zm44.2-.8h-23.7v5.7h23.7v-5.7Zm56.6 0h-23.7v5.7h23.7v-5.7Z" fill="#E0E0E0"/><path d="M422.6 336.4h-137v5.2h137v-5.2Zm-7.1-168.6H301.7v7.4h113.8v-7.4Zm-4.6 89.4h-59.2v6.4h59.2v-6.4ZM142.8 396.9h-33V409h33v-12.1Z" fill="#E0E0E0"/><path d="M117.5 395.5h-33v12.1h33v-12.1Z" fill="#EBEBEB"/><path d="M49.4 394.5h-33v12.1h33v-12.1Z" fill="#E0E0E0"/><path d="M47.3 382.4h-33v12.1h33v-12.1Z" fill="#EBEBEB"/><path d="M57 378.1v-5.6h5.2v5.3l-5.2.3Z" fill="#E0E0E0"/><path d="M89.4 372.5H62.3v5.2h27.1v-5.2Z" fill="#F5F5F5"/><path d="M56 377.8h-9.5v29.3H56v-29.3Z" fill="#E0E0E0"/><path d="M89.3 377.8H55.9V407h33.5l-.1-29.2Z" fill="#F5F5F5"/><path d="M65.7 374.1H65v1.8h.7v-1.8Zm1.3 0h-.7v1.8h.7v-1.8Zm3.9 0h-.7v1.8h.7v-1.8Zm1.3 0h-.7v1.8h.7v-1.8Zm4 0h-.7v1.8h.7v-1.8Zm1.2 0h-.7v1.8h.7v-1.8Zm4 0h-.7v1.8h.7v-1.8Zm1.3 0H82v1.8h.7v-1.8Zm3.9 0h-.7v1.8h.7v-1.8Zm1.3 0h-.7v1.8h.7v-1.8Zm-12.4-1.6h-9.2l1.3-17.4h6.3l1.6 17.4Z" fill="#E0E0E0"/><path d="M74.6 363H67l.2-2.9h7.2l.2 2.9Zm.6 6h-8.7l.3-2.9h8.1l.3 2.9Z" fill="#fff"/><path d="M101 395.5H68v12.1h33v-12.1Z" fill="#E0E0E0"/><path d="M105.2 383.4h-33v12.1h33v-12.1ZM6.6 407l4.2 22.2h165.4s0-6.3 9.2-14.5 9.8-17.7 9.8-17.7l-51.3.4-7.4 9.4-126.4.2H6.6Z" fill="#EBEBEB"/><path d="M6.6 407h9.5c6.2 0 15.3-.1 26.7-.1 22.9-.1 55.4-.2 93.8-.3l-.2.1c2.3-2.9 4.8-6.1 7.4-9.4l.1-.1h.1c16-.1 33.3-.3 51.3-.4h.3v.3c-.3 2.7-1.1 5.3-2.3 7.8-1.2 2.5-2.7 4.9-4.6 7.1-1.2 1.4-2.6 2.7-3.9 3.9-1.3 1.2-2.6 2.6-3.7 4s-2.1 2.9-2.9 4.5c-.8 1.6-1.4 3.3-1.5 5v.3h-.2c-73.1-.1-134.8-.1-165.4-.1H11v-.1c-1.4-7.2-2.4-12.8-3.1-16.6-.3-1.9-.6-3.3-.8-4.2-.4-1.2-.5-1.7-.5-1.7l.3 1.5c.2 1 .5 2.4.8 4.2.7 3.7 1.8 9.3 3.2 16.5l-.1-.1c30.6 0 92.4-.1 165.4-.1l-.3.3c.1-1.9.8-3.6 1.6-5.2s1.8-3.1 3-4.6c1.1-1.4 2.4-2.8 3.8-4 1.4-1.3 2.7-2.5 3.9-3.9 1.9-2.1 3.4-4.5 4.5-6.9 1.2-2.5 2-5.1 2.2-7.6l.3.3c-17.9.1-35.3.3-51.3.4l.2-.1c-2.6 3.3-5.1 6.5-7.4 9.4l-.1.1h-.1c-38.3 0-70.8.1-93.8.1H7.1c-.3-.3-.5-.3-.5-.3Z" fill="#E0E0E0"/><path d="m10.9 429.2-1.2-6.5h169s-2.2 3.6-2.3 6.5H10.9ZM617.6 222c-.5 0-1-.4-1-1v-59L569 220.3c-.3.4-1 .5-1.4.1-.4-.3-.5-1-.1-1.4l49.3-60.5c.3-.3.7-.4 1.1-.3.4.1.7.5.7.9v61.8c0 .7-.5 1.1-1 1.1Z" fill="#E0E0E0"/><path d="M409.3 237.7c-.4 0-.8-.2-.9-.6-.2-.5.1-1.1.6-1.3l208.3-77.4c.4-.1.8 0 1.1.3l53 61.8c.4.4.3 1-.1 1.4-.4.4-1 .3-1.4-.1l-52.6-61.3-207.7 77.2c-.1-.1-.2 0-.3 0Z" fill="#E0E0E0"/><path d="m383.5 232.6 14 8.2h330.7v-8.2H383.5Z" fill="#E0E0E0"/><path d="M568.3 219.7h-5.5v158.7h5.5V219.7Zm57.3 0h-5.5v158.7h5.5V219.7Z" fill="#E0E0E0"/><path d="M675 377.1H556.9v6.4H675v-6.4Zm-49.1-67.9h-60.4v6.4h60.4v-6.4Z" fill="#E0E0E0"/><path d="M612.2 219.7h-5.5v158.7h5.5V219.7Zm58.4 1.4h-5.5v158.7h5.5V221.1Z" fill="#E0E0E0"/><path d="M569.1 311.7c-.1 0-.3 0-.4-.1-.5-.2-.7-.8-.5-1.3l41.6-87.3c.2-.5.8-.7 1.3-.5.5.2.7.8.5 1.3L570 311.2c-.2.3-.6.5-.9.5Zm55.4-1.6c-.1 0-.3 0-.4-.1-.5-.2-.7-.8-.4-1.3 1.7-3.4 40.6-82.2 41.1-83.3.3-.5.8-.7 1.3-.4.5.3.7.8.4 1.3-.5 1-40.7 82.4-41.1 83.2-.1.4-.5.6-.9.6Z" fill="#EBEBEB"/><path d="M576.2 383.5h-23.7v5.7h23.7v-5.7Zm44.2-.8h-23.7v5.7h23.7v-5.7Zm56.6 0h-23.7v5.7H677v-5.7Z" fill="#E0E0E0"/><path d="M681.5 388.3h-137v5.2h137v-5.2Zm-7-168.6H560.7v7.4h113.8v-7.4Zm-4.6 89.5h-59.2v6.4h59.2v-6.4Z" fill="#E0E0E0"/><path d="M300.4 76.9c1-7.1-9.1-13-16.7-13.6-3.6-.3-7.4.3-10.8-.9-7.4-2.6-10.4-12.2-17.6-15.2-5.4-2.3-11.6-.3-16.9 2.4-5.2 2.6-10.4 6-16.3 6.3-5.1.3-10.6-1.6-15.1.9-3.3 1.9-5.1 5.7-8.1 7.9s-6.9 2.7-10.6 2.9c-3.7.2-7.6.2-10.9 1.8-3.4 1.5-6.2 5.1-5.5 8.8l128.5-1.3Zm205.3 41c.7-5.4-6.9-9.9-12.7-10.4-2.8-.2-5.6.2-8.2-.7-5.6-2-7.9-9.3-13.4-11.6-4.1-1.7-8.9-.2-12.9 1.8s-7.9 4.5-12.4 4.8c-3.9.2-8.1-1.2-11.5.7-2.5 1.4-3.9 4.3-6.2 6-2.3 1.7-5.3 2-8.1 2.2-2.8.2-5.8.2-8.3 1.4-2.6 1.2-4.7 3.9-4.2 6.7l97.9-.9Z" fill="#EBEBEB"/><path d="M167.9 354.7H92.5v21.9h75.4v-21.9Z" fill="#455A64"/><path opacity=".3" d="M167.9 354.7h-27v21.9h27v-21.9Z" fill="#000"/><path d="M139.8 375.8v-5.4c0-3.4-.1-8.3-.1-14.4l.2.2c-12 0-28.4 0-46.6.1l.3-.3v19.7l-.2-.2c13.5 0 25.1.1 33.3.1 4.1 0 7.4.1 9.7.1h3.3l.1.1h-3.5c-2.3 0-5.5 0-9.6.1-8.3 0-20 .1-33.5.1H93v-19.9l.3-.3c18.1 0 34.6.1 46.6.1h.2v.2c0 6.1-.1 11.1-.1 14.5v4.9c-.2.2-.2.3-.2.3Zm26.8 0v-1.5c0-1 0-2.3-.1-4 0-3.5-.1-8.4-.1-14.3l.2.2h-24.5l.3-.3v19.7l-.2-.2c7.2 0 13.3.1 17.7.1 2.1 0 3.8 0 5 .1h1.3c.2.1.4.1.4.2s-.1 0-.4 0h-1.3c-1.2 0-2.9 0-5 .1-4.4 0-10.5.1-17.8.1h-.2v-19.9l.3-.3h24.7v.2c0 6-.1 10.9-.1 14.4 0 1.7 0 3-.1 4v1c-.1.3-.1.4-.1.4Z" fill="#263238"/><path d="M95.1 375.6c-.1 0-.3-4.4-.3-9.8s.1-9.8.3-9.8c.2 0 .3 4.4.3 9.8-.1 5.4-.2 9.8-.3 9.8Zm2.1 0c-.1 0-.3-4.4-.3-9.8s.1-9.8.3-9.8c.1 0 .3 4.4.3 9.8s-.2 9.8-.3 9.8Zm2.2 0c-.1 0-.3-4.4-.3-9.8s.1-9.8.3-9.8c.2 0 .3 4.4.3 9.8-.1 5.4-.2 9.8-.3 9.8Zm2.1 0c-.1 0-.3-4.4-.3-9.8s.1-9.8.3-9.8c.2 0 .3 4.4.3 9.8s-.2 9.8-.3 9.8Zm2.2 0c-.1 0-.3-4.4-.3-9.8s.1-9.8.3-9.8c.1 0 .3 4.4.3 9.8-.1 5.4-.2 9.8-.3 9.8Zm2.1 0c-.1 0-.3-4.4-.3-9.8s.1-9.8.3-9.8c.2 0 .3 4.4.3 9.8s-.2 9.8-.3 9.8Zm2.2 0c-.1 0-.3-4.4-.3-9.8s.1-9.8.3-9.8c.1 0 .3 4.4.3 9.8-.1 5.4-.2 9.8-.3 9.8Zm2.1 0c-.1 0-.3-4.4-.3-9.8s.1-9.8.3-9.8c.1 0 .3 4.4.3 9.8s-.2 9.8-.3 9.8Zm2.2 0c-.1 0-.3-4.4-.3-9.8s.1-9.8.3-9.8c.1 0 .3 4.4.3 9.8-.1 5.4-.2 9.8-.3 9.8Zm2.1 0c-.1 0-.3-4.4-.3-9.8s.1-9.8.3-9.8c.1 0 .3 4.4.3 9.8s-.2 9.8-.3 9.8Zm2.2 0c-.1 0-.3-4.4-.3-9.8s.1-9.8.3-9.8c.1 0 .3 4.4.3 9.8-.1 5.4-.2 9.8-.3 9.8Zm2.1 0c-.1 0-.3-4.4-.3-9.8s.1-9.8.3-9.8c.1 0 .3 4.4.3 9.8s-.2 9.8-.3 9.8Zm2.2 0c-.1 0-.3-4.4-.3-9.8s.1-9.8.3-9.8c.1 0 .3 4.4.3 9.8-.1 5.4-.2 9.8-.3 9.8Zm2.1 0c-.1 0-.3-4.4-.3-9.8s.1-9.8.3-9.8c.2 0 .3 4.4.3 9.8s-.1 9.8-.3 9.8Zm2.2 0c-.1 0-.3-4.4-.3-9.8s.1-9.8.3-9.8c.2 0 .3 4.4.3 9.8-.1 5.4-.2 9.8-.3 9.8Zm2.1 0c-.1 0-.3-4.4-.3-9.8s.1-9.8.3-9.8c.1 0 .3 4.4.3 9.8s-.1 9.8-.3 9.8Zm2.2 0c-.1 0-.3-4.4-.3-9.8s.1-9.8.3-9.8c.2 0 .3 4.4.3 9.8-.1 5.4-.2 9.8-.3 9.8Zm2.1 0c-.1 0-.3-4.4-.3-9.8s.1-9.8.3-9.8c.1 0 .3 4.4.3 9.8s-.1 9.8-.3 9.8Zm2.2 0c-.1 0-.3-4.4-.3-9.8s.1-9.8.3-9.8c.2 0 .3 4.4.3 9.8-.1 5.4-.2 9.8-.3 9.8Zm2.1 0c-.1 0-.3-4.4-.3-9.8s.1-9.8.3-9.8c.1 0 .3 4.4.3 9.8s-.1 9.8-.3 9.8Zm2.2 0c-.1 0-.3-4.4-.3-9.8s.1-9.8.3-9.8c.1 0 .3 4.4.3 9.8-.1 5.4-.2 9.8-.3 9.8Zm5.9 0c-.1 0-.3-4.4-.3-9.8s.1-9.8.3-9.8c.1 0 .3 4.4.3 9.8s-.1 9.8-.3 9.8Zm2.2 0c-.1 0-.3-4.4-.3-9.8s.1-9.8.3-9.8c.1 0 .3 4.4.3 9.8s-.1 9.8-.3 9.8Zm2.3 0c-.1 0-.3-4.4-.3-9.8s.1-9.8.3-9.8c.1 0 .3 4.4.3 9.8-.1 5.4-.2 9.8-.3 9.8Zm2.2 0c-.1 0-.3-4.4-.3-9.8s.1-9.8.3-9.8c.1 0 .3 4.4.3 9.8-.1 5.4-.2 9.8-.3 9.8Zm2.2 0c-.1 0-.3-4.4-.3-9.8s.1-9.8.3-9.8c.2 0 .3 4.4.3 9.8-.1 5.4-.2 9.8-.3 9.8Zm2.2 0c-.1 0-.3-4.4-.3-9.8s.1-9.8.3-9.8c.1 0 .3 4.4.3 9.8s-.2 9.8-.3 9.8Zm2.2 0c-.1 0-.3-4.4-.3-9.8s.1-9.8.3-9.8c.2 0 .3 4.4.3 9.8s-.1 9.8-.3 9.8Zm2.2 0c-.1 0-.3-4.4-.3-9.8s.1-9.8.3-9.8c.1 0 .3 4.4.3 9.8s-.1 9.8-.3 9.8Zm2.2 0c-.1 0-.3-4.4-.3-9.8s.1-9.8.3-9.8c.1 0 .3 4.4.3 9.8s-.1 9.8-.3 9.8Zm2.3 0c-.1 0-.3-4.4-.3-9.8s.1-9.8.3-9.8c.2 0 .3 4.4.3 9.8-.1 5.4-.2 9.8-.3 9.8Z" fill="#263238"/><path d="M160.9 310.8H85.5v21.9h75.4v-21.9Z" fill="#FF725E"/><path opacity=".3" d="M160.9 310.8h-27v21.9h27v-21.9Z" fill="#000"/><path d="M132.8 331.8v-5.4c0-3.4-.1-8.3-.1-14.4l.2.2c-12 0-28.4 0-46.6.1l.3-.3v19.7l-.2-.2c13.5 0 25.1.1 33.3.1 4.1 0 7.4.1 9.7.1h3.3c0 .1.1.1.1.1h-3.5c-2.3 0-5.5 0-9.6.1-8.3 0-20 .1-33.5.1H86v-19.9l.3-.3c18.1 0 34.6.1 46.6.1h.2v.2c0 6.1-.1 11.1-.1 14.5v4.9c-.2.2-.2.3-.2.3Zm26.8 0v-1.5c0-1 0-2.3-.1-4 0-3.5-.1-8.4-.1-14.3l.2.2h-24.5l.3-.3v19.7l-.2-.2c7.2 0 13.3.1 17.7.1 2.1 0 3.8 0 5 .1h1.3c.2.2.4.2.4.2h-1.7c-1.2 0-2.9 0-5 .1-4.4 0-10.5.1-17.8.1h-.2v-19.9l.3-.3h24.7v.2c0 6-.1 10.9-.1 14.4 0 1.7 0 3-.1 4v1c-.1.3-.1.4-.1.4Z" fill="#263238"/><path d="M88.1 331.6c-.1 0-.3-4.4-.3-9.8s.1-9.8.3-9.8c.2 0 .3 4.4.3 9.8-.1 5.5-.2 9.8-.3 9.8Zm2.1 0c-.1 0-.3-4.4-.3-9.8s.1-9.8.3-9.8c.1 0 .3 4.4.3 9.8 0 5.5-.1 9.8-.3 9.8Zm2.2 0c-.1 0-.3-4.4-.3-9.8s.1-9.8.3-9.8c.1 0 .3 4.4.3 9.8-.1 5.5-.2 9.8-.3 9.8Zm2.1 0c-.1 0-.3-4.4-.3-9.8s.1-9.8.3-9.8c.1 0 .3 4.4.3 9.8 0 5.5-.1 9.8-.3 9.8Zm2.2 0c-.1 0-.3-4.4-.3-9.8s.1-9.8.3-9.8c.1 0 .3 4.4.3 9.8-.1 5.5-.2 9.8-.3 9.8Zm2.1 0c-.1 0-.3-4.4-.3-9.8s.1-9.8.3-9.8c.1 0 .3 4.4.3 9.8 0 5.5-.1 9.8-.3 9.8Zm2.2 0c-.1 0-.3-4.4-.3-9.8s.1-9.8.3-9.8c.1 0 .3 4.4.3 9.8-.1 5.5-.2 9.8-.3 9.8Zm2.1 0c-.1 0-.3-4.4-.3-9.8s.1-9.8.3-9.8c.2 0 .3 4.4.3 9.8 0 5.5-.1 9.8-.3 9.8Zm2.2 0c-.1 0-.3-4.4-.3-9.8s.1-9.8.3-9.8c.2 0 .3 4.4.3 9.8-.1 5.5-.2 9.8-.3 9.8Zm2.1 0c-.1 0-.3-4.4-.3-9.8s.1-9.8.3-9.8c.2 0 .3 4.4.3 9.8 0 5.5-.1 9.8-.3 9.8Zm2.2 0c-.1 0-.3-4.4-.3-9.8s.1-9.8.3-9.8c.2 0 .3 4.4.3 9.8-.1 5.5-.2 9.8-.3 9.8Zm2.1 0c-.1 0-.3-4.4-.3-9.8s.1-9.8.3-9.8c.2 0 .3 4.4.3 9.8 0 5.5-.1 9.8-.3 9.8Zm2.2 0c-.1 0-.3-4.4-.3-9.8s.1-9.8.3-9.8c.2 0 .3 4.4.3 9.8-.1 5.5-.2 9.8-.3 9.8Zm2.1 0c-.1 0-.3-4.4-.3-9.8s.1-9.8.3-9.8c.1 0 .3 4.4.3 9.8 0 5.5-.1 9.8-.3 9.8Zm2.2 0c-.1 0-.3-4.4-.3-9.8s.1-9.8.3-9.8c.1 0 .3 4.4.3 9.8-.1 5.5-.2 9.8-.3 9.8Zm2.1 0c-.1 0-.3-4.4-.3-9.8s.1-9.8.3-9.8c.1 0 .3 4.4.3 9.8 0 5.5-.1 9.8-.3 9.8Zm2.2 0c-.1 0-.3-4.4-.3-9.8s.1-9.8.3-9.8c.1 0 .3 4.4.3 9.8-.1 5.5-.2 9.8-.3 9.8Zm2.1 0c-.1 0-.3-4.4-.3-9.8s.1-9.8.3-9.8c.1 0 .3 4.4.3 9.8 0 5.5-.1 9.8-.3 9.8Zm2.2 0c-.1 0-.3-4.4-.3-9.8s.1-9.8.3-9.8c.1 0 .3 4.4.3 9.8-.1 5.5-.2 9.8-.3 9.8Zm2.1 0c-.1 0-.3-4.4-.3-9.8s.1-9.8.3-9.8c.1 0 .3 4.4.3 9.8 0 5.5-.1 9.8-.3 9.8Zm2.2 0c-.1 0-.3-4.4-.3-9.8s.1-9.8.3-9.8c.2 0 .3 4.4.3 9.8 0 5.5-.2 9.8-.3 9.8Zm6 0c-.1 0-.3-4.4-.3-9.8s.1-9.8.3-9.8c.1 0 .3 4.4.3 9.8-.1 5.5-.2 9.8-.3 9.8Zm2.2 0c-.1 0-.3-4.4-.3-9.8s.1-9.8.3-9.8c.1 0 .3 4.4.3 9.8-.1 5.5-.2 9.8-.3 9.8Zm2.2 0c-.1 0-.3-4.4-.3-9.8s.1-9.8.3-9.8c.1 0 .3 4.4.3 9.8-.1 5.5-.2 9.8-.3 9.8Zm2.2 0c-.1 0-.3-4.4-.3-9.8s.1-9.8.3-9.8c.1 0 .3 4.4.3 9.8 0 5.5-.2 9.8-.3 9.8Zm2.2 0c-.1 0-.3-4.4-.3-9.8s.1-9.8.3-9.8c.1 0 .3 4.4.3 9.8 0 5.5-.1 9.8-.3 9.8Zm2.2 0c-.1 0-.3-4.4-.3-9.8s.1-9.8.3-9.8c.2 0 .3 4.4.3 9.8 0 5.5-.1 9.8-.3 9.8Zm2.2 0c-.1 0-.3-4.4-.3-9.8s.1-9.8.3-9.8c.1 0 .3 4.4.3 9.8 0 5.5-.1 9.8-.3 9.8Zm2.3 0c-.1 0-.3-4.4-.3-9.8s.1-9.8.3-9.8c.1 0 .3 4.4.3 9.8-.1 5.5-.2 9.8-.3 9.8Zm2.2 0c-.1 0-.3-4.4-.3-9.8s.1-9.8.3-9.8c.1 0 .3 4.4.3 9.8-.1 5.5-.2 9.8-.3 9.8Zm2.2 0c-.1 0-.3-4.4-.3-9.8s.1-9.8.3-9.8c.1 0 .3 4.4.3 9.8 0 5.5-.2 9.8-.3 9.8Z" fill="#263238"/><path d="M119.5 354.7H44.1v21.9h75.4v-21.9Z" fill="#FF725E"/><path opacity=".3" d="M119.5 354.7h-27v21.9h27v-21.9Z" fill="#000"/><path d="M91.4 375.8v-5.4c0-3.4-.1-8.3-.1-14.4l.2.2c-12 0-28.4 0-46.6.1l.3-.3v19.7l-.2-.2c13.5 0 25.1.1 33.3.1 4.1 0 7.4.1 9.7.1h3.3l.1.1h-3.5c-2.3 0-5.5 0-9.6.1-8.3 0-20 .1-33.5.1h-.2v-19.9l.3-.3c18.1 0 34.6.1 46.6.1h.2v.2c0 6.1-.1 11.1-.1 14.5v4.9c-.2.2-.2.3-.2.3Zm26.7 0v-1.5c0-1 0-2.3-.1-4 0-3.5-.1-8.4-.1-14.3l.2.2H93.6l.3-.3v19.7l-.2-.2c7.2 0 13.3.1 17.7.1 2.1 0 3.8 0 5 .1h1.3c.3.1.4.1.4.2s-.1 0-.4 0h-1.3c-1.2 0-2.9 0-5 .1-4.4 0-10.5.1-17.8.1h-.2v-19.9l.3-.3h24.7v.2c0 6-.1 10.9-.1 14.4 0 1.7 0 3-.1 4v1c0 .3 0 .4-.1.4Z" fill="#263238"/><path d="M46.6 375.6c-.1 0-.3-4.4-.3-9.8s.1-9.8.3-9.8c.1 0 .3 4.4.3 9.8s-.1 9.8-.3 9.8Zm2.2 0c-.1 0-.3-4.4-.3-9.8s.1-9.8.3-9.8c.1 0 .3 4.4.3 9.8-.1 5.4-.2 9.8-.3 9.8Zm2.1 0c-.1 0-.3-4.4-.3-9.8s.1-9.8.3-9.8c.1 0 .3 4.4.3 9.8s-.1 9.8-.3 9.8Zm2.2 0c-.1 0-.3-4.4-.3-9.8s.1-9.8.3-9.8c.1 0 .3 4.4.3 9.8-.1 5.4-.2 9.8-.3 9.8Zm2.1 0c-.1 0-.3-4.4-.3-9.8s.1-9.8.3-9.8c.1 0 .3 4.4.3 9.8s-.1 9.8-.3 9.8Zm2.2 0c-.1 0-.3-4.4-.3-9.8s.1-9.8.3-9.8c.2 0 .3 4.4.3 9.8-.1 5.4-.2 9.8-.3 9.8Zm2.1 0c-.1 0-.3-4.4-.3-9.8s.1-9.8.3-9.8c.2 0 .3 4.4.3 9.8s-.1 9.8-.3 9.8Zm2.2 0c-.1 0-.3-4.4-.3-9.8s.1-9.8.3-9.8c.1 0 .3 4.4.3 9.8-.1 5.4-.2 9.8-.3 9.8Zm2.1 0c-.1 0-.3-4.4-.3-9.8s.1-9.8.3-9.8c.2 0 .3 4.4.3 9.8s-.1 9.8-.3 9.8Zm2.2 0c-.1 0-.3-4.4-.3-9.8s.1-9.8.3-9.8c.2 0 .3 4.4.3 9.8-.1 5.4-.2 9.8-.3 9.8Zm2.1 0c-.1 0-.3-4.4-.3-9.8s.1-9.8.3-9.8c.1 0 .3 4.4.3 9.8s-.1 9.8-.3 9.8Zm2.2 0c-.1 0-.3-4.4-.3-9.8s.1-9.8.3-9.8c.1 0 .3 4.4.3 9.8-.1 5.4-.2 9.8-.3 9.8Zm2.1 0c-.1 0-.3-4.4-.3-9.8s.1-9.8.3-9.8c.1 0 .3 4.4.3 9.8s-.1 9.8-.3 9.8Zm2.2 0c-.1 0-.3-4.4-.3-9.8s.1-9.8.3-9.8c.1 0 .3 4.4.3 9.8s-.2 9.8-.3 9.8Zm2.1 0c-.1 0-.3-4.4-.3-9.8s.1-9.8.3-9.8c.1 0 .3 4.4.3 9.8s-.1 9.8-.3 9.8Zm2.2 0c-.1 0-.3-4.4-.3-9.8s.1-9.8.3-9.8c.1 0 .3 4.4.3 9.8s-.2 9.8-.3 9.8Zm2.1 0c-.1 0-.3-4.4-.3-9.8s.1-9.8.3-9.8c.1 0 .3 4.4.3 9.8s-.1 9.8-.3 9.8Zm2.2 0c-.1 0-.3-4.4-.3-9.8s.1-9.8.3-9.8c.1 0 .3 4.4.3 9.8s-.2 9.8-.3 9.8Zm2.1 0c-.1 0-.3-4.4-.3-9.8s.1-9.8.3-9.8c.1 0 .3 4.4.3 9.8s-.1 9.8-.3 9.8Zm2.2 0c-.1 0-.3-4.4-.3-9.8s.1-9.8.3-9.8c.1 0 .3 4.4.3 9.8s-.2 9.8-.3 9.8Zm2.1 0c-.1 0-.3-4.4-.3-9.8s.1-9.8.3-9.8c.2 0 .3 4.4.3 9.8s-.1 9.8-.3 9.8Zm6 0c-.1 0-.3-4.4-.3-9.8s.1-9.8.3-9.8c.1 0 .3 4.4.3 9.8s-.1 9.8-.3 9.8Zm2.2 0c-.1 0-.3-4.4-.3-9.8s.1-9.8.3-9.8c.1 0 .3 4.4.3 9.8s-.1 9.8-.3 9.8Zm2.2 0c-.1 0-.3-4.4-.3-9.8s.1-9.8.3-9.8c.2 0 .3 4.4.3 9.8s-.1 9.8-.3 9.8Zm2.3 0c-.1 0-.3-4.4-.3-9.8s.1-9.8.3-9.8c.1 0 .3 4.4.3 9.8-.1 5.4-.2 9.8-.3 9.8Zm2.2 0c-.1 0-.3-4.4-.3-9.8s.1-9.8.3-9.8c.1 0 .3 4.4.3 9.8-.1 5.4-.2 9.8-.3 9.8Zm2.2 0c-.1 0-.3-4.4-.3-9.8s.1-9.8.3-9.8c.2 0 .3 4.4.3 9.8-.1 5.4-.2 9.8-.3 9.8Zm2.2 0c-.1 0-.3-4.4-.3-9.8s.1-9.8.3-9.8c.1 0 .3 4.4.3 9.8s-.2 9.8-.3 9.8Zm2.2 0c-.1 0-.3-4.4-.3-9.8s.1-9.8.3-9.8c.1 0 .3 4.4.3 9.8s-.1 9.8-.3 9.8Zm2.2 0c-.1 0-.3-4.4-.3-9.8s.1-9.8.3-9.8c.2 0 .3 4.4.3 9.8s-.1 9.8-.3 9.8Zm2.2 0c-.1 0-.3-4.4-.3-9.8s.1-9.8.3-9.8c.1 0 .3 4.4.3 9.8s-.1 9.8-.3 9.8Z" fill="#263238"/><path d="M153.2 332.8H77.8v21.9h75.4v-21.9Z" fill="#E0E0E0"/><path opacity=".3" d="M153.2 332.8h-27v21.9h27v-21.9Z" fill="#000"/><path d="M125.1 353.8v-5.4c0-3.4-.1-8.3-.1-14.4l.2.2c-12 0-28.4 0-46.6.1l.3-.3v19.7l-.2-.2c13.5 0 25.1.1 33.3.1 4.1 0 7.4.1 9.7.1h3.3c0 .1.1.1.1.1h-3.5c-2.3 0-5.5 0-9.6.1-8.3 0-20 .1-33.5.1h-.2v-19.9l.3-.3c18.1 0 34.6.1 46.6.1h.2v.2c0 6.1-.1 11.1-.1 14.5v4.9c-.2.2-.2.3-.2.3Zm26.8 0v-1.5c0-1 0-2.3-.1-4 0-3.5-.1-8.4-.1-14.3l.2.2h-24.5l.3-.3v19.7l-.2-.2c7.2 0 13.3.1 17.7.1 2.1 0 3.8 0 5 .1h1.3c.2.2.4.2.4.2h-1.7c-1.2 0-2.9 0-5 .1-4.4 0-10.5.1-17.8.1h-.2v-19.9l.3-.3h24.7v.2c0 6-.1 10.9-.1 14.4 0 1.7 0 3-.1 4v1c-.1.3-.1.4-.1.4Z" fill="#263238"/><path d="M80.4 353.6c-.1 0-.3-4.4-.3-9.8s.1-9.8.3-9.8c.1 0 .3 4.4.3 9.8-.1 5.4-.2 9.8-.3 9.8Zm2.1 0c-.1 0-.3-4.4-.3-9.8s.1-9.8.3-9.8c.1 0 .3 4.4.3 9.8s-.1 9.8-.3 9.8Zm2.2 0c-.1 0-.3-4.4-.3-9.8s.1-9.8.3-9.8c.1 0 .3 4.4.3 9.8-.1 5.4-.2 9.8-.3 9.8Zm2.1 0c-.1 0-.3-4.4-.3-9.8s.1-9.8.3-9.8c.1 0 .3 4.4.3 9.8s-.1 9.8-.3 9.8Zm2.2 0c-.1 0-.3-4.4-.3-9.8s.1-9.8.3-9.8c.2 0 .3 4.4.3 9.8-.1 5.4-.2 9.8-.3 9.8Zm2.1 0c-.1 0-.3-4.4-.3-9.8s.1-9.8.3-9.8c.1 0 .3 4.4.3 9.8s-.1 9.8-.3 9.8Zm2.2 0c-.1 0-.3-4.4-.3-9.8s.1-9.8.3-9.8c.2 0 .3 4.4.3 9.8-.1 5.4-.2 9.8-.3 9.8Zm2.1 0c-.1 0-.3-4.4-.3-9.8s.1-9.8.3-9.8c.2 0 .3 4.4.3 9.8s-.1 9.8-.3 9.8Zm2.2 0c-.1 0-.3-4.4-.3-9.8s.1-9.8.3-9.8c.1 0 .3 4.4.3 9.8-.1 5.4-.2 9.8-.3 9.8Zm2.1 0c-.1 0-.3-4.4-.3-9.8s.1-9.8.3-9.8c.2 0 .3 4.4.3 9.8s-.1 9.8-.3 9.8Zm2.2 0c-.1 0-.3-4.4-.3-9.8s.1-9.8.3-9.8c.1 0 .3 4.4.3 9.8-.1 5.4-.2 9.8-.3 9.8Zm2.1 0c-.1 0-.3-4.4-.3-9.8s.1-9.8.3-9.8c.1 0 .3 4.4.3 9.8s-.1 9.8-.3 9.8Zm2.2 0c-.1 0-.3-4.4-.3-9.8s.1-9.8.3-9.8c.1 0 .3 4.4.3 9.8-.1 5.4-.2 9.8-.3 9.8Zm2.1 0c-.1 0-.3-4.4-.3-9.8s.1-9.8.3-9.8c.1 0 .3 4.4.3 9.8s-.1 9.8-.3 9.8Zm2.2 0c-.1 0-.3-4.4-.3-9.8s.1-9.8.3-9.8c.1 0 .3 4.4.3 9.8-.1 5.4-.2 9.8-.3 9.8Zm2.1 0c-.1 0-.3-4.4-.3-9.8s.1-9.8.3-9.8c.1 0 .3 4.4.3 9.8s-.1 9.8-.3 9.8Zm2.2 0c-.1 0-.3-4.4-.3-9.8s.1-9.8.3-9.8c.1 0 .3 4.4.3 9.8s-.2 9.8-.3 9.8Zm2.1 0c-.1 0-.3-4.4-.3-9.8s.1-9.8.3-9.8c.2 0 .3 4.4.3 9.8s-.1 9.8-.3 9.8Zm2.2 0c-.1 0-.3-4.4-.3-9.8s.1-9.8.3-9.8c.2 0 .3 4.4.3 9.8s-.2 9.8-.3 9.8Zm2.1 0c-.1 0-.3-4.4-.3-9.8s.1-9.8.3-9.8c.1 0 .3 4.4.3 9.8s-.1 9.8-.3 9.8Zm2.2 0c-.1 0-.3-4.4-.3-9.8s.1-9.8.3-9.8c.2 0 .3 4.4.3 9.8s-.2 9.8-.3 9.8Zm6 0c-.1 0-.3-4.4-.3-9.8s.1-9.8.3-9.8c.2 0 .3 4.4.3 9.8-.1 5.4-.2 9.8-.3 9.8Zm2.2 0c-.1 0-.3-4.4-.3-9.8s.1-9.8.3-9.8c.1 0 .3 4.4.3 9.8-.1 5.4-.2 9.8-.3 9.8Zm2.2 0c-.1 0-.3-4.4-.3-9.8s.1-9.8.3-9.8c.1 0 .3 4.4.3 9.8s-.2 9.8-.3 9.8Zm2.2 0c-.1 0-.3-4.4-.3-9.8s.1-9.8.3-9.8c.2 0 .3 4.4.3 9.8s-.2 9.8-.3 9.8Zm2.2 0c-.1 0-.3-4.4-.3-9.8s.1-9.8.3-9.8c.1 0 .3 4.4.3 9.8s-.1 9.8-.3 9.8Zm2.2 0c-.1 0-.3-4.4-.3-9.8s.1-9.8.3-9.8c.1 0 .3 4.4.3 9.8s-.1 9.8-.3 9.8Zm2.3 0c-.1 0-.3-4.4-.3-9.8s.1-9.8.3-9.8c.2 0 .3 4.4.3 9.8-.1 5.4-.2 9.8-.3 9.8Zm2.2 0c-.1 0-.3-4.4-.3-9.8s.1-9.8.3-9.8c.1 0 .3 4.4.3 9.8-.1 5.4-.2 9.8-.3 9.8Zm2.2 0c-.1 0-.3-4.4-.3-9.8s.1-9.8.3-9.8c.1 0 .3 4.4.3 9.8-.1 5.4-.2 9.8-.3 9.8Zm2.2 0c-.1 0-.3-4.4-.3-9.8s.1-9.8.3-9.8c.2 0 .3 4.4.3 9.8s-.2 9.8-.3 9.8Z" fill="#263238"/><path d="M123 332.8H47.6v21.9H123v-21.9Z" fill="#455A64"/><path opacity=".3" d="M123 332.8H96v21.9h27v-21.9Z" fill="#000"/><path d="M94.9 353.8v-5.4c0-3.4-.1-8.3-.1-14.4l.2.2c-12 0-28.4 0-46.6.1l.3-.3v19.7l-.2-.2c13.5 0 25.1.1 33.3.1 4.1 0 7.4.1 9.7.1h3.3l.1.1h-3.5c-2.3 0-5.5 0-9.6.1-8.3 0-20 .1-33.5.1h-.2v-19.9l.3-.3c18.1 0 34.6.1 46.6.1h.2v.2c0 6.1-.1 11.1-.1 14.5v4.9c-.1.2-.1.3-.2.3Zm26.8 0v-1.5c0-1 0-2.3-.1-4 0-3.5-.1-8.4-.1-14.3l.2.2H97.2l.3-.3v19.7l-.2-.2c7.2 0 13.3.1 17.7.1 2.1 0 3.8 0 5 .1h1.3c.2.2.4.2.4.2H120c-1.2 0-2.9 0-5 .1-4.4 0-10.5.1-17.8.1H97v-19.9l.3-.3H122v.2c0 6-.1 10.9-.1 14.4 0 1.7 0 3-.1 4v1c-.1.3-.1.4-.1.4Z" fill="#263238"/><path d="M50.2 353.6c-.1 0-.3-4.4-.3-9.8s.1-9.8.3-9.8c.1 0 .3 4.4.3 9.8s-.2 9.8-.3 9.8Zm2.1 0c-.1 0-.3-4.4-.3-9.8s.1-9.8.3-9.8c.2 0 .3 4.4.3 9.8s-.1 9.8-.3 9.8Zm2.2 0c-.1 0-.3-4.4-.3-9.8s.1-9.8.3-9.8c.2 0 .3 4.4.3 9.8s-.2 9.8-.3 9.8Zm2.2 0c-.1 0-.3-4.4-.3-9.8s.1-9.8.3-9.8c.1 0 .3 4.4.3 9.8-.1 5.4-.2 9.8-.3 9.8Zm2.1 0c-.1 0-.3-4.4-.3-9.8s.1-9.8.3-9.8c.1 0 .3 4.4.3 9.8s-.2 9.8-.3 9.8Zm2.2 0c-.1 0-.3-4.4-.3-9.8s.1-9.8.3-9.8c.1 0 .3 4.4.3 9.8-.1 5.4-.2 9.8-.3 9.8Zm2.1 0c-.1 0-.3-4.4-.3-9.8s.1-9.8.3-9.8c.1 0 .3 4.4.3 9.8s-.2 9.8-.3 9.8Zm2.2 0c-.1 0-.3-4.4-.3-9.8s.1-9.8.3-9.8c.1 0 .3 4.4.3 9.8-.1 5.4-.2 9.8-.3 9.8Zm2.1 0c-.1 0-.3-4.4-.3-9.8s.1-9.8.3-9.8c.1 0 .3 4.4.3 9.8s-.2 9.8-.3 9.8Zm2.2 0c-.1 0-.3-4.4-.3-9.8s.1-9.8.3-9.8c.1 0 .3 4.4.3 9.8-.1 5.4-.2 9.8-.3 9.8Zm2.1 0c-.1 0-.3-4.4-.3-9.8s.1-9.8.3-9.8c.1 0 .3 4.4.3 9.8s-.2 9.8-.3 9.8Zm2.2 0c-.1 0-.3-4.4-.3-9.8s.1-9.8.3-9.8c.1 0 .3 4.4.3 9.8-.1 5.4-.2 9.8-.3 9.8Zm2.1 0c-.1 0-.3-4.4-.3-9.8s.1-9.8.3-9.8c.1 0 .3 4.4.3 9.8s-.2 9.8-.3 9.8Zm2.2 0c-.1 0-.3-4.4-.3-9.8s.1-9.8.3-9.8c.1 0 .3 4.4.3 9.8-.1 5.4-.2 9.8-.3 9.8Zm2.1 0c-.1 0-.3-4.4-.3-9.8s.1-9.8.3-9.8c.1 0 .3 4.4.3 9.8s-.1 9.8-.3 9.8Zm2.2 0c-.1 0-.3-4.4-.3-9.8s.1-9.8.3-9.8c.1 0 .3 4.4.3 9.8-.1 5.4-.2 9.8-.3 9.8Zm2.1 0c-.1 0-.3-4.4-.3-9.8s.1-9.8.3-9.8c.1 0 .3 4.4.3 9.8s-.1 9.8-.3 9.8Zm2.2 0c-.1 0-.3-4.4-.3-9.8s.1-9.8.3-9.8c.1 0 .3 4.4.3 9.8-.1 5.4-.2 9.8-.3 9.8Zm2.1 0c-.1 0-.3-4.4-.3-9.8s.1-9.8.3-9.8c.1 0 .3 4.4.3 9.8s-.1 9.8-.3 9.8Zm2.2 0c-.1 0-.3-4.4-.3-9.8s.1-9.8.3-9.8c.1 0 .3 4.4.3 9.8-.1 5.4-.2 9.8-.3 9.8Zm2.1 0c-.1 0-.3-4.4-.3-9.8s.1-9.8.3-9.8c.1 0 .3 4.4.3 9.8s-.1 9.8-.3 9.8Zm6 0c-.1 0-.3-4.4-.3-9.8s.1-9.8.3-9.8c.1 0 .3 4.4.3 9.8-.1 5.4-.2 9.8-.3 9.8Zm2.2 0c-.1 0-.3-4.4-.3-9.8s.1-9.8.3-9.8c.1 0 .3 4.4.3 9.8s-.2 9.8-.3 9.8Zm2.2 0c-.1 0-.3-4.4-.3-9.8s.1-9.8.3-9.8c.2 0 .3 4.4.3 9.8s-.1 9.8-.3 9.8Zm2.2 0c-.1 0-.3-4.4-.3-9.8s.1-9.8.3-9.8c.1 0 .3 4.4.3 9.8s-.1 9.8-.3 9.8Zm2.2 0c-.1 0-.3-4.4-.3-9.8s.1-9.8.3-9.8c.1 0 .3 4.4.3 9.8s-.1 9.8-.3 9.8Zm2.3 0c-.1 0-.3-4.4-.3-9.8s.1-9.8.3-9.8c.2 0 .3 4.4.3 9.8-.1 5.4-.2 9.8-.3 9.8Zm2.2 0c-.1 0-.3-4.4-.3-9.8s.1-9.8.3-9.8c.1 0 .3 4.4.3 9.8-.1 5.4-.2 9.8-.3 9.8Zm2.2 0c-.1 0-.3-4.4-.3-9.8s.1-9.8.3-9.8c.1 0 .3 4.4.3 9.8-.1 5.4-.2 9.8-.3 9.8Zm2.2 0c-.1 0-.3-4.4-.3-9.8s.1-9.8.3-9.8c.1 0 .3 4.4.3 9.8s-.2 9.8-.3 9.8Zm2.2 0c-.1 0-.3-4.4-.3-9.8s.1-9.8.3-9.8c.1 0 .3 4.4.3 9.8s-.1 9.8-.3 9.8Z" fill="#263238"/><path d="M158.9 307.9v-13.2h12.5v12.4l-12.5.8Z" fill="#E0E0E0"/><path d="M236.3 294.7h-64.9v12.4h64.9v-12.4Z" fill="#F5F5F5"/><path d="M435 331.7h-75.4v21.9H435v-21.9Z" fill="#E0E0E0"/><path opacity=".3" d="M435.1 331.7h-27v21.9h27v-21.9Z" fill="#000"/><path d="M407 352.7v-5.4c0-3.4-.1-8.3-.1-14.4l.2.2c-12 0-28.4 0-46.6.1l.3-.3v19.7l-.2-.2c13.5 0 25.1.1 33.3.1 4.1 0 7.4.1 9.7.1h3.3c0 .1.1.1.1.1h-3.5c-2.3 0-5.5 0-9.6.1-8.3 0-20 .1-33.5.1h-.2V333l.3-.3c18.1 0 34.6.1 46.6.1h.2v.2c0 6.1-.1 11.1-.1 14.5v4.9c-.2.2-.2.4-.2.3Zm26.7 0v-1.5c0-1 0-2.3-.1-4 0-3.5-.1-8.4-.1-14.3l.2.2h-24.5l.3-.3v19.7l-.2-.2c7.2 0 13.3.1 17.7.1 2.1 0 3.8 0 5 .1h1.3c.3.2.4.2.4.2H432c-1.2 0-2.9 0-5 .1-4.4 0-10.5.1-17.8.1h-.2V333l.3-.3H434v.2c0 6-.1 10.9-.1 14.4 0 1.7 0 3-.1 4v1c-.1.3-.1.5-.1.4Z" fill="#263238"/><path d="M362.2 352.6c-.1 0-.3-4.4-.3-9.8s.1-9.8.3-9.8c.1 0 .3 4.4.3 9.8s-.1 9.8-.3 9.8Zm2.2 0c-.1 0-.3-4.4-.3-9.8s.1-9.8.3-9.8c.1 0 .3 4.4.3 9.8-.1 5.4-.2 9.8-.3 9.8Zm2.1 0c-.1 0-.3-4.4-.3-9.8s.1-9.8.3-9.8c.1 0 .3 4.4.3 9.8s-.1 9.8-.3 9.8Zm2.2 0c-.1 0-.3-4.4-.3-9.8s.1-9.8.3-9.8c.1 0 .3 4.4.3 9.8-.1 5.4-.2 9.8-.3 9.8Zm2.1 0c-.1 0-.3-4.4-.3-9.8s.1-9.8.3-9.8c.1 0 .3 4.4.3 9.8s-.1 9.8-.3 9.8Zm2.2 0c-.1 0-.3-4.4-.3-9.8s.1-9.8.3-9.8c.1 0 .3 4.4.3 9.8-.1 5.4-.2 9.8-.3 9.8Zm2.1 0c-.1 0-.3-4.4-.3-9.8s.1-9.8.3-9.8c.1 0 .3 4.4.3 9.8s-.1 9.8-.3 9.8Zm2.2 0c-.1 0-.3-4.4-.3-9.8s.1-9.8.3-9.8c.2 0 .3 4.4.3 9.8-.1 5.4-.2 9.8-.3 9.8Zm2.1 0c-.1 0-.3-4.4-.3-9.8s.1-9.8.3-9.8c.2 0 .3 4.4.3 9.8s-.1 9.8-.3 9.8Zm2.2 0c-.1 0-.3-4.4-.3-9.8s.1-9.8.3-9.8c.2 0 .3 4.4.3 9.8-.1 5.4-.2 9.8-.3 9.8Zm2.1 0c-.1 0-.3-4.4-.3-9.8s.1-9.8.3-9.8c.2 0 .3 4.4.3 9.8s-.1 9.8-.3 9.8Zm2.2 0c-.1 0-.3-4.4-.3-9.8s.1-9.8.3-9.8c.2 0 .3 4.4.3 9.8-.1 5.4-.2 9.8-.3 9.8Zm2.1 0c-.1 0-.3-4.4-.3-9.8s.1-9.8.3-9.8c.1 0 .3 4.4.3 9.8s-.1 9.8-.3 9.8Zm2.2 0c-.1 0-.3-4.4-.3-9.8s.1-9.8.3-9.8c.1 0 .3 4.4.3 9.8-.1 5.4-.2 9.8-.3 9.8Zm2.1 0c-.1 0-.3-4.4-.3-9.8s.1-9.8.3-9.8c.1 0 .3 4.4.3 9.8s-.1 9.8-.3 9.8Zm2.2 0c-.1 0-.3-4.4-.3-9.8s.1-9.8.3-9.8c.1 0 .3 4.4.3 9.8-.1 5.4-.2 9.8-.3 9.8Zm2.1 0c-.1 0-.3-4.4-.3-9.8s.1-9.8.3-9.8c.1 0 .3 4.4.3 9.8s-.1 9.8-.3 9.8Zm2.2 0c-.1 0-.3-4.4-.3-9.8s.1-9.8.3-9.8c.1 0 .3 4.4.3 9.8-.1 5.4-.2 9.8-.3 9.8Zm2.1 0c-.1 0-.3-4.4-.3-9.8s.1-9.8.3-9.8c.1 0 .3 4.4.3 9.8s-.1 9.8-.3 9.8Zm2.2 0c-.1 0-.3-4.4-.3-9.8s.1-9.8.3-9.8c.1 0 .3 4.4.3 9.8-.1 5.4-.2 9.8-.3 9.8Zm2.1 0c-.1 0-.3-4.4-.3-9.8s.1-9.8.3-9.8c.1 0 .3 4.4.3 9.8s-.1 9.8-.3 9.8Zm6 0c-.1 0-.3-4.4-.3-9.8s.1-9.8.3-9.8c.2 0 .3 4.4.3 9.8s-.2 9.8-.3 9.8Zm2.2 0c-.1 0-.3-4.4-.3-9.8s.1-9.8.3-9.8c.1 0 .3 4.4.3 9.8s-.1 9.8-.3 9.8Zm2.2 0c-.1 0-.3-4.4-.3-9.8s.1-9.8.3-9.8c.2 0 .3 4.4.3 9.8s-.1 9.8-.3 9.8Zm2.2 0c-.1 0-.3-4.4-.3-9.8s.1-9.8.3-9.8c.2 0 .3 4.4.3 9.8s-.1 9.8-.3 9.8Zm2.3 0c-.1 0-.3-4.4-.3-9.8s.1-9.8.3-9.8c.1 0 .3 4.4.3 9.8-.1 5.4-.2 9.8-.3 9.8Zm2.2 0c-.1 0-.3-4.4-.3-9.8s.1-9.8.3-9.8c.2 0 .3 4.4.3 9.8-.1 5.4-.2 9.8-.3 9.8Zm2.2 0c-.1 0-.3-4.4-.3-9.8s.1-9.8.3-9.8c.1 0 .3 4.4.3 9.8-.1 5.4-.2 9.8-.3 9.8Zm2.2 0c-.1 0-.3-4.4-.3-9.8s.1-9.8.3-9.8c.1 0 .3 4.4.3 9.8s-.2 9.8-.3 9.8Zm2.2 0c-.1 0-.3-4.4-.3-9.8s.1-9.8.3-9.8c.2 0 .3 4.4.3 9.8s-.1 9.8-.3 9.8Zm2.2 0c-.1 0-.3-4.4-.3-9.8s.1-9.8.3-9.8c.1 0 .3 4.4.3 9.8s-.1 9.8-.3 9.8Z" fill="#263238"/><path d="M295 354.6h-75.4v21.9H295v-21.9Z" fill="#455A64"/><path opacity=".3" d="M295 354.6h-27v21.9h27v-21.9Z" fill="#000"/><path d="M267 375.6v-5.4c0-3.4-.1-8.3-.1-14.4l.2.2c-12 0-28.4 0-46.6.1l.3-.3v19.7l-.2-.2c13.5 0 25.1.1 33.3.1 4.1 0 7.4.1 9.7.1h3.3c0 .1 0 .1.1.1h-3.5c-2.3 0-5.5 0-9.6.1-8.3 0-20 .1-33.5.1h-.2v-19.9l.3-.3c18.1 0 34.6.1 46.6.1h.2v.2c0 6.1-.1 11.1-.1 14.5v4.9c-.2.2-.2.3-.2.3Zm26.7 0v-1.5c0-1 0-2.3-.1-4 0-3.5-.1-8.4-.1-14.3l.2.2h-24.5l.3-.3v19.7l-.2-.2c7.2 0 13.3.1 17.7.1 2.1 0 3.8 0 5 .1h1.3c.2.2.4.2.4.2H292c-1.2 0-2.9 0-5 .1-4.4 0-10.5.1-17.8.1h-.2v-19.9l.3-.3H294v.2c0 6-.1 10.9-.1 14.4 0 1.7 0 3-.1 4v1c-.1.3-.1.4-.1.4Z" fill="#263238"/><path d="M222.2 375.4c-.1 0-.3-4.4-.3-9.8s.1-9.8.3-9.8c.2 0 .3 4.4.3 9.8s-.1 9.8-.3 9.8Zm2.2 0c-.1 0-.3-4.4-.3-9.8s.1-9.8.3-9.8c.2 0 .3 4.4.3 9.8-.1 5.4-.2 9.8-.3 9.8Zm2.1 0c-.1 0-.3-4.4-.3-9.8s.1-9.8.3-9.8c.2 0 .3 4.4.3 9.8s-.1 9.8-.3 9.8Zm2.2 0c-.1 0-.3-4.4-.3-9.8s.1-9.8.3-9.8c.1 0 .3 4.4.3 9.8-.1 5.4-.2 9.8-.3 9.8Zm2.1 0c-.1 0-.3-4.4-.3-9.8s.1-9.8.3-9.8c.2 0 .3 4.4.3 9.8s-.1 9.8-.3 9.8Zm2.2 0c-.1 0-.3-4.4-.3-9.8s.1-9.8.3-9.8c.2 0 .3 4.4.3 9.8-.1 5.4-.2 9.8-.3 9.8Zm2.1 0c-.1 0-.3-4.4-.3-9.8s.1-9.8.3-9.8c.1 0 .3 4.4.3 9.8s-.1 9.8-.3 9.8Zm2.2 0c-.1 0-.3-4.4-.3-9.8s.1-9.8.3-9.8c.1 0 .3 4.4.3 9.8-.1 5.4-.2 9.8-.3 9.8Zm2.1 0c-.1 0-.3-4.4-.3-9.8s.1-9.8.3-9.8c.1 0 .3 4.4.3 9.8s-.1 9.8-.3 9.8Zm2.2 0c-.1 0-.3-4.4-.3-9.8s.1-9.8.3-9.8c.1 0 .3 4.4.3 9.8-.1 5.4-.2 9.8-.3 9.8Zm2.1 0c-.1 0-.3-4.4-.3-9.8s.1-9.8.3-9.8c.1 0 .3 4.4.3 9.8s-.1 9.8-.3 9.8Zm2.2 0c-.1 0-.3-4.4-.3-9.8s.1-9.8.3-9.8c.1 0 .3 4.4.3 9.8-.1 5.4-.2 9.8-.3 9.8Zm2.1 0c-.1 0-.3-4.4-.3-9.8s.1-9.8.3-9.8c.1 0 .3 4.4.3 9.8s-.1 9.8-.3 9.8Zm2.2 0c-.1 0-.3-4.4-.3-9.8s.1-9.8.3-9.8c.2 0 .3 4.4.3 9.8-.1 5.4-.2 9.8-.3 9.8Zm2.1 0c-.1 0-.3-4.4-.3-9.8s.1-9.8.3-9.8c.2 0 .3 4.4.3 9.8s-.1 9.8-.3 9.8Zm2.2 0c-.1 0-.3-4.4-.3-9.8s.1-9.8.3-9.8c.2 0 .3 4.4.3 9.8-.1 5.4-.2 9.8-.3 9.8Zm2.1 0c-.1 0-.3-4.4-.3-9.8s.1-9.8.3-9.8c.2 0 .3 4.4.3 9.8s-.1 9.8-.3 9.8Zm2.2 0c-.1 0-.3-4.4-.3-9.8s.1-9.8.3-9.8c.1 0 .3 4.4.3 9.8-.1 5.4-.2 9.8-.3 9.8Zm2.1 0c-.1 0-.3-4.4-.3-9.8s.1-9.8.3-9.8c.2 0 .3 4.4.3 9.8s-.1 9.8-.3 9.8Zm2.2 0c-.1 0-.3-4.4-.3-9.8s.1-9.8.3-9.8c.1 0 .3 4.4.3 9.8-.1 5.4-.2 9.8-.3 9.8Zm2.1 0c-.1 0-.3-4.4-.3-9.8s.1-9.8.3-9.8c.1 0 .3 4.4.3 9.8s-.1 9.8-.3 9.8Zm6 0c-.1 0-.3-4.4-.3-9.8s.1-9.8.3-9.8c.1 0 .3 4.4.3 9.8-.1 5.4-.2 9.8-.3 9.8Zm2.2 0c-.1 0-.3-4.4-.3-9.8s.1-9.8.3-9.8c.2 0 .3 4.4.3 9.8s-.2 9.8-.3 9.8Zm2.2 0c-.1 0-.3-4.4-.3-9.8s.1-9.8.3-9.8c.1 0 .3 4.4.3 9.8s-.1 9.8-.3 9.8Zm2.2 0c-.1 0-.3-4.4-.3-9.8s.1-9.8.3-9.8c.1 0 .3 4.4.3 9.8s-.1 9.8-.3 9.8Zm2.2 0c-.1 0-.3-4.4-.3-9.8s.1-9.8.3-9.8c.1 0 .3 4.4.3 9.8s-.1 9.8-.3 9.8Zm2.3 0c-.1 0-.3-4.4-.3-9.8s.1-9.8.3-9.8c.1 0 .3 4.4.3 9.8-.1 5.4-.2 9.8-.3 9.8Zm2.2 0c-.1 0-.3-4.4-.3-9.8s.1-9.8.3-9.8c.2 0 .3 4.4.3 9.8-.1 5.4-.2 9.8-.3 9.8Zm2.2 0c-.1 0-.3-4.4-.3-9.8s.1-9.8.3-9.8c.2 0 .3 4.4.3 9.8s-.2 9.8-.3 9.8Zm2.2 0c-.1 0-.3-4.4-.3-9.8s.1-9.8.3-9.8c.1 0 .3 4.4.3 9.8s-.2 9.8-.3 9.8Zm2.2 0c-.1 0-.3-4.4-.3-9.8s.1-9.8.3-9.8c.1 0 .3 4.4.3 9.8s-.1 9.8-.3 9.8Z" fill="#263238"/><path d="M387.4 309.5H312v21.9h75.4v-21.9Z" fill="#455A64"/><path opacity=".3" d="M387.4 309.5h-27v21.9h27v-21.9Z" fill="#000"/><path d="M359.4 330.5v-5.4c0-3.4-.1-8.3-.1-14.4l.2.2c-12 0-28.4 0-46.6.1l.3-.3v19.7l-.2-.2c13.5 0 25.1.1 33.3.1 4.1 0 7.4.1 9.7.1h3.3c0 .1 0 .1.1.1h-3.5c-2.3 0-5.5 0-9.6.1-8.3 0-20 .1-33.5.1h-.2v-19.9l.3-.3c18.1 0 34.6.1 46.6.1h.2v.2c0 6.1-.1 11.1-.1 14.5v4.9c-.2.2-.2.3-.2.3Zm26.7 0V329c0-1 0-2.3-.1-4 0-3.5-.1-8.4-.1-14.3l.2.2h-24.5l.3-.3v19.7l-.2-.2c7.2 0 13.3.1 17.7.1 2.1 0 3.8 0 5 .1h1.3c.2.2.4.2.4.2h-1.7c-1.2 0-2.9 0-5 .1-4.4 0-10.5.1-17.8.1h-.2v-19.9l.3-.3h24.7v.2c0 6-.1 10.9-.1 14.4 0 1.7 0 3-.1 4v1c-.1.3-.1.4-.1.4Z" fill="#263238"/><path d="M314.6 330.3c-.1 0-.3-4.4-.3-9.8s.1-9.8.3-9.8c.2 0 .3 4.4.3 9.8s-.2 9.8-.3 9.8Zm2.2 0c-.1 0-.3-4.4-.3-9.8s.1-9.8.3-9.8c.1 0 .3 4.4.3 9.8-.1 5.4-.2 9.8-.3 9.8Zm2.1 0c-.1 0-.3-4.4-.3-9.8s.1-9.8.3-9.8c.1 0 .3 4.4.3 9.8s-.1 9.8-.3 9.8Zm2.2 0c-.1 0-.3-4.4-.3-9.8s.1-9.8.3-9.8c.2 0 .3 4.4.3 9.8-.1 5.4-.2 9.8-.3 9.8Zm2.1 0c-.1 0-.3-4.4-.3-9.8s.1-9.8.3-9.8c.1 0 .3 4.4.3 9.8s-.1 9.8-.3 9.8Zm2.2 0c-.1 0-.3-4.4-.3-9.8s.1-9.8.3-9.8c.1 0 .3 4.4.3 9.8-.1 5.4-.2 9.8-.3 9.8Zm2.1 0c-.1 0-.3-4.4-.3-9.8s.1-9.8.3-9.8c.1 0 .3 4.4.3 9.8s-.1 9.8-.3 9.8Zm2.2 0c-.1 0-.3-4.4-.3-9.8s.1-9.8.3-9.8c.1 0 .3 4.4.3 9.8-.1 5.4-.2 9.8-.3 9.8Zm2.1 0c-.1 0-.3-4.4-.3-9.8s.1-9.8.3-9.8c.2 0 .3 4.4.3 9.8s-.1 9.8-.3 9.8Zm2.2 0c-.1 0-.3-4.4-.3-9.8s.1-9.8.3-9.8c.2 0 .3 4.4.3 9.8-.1 5.4-.2 9.8-.3 9.8Zm2.1 0c-.1 0-.3-4.4-.3-9.8s.1-9.8.3-9.8c.1 0 .3 4.4.3 9.8s-.1 9.8-.3 9.8Zm2.2 0c-.1 0-.3-4.4-.3-9.8s.1-9.8.3-9.8c.2 0 .3 4.4.3 9.8-.1 5.4-.2 9.8-.3 9.8Zm2.1 0c-.1 0-.3-4.4-.3-9.8s.1-9.8.3-9.8c.2 0 .3 4.4.3 9.8s-.1 9.8-.3 9.8Zm2.2 0c-.1 0-.3-4.4-.3-9.8s.1-9.8.3-9.8c.2 0 .3 4.4.3 9.8-.1 5.4-.2 9.8-.3 9.8Zm2.1 0c-.1 0-.3-4.4-.3-9.8s.1-9.8.3-9.8c.1 0 .3 4.4.3 9.8s-.1 9.8-.3 9.8Zm2.2 0c-.1 0-.3-4.4-.3-9.8s.1-9.8.3-9.8c.2 0 .3 4.4.3 9.8-.1 5.4-.2 9.8-.3 9.8Zm2.1 0c-.1 0-.3-4.4-.3-9.8s.1-9.8.3-9.8c.1 0 .3 4.4.3 9.8s-.1 9.8-.3 9.8Zm2.2 0c-.1 0-.3-4.4-.3-9.8s.1-9.8.3-9.8c.1 0 .3 4.4.3 9.8-.1 5.4-.2 9.8-.3 9.8Zm2.1 0c-.1 0-.3-4.4-.3-9.8s.1-9.8.3-9.8c.1 0 .3 4.4.3 9.8s-.1 9.8-.3 9.8Zm2.2 0c-.1 0-.3-4.4-.3-9.8s.1-9.8.3-9.8c.1 0 .3 4.4.3 9.8-.1 5.4-.2 9.8-.3 9.8Zm2.1 0c-.1 0-.3-4.4-.3-9.8s.1-9.8.3-9.8c.1 0 .3 4.4.3 9.8s-.1 9.8-.3 9.8Zm6 0c-.1 0-.3-4.4-.3-9.8s.1-9.8.3-9.8c.1 0 .3 4.4.3 9.8-.1 5.4-.2 9.8-.3 9.8Zm2.2 0c-.1 0-.3-4.4-.3-9.8s.1-9.8.3-9.8c.2 0 .3 4.4.3 9.8s-.2 9.8-.3 9.8Zm2.2 0c-.1 0-.3-4.4-.3-9.8s.1-9.8.3-9.8c.2 0 .3 4.4.3 9.8s-.1 9.8-.3 9.8Zm2.2 0c-.1 0-.3-4.4-.3-9.8s.1-9.8.3-9.8c.1 0 .3 4.4.3 9.8s-.1 9.8-.3 9.8Zm2.2 0c-.1 0-.3-4.4-.3-9.8s.1-9.8.3-9.8c.2 0 .3 4.4.3 9.8s-.1 9.8-.3 9.8Zm2.3 0c-.1 0-.3-4.4-.3-9.8s.1-9.8.3-9.8c.2 0 .3 4.4.3 9.8-.1 5.4-.2 9.8-.3 9.8Zm2.2 0c-.1 0-.3-4.4-.3-9.8s.1-9.8.3-9.8c.1 0 .3 4.4.3 9.8-.1 5.4-.2 9.8-.3 9.8Zm2.2 0c-.1 0-.3-4.4-.3-9.8s.1-9.8.3-9.8c.2 0 .3 4.4.3 9.8-.1 5.4-.2 9.8-.3 9.8Zm2.2 0c-.1 0-.3-4.4-.3-9.8s.1-9.8.3-9.8c.1 0 .3 4.4.3 9.8s-.2 9.8-.3 9.8Zm2.2 0c-.1 0-.3-4.4-.3-9.8s.1-9.8.3-9.8c.1 0 .3 4.4.3 9.8s-.1 9.8-.3 9.8Z" fill="#263238"/><path d="M443.9 354h-75.4v21.9h75.4V354Z" fill="#455A64"/><path opacity=".3" d="M443.9 354h-27v21.9h27V354Z" fill="#000"/><path d="M415.8 375v-5.4c0-3.4-.1-8.3-.1-14.4l.2.2c-12 0-28.4 0-46.6.1l.3-.3v19.7l-.2-.2c13.5 0 25.1.1 33.3.1 4.1 0 7.4.1 9.7.1h3.3c0 .1.1.1.1.1h-3.5c-2.3 0-5.5 0-9.6.1-8.3 0-20 .1-33.5.1h-.2v-19.9l.3-.3c18.1 0 34.6.1 46.6.1h.2v.2c0 6.1-.1 11.1-.1 14.5v4.9c-.2.2-.2.3-.2.3Zm26.8 0v-1.5c0-1 0-2.3-.1-4 0-3.5-.1-8.4-.1-14.3l.2.2h-24.5l.3-.3v19.7l-.2-.2c7.2 0 13.3.1 17.7.1 2.1 0 3.8 0 5 .1h1.3c.2.2.4.2.4.2h-1.7c-1.2 0-2.9 0-5 .1-4.4 0-10.5.1-17.8.1h-.2v-19.9l.3-.3h24.7v.2c0 6-.1 10.9-.1 14.4 0 1.7 0 3-.1 4v1c-.1.3-.1.4-.1.4Z" fill="#263238"/><path d="M371.1 374.8c-.1 0-.3-4.4-.3-9.8s.1-9.8.3-9.8c.2 0 .3 4.4.3 9.8-.1 5.4-.2 9.8-.3 9.8Zm2.1 0c-.1 0-.3-4.4-.3-9.8s.1-9.8.3-9.8c.2 0 .3 4.4.3 9.8s-.1 9.8-.3 9.8Zm2.2 0c-.1 0-.3-4.4-.3-9.8s.1-9.8.3-9.8c.2 0 .3 4.4.3 9.8-.1 5.4-.2 9.8-.3 9.8Zm2.1 0c-.1 0-.3-4.4-.3-9.8s.1-9.8.3-9.8c.2 0 .3 4.4.3 9.8s-.1 9.8-.3 9.8Zm2.2 0c-.1 0-.3-4.4-.3-9.8s.1-9.8.3-9.8c.2 0 .3 4.4.3 9.8-.1 5.4-.2 9.8-.3 9.8Zm2.1 0c-.1 0-.3-4.4-.3-9.8s.1-9.8.3-9.8c.1 0 .3 4.4.3 9.8s-.1 9.8-.3 9.8Zm2.2 0c-.1 0-.3-4.4-.3-9.8s.1-9.8.3-9.8c.1 0 .3 4.4.3 9.8-.1 5.4-.2 9.8-.3 9.8Zm2.1 0c-.1 0-.3-4.4-.3-9.8s.1-9.8.3-9.8c.1 0 .3 4.4.3 9.8s-.1 9.8-.3 9.8Zm2.2 0c-.1 0-.3-4.4-.3-9.8s.1-9.8.3-9.8c.1 0 .3 4.4.3 9.8-.1 5.4-.2 9.8-.3 9.8Zm2.1 0c-.1 0-.3-4.4-.3-9.8s.1-9.8.3-9.8c.1 0 .3 4.4.3 9.8s-.1 9.8-.3 9.8Zm2.2 0c-.1 0-.3-4.4-.3-9.8s.1-9.8.3-9.8c.1 0 .3 4.4.3 9.8-.1 5.4-.2 9.8-.3 9.8Zm2.1 0c-.1 0-.3-4.4-.3-9.8s.1-9.8.3-9.8c.1 0 .3 4.4.3 9.8s-.1 9.8-.3 9.8Zm2.2 0c-.1 0-.3-4.4-.3-9.8s.1-9.8.3-9.8c.2 0 .3 4.4.3 9.8-.1 5.4-.2 9.8-.3 9.8Zm2.1 0c-.1 0-.3-4.4-.3-9.8s.1-9.8.3-9.8c.2 0 .3 4.4.3 9.8s-.1 9.8-.3 9.8Zm2.2 0c-.1 0-.3-4.4-.3-9.8s.1-9.8.3-9.8c.2 0 .3 4.4.3 9.8-.1 5.4-.2 9.8-.3 9.8Zm2.1 0c-.1 0-.3-4.4-.3-9.8s.1-9.8.3-9.8c.2 0 .3 4.4.3 9.8s-.1 9.8-.3 9.8Zm2.2 0c-.1 0-.3-4.4-.3-9.8s.1-9.8.3-9.8c.2 0 .3 4.4.3 9.8-.1 5.4-.2 9.8-.3 9.8Zm2.1 0c-.1 0-.3-4.4-.3-9.8s.1-9.8.3-9.8c.1 0 .3 4.4.3 9.8s-.1 9.8-.3 9.8Zm2.2 0c-.1 0-.3-4.4-.3-9.8s.1-9.8.3-9.8c.1 0 .3 4.4.3 9.8-.1 5.4-.2 9.8-.3 9.8Zm2.1 0c-.1 0-.3-4.4-.3-9.8s.1-9.8.3-9.8c.1 0 .3 4.4.3 9.8s-.1 9.8-.3 9.8Zm2.2 0c-.1 0-.3-4.4-.3-9.8s.1-9.8.3-9.8c.1 0 .3 4.4.3 9.8-.1 5.4-.2 9.8-.3 9.8Zm6 0c-.1 0-.3-4.4-.3-9.8s.1-9.8.3-9.8c.1 0 .3 4.4.3 9.8-.1 5.4-.2 9.8-.3 9.8Zm2.2 0c-.1 0-.3-4.4-.3-9.8s.1-9.8.3-9.8c.2 0 .3 4.4.3 9.8-.1 5.4-.2 9.8-.3 9.8Zm2.2 0c-.1 0-.3-4.4-.3-9.8s.1-9.8.3-9.8c.1 0 .3 4.4.3 9.8-.1 5.4-.2 9.8-.3 9.8Zm2.2 0c-.1 0-.3-4.4-.3-9.8s.1-9.8.3-9.8c.1 0 .3 4.4.3 9.8s-.2 9.8-.3 9.8Zm2.2 0c-.1 0-.3-4.4-.3-9.8s.1-9.8.3-9.8c.2 0 .3 4.4.3 9.8s-.1 9.8-.3 9.8Zm2.2 0c-.1 0-.3-4.4-.3-9.8s.1-9.8.3-9.8c.1 0 .3 4.4.3 9.8s-.1 9.8-.3 9.8Zm2.2 0c-.1 0-.3-4.4-.3-9.8s.1-9.8.3-9.8c.2 0 .3 4.4.3 9.8s-.1 9.8-.3 9.8Zm2.3 0c-.1 0-.3-4.4-.3-9.8s.1-9.8.3-9.8c.2 0 .3 4.4.3 9.8-.1 5.4-.2 9.8-.3 9.8Zm2.2 0c-.1 0-.3-4.4-.3-9.8s.1-9.8.3-9.8c.1 0 .3 4.4.3 9.8-.1 5.4-.2 9.8-.3 9.8Zm2.2 0c-.1 0-.3-4.4-.3-9.8s.1-9.8.3-9.8c.2 0 .3 4.4.3 9.8s-.2 9.8-.3 9.8Z" fill="#263238"/><path d="M288.1 310.6h-75.4v21.9h75.4v-21.9Z" fill="#FF725E"/><path opacity=".3" d="M288.1 310.6h-27v21.9h27v-21.9Z" fill="#000"/><path d="M260 331.7v-5.4c0-3.4-.1-8.3-.1-14.4l.2.2c-12 0-28.4 0-46.6.1l.3-.3v19.7l-.2-.2c13.5 0 25.1.1 33.3.1 4.1 0 7.4.1 9.7.1h3.3s.1 0 .1.1h-3.5c-2.3 0-5.5 0-9.6.1-8.3 0-20 .1-33.5.1h-.2V312l.3-.3c18.1 0 34.6.1 46.6.1h.2v.2c0 6.1-.1 11.1-.1 14.5v4.9c-.2.1-.2.3-.2.3Zm26.7 0v-1.5c0-1 0-2.3-.1-4 0-3.5-.1-8.4-.1-14.3l.2.2h-24.5l.3-.3v19.7l-.2-.2c7.2 0 13.3.1 17.7.1 2.1 0 3.8 0 5 .1h1.3c.3.1.4.1.4.2H285c-1.2 0-2.9 0-5 .1-4.4 0-10.5.1-17.8.1h-.2V312l.3-.3H287v.2c0 6-.1 10.9-.1 14.4 0 1.7 0 3-.1 4v1c0 .2 0 .4-.1.4Z" fill="#263238"/><path d="M215.2 331.5c-.1 0-.3-4.4-.3-9.8s.1-9.8.3-9.8c.1 0 .3 4.4.3 9.8s-.1 9.8-.3 9.8Zm2.2 0c-.1 0-.3-4.4-.3-9.8s.1-9.8.3-9.8c.1 0 .3 4.4.3 9.8-.1 5.4-.2 9.8-.3 9.8Zm2.1 0c-.1 0-.3-4.4-.3-9.8s.1-9.8.3-9.8c.1 0 .3 4.4.3 9.8s-.1 9.8-.3 9.8Zm2.2 0c-.1 0-.3-4.4-.3-9.8s.1-9.8.3-9.8c.1 0 .3 4.4.3 9.8-.1 5.4-.2 9.8-.3 9.8Zm2.1 0c-.1 0-.3-4.4-.3-9.8s.1-9.8.3-9.8c.1 0 .3 4.4.3 9.8s-.1 9.8-.3 9.8Zm2.2 0c-.1 0-.3-4.4-.3-9.8s.1-9.8.3-9.8c.1 0 .3 4.4.3 9.8-.1 5.4-.2 9.8-.3 9.8Zm2.1 0c-.1 0-.3-4.4-.3-9.8s.1-9.8.3-9.8c.2 0 .3 4.4.3 9.8s-.1 9.8-.3 9.8Zm2.2 0c-.1 0-.3-4.4-.3-9.8s.1-9.8.3-9.8c.2 0 .3 4.4.3 9.8s-.2 9.8-.3 9.8Zm2.1 0c-.1 0-.3-4.4-.3-9.8s.1-9.8.3-9.8c.2 0 .3 4.4.3 9.8s-.1 9.8-.3 9.8Zm2.2 0c-.1 0-.3-4.4-.3-9.8s.1-9.8.3-9.8c.2 0 .3 4.4.3 9.8s-.2 9.8-.3 9.8Zm2.1 0c-.1 0-.3-4.4-.3-9.8s.1-9.8.3-9.8c.1 0 .3 4.4.3 9.8s-.1 9.8-.3 9.8Zm2.2 0c-.1 0-.3-4.4-.3-9.8s.1-9.8.3-9.8c.2 0 .3 4.4.3 9.8s-.2 9.8-.3 9.8Zm2.1 0c-.1 0-.3-4.4-.3-9.8s.1-9.8.3-9.8c.2 0 .3 4.4.3 9.8s-.1 9.8-.3 9.8Zm2.2 0c-.1 0-.3-4.4-.3-9.8s.1-9.8.3-9.8c.1 0 .3 4.4.3 9.8s-.2 9.8-.3 9.8Zm2.1 0c-.1 0-.3-4.4-.3-9.8s.1-9.8.3-9.8c.1 0 .3 4.4.3 9.8s-.1 9.8-.3 9.8Zm2.2 0c-.1 0-.3-4.4-.3-9.8s.1-9.8.3-9.8c.1 0 .3 4.4.3 9.8s-.2 9.8-.3 9.8Zm2.1 0c-.1 0-.3-4.4-.3-9.8s.1-9.8.3-9.8c.1 0 .3 4.4.3 9.8s-.1 9.8-.3 9.8Zm2.2 0c-.1 0-.3-4.4-.3-9.8s.1-9.8.3-9.8c.1 0 .3 4.4.3 9.8s-.2 9.8-.3 9.8Zm2.1 0c-.1 0-.3-4.4-.3-9.8s.1-9.8.3-9.8c.1 0 .3 4.4.3 9.8s-.1 9.8-.3 9.8Zm2.2 0c-.1 0-.3-4.4-.3-9.8s.1-9.8.3-9.8c.1 0 .3 4.4.3 9.8s-.2 9.8-.3 9.8Zm2.1 0c-.1 0-.3-4.4-.3-9.8s.1-9.8.3-9.8c.1 0 .3 4.4.3 9.8s-.1 9.8-.3 9.8Zm6 0c-.1 0-.3-4.4-.3-9.8s.1-9.8.3-9.8c.2 0 .3 4.4.3 9.8s-.1 9.8-.3 9.8Zm2.2 0c-.1 0-.3-4.4-.3-9.8s.1-9.8.3-9.8c.1 0 .3 4.4.3 9.8s-.1 9.8-.3 9.8Zm2.2 0c-.1 0-.3-4.4-.3-9.8s.1-9.8.3-9.8c.2 0 .3 4.4.3 9.8s-.1 9.8-.3 9.8Zm2.3 0c-.1 0-.3-4.4-.3-9.8s.1-9.8.3-9.8c.1 0 .3 4.4.3 9.8-.1 5.4-.2 9.8-.3 9.8Zm2.2 0c-.1 0-.3-4.4-.3-9.8s.1-9.8.3-9.8c.1 0 .3 4.4.3 9.8-.1 5.4-.2 9.8-.3 9.8Zm2.2 0c-.1 0-.3-4.4-.3-9.8s.1-9.8.3-9.8c.2 0 .3 4.4.3 9.8-.1 5.4-.2 9.8-.3 9.8Zm2.2 0c-.1 0-.3-4.4-.3-9.8s.1-9.8.3-9.8c.1 0 .3 4.4.3 9.8s-.2 9.8-.3 9.8Zm2.2 0c-.1 0-.3-4.4-.3-9.8s.1-9.8.3-9.8c.1 0 .3 4.4.3 9.8s-.1 9.8-.3 9.8Zm2.2 0c-.1 0-.3-4.4-.3-9.8s.1-9.8.3-9.8c.2 0 .3 4.4.3 9.8s-.1 9.8-.3 9.8Zm2.2 0c-.1 0-.3-4.4-.3-9.8s.1-9.8.3-9.8c.1 0 .3 4.4.3 9.8s-.1 9.8-.3 9.8Z" fill="#263238"/><path d="M374.3 331.9h-75.4v21.9h75.4v-21.9Z" fill="#FF725E"/><path opacity=".3" d="M374.4 331.9h-27v21.9h27v-21.9Z" fill="#000"/><path d="M346.3 352.9v-5.4c0-3.4-.1-8.3-.1-14.4l.2.2c-12 0-28.4 0-46.6.1l.3-.3v19.7l-.2-.2c13.5 0 25.1.1 33.3.1 4.1 0 7.4.1 9.7.1h3.3c0 .1.1.1.1.1h-3.5c-2.3 0-5.5 0-9.6.1-8.3 0-20 .1-33.5.1h-.2v-19.9l.3-.3c18.1 0 34.6.1 46.6.1h.2v.2c0 6.1-.1 11.1-.1 14.5v4.9c-.2.2-.2.3-.2.3Zm26.7 0v-1.5c0-1 0-2.3-.1-4 0-3.5-.1-8.4-.1-14.3l.2.2h-24.5l.3-.3v19.7l-.2-.2c7.2 0 13.3.1 17.7.1 2.1 0 3.8 0 5 .1h1.3c.2.2.4.2.4.2h-1.7c-1.2 0-2.9 0-5 .1-4.4 0-10.5.1-17.8.1h-.2v-19.9l.3-.3h24.7v.2c0 6-.1 10.9-.1 14.4 0 1.7 0 3-.1 4v1c-.1.3-.1.4-.1.4Z" fill="#263238"/><path d="M301.5 352.7c-.1 0-.3-4.4-.3-9.8s.1-9.8.3-9.8c.2 0 .3 4.4.3 9.8s-.1 9.8-.3 9.8Zm2.2 0c-.1 0-.3-4.4-.3-9.8s.1-9.8.3-9.8c.1 0 .3 4.4.3 9.8-.1 5.4-.2 9.8-.3 9.8Zm2.1 0c-.1 0-.3-4.4-.3-9.8s.1-9.8.3-9.8c.2 0 .3 4.4.3 9.8s-.1 9.8-.3 9.8Zm2.2 0c-.1 0-.3-4.4-.3-9.8s.1-9.8.3-9.8c.2 0 .3 4.4.3 9.8-.1 5.4-.2 9.8-.3 9.8Zm2.1 0c-.1 0-.3-4.4-.3-9.8s.1-9.8.3-9.8c.2 0 .3 4.4.3 9.8s-.1 9.8-.3 9.8Zm2.2 0c-.1 0-.3-4.4-.3-9.8s.1-9.8.3-9.8c.1 0 .3 4.4.3 9.8-.1 5.4-.2 9.8-.3 9.8Zm2.1 0c-.1 0-.3-4.4-.3-9.8s.1-9.8.3-9.8c.1 0 .3 4.4.3 9.8s-.1 9.8-.3 9.8Zm2.2 0c-.1 0-.3-4.4-.3-9.8s.1-9.8.3-9.8c.1 0 .3 4.4.3 9.8-.1 5.4-.2 9.8-.3 9.8Zm2.1 0c-.1 0-.3-4.4-.3-9.8s.1-9.8.3-9.8c.1 0 .3 4.4.3 9.8s-.1 9.8-.3 9.8Zm2.2 0c-.1 0-.3-4.4-.3-9.8s.1-9.8.3-9.8c.1 0 .3 4.4.3 9.8-.1 5.4-.2 9.8-.3 9.8Zm2.1 0c-.1 0-.3-4.4-.3-9.8s.1-9.8.3-9.8c.1 0 .3 4.4.3 9.8s-.1 9.8-.3 9.8Zm2.2 0c-.1 0-.3-4.4-.3-9.8s.1-9.8.3-9.8c.1 0 .3 4.4.3 9.8-.1 5.4-.2 9.8-.3 9.8Zm2.1 0c-.1 0-.3-4.4-.3-9.8s.1-9.8.3-9.8c.2 0 .3 4.4.3 9.8s-.1 9.8-.3 9.8Zm2.2 0c-.1 0-.3-4.4-.3-9.8s.1-9.8.3-9.8c.2 0 .3 4.4.3 9.8-.1 5.4-.2 9.8-.3 9.8Zm2.1 0c-.1 0-.3-4.4-.3-9.8s.1-9.8.3-9.8c.2 0 .3 4.4.3 9.8s-.1 9.8-.3 9.8Zm2.2 0c-.1 0-.3-4.4-.3-9.8s.1-9.8.3-9.8c.2 0 .3 4.4.3 9.8-.1 5.4-.2 9.8-.3 9.8Zm2.1 0c-.1 0-.3-4.4-.3-9.8s.1-9.8.3-9.8c.1 0 .3 4.4.3 9.8s-.1 9.8-.3 9.8Zm2.2 0c-.1 0-.3-4.4-.3-9.8s.1-9.8.3-9.8c.2 0 .3 4.4.3 9.8-.1 5.4-.2 9.8-.3 9.8Zm2.1 0c-.1 0-.3-4.4-.3-9.8s.1-9.8.3-9.8c.2 0 .3 4.4.3 9.8s-.1 9.8-.3 9.8Zm2.2 0c-.1 0-.3-4.4-.3-9.8s.1-9.8.3-9.8c.1 0 .3 4.4.3 9.8-.1 5.4-.2 9.8-.3 9.8Zm2.1 0c-.1 0-.3-4.4-.3-9.8s.1-9.8.3-9.8c.1 0 .3 4.4.3 9.8s-.1 9.8-.3 9.8Zm6 0c-.1 0-.3-4.4-.3-9.8s.1-9.8.3-9.8c.1 0 .3 4.4.3 9.8-.1 5.4-.2 9.8-.3 9.8Zm2.2 0c-.1 0-.3-4.4-.3-9.8s.1-9.8.3-9.8c.2 0 .3 4.4.3 9.8s-.2 9.8-.3 9.8Zm2.2 0c-.1 0-.3-4.4-.3-9.8s.1-9.8.3-9.8c.1 0 .3 4.4.3 9.8s-.1 9.8-.3 9.8Zm2.2 0c-.1 0-.3-4.4-.3-9.8s.1-9.8.3-9.8c.1 0 .3 4.4.3 9.8s-.1 9.8-.3 9.8Zm2.2 0c-.1 0-.3-4.4-.3-9.8s.1-9.8.3-9.8c.2 0 .3 4.4.3 9.8s-.1 9.8-.3 9.8Zm2.3 0c-.1 0-.3-4.4-.3-9.8s.1-9.8.3-9.8c.1 0 .3 4.4.3 9.8-.1 5.4-.2 9.8-.3 9.8Zm2.2 0c-.1 0-.3-4.4-.3-9.8s.1-9.8.3-9.8c.1 0 .3 4.4.3 9.8-.1 5.4-.2 9.8-.3 9.8Zm2.2 0c-.1 0-.3-4.4-.3-9.8s.1-9.8.3-9.8c.2 0 .3 4.4.3 9.8s-.2 9.8-.3 9.8Zm2.2 0c-.1 0-.3-4.4-.3-9.8s.1-9.8.3-9.8c.1 0 .3 4.4.3 9.8s-.1 9.8-.3 9.8Zm2.2 0c-.1 0-.3-4.4-.3-9.8s.1-9.8.3-9.8c.1 0 .3 4.4.3 9.8s-.1 9.8-.3 9.8Z" fill="#263238"/><path d="M156.4 307.1h-22.5v69.7h22.5v-69.7Z" fill="#E0E0E0"/><path d="M236 307.1h-79.6v69.7h79.8l-.2-69.7Z" fill="#F5F5F5"/><path d="M179.8 298.4h-1.7v4.4h1.7v-4.4Zm3-.1h-1.7v4.4h1.7v-4.4Zm9.4.1h-1.7v4.4h1.7v-4.4Zm3-.1h-1.7v4.4h1.7v-4.4Zm9.5.1H203v4.4h1.7v-4.4Zm3-.1H206v4.4h1.7v-4.4Zm9.5.1h-1.7v4.4h1.7v-4.4Zm3-.1h-1.7v4.4h1.7v-4.4Zm9.5.1H228v4.4h1.7v-4.4Zm3-.1H231v4.4h1.7v-4.4Z" fill="#263238"/><path d="M252.7 310.6h-75.4v21.9h75.4v-21.9Z" fill="#FF725E"/><path opacity=".3" d="M252.8 310.6h-27v21.9h27v-21.9Z" fill="#000"/><path d="M224.7 331.7v-5.4c0-3.4-.1-8.3-.1-14.4l.2.2c-12 0-28.4 0-46.6.1l.3-.3v19.7l-.2-.2c13.5 0 25.1.1 33.3.1 4.1 0 7.4.1 9.7.1h3.3s.1 0 .1.1h-3.5c-2.3 0-5.5 0-9.6.1-8.3 0-20 .1-33.5.1h-.2V312l.3-.3c18.1 0 34.6.1 46.6.1h.2v.2c0 6.1-.1 11.1-.1 14.5v4.9c-.2.1-.2.3-.2.3Zm26.7 0v-1.5c0-1 0-2.3-.1-4 0-3.5-.1-8.4-.1-14.3l.2.2h-24.5l.3-.3v19.7l-.2-.2c7.2 0 13.3.1 17.7.1 2.1 0 3.8 0 5 .1h1.3c.3.1.4.1.4.2h-1.7c-1.2 0-2.9 0-5 .1-4.4 0-10.5.1-17.8.1h-.2V312l.3-.3h24.7v.2c0 6-.1 10.9-.1 14.4 0 1.7 0 3-.1 4v1c-.1.2-.1.4-.1.4Z" fill="#263238"/><path d="M179.9 331.5c-.1 0-.3-4.4-.3-9.8s.1-9.8.3-9.8c.1 0 .3 4.4.3 9.8s-.1 9.8-.3 9.8Zm2.2 0c-.1 0-.3-4.4-.3-9.8s.1-9.8.3-9.8c.1 0 .3 4.4.3 9.8-.1 5.4-.2 9.8-.3 9.8Zm2.1 0c-.1 0-.3-4.4-.3-9.8s.1-9.8.3-9.8c.1 0 .3 4.4.3 9.8s-.1 9.8-.3 9.8Zm2.2 0c-.1 0-.3-4.4-.3-9.8s.1-9.8.3-9.8c.2 0 .3 4.4.3 9.8-.1 5.4-.2 9.8-.3 9.8Zm2.1 0c-.1 0-.3-4.4-.3-9.8s.1-9.8.3-9.8c.2 0 .3 4.4.3 9.8s-.1 9.8-.3 9.8Zm2.2 0c-.1 0-.3-4.4-.3-9.8s.1-9.8.3-9.8c.2 0 .3 4.4.3 9.8-.1 5.4-.2 9.8-.3 9.8Zm2.1 0c-.1 0-.3-4.4-.3-9.8s.1-9.8.3-9.8c.2 0 .3 4.4.3 9.8s-.1 9.8-.3 9.8Zm2.2 0c-.1 0-.3-4.4-.3-9.8s.1-9.8.3-9.8c.2 0 .3 4.4.3 9.8-.1 5.4-.2 9.8-.3 9.8Zm2.1 0c-.1 0-.3-4.4-.3-9.8s.1-9.8.3-9.8c.1 0 .3 4.4.3 9.8s-.1 9.8-.3 9.8Zm2.2 0c-.1 0-.3-4.4-.3-9.8s.1-9.8.3-9.8c.2 0 .3 4.4.3 9.8-.1 5.4-.2 9.8-.3 9.8Zm2.1 0c-.1 0-.3-4.4-.3-9.8s.1-9.8.3-9.8c.1 0 .3 4.4.3 9.8s-.1 9.8-.3 9.8Zm2.2 0c-.1 0-.3-4.4-.3-9.8s.1-9.8.3-9.8c.1 0 .3 4.4.3 9.8-.1 5.4-.2 9.8-.3 9.8Zm2.1 0c-.1 0-.3-4.4-.3-9.8s.1-9.8.3-9.8c.1 0 .3 4.4.3 9.8s-.1 9.8-.3 9.8Zm2.2 0c-.1 0-.3-4.4-.3-9.8s.1-9.8.3-9.8c.1 0 .3 4.4.3 9.8-.1 5.4-.2 9.8-.3 9.8Zm2.1 0c-.1 0-.3-4.4-.3-9.8s.1-9.8.3-9.8c.1 0 .3 4.4.3 9.8s-.1 9.8-.3 9.8Zm2.2 0c-.1 0-.3-4.4-.3-9.8s.1-9.8.3-9.8c.1 0 .3 4.4.3 9.8-.1 5.4-.2 9.8-.3 9.8Zm2.1 0c-.1 0-.3-4.4-.3-9.8s.1-9.8.3-9.8c.2 0 .3 4.4.3 9.8s-.1 9.8-.3 9.8Zm2.2 0c-.1 0-.3-4.4-.3-9.8s.1-9.8.3-9.8c.1 0 .3 4.4.3 9.8-.1 5.4-.2 9.8-.3 9.8Zm2.1 0c-.1 0-.3-4.4-.3-9.8s.1-9.8.3-9.8c.2 0 .3 4.4.3 9.8s-.1 9.8-.3 9.8Zm2.2 0c-.1 0-.3-4.4-.3-9.8s.1-9.8.3-9.8c.2 0 .3 4.4.3 9.8-.1 5.4-.2 9.8-.3 9.8Zm2.1 0c-.1 0-.3-4.4-.3-9.8s.1-9.8.3-9.8c.2 0 .3 4.4.3 9.8s-.1 9.8-.3 9.8Zm6 0c-.1 0-.3-4.4-.3-9.8s.1-9.8.3-9.8c.2 0 .3 4.4.3 9.8s-.2 9.8-.3 9.8Zm2.2 0c-.1 0-.3-4.4-.3-9.8s.1-9.8.3-9.8c.1 0 .3 4.4.3 9.8s-.1 9.8-.3 9.8Zm2.2 0c-.1 0-.3-4.4-.3-9.8s.1-9.8.3-9.8c.1 0 .3 4.4.3 9.8s-.1 9.8-.3 9.8Zm2.2 0c-.1 0-.3-4.4-.3-9.8s.1-9.8.3-9.8c.1 0 .3 4.4.3 9.8s-.1 9.8-.3 9.8Zm2.3 0c-.1 0-.3-4.4-.3-9.8s.1-9.8.3-9.8c.1 0 .3 4.4.3 9.8-.1 5.4-.2 9.8-.3 9.8Zm2.2 0c-.1 0-.3-4.4-.3-9.8s.1-9.8.3-9.8c.1 0 .3 4.4.3 9.8-.1 5.4-.2 9.8-.3 9.8Zm2.2 0c-.1 0-.3-4.4-.3-9.8s.1-9.8.3-9.8c.2 0 .3 4.4.3 9.8-.1 5.4-.2 9.8-.3 9.8Zm2.2 0c-.1 0-.3-4.4-.3-9.8s.1-9.8.3-9.8c.1 0 .3 4.4.3 9.8s-.2 9.8-.3 9.8Zm2.2 0c-.1 0-.3-4.4-.3-9.8s.1-9.8.3-9.8c.2 0 .3 4.4.3 9.8s-.1 9.8-.3 9.8Zm2.2 0c-.1 0-.3-4.4-.3-9.8s.1-9.8.3-9.8c.2 0 .3 4.4.3 9.8s-.1 9.8-.3 9.8Z" fill="#263238"/><path d="M246.6 354.6h-75.4v21.9h75.4v-21.9Z" fill="#E0E0E0"/><path opacity=".3" d="M246.6 354.6h-27v21.9h27v-21.9Z" fill="#000"/><path d="M218.5 375.6v-5.4c0-3.4-.1-8.3-.1-14.4l.2.2c-12 0-28.4 0-46.6.1l.3-.3v19.7l-.2-.2c13.5 0 25.1.1 33.3.1 4.1 0 7.4.1 9.7.1h3.3c0 .1.1.1.1.1H215c-2.3 0-5.5 0-9.6.1-8.3 0-20 .1-33.5.1h-.2v-19.9l.3-.3c18.1 0 34.6.1 46.6.1h.2v.2c0 6.1-.1 11.1-.1 14.5v4.9c-.2.2-.2.3-.2.3Zm26.8 0v-1.5c0-1 0-2.3-.1-4 0-3.5-.1-8.4-.1-14.3l.2.2h-24.5l.3-.3v19.7l-.2-.2c7.2 0 13.3.1 17.7.1 2.1 0 3.8 0 5 .1h1.3c.2.2.4.2.4.2h-1.7c-1.2 0-2.9 0-5 .1-4.4 0-10.5.1-17.8.1h-.2v-19.9l.3-.3h24.7v.2c0 6-.1 10.9-.1 14.4 0 1.7 0 3-.1 4v1c-.1.3-.1.4-.1.4Z" fill="#263238"/><path d="M173.8 375.4c-.1 0-.3-4.4-.3-9.8s.1-9.8.3-9.8c.1 0 .3 4.4.3 9.8-.1 5.4-.2 9.8-.3 9.8Zm2.1 0c-.1 0-.3-4.4-.3-9.8s.1-9.8.3-9.8c.1 0 .3 4.4.3 9.8s-.1 9.8-.3 9.8Zm2.2 0c-.1 0-.3-4.4-.3-9.8s.1-9.8.3-9.8c.1 0 .3 4.4.3 9.8s-.2 9.8-.3 9.8Zm2.1 0c-.1 0-.3-4.4-.3-9.8s.1-9.8.3-9.8c.1 0 .3 4.4.3 9.8s-.1 9.8-.3 9.8Zm2.2 0c-.1 0-.3-4.4-.3-9.8s.1-9.8.3-9.8c.1 0 .3 4.4.3 9.8s-.2 9.8-.3 9.8Zm2.1 0c-.1 0-.3-4.4-.3-9.8s.1-9.8.3-9.8c.2 0 .3 4.4.3 9.8s-.1 9.8-.3 9.8Zm2.2 0c-.1 0-.3-4.4-.3-9.8s.1-9.8.3-9.8c.2 0 .3 4.4.3 9.8s-.2 9.8-.3 9.8Zm2.1 0c-.1 0-.3-4.4-.3-9.8s.1-9.8.3-9.8c.2 0 .3 4.4.3 9.8s-.1 9.8-.3 9.8Zm2.2 0c-.1 0-.3-4.4-.3-9.8s.1-9.8.3-9.8c.2 0 .3 4.4.3 9.8s-.2 9.8-.3 9.8Zm2.1 0c-.1 0-.3-4.4-.3-9.8s.1-9.8.3-9.8c.2 0 .3 4.4.3 9.8s-.1 9.8-.3 9.8Zm2.2 0c-.1 0-.3-4.4-.3-9.8s.1-9.8.3-9.8c.1 0 .3 4.4.3 9.8s-.2 9.8-.3 9.8Zm2.1 0c-.1 0-.3-4.4-.3-9.8s.1-9.8.3-9.8c.1 0 .3 4.4.3 9.8s-.1 9.8-.3 9.8Zm2.2 0c-.1 0-.3-4.4-.3-9.8s.1-9.8.3-9.8c.1 0 .3 4.4.3 9.8s-.2 9.8-.3 9.8Zm2.1 0c-.1 0-.3-4.4-.3-9.8s.1-9.8.3-9.8c.1 0 .3 4.4.3 9.8s-.1 9.8-.3 9.8Zm2.2 0c-.1 0-.3-4.4-.3-9.8s.1-9.8.3-9.8c.1 0 .3 4.4.3 9.8s-.2 9.8-.3 9.8Zm2.1 0c-.1 0-.3-4.4-.3-9.8s.1-9.8.3-9.8c.1 0 .3 4.4.3 9.8s-.1 9.8-.3 9.8Zm2.2 0c-.1 0-.3-4.4-.3-9.8s.1-9.8.3-9.8c.1 0 .3 4.4.3 9.8s-.2 9.8-.3 9.8Zm2.1 0c-.1 0-.3-4.4-.3-9.8s.1-9.8.3-9.8c.1 0 .3 4.4.3 9.8s-.1 9.8-.3 9.8Zm2.2 0c-.1 0-.3-4.4-.3-9.8s.1-9.8.3-9.8c.2 0 .3 4.4.3 9.8s-.2 9.8-.3 9.8Zm2.1 0c-.1 0-.3-4.4-.3-9.8s.1-9.8.3-9.8c.2 0 .3 4.4.3 9.8s-.1 9.8-.3 9.8Zm2.2 0c-.1 0-.3-4.4-.3-9.8s.1-9.8.3-9.8c.2 0 .3 4.4.3 9.8s-.2 9.8-.3 9.8Zm6 0c-.1 0-.3-4.4-.3-9.8s.1-9.8.3-9.8c.1 0 .3 4.4.3 9.8-.1 5.4-.2 9.8-.3 9.8Zm2.2 0c-.1 0-.3-4.4-.3-9.8s.1-9.8.3-9.8c.1 0 .3 4.4.3 9.8-.1 5.4-.2 9.8-.3 9.8Zm2.2 0c-.1 0-.3-4.4-.3-9.8s.1-9.8.3-9.8c.1 0 .3 4.4.3 9.8s-.2 9.8-.3 9.8Zm2.2 0c-.1 0-.3-4.4-.3-9.8s.1-9.8.3-9.8c.2 0 .3 4.4.3 9.8s-.1 9.8-.3 9.8Zm2.2 0c-.1 0-.3-4.4-.3-9.8s.1-9.8.3-9.8c.1 0 .3 4.4.3 9.8s-.1 9.8-.3 9.8Zm2.2 0c-.1 0-.3-4.4-.3-9.8s.1-9.8.3-9.8c.2 0 .3 4.4.3 9.8s-.1 9.8-.3 9.8Zm2.3 0c-.1 0-.3-4.4-.3-9.8s.1-9.8.3-9.8c.1 0 .3 4.4.3 9.8-.1 5.4-.2 9.8-.3 9.8Zm2.2 0c-.1 0-.3-4.4-.3-9.8s.1-9.8.3-9.8c.1 0 .3 4.4.3 9.8-.1 5.4-.2 9.8-.3 9.8Zm2.2 0c-.1 0-.3-4.4-.3-9.8s.1-9.8.3-9.8c.2 0 .3 4.4.3 9.8-.1 5.4-.2 9.8-.3 9.8Zm2.2 0c-.1 0-.3-4.4-.3-9.8s.1-9.8.3-9.8c.2 0 .3 4.4.3 9.8s-.2 9.8-.3 9.8Z" fill="#263238"/><path d="M380.8 354.1h-75.4V376h75.4v-21.9Z" fill="#E0E0E0"/><path opacity=".3" d="M380.8 354.1h-27V376h27v-21.9Z" fill="#000"/><path d="M352.7 375.1v-5.4c0-3.4-.1-8.3-.1-14.4l.2.2c-12 0-28.4 0-46.6.1l.3-.3V375l-.2-.2c13.5 0 25.1.1 33.3.1 4.1 0 7.4.1 9.7.1h3.3c0 .1.1.1.1.1h-3.5c-2.3 0-5.5 0-9.6.1-8.3 0-20 .1-33.5.1h-.2v-19.9l.3-.3c18.1 0 34.6.1 46.6.1h.2v.2c0 6.1-.1 11.1-.1 14.5v4.9c-.2.2-.2.3-.2.3Zm26.8 0v-1.5c0-1 0-2.3-.1-4 0-3.5-.1-8.4-.1-14.3l.2.2H355l.3-.3v19.7l-.2-.2c7.2 0 13.3.1 17.7.1 2.1 0 3.8 0 5 .1h1.3c.2.2.4.2.4.2h-1.7c-1.2 0-2.9 0-5 .1-4.4 0-10.5.1-17.8.1h-.2v-19.9l.3-.3h24.7v.2c0 6-.1 10.9-.1 14.4 0 1.7 0 3-.1 4v1c-.1.3-.1.4-.1.4Z" fill="#263238"/><path d="M308 374.9c-.1 0-.3-4.4-.3-9.8s.1-9.8.3-9.8c.2 0 .3 4.4.3 9.8-.1 5.4-.2 9.8-.3 9.8Zm2.1 0c-.1 0-.3-4.4-.3-9.8s.1-9.8.3-9.8c.2 0 .3 4.4.3 9.8s-.1 9.8-.3 9.8Zm2.2 0c-.1 0-.3-4.4-.3-9.8s.1-9.8.3-9.8c.1 0 .3 4.4.3 9.8-.1 5.4-.2 9.8-.3 9.8Zm2.1 0c-.1 0-.3-4.4-.3-9.8s.1-9.8.3-9.8c.1 0 .3 4.4.3 9.8s-.1 9.8-.3 9.8Zm2.2 0c-.1 0-.3-4.4-.3-9.8s.1-9.8.3-9.8c.1 0 .3 4.4.3 9.8-.1 5.4-.2 9.8-.3 9.8Zm2.1 0c-.1 0-.3-4.4-.3-9.8s.1-9.8.3-9.8c.1 0 .3 4.4.3 9.8s-.1 9.8-.3 9.8Zm2.2 0c-.1 0-.3-4.4-.3-9.8s.1-9.8.3-9.8c.1 0 .3 4.4.3 9.8-.1 5.4-.2 9.8-.3 9.8Zm2.1 0c-.1 0-.3-4.4-.3-9.8s.1-9.8.3-9.8c.1 0 .3 4.4.3 9.8s-.1 9.8-.3 9.8Zm2.2 0c-.1 0-.3-4.4-.3-9.8s.1-9.8.3-9.8c.1 0 .3 4.4.3 9.8-.1 5.4-.2 9.8-.3 9.8Zm2.1 0c-.1 0-.3-4.4-.3-9.8s.1-9.8.3-9.8c.2 0 .3 4.4.3 9.8s-.1 9.8-.3 9.8Zm2.2 0c-.1 0-.3-4.4-.3-9.8s.1-9.8.3-9.8c.2 0 .3 4.4.3 9.8-.1 5.4-.2 9.8-.3 9.8Zm2.1 0c-.1 0-.3-4.4-.3-9.8s.1-9.8.3-9.8c.2 0 .3 4.4.3 9.8s-.1 9.8-.3 9.8Zm2.2 0c-.1 0-.3-4.4-.3-9.8s.1-9.8.3-9.8c.2 0 .3 4.4.3 9.8-.1 5.4-.2 9.8-.3 9.8Zm2.1 0c-.1 0-.3-4.4-.3-9.8s.1-9.8.3-9.8c.1 0 .3 4.4.3 9.8s-.1 9.8-.3 9.8Zm2.2 0c-.1 0-.3-4.4-.3-9.8s.1-9.8.3-9.8c.2 0 .3 4.4.3 9.8-.1 5.4-.2 9.8-.3 9.8Zm2.1 0c-.1 0-.3-4.4-.3-9.8s.1-9.8.3-9.8c.2 0 .3 4.4.3 9.8s-.1 9.8-.3 9.8Zm2.2 0c-.1 0-.3-4.4-.3-9.8s.1-9.8.3-9.8c.1 0 .3 4.4.3 9.8-.1 5.4-.2 9.8-.3 9.8Zm2.1 0c-.1 0-.3-4.4-.3-9.8s.1-9.8.3-9.8c.1 0 .3 4.4.3 9.8s-.1 9.8-.3 9.8Zm2.2 0c-.1 0-.3-4.4-.3-9.8s.1-9.8.3-9.8c.1 0 .3 4.4.3 9.8-.1 5.4-.2 9.8-.3 9.8Zm2.1 0c-.1 0-.3-4.4-.3-9.8s.1-9.8.3-9.8c.1 0 .3 4.4.3 9.8s-.1 9.8-.3 9.8Zm2.2 0c-.1 0-.3-4.4-.3-9.8s.1-9.8.3-9.8c.1 0 .3 4.4.3 9.8-.1 5.4-.2 9.8-.3 9.8Zm5.9 0c-.1 0-.3-4.4-.3-9.8s.1-9.8.3-9.8c.2 0 .3 4.4.3 9.8s-.1 9.8-.3 9.8Zm2.3 0c-.1 0-.3-4.4-.3-9.8s.1-9.8.3-9.8c.1 0 .3 4.4.3 9.8-.1 5.4-.2 9.8-.3 9.8Zm2.2 0c-.1 0-.3-4.4-.3-9.8s.1-9.8.3-9.8c.2 0 .3 4.4.3 9.8-.1 5.4-.2 9.8-.3 9.8Zm2.2 0c-.1 0-.3-4.4-.3-9.8s.1-9.8.3-9.8c.1 0 .3 4.4.3 9.8-.1 5.4-.2 9.8-.3 9.8Zm2.2 0c-.1 0-.3-4.4-.3-9.8s.1-9.8.3-9.8c.2 0 .3 4.4.3 9.8s-.2 9.8-.3 9.8Zm2.2 0c-.1 0-.3-4.4-.3-9.8s.1-9.8.3-9.8c.2 0 .3 4.4.3 9.8s-.1 9.8-.3 9.8Zm2.2 0c-.1 0-.3-4.4-.3-9.8s.1-9.8.3-9.8c.1 0 .3 4.4.3 9.8s-.1 9.8-.3 9.8Zm2.2 0c-.1 0-.3-4.4-.3-9.8s.1-9.8.3-9.8c.2 0 .3 4.4.3 9.8s-.1 9.8-.3 9.8Zm2.3 0c-.1 0-.3-4.4-.3-9.8s.1-9.8.3-9.8c.2 0 .3 4.4.3 9.8-.1 5.4-.2 9.8-.3 9.8Zm2.2 0c-.1 0-.3-4.4-.3-9.8s.1-9.8.3-9.8c.1 0 .3 4.4.3 9.8-.1 5.4-.2 9.8-.3 9.8Z" fill="#263238"/><path d="M280.4 332.6H205v21.9h75.4v-21.9Z" fill="#E0E0E0"/><path opacity=".3" d="M280.4 332.6h-27v21.9h27v-21.9Z" fill="#000"/><path d="M252.3 353.6v-5.4c0-3.4-.1-8.3-.1-14.4l.2.2c-12 0-28.4 0-46.6.1l.3-.3v19.7l-.2-.2c13.5 0 25.1.1 33.3.1 4.1 0 7.4.1 9.7.1h3.3c0 .1.1.1.1.1h-3.5c-2.3 0-5.5 0-9.6.1-8.3 0-20 .1-33.5.1h-.2v-19.9l.3-.3c18.1 0 34.6.1 46.6.1h.2v.2c0 6.1-.1 11.1-.1 14.5v4.9c-.2.2-.2.3-.2.3Zm26.7 0v-1.5c0-1 0-2.3-.1-4 0-3.5-.1-8.4-.1-14.3l.2.2h-24.5l.3-.3v19.7l-.2-.2c7.2 0 13.3.1 17.7.1 2.1 0 3.8 0 5 .1h1.3c.3.2.4.2.4.2h-1.7c-1.2 0-2.9 0-5 .1-4.4 0-10.5.1-17.8.1h-.2v-19.9l.3-.3h24.7v.2c0 6-.1 10.9-.1 14.4 0 1.7 0 3-.1 4v1c0 .3 0 .4-.1.4Z" fill="#263238"/><path d="M207.5 353.5c-.1 0-.3-4.4-.3-9.8s.1-9.8.3-9.8c.1 0 .3 4.4.3 9.8s-.1 9.8-.3 9.8Zm2.2 0c-.1 0-.3-4.4-.3-9.8s.1-9.8.3-9.8c.1 0 .3 4.4.3 9.8-.1 5.4-.2 9.8-.3 9.8Zm2.1 0c-.1 0-.3-4.4-.3-9.8s.1-9.8.3-9.8c.1 0 .3 4.4.3 9.8s-.1 9.8-.3 9.8Zm2.2 0c-.1 0-.3-4.4-.3-9.8s.1-9.8.3-9.8c.1 0 .3 4.4.3 9.8s-.2 9.8-.3 9.8Zm2.1 0c-.1 0-.3-4.4-.3-9.8s.1-9.8.3-9.8c.1 0 .3 4.4.3 9.8s-.1 9.8-.3 9.8Zm2.2 0c-.1 0-.3-4.4-.3-9.8s.1-9.8.3-9.8c.2 0 .3 4.4.3 9.8s-.2 9.8-.3 9.8Zm2.1 0c-.1 0-.3-4.4-.3-9.8s.1-9.8.3-9.8c.2 0 .3 4.4.3 9.8s-.1 9.8-.3 9.8Zm2.2 0c-.1 0-.3-4.4-.3-9.8s.1-9.8.3-9.8c.2 0 .3 4.4.3 9.8s-.2 9.8-.3 9.8Zm2.1 0c-.1 0-.3-4.4-.3-9.8s.1-9.8.3-9.8c.2 0 .3 4.4.3 9.8s-.1 9.8-.3 9.8Zm2.2 0c-.1 0-.3-4.4-.3-9.8s.1-9.8.3-9.8c.1 0 .3 4.4.3 9.8s-.2 9.8-.3 9.8Zm2.1 0c-.1 0-.3-4.4-.3-9.8s.1-9.8.3-9.8c.1 0 .3 4.4.3 9.8s-.1 9.8-.3 9.8Zm2.2 0c-.1 0-.3-4.4-.3-9.8s.1-9.8.3-9.8c.1 0 .3 4.4.3 9.8s-.2 9.8-.3 9.8Zm2.1 0c-.1 0-.3-4.4-.3-9.8s.1-9.8.3-9.8c.1 0 .3 4.4.3 9.8s-.1 9.8-.3 9.8Zm2.2 0c-.1 0-.3-4.4-.3-9.8s.1-9.8.3-9.8c.1 0 .3 4.4.3 9.8s-.2 9.8-.3 9.8Zm2.1 0c-.1 0-.3-4.4-.3-9.8s.1-9.8.3-9.8c.1 0 .3 4.4.3 9.8s-.1 9.8-.3 9.8Zm2.2 0c-.1 0-.3-4.4-.3-9.8s.1-9.8.3-9.8c.2 0 .3 4.4.3 9.8s-.2 9.8-.3 9.8Zm2.1 0c-.1 0-.3-4.4-.3-9.8s.1-9.8.3-9.8c.1 0 .3 4.4.3 9.8s-.1 9.8-.3 9.8Zm2.2 0c-.1 0-.3-4.4-.3-9.8s.1-9.8.3-9.8c.2 0 .3 4.4.3 9.8s-.2 9.8-.3 9.8Zm2.1 0c-.1 0-.3-4.4-.3-9.8s.1-9.8.3-9.8c.2 0 .3 4.4.3 9.8s-.1 9.8-.3 9.8Zm2.2 0c-.1 0-.3-4.4-.3-9.8s.1-9.8.3-9.8c.1 0 .3 4.4.3 9.8s-.2 9.8-.3 9.8Zm2.1 0c-.1 0-.3-4.4-.3-9.8s.1-9.8.3-9.8c.2 0 .3 4.4.3 9.8s-.1 9.8-.3 9.8Zm6 0c-.1 0-.3-4.4-.3-9.8s.1-9.8.3-9.8c.2 0 .3 4.4.3 9.8s-.1 9.8-.3 9.8Zm2.2 0c-.1 0-.3-4.4-.3-9.8s.1-9.8.3-9.8c.1 0 .3 4.4.3 9.8s-.1 9.8-.3 9.8Zm2.2 0c-.1 0-.3-4.4-.3-9.8s.1-9.8.3-9.8c.1 0 .3 4.4.3 9.8s-.1 9.8-.3 9.8Zm2.3 0c-.1 0-.3-4.4-.3-9.8s.1-9.8.3-9.8c.2 0 .3 4.4.3 9.8-.1 5.4-.2 9.8-.3 9.8Zm2.2 0c-.1 0-.3-4.4-.3-9.8s.1-9.8.3-9.8c.1 0 .3 4.4.3 9.8-.1 5.4-.2 9.8-.3 9.8Zm2.2 0c-.1 0-.3-4.4-.3-9.8s.1-9.8.3-9.8c.1 0 .3 4.4.3 9.8s-.2 9.8-.3 9.8Zm2.2 0c-.1 0-.3-4.4-.3-9.8s.1-9.8.3-9.8c.2 0 .3 4.4.3 9.8s-.1 9.8-.3 9.8Zm2.2 0c-.1 0-.3-4.4-.3-9.8s.1-9.8.3-9.8c.1 0 .3 4.4.3 9.8s-.1 9.8-.3 9.8Zm2.2 0c-.1 0-.3-4.4-.3-9.8s.1-9.8.3-9.8c.1 0 .3 4.4.3 9.8s-.1 9.8-.3 9.8Zm2.3 0c-.1 0-.3-4.4-.3-9.8s.1-9.8.3-9.8c.1 0 .3 4.4.3 9.8-.1 5.4-.2 9.8-.3 9.8Z" fill="#263238"/><path d="M250.2 332.6h-75.4v21.9h75.4v-21.9Z" fill="#455A64"/><path opacity=".3" d="M250.2 332.6h-27v21.9h27v-21.9Z" fill="#000"/><path d="M222.1 353.6v-5.4c0-3.4-.1-8.3-.1-14.4l.2.2c-12 0-28.4 0-46.6.1l.3-.3v19.7l-.2-.2c13.5 0 25.1.1 33.3.1 4.1 0 7.4.1 9.7.1h3.3c0 .1.1.1.1.1h-3.5c-2.3 0-5.5 0-9.6.1-8.3 0-20 .1-33.5.1h-.2v-19.9l.3-.3c18.1 0 34.6.1 46.6.1h.2v.2c0 6.1-.1 11.1-.1 14.5v4.9c-.2.2-.2.3-.2.3Zm26.8 0v-1.5c0-1 0-2.3-.1-4 0-3.5-.1-8.4-.1-14.3l.2.2h-24.5l.3-.3v19.7l-.2-.2c7.2 0 13.3.1 17.7.1 2.1 0 3.8 0 5 .1h1.3c.2.2.4.2.4.2h-1.7c-1.2 0-2.9 0-5 .1-4.4 0-10.5.1-17.8.1h-.2v-19.9l.3-.3h24.7v.2c0 6-.1 10.9-.1 14.4 0 1.7 0 3-.1 4v1c-.1.3-.1.4-.1.4Z" fill="#263238"/><path d="M177.4 353.5c-.1 0-.3-4.4-.3-9.8s.1-9.8.3-9.8c.2 0 .3 4.4.3 9.8-.1 5.4-.2 9.8-.3 9.8Zm2.1 0c-.1 0-.3-4.4-.3-9.8s.1-9.8.3-9.8c.2 0 .3 4.4.3 9.8s-.2 9.8-.3 9.8Zm2.2 0c-.1 0-.3-4.4-.3-9.8s.1-9.8.3-9.8c.2 0 .3 4.4.3 9.8-.1 5.4-.2 9.8-.3 9.8Zm2.1 0c-.1 0-.3-4.4-.3-9.8s.1-9.8.3-9.8c.1 0 .3 4.4.3 9.8s-.1 9.8-.3 9.8Zm2.2 0c-.1 0-.3-4.4-.3-9.8s.1-9.8.3-9.8c.1 0 .3 4.4.3 9.8-.1 5.4-.2 9.8-.3 9.8Zm2.1 0c-.1 0-.3-4.4-.3-9.8s.1-9.8.3-9.8c.1 0 .3 4.4.3 9.8s-.1 9.8-.3 9.8Zm2.2 0c-.1 0-.3-4.4-.3-9.8s.1-9.8.3-9.8c.1 0 .3 4.4.3 9.8-.1 5.4-.2 9.8-.3 9.8Zm2.1 0c-.1 0-.3-4.4-.3-9.8s.1-9.8.3-9.8c.1 0 .3 4.4.3 9.8s-.1 9.8-.3 9.8Zm2.2 0c-.1 0-.3-4.4-.3-9.8s.1-9.8.3-9.8c.1 0 .3 4.4.3 9.8-.1 5.4-.2 9.8-.3 9.8Zm2.1 0c-.1 0-.3-4.4-.3-9.8s.1-9.8.3-9.8c.2 0 .3 4.4.3 9.8s-.1 9.8-.3 9.8Zm2.2 0c-.1 0-.3-4.4-.3-9.8s.1-9.8.3-9.8c.2 0 .3 4.4.3 9.8-.1 5.4-.2 9.8-.3 9.8Zm2.1 0c-.1 0-.3-4.4-.3-9.8s.1-9.8.3-9.8c.2 0 .3 4.4.3 9.8s-.1 9.8-.3 9.8Zm2.2 0c-.1 0-.3-4.4-.3-9.8s.1-9.8.3-9.8c.2 0 .3 4.4.3 9.8-.1 5.4-.2 9.8-.3 9.8Zm2.1 0c-.1 0-.3-4.4-.3-9.8s.1-9.8.3-9.8c.1 0 .3 4.4.3 9.8s-.1 9.8-.3 9.8Zm2.2 0c-.1 0-.3-4.4-.3-9.8s.1-9.8.3-9.8c.2 0 .3 4.4.3 9.8-.1 5.4-.2 9.8-.3 9.8Zm2.1 0c-.1 0-.3-4.4-.3-9.8s.1-9.8.3-9.8c.2 0 .3 4.4.3 9.8s-.1 9.8-.3 9.8Zm2.2 0c-.1 0-.3-4.4-.3-9.8s.1-9.8.3-9.8c.1 0 .3 4.4.3 9.8-.1 5.4-.2 9.8-.3 9.8Zm2.1 0c-.1 0-.3-4.4-.3-9.8s.1-9.8.3-9.8c.1 0 .3 4.4.3 9.8s-.1 9.8-.3 9.8Zm2.2 0c-.1 0-.3-4.4-.3-9.8s.1-9.8.3-9.8c.1 0 .3 4.4.3 9.8-.1 5.4-.2 9.8-.3 9.8Zm2.1 0c-.1 0-.3-4.4-.3-9.8s.1-9.8.3-9.8c.1 0 .3 4.4.3 9.8s-.1 9.8-.3 9.8Zm2.2 0c-.1 0-.3-4.4-.3-9.8s.1-9.8.3-9.8c.1 0 .3 4.4.3 9.8-.1 5.4-.2 9.8-.3 9.8Zm5.9 0c-.1 0-.3-4.4-.3-9.8s.1-9.8.3-9.8c.1 0 .3 4.4.3 9.8s-.1 9.8-.3 9.8Zm2.2 0c-.1 0-.3-4.4-.3-9.8s.1-9.8.3-9.8c.1 0 .3 4.4.3 9.8s-.1 9.8-.3 9.8Zm2.3 0c-.1 0-.3-4.4-.3-9.8s.1-9.8.3-9.8c.2 0 .3 4.4.3 9.8-.1 5.4-.2 9.8-.3 9.8Zm2.2 0c-.1 0-.3-4.4-.3-9.8s.1-9.8.3-9.8c.1 0 .3 4.4.3 9.8-.1 5.4-.2 9.8-.3 9.8Zm2.2 0c-.1 0-.3-4.4-.3-9.8s.1-9.8.3-9.8c.2 0 .3 4.4.3 9.8s-.2 9.8-.3 9.8Zm2.2 0c-.1 0-.3-4.4-.3-9.8s.1-9.8.3-9.8c.2 0 .3 4.4.3 9.8s-.1 9.8-.3 9.8Zm2.2 0c-.1 0-.3-4.4-.3-9.8s.1-9.8.3-9.8c.1 0 .3 4.4.3 9.8s-.1 9.8-.3 9.8Zm2.2 0c-.1 0-.3-4.4-.3-9.8s.1-9.8.3-9.8c.2 0 .3 4.4.3 9.8s-.1 9.8-.3 9.8Zm2.3 0c-.1 0-.3-4.4-.3-9.8s.1-9.8.3-9.8c.2 0 .3 4.4.3 9.8-.1 5.4-.2 9.8-.3 9.8Zm2.2 0c-.1 0-.3-4.4-.3-9.8s.1-9.8.3-9.8c.1 0 .3 4.4.3 9.8-.1 5.4-.2 9.8-.3 9.8Z" fill="#263238"/><path d="M203 294.7h-21.9l3.2-41.6h15.1l3.6 41.6Z" fill="#FF725E"/><path d="M201 271.8h-18.2l.6-6.9h17l.6 6.9Zm1.3 14.3h-20.7l.7-6.9 19.4.1.6 6.8Z" fill="#fff"/><path d="m39 376.8 10 52.8h394.2s0-15.1 22-34.6 23.3-42.2 23.3-42.2l-122.2 1-17.6 22.4-301.4.6H39Z" fill="#E0E0E0"/><path d="M39 376.8c2.2 0 127.2-.3 309.8-.8l-.2.1c5.5-7 11.5-14.6 17.6-22.4l.1-.1h.1c38.2-.3 79.4-.6 122.2-1h.3v.3c-.3 3.2-1 6.3-1.9 9.4-.9 3.1-2.1 6.2-3.5 9.2-2.8 6-6.5 11.7-11 16.8-2.9 3.3-6.2 6.3-9.4 9.3-1.6 1.4-3.1 3.1-4.6 4.6-.7.8-1.4 1.6-2.2 2.4l-1.1 1.2-1 1.3c-2.7 3.4-5.1 6.9-7 10.7-1.9 3.8-3.4 7.8-3.7 12v.3h-.2C269.2 430 122 430 49.1 430H49v-.1c-6.6-34.7-9.9-52.3-10-53.1.2.8 3.6 18.5 10.2 52.9l-.1-.1c72.9 0 220.1-.1 394.2-.1l-.3.3c.3-4.3 1.9-8.3 3.8-12.2 1.9-3.8 4.4-7.4 7.1-10.8l1-1.3 1.1-1.2c.7-.8 1.4-1.6 2.2-2.4 1.5-1.5 3-3.2 4.6-4.6 3.2-3 6.4-5.9 9.3-9.2 4.4-5 8.1-10.7 10.9-16.6 1.4-3 2.6-6 3.5-9.1.9-3.1 1.6-6.2 1.9-9.3l.3.3c-42.8.3-84 .7-122.2 1l.2-.1c-6.1 7.8-12.1 15.4-17.6 22.4l-.1.1h-.1c-91.3.1-168.8.2-223.4.3-27.3 0-48.9 0-63.7.1H44.9c-3.9-.4-5.7-.4-5.9-.4Z" fill="#263238"/><path d="m49.2 429.6-2.9-15.4h402.6s-5.2 8.7-5.5 15.4H49.2Z" fill="#FF725E"/><path d="M296.2 403.5a6.7 6.7 0 1 0 0-13.4 6.7 6.7 0 0 0 0 13.4Z" fill="#fff"/><path d="M302.9 396.8c-.1 0 0-.6-.3-1.6s-1-2.5-2.5-3.6-3.8-1.7-6.1-.9c-1.1.4-2.2 1.2-3 2.3-.8 1.1-1.2 2.4-1.3 3.8 0 1.4.5 2.8 1.3 3.8.8 1.1 1.9 1.8 3 2.3 2.3.9 4.7.2 6.1-.9 1.5-1.1 2.2-2.6 2.5-3.6.3-1 .2-1.6.3-1.6v.4c0 .3 0 .7-.1 1.2-.2 1-.9 2.6-2.4 3.8-.8.6-1.8 1.1-2.9 1.3-1.1.2-2.4.2-3.6-.3-1.2-.4-2.4-1.3-3.2-2.4-.9-1.1-1.3-2.6-1.4-4.1 0-1.5.5-3 1.4-4.1.8-1.2 2-2 3.2-2.4 1.2-.5 2.5-.5 3.6-.3s2.1.7 2.9 1.3c1.6 1.2 2.2 2.8 2.4 3.8.1.5.2.9.1 1.2v.6Zm-66.7-102.1h-4.5c-2.9 0-7.1 0-12.3.1-10.4 0-24.8 0-40.6.1h-7.5l.3-.3v12.6h-.2c-10.9 0-20.3-.1-27-.1-3.3 0-5.9-.1-7.7-.1h-2.8 2.8c1.8 0 4.5 0 7.7-.1 6.7 0 16-.1 27-.1l-.2.2v-12.7h7.8c15.8 0 30.2.1 40.6.1 5.2 0 9.4.1 12.3.1h4.2c0 .2.1.2.1.2Z" fill="#263238"/><path d="M87.1 403.5a6.7 6.7 0 1 0 0-13.4 6.7 6.7 0 0 0 0 13.4Z" fill="#fff"/><path d="M93.8 396.8c-.1 0 0-.6-.3-1.6s-1-2.5-2.5-3.6-3.8-1.7-6.1-.9c-1.1.4-2.2 1.2-3 2.3-.8 1.1-1.2 2.4-1.3 3.8 0 1.4.5 2.8 1.3 3.8.8 1.1 1.9 1.8 3 2.3 2.3.9 4.7.2 6.1-.9 1.5-1.1 2.2-2.6 2.5-3.6.3-1 .2-1.6.3-1.6v.4c0 .3 0 .7-.1 1.2-.2 1-.9 2.6-2.4 3.8-.8.6-1.8 1.1-2.9 1.3-1.1.2-2.4.2-3.6-.3-1.2-.4-2.4-1.3-3.2-2.4-.9-1.1-1.3-2.6-1.4-4.1 0-1.5.5-3 1.4-4.1.8-1.2 2-2 3.2-2.4 1.2-.5 2.5-.5 3.6-.3s2.1.7 2.9 1.3c1.6 1.2 2.2 2.8 2.4 3.8.1.5.2.9.1 1.2v.6Z" fill="#263238"/><path d="M156.8 403.5a6.7 6.7 0 1 0 0-13.4 6.7 6.7 0 0 0 0 13.4Z" fill="#fff"/><path d="M163.5 396.8c-.1 0 0-.6-.3-1.6s-1-2.5-2.5-3.6-3.8-1.7-6.1-.9c-1.1.4-2.2 1.2-3 2.3-.8 1.1-1.2 2.4-1.3 3.8 0 1.4.5 2.8 1.3 3.8.8 1.1 1.9 1.8 3 2.3 2.3.9 4.7.2 6.1-.9 1.5-1.1 2.2-2.6 2.5-3.6.3-1 .2-1.6.3-1.6v.4c0 .3 0 .7-.1 1.2-.2 1-.9 2.6-2.4 3.8-.8.6-1.8 1.1-2.9 1.3-1.1.2-2.4.2-3.6-.3-1.2-.4-2.4-1.3-3.2-2.4-.9-1.1-1.3-2.6-1.4-4.1 0-1.5.5-3 1.4-4.1.8-1.2 2-2 3.2-2.4 1.2-.5 2.5-.5 3.6-.3s2.1.7 2.9 1.3c1.6 1.2 2.2 2.8 2.4 3.8.1.5.2.9.1 1.2v.6Z" fill="#263238"/><path d="M226.5 403.5a6.7 6.7 0 1 0 0-13.4 6.7 6.7 0 0 0 0 13.4Z" fill="#fff"/><path d="M233.2 396.8c-.1 0 0-.6-.3-1.6s-1-2.5-2.5-3.6-3.8-1.7-6.1-.9c-1.1.4-2.2 1.2-3 2.3-.8 1.1-1.2 2.4-1.3 3.8 0 1.4.5 2.8 1.3 3.8.8 1.1 1.9 1.8 3 2.3 2.3.9 4.7.2 6.1-.9 1.5-1.1 2.2-2.6 2.5-3.6.3-1 .2-1.6.3-1.6v.4c0 .3 0 .7-.1 1.2-.2 1-.9 2.6-2.4 3.8-.8.6-1.8 1.1-2.9 1.3-1.1.2-2.4.2-3.6-.3-1.2-.4-2.4-1.3-3.2-2.4-.9-1.1-1.3-2.6-1.4-4.1 0-1.5.5-3 1.4-4.1.8-1.2 2-2 3.2-2.4 1.2-.5 2.5-.5 3.6-.3s2.1.7 2.9 1.3c1.6 1.2 2.2 2.8 2.4 3.8.1.5.2.9.1 1.2v.6Z" fill="#263238"/><path d="M635.3 372.5h-75.4v21.9h75.4v-21.9Z" fill="#FF725E"/><path opacity=".3" d="M635.4 372.5h-27v21.9h27v-21.9Z" fill="#000"/><path d="M607.3 393.5v-5.4c0-3.4-.1-8.3-.1-14.4l.2.2c-12 0-28.4 0-46.6.1l.3-.3v19.7l-.2-.2c13.5 0 25.1.1 33.3.1 4.1 0 7.4.1 9.7.1h3.3c0 .1.1.1.1.1h-3.5c-2.3 0-5.5 0-9.6.1-8.3 0-20 .1-33.5.1h-.2v-20l.3-.3c18.1 0 34.6.1 46.6.1h.2v.2c0 6.1-.1 11.1-.1 14.5v4.9c-.2.3-.2.4-.2.4Zm26.7 0V392c0-1 0-2.3-.1-4 0-3.5-.1-8.4-.1-14.3l.2.2h-24.5l.3-.3v19.7l-.2-.2c7.2 0 13.3.1 17.7.1 2.1 0 3.8 0 5 .1h1.3c.3.2.4.2.4.2h-1.7c-1.2 0-2.9 0-5 .1-4.4 0-10.5.1-17.8.1h-.2v-20l.3-.3h24.7v.2c0 6-.1 10.9-.1 14.4 0 1.7 0 3-.1 4v1c-.1.4-.1.5-.1.5Z" fill="#263238"/><path d="M562.5 393.3c-.1 0-.3-4.4-.3-9.8s.1-9.8.3-9.8c.1 0 .3 4.4.3 9.8s-.1 9.8-.3 9.8Zm2.2 0c-.1 0-.3-4.4-.3-9.8s.1-9.8.3-9.8c.1 0 .3 4.4.3 9.8-.1 5.4-.2 9.8-.3 9.8Zm2.1 0c-.1 0-.3-4.4-.3-9.8s.1-9.8.3-9.8c.1 0 .3 4.4.3 9.8s-.1 9.8-.3 9.8Zm2.2 0c-.1 0-.3-4.4-.3-9.8s.1-9.8.3-9.8c.2 0 .3 4.4.3 9.8-.1 5.4-.2 9.8-.3 9.8Zm2.1 0c-.1 0-.3-4.4-.3-9.8s.1-9.8.3-9.8c.2 0 .3 4.4.3 9.8s-.1 9.8-.3 9.8Zm2.2 0c-.1 0-.3-4.4-.3-9.8s.1-9.8.3-9.8c.1 0 .3 4.4.3 9.8-.1 5.4-.2 9.8-.3 9.8Zm2.1 0c-.1 0-.3-4.4-.3-9.8s.1-9.8.3-9.8c.2 0 .3 4.4.3 9.8s-.1 9.8-.3 9.8Zm2.2 0c-.1 0-.3-4.4-.3-9.8s.1-9.8.3-9.8c.2 0 .3 4.4.3 9.8-.1 5.4-.2 9.8-.3 9.8Zm2.1 0c-.1 0-.3-4.4-.3-9.8s.1-9.8.3-9.8c.2 0 .3 4.4.3 9.8s-.1 9.8-.3 9.8Zm2.2 0c-.1 0-.3-4.4-.3-9.8s.1-9.8.3-9.8c.2 0 .3 4.4.3 9.8-.1 5.4-.2 9.8-.3 9.8Zm2.1 0c-.1 0-.3-4.4-.3-9.8s.1-9.8.3-9.8c.2 0 .3 4.4.3 9.8s-.1 9.8-.3 9.8Zm2.2 0c-.1 0-.3-4.4-.3-9.8s.1-9.8.3-9.8c.1 0 .3 4.4.3 9.8-.1 5.4-.2 9.8-.3 9.8Zm2.1 0c-.1 0-.3-4.4-.3-9.8s.1-9.8.3-9.8c.1 0 .3 4.4.3 9.8s-.1 9.8-.3 9.8Zm2.2 0c-.1 0-.3-4.4-.3-9.8s.1-9.8.3-9.8c.1 0 .3 4.4.3 9.8-.1 5.4-.2 9.8-.3 9.8Zm2.1 0c-.1 0-.3-4.4-.3-9.8s.1-9.8.3-9.8c.1 0 .3 4.4.3 9.8s-.1 9.8-.3 9.8Zm2.2 0c-.1 0-.3-4.4-.3-9.8s.1-9.8.3-9.8c.1 0 .3 4.4.3 9.8-.1 5.4-.2 9.8-.3 9.8Zm2.1 0c-.1 0-.3-4.4-.3-9.8s.1-9.8.3-9.8c.2 0 .3 4.4.3 9.8s-.1 9.8-.3 9.8Zm2.2 0c-.1 0-.3-4.4-.3-9.8s.1-9.8.3-9.8c.2 0 .3 4.4.3 9.8-.1 5.4-.2 9.8-.3 9.8Zm2.1 0c-.1 0-.3-4.4-.3-9.8s.1-9.8.3-9.8c.2 0 .3 4.4.3 9.8s-.1 9.8-.3 9.8Zm2.2 0c-.1 0-.3-4.4-.3-9.8s.1-9.8.3-9.8c.2 0 .3 4.4.3 9.8-.1 5.4-.2 9.8-.3 9.8Zm2.1 0c-.1 0-.3-4.4-.3-9.8s.1-9.8.3-9.8c.2 0 .3 4.4.3 9.8s-.1 9.8-.3 9.8Zm6 0c-.1 0-.3-4.4-.3-9.8s.1-9.8.3-9.8c.2 0 .3 4.4.3 9.8s-.2 9.8-.3 9.8Zm2.2 0c-.1 0-.3-4.4-.3-9.8s.1-9.8.3-9.8c.1 0 .3 4.4.3 9.8s-.1 9.8-.3 9.8Zm2.2 0c-.1 0-.3-4.4-.3-9.8s.1-9.8.3-9.8c.2 0 .3 4.4.3 9.8s-.1 9.8-.3 9.8Zm2.2 0c-.1 0-.3-4.4-.3-9.8s.1-9.8.3-9.8c.2 0 .3 4.4.3 9.8s-.1 9.8-.3 9.8Zm2.3 0c-.1 0-.3-4.4-.3-9.8s.1-9.8.3-9.8c.1 0 .3 4.4.3 9.8-.1 5.4-.2 9.8-.3 9.8Zm2.2 0c-.1 0-.3-4.4-.3-9.8s.1-9.8.3-9.8c.2 0 .3 4.4.3 9.8-.1 5.4-.2 9.8-.3 9.8Zm2.2 0c-.1 0-.3-4.4-.3-9.8s.1-9.8.3-9.8c.2 0 .3 4.4.3 9.8s-.2 9.8-.3 9.8Zm2.2 0c-.1 0-.3-4.4-.3-9.8s.1-9.8.3-9.8c.1 0 .3 4.4.3 9.8s-.2 9.8-.3 9.8Zm2.2 0c-.1 0-.3-4.4-.3-9.8s.1-9.8.3-9.8c.1 0 .3 4.4.3 9.8s-.1 9.8-.3 9.8Zm2.2 0c-.1 0-.3-4.4-.3-9.8s.1-9.8.3-9.8c.2 0 .3 4.4.3 9.8s-.1 9.8-.3 9.8Z" fill="#263238"/><path d="M727.4 373.6h-35.3v21.9h35.3v-21.9Zm-63.7-9.4-29.2 8.8v22.1h57.6v-21.7l-28.4-9.2Z" fill="#E0E0E0"/><path d="M679.914 395.113h9.4v-13.3h-9.4v13.3Zm-44.362 0h9.401v-13.3h-9.401v13.3Zm27.726 0h14.8v-13.3h-14.8v13.3Zm-16.716 0h14.8v-13.3h-14.8v13.3Z" fill="#263238"/><path d="M663.7 364.2h43.2l20.4 9.4h-35.2l-28.4-9.4Z" fill="#FF725E"/><path d="M634.5 373s.2-.1.6-.2c.4-.1 1-.3 1.6-.5 1.5-.5 3.5-1.1 6.1-1.9 5.2-1.6 12.5-3.8 20.9-6.4h.2c3 1 6.2 2.1 9.5 3.2 6.9 2.3 13.3 4.5 18.8 6.4.1 0 .2.1.2.2 0 6.1-.1 11.3-.1 14.9 0 1.8 0 3.2-.1 4.2v1.5-1.5c0-1 0-2.4-.1-4.2 0-3.7-.1-8.8-.1-14.9l.2.2c-5.5-1.9-12-4-18.9-6.3-3.3-1.1-6.5-2.2-9.5-3.2h.2c-8.4 2.5-15.7 4.7-21 6.2-2.6.7-4.6 1.3-6.1 1.8-.7.2-1.2.3-1.6.5h-.8ZM510 223.3c-.8 0-1.5-.7-1.5-1.5v-57.6l-46.7 57.2c-.5.6-1.5.7-2.1.2-.6-.5-.7-1.5-.2-2.1l49.3-60.5c.4-.5 1.1-.7 1.7-.5.6.2 1 .8 1 1.4v61.8c0 .9-.6 1.6-1.5 1.6Z" fill="#263238"/><path d="M301.7 238.9c-.6 0-1.2-.4-1.4-1-.3-.8.1-1.6.9-1.9l208.3-77.4c.6-.2 1.3 0 1.7.4l53 61.8c.5.6.5 1.6-.2 2.1-.6.5-1.6.5-2.1-.2l-52.4-61-207.4 77.1c-.1.1-.2.1-.4.1Z" fill="#263238"/><path d="m275.9 233.3 14 8.2h330.8v-8.2H275.9Z" fill="#455A64"/><path d="M460.7 220.4h-5.5v158.7h5.5V220.4Zm57.4 0h-5.5v158.7h5.5V220.4Z" fill="#263238"/><path d="M567.4 377.8H449.3v6.4h118.1v-6.4Z" fill="#455A64"/><path d="M518.4 309.9H458v6.4h60.4v-6.4Z" fill="#263238"/><path d="M504.6 220.4h-5.5v158.7h5.5V220.4Zm58.5 1.4h-5.5v158.7h5.5V221.8Z" fill="#455A64"/><path d="M461.5 313c-.2 0-.4 0-.6-.1-.7-.4-1.1-1.3-.7-2l41.6-87.3c.4-.7 1.3-1.1 2-.7.7.4 1.1 1.3.7 2l-41.6 87.3c-.3.4-.8.8-1.4.8Zm55.5-1.6c-.2 0-.4 0-.7-.2-.7-.4-1-1.3-.7-2 1.7-3.4 40.6-82.2 41.2-83.3.4-.7 1.3-1 2-.6s1 1.3.6 2c-.6 1.1-40.7 82.4-41.1 83.2-.2.6-.8.9-1.3.9Z" fill="#263238"/><path d="M468.6 384.2h-23.7v5.7h23.7v-5.7Zm44.3-.8h-23.7v5.7h23.7v-5.7Zm56.6 0h-23.7v5.7h23.7v-5.7Z" fill="#455A64"/><path d="M573.9 389h-137v5.2h137V389Zm-7-168.6H453.1v7.4h113.8v-7.4Zm-4.6 89.5h-59.2v6.4h59.2v-6.4Z" fill="#455A64"/><path d="M340.1 251.8h-75.4v21.9h75.4v-21.9Z" fill="#FF725E"/><path opacity=".3" d="M340.1 251.8h-27v21.9h27v-21.9Z" fill="#000"/><path d="M312 272.8v-5.4c0-3.4-.1-8.3-.1-14.4l.2.2c-12 0-28.4 0-46.6.1l.3-.3v19.7l-.2-.2c13.5 0 25.1.1 33.3.1 4.1 0 7.4.1 9.7.1h3.3l.1.1h-3.5c-2.3 0-5.5 0-9.6.1-8.3 0-20 .1-33.5.1h-.2v-19.9l.3-.3c18.1 0 34.6.1 46.6.1h.2v.2c0 6.1-.1 11.1-.1 14.5v4.9c-.1.2-.2.3-.2.3Zm26.8 0v-1.5c0-1 0-2.3-.1-4 0-3.5-.1-8.4-.1-14.3l.2.2h-24.5l.3-.3v19.7l-.2-.2c7.2 0 13.3.1 17.7.1 2.1 0 3.8 0 5 .1h1.3c.2.2.4.2.4.2h-1.7c-1.2 0-2.9 0-5 .1-4.4 0-10.5.1-17.8.1h-.2v-19.9l.3-.3h24.7v.2c0 6-.1 10.9-.1 14.4 0 1.7 0 3-.1 4v1c-.1.3-.1.4-.1.4Z" fill="#263238"/><path d="M267.3 272.6c-.1 0-.3-4.4-.3-9.8s.1-9.8.3-9.8c.1 0 .3 4.4.3 9.8s-.2 9.8-.3 9.8Zm2.1 0c-.1 0-.3-4.4-.3-9.8s.1-9.8.3-9.8c.1 0 .3 4.4.3 9.8s-.1 9.8-.3 9.8Zm2.2 0c-.1 0-.3-4.4-.3-9.8s.1-9.8.3-9.8c.1 0 .3 4.4.3 9.8s-.2 9.8-.3 9.8Zm2.1 0c-.1 0-.3-4.4-.3-9.8s.1-9.8.3-9.8c.2 0 .3 4.4.3 9.8s-.1 9.8-.3 9.8Zm2.2 0c-.1 0-.3-4.4-.3-9.8s.1-9.8.3-9.8c.2 0 .3 4.4.3 9.8s-.2 9.8-.3 9.8Zm2.1 0c-.1 0-.3-4.4-.3-9.8s.1-9.8.3-9.8c.2 0 .3 4.4.3 9.8s-.1 9.8-.3 9.8Zm2.2 0c-.1 0-.3-4.4-.3-9.8s.1-9.8.3-9.8c.1 0 .3 4.4.3 9.8s-.2 9.8-.3 9.8Zm2.1 0c-.1 0-.3-4.4-.3-9.8s.1-9.8.3-9.8c.2 0 .3 4.4.3 9.8s-.1 9.8-.3 9.8Zm2.2 0c-.1 0-.3-4.4-.3-9.8s.1-9.8.3-9.8c.1 0 .3 4.4.3 9.8s-.2 9.8-.3 9.8Zm2.1 0c-.1 0-.3-4.4-.3-9.8s.1-9.8.3-9.8c.1 0 .3 4.4.3 9.8s-.1 9.8-.3 9.8Zm2.2 0c-.1 0-.3-4.4-.3-9.8s.1-9.8.3-9.8c.1 0 .3 4.4.3 9.8s-.2 9.8-.3 9.8Zm2.1 0c-.1 0-.3-4.4-.3-9.8s.1-9.8.3-9.8c.1 0 .3 4.4.3 9.8s-.1 9.8-.3 9.8Zm2.2 0c-.1 0-.3-4.4-.3-9.8s.1-9.8.3-9.8c.1 0 .3 4.4.3 9.8s-.2 9.8-.3 9.8Zm2.1 0c-.1 0-.3-4.4-.3-9.8s.1-9.8.3-9.8c.1 0 .3 4.4.3 9.8s-.1 9.8-.3 9.8Zm2.2 0c-.1 0-.3-4.4-.3-9.8s.1-9.8.3-9.8c.1 0 .3 4.4.3 9.8s-.2 9.8-.3 9.8Zm2.1 0c-.1 0-.3-4.4-.3-9.8s.1-9.8.3-9.8c.2 0 .3 4.4.3 9.8s-.1 9.8-.3 9.8Zm2.2 0c-.1 0-.3-4.4-.3-9.8s.1-9.8.3-9.8c.1 0 .3 4.4.3 9.8s-.2 9.8-.3 9.8Zm2.1 0c-.1 0-.3-4.4-.3-9.8s.1-9.8.3-9.8c.2 0 .3 4.4.3 9.8s-.1 9.8-.3 9.8Zm2.2 0c-.1 0-.3-4.4-.3-9.8s.1-9.8.3-9.8c.2 0 .3 4.4.3 9.8s-.2 9.8-.3 9.8Zm2.2 0c-.1 0-.3-4.4-.3-9.8s.1-9.8.3-9.8c.2 0 .3 4.4.3 9.8-.1 5.4-.2 9.8-.3 9.8Zm2.1 0c-.1 0-.3-4.4-.3-9.8s.1-9.8.3-9.8c.2 0 .3 4.4.3 9.8s-.2 9.8-.3 9.8Zm6 0c-.1 0-.3-4.4-.3-9.8s.1-9.8.3-9.8c.2 0 .3 4.4.3 9.8-.1 5.4-.2 9.8-.3 9.8Zm2.2 0c-.1 0-.3-4.4-.3-9.8s.1-9.8.3-9.8c.1 0 .3 4.4.3 9.8-.1 5.4-.2 9.8-.3 9.8Zm2.2 0c-.1 0-.3-4.4-.3-9.8s.1-9.8.3-9.8c.1 0 .3 4.4.3 9.8s-.2 9.8-.3 9.8Zm2.2 0c-.1 0-.3-4.4-.3-9.8s.1-9.8.3-9.8c.2 0 .3 4.4.3 9.8s-.1 9.8-.3 9.8Zm2.2 0c-.1 0-.3-4.4-.3-9.8s.1-9.8.3-9.8c.2 0 .3 4.4.3 9.8s-.1 9.8-.3 9.8Zm2.2 0c-.1 0-.3-4.4-.3-9.8s.1-9.8.3-9.8c.1 0 .3 4.4.3 9.8s-.1 9.8-.3 9.8Zm2.3 0c-.1 0-.3-4.4-.3-9.8s.1-9.8.3-9.8c.2 0 .3 4.4.3 9.8-.1 5.4-.2 9.8-.3 9.8Zm2.2 0c-.1 0-.3-4.4-.3-9.8s.1-9.8.3-9.8c.1 0 .3 4.4.3 9.8-.1 5.4-.2 9.8-.3 9.8Zm2.2 0c-.1 0-.3-4.4-.3-9.8s.1-9.8.3-9.8c.1 0 .3 4.4.3 9.8-.1 5.4-.2 9.8-.3 9.8Zm2.2 0c-.1 0-.3-4.4-.3-9.8s.1-9.8.3-9.8c.1 0 .3 4.4.3 9.8s-.2 9.8-.3 9.8Z" fill="#263238"/><path d="M320.7 248.8h-38v3h38v-3Z" fill="#455A64"/><path d="M302.4 251.5h-25.6v4.2h25.6v-4.2Zm-5.5-10.7h-4.2v8.4h4.2v-8.4Zm430.4 153.5H324.2v35.8h403.1v-35.8Z" fill="#455A64"/><path d="M727.3 394.3h-419v12.6h419v-12.6Z" fill="#455A64"/><path d="M727.3 406.9c0-.4 0-4.1-.1-12.6l.1.1c-44.1 0-215 .1-419 .2l.3-.3v12.6l-.3-.3c232.7.2 416.2.3 419 .3-2.8 0-186.3.1-419 .3-.1 0-.3-.1-.3-.3v-12.6c0-.1.1-.3.3-.3 203.9.1 374.9.2 419 .2 0 0 .1 0 .1.1-.1 8.5-.1 12.2-.1 12.6Z" fill="#263238"/><path d="M401.3 430c-.1 0-.3-5.2-.3-11.6 0-6.4.1-11.6.3-11.6.2 0 .3 5.2.3 11.6 0 6.5-.2 11.6-.3 11.6Zm-4.3-17.2c0 .7-.6 1.2-1.2 1.2-.7 0-1.2-.6-1.2-1.2 0-.7.6-1.2 1.2-1.2.6-.1 1.2.5 1.2 1.2Zm72.7 17.2c-.1 0-.3-5.2-.3-11.6 0-6.4.1-11.6.3-11.6.2 0 .3 5.2.3 11.6-.1 6.5-.2 11.6-.3 11.6Zm-4.4-17.2c0 .7-.6 1.2-1.2 1.2-.7 0-1.2-.6-1.2-1.2 0-.7.6-1.2 1.2-1.2.7-.1 1.2.5 1.2 1.2ZM538 430c-.1 0-.3-5.2-.3-11.6 0-6.4.1-11.6.3-11.6.1 0 .3 5.2.3 11.6 0 6.5-.1 11.6-.3 11.6Zm-4.3-17.2c0 .7-.6 1.2-1.2 1.2-.7 0-1.2-.6-1.2-1.2 0-.7.6-1.2 1.2-1.2.6-.1 1.2.5 1.2 1.2Zm72.7 17.2c-.1 0-.3-5.2-.3-11.6 0-6.4.1-11.6.3-11.6.1 0 .3 5.2.3 11.6 0 6.5-.1 11.6-.3 11.6Zm-4.3-17.2c0 .7-.6 1.2-1.2 1.2-.7 0-1.2-.6-1.2-1.2 0-.7.6-1.2 1.2-1.2.6-.1 1.2.5 1.2 1.2Z" fill="#263238"/><path opacity=".3" d="m324.2 408.8 403.1 4v-5.9H324.2v1.9Z" fill="#000"/><path d="M583.5 372.5h-75.4v21.9h75.4v-21.9Z" fill="#FF725E"/><path opacity=".3" d="M583.5 372.5h-27v21.9h27v-21.9Z" fill="#000"/><path d="M555.4 393.5v-5.4c0-3.4-.1-8.3-.1-14.4l.2.2c-12 0-28.4 0-46.6.1l.3-.3v19.7l-.2-.2c13.5 0 25.1.1 33.3.1 4.1 0 7.4.1 9.7.1h3.3c0 .1.1.1.1.1h-3.5c-2.3 0-5.5 0-9.6.1-8.3 0-20 .1-33.5.1h-.2v-20l.3-.3c18.1 0 34.6.1 46.6.1h.2v.2c0 6.1-.1 11.1-.1 14.5v4.9c-.2.3-.2.4-.2.4Zm26.8 0V392c0-1 0-2.3-.1-4 0-3.5-.1-8.4-.1-14.3l.2.2h-24.5l.3-.3v19.7l-.2-.2c7.2 0 13.3.1 17.7.1 2.1 0 3.8 0 5 .1h1.3c.2.2.4.2.4.2h-1.7c-1.2 0-2.9 0-5 .1-4.4 0-10.5.1-17.8.1h-.2v-20l.3-.3h24.7v.2c0 6-.1 10.9-.1 14.4 0 1.7 0 3-.1 4v1c-.1.4-.1.5-.1.5Z" fill="#263238"/><path d="M510.7 393.3c-.1 0-.3-4.4-.3-9.8s.1-9.8.3-9.8c.1 0 .3 4.4.3 9.8-.1 5.4-.2 9.8-.3 9.8Zm2.1 0c-.1 0-.3-4.4-.3-9.8s.1-9.8.3-9.8c.1 0 .3 4.4.3 9.8s-.1 9.8-.3 9.8Zm2.2 0c-.1 0-.3-4.4-.3-9.8s.1-9.8.3-9.8c.2 0 .3 4.4.3 9.8-.1 5.4-.2 9.8-.3 9.8Zm2.1 0c-.1 0-.3-4.4-.3-9.8s.1-9.8.3-9.8c.2 0 .3 4.4.3 9.8s-.1 9.8-.3 9.8Zm2.2 0c-.1 0-.3-4.4-.3-9.8s.1-9.8.3-9.8c.2 0 .3 4.4.3 9.8-.1 5.4-.2 9.8-.3 9.8Zm2.1 0c-.1 0-.3-4.4-.3-9.8s.1-9.8.3-9.8c.2 0 .3 4.4.3 9.8s-.1 9.8-.3 9.8Zm2.2 0c-.1 0-.3-4.4-.3-9.8s.1-9.8.3-9.8c.1 0 .3 4.4.3 9.8-.1 5.4-.2 9.8-.3 9.8Zm2.1 0c-.1 0-.3-4.4-.3-9.8s.1-9.8.3-9.8c.2 0 .3 4.4.3 9.8s-.1 9.8-.3 9.8Zm2.2 0c-.1 0-.3-4.4-.3-9.8s.1-9.8.3-9.8c.1 0 .3 4.4.3 9.8-.1 5.4-.2 9.8-.3 9.8Zm2.1 0c-.1 0-.3-4.4-.3-9.8s.1-9.8.3-9.8c.1 0 .3 4.4.3 9.8s-.1 9.8-.3 9.8Zm2.2 0c-.1 0-.3-4.4-.3-9.8s.1-9.8.3-9.8c.1 0 .3 4.4.3 9.8-.1 5.4-.2 9.8-.3 9.8Zm2.1 0c-.1 0-.3-4.4-.3-9.8s.1-9.8.3-9.8c.1 0 .3 4.4.3 9.8s-.1 9.8-.3 9.8Zm2.2 0c-.1 0-.3-4.4-.3-9.8s.1-9.8.3-9.8c.1 0 .3 4.4.3 9.8-.1 5.4-.2 9.8-.3 9.8Zm2.1 0c-.1 0-.3-4.4-.3-9.8s.1-9.8.3-9.8c.1 0 .3 4.4.3 9.8s-.1 9.8-.3 9.8Zm2.2 0c-.1 0-.3-4.4-.3-9.8s.1-9.8.3-9.8c.1 0 .3 4.4.3 9.8-.1 5.4-.2 9.8-.3 9.8Zm2.1 0c-.1 0-.3-4.4-.3-9.8s.1-9.8.3-9.8c.2 0 .3 4.4.3 9.8s-.1 9.8-.3 9.8Zm2.2 0c-.1 0-.3-4.4-.3-9.8s.1-9.8.3-9.8c.2 0 .3 4.4.3 9.8-.1 5.4-.2 9.8-.3 9.8Zm2.1 0c-.1 0-.3-4.4-.3-9.8s.1-9.8.3-9.8c.2 0 .3 4.4.3 9.8s-.1 9.8-.3 9.8Zm2.2 0c-.1 0-.3-4.4-.3-9.8s.1-9.8.3-9.8c.2 0 .3 4.4.3 9.8-.1 5.4-.2 9.8-.3 9.8Zm2.1 0c-.1 0-.3-4.4-.3-9.8s.1-9.8.3-9.8c.2 0 .3 4.4.3 9.8s-.1 9.8-.3 9.8Zm2.2 0c-.1 0-.3-4.4-.3-9.8s.1-9.8.3-9.8c.1 0 .3 4.4.3 9.8-.1 5.4-.2 9.8-.3 9.8Zm5.9 0c-.1 0-.3-4.4-.3-9.8s.1-9.8.3-9.8c.1 0 .3 4.4.3 9.8s-.1 9.8-.3 9.8Zm2.3 0c-.1 0-.3-4.4-.3-9.8s.1-9.8.3-9.8c.2 0 .3 4.4.3 9.8-.1 5.4-.2 9.8-.3 9.8Zm2.2 0c-.1 0-.3-4.4-.3-9.8s.1-9.8.3-9.8c.1 0 .3 4.4.3 9.8-.1 5.4-.2 9.8-.3 9.8Zm2.2 0c-.1 0-.3-4.4-.3-9.8s.1-9.8.3-9.8c.2 0 .3 4.4.3 9.8-.1 5.4-.2 9.8-.3 9.8Zm2.2 0c-.1 0-.3-4.4-.3-9.8s.1-9.8.3-9.8c.2 0 .3 4.4.3 9.8s-.2 9.8-.3 9.8Zm2.2 0c-.1 0-.3-4.4-.3-9.8s.1-9.8.3-9.8c.1 0 .3 4.4.3 9.8s-.1 9.8-.3 9.8Zm2.2 0c-.1 0-.3-4.4-.3-9.8s.1-9.8.3-9.8c.2 0 .3 4.4.3 9.8s-.1 9.8-.3 9.8Zm2.2 0c-.1 0-.3-4.4-.3-9.8s.1-9.8.3-9.8c.1 0 .3 4.4.3 9.8s-.1 9.8-.3 9.8Zm2.3 0c-.1 0-.3-4.4-.3-9.8s.1-9.8.3-9.8c.1 0 .3 4.4.3 9.8-.1 5.4-.2 9.8-.3 9.8Zm2.2 0c-.1 0-.3-4.4-.3-9.8s.1-9.8.3-9.8c.2 0 .3 4.4.3 9.8-.1 5.4-.2 9.8-.3 9.8Z" fill="#263238"/><path d="M598.4 349H523v21.9h75.4V349Z" fill="#E0E0E0"/><path opacity=".3" d="M598.4 349h-27v21.9h27V349Z" fill="#000"/><path d="M570.3 370v-5.4c0-3.4-.1-8.3-.1-14.4l.2.2c-12 0-28.4 0-46.6.1l.3-.3v19.7l-.2-.2c13.5 0 25.1.1 33.3.1 4.1 0 7.4.1 9.7.1h3.3c0 .1.1.1.1.1h-3.5c-2.3 0-5.5 0-9.6.1-8.3 0-20 .1-33.5.1h-.2v-19.9l.3-.3c18.1 0 34.6.1 46.6.1h.2v.2c0 6.1-.1 11.1-.1 14.5v4.9c-.2.2-.2.3-.2.3Zm26.8 0v-1.5c0-1 0-2.3-.1-4 0-3.5-.1-8.4-.1-14.3l.2.2h-24.5l.3-.3v19.7l-.2-.2c7.2 0 13.3.1 17.7.1 2.1 0 3.8 0 5 .1h1.3c.2.2.4.2.4.2h-1.7c-1.2 0-2.9 0-5 .1-4.4 0-10.5.1-17.8.1h-.2v-19.9l.3-.3h24.7v.2c0 6-.1 10.9-.1 14.4 0 1.7 0 3-.1 4v1c-.1.3-.1.4-.1.4Z" fill="#263238"/><path d="M525.6 369.8c-.1 0-.3-4.4-.3-9.8s.1-9.8.3-9.8c.2 0 .3 4.4.3 9.8-.1 5.4-.2 9.8-.3 9.8Zm2.1 0c-.1 0-.3-4.4-.3-9.8s.1-9.8.3-9.8c.1 0 .3 4.4.3 9.8s-.1 9.8-.3 9.8Zm2.2 0c-.1 0-.3-4.4-.3-9.8s.1-9.8.3-9.8c.1 0 .3 4.4.3 9.8-.1 5.4-.2 9.8-.3 9.8Zm2.1 0c-.1 0-.3-4.4-.3-9.8s.1-9.8.3-9.8c.2 0 .3 4.4.3 9.8s-.1 9.8-.3 9.8Zm2.2 0c-.1 0-.3-4.4-.3-9.8s.1-9.8.3-9.8c.1 0 .3 4.4.3 9.8-.1 5.4-.2 9.8-.3 9.8Zm2.1 0c-.1 0-.3-4.4-.3-9.8s.1-9.8.3-9.8c.1 0 .3 4.4.3 9.8s-.1 9.8-.3 9.8Zm2.2 0c-.1 0-.3-4.4-.3-9.8s.1-9.8.3-9.8c.1 0 .3 4.4.3 9.8-.1 5.4-.2 9.8-.3 9.8Zm2.1 0c-.1 0-.3-4.4-.3-9.8s.1-9.8.3-9.8c.1 0 .3 4.4.3 9.8s-.1 9.8-.3 9.8Zm2.2 0c-.1 0-.3-4.4-.3-9.8s.1-9.8.3-9.8c.1 0 .3 4.4.3 9.8-.1 5.4-.2 9.8-.3 9.8Zm2.1 0c-.1 0-.3-4.4-.3-9.8s.1-9.8.3-9.8c.2 0 .3 4.4.3 9.8s-.1 9.8-.3 9.8Zm2.2 0c-.1 0-.3-4.4-.3-9.8s.1-9.8.3-9.8c.2 0 .3 4.4.3 9.8-.1 5.4-.2 9.8-.3 9.8Zm2.1 0c-.1 0-.3-4.4-.3-9.8s.1-9.8.3-9.8c.2 0 .3 4.4.3 9.8s-.1 9.8-.3 9.8Zm2.2 0c-.1 0-.3-4.4-.3-9.8s.1-9.8.3-9.8c.2 0 .3 4.4.3 9.8-.1 5.4-.2 9.8-.3 9.8Zm2.1 0c-.1 0-.3-4.4-.3-9.8s.1-9.8.3-9.8c.2 0 .3 4.4.3 9.8s-.1 9.8-.3 9.8Zm2.2 0c-.1 0-.3-4.4-.3-9.8s.1-9.8.3-9.8c.1 0 .3 4.4.3 9.8-.1 5.4-.2 9.8-.3 9.8Zm2.1 0c-.1 0-.3-4.4-.3-9.8s.1-9.8.3-9.8c.2 0 .3 4.4.3 9.8s-.1 9.8-.3 9.8Zm2.2 0c-.1 0-.3-4.4-.3-9.8s.1-9.8.3-9.8c.1 0 .3 4.4.3 9.8-.1 5.4-.2 9.8-.3 9.8Zm2.1 0c-.1 0-.3-4.4-.3-9.8s.1-9.8.3-9.8c.1 0 .3 4.4.3 9.8s-.1 9.8-.3 9.8Zm2.2 0c-.1 0-.3-4.4-.3-9.8s.1-9.8.3-9.8c.1 0 .3 4.4.3 9.8-.1 5.4-.2 9.8-.3 9.8Zm2.1 0c-.1 0-.3-4.4-.3-9.8s.1-9.8.3-9.8c.1 0 .3 4.4.3 9.8s-.1 9.8-.3 9.8Zm2.2 0c-.1 0-.3-4.4-.3-9.8s.1-9.8.3-9.8c.1 0 .3 4.4.3 9.8-.1 5.4-.2 9.8-.3 9.8Zm6 0c-.1 0-.3-4.4-.3-9.8s.1-9.8.3-9.8c.1 0 .3 4.4.3 9.8-.1 5.4-.2 9.8-.3 9.8Zm2.2 0c-.1 0-.3-4.4-.3-9.8s.1-9.8.3-9.8c.2 0 .3 4.4.3 9.8-.1 5.4-.2 9.8-.3 9.8Zm2.2 0c-.1 0-.3-4.4-.3-9.8s.1-9.8.3-9.8c.2 0 .3 4.4.3 9.8-.1 5.4-.2 9.8-.3 9.8Zm2.2 0c-.1 0-.3-4.4-.3-9.8s.1-9.8.3-9.8c.1 0 .3 4.4.3 9.8s-.2 9.8-.3 9.8Zm2.2 0c-.1 0-.3-4.4-.3-9.8s.1-9.8.3-9.8c.2 0 .3 4.4.3 9.8s-.1 9.8-.3 9.8Zm2.2 0c-.1 0-.3-4.4-.3-9.8s.1-9.8.3-9.8c.2 0 .3 4.4.3 9.8s-.1 9.8-.3 9.8Zm2.2 0c-.1 0-.3-4.4-.3-9.8s.1-9.8.3-9.8c.1 0 .3 4.4.3 9.8s-.1 9.8-.3 9.8Zm2.3 0c-.1 0-.3-4.4-.3-9.8s.1-9.8.3-9.8c.1 0 .3 4.4.3 9.8-.1 5.4-.2 9.8-.3 9.8Zm2.2 0c-.1 0-.3-4.4-.3-9.8s.1-9.8.3-9.8c.2 0 .3 4.4.3 9.8-.1 5.4-.2 9.8-.3 9.8Zm2.2 0c-.1 0-.3-4.4-.3-9.8s.1-9.8.3-9.8c.1 0 .3 4.4.3 9.8s-.2 9.8-.3 9.8Z" fill="#263238"/><path d="M440.6 372.5h-75.4v21.9h75.4v-21.9Z" fill="#FF725E"/><path opacity=".3" d="M440.6 372.5h-27v21.9h27v-21.9Z" fill="#000"/><path d="M412.5 393.6v-5.4c0-3.4-.1-8.3-.1-14.4l.2.2c-12 0-28.4 0-46.6.1l.3-.3v19.7l-.2-.2c13.5 0 25.1.1 33.3.1 4.1 0 7.4.1 9.7.1h3.3c.1 0 .1.1.1.1H409c-2.3 0-5.5 0-9.6.1-8.3 0-20 .1-33.5.1h-.2v-19.9l.3-.3c18.1 0 34.6.1 46.6.1h.2v.2c0 6.1-.1 11.1-.1 14.5v4.9c-.1.2-.2.3-.2.3Zm26.8 0v-1.5c0-1 0-2.3-.1-4 0-3.5-.1-8.4-.1-14.3l.2.2h-24.5l.3-.3v19.7l-.2-.2c7.2 0 13.3.1 17.7.1 2.1 0 3.8 0 5 .1h1.3c.2.1.4.1.4.2h-1.7c-1.2 0-2.9 0-5 .1-4.4 0-10.5.1-17.8.1h-.2v-19.9l.3-.3h24.7v.2c0 6-.1 10.9-.1 14.4 0 1.7 0 3-.1 4v1c-.1.3-.1.4-.1.4Z" fill="#263238"/><path d="M367.8 393.4c-.1 0-.3-4.4-.3-9.8s.1-9.8.3-9.8c.1 0 .3 4.4.3 9.8s-.2 9.8-.3 9.8Zm2.1 0c-.1 0-.3-4.4-.3-9.8s.1-9.8.3-9.8c.2 0 .3 4.4.3 9.8s-.1 9.8-.3 9.8Zm2.2 0c-.1 0-.3-4.4-.3-9.8s.1-9.8.3-9.8c.1 0 .3 4.4.3 9.8s-.2 9.8-.3 9.8Zm2.1 0c-.1 0-.3-4.4-.3-9.8s.1-9.8.3-9.8c.1 0 .3 4.4.3 9.8s-.1 9.8-.3 9.8Zm2.2 0c-.1 0-.3-4.4-.3-9.8s.1-9.8.3-9.8c.1 0 .3 4.4.3 9.8s-.2 9.8-.3 9.8Zm2.1 0c-.1 0-.3-4.4-.3-9.8s.1-9.8.3-9.8c.1 0 .3 4.4.3 9.8s-.1 9.8-.3 9.8Zm2.2 0c-.1 0-.3-4.4-.3-9.8s.1-9.8.3-9.8c.1 0 .3 4.4.3 9.8s-.2 9.8-.3 9.8Zm2.1 0c-.1 0-.3-4.4-.3-9.8s.1-9.8.3-9.8c.2 0 .3 4.4.3 9.8s-.1 9.8-.3 9.8Zm2.2 0c-.1 0-.3-4.4-.3-9.8s.1-9.8.3-9.8c.2 0 .3 4.4.3 9.8s-.2 9.8-.3 9.8Zm2.2 0c-.1 0-.3-4.4-.3-9.8s.1-9.8.3-9.8c.2 0 .3 4.4.3 9.8-.1 5.4-.2 9.8-.3 9.8Zm2.1 0c-.1 0-.3-4.4-.3-9.8s.1-9.8.3-9.8c.2 0 .3 4.4.3 9.8s-.2 9.8-.3 9.8Zm2.2 0c-.1 0-.3-4.4-.3-9.8s.1-9.8.3-9.8c.2 0 .3 4.4.3 9.8-.1 5.4-.2 9.8-.3 9.8Zm2.1 0c-.1 0-.3-4.4-.3-9.8s.1-9.8.3-9.8c.1 0 .3 4.4.3 9.8s-.2 9.8-.3 9.8Zm2.2 0c-.1 0-.3-4.4-.3-9.8s.1-9.8.3-9.8c.1 0 .3 4.4.3 9.8-.1 5.4-.2 9.8-.3 9.8Zm2.1 0c-.1 0-.3-4.4-.3-9.8s.1-9.8.3-9.8c.1 0 .3 4.4.3 9.8s-.2 9.8-.3 9.8Zm2.2 0c-.1 0-.3-4.4-.3-9.8s.1-9.8.3-9.8c.1 0 .3 4.4.3 9.8-.1 5.4-.2 9.8-.3 9.8Zm2.1 0c-.1 0-.3-4.4-.3-9.8s.1-9.8.3-9.8c.1 0 .3 4.4.3 9.8s-.2 9.8-.3 9.8Zm2.2 0c-.1 0-.3-4.4-.3-9.8s.1-9.8.3-9.8c.1 0 .3 4.4.3 9.8-.1 5.4-.2 9.8-.3 9.8Zm2.1 0c-.1 0-.3-4.4-.3-9.8s.1-9.8.3-9.8c.1 0 .3 4.4.3 9.8s-.2 9.8-.3 9.8Zm2.2 0c-.1 0-.3-4.4-.3-9.8s.1-9.8.3-9.8c.2 0 .3 4.4.3 9.8-.1 5.4-.2 9.8-.3 9.8Zm2.1 0c-.1 0-.3-4.4-.3-9.8s.1-9.8.3-9.8c.1 0 .3 4.4.3 9.8s-.1 9.8-.3 9.8Zm6 0c-.1 0-.3-4.4-.3-9.8s.1-9.8.3-9.8c.2 0 .3 4.4.3 9.8-.1 5.4-.2 9.8-.3 9.8Zm2.2 0c-.1 0-.3-4.4-.3-9.8s.1-9.8.3-9.8c.1 0 .3 4.4.3 9.8s-.2 9.8-.3 9.8Zm2.2 0c-.1 0-.3-4.4-.3-9.8s.1-9.8.3-9.8c.2 0 .3 4.4.3 9.8s-.2 9.8-.3 9.8Zm2.2 0c-.1 0-.3-4.4-.3-9.8s.1-9.8.3-9.8c.2 0 .3 4.4.3 9.8s-.1 9.8-.3 9.8Zm2.2 0c-.1 0-.3-4.4-.3-9.8s.1-9.8.3-9.8c.1 0 .3 4.4.3 9.8s-.1 9.8-.3 9.8Zm2.2 0c-.1 0-.3-4.4-.3-9.8s.1-9.8.3-9.8c.2 0 .3 4.4.3 9.8s-.1 9.8-.3 9.8Zm2.3 0c-.1 0-.3-4.4-.3-9.8s.1-9.8.3-9.8c.2 0 .3 4.4.3 9.8-.1 5.4-.2 9.8-.3 9.8Zm2.2 0c-.1 0-.3-4.4-.3-9.8s.1-9.8.3-9.8c.1 0 .3 4.4.3 9.8-.1 5.4-.2 9.8-.3 9.8Zm2.2 0c-.1 0-.3-4.4-.3-9.8s.1-9.8.3-9.8c.2 0 .3 4.4.3 9.8s-.2 9.8-.3 9.8Zm2.2 0c-.1 0-.3-4.4-.3-9.8s.1-9.8.3-9.8c.1 0 .3 4.4.3 9.8s-.1 9.8-.3 9.8Z" fill="#263238"/><path d="M628.9 347.7h-23.1v7.1h23.1v-7.1Z" fill="#455A64"/><path d="M617.3 354.8h-11.2v1.8h11.2v-1.8Zm3.6 1.8h-14.8v1.8h14.8v-1.8Z" fill="#263238"/><path d="M603.6 359.1h-1.7v17.3h1.7v-17.3Zm14.4 0h-1.7v17.3h1.7v-17.3Zm-6.5 0h-1.7v17.3h1.7v-17.3Zm14.4 0h-1.7v17.3h1.7v-17.3Z" fill="#E0E0E0"/><path opacity=".3" d="M611.5 359.1h-1.7v17.3h1.7v-17.3Zm14.4 0h-1.7v17.3h1.7v-17.3Z" fill="#000"/><path d="M626.5 358.3h-25.4v1.6h25.4v-1.6Z" fill="#E0E0E0"/><path d="M616.8 376.3c-14-16.3-14-16.5-14-16.7h1-.5l.4-.2c.4.6 8.4 10.1 13.8 16.3l-.7.6Z" fill="#E0E0E0"/><path d="M603.6 376.9h-1.7v17.3h1.7v-17.3Z" fill="#455A64"/><path d="M603.7 394.3H602V377h1.7v17.3Zm-1.7-.1h1.7V377H602v17.2Z" fill="#263238"/><path d="M618 376.9h-1.7v17.3h1.7v-17.3Z" fill="#455A64"/><path d="M618 394.3h-1.7V377h1.7v17.3Zm-1.7-.1h1.7V377h-1.7v17.2Z" fill="#263238"/><path d="M611.5 376.9h-1.7v17.3h1.7v-17.3Z" fill="#455A64"/><path d="M611.6 394.3h-1.7V377h1.7v17.3Zm-1.8-.1h1.7V377h-1.7v17.2Z" fill="#263238"/><path d="M625.9 376.9h-1.7v17.3h1.7v-17.3Z" fill="#455A64"/><path d="M625.9 394.3h-1.7V377h1.7v17.3Zm-1.7-.1h1.7V377h-1.7v17.2Z" fill="#263238"/><path d="M626.5 376.1h-25.4v1.6h25.4v-1.6Z" fill="#455A64"/><path d="M626.5 377.8h-25.4v-1.6h25.4v1.6c0-.1 0 0 0 0Zm-25.4-.1h25.4v-1.6h-25.4v1.6Z" fill="#263238"/><path d="M616.8 394.1c-14-16.3-14-16.5-14-16.7h1-.5l.4-.2c.4.6 8.4 10.1 13.8 16.3l-.7.6Zm9.1-53.8h-13.5v7.4h13.5v-7.4Z" fill="#455A64"/><path d="m623.2 341.3-22.5-47.4-4.4 1.4 20.8 46h6.1Z" fill="#455A64"/><path d="m607.3 293.2-32.5 15.5-1.1-1.9 32.4-15.6 1.2 2Z" fill="#455A64"/><path d="M595.3 295.2c0 2.2 1.8 4 4 4s4-1.8 4-4-1.8-4-4-4-4 1.8-4 4Z" fill="#455A64"/><path d="M573.5 336.7c-.4 0-.8-.1-1.1-.3-.6-.4-1-1-1-1.9 0-.8.3-1.4.7-1.8.4-.3.9-.4 1.3-.4l.1-23.6c0-.3.2-.5.5-.5s.5.2.5.5l-.1 24.2c0 .2-.1.3-.2.4-.1.1-.3.1-.4.1-.2 0-.7-.1-1.1.2-.2.2-.4.5-.4 1s.2.8.5 1c.3.2.8.2 1.2 0 .2-.1.3-.3.3-.5 0-.3.2-.5.5-.5s.5.2.5.5c0 .6-.3 1.1-.8 1.4-.2.1-.6.2-1 .2Z" fill="#263238"/><path d="M571.9 320.3c0 1.3 1 2.3 2.3 2.3 1.3 0 2.3-1 2.3-2.3 0-1.3-1-2.3-2.3-2.3-1.3 0-2.3 1.1-2.3 2.3Z" fill="#455A64"/><path d="M625.8 341.9c-.2 0-.4-.1-.5-.3L607.1 292l-14.4-6.5-18.6 21.6c-.2.2-.5.2-.7.1-.2-.2-.2-.5-.1-.7l18.8-21.9c.1-.2.4-.2.6-.1l14.9 6.8.3.3 18.3 49.8c.1.3 0 .5-.3.6 0-.1 0-.1-.1-.1Zm-20 5.8s.4-6.8 6.7-7.4l.3 7.5-7-.1Z" fill="#263238"/><path d="M571.6 308.2c0 1.3 1 2.3 2.3 2.3 1.3 0 2.3-1 2.3-2.3 0-1.3-1-2.3-2.3-2.3-1.3 0-2.3 1-2.3 2.3Zm18.9-23.3c0 1.2.9 2.1 2.1 2.1 1.2 0 2.1-.9 2.1-2.1 0-1.2-.9-2.1-2.1-2.1-1.2 0-2.1.9-2.1 2.1Zm15 7.1c0 1.2.9 2.1 2.1 2.1 1.2 0 2.1-.9 2.1-2.1 0-1.2-.9-2.1-2.1-2.1-1.1 0-2.1.9-2.1 2.1Z" fill="#455A64"/><path d="m577.6 326-1.3-1.7h-4.7l-1.2 1.9 2.8 4.2h2l2.4-4.4Z" fill="#FF725E"/><path d="m576.3 324.3-5 3.3 1.2 1.8 4.9-3.1.2-.3-1.3-1.7Z" fill="#fff"/><path d="M395.7 426.6a1.2 1.2 0 1 0 0-2.4 1.2 1.2 0 0 0 0 2.4Zm69.6-1.2c0 .7-.6 1.2-1.2 1.2-.7 0-1.2-.6-1.2-1.2 0-.7.6-1.2 1.2-1.2.7 0 1.2.5 1.2 1.2Zm67.2 1.2a1.2 1.2 0 1 0 0-2.4 1.2 1.2 0 0 0 0 2.4Zm69.6-1.2c0 .7-.6 1.2-1.2 1.2-.7 0-1.2-.6-1.2-1.2 0-.7.6-1.2 1.2-1.2s1.2.5 1.2 1.2Z" fill="#263238"/><path d="m167.163 452.212 3.163-1.498-10.186-21.51-3.163 1.498 10.186 21.51Z" fill="#455A64"/><path d="M160.2 429.1c.1 0 1.9 3.6 4 8.1 2.2 4.5 3.8 8.2 3.7 8.2-.1 0-1.9-3.6-4-8.1-2.2-4.5-3.8-8.2-3.7-8.2Zm-1.1 5.8c.1 0 1.9 3.6 4 8.1s3.8 8.2 3.7 8.2c-.1 0-1.9-3.6-4-8.1-2.1-4.4-3.8-8.1-3.7-8.2Z" fill="#263238"/><path d="m172.678 433.714-2.451-2.498-16.988 16.667 2.451 2.498 16.988-16.667Z" fill="#455A64"/><path d="M170.3 431.1c.1.1-2.8 2.9-6.3 6.4-3.6 3.5-6.5 6.2-6.6 6.2-.1-.1 2.8-2.9 6.3-6.4 3.6-3.5 6.5-6.2 6.6-6.2Zm-1.1 5.9c.1.1-2.7 2.9-6.3 6.4-3.5 3.5-6.5 6.3-6.5 6.2-.1-.1 2.7-2.9 6.3-6.4 3.5-3.5 6.5-6.3 6.5-6.2Z" fill="#263238"/><path d="m169.9 427.7-8.2-1.5c-1.6-.3-2.6-1.8-2.3-3.3l1.5-8.4c.5-3 3.4-5 6.4-4.5l3 .5c3 .5 5 3.4 4.5 6.4l-1.5 8.4c-.3 1.7-1.8 2.7-3.4 2.4Z" fill="#455A64"/><path d="m174.122 420.655-13.783-2.456-.456 2.56 13.783 2.455.456-2.559Zm.794-4.812-13.783-2.455-.456 2.559 13.783 2.456.456-2.56Z" fill="#fff"/><path d="M170.9 427.9h.6c.4-.1.9-.3 1.3-.9.2-.3.2-.7.3-1.1.1-.4.2-.9.2-1.4.2-1 .4-2.2.6-3.4.2-1.3.5-2.7.7-4.2.1-.4.1-.8.2-1.1.1-.4.2-.8.1-1.2 0-.8-.3-1.6-.8-2.2-1-1.4-3-1.3-4.8-1.7-.9-.2-1.8-.3-2.8-.5-.5-.1-1-.2-1.4-.2-.5 0-.9 0-1.4.1-.9.3-1.7.9-2.1 1.8-.2.4-.3.8-.4 1.3-.1.5-.2.9-.2 1.4-.3 1.8-.6 3.6-.9 5.3-.2.8-.3 1.7-.4 2.5-.1.4-.1.8-.2 1.2-.1.4-.2.8-.1 1.1.1.7.7 1.3 1.3 1.4.7.1 1.3.3 2 .4 2.5.5 4.6.9 6 1.1.7.1 1.2.2 1.6.3h.6s-.2 0-.6-.1c-.4-.1-1-.2-1.6-.3-1.5-.2-3.5-.6-6-1-.6-.1-1.3-.2-2-.4s-1.4-.8-1.5-1.6c-.1-.4 0-.8.1-1.2.1-.4.1-.8.2-1.2.1-.8.3-1.6.4-2.5.3-1.7.6-3.4.9-5.3.1-.5.2-.9.2-1.4.1-.5.2-1 .4-1.4.4-.9 1.3-1.6 2.3-1.9.5-.2 1-.2 1.5-.2.5.1 1 .2 1.4.2.9.2 1.9.3 2.8.5.9.2 1.8.3 2.7.5.9.2 1.8.7 2.3 1.4.6.7.8 1.6.8 2.4 0 .4-.1.8-.2 1.2-.1.4-.1.8-.2 1.1-.3 1.5-.5 2.9-.8 4.2-.2 1.3-.4 2.4-.6 3.4-.1.5-.2 1-.3 1.4-.1.4-.1.9-.4 1.2-.4.6-1 .8-1.4.9-.2.2-.4.1-.4.1Z" fill="#263238"/><path d="m174.329 428.605-3.446-.614-4.35 24.416 3.446.614 4.35-24.416Zm-13.783-1.903-3.445-.614-4.35 24.415 3.445.614 4.35-24.415Z" fill="#455A64"/><path d="m176.3 431.6-21.9-3.9c-1.1-.2-1.9-1.3-1.7-2.4l.1-.3c.2-1.1 1.3-1.9 2.4-1.7l21.9 3.9c1.1.2 1.9 1.3 1.7 2.4l-.1.3c-.2 1.2-1.2 1.9-2.4 1.7Z" fill="#455A64"/><path d="M176.6 431.7c0 .1-5-.7-11.2-1.8-6.2-1.1-11.2-2.1-11.1-2.2 0-.1 5 .7 11.2 1.8 6.1 1.1 11.1 2.1 11.1 2.2Zm.8-4.4c0 .1-5-.7-11.2-1.8-6.2-1.1-11.2-2.1-11.1-2.2 0-.1 5 .7 11.2 1.8 6.1 1.2 11.1 2.1 11.1 2.2Z" fill="#263238"/><path d="M156.2 451.1c-.1 0 .7-5 1.8-11.1s2.1-11.1 2.1-11.1c.1 0-.7 5-1.8 11.1s-2 11.1-2.1 11.1Zm10.3 1.8c-.1 0 .7-5 1.8-11.1s2.1-11.1 2.1-11.1c.1 0-.7 5-1.8 11.1s-2 11.1-2.1 11.1Z" fill="#263238"/><path d="m175.2 453.3-27.2-4.9c-1.8-.3-3.5.9-3.8 2.7l-3.3 18.8 34.8-.1 2.3-12.7c.1-1.8-1.1-3.5-2.8-3.8Z" fill="#455A64"/><path d="M175.6 469.8h-34.8l2.3-13.1 33.7 6-1.2 7.1Zm-1.1-16.5c0 .1-5.8-.9-12.9-2.1-7.1-1.3-12.9-2.4-12.8-2.5 0-.1 5.8.9 12.9 2.1 7.1 1.3 12.9 2.4 12.8 2.5Z" fill="#263238"/><path d="M122 470.5c3-4 8.8-5.6 13.5-3.8 2 .8 3.9 2.1 6 2 2.2-.1 4.1-1.7 6.2-2.4 2.5-.8 5.2-.1 7.7.4 7.6 1.7 22.1 3.5 31.6 3.8" fill="#fff"/><path d="M187 470.5h-.7c-.5 0-1.1 0-2-.1-1.7-.1-4.2-.2-7.2-.5-3.1-.3-6.7-.6-10.7-1.2-4-.5-8.4-1.3-13-2.3-1.1-.2-2.3-.4-3.4-.4s-2.2.3-3.2.7c-1 .4-1.9 1-2.9 1.4-1 .4-2.1.7-3.1.6-1-.1-2-.5-2.9-.9-.9-.4-1.7-.8-2.5-1.1-1.7-.6-3.4-.8-4.9-.7-3.1.2-5.3 1.5-6.6 2.5-.7.5-1.1 1-1.4 1.3-.1.2-.3.3-.3.4l-.1.1s0-.1.1-.1c.1-.1.2-.2.3-.4.3-.4.7-.8 1.4-1.4 1.3-1.1 3.6-2.4 6.7-2.7 1.5-.1 3.3 0 5 .6 1.7.6 3.3 1.8 5.3 2 1 .1 2-.1 2.9-.6 1-.4 1.9-1 2.9-1.4 1-.5 2.2-.7 3.3-.7 1.2 0 2.3.1 3.5.4 4.6 1.1 8.9 1.8 13 2.3 4 .6 7.6 1 10.7 1.3 3 .3 5.5.5 7.2.6.8 0 1.5.1 2 .1h.5l.1.2Z" fill="#263238"/><path d="M135 460.8a1.8 1.8 0 1 0 0-3.6 1.8 1.8 0 0 0 0 3.6Z" fill="#FAFAFA"/><path d="M136.8 459s0-.2-.1-.4c-.1-.3-.3-.6-.7-.9-.4-.3-1-.4-1.6-.2-.6.2-1.1.8-1.1 1.5s.5 1.3 1.1 1.5c.6.2 1.2.1 1.6-.2.4-.3.6-.7.7-.9.1-.3.1-.4.1-.4s.1.2 0 .5c0 .3-.2.7-.6 1.1-.4.3-1.1.6-1.8.3-.7-.2-1.3-1-1.3-1.8 0-.9.6-1.6 1.3-1.8.7-.3 1.4 0 1.8.3.4.3.6.8.6 1.1.1.1.1.3 0 .3Z" fill="#263238"/><path d="M619 116.2c.1-.1-1.1 0-1.9.1-1.1.2-1.8 1-2.5 1.8.3.1.6 0 .9 0 1.4-.1 2.4-.2 3.8-.1.2-.5.2-1.3-.3-1.8Z" fill="#FF725E"/><path d="M640 121.3c-4.3-.7-8.5-1.7-12.7-3.1-2.8 2.6-4.6 6.3-7.8 8.5-1.4 1-3.1 1.6-4.4 2.8-1.8 1.6-2.7 3.9-3.5 6.2-2.2 6.2-4 12.5-5.5 18.9l4.3-5.7-.1 3.4 5.9-9.6.6 3.1s9.9-8.8 13.7-12c3.7-3.3 7-7.3 7-7.3l2.5-5.2Zm-11.7-6.6s2.2-2.7 4-7.3c1.8-4.6 2.3-14.1 7.6-18 5.3-3.9 18.5-13.2 18.5-13.2L653 84l6.7-5.3s-1.9 4.3-5.6 7.6l5.4-2.5s-.7 5.8-3.1 6.2c-.3.1-1.9 2.2-1.9 2.2l.6 1.4s-6.4 13.6-8.1 16.3c-1.7 2.7-6 8.1-6 8.1l-12.7-3.3Z" fill="#E0E0E0"/><path d="M618.8 116.6c.1-.2.3-2.6 4.2-2.7 3.9-.1 5.6.4 5.6.4s11.1 2.9 12.7 3.8c1.6.9 12.8-1.8 12.8-1.8s5.1 8.9-1.6 14.8c-6.7 5.9-10.4 3.7-10.4 3.7s-.6-7-3.4-8.8c0 0-5-.1-7.3-1.2-2.4-1.1-6.7-5.3-7.6-5.8-.9-.6-3.4-.2-4.3-.9-.9-.6-.7-1.5-.7-1.5Z" fill="#E0E0E0"/><path d="M622.2 116.1c0 .4-.4.8-.8.8s-.8-.4-.8-.8.4-.8.8-.8.8.3.8.8ZM655 93.5l-.6-1.4s1.5-2.1 1.9-2.2c2.4-.4 3.1-6.2 3.1-6.2l-5.4 2.5c3.7-3.3 5.6-7.6 5.6-7.6L653 84l5.5-7.7s-13.2 9.4-18.5 13.2l8.5-2.7-1.6 4 6.7-2.9s-1.4 2-.7 4c.8 2 2.1 1.6 2.1 1.6Zm-38.2 52.3-.6-3.1-5.9 9.6.1-3.4-4.3 5.7c1.4-6.4 3.3-12.7 5.5-18.9l-.1 5.8 3.3-2.4v4.2l2.9-2.7-.9 5.2Zm31.4-17.3s-.4-.3-1.2-.6c-.7-.3-1.8-.6-3-1.2-2.3-1.1-3.8-2.5-3.8-2.6.1-.1 1.7 1.2 3.9 2.2 1.1.5 2.2.9 3 1.3.8.5 1.1.9 1.1.9Zm1.5-2.5c0 .1-2-.2-4.3-1.1-2.3-.9-4-2-3.9-2.1.1-.1 1.8.9 4 1.7 2.3 1 4.2 1.4 4.2 1.5Zm-10.5-.3-.6.3c-.4.1-1 .3-1.7.5-.7.1-1.7.3-2.7.1-1-.1-2.1-.6-3-1.2-2-1.2-3.6-2.5-4.7-3.6-.5-.5-1-1-1.2-1.3-.3-.3-.4-.5-.4-.5s.7.6 1.8 1.6 2.7 2.3 4.7 3.5c1 .6 1.9 1.1 2.9 1.2 1 .2 1.8.1 2.6 0 1.4-.4 2.3-.7 2.3-.6Z" fill="#263238"/><path d="M647.8 88.7s-.3.3-.8.9c-.6.6-1.4 1.4-2.3 2.4-1 1-2.2 2.2-3.4 3.5-.6.7-1.2 1.5-1.3 2.4-.2 1-.1 2-.1 3.1.1 2.1 0 4.2-.5 6-.4 1.8-1.1 3.4-1.9 4.6-.8 1.2-1.6 2-2.2 2.6-.3.3-.5.4-.7.6-.2.1-.3.2-.3.2-.1-.1 1.5-1 2.9-3.4.7-1.2 1.4-2.7 1.8-4.5.4-1.8.5-3.8.4-5.9-.1-1.1-.1-2.1.1-3.2.2-1 .8-1.9 1.4-2.6l3.5-3.5c1-.9 1.8-1.7 2.4-2.3.7-.6 1-.9 1-.9Z" fill="#263238"/><path d="M654.1 95.2s-.2.2-.5.4-.8.5-1.4.9c-1.2.7-3 1.6-5 2.2-2 .7-4 1-5.4 1.1-.7.1-1.3.1-1.7.1h-.6c0-.1.9-.1 2.2-.3 1.4-.2 3.3-.6 5.3-1.2 2-.7 3.8-1.5 5-2.1 1.3-.7 2-1.1 2.1-1.1Zm.3-5.5-.3.6c-.3.3-.7.8-1.3 1.1-.6.4-1.4.8-2.3 1.2-.9.4-1.9.8-2.9 1.2-2.1.8-4 1.5-5.4 1.9-1.4.5-2.3.7-2.3.7s.8-.4 2.2-.9c1.5-.6 3.3-1.3 5.3-2 1-.4 2-.8 2.9-1.2.9-.4 1.7-.7 2.3-1.1 1.2-.7 1.7-1.5 1.8-1.5Zm-5 12.5s-.3.5-1.2.9c-.9.4-2.1.6-3.4.9-1.4.3-2.6.6-3.5.6-.9 0-1.5-.3-1.4-.4 0-.1.6.2 1.4.1.9 0 2.1-.4 3.4-.7 1.3-.3 2.6-.5 3.4-.8.8-.3 1.2-.6 1.3-.6Zm-36 38.4s0-.3.3-.9c.2-.6.6-1.4 1.2-2.2.6-.9 1.5-1.9 2.6-2.7 1.1-.9 2.6-1.5 4.1-2.2 1.5-.7 2.9-1.3 4-2.1s2-1.7 2.7-2.5c1.4-1.6 1.9-2.8 2-2.8 0 0-.1.3-.4.8-.3.5-.7 1.3-1.4 2.1s-1.6 1.8-2.7 2.6c-1.1.9-2.6 1.6-4 2.2-1.5.7-2.9 1.3-4 2.1s-2 1.7-2.6 2.6c-1.3 1.7-1.7 3-1.8 3Z" fill="#263238"/><path d="M619.3 142.2c-.1 0 .5-1.7.6-3.9.1-2.2-.4-3.9-.3-4 .1 0 .7 1.7.7 4-.1 2.2-.9 3.9-1 3.9Zm4.6-3.8c-.1 0 0-1.3-.2-2.9-.1-1.6-.3-2.9-.2-2.9.1 0 .5 1.2.6 2.9.1 1.7-.1 3-.2 2.9Zm3.8-3c-.1 0-.2-1.3-.5-2.9-.3-1.6-.7-2.8-.6-2.9.1 0 .6 1.2 1 2.8.2 1.7.2 3 .1 3Zm4.2-6.4c-.1.1-.6-.2-1.1-.7-.5-.5-.9-.9-.8-1 .1-.1.6.2 1.1.7.5.5.9 1 .8 1Zm10.1-13.2c-.1.1-1.2-.7-2.6-1.7-1.4-1-2.4-1.9-2.4-2 .1-.1 1.2.7 2.6 1.7 1.4 1 2.5 1.9 2.4 2Zm4.9-6.4c0 .1-1.8.9-4.2 1-1.2 0-2.3-.1-3.1-.1-.8-.1-1.3-.1-1.3-.1s.5-.1 1.3-.2c.8 0 1.9.1 3.1 0 2.4 0 4.2-.7 4.2-.6Zm-527.5 24.3s-.6-.1-1.4-.3c-.9-.2-2.1-.6-3.4-1.1-1.3-.5-2.5-.9-3.3-1.3-.8-.4-1.3-.6-1.3-.7 0 0 .6.1 1.4.4 1 .3 2.1.7 3.3 1.2l3.3 1.1c.9.4 1.4.6 1.4.7Zm1.2-1.3s-.6-.1-1.4-.3c-.9-.2-2.1-.6-3.4-1.1-1.3-.5-2.5-.9-3.3-1.3-.8-.4-1.3-.6-1.3-.7 0 0 .6.1 1.4.4 1 .3 2.1.7 3.3 1.2l3.3 1.1c.8.5 1.4.7 1.4.7Z" fill="#263238"/><path d="M83.5 120.8s2.2-2.3 3.9-2.6c1.8-.3 16.2 2.1 16.2 2.1l23.3 8.8s-1.5 2.3-5.3 1.6c-3.8-.7-8.1-2-8.1-2s-3.3 2.2-7.7 2.1c-4.4 0-9.8-1.1-13.1-4.5-3.3-3.4-7.1-1.2-7.9-4.1-.2-1.3-1.3-1.4-1.3-1.4Z" fill="#E0E0E0"/><path d="M140.6 95.1c-1.5 2-3.1 4-4.9 5.8-.5.5-1.2 1.1-1.9 1.1 2.4-3 4.2-6.5 5.2-10.1-.7 1.1-1.5 2.2-2.4 3.3-.6.8-1.3 1.6-2 2.3-1.9 1.9-4.2 3.3-6.4 4.7-1.7 1.1-3.4 2.3-5.3 3.1-3.8 1.6-4 1.4-8.1 2.7-1.3.4-3.6.9-4.6 1.8-.5.4-.9 1-1.3 1.5-3.2 4.4-7.4 8-12.2 10.4l7.5 3.7c3.3.5 6.7-.5 9.5-2.3 2.8-1.9 4.9-4.5 6.6-7.4.4-.7.8-1.4 1.5-1.9.6-.4 1.2-.5 1.9-.7 1.1-.3 2.1-.9 2.9-1.8-.7.3-1.6.3-2.3.1 2.4-.9 4.7-1.9 7-3.1 2.1-1.1 4.2-2.4 5.5-4.3-.9.7-2 1.2-3.1 1.4 3.3-2.7 5.7-6.3 6.9-10.3Z" fill="#E0E0E0"/><path d="M87.4 120.1c-.1-.1-.3-.1-.5 0-.1.1-.2.3-.2.4 0 .3.2.7.5.8.3.1.7 0 .9-.3.2-.3.1-.7-.2-.9-.2-.1-.4-.2-.6-.2" fill="#263238"/><path d="M84.2 120.2s-2.1-.2-3.2.8-1.5 2-1.3 2.1c0 0 .5-.6 2.2-.7 1.7-.1 3.4 0 3.4 0l-1.1-2.2Z" fill="#FF725E"/><path d="M101.5 117.7c-2-3.1-4.1-6.3-6.1-9.4-.7-1.1-1.4-2.2-1.9-3.4-.9-2.5-.6-5.4-1.5-7.9-.3.6-.6 1.1-1 1.7 0-1.7-.2-3.4-.7-5-.4.7-.7 1.3-1.1 2 .1-2.3-.2-4.7-1-6.8-.9.6-1.5 1.6-1.8 2.6-.2-2.1-.5-4.2-1-6.2-3.3 4.4-4 10.1-4.1 15.5 0 1.1 0 2.1.2 3.2.3 1.1.9 2.2 1.6 3.1 2.8 4.2 6.5 7.9 8.3 12.7l12.1 2.7c-.5-.5-1.8-4.5-2-4.8Z" fill="#E0E0E0"/><path d="M120.3 115.6c.4-.7.8-1.4 1.5-1.9.6-.4 1.2-.5 1.9-.7 1.1-.3 2.1-.9 2.9-1.8-.7.3-1.6.3-2.3.1 2.4-.9 4.7-1.9 7-3.1 2.1-1.1 4.2-2.4 5.5-4.3-.9.7-2 1.2-3.1 1.4 3.2-2.6 5.7-6.2 6.9-10.2-1.5 2-3.1 4-4.9 5.8-.5.5-1.2 1.1-1.9 1.1 2.4-3 4.2-6.5 5.2-10.1-.7 1.1-1.5 2.2-2.4 3.3-.6.8-1.3 1.6-2 2.3-1.9 1.9-4.2 3.3-6.4 4.7-1.7 1.1-3.5 2.1-5.3 3.1l7.9-1.4-4.7 3.4 4.4-.7s-7.8 3.6-9.6 6c-1.8 2.4-1.4 4.5-1.4 4.5l.8-1.5Zm-26.8-10.7c-.9-2.5-.6-5.4-1.5-7.9-.3.6-.6 1.1-1 1.7 0-1.7-.2-3.4-.7-5-.4.7-.7 1.3-1.1 2 .1-2.3-.2-4.7-1-6.8-.9.6-1.5 1.6-1.8 2.6-.2-2.1-.5-4.2-1-6.2-3.3 4.4-4 10.1-4.1 15.5 0 1.1 0 2.1.2 3.2l1.5-4.1s1.7-5.4 2.6-2.9c.9 2.6 2.9 6.9 2.9 6.9l.4-3.9s1.2 3.8 2.4 4.6c1.3.6 2.2.3 2.2.3Zm16.2 5.3c.1-.1.1 0 0 0 0 .1-.1.1-.1.2-.1.2-.3.4-.6.7-.5.6-1.2 1.4-2.1 2.5-.9 1-2 2.2-3.3 3.5-.6.6-1.3 1.3-2.1 2-.4.3-.8.6-1.3.9-.3.1-.6 0-.8 0-.3 0-.5 0-.8-.1-4.2-.5-7.9-1.2-10.6-1.6-.7-.1-1.2.1-1.7.4-.5.3-.9.5-1.2.8-.6.5-.9.8-.9.7l.2-.2c.1-.1.4-.4.7-.6.3-.2.7-.5 1.2-.8.5-.3 1.1-.5 1.8-.4 2.7.3 6.5 1 10.6 1.5.3 0 .5.1.8.1h.7c.4-.2.8-.5 1.2-.8.8-.6 1.4-1.3 2.1-1.9 1.3-1.3 2.4-2.5 3.4-3.5.9-1 1.6-1.8 2.2-2.4.2-.3.4-.5.6-.7-.1-.2 0-.3 0-.3s.1-.1 0 0c.1 0 0 0 0 0Z" fill="#263238"/><path d="M126.1 106.8s0 .1-.2.2c-.1.1-.3.3-.6.5-.5.4-1.3 1-2.4 1.5-1.1.5-2.5.9-4 1.3-.8.2-1.6.4-2.4.7-.8.3-1.5.8-2.2 1.4-1.4 1.2-2.3 2.6-3.3 3.9-1 1.3-2 2.3-2.9 3.1-.9.8-1.8 1.3-2.3 1.6-.3.2-.5.3-.7.4-.2.1-.2.1-.3.1l.9-.6c.6-.4 1.4-.9 2.3-1.7.9-.8 1.9-1.8 2.8-3.1 1-1.2 1.9-2.7 3.4-3.9.7-.6 1.5-1.1 2.3-1.4.8-.3 1.6-.5 2.4-.7 1.5-.4 2.9-.8 4-1.3s1.9-1 2.4-1.4c.6-.3.8-.6.8-.6Zm-23 21.1c0 .1-.7.2-1.5-.2s-1.2-1-1.1-1c.1-.1.6.4 1.3.7.6.4 1.3.4 1.3.5Z" fill="#263238"/><path d="M106.4 128.3c0 .1-1.2.3-2.6-.2-1.4-.5-2.2-1.4-2.1-1.4.1-.1.9.7 2.2 1.1 1.3.5 2.5.4 2.5.5Zm637.3 301.3c0 .1-160.6.3-358.7.3-198.2 0-358.7-.1-358.7-.3 0-.1 160.6-.3 358.7-.3 198.1.1 358.7.2 358.7.3Zm-70.3 36.7s-.3-.1-.8-.3c-.5-.2-1.3-.5-2.2-.9-.9-.4-2.1-.9-3.4-1.5-1.3-.6-2.9-1.1-4.7-1.4-1.8-.3-3.8-.2-5.9.2-1 .2-2.1.5-3.2.9s-2.1 1-3.2 1.5-2.2 1.1-3.5 1.4c-1.3.4-2.6.4-4 .2-2.7-.4-5.2-1.7-7.8-2.7-1.3-.5-2.6-.9-3.9-1.1-1.3-.2-2.7-.1-3.9.3-2.5.8-4.4 2.6-6.6 3.8-1.1.6-2.3 1-3.4 1.1-1.2.1-2.3 0-3.4-.3-2.1-.5-4-1.4-5.7-2-3.4-1.4-6.6-1.2-8.4-.3-.9.5-1.5 1-1.8 1.5-.3.4-.4.7-.5.7 0 0 .1-.3.4-.7.3-.5.9-1.1 1.8-1.6 1.8-1 5.1-1.2 8.6.1 1.7.6 3.6 1.5 5.7 2 1 .2 2.1.4 3.3.2 1.1-.1 2.2-.5 3.3-1.1 2.1-1.1 4-2.9 6.6-3.8 1.3-.4 2.7-.6 4.1-.3 1.4.2 2.7.7 4 1.2 2.6 1 5.1 2.3 7.7 2.7 1.3.2 2.6.2 3.8-.2 1.2-.3 2.3-.8 3.4-1.4 1.1-.5 2.1-1.1 3.2-1.5 1.1-.4 2.2-.7 3.3-.9 2.1-.4 4.2-.5 6.1-.2 1.8.3 3.4.9 4.8 1.5 1.3.6 2.5 1.1 3.4 1.6.9.4 1.6.7 2.2 1l.6.3Zm-263.5-11.9s-.3-.1-.8-.3c-.5-.2-1.3-.5-2.2-.9-.9-.4-2.1-.9-3.4-1.5-1.3-.6-2.9-1.1-4.7-1.4-1.8-.3-3.8-.2-5.9.2-1 .2-2.1.5-3.2.9s-2.1 1-3.2 1.5-2.2 1.1-3.5 1.4c-1.3.4-2.6.4-4 .2-2.7-.4-5.2-1.7-7.8-2.7-1.3-.5-2.6-.9-3.9-1.1-1.3-.2-2.7-.1-3.9.3-2.5.8-4.4 2.6-6.6 3.8-1.1.6-2.3 1-3.4 1.1-1.2.1-2.3 0-3.4-.3-2.1-.5-4-1.4-5.7-2-3.4-1.4-6.6-1.2-8.4-.3-.9.5-1.5 1-1.8 1.5-.3.4-.4.7-.5.7 0 0 .1-.3.4-.7.3-.5.9-1.1 1.8-1.6 1.8-1 5.1-1.2 8.6.1 1.7.6 3.6 1.5 5.7 2 1 .2 2.1.4 3.3.2 1.1-.1 2.2-.5 3.3-1.1 2.1-1.1 4-2.9 6.6-3.8 1.3-.4 2.7-.6 4.1-.3 1.4.2 2.7.7 4 1.2 2.6 1 5.1 2.3 7.7 2.7 1.3.2 2.6.2 3.8-.2 1.2-.3 2.3-.8 3.4-1.4 1.1-.5 2.1-1.1 3.2-1.5 1.1-.4 2.2-.7 3.3-.9 2.1-.4 4.2-.5 6.1-.2 1.8.3 3.4.9 4.8 1.5 1.3.6 2.5 1.1 3.4 1.6.9.4 1.6.7 2.2 1l.6.3Z" fill="#263238"/><path d="M727 438.9c0 .1-81.1.3-181 .3-100 0-181-.1-181-.3 0-.1 81-.3 181-.3s181 .1 181 .3Zm-168.7 6.5c0 .1-21.2.3-47.4.3s-47.4-.1-47.4-.3c0-.2 21.2-.3 47.4-.3s47.4.1 47.4.3Z" fill="#455A64"/><path d="M599.5 445.4c0 .1-5.9.3-13.3.3-7.3 0-13.3-.1-13.3-.3 0-.2 5.9-.3 13.3-.3 7.3 0 13.3.1 13.3.3Zm-140.4 0c0 .1-4.1.3-9.1.3s-9.1-.1-9.1-.3c0-.2 4.1-.3 9.1-.3s9.1.1 9.1.3ZM130.9 437c0 .1-16.6.3-37.1.3s-37.1-.1-37.1-.3c0-.2 16.6-.3 37.1-.3s37.1.2 37.1.3Zm189.9 1.4c0 .1-20.7.3-46.3.3-25.6 0-46.3-.1-46.3-.3 0-.2 20.7-.3 46.3-.3 25.6 0 46.3.1 46.3.3Z" fill="#FF725E"/></svg>