<svg width="679" height="573" fill="none" xmlns="http://www.w3.org/2000/svg"><mask id="a" style="mask-type:alpha" maskUnits="userSpaceOnUse" x="49" y="38" width="571" height="472"><path d="M390.516 49.77c71.213-39.396 228.801 21.848 228.8 173.042-.001 244.71-223.031 286.479-353.774 286.479-234.459 0-320.558-264.908-42.299-286.479 248.026-19.227 15.236-88.933 167.273-173.042Z" fill="#F6A182"/></mask><g mask="url(#a)"><path opacity=".7" d="M62.565 201.751c25.237 32.787 92.084 96.722 157.566 90.165 81.852-8.197-73.668-161.888 0-161.888 73.667 0 108.454 188.528 161.658 188.528 53.204 0-59.343-139.347 0-147.544 59.343-8.197 108.455 196.725 173.937 198.774 65.482 2.049-67.529-168.035 38.88-168.035" stroke="url(#b)" stroke-width="2"/></g><path d="m60.214 79.795 2.485.795-.497 28.628-.298-.298 9.141.199h.1l5.166 1.988h-.099l13.613 1.689-.497.398.994-23.36c0-.297.198-.496.497-.496.099 0 .099 0 .198.1l.597.297a.55.55 0 0 1 .298.497l-1.193 22.366-.497-.497 14.905-.299c.099 0 .199 0 .199.1l2.087 1.193-.199-.1c9.737.895 19.575 1.789 29.312 2.684.1 0 .1 0 .199.099l1.888 1.69-.199-.099 3.18.199c.099 0 .199.099.298.199l3.875 10.735-.199-.1h14.011s.099 0 .099.1l1.888 8.25-2.086-8.151.099.1-14.011.298c-.099 0-.198-.1-.198-.1l-4.074-10.635.298.198-3.18-.198c-.099 0-.099 0-.198-.1l-1.888-1.69.198.1c-9.737-.796-19.575-1.591-29.312-2.485-.1 0-.1 0-.199-.1l-2.087-1.193.199.1-14.905.397c-.298 0-.496-.198-.496-.497l1.192-22.464.298.497-.596-.298.695-.398-1.093 23.359a.428.428 0 0 1-.397.398l-13.514-1.789h-.099l-5.167-2.187h.1l-9.142-.298c-.199 0-.298-.1-.298-.299l.994-28.627-2.485-.895Z" fill="#FFFFF8"/><path d="m399.048 90.034-38.951-10.636-.398 33.597 41.237.895-1.888-23.856Z" fill="url(#c)"/><path d="m49.285 126.017 4.471-13.022 87.938 4.871 3.974 10.735-96.383-2.584Z" fill="url(#d)"/><path d="m53.756 112.995-8.645 1.591-4.869 11.431h9.042l4.472-13.022Z" fill="url(#e)"/><path d="m247.914 113.989 45.012 4.573-.794 16.401h-46.503l2.285-20.974Z" fill="url(#f)"/><path d="m546.604 138.044-.695-29.919-34.579-7.953-1.988-.298-37.659-6.262-.397-2.684-47.695-5.566.894 16.699 61.308 32.504 22.854 3.281 37.957.198Z" fill="url(#g)"/><path d="m25.736 125.52-5.663 1.093-1.69 10.636h33.585l-2.98 58.25 9.737-2.187 4.77-60.238-37.759-7.554Z" fill="url(#h)"/><path d="m58.725 193.312 1.391-55.864-35.87-.497 1.49-11.431 133.944 2.883 1.887 8.15-24.841 1.392 1.988 44.631-79.989 10.736Z" fill="url(#i)"/><path d="m45.311 196.393 1.69-23.359 44.217-4.672 1.788-8.251 43.82-5.168v15.407l30.107-3.38v6.958l37.56-4.771-.199-46.42 43.621-8.748.1 14.811 37.957-5.566 76.809-10.636V96.793l60.811-11.431.795 10.238 41.037-2.187v7.157l38.355-.596-1.689 37.474-215.224 51.987-241.555 6.958Z" fill="url(#j)"/><path opacity=".3" d="m546.606 129.396-44.118-.795-35.97 4.473-1.093-32.504-.994 31.809-39.646 1.391-.199-35.188-4.074 36.381-58.029 4.175-.695-26.342-2.882 27.336-46.999 6.262-3.279-25.944.795 27.336-60.215 10.139-.398 10.437-41.236 1.888-3.08-17.395v16.302l-37.56 4.771v-6.958l-2.484 10.636-25.736 4.97-1.887-12.226.099 8.847L94 181.781l-.993-21.67-2.484 24.652L47 189.932v-16.898l-1.391 20.278 500.598-50.993.398-12.923Z" fill="url(#k)"/><path d="M26.63 244.702S4.273 223.828 0 199.673c0 0 131.36-17.295 287.561-33.597 6.657-.696 22.755-15.407 22.755-15.407 65.58-10.139 175.775-17.197 231.618-13.618 0 0-30.505 71.767-59.916 105.365L26.63 244.702Z" fill="url(#l)"/><path d="m492.948 247.187-4.869-12.127-464.827 6.064 2.484 4.473 467.212 1.59Z" fill="url(#m)"/><path d="m37.958 137.15 19.178 23.16-.398 8.847-24.046-32.007h5.266Z" fill="url(#n)"/><path d="m27.724 137.249 26.63 31.61 2.385.298-24.047-32.007-4.968.099Z" fill="url(#o)"/><path d="m152.822 137.05-15.004 26.839.298 5.765 20.271-33.001-5.565.397Z" fill="url(#p)"/><path d="m150.836 137.15-13.216 20.377.199 6.362 15.004-26.838-1.987.099Z" fill="url(#q)"/><path d="m136.826 154.943 46.304 4.572v4.771l18.183.1.596 5.368-34.976 4.174v-6.958l-30.107 3.38v-15.407Z" fill="url(#r)"/><path d="M488.079 235.06s17.488-26.242 19.674-99.103c0 0 33.088.696 47.794 2.088 0 0-41.832 67.394-67.468 97.015Z" fill="url(#s)"/><path d="m316.476 118.959.596-29.323 43.025-10.238-.398 33.597-43.223 5.964Z" fill="url(#t)"/><path d="m166.933 173.928 2.384-31.013 34.977-5.169.198 31.908-37.559 4.274Z" fill="url(#u)"/><path d="m465.424 93.413-.994 42.047V93.413h.994ZM424.386 95.6l-.795 43.637 1.49-.199-.397-43.438h-.298Zm-61.606 16.998.596 31.311-.795.199-.795-31.311.994-.199Z" fill="#8B141A"/><path d="m424.089 120.749-53.657 6.958 53.657-6.263v-.695Zm-115.462-.299.795 30.616.894-.398-1.292-30.615-.397.397Zm-60.613 8.35v41.45h1.49l-.695-41.549-.795.099Z" fill="#8B141A"/><path d="m204.492 152.855 44.317-6.858-44.317 5.864v.994Zm-67.666 17.495v12.525l.298-.1V170.35h-.298Zm-45.608-1.988-.895 19.98.497-.1 2.186-28.13-1.788 8.25Zm271.364-40.258 7.849-.397-7.849 1.292v-.895Zm-113.376 28.032 51.57-6.859-51.57 8.648v-1.789Z" fill="#8B141A"/><path d="m248.81 128.701.397 27.435 60.215-8.35-.795-27.336-59.817 8.251ZM424.386 95.6l.596 30.516 39.448-2.087V93.413L424.386 95.6Zm-287.56 59.343-43.82 5.169-2.186 28.13 46.006-5.367v-27.932Z" fill="#F46859"/><path d="m424.783 149.774-.099-1.789-6.161.497.1 1.789.993-.1c.1-.596.299-1.093.497-1.689l1.789.894s-.298 1.094-.497 1.094c-.199.099-.497.198-.696.298l.299 3.578 1.987.497-1.888.299.397 5.864 1.988-.099-.795-10.835 2.086-.298Zm5.465-2.187-1.291.1c-.1.198-.1.397-.199.596-.099.199-.199.398-.298.497-.199.199-.398.298-.596.398-.298.099-.596.198-.994.198l.099 1.392 1.491-.099.695 9.642 1.988-.1-.895-12.624Zm8.944 10.239-3.776.298v-.298c0-.299.099-.696.199-.995.198-.397.397-.695.695-.994.298-.397.596-.795.894-1.093.199-.298.398-.497.597-.795h-2.186c-.1.199-.298.397-.398.497l-.894 1.193a3.475 3.475 0 0 0-.596 1.391c-.199.497-.199 1.094-.199 1.69l.099 1.591 5.764-.398-.199-2.087Zm-4.968.298c-.199 0-.1-.696-.299-1.094-.198-.397 1.69-1.093 1.69-1.093l-.795 1.093c-.1 0-.298 1.094-.596 1.094Zm4.57-8.151c0-.895-.298-1.69-.894-2.286-.596-.497-1.49-.796-2.285-.696l1.788.497v.497l-2.086-.298.298-.696c-.795 0-1.59.397-2.186.994a3.458 3.458 0 0 0-.597 2.385l.1 1.293 1.888-.1-.1-1.391c-.099-.299 0-.696.199-.994.199-.199.497-.299.696-.299.298 0 .596.1.795.199.298.298.397.696.397 1.094 0 .596 0 1.093-.199 1.59a15.74 15.74 0 0 1-.596 1.292c-.099.199-.298.398-.397.597h2.186c.099-.1.198-.299.298-.398a4.68 4.68 0 0 0 .596-1.491c.099-.497.199-1.093.099-1.789Zm8.048 6.858-.099-1.789-.994.1-.099-.895-1.987-.099.099 1.093-1.987.099.497-1.292-1.789-.099-.497 1.491.1 1.789 3.875-.298.199 2.286 1.987-.099-.199-2.287h.894Zm-1.391-5.964h-1.391l1.193-.397.198-.1-.298-3.876-2.186.198-.596 1.79.994.397h-1.193l-1.589 4.772h1.788l1.093-3.181.199 3.181h1.987l-.199-2.784Z" fill="#D6DBFF"/><path d="m536.368 167.865-1.291 2.187s-137.422 2.286-529.315 46.221l.397-.695s467.51-57.852 530.209-47.713Z" fill="url(#v)"/><path d="M537.163 166.374s-66.475-8.151-531.004 49.204l-.397.695s420.312-52.881 530.606-48.408l.795-1.491Z" fill="url(#w)"/><path d="m513.517 201.562-1.689 2.485s-116.456-8.25-499.903 23.26l-.696.298s385.336-37.673 502.288-26.043Z" fill="url(#x)"/><path d="M515.107 199.375s-101.948-10.536-503.182 27.932l-.696.298s349.465-36.679 502.387-26.043l1.491-2.187Z" fill="url(#y)"/><path d="m555.547 138.044-1.59 2.684s-103.737-11.431-242.549 11.63c0 0-17.588 12.425-21.463 13.618C286.07 167.169.099 199.673.099 199.673s288.554-33.1 292.131-35.287c3.578-2.187 18.184-13.718 18.184-13.718s171.106-24.353 245.133-12.624Z" fill="url(#z)"/><path opacity=".5" d="M0 199.673s34.181 35.288 73.132 35.387c103.141.199 190.582-56.062 243.543-64.014 106.32-16.103 184.619 47.514 184.619 47.514l-13.215 16.5-464.828 6.163c0-.099-19.972-19.085-23.251-41.55Z" fill="url(#A)"/><path opacity=".3" d="M407.891 148.283c-27.027-3.28-56.935 4.771-56.935 4.771 3.279 31.908 19.574 78.13 19.574 78.13h40.044c-5.663-23.559-2.683-82.901-2.683-82.901Z" fill="url(#B)"/><path opacity=".3" d="M365.165 230.985s-14.408-27.932-26.53-74.353c-10.434-.397-20.867.796-31.002 3.48 0 0 14.11 40.953 42.925 71.171l14.607-.298Z" fill="url(#C)"/><path opacity=".5" d="m27.82 241.422 1.988 3.877 1.49-3.877 3.776 3.38v-3.38h77.306l5.962 4.473 59.817-.397 3.18-4.076v3.38l1.192-3.38v2.684l7.453-3.081 6.16-1.193 1.193 4.87 3.179-3.578 9.241-1.59 7.751.298 1.192 3.876 1.192-2.683 2.683 4.274-1.49-5.467 151.034-1.491 15.6 1.193 7.949 4.87 5.267 2.386v-5.666l6.061 4.175 24.841-2.585-1.987-5.168h31.399l6.26 9.542-2.087-8.747 7.552 8.747-.994-5.666H27.82Z" fill="url(#D)"/><path d="M322.736 157.13c0 1.292-.696 2.385-1.59 2.385-.894 0-1.59-1.093-1.59-2.385 0-1.293.696-2.386 1.59-2.386.894 0 1.59 1.093 1.59 2.386Z" fill="url(#E)"/><path d="M235.494 179.197c0 1.292-.695 2.385-1.59 2.385-.894 0-1.59-1.093-1.59-2.385 0-1.293.696-2.386 1.59-2.386.895 0 1.59.994 1.59 2.386Z" fill="url(#F)"/><path d="M141.992 189.932c0 1.292-.695 2.386-1.59 2.386-.894 0-1.59-1.094-1.59-2.386s.696-2.386 1.59-2.386c.895 0 1.59.994 1.59 2.386Z" fill="url(#G)"/><path d="M361.388 151.961c0 1.292-.695 2.385-1.59 2.385-.894 0-1.59-1.093-1.59-2.385 0-1.293.696-2.386 1.59-2.386.895 0 1.59.994 1.59 2.386Z" fill="url(#H)"/><path d="M186.01 184.167c0 1.292-.696 2.385-1.59 2.385-.894 0-1.59-1.093-1.59-2.385 0-1.293.696-2.386 1.59-2.386.894 0 1.59.994 1.59 2.386Z" fill="url(#I)"/><path d="M407.494 147.289c0 1.292-.696 2.385-1.59 2.385-.895 0-1.59-1.093-1.59-2.385 0-1.292.695-2.386 1.59-2.386.894 0 1.59 1.094 1.59 2.386Z" fill="url(#J)"/><path d="m67.07 141.325-.198 8.946h6.26v-8.748l-6.061-.198Z" fill="url(#K)"/><path d="m119.833 141.325-.198 8.946h6.26v-8.748l-6.062-.198Z" fill="url(#L)"/><path d="m58.03 113.194 2.185-33.399 2.484.795-.695 28.628 9.141.199 5.068 2.087 13.613 1.69.994-23.26.596.199-1.193 22.465 15.004-.398 1.988 1.193 15.997 1.193 13.315 1.391 1.988 1.69-80.486-4.473Z" fill="url(#M)"/><path d="m60.215 79.795-.894.298-2.584 33.002 1.292.099 2.186-33.399Z" fill="url(#N)"/><path d="m90.82 89.934-.397.199-1.292 24.85h.695l.994-25.049Z" fill="url(#O)"/><path opacity=".3" d="m391.198 92.42 32.393-7.058-2.782 34.691-30.207 4.672.596-32.306Z" fill="url(#P)"/><path opacity=".3" d="m477.248 100.769-1.093 24.552 26.331 3.28 1.292-28.627-26.53.795Z" fill="url(#Q)"/><path opacity=".3" d="m503.779 99.974-1.292 28.627 44.118.796-.696-21.272-42.13-8.151Z" fill="url(#R)"/><path opacity=".3" d="m223.372 118.959-3.775 30.815-15.104 3.081-.199-30.118 19.078-3.778Z" fill="url(#S)"/><path opacity=".3" d="m117.35 157.229-4.472 23.359 24.047-1.391-.1-24.254-19.475 2.286Z" fill="url(#T)"/><path d="m169.317 142.915 34.977-5.368-.1.1-.099-15.01c0-.099.099-.199.199-.199l43.621-8.747h.099l45.012 4.473c.199 0 .298.199.298.398v3.379l-.397-.397 23.649-3.181-.398.398.497-29.125c0-.199.199-.398.298-.398L359.899 79h.198l39.051 10.636h-.199l24.642-4.672h.1l47.695 5.666c.099 0 .198.1.298.298l.397 2.585-.298-.299 37.262 6.263 18.482 4.175 18.481 4.274.1.099.397 26.54-.596-26.54.099.1-36.963-8.151-37.361-6.064c-.1 0-.199-.1-.298-.298l-.398-2.584.298.298-47.695-5.567h.1l-24.543 4.672h-.199l-38.951-10.536h.199l-43.025 10.238.298-.398-.696 29.324a.426.426 0 0 1-.397.397l-23.649 2.982c-.199 0-.397-.099-.397-.298v-3.479l.298.398-44.913-4.573-43.621 8.648.199-.199v15.01c0 .099-.1.099-.1.099l-34.877 4.871Z" fill="#FFFFF8"/><defs><linearGradient id="b" x1="328.6" y1="313" x2="328.6" y2="77.2" gradientUnits="userSpaceOnUse"><stop stop-color="#F37753"/><stop offset="1" stop-color="#fff" stop-opacity="0"/></linearGradient><linearGradient id="c" x1="359.7" y1="96.6" x2="400.9" y2="96.6" gradientUnits="userSpaceOnUse"><stop stop-color="#FFBD2B"/><stop offset="1" stop-color="#FFD406"/></linearGradient><linearGradient id="d" x1="97.4" y1="128.6" x2="97.4" y2="113" gradientUnits="userSpaceOnUse"><stop stop-color="#F1BFBD"/><stop offset="1" stop-color="#F6D8BF"/></linearGradient><linearGradient id="e" x1="47" y1="126.1" x2="47" y2="113" gradientUnits="userSpaceOnUse"><stop stop-color="#DD8897"/><stop offset="1" stop-color="#EB937A"/></linearGradient><linearGradient id="f" x1="269.2" y1="134.9" x2="269.2" y2="114" gradientUnits="userSpaceOnUse"><stop stop-color="#E52C31"/><stop offset="1" stop-color="#F64B6F"/></linearGradient><linearGradient id="g" x1="485.1" y1="138" x2="485.1" y2="85.3" gradientUnits="userSpaceOnUse"><stop stop-color="#E52C31"/><stop offset="1" stop-color="#F64B6F"/></linearGradient><linearGradient id="h" x1="40.9" y1="195.5" x2="40.9" y2="125.5" gradientUnits="userSpaceOnUse"><stop stop-color="#DD8897"/><stop offset="1" stop-color="#EB937A"/></linearGradient><linearGradient id="i" x1="92.9" y1="193.3" x2="92.9" y2="125.5" gradientUnits="userSpaceOnUse"><stop stop-color="#F1BFBD"/><stop offset="1" stop-color="#F6D8BF"/></linearGradient><linearGradient id="j" x1="274.6" y1="196.4" x2="274.6" y2="85.3" gradientUnits="userSpaceOnUse"><stop stop-color="#9D1331"/><stop offset="1" stop-color="#C71F48"/></linearGradient><linearGradient id="k" x1="45.6" y1="145.9" x2="546.6" y2="145.9" gradientUnits="userSpaceOnUse"><stop stop-color="#450F2B"/><stop offset=".2" stop-color="#4F112E"/><stop offset=".6" stop-color="#6B1637"/><stop offset="1" stop-color="#8B1B42"/></linearGradient><linearGradient id="l" x1="271" y1="244.7" x2="271" y2="136.1" gradientUnits="userSpaceOnUse"><stop stop-color="#000725"/><stop offset="1" stop-color="#283445"/></linearGradient><linearGradient id="m" x1="23.3" y1="241.1" x2="493" y2="241.1" gradientUnits="userSpaceOnUse"><stop stop-color="#FF772B"/><stop offset="1" stop-color="#FF9D06"/></linearGradient><linearGradient id="n" x1="32.6" y1="153.2" x2="57.1" y2="153.2" gradientUnits="userSpaceOnUse"><stop stop-color="#DDE5DB"/><stop offset="1" stop-color="#8196A5"/></linearGradient><linearGradient id="o" x1="27.7" y1="153.2" x2="56.7" y2="153.2" gradientUnits="userSpaceOnUse"><stop stop-color="#BFCCC9"/><stop offset="1" stop-color="#8196A5"/></linearGradient><linearGradient id="p" x1="137.9" y1="153.1" x2="158.4" y2="153.1" gradientUnits="userSpaceOnUse"><stop stop-color="#DDE5DB"/><stop offset="1" stop-color="#8196A5"/></linearGradient><linearGradient id="q" x1="137.6" y1="150.5" x2="152.9" y2="150.5" gradientUnits="userSpaceOnUse"><stop stop-color="#BFCCC9"/><stop offset="1" stop-color="#8196A5"/></linearGradient><linearGradient id="r" x1="169.3" y1="173.9" x2="169.3" y2="154.9" gradientUnits="userSpaceOnUse"><stop stop-color="#E52C31"/><stop offset="1" stop-color="#F64B6F"/></linearGradient><linearGradient id="s" x1="521.8" y1="235" x2="521.8" y2="135.9" gradientUnits="userSpaceOnUse"><stop stop-color="#000E18"/><stop offset="1" stop-color="#39546A"/></linearGradient><linearGradient id="t" x1="338.3" y1="118.9" x2="338.3" y2="79.4" gradientUnits="userSpaceOnUse"><stop stop-color="#FF772B"/><stop offset="1" stop-color="#FF9D06"/></linearGradient><linearGradient id="u" x1="185.7" y1="173.9" x2="185.7" y2="137.8" gradientUnits="userSpaceOnUse"><stop stop-color="#FF772B"/><stop offset="1" stop-color="#FF9D06"/></linearGradient><linearGradient id="v" x1="5.7" y1="191.4" x2="536.3" y2="191.4" gradientUnits="userSpaceOnUse"><stop stop-color="#004D75"/><stop offset="1" stop-color="#007CA1"/></linearGradient><linearGradient id="w" x1="5.7" y1="191.1" x2="537.2" y2="191.1" gradientUnits="userSpaceOnUse"><stop stop-color="#334D75"/><stop offset="1" stop-color="#43486A"/></linearGradient><linearGradient id="x" x1="11.2" y1="213.5" x2="513.5" y2="213.5" gradientUnits="userSpaceOnUse"><stop stop-color="#004D75"/><stop offset="1" stop-color="#007CA1"/></linearGradient><linearGradient id="y" x1="11.2" y1="212.8" x2="515.1" y2="212.8" gradientUnits="userSpaceOnUse"><stop stop-color="#334D75"/><stop offset="1" stop-color="#43486A"/></linearGradient><linearGradient id="z" x1=".1" y1="167.2" x2="555.6" y2="167.2" gradientUnits="userSpaceOnUse"><stop stop-color="#334D75"/><stop offset="1" stop-color="#43486A"/></linearGradient><linearGradient id="A" x1="0" y1="204.8" x2="501.3" y2="204.8" gradientUnits="userSpaceOnUse"><stop stop-color="#450F2B"/><stop offset=".2" stop-color="#4A1934"/><stop offset=".5" stop-color="#56354C"/><stop offset=".8" stop-color="#6A6274"/><stop offset="1" stop-color="#747786"/></linearGradient><linearGradient id="B" x1="380.7" y1="231.2" x2="380.7" y2="147.5" gradientUnits="userSpaceOnUse"><stop stop-color="#D3C79C"/><stop offset="1"/></linearGradient><linearGradient id="C" x1="336.4" y1="231.2" x2="336.4" y2="156.6" gradientUnits="userSpaceOnUse"><stop stop-color="#D3C79C"/><stop offset="1"/></linearGradient><linearGradient id="D" x1="250.4" y1="247.1" x2="250.4" y2="237.6" gradientUnits="userSpaceOnUse"><stop stop-color="#9D1331"/><stop offset="1" stop-color="#C71F48"/></linearGradient><linearGradient id="E" x1="319.5" y1="157.1" x2="322.7" y2="157.1" gradientUnits="userSpaceOnUse"><stop stop-color="#004D75"/><stop offset="1" stop-color="#007CA1"/></linearGradient><linearGradient id="F" x1="232.3" y1="179.2" x2="235.5" y2="179.2" gradientUnits="userSpaceOnUse"><stop stop-color="#004D75"/><stop offset="1" stop-color="#007CA1"/></linearGradient><linearGradient id="G" x1="138.8" y1="189.9" x2="141.9" y2="189.9" gradientUnits="userSpaceOnUse"><stop stop-color="#004D75"/><stop offset="1" stop-color="#007CA1"/></linearGradient><linearGradient id="H" x1="358.2" y1="151.9" x2="361.4" y2="151.9" gradientUnits="userSpaceOnUse"><stop stop-color="#004D75"/><stop offset="1" stop-color="#007CA1"/></linearGradient><linearGradient id="I" x1="182.9" y1="184.1" x2="186" y2="184.1" gradientUnits="userSpaceOnUse"><stop stop-color="#004D75"/><stop offset="1" stop-color="#007CA1"/></linearGradient><linearGradient id="J" x1="404.3" y1="147.3" x2="407.5" y2="147.3" gradientUnits="userSpaceOnUse"><stop stop-color="#004D75"/><stop offset="1" stop-color="#007CA1"/></linearGradient><linearGradient id="K" x1="70" y1="150.3" x2="70" y2="141.3" gradientUnits="userSpaceOnUse"><stop stop-color="#DD8897"/><stop offset="1" stop-color="#EB937A"/></linearGradient><linearGradient id="L" x1="122.7" y1="150.3" x2="122.7" y2="141.3" gradientUnits="userSpaceOnUse"><stop stop-color="#DD8897"/><stop offset="1" stop-color="#EB937A"/></linearGradient><linearGradient id="M" x1="98.2" y1="117.7" x2="98.2" y2="79.8" gradientUnits="userSpaceOnUse"><stop stop-color="#F1BFBD"/><stop offset="1" stop-color="#F6D8BF"/></linearGradient><linearGradient id="N" x1="58.4" y1="113.2" x2="58.4" y2="79.8" gradientUnits="userSpaceOnUse"><stop stop-color="#DD8897"/><stop offset="1" stop-color="#EB937A"/></linearGradient><linearGradient id="O" x1="90" y1="115" x2="90" y2="89.9" gradientUnits="userSpaceOnUse"><stop stop-color="#DD8897"/><stop offset="1" stop-color="#EB937A"/></linearGradient><linearGradient id="P" x1="407.1" y1="124.7" x2="407.1" y2="85.3" gradientUnits="userSpaceOnUse"><stop/><stop offset="1" stop-color="#C7A929"/></linearGradient><linearGradient id="Q" x1="490" y1="128.6" x2="490" y2="99.9" gradientUnits="userSpaceOnUse"><stop/><stop offset="1" stop-color="#C7A929"/></linearGradient><linearGradient id="R" x1="524.5" y1="129.4" x2="524.5" y2="99.9" gradientUnits="userSpaceOnUse"><stop/><stop offset="1" stop-color="#C7A929"/></linearGradient><linearGradient id="S" x1="213.8" y1="152.8" x2="213.8" y2="118.9" gradientUnits="userSpaceOnUse"><stop/><stop offset="1" stop-color="#C7A929"/></linearGradient><linearGradient id="T" x1="124.9" y1="180.6" x2="124.9" y2="154.9" gradientUnits="userSpaceOnUse"><stop/><stop offset="1" stop-color="#C7A929"/></linearGradient></defs></svg>